<?xml version="1.0" encoding="UTF-8" standalone="no"?>
<!DOCTYPE svg PUBLIC "-//W3C//DTD SVG 1.1//EN"
 "http://www.w3.org/Graphics/SVG/1.1/DTD/svg11.dtd">
<!-- Generated by graphviz version 12.2.1 (20241206.2353)
 -->
<!-- Title: src/main/java/fr/softsf/canscan/util/BrowserHelper.java Pages: 1 -->
<svg width="1675pt" height="108pt"
 viewBox="0.00 0.00 1675.38 108.00" xmlns="http://www.w3.org/2000/svg" xmlns:xlink="http://www.w3.org/1999/xlink">
<g id="graph0" class="graph" transform="scale(1 1) rotate(0) translate(4 104)">
<title>src/main/java/fr/softsf/canscan/util/BrowserHelper.java</title>
<!-- Node1 -->
<g id="Node000001" class="node">
<title>Node1</title>
<g id="a_Node000001"><a xlink:title=" ">
<polygon fill="#999999" stroke="#666666" points="818.25,-100 658.25,-100 658.25,-68 818.25,-68 818.25,-100"/>
<text text-anchor="start" x="666.25" y="-86.5" font-family="Helvetica,sans-Serif" font-size="10.00">src/main/java/fr/softsf</text>
<text text-anchor="middle" x="738.25" y="-74.5" font-family="Helvetica,sans-Serif" font-size="10.00">/canscan/util/BrowserHelper.java</text>
</a>
</g>
</g>
<!-- Node2 -->
<g id="Node000002" class="node">
<title>Node2</title>
<g id="a_Node000002"><a xlink:title=" ">
<polygon fill="#e0e0e0" stroke="#999999" points="92.5,-26 0,-26 0,-6 92.5,-6 92.5,-26"/>
<text text-anchor="middle" x="46.25" y="-12.5" font-family="Helvetica,sans-Serif" font-size="10.00">java.awt.Desktop</text>
</a>
</g>
</g>
<!-- Node1&#45;&gt;Node2 -->
<g id="edge1_Node000001_Node000002" class="edge">
<title>Node1&#45;&gt;Node2</title>
<g id="a_edge1_Node000001_Node000002"><a xlink:title=" ">
<path fill="none" stroke="#63b8ff" d="M657.95,-81.36C536.57,-77.8 299.47,-66.65 101.25,-32 96.88,-31.24 92.35,-30.28 87.85,-29.22"/>
<polygon fill="#63b8ff" stroke="#63b8ff" points="88.88,-25.87 78.32,-26.8 87.16,-32.65 88.88,-25.87"/>
</a>
</g>
</g>
<!-- Node3 -->
<g id="Node000003" class="node">
<title>Node3</title>
<g id="a_Node000003"><a xlink:title=" ">
<polygon fill="#e0e0e0" stroke="#999999" points="212,-26 110.5,-26 110.5,-6 212,-6 212,-26"/>
<text text-anchor="middle" x="161.25" y="-12.5" font-family="Helvetica,sans-Serif" font-size="10.00">java.io.IOException</text>
</a>
</g>
</g>
<!-- Node1&#45;&gt;Node3 -->
<g id="edge2_Node000001_Node000003" class="edge">
<title>Node1&#45;&gt;Node3</title>
<g id="a_edge2_Node000001_Node000003"><a xlink:title=" ">
<path fill="none" stroke="#63b8ff" d="M658.05,-78.74C555.99,-72.49 374.55,-58.58 221.25,-32 216.36,-31.15 211.27,-30.12 206.23,-29"/>
<polygon fill="#63b8ff" stroke="#63b8ff" points="207.34,-25.67 196.81,-26.79 205.74,-32.48 207.34,-25.67"/>
</a>
</g>
</g>
<!-- Node4 -->
<g id="Node000004" class="node">
<title>Node4</title>
<g id="a_Node000004"><a xlink:title=" ">
<polygon fill="#e0e0e0" stroke="#999999" points="302,-26 230.5,-26 230.5,-6 302,-6 302,-26"/>
<text text-anchor="middle" x="266.25" y="-12.5" font-family="Helvetica,sans-Serif" font-size="10.00">java.net.URI</text>
</a>
</g>
</g>
<!-- Node1&#45;&gt;Node4 -->
<g id="edge3_Node000001_Node000004" class="edge">
<title>Node1&#45;&gt;Node4</title>
<g id="a_edge3_Node000001_Node000004"><a xlink:title=" ">
<path fill="none" stroke="#63b8ff" d="M657.95,-78.28C571.5,-72.08 430.37,-58.68 311.25,-32 308.44,-31.37 305.55,-30.63 302.67,-29.83"/>
<polygon fill="#63b8ff" stroke="#63b8ff" points="303.73,-26.49 293.14,-26.92 301.69,-33.19 303.73,-26.49"/>
</a>
</g>
</g>
<!-- Node5 -->
<g id="Node000005" class="node">
<title>Node5</title>
<g id="a_Node000005"><a xlink:title=" ">
<polygon fill="#e0e0e0" stroke="#999999" points="406.5,-26 320,-26 320,-6 406.5,-6 406.5,-26"/>
<text text-anchor="middle" x="363.25" y="-12.5" font-family="Helvetica,sans-Serif" font-size="10.00">java.util.Objects</text>
</a>
</g>
</g>
<!-- Node1&#45;&gt;Node5 -->
<g id="edge4_Node000001_Node000005" class="edge">
<title>Node1&#45;&gt;Node5</title>
<g id="a_edge4_Node000001_Node000005"><a xlink:title=" ">
<path fill="none" stroke="#63b8ff" d="M657.75,-73.12C592.09,-64.38 497.13,-50.2 415.25,-32 411.72,-31.22 408.07,-30.33 404.43,-29.38"/>
<polygon fill="#63b8ff" stroke="#63b8ff" points="405.64,-26.09 395.07,-26.84 403.8,-32.84 405.64,-26.09"/>
</a>
</g>
</g>
<!-- Node6 -->
<g id="Node000006" class="node">
<title>Node6</title>
<g id="a_Node000006"><a xlink:title=" ">
<polygon fill="#e0e0e0" stroke="#999999" points="569.75,-32 424.75,-32 424.75,0 569.75,0 569.75,-32"/>
<text text-anchor="start" x="432.75" y="-18.5" font-family="Helvetica,sans-Serif" font-size="10.00">java.util.concurrent.Execution</text>
<text text-anchor="middle" x="497.25" y="-6.5" font-family="Helvetica,sans-Serif" font-size="10.00">Exception</text>
</a>
</g>
</g>
<!-- Node1&#45;&gt;Node6 -->
<g id="edge5_Node000001_Node000006" class="edge">
<title>Node1&#45;&gt;Node6</title>
<g id="a_edge5_Node000001_Node000006"><a xlink:title=" ">
<path fill="none" stroke="#63b8ff" d="M681.75,-67.53C646.67,-57.92 601.4,-45.52 564.49,-35.41"/>
<polygon fill="#63b8ff" stroke="#63b8ff" points="565.85,-32.16 555.28,-32.89 564,-38.91 565.85,-32.16"/>
</a>
</g>
</g>
<!-- Node7 -->
<g id="Node000007" class="node">
<title>Node7</title>
<g id="a_Node000007"><a xlink:title=" ">
<polygon fill="#e0e0e0" stroke="#999999" points="728.5,-32 588,-32 588,0 728.5,0 728.5,-32"/>
<text text-anchor="start" x="596" y="-18.5" font-family="Helvetica,sans-Serif" font-size="10.00">java.util.concurrent.Executor</text>
<text text-anchor="middle" x="658.25" y="-6.5" font-family="Helvetica,sans-Serif" font-size="10.00">Service</text>
</a>
</g>
</g>
<!-- Node1&#45;&gt;Node7 -->
<g id="edge6_Node000001_Node000007" class="edge">
<title>Node1&#45;&gt;Node7</title>
<g id="a_edge6_Node000001_Node000007"><a xlink:title=" ">
<path fill="none" stroke="#63b8ff" d="M719.7,-67.69C709.57,-59.34 696.84,-48.84 685.6,-39.56"/>
<polygon fill="#63b8ff" stroke="#63b8ff" points="688.09,-37.08 678.15,-33.42 683.64,-42.48 688.09,-37.08"/>
</a>
</g>
</g>
<!-- Node8 -->
<g id="Node000008" class="node">
<title>Node8</title>
<g id="a_Node000008"><a xlink:title=" ">
<polygon fill="#e0e0e0" stroke="#999999" points="892.12,-26 746.38,-26 746.38,-6 892.12,-6 892.12,-26"/>
<text text-anchor="middle" x="819.25" y="-12.5" font-family="Helvetica,sans-Serif" font-size="10.00">java.util.concurrent.Executors</text>
</a>
</g>
</g>
<!-- Node1&#45;&gt;Node8 -->
<g id="edge7_Node000001_Node000008" class="edge">
<title>Node1&#45;&gt;Node8</title>
<g id="a_edge7_Node000001_Node000008"><a xlink:title=" ">
<path fill="none" stroke="#63b8ff" d="M757.04,-67.69C769.67,-57.4 786.31,-43.84 799.2,-33.33"/>
<polygon fill="#63b8ff" stroke="#63b8ff" points="801.1,-36.3 806.64,-27.27 796.68,-30.88 801.1,-36.3"/>
</a>
</g>
</g>
<!-- Node9 -->
<g id="Node000009" class="node">
<title>Node9</title>
<g id="a_Node000009"><a xlink:title=" ">
<polygon fill="#e0e0e0" stroke="#999999" points="1039.88,-26 910.62,-26 910.62,-6 1039.88,-6 1039.88,-26"/>
<text text-anchor="middle" x="975.25" y="-12.5" font-family="Helvetica,sans-Serif" font-size="10.00">java.util.concurrent.Future</text>
</a>
</g>
</g>
<!-- Node1&#45;&gt;Node9 -->
<g id="edge8_Node000001_Node000009" class="edge">
<title>Node1&#45;&gt;Node9</title>
<g id="a_edge8_Node000001_Node000009"><a xlink:title=" ">
<path fill="none" stroke="#63b8ff" d="M793.82,-67.53C835.41,-55.94 891.57,-40.3 930.34,-29.51"/>
<polygon fill="#63b8ff" stroke="#63b8ff" points="931.13,-32.92 939.82,-26.87 929.25,-26.18 931.13,-32.92"/>
</a>
</g>
</g>
<!-- Node10 -->
<g id="Node000010" class="node">
<title>Node10</title>
<g id="a_Node000010"><a xlink:title=" ">
<polygon fill="#e0e0e0" stroke="#999999" points="1198.88,-26 1057.62,-26 1057.62,-6 1198.88,-6 1198.88,-26"/>
<text text-anchor="middle" x="1128.25" y="-12.5" font-family="Helvetica,sans-Serif" font-size="10.00">java.util.concurrent.TimeUnit</text>
</a>
</g>
</g>
<!-- Node1&#45;&gt;Node10 -->
<g id="edge9_Node000001_Node000010" class="edge">
<title>Node1&#45;&gt;Node10</title>
<g id="a_edge9_Node000001_Node000010"><a xlink:title=" ">
<path fill="none" stroke="#63b8ff" d="M818.57,-70.4C881.42,-60.4 970.99,-45.84 1049.25,-32 1055.5,-30.89 1062.03,-29.71 1068.53,-28.5"/>
<polygon fill="#63b8ff" stroke="#63b8ff" points="1068.73,-32.03 1077.91,-26.75 1067.44,-25.15 1068.73,-32.03"/>
</a>
</g>
</g>
<!-- Node11 -->
<g id="Node000011" class="node">
<title>Node11</title>
<g id="a_Node000011"><a xlink:title=" ">
<polygon fill="#e0e0e0" stroke="#999999" points="1353.62,-32 1216.88,-32 1216.88,0 1353.62,0 1353.62,-32"/>
<text text-anchor="start" x="1224.88" y="-18.5" font-family="Helvetica,sans-Serif" font-size="10.00">java.util.concurrent.Timeout</text>
<text text-anchor="middle" x="1285.25" y="-6.5" font-family="Helvetica,sans-Serif" font-size="10.00">Exception</text>
</a>
</g>
</g>
<!-- Node1&#45;&gt;Node11 -->
<g id="edge10_Node000001_Node000011" class="edge">
<title>Node1&#45;&gt;Node11</title>
<g id="a_edge10_Node000001_Node000011"><a xlink:title=" ">
<path fill="none" stroke="#63b8ff" d="M818.35,-76.38C909.73,-68.36 1063.84,-53.42 1205.42,-32.36"/>
<polygon fill="#63b8ff" stroke="#63b8ff" points="1205.59,-35.87 1214.96,-30.93 1204.55,-28.95 1205.59,-35.87"/>
</a>
</g>
</g>
<!-- Node12 -->
<g id="Node000012" class="node">
<title>Node12</title>
<g id="a_Node000012"><a xlink:title=" ">
<polygon fill="#e0e0e0" stroke="#999999" points="1504.75,-32 1371.75,-32 1371.75,0 1504.75,0 1504.75,-32"/>
<text text-anchor="start" x="1379.75" y="-18.5" font-family="Helvetica,sans-Serif" font-size="10.00">fr.softsf.canscan.constant.</text>
<text text-anchor="middle" x="1438.25" y="-6.5" font-family="Helvetica,sans-Serif" font-size="10.00">StringConstants</text>
</a>
</g>
</g>
<!-- Node1&#45;&gt;Node12 -->
<g id="edge11_Node000001_Node000012" class="edge">
<title>Node1&#45;&gt;Node12</title>
<g id="a_edge11_Node000001_Node000012"><a xlink:title=" ">
<path fill="none" stroke="#63b8ff" d="M818.35,-79.36C935.21,-73.41 1159.41,-59.56 1360.23,-32.17"/>
<polygon fill="#63b8ff" stroke="#63b8ff" points="1360.67,-35.64 1370.09,-30.81 1359.71,-28.71 1360.67,-35.64"/>
</a>
</g>
</g>
<!-- Node13 -->
<g id="Node000013" class="node">
<title>Node13</title>
<g id="a_Node000013"><a xlink:title=" ">
<polygon fill="#e0e0e0" stroke="#999999" points="1667.38,-26 1523.12,-26 1523.12,-6 1667.38,-6 1667.38,-26"/>
<text text-anchor="middle" x="1595.25" y="-12.5" font-family="Helvetica,sans-Serif" font-size="10.00">fr.softsf.canscan.ui.MyPopup</text>
</a>
</g>
</g>
<!-- Node1&#45;&gt;Node13 -->
<g id="edge12_Node000001_Node000013" class="edge">
<title>Node1&#45;&gt;Node13</title>
<g id="a_edge12_Node000001_Node000013"><a xlink:title=" ">
<path fill="none" stroke="#63b8ff" d="M818.7,-80.83C959.95,-76.32 1261.55,-63.59 1514.25,-32 1522.06,-31.02 1530.26,-29.77 1538.32,-28.41"/>
<polygon fill="#63b8ff" stroke="#63b8ff" points="1538.83,-31.88 1548.07,-26.69 1537.61,-24.98 1538.83,-31.88"/>
</a>
</g>
</g>
</g>
</svg>
