<?xml version="1.0" encoding="UTF-8" standalone="no"?>
<!DOCTYPE svg PUBLIC "-//W3C//DTD SVG 1.1//EN"
 "http://www.w3.org/Graphics/SVG/1.1/DTD/svg11.dtd">
<!-- Generated by graphviz version 12.2.1 (20241206.2353)
 -->
<!-- Title: src/test/java/fr/softsf/canscan/CanScanUTest.java Pages: 1 -->
<!--zoomable 108 -->

<svg id="main" version="1.1" xmlns="http://www.w3.org/2000/svg" xmlns:xlink="http://www.w3.org/1999/xlink" xml:space="preserve" onload="init(evt)">

<style type="text/css"><![CDATA[
.node, .edge {opacity: 0.7;}
.node.selected, .edge.selected {opacity: 1;}
.edge:hover path { stroke: red; }
.edge:hover polygon { stroke: red; fill: red; }
]]></style>

<defs>
  <circle id="rim" cx="0" cy="0" r="7"/>
  <circle id="rim2" cx="0" cy="0" r="3.5"/>
  <g id="zoomPlus">
    <use xlink:href="#rim" fill="#404040"><set attributeName="fill" to="#808080" begin="zoomplus.mouseover" end="zoomplus.mouseout"/></use>
    <path d="M-4,0h8M0,-4v8" fill="none" stroke="white" stroke-width="1.5" pointer-events="none"/>
  </g>
  <g id="zoomMin">
    <use xlink:href="#rim" fill="#404040"><set attributeName="fill" to="#808080" begin="zoomminus.mouseover" end="zoomminus.mouseout"/></use>
    <path d="M-4,0h8" fill="none" stroke="white" stroke-width="1.5" pointer-events="none"/>
  </g>
  <g id="arrowUp" transform="translate(30 24)">
    <use xlink:href="#rim"/>
    <path pointer-events="none" fill="none" stroke="white" stroke-width="1.5" d="M0,-3.0v7 M-2.5,-0.5L0,-3.0L2.5,-0.5"/>
  </g>
  <g id="arrowRight" transform="rotate(90) translate(36 -43)">
    <use xlink:href="#rim"/>
    <path pointer-events="none" fill="none" stroke="white" stroke-width="1.5" d="M0,-3.0v7 M-2.5,-0.5L0,-3.0L2.5,-0.5"/>
  </g>
  <g id="arrowDown" transform="rotate(180) translate(-30 -48)">
    <use xlink:href="#rim"/>
    <path pointer-events="none" fill="none" stroke="white" stroke-width="1.5" d="M0,-3.0v7 M-2.5,-0.5L0,-3.0L2.5,-0.5"/>
  </g>
  <g id="arrowLeft" transform="rotate(270) translate(-36 17)">
    <use xlink:href="#rim"/>
    <path pointer-events="none" fill="none" stroke="white" stroke-width="1.5" d="M0,-3.0v7 M-2.5,-0.5L0,-3.0L2.5,-0.5"/>
  </g>
  <g id="resetDef">
    <use xlink:href="#rim2" fill="#404040"><set attributeName="fill" to="#808080" begin="reset.mouseover" end="reset.mouseout"/></use>
  </g>
</defs>
<script type="application/ecmascript">
var viewWidth = 6280;
var viewHeight = 108;
var sectionId = 'dynsection-0';
</script>
<script type="application/ecmascript" xlink:href="svg.min.js"/>
<svg id="graph" class="graph">
<g id="viewport">
<title>src/test/java/fr/softsf/canscan/CanScanUTest.java</title>
<!-- Node1 -->
<g id="Node000001" class="node">
<title>Node1</title>
<g id="a_Node000001"><a xlink:title=" ">
<polygon fill="#999999" stroke="#666666" points="2908.75,-100 2762.25,-100 2762.25,-68 2908.75,-68 2908.75,-100"/>
<text text-anchor="start" x="2770.25" y="-86.5" font-family="Helvetica,sans-Serif" font-size="10.00">src/test/java/fr/softsf</text>
<text text-anchor="middle" x="2835.5" y="-74.5" font-family="Helvetica,sans-Serif" font-size="10.00">/canscan/CanScanUTest.java</text>
</a>
</g>
</g>
<!-- Node2 -->
<g id="Node000002" class="node">
<title>Node2</title>
<g id="a_Node000002"><a xlink:title=" ">
<polygon fill="#e0e0e0" stroke="#999999" points="79,-26 0,-26 0,-6 79,-6 79,-26"/>
<text text-anchor="middle" x="39.5" y="-12.5" font-family="Helvetica,sans-Serif" font-size="10.00">java.awt.Color</text>
</a>
</g>
</g>
<!-- Node1&#45;&gt;Node2 -->
<g id="edge1_Node000001_Node000002" class="edge">
<title>Node1&#45;&gt;Node2</title>
<g id="a_edge1_Node000001_Node000002"><a xlink:title=" ">
<path fill="none" stroke="#63b8ff" d="M2761.95,-82.88C2351.97,-82.06 357.75,-75.81 87.5,-32 83.68,-31.38 79.74,-30.53 75.84,-29.54"/>
<polygon fill="#63b8ff" stroke="#63b8ff" points="77.12,-26.26 66.54,-26.88 75.2,-32.99 77.12,-26.26"/>
</a>
</g>
</g>
<!-- Node3 -->
<g id="Node000003" class="node">
<title>Node3</title>
<g id="a_Node000003"><a xlink:title=" ">
<polygon fill="#e0e0e0" stroke="#999999" points="204.25,-26 96.75,-26 96.75,-6 204.25,-6 204.25,-26"/>
<text text-anchor="middle" x="150.5" y="-12.5" font-family="Helvetica,sans-Serif" font-size="10.00">java.awt.Graphics2D</text>
</a>
</g>
</g>
<!-- Node1&#45;&gt;Node3 -->
<g id="edge2_Node000001_Node000003" class="edge">
<title>Node1&#45;&gt;Node3</title>
<g id="a_edge2_Node000001_Node000003"><a xlink:title=" ">
<path fill="none" stroke="#63b8ff" d="M2761.8,-82.51C2363.03,-79.73 471.86,-64.88 213.5,-32 207.51,-31.24 201.25,-30.13 195.11,-28.87"/>
<polygon fill="#63b8ff" stroke="#63b8ff" points="196.26,-25.54 185.74,-26.77 194.73,-32.37 196.26,-25.54"/>
</a>
</g>
</g>
<!-- Node4 -->
<g id="Node000004" class="node">
<title>Node4</title>
<g id="a_Node000004"><a xlink:title=" ">
<polygon fill="#e0e0e0" stroke="#999999" points="358.5,-26 222.5,-26 222.5,-6 358.5,-6 358.5,-26"/>
<text text-anchor="middle" x="290.5" y="-12.5" font-family="Helvetica,sans-Serif" font-size="10.00">java.awt.event.ActionEvent</text>
</a>
</g>
</g>
<!-- Node1&#45;&gt;Node4 -->
<g id="edge3_Node000001_Node000004" class="edge">
<title>Node1&#45;&gt;Node4</title>
<g id="a_edge3_Node000001_Node000004"><a xlink:title=" ">
<path fill="none" stroke="#63b8ff" d="M2761.9,-83.18C2404.67,-83.82 849.16,-83.51 367.5,-32 359.68,-31.16 351.46,-29.94 343.43,-28.55"/>
<polygon fill="#63b8ff" stroke="#63b8ff" points="344.22,-25.13 333.75,-26.76 342.95,-32.02 344.22,-25.13"/>
</a>
</g>
</g>
<!-- Node5 -->
<g id="Node000005" class="node">
<title>Node5</title>
<g id="a_Node000005"><a xlink:title=" ">
<polygon fill="#e0e0e0" stroke="#999999" points="524.5,-26 376.5,-26 376.5,-6 524.5,-6 524.5,-26"/>
<text text-anchor="middle" x="450.5" y="-12.5" font-family="Helvetica,sans-Serif" font-size="10.00">java.awt.image.BufferedImage</text>
</a>
</g>
</g>
<!-- Node1&#45;&gt;Node5 -->
<g id="edge4_Node000001_Node000005" class="edge">
<title>Node1&#45;&gt;Node5</title>
<g id="a_edge4_Node000001_Node000005"><a xlink:title=" ">
<path fill="none" stroke="#63b8ff" d="M2761.81,-82.92C2419.31,-82.32 980.83,-77.1 533.5,-32 524.79,-31.12 515.63,-29.84 506.69,-28.38"/>
<polygon fill="#63b8ff" stroke="#63b8ff" points="507.49,-24.97 497.04,-26.72 506.3,-31.87 507.49,-24.97"/>
</a>
</g>
</g>
<!-- Node6 -->
<g id="Node000006" class="node">
<title>Node6</title>
<g id="a_Node000006"><a xlink:title=" ">
<polygon fill="#e0e0e0" stroke="#999999" points="606.12,-26 542.88,-26 542.88,-6 606.12,-6 606.12,-26"/>
<text text-anchor="middle" x="574.5" y="-12.5" font-family="Helvetica,sans-Serif" font-size="10.00">java.io.File</text>
</a>
</g>
</g>
<!-- Node1&#45;&gt;Node6 -->
<g id="edge5_Node000001_Node000006" class="edge">
<title>Node1&#45;&gt;Node6</title>
<g id="a_edge5_Node000001_Node000006"><a xlink:title=" ">
<path fill="none" stroke="#63b8ff" d="M2761.76,-82.77C2400.8,-81.46 828.81,-73.41 614.5,-32 611.86,-31.49 609.16,-30.82 606.48,-30.05"/>
<polygon fill="#63b8ff" stroke="#63b8ff" points="607.73,-26.78 597.14,-26.94 605.52,-33.42 607.73,-26.78"/>
</a>
</g>
</g>
<!-- Node7 -->
<g id="Node000007" class="node">
<title>Node7</title>
<g id="a_Node000007"><a xlink:title=" ">
<polygon fill="#e0e0e0" stroke="#999999" points="725.25,-26 623.75,-26 623.75,-6 725.25,-6 725.25,-26"/>
<text text-anchor="middle" x="674.5" y="-12.5" font-family="Helvetica,sans-Serif" font-size="10.00">java.io.IOException</text>
</a>
</g>
</g>
<!-- Node1&#45;&gt;Node7 -->
<g id="edge6_Node000001_Node000007" class="edge">
<title>Node1&#45;&gt;Node7</title>
<g id="a_edge6_Node000001_Node000007"><a xlink:title=" ">
<path fill="none" stroke="#63b8ff" d="M2761.78,-82.19C2413.05,-78.25 937.37,-60.03 733.5,-32 728.22,-31.27 722.72,-30.25 717.31,-29.08"/>
<polygon fill="#63b8ff" stroke="#63b8ff" points="718.4,-25.74 707.87,-26.85 716.79,-32.55 718.4,-25.74"/>
</a>
</g>
</g>
<!-- Node8 -->
<g id="Node000008" class="node">
<title>Node8</title>
<g id="a_Node000008"><a xlink:title=" ">
<polygon fill="#e0e0e0" stroke="#999999" points="876,-32 743,-32 743,0 876,0 876,-32"/>
<text text-anchor="start" x="751" y="-18.5" font-family="Helvetica,sans-Serif" font-size="10.00">java.lang.reflect.Invocation</text>
<text text-anchor="middle" x="809.5" y="-6.5" font-family="Helvetica,sans-Serif" font-size="10.00">TargetException</text>
</a>
</g>
</g>
<!-- Node1&#45;&gt;Node8 -->
<g id="edge7_Node000001_Node000008" class="edge">
<title>Node1&#45;&gt;Node8</title>
<g id="a_edge7_Node000001_Node000008"><a xlink:title=" ">
<path fill="none" stroke="#63b8ff" d="M2762,-82.74C2456.12,-81.39 1282.08,-73.64 887.3,-32.02"/>
<polygon fill="#63b8ff" stroke="#63b8ff" points="887.95,-28.57 877.63,-30.97 887.2,-35.53 887.95,-28.57"/>
</a>
</g>
</g>
<!-- Node9 -->
<g id="Node000009" class="node">
<title>Node9</title>
<g id="a_Node000009"><a xlink:title=" ">
<polygon fill="#e0e0e0" stroke="#999999" points="982.88,-26 894.12,-26 894.12,-6 982.88,-6 982.88,-26"/>
<text text-anchor="middle" x="938.5" y="-12.5" font-family="Helvetica,sans-Serif" font-size="10.00">java.nio.file.Path</text>
</a>
</g>
</g>
<!-- Node1&#45;&gt;Node9 -->
<g id="edge8_Node000001_Node000009" class="edge">
<title>Node1&#45;&gt;Node9</title>
<g id="a_edge8_Node000001_Node000009"><a xlink:title=" ">
<path fill="none" stroke="#63b8ff" d="M2761.95,-83.35C2463.54,-84.39 1342.56,-84.66 992.5,-32 987.9,-31.31 983.13,-30.35 978.43,-29.25"/>
<polygon fill="#63b8ff" stroke="#63b8ff" points="979.67,-25.96 969.11,-26.87 977.93,-32.74 979.67,-25.96"/>
</a>
</g>
</g>
<!-- Node10 -->
<g id="Node000010" class="node">
<title>Node10</title>
<g id="a_Node000010"><a xlink:title=" ">
<polygon fill="#e0e0e0" stroke="#999999" points="1117.75,-26 1001.25,-26 1001.25,-6 1117.75,-6 1117.75,-26"/>
<text text-anchor="middle" x="1059.5" y="-12.5" font-family="Helvetica,sans-Serif" font-size="10.00">javax.imageio.ImageIO</text>
</a>
</g>
</g>
<!-- Node1&#45;&gt;Node10 -->
<g id="edge9_Node000001_Node000010" class="edge">
<title>Node1&#45;&gt;Node10</title>
<g id="a_edge9_Node000001_Node000010"><a xlink:title=" ">
<path fill="none" stroke="#63b8ff" d="M2761.92,-82.64C2477.64,-80.95 1450.97,-72.15 1127.5,-32 1120.97,-31.19 1114.14,-30.04 1107.43,-28.75"/>
<polygon fill="#63b8ff" stroke="#63b8ff" points="1108.32,-25.36 1097.82,-26.75 1106.9,-32.21 1108.32,-25.36"/>
</a>
</g>
</g>
<!-- Node11 -->
<g id="Node000011" class="node">
<title>Node11</title>
<g id="a_Node000011"><a xlink:title=" ">
<polygon fill="#e0e0e0" stroke="#999999" points="1240.75,-26 1136.25,-26 1136.25,-6 1240.75,-6 1240.75,-26"/>
<text text-anchor="middle" x="1188.5" y="-12.5" font-family="Helvetica,sans-Serif" font-size="10.00">javax.swing.JButton</text>
</a>
</g>
</g>
<!-- Node1&#45;&gt;Node11 -->
<g id="edge10_Node000001_Node000011" class="edge">
<title>Node1&#45;&gt;Node11</title>
<g id="a_edge10_Node000001_Node000011"><a xlink:title=" ">
<path fill="none" stroke="#63b8ff" d="M2762.1,-82.67C2491.16,-81.15 1547.5,-72.97 1249.5,-32 1243.9,-31.23 1238.07,-30.16 1232.34,-28.94"/>
<polygon fill="#63b8ff" stroke="#63b8ff" points="1233.5,-25.61 1222.97,-26.79 1231.94,-32.44 1233.5,-25.61"/>
</a>
</g>
</g>
<!-- Node12 -->
<g id="Node000012" class="node">
<title>Node12</title>
<g id="a_Node000012"><a xlink:title=" ">
<polygon fill="#e0e0e0" stroke="#999999" points="1394.5,-26 1258.5,-26 1258.5,-6 1394.5,-6 1394.5,-26"/>
<text text-anchor="middle" x="1326.5" y="-12.5" font-family="Helvetica,sans-Serif" font-size="10.00">javax.swing.JColorChooser</text>
</a>
</g>
</g>
<!-- Node1&#45;&gt;Node12 -->
<g id="edge11_Node000001_Node000012" class="edge">
<title>Node1&#45;&gt;Node12</title>
<g id="a_edge11_Node000001_Node000012"><a xlink:title=" ">
<path fill="none" stroke="#63b8ff" d="M2761.97,-81.91C2508.31,-77.89 1670.74,-62.6 1403.5,-32 1395.77,-31.12 1387.67,-29.88 1379.73,-28.49"/>
<polygon fill="#63b8ff" stroke="#63b8ff" points="1380.63,-25.1 1370.17,-26.73 1379.36,-31.98 1380.63,-25.1"/>
</a>
</g>
</g>
<!-- Node13 -->
<g id="Node000013" class="node">
<title>Node13</title>
<g id="a_Node000013"><a xlink:title=" ">
<polygon fill="#e0e0e0" stroke="#999999" points="1540,-26 1413,-26 1413,-6 1540,-6 1540,-26"/>
<text text-anchor="middle" x="1476.5" y="-12.5" font-family="Helvetica,sans-Serif" font-size="10.00">javax.swing.JOptionPane</text>
</a>
</g>
</g>
<!-- Node1&#45;&gt;Node13 -->
<g id="edge12_Node000001_Node000013" class="edge">
<title>Node1&#45;&gt;Node13</title>
<g id="a_edge12_Node000001_Node000013"><a xlink:title=" ">
<path fill="none" stroke="#63b8ff" d="M2761.76,-81.66C2525.16,-77.1 1786.69,-60.88 1549.5,-32 1542.42,-31.14 1535,-29.95 1527.73,-28.62"/>
<polygon fill="#63b8ff" stroke="#63b8ff" points="1528.44,-25.19 1517.95,-26.72 1527.1,-32.07 1528.44,-25.19"/>
</a>
</g>
</g>
<!-- Node14 -->
<g id="Node000014" class="node">
<title>Node14</title>
<g id="a_Node000014"><a xlink:title=" ">
<polygon fill="#e0e0e0" stroke="#999999" points="1700.5,-26 1558.5,-26 1558.5,-6 1700.5,-6 1700.5,-26"/>
<text text-anchor="middle" x="1629.5" y="-12.5" font-family="Helvetica,sans-Serif" font-size="10.00">org.junit.jupiter.api.AfterEach</text>
</a>
</g>
</g>
<!-- Node1&#45;&gt;Node14 -->
<g id="edge13_Node000001_Node000014" class="edge">
<title>Node1&#45;&gt;Node14</title>
<g id="a_edge13_Node000001_Node000014"><a xlink:title=" ">
<path fill="none" stroke="#63b8ff" d="M2761.77,-83.22C2581.51,-83 2104.35,-77.73 1709.5,-32 1701.49,-31.07 1693.08,-29.81 1684.84,-28.42"/>
<polygon fill="#63b8ff" stroke="#63b8ff" points="1685.71,-25.02 1675.25,-26.71 1684.48,-31.91 1685.71,-25.02"/>
</a>
</g>
</g>
<!-- Node15 -->
<g id="Node000015" class="node">
<title>Node15</title>
<g id="a_Node000015"><a xlink:title=" ">
<polygon fill="#e0e0e0" stroke="#999999" points="1868.25,-26 1718.75,-26 1718.75,-6 1868.25,-6 1868.25,-26"/>
<text text-anchor="middle" x="1793.5" y="-12.5" font-family="Helvetica,sans-Serif" font-size="10.00">org.junit.jupiter.api.BeforeEach</text>
</a>
</g>
</g>
<!-- Node1&#45;&gt;Node15 -->
<g id="edge14_Node000001_Node000015" class="edge">
<title>Node1&#45;&gt;Node15</title>
<g id="a_edge14_Node000001_Node000015"><a xlink:title=" ">
<path fill="none" stroke="#63b8ff" d="M2761.93,-82.18C2601.02,-79.7 2205.93,-69.92 1877.5,-32 1869.11,-31.03 1860.29,-29.75 1851.65,-28.34"/>
<polygon fill="#63b8ff" stroke="#63b8ff" points="1852.38,-24.92 1841.93,-26.69 1851.21,-31.82 1852.38,-24.92"/>
</a>
</g>
</g>
<!-- Node16 -->
<g id="Node000016" class="node">
<title>Node16</title>
<g id="a_Node000016"><a xlink:title=" ">
<polygon fill="#e0e0e0" stroke="#999999" points="2044.38,-26 1886.62,-26 1886.62,-6 2044.38,-6 2044.38,-26"/>
<text text-anchor="middle" x="1965.5" y="-12.5" font-family="Helvetica,sans-Serif" font-size="10.00">org.junit.jupiter.api.DisplayName</text>
</a>
</g>
</g>
<!-- Node1&#45;&gt;Node16 -->
<g id="edge15_Node000001_Node000016" class="edge">
<title>Node1&#45;&gt;Node16</title>
<g id="a_edge15_Node000001_Node000016"><a xlink:title=" ">
<path fill="none" stroke="#63b8ff" d="M2761.96,-80.75C2623.09,-75.93 2312.94,-62.49 2053.5,-32 2044.84,-30.98 2035.74,-29.69 2026.81,-28.29"/>
<polygon fill="#63b8ff" stroke="#63b8ff" points="2027.56,-24.86 2017.12,-26.71 2026.43,-31.77 2027.56,-24.86"/>
</a>
</g>
</g>
<!-- Node17 -->
<g id="Node000017" class="node">
<title>Node17</title>
<g id="a_Node000017"><a xlink:title=" ">
<polygon fill="#e0e0e0" stroke="#999999" points="2180.12,-26 2062.88,-26 2062.88,-6 2180.12,-6 2180.12,-26"/>
<text text-anchor="middle" x="2121.5" y="-12.5" font-family="Helvetica,sans-Serif" font-size="10.00">org.junit.jupiter.api.Test</text>
</a>
</g>
</g>
<!-- Node1&#45;&gt;Node17 -->
<g id="edge16_Node000001_Node000017" class="edge">
<title>Node1&#45;&gt;Node17</title>
<g id="a_edge16_Node000001_Node000017"><a xlink:title=" ">
<path fill="none" stroke="#63b8ff" d="M2761.86,-80.59C2641.38,-75.88 2394.9,-63.08 2188.5,-32 2182.53,-31.1 2176.31,-29.97 2170.15,-28.74"/>
<polygon fill="#63b8ff" stroke="#63b8ff" points="2171.23,-25.39 2160.72,-26.74 2169.78,-32.24 2171.23,-25.39"/>
</a>
</g>
</g>
<!-- Node18 -->
<g id="Node000018" class="node">
<title>Node18</title>
<g id="a_Node000018"><a xlink:title=" ">
<polygon fill="#e0e0e0" stroke="#999999" points="2307,-32 2198,-32 2198,0 2307,0 2307,-32"/>
<text text-anchor="start" x="2206" y="-18.5" font-family="Helvetica,sans-Serif" font-size="10.00">org.junit.jupiter.api.io.</text>
<text text-anchor="middle" x="2252.5" y="-6.5" font-family="Helvetica,sans-Serif" font-size="10.00">TempDir</text>
</a>
</g>
</g>
<!-- Node1&#45;&gt;Node18 -->
<g id="edge17_Node000001_Node000018" class="edge">
<title>Node1&#45;&gt;Node18</title>
<g id="a_edge17_Node000001_Node000018"><a xlink:title=" ">
<path fill="none" stroke="#63b8ff" d="M2762.04,-78.85C2663.39,-72.6 2482.51,-58.74 2318.49,-32.18"/>
<polygon fill="#63b8ff" stroke="#63b8ff" points="2319.15,-28.74 2308.71,-30.57 2318.01,-35.65 2319.15,-28.74"/>
</a>
</g>
</g>
<!-- Node19 -->
<g id="Node000019" class="node">
<title>Node19</title>
<g id="a_Node000019"><a xlink:title=" ">
<polygon fill="#e0e0e0" stroke="#999999" points="2443.5,-32 2325.5,-32 2325.5,0 2443.5,0 2443.5,-32"/>
<text text-anchor="start" x="2333.5" y="-18.5" font-family="Helvetica,sans-Serif" font-size="10.00">org.junit.jupiter.params.</text>
<text text-anchor="middle" x="2384.5" y="-6.5" font-family="Helvetica,sans-Serif" font-size="10.00">ParameterizedTest</text>
</a>
</g>
</g>
<!-- Node1&#45;&gt;Node19 -->
<g id="edge18_Node000001_Node000019" class="edge">
<title>Node1&#45;&gt;Node19</title>
<g id="a_edge18_Node000001_Node000019"><a xlink:title=" ">
<path fill="none" stroke="#63b8ff" d="M2761.79,-75.06C2686.95,-66.58 2567.52,-51.88 2455,-32.35"/>
<polygon fill="#63b8ff" stroke="#63b8ff" points="2455.72,-28.93 2445.27,-30.65 2454.52,-35.82 2455.72,-28.93"/>
</a>
</g>
</g>
<!-- Node20 -->
<g id="Node000020" class="node">
<title>Node20</title>
<g id="a_Node000020"><a xlink:title=" ">
<polygon fill="#e0e0e0" stroke="#999999" points="2617.25,-32 2461.75,-32 2461.75,0 2617.25,0 2617.25,-32"/>
<text text-anchor="start" x="2469.75" y="-18.5" font-family="Helvetica,sans-Serif" font-size="10.00">org.junit.jupiter.params.provider.</text>
<text text-anchor="middle" x="2539.5" y="-6.5" font-family="Helvetica,sans-Serif" font-size="10.00">CsvSource</text>
</a>
</g>
</g>
<!-- Node1&#45;&gt;Node20 -->
<g id="edge19_Node000001_Node000020" class="edge">
<title>Node1&#45;&gt;Node20</title>
<g id="a_edge19_Node000001_Node000020"><a xlink:title=" ">
<path fill="none" stroke="#63b8ff" d="M2766.1,-67.53C2722.37,-57.78 2665.75,-45.15 2620.05,-34.96"/>
<polygon fill="#63b8ff" stroke="#63b8ff" points="2620.98,-31.58 2610.45,-32.82 2619.45,-38.41 2620.98,-31.58"/>
</a>
</g>
</g>
<!-- Node21 -->
<g id="Node000021" class="node">
<title>Node21</title>
<g id="a_Node000021"><a xlink:title=" ">
<polygon fill="#e0e0e0" stroke="#999999" points="2765.5,-26 2635.5,-26 2635.5,-6 2765.5,-6 2765.5,-26"/>
<text text-anchor="middle" x="2700.5" y="-12.5" font-family="Helvetica,sans-Serif" font-size="10.00">org.mockito.MockedStatic</text>
</a>
</g>
</g>
<!-- Node1&#45;&gt;Node21 -->
<g id="edge20_Node000001_Node000021" class="edge">
<title>Node1&#45;&gt;Node21</title>
<g id="a_edge20_Node000001_Node000021"><a xlink:title=" ">
<path fill="none" stroke="#63b8ff" d="M2803.85,-67.53C2781.58,-56.64 2751.98,-42.17 2730.17,-31.5"/>
<polygon fill="#63b8ff" stroke="#63b8ff" points="2731.73,-28.37 2721.21,-27.12 2728.66,-34.66 2731.73,-28.37"/>
</a>
</g>
</g>
<!-- Node22 -->
<g id="Node000022" class="node">
<title>Node22</title>
<g id="a_Node000022"><a xlink:title=" ">
<polygon fill="#e0e0e0" stroke="#999999" points="2887.75,-26 2783.25,-26 2783.25,-6 2887.75,-6 2887.75,-26"/>
<text text-anchor="middle" x="2835.5" y="-12.5" font-family="Helvetica,sans-Serif" font-size="10.00">org.mockito.Mockito</text>
</a>
</g>
</g>
<!-- Node1&#45;&gt;Node22 -->
<g id="edge21_Node000001_Node000022" class="edge">
<title>Node1&#45;&gt;Node22</title>
<g id="a_edge21_Node000001_Node000022"><a xlink:title=" ">
<path fill="none" stroke="#63b8ff" d="M2835.5,-67.69C2835.5,-58.8 2835.5,-47.46 2835.5,-37.77"/>
<polygon fill="#63b8ff" stroke="#63b8ff" points="2839,-37.83 2835.5,-27.83 2832,-37.83 2839,-37.83"/>
</a>
</g>
</g>
<!-- Node23 -->
<g id="Node000023" class="node">
<title>Node23</title>
<g id="a_Node000023"><a xlink:title=" ">
<polygon fill="#e0e0e0" stroke="#999999" points="3027.38,-32 2905.62,-32 2905.62,0 3027.38,0 3027.38,-32"/>
<text text-anchor="start" x="2913.62" y="-18.5" font-family="Helvetica,sans-Serif" font-size="10.00">fr.softsf.canscan.model.</text>
<text text-anchor="middle" x="2966.5" y="-6.5" font-family="Helvetica,sans-Serif" font-size="10.00">CommonFields</text>
</a>
</g>
</g>
<!-- Node1&#45;&gt;Node23 -->
<g id="edge22_Node000001_Node000023" class="edge">
<title>Node1&#45;&gt;Node23</title>
<g id="a_edge22_Node000001_Node000023"><a xlink:title=" ">
<path fill="none" stroke="#63b8ff" d="M2866.21,-67.53C2883.95,-58.59 2906.49,-47.24 2925.7,-37.56"/>
<polygon fill="#63b8ff" stroke="#63b8ff" points="2927.27,-40.68 2934.63,-33.06 2924.12,-34.43 2927.27,-40.68"/>
</a>
</g>
</g>
<!-- Node24 -->
<g id="Node000024" class="node">
<title>Node24</title>
<g id="a_Node000024"><a xlink:title=" ">
<polygon fill="#e0e0e0" stroke="#999999" points="3167.38,-32 3045.62,-32 3045.62,0 3167.38,0 3167.38,-32"/>
<text text-anchor="start" x="3053.62" y="-18.5" font-family="Helvetica,sans-Serif" font-size="10.00">fr.softsf.canscan.model.</text>
<text text-anchor="middle" x="3106.5" y="-6.5" font-family="Helvetica,sans-Serif" font-size="10.00">EncodedData</text>
</a>
</g>
</g>
<!-- Node1&#45;&gt;Node24 -->
<g id="edge23_Node000001_Node000024" class="edge">
<title>Node1&#45;&gt;Node24</title>
<g id="a_edge23_Node000001_Node000024"><a xlink:title=" ">
<path fill="none" stroke="#63b8ff" d="M2899.04,-67.53C2939.54,-57.66 2992.12,-44.86 3034.21,-34.61"/>
<polygon fill="#63b8ff" stroke="#63b8ff" points="3034.87,-38.05 3043.75,-32.28 3033.21,-31.25 3034.87,-38.05"/>
</a>
</g>
</g>
<!-- Node25 -->
<g id="Node000025" class="node">
<title>Node25</title>
<g id="a_Node000025"><a xlink:title=" ">
<polygon fill="#e0e0e0" stroke="#999999" points="3331.38,-26 3185.62,-26 3185.62,-6 3331.38,-6 3331.38,-26"/>
<text text-anchor="middle" x="3258.5" y="-12.5" font-family="Helvetica,sans-Serif" font-size="10.00">fr.softsf.canscan.model.Mode</text>
</a>
</g>
</g>
<!-- Node1&#45;&gt;Node25 -->
<g id="edge24_Node000001_Node000025" class="edge">
<title>Node1&#45;&gt;Node25</title>
<g id="a_edge24_Node000001_Node000025"><a xlink:title=" ">
<path fill="none" stroke="#63b8ff" d="M2909.11,-72.69C2978.25,-62.85 3084.53,-47.29 3176.5,-32 3183.17,-30.89 3190.13,-29.69 3197.05,-28.46"/>
<polygon fill="#63b8ff" stroke="#63b8ff" points="3197.52,-31.94 3206.75,-26.73 3196.29,-25.04 3197.52,-31.94"/>
</a>
</g>
</g>
<!-- Node26 -->
<g id="Node000026" class="node">
<title>Node26</title>
<g id="a_Node000026"><a xlink:title=" ">
<polygon fill="#e0e0e0" stroke="#999999" points="3471.38,-32 3349.62,-32 3349.62,0 3471.38,0 3471.38,-32"/>
<text text-anchor="start" x="3357.62" y="-18.5" font-family="Helvetica,sans-Serif" font-size="10.00">fr.softsf.canscan.model.</text>
<text text-anchor="middle" x="3410.5" y="-6.5" font-family="Helvetica,sans-Serif" font-size="10.00">WholeFields</text>
</a>
</g>
</g>
<!-- Node1&#45;&gt;Node26 -->
<g id="edge25_Node000001_Node000026" class="edge">
<title>Node1&#45;&gt;Node26</title>
<g id="a_edge25_Node000001_Node000026"><a xlink:title=" ">
<path fill="none" stroke="#63b8ff" d="M2909,-78.13C3005.38,-71.18 3179.88,-56.65 3338.58,-32.19"/>
<polygon fill="#63b8ff" stroke="#63b8ff" points="3338.65,-35.72 3348,-30.72 3337.58,-28.8 3338.65,-35.72"/>
</a>
</g>
</g>
<!-- Node27 -->
<g id="Node000027" class="node">
<title>Node27</title>
<g id="a_Node000027"><a xlink:title=" ">
<polygon fill="#e0e0e0" stroke="#999999" points="3616,-32 3489,-32 3489,0 3616,0 3616,-32"/>
<text text-anchor="start" x="3497" y="-18.5" font-family="Helvetica,sans-Serif" font-size="10.00">fr.softsf.canscan.service.</text>
<text text-anchor="middle" x="3552.5" y="-6.5" font-family="Helvetica,sans-Serif" font-size="10.00">DataBuilderService</text>
</a>
</g>
</g>
<!-- Node1&#45;&gt;Node27 -->
<g id="edge26_Node000001_Node000027" class="edge">
<title>Node1&#45;&gt;Node27</title>
<g id="a_edge26_Node000001_Node000027"><a xlink:title=" ">
<path fill="none" stroke="#63b8ff" d="M2908.86,-80.22C3026.78,-75.09 3265.91,-61.95 3477.27,-32.36"/>
<polygon fill="#63b8ff" stroke="#63b8ff" points="3477.68,-35.83 3487.09,-30.97 3476.69,-28.9 3477.68,-35.83"/>
</a>
</g>
</g>
<!-- Node28 -->
<g id="Node000028" class="node">
<title>Node28</title>
<g id="a_Node000028"><a xlink:title=" ">
<polygon fill="#e0e0e0" stroke="#999999" points="3760.62,-32 3634.38,-32 3634.38,0 3760.62,0 3760.62,-32"/>
<text text-anchor="start" x="3642.38" y="-18.5" font-family="Helvetica,sans-Serif" font-size="10.00">fr.softsf.canscan.ui.Color</text>
<text text-anchor="middle" x="3697.5" y="-6.5" font-family="Helvetica,sans-Serif" font-size="10.00">Operation</text>
</a>
</g>
</g>
<!-- Node1&#45;&gt;Node28 -->
<g id="edge27_Node000001_Node000028" class="edge">
<title>Node1&#45;&gt;Node28</title>
<g id="a_edge27_Node000001_Node000028"><a xlink:title=" ">
<path fill="none" stroke="#63b8ff" d="M2909.09,-81.71C3047.24,-78.52 3354.94,-67.86 3622.86,-32.24"/>
<polygon fill="#63b8ff" stroke="#63b8ff" points="3623.04,-35.74 3632.48,-30.94 3622.1,-28.81 3623.04,-35.74"/>
</a>
</g>
</g>
<!-- Node29 -->
<g id="Node000029" class="node">
<title>Node29</title>
<g id="a_Node000029"><a xlink:title=" ">
<polygon fill="#e0e0e0" stroke="#999999" points="3920.12,-32 3778.88,-32 3778.88,0 3920.12,0 3920.12,-32"/>
<text text-anchor="start" x="3786.88" y="-18.5" font-family="Helvetica,sans-Serif" font-size="10.00">fr.softsf.canscan.ui.Encoded</text>
<text text-anchor="middle" x="3849.5" y="-6.5" font-family="Helvetica,sans-Serif" font-size="10.00">Image</text>
</a>
</g>
</g>
<!-- Node1&#45;&gt;Node29 -->
<g id="edge28_Node000001_Node000029" class="edge">
<title>Node1&#45;&gt;Node29</title>
<g id="a_edge28_Node000001_Node000029"><a xlink:title=" ">
<path fill="none" stroke="#63b8ff" d="M2909.04,-82.25C3065.32,-79.95 3442.09,-70.64 3767.41,-32.14"/>
<polygon fill="#63b8ff" stroke="#63b8ff" points="3767.46,-35.66 3776.97,-31 3766.63,-28.71 3767.46,-35.66"/>
</a>
</g>
</g>
<!-- Node30 -->
<g id="Node000030" class="node">
<title>Node30</title>
<g id="a_Node000030"><a xlink:title=" ">
<polygon fill="#e0e0e0" stroke="#999999" points="4113,-32 3938,-32 3938,0 4113,0 4113,-32"/>
<text text-anchor="start" x="3946" y="-18.5" font-family="Helvetica,sans-Serif" font-size="10.00">org.junit.jupiter.api.Assertions.assert</text>
<text text-anchor="middle" x="4025.5" y="-6.5" font-family="Helvetica,sans-Serif" font-size="10.00">DoesNotThrow</text>
</a>
</g>
</g>
<!-- Node1&#45;&gt;Node30 -->
<g id="edge29_Node000001_Node000030" class="edge">
<title>Node1&#45;&gt;Node30</title>
<g id="a_edge29_Node000001_Node000030"><a xlink:title=" ">
<path fill="none" stroke="#63b8ff" d="M2909,-82.32C3083.76,-80.11 3537.91,-70.9 3926.47,-32.24"/>
<polygon fill="#63b8ff" stroke="#63b8ff" points="3926.55,-35.75 3936.15,-31.27 3925.85,-28.78 3926.55,-35.75"/>
</a>
</g>
</g>
<!-- Node31 -->
<g id="Node000031" class="node">
<title>Node31</title>
<g id="a_Node000031"><a xlink:title=" ">
<polygon fill="#e0e0e0" stroke="#999999" points="4306,-32 4131,-32 4131,0 4306,0 4306,-32"/>
<text text-anchor="start" x="4139" y="-18.5" font-family="Helvetica,sans-Serif" font-size="10.00">org.junit.jupiter.api.Assertions.assert</text>
<text text-anchor="middle" x="4218.5" y="-6.5" font-family="Helvetica,sans-Serif" font-size="10.00">Equals</text>
</a>
</g>
</g>
<!-- Node1&#45;&gt;Node31 -->
<g id="edge30_Node000001_Node000031" class="edge">
<title>Node1&#45;&gt;Node31</title>
<g id="a_edge30_Node000001_Node000031"><a xlink:title=" ">
<path fill="none" stroke="#63b8ff" d="M2908.98,-83.05C3104.43,-82.55 3653.43,-77 4119.33,-32.24"/>
<polygon fill="#63b8ff" stroke="#63b8ff" points="4119.54,-35.73 4129.15,-31.29 4118.86,-28.77 4119.54,-35.73"/>
</a>
</g>
</g>
<!-- Node32 -->
<g id="Node000032" class="node">
<title>Node32</title>
<g id="a_Node000032"><a xlink:title=" ">
<polygon fill="#e0e0e0" stroke="#999999" points="4499,-32 4324,-32 4324,0 4499,0 4499,-32"/>
<text text-anchor="start" x="4332" y="-18.5" font-family="Helvetica,sans-Serif" font-size="10.00">org.junit.jupiter.api.Assertions.assert</text>
<text text-anchor="middle" x="4411.5" y="-6.5" font-family="Helvetica,sans-Serif" font-size="10.00">False</text>
</a>
</g>
</g>
<!-- Node1&#45;&gt;Node32 -->
<g id="edge31_Node000001_Node000032" class="edge">
<title>Node1&#45;&gt;Node32</title>
<g id="a_edge31_Node000001_Node000032"><a xlink:title=" ">
<path fill="none" stroke="#63b8ff" d="M2909.24,-83.6C3124.18,-84.66 3768.8,-83.12 4312.45,-32.22"/>
<polygon fill="#63b8ff" stroke="#63b8ff" points="4312.53,-35.72 4322.16,-31.3 4311.87,-28.76 4312.53,-35.72"/>
</a>
</g>
</g>
<!-- Node33 -->
<g id="Node000033" class="node">
<title>Node33</title>
<g id="a_Node000033"><a xlink:title=" ">
<polygon fill="#e0e0e0" stroke="#999999" points="4692,-32 4517,-32 4517,0 4692,0 4692,-32"/>
<text text-anchor="start" x="4525" y="-18.5" font-family="Helvetica,sans-Serif" font-size="10.00">org.junit.jupiter.api.Assertions.assert</text>
<text text-anchor="middle" x="4604.5" y="-6.5" font-family="Helvetica,sans-Serif" font-size="10.00">NotEquals</text>
</a>
</g>
</g>
<!-- Node1&#45;&gt;Node33 -->
<g id="edge32_Node000001_Node000033" class="edge">
<title>Node1&#45;&gt;Node33</title>
<g id="a_edge32_Node000001_Node000033"><a xlink:title=" ">
<path fill="none" stroke="#63b8ff" d="M2908.94,-81.98C3186,-77.94 4168.72,-61.88 4505.44,-32.19"/>
<polygon fill="#63b8ff" stroke="#63b8ff" points="4505.51,-35.7 4515.16,-31.31 4504.88,-28.73 4505.51,-35.7"/>
</a>
</g>
</g>
<!-- Node34 -->
<g id="Node000034" class="node">
<title>Node34</title>
<g id="a_Node000034"><a xlink:title=" ">
<polygon fill="#e0e0e0" stroke="#999999" points="4885,-32 4710,-32 4710,0 4885,0 4885,-32"/>
<text text-anchor="start" x="4718" y="-18.5" font-family="Helvetica,sans-Serif" font-size="10.00">org.junit.jupiter.api.Assertions.assert</text>
<text text-anchor="middle" x="4797.5" y="-6.5" font-family="Helvetica,sans-Serif" font-size="10.00">NotNull</text>
</a>
</g>
</g>
<!-- Node1&#45;&gt;Node34 -->
<g id="edge33_Node000001_Node000034" class="edge">
<title>Node1&#45;&gt;Node34</title>
<g id="a_edge33_Node000001_Node000034"><a xlink:title=" ">
<path fill="none" stroke="#63b8ff" d="M2909.07,-82.25C3206.49,-79 4321.64,-64.94 4698.46,-32.18"/>
<polygon fill="#63b8ff" stroke="#63b8ff" points="4698.51,-35.69 4708.16,-31.32 4697.89,-28.72 4698.51,-35.69"/>
</a>
</g>
</g>
<!-- Node35 -->
<g id="Node000035" class="node">
<title>Node35</title>
<g id="a_Node000035"><a xlink:title=" ">
<polygon fill="#e0e0e0" stroke="#999999" points="5095.62,-26 4903.38,-26 4903.38,-6 5095.62,-6 5095.62,-26"/>
<text text-anchor="middle" x="4999.5" y="-12.5" font-family="Helvetica,sans-Serif" font-size="10.00">org.junit.jupiter.api.Assertions.assertNull</text>
</a>
</g>
</g>
<!-- Node1&#45;&gt;Node35 -->
<g id="edge34_Node000001_Node000035" class="edge">
<title>Node1&#45;&gt;Node35</title>
<g id="a_edge34_Node000001_Node000035"><a xlink:title=" ">
<path fill="none" stroke="#63b8ff" d="M2909.25,-82.33C3228.98,-79.26 4497.08,-65.19 4894.5,-32 4906.18,-31.02 4918.55,-29.61 4930.53,-28.03"/>
<polygon fill="#63b8ff" stroke="#63b8ff" points="4930.94,-31.5 4940.37,-26.68 4929.99,-24.57 4930.94,-31.5"/>
</a>
</g>
</g>
<!-- Node36 -->
<g id="Node000036" class="node">
<title>Node36</title>
<g id="a_Node000036"><a xlink:title=" ">
<polygon fill="#e0e0e0" stroke="#999999" points="5307.75,-26 5113.25,-26 5113.25,-6 5307.75,-6 5307.75,-26"/>
<text text-anchor="middle" x="5210.5" y="-12.5" font-family="Helvetica,sans-Serif" font-size="10.00">org.junit.jupiter.api.Assertions.assertTrue</text>
</a>
</g>
</g>
<!-- Node1&#45;&gt;Node36 -->
<g id="edge35_Node000001_Node000036" class="edge">
<title>Node1&#45;&gt;Node36</title>
<g id="a_edge35_Node000001_Node000036"><a xlink:title=" ">
<path fill="none" stroke="#63b8ff" d="M2909.23,-82.52C3248.69,-80.11 4663.31,-68.05 5104.5,-32 5116.41,-31.03 5129.03,-29.6 5141.25,-28"/>
<polygon fill="#63b8ff" stroke="#63b8ff" points="5141.38,-31.51 5150.82,-26.7 5140.44,-24.58 5141.38,-31.51"/>
</a>
</g>
</g>
<!-- Node37 -->
<g id="Node000037" class="node">
<title>Node37</title>
<g id="a_Node000037"><a xlink:title=" ">
<polygon fill="#e0e0e0" stroke="#999999" points="5508.75,-26 5326.25,-26 5326.25,-6 5508.75,-6 5508.75,-26"/>
<text text-anchor="middle" x="5417.5" y="-12.5" font-family="Helvetica,sans-Serif" font-size="10.00">org.mockito.ArgumentMatchers.anyInt</text>
</a>
</g>
</g>
<!-- Node1&#45;&gt;Node37 -->
<g id="edge36_Node000001_Node000037" class="edge">
<title>Node1&#45;&gt;Node37</title>
<g id="a_edge36_Node000001_Node000037"><a xlink:title=" ">
<path fill="none" stroke="#63b8ff" d="M2909.15,-82.75C3267.49,-81.33 4831.12,-72.87 5316.5,-32 5327.69,-31.06 5339.54,-29.66 5351.02,-28.1"/>
<polygon fill="#63b8ff" stroke="#63b8ff" points="5351.44,-31.57 5360.85,-26.7 5350.45,-24.64 5351.44,-31.57"/>
</a>
</g>
</g>
<!-- Node38 -->
<g id="Node000038" class="node">
<title>Node38</title>
<g id="a_Node000038"><a xlink:title=" ">
<polygon fill="#e0e0e0" stroke="#999999" points="5650.12,-26 5526.88,-26 5526.88,-6 5650.12,-6 5650.12,-26"/>
<text text-anchor="middle" x="5588.5" y="-12.5" font-family="Helvetica,sans-Serif" font-size="10.00">org.mockito.Mockito.any</text>
</a>
</g>
</g>
<!-- Node1&#45;&gt;Node38 -->
<g id="edge37_Node000001_Node000038" class="edge">
<title>Node1&#45;&gt;Node38</title>
<g id="a_edge37_Node000001_Node000038"><a xlink:title=" ">
<path fill="none" stroke="#63b8ff" d="M2909.21,-82.43C3313.41,-79.2 5252.46,-62.24 5517.5,-32 5524.56,-31.19 5531.96,-30.01 5539.21,-28.66"/>
<polygon fill="#63b8ff" stroke="#63b8ff" points="5539.79,-32.12 5548.91,-26.73 5538.42,-25.25 5539.79,-32.12"/>
</a>
</g>
</g>
<!-- Node39 -->
<g id="Node000039" class="node">
<title>Node39</title>
<g id="a_Node000039"><a xlink:title=" ">
<polygon fill="#e0e0e0" stroke="#999999" points="5816.88,-26 5668.12,-26 5668.12,-6 5816.88,-6 5816.88,-26"/>
<text text-anchor="middle" x="5742.5" y="-12.5" font-family="Helvetica,sans-Serif" font-size="10.00">org.mockito.Mockito.anyString</text>
</a>
</g>
</g>
<!-- Node1&#45;&gt;Node39 -->
<g id="edge38_Node000001_Node000039" class="edge">
<title>Node1&#45;&gt;Node39</title>
<g id="a_edge38_Node000001_Node000039"><a xlink:title=" ">
<path fill="none" stroke="#63b8ff" d="M2909.18,-83.27C3296.79,-84.47 5103.05,-86.95 5659.5,-32 5668.21,-31.14 5677.38,-29.86 5686.31,-28.41"/>
<polygon fill="#63b8ff" stroke="#63b8ff" points="5686.7,-31.9 5695.96,-26.76 5685.51,-25 5686.7,-31.9"/>
</a>
</g>
</g>
<!-- Node40 -->
<g id="Node000040" class="node">
<title>Node40</title>
<g id="a_Node000040"><a xlink:title=" ">
<polygon fill="#e0e0e0" stroke="#999999" points="5982.12,-26 5834.88,-26 5834.88,-6 5982.12,-6 5982.12,-26"/>
<text text-anchor="middle" x="5908.5" y="-12.5" font-family="Helvetica,sans-Serif" font-size="10.00">org.mockito.Mockito.doReturn</text>
</a>
</g>
</g>
<!-- Node1&#45;&gt;Node40 -->
<g id="edge39_Node000001_Node000040" class="edge">
<title>Node1&#45;&gt;Node40</title>
<g id="a_edge39_Node000001_Node000040"><a xlink:title=" ">
<path fill="none" stroke="#63b8ff" d="M2909.03,-82.46C3339.81,-79.19 5527.6,-61.27 5825.5,-32 5834.31,-31.13 5843.59,-29.84 5852.63,-28.37"/>
<polygon fill="#63b8ff" stroke="#63b8ff" points="5853.14,-31.83 5862.4,-26.69 5851.95,-24.94 5853.14,-31.83"/>
</a>
</g>
</g>
<!-- Node41 -->
<g id="Node000041" class="node">
<title>Node41</title>
<g id="a_Node000041"><a xlink:title=" ">
<polygon fill="#e0e0e0" stroke="#999999" points="6131.25,-26 5999.75,-26 5999.75,-6 6131.25,-6 6131.25,-26"/>
<text text-anchor="middle" x="6065.5" y="-12.5" font-family="Helvetica,sans-Serif" font-size="10.00">org.mockito.Mockito.mock</text>
</a>
</g>
</g>
<!-- Node1&#45;&gt;Node41 -->
<g id="edge40_Node000001_Node000041" class="edge">
<title>Node1&#45;&gt;Node41</title>
<g id="a_edge40_Node000001_Node000041"><a xlink:title=" ">
<path fill="none" stroke="#63b8ff" d="M2909.1,-82.62C3354.09,-80.23 5676.46,-66.18 5991.5,-32 5999.03,-31.18 6006.93,-29.97 6014.65,-28.58"/>
<polygon fill="#63b8ff" stroke="#63b8ff" points="6015.12,-32.06 6024.28,-26.74 6013.8,-25.18 6015.12,-32.06"/>
</a>
</g>
</g>
<!-- Node42 -->
<g id="Node000042" class="node">
<title>Node42</title>
<g id="a_Node000042"><a xlink:title=" ">
<polygon fill="#e0e0e0" stroke="#999999" points="6272.12,-26 6148.88,-26 6148.88,-6 6272.12,-6 6272.12,-26"/>
<text text-anchor="middle" x="6210.5" y="-12.5" font-family="Helvetica,sans-Serif" font-size="10.00">org.mockito.Mockito.spy</text>
</a>
</g>
</g>
<!-- Node1&#45;&gt;Node42 -->
<g id="edge41_Node000001_Node000042" class="edge">
<title>Node1&#45;&gt;Node42</title>
<g id="a_edge41_Node000001_Node000042"><a xlink:title=" ">
<path fill="none" stroke="#63b8ff" d="M2909.22,-82.73C3366.77,-80.93 5809.98,-69.6 6140.5,-32 6147.39,-31.22 6154.59,-30.06 6161.66,-28.74"/>
<polygon fill="#63b8ff" stroke="#63b8ff" points="6162.35,-32.17 6171.46,-26.76 6160.96,-25.31 6162.35,-32.17"/>
</a>
</g>
</g>
</g>
</svg>

<g id="navigator" transform="translate(0 0)" fill="#404254">
  <rect fill="#f2f5e9" fill-opacity="0.5" stroke="#606060" stroke-width=".5" x="0" y="0" width="60" height="60"/>
  <use id="zoomplus" xlink:href="#zoomPlus" x="17" y="9" onmousedown="handleZoom(evt,'in')"/>
  <use id="zoomminus" xlink:href="#zoomMin" x="42" y="9" onmousedown="handleZoom(evt,'out')"/>
  <use id="reset" xlink:href="#resetDef" x="30" y="36" onmousedown="handleReset()"/>
   <use id="arrowup" xlink:href="#arrowUp" x="0" y="0" onmousedown="handlePan(0,-1)"/>
  <use id="arrowright" xlink:href="#arrowRight" x="0" y="0" onmousedown="handlePan(1,0)"/>
  <use id="arrowdown" xlink:href="#arrowDown" x="0" y="0" onmousedown="handlePan(0,1)"/>
  <use id="arrowleft" xlink:href="#arrowLeft" x="0" y="0" onmousedown="handlePan(-1,0)"/>
</g>
<svg viewBox="0 0 15 15" width="100%" height="30px" preserveAspectRatio="xMaxYMin meet">
 <g id="arrow_out" transform="scale(0.3 0.3)">
  <a xlink:href="_can_scan_u_test_8java__incl_org.svg" target="_base">
   <rect id="button" ry="5" rx="5" y="6" x="6" height="38" width="38"
        fill="#f2f5e9" fill-opacity="0.5" stroke="#606060" stroke-width="1.0"/>
   <path id="arrow"
     d="M 11.500037,31.436501 C 11.940474,20.09759 22.043105,11.32322 32.158766,21.979434 L 37.068811,17.246167 C 37.068811,17.246167 37.088388,32 37.088388,32 L 22.160133,31.978069 C 22.160133,31.978069 26.997745,27.140456 26.997745,27.140456 C 18.528582,18.264221 13.291696,25.230495 11.500037,31.436501 z"
     style="fill:#404040;"/>
  </a>
 </g>
</svg>

<style type='text/css'>
<![CDATA[
[data-mouse-over-selected='false'] { opacity: 0.7; }
[data-mouse-over-selected='true']  { opacity: 1.0; }
]]>
</style>
<script type="application/ecmascript"><![CDATA[
document.addEventListener('DOMContentLoaded', (event) => {
  highlightEdges();
  highlightAdjacentNodes();
});
]]></script>
</svg>
