<?xml version="1.0" encoding="UTF-8" standalone="no"?>
<!DOCTYPE svg PUBLIC "-//W3C//DTD SVG 1.1//EN"
 "http://www.w3.org/Graphics/SVG/1.1/DTD/svg11.dtd">
<!-- Generated by graphviz version 12.2.1 (20241206.2353)
 -->
<!-- Title: src/main/java/fr/softsf/canscan/model/CommonFields.java Pages: 1 -->
<svg width="183pt" height="96pt"
 viewBox="0.00 0.00 183.00 96.00" xmlns="http://www.w3.org/2000/svg" xmlns:xlink="http://www.w3.org/1999/xlink">
<g id="graph0" class="graph" transform="scale(1 1) rotate(0) translate(4 92)">
<title>src/main/java/fr/softsf/canscan/model/CommonFields.java</title>
<!-- Node1 -->
<g id="Node000001" class="node">
<title>Node1</title>
<g id="a_Node000001"><a xlink:title=" ">
<polygon fill="#999999" stroke="#666666" points="175,-88 0,-88 0,-56 175,-56 175,-88"/>
<text text-anchor="start" x="8" y="-74.5" font-family="Helvetica,sans-Serif" font-size="10.00">src/main/java/fr/softsf</text>
<text text-anchor="middle" x="87.5" y="-62.5" font-family="Helvetica,sans-Serif" font-size="10.00">/canscan/model/CommonFields.java</text>
</a>
</g>
</g>
<!-- Node2 -->
<g id="Node000002" class="node">
<title>Node2</title>
<g id="a_Node000002"><a xlink:title=" ">
<polygon fill="#e0e0e0" stroke="#999999" points="83,-20 4,-20 4,0 83,0 83,-20"/>
<text text-anchor="middle" x="43.5" y="-6.5" font-family="Helvetica,sans-Serif" font-size="10.00">java.awt.Color</text>
</a>
</g>
</g>
<!-- Node1&#45;&gt;Node2 -->
<g id="edge1_Node000001_Node000002" class="edge">
<title>Node1&#45;&gt;Node2</title>
<g id="a_edge1_Node000001_Node000002"><a xlink:title=" ">
<path fill="none" stroke="#63b8ff" d="M76.17,-55.55C70.38,-47.65 63.28,-37.97 57.19,-29.66"/>
<polygon fill="#63b8ff" stroke="#63b8ff" points="60.03,-27.62 51.29,-21.63 54.39,-31.76 60.03,-27.62"/>
</a>
</g>
</g>
<!-- Node3 -->
<g id="Node000003" class="node">
<title>Node3</title>
<g id="a_Node000003"><a xlink:title=" ">
<polygon fill="#e0e0e0" stroke="#999999" points="164.12,-20 100.88,-20 100.88,0 164.12,0 164.12,-20"/>
<text text-anchor="middle" x="132.5" y="-6.5" font-family="Helvetica,sans-Serif" font-size="10.00">java.io.File</text>
</a>
</g>
</g>
<!-- Node1&#45;&gt;Node3 -->
<g id="edge2_Node000001_Node000003" class="edge">
<title>Node1&#45;&gt;Node3</title>
<g id="a_edge2_Node000001_Node000003"><a xlink:title=" ">
<path fill="none" stroke="#63b8ff" d="M99.09,-55.55C105.08,-47.56 112.43,-37.76 118.71,-29.39"/>
<polygon fill="#63b8ff" stroke="#63b8ff" points="121.34,-31.72 124.54,-21.62 115.74,-27.52 121.34,-31.72"/>
</a>
</g>
</g>
</g>
</svg>
