<?xml version="1.0" encoding="UTF-8" standalone="no"?>
<!DOCTYPE svg PUBLIC "-//W3C//DTD SVG 1.1//EN"
 "http://www.w3.org/Graphics/SVG/1.1/DTD/svg11.dtd">
<!-- Generated by graphviz version 12.2.1 (20241206.2353)
 -->
<!-- Title: src/main/java/fr/softsf/canscan/service/DataBuilderService.java Pages: 1 -->
<svg width="858pt" height="120pt"
 viewBox="0.00 0.00 857.75 120.00" xmlns="http://www.w3.org/2000/svg" xmlns:xlink="http://www.w3.org/1999/xlink">
<g id="graph0" class="graph" transform="scale(1 1) rotate(0) translate(4 116)">
<title>src/main/java/fr/softsf/canscan/service/DataBuilderService.java</title>
<!-- Node1 -->
<g id="Node000001" class="node">
<title>Node1</title>
<g id="a_Node000001"><a xlink:title=" ">
<polygon fill="#999999" stroke="#666666" points="470.38,-112 326.12,-112 326.12,-68 470.38,-68 470.38,-112"/>
<text text-anchor="start" x="334.12" y="-98.5" font-family="Helvetica,sans-Serif" font-size="10.00">src/main/java/fr/softsf</text>
<text text-anchor="start" x="334.12" y="-86.5" font-family="Helvetica,sans-Serif" font-size="10.00">/canscan/service/DataBuilder</text>
<text text-anchor="middle" x="398.25" y="-74.5" font-family="Helvetica,sans-Serif" font-size="10.00">Service.java</text>
</a>
</g>
</g>
<!-- Node2 -->
<g id="Node000002" class="node">
<title>Node2</title>
<g id="a_Node000002"><a xlink:title=" ">
<polygon fill="#e0e0e0" stroke="#999999" points="86.5,-26 0,-26 0,-6 86.5,-6 86.5,-26"/>
<text text-anchor="middle" x="43.25" y="-12.5" font-family="Helvetica,sans-Serif" font-size="10.00">java.util.Objects</text>
</a>
</g>
</g>
<!-- Node1&#45;&gt;Node2 -->
<g id="edge1_Node000001_Node000002" class="edge">
<title>Node1&#45;&gt;Node2</title>
<g id="a_edge1_Node000001_Node000002"><a xlink:title=" ">
<path fill="none" stroke="#63b8ff" d="M325.91,-77.38C264.27,-67 173.49,-50.6 95.25,-32 91.93,-31.21 88.5,-30.34 85.07,-29.44"/>
<polygon fill="#63b8ff" stroke="#63b8ff" points="86.22,-26.12 75.65,-26.85 84.37,-32.87 86.22,-26.12"/>
</a>
</g>
</g>
<!-- Node3 -->
<g id="Node000003" class="node">
<title>Node3</title>
<g id="a_Node000003"><a xlink:title=" ">
<polygon fill="#e0e0e0" stroke="#999999" points="243.75,-32 104.75,-32 104.75,0 243.75,0 243.75,-32"/>
<text text-anchor="start" x="112.75" y="-18.5" font-family="Helvetica,sans-Serif" font-size="10.00">org.apache.commons.lang3.</text>
<text text-anchor="middle" x="174.25" y="-6.5" font-family="Helvetica,sans-Serif" font-size="10.00">StringUtils</text>
</a>
</g>
</g>
<!-- Node1&#45;&gt;Node3 -->
<g id="edge2_Node000001_Node000003" class="edge">
<title>Node1&#45;&gt;Node3</title>
<g id="a_edge2_Node000001_Node000003"><a xlink:title=" ">
<path fill="none" stroke="#63b8ff" d="M331.65,-67.59C300.41,-57.55 263.49,-45.69 233.27,-35.97"/>
<polygon fill="#63b8ff" stroke="#63b8ff" points="234.49,-32.69 223.9,-32.96 232.35,-39.35 234.49,-32.69"/>
</a>
</g>
</g>
<!-- Node4 -->
<g id="Node000004" class="node">
<title>Node4</title>
<g id="a_Node000004"><a xlink:title=" ">
<polygon fill="#e0e0e0" stroke="#999999" points="383.12,-32 261.38,-32 261.38,0 383.12,0 383.12,-32"/>
<text text-anchor="start" x="269.38" y="-18.5" font-family="Helvetica,sans-Serif" font-size="10.00">fr.softsf.canscan.model.</text>
<text text-anchor="middle" x="322.25" y="-6.5" font-family="Helvetica,sans-Serif" font-size="10.00">EncodedData</text>
</a>
</g>
</g>
<!-- Node1&#45;&gt;Node4 -->
<g id="edge3_Node000001_Node000004" class="edge">
<title>Node1&#45;&gt;Node4</title>
<g id="a_edge3_Node000001_Node000004"><a xlink:title=" ">
<path fill="none" stroke="#63b8ff" d="M375.86,-67.79C366.61,-59.02 355.86,-48.84 346.43,-39.91"/>
<polygon fill="#63b8ff" stroke="#63b8ff" points="348.98,-37.5 339.32,-33.17 344.17,-42.59 348.98,-37.5"/>
</a>
</g>
</g>
<!-- Node5 -->
<g id="Node000005" class="node">
<title>Node5</title>
<g id="a_Node000005"><a xlink:title=" ">
<polygon fill="#e0e0e0" stroke="#999999" points="547.12,-26 401.38,-26 401.38,-6 547.12,-6 547.12,-26"/>
<text text-anchor="middle" x="474.25" y="-12.5" font-family="Helvetica,sans-Serif" font-size="10.00">fr.softsf.canscan.model.Mode</text>
</a>
</g>
</g>
<!-- Node1&#45;&gt;Node5 -->
<g id="edge4_Node000001_Node000005" class="edge">
<title>Node1&#45;&gt;Node5</title>
<g id="a_edge4_Node000001_Node000005"><a xlink:title=" ">
<path fill="none" stroke="#63b8ff" d="M420.64,-67.79C432,-57.03 445.61,-44.14 456.27,-34.03"/>
<polygon fill="#63b8ff" stroke="#63b8ff" points="458.47,-36.77 463.32,-27.35 453.66,-31.69 458.47,-36.77"/>
</a>
</g>
</g>
<!-- Node6 -->
<g id="Node000006" class="node">
<title>Node6</title>
<g id="a_Node000006"><a xlink:title=" ">
<polygon fill="#e0e0e0" stroke="#999999" points="687.12,-32 565.38,-32 565.38,0 687.12,0 687.12,-32"/>
<text text-anchor="start" x="573.38" y="-18.5" font-family="Helvetica,sans-Serif" font-size="10.00">fr.softsf.canscan.model.</text>
<text text-anchor="middle" x="626.25" y="-6.5" font-family="Helvetica,sans-Serif" font-size="10.00">WholeFields</text>
</a>
</g>
</g>
<!-- Node1&#45;&gt;Node6 -->
<g id="edge5_Node000001_Node000006" class="edge">
<title>Node1&#45;&gt;Node6</title>
<g id="a_edge5_Node000001_Node000006"><a xlink:title=" ">
<path fill="none" stroke="#63b8ff" d="M466.04,-67.59C497.98,-57.51 535.74,-45.58 566.58,-35.84"/>
<polygon fill="#63b8ff" stroke="#63b8ff" points="567.26,-39.3 575.74,-32.95 565.15,-32.63 567.26,-39.3"/>
</a>
</g>
</g>
<!-- Node7 -->
<g id="Node000007" class="node">
<title>Node7</title>
<g id="a_Node000007"><a xlink:title=" ">
<polygon fill="#e0e0e0" stroke="#999999" points="849.75,-26 704.75,-26 704.75,-6 849.75,-6 849.75,-26"/>
<text text-anchor="middle" x="777.25" y="-12.5" font-family="Helvetica,sans-Serif" font-size="10.00">fr.softsf.canscan.util.Checker</text>
</a>
</g>
</g>
<!-- Node1&#45;&gt;Node7 -->
<g id="edge6_Node000001_Node000007" class="edge">
<title>Node1&#45;&gt;Node7</title>
<g id="a_edge6_Node000001_Node000007"><a xlink:title=" ">
<path fill="none" stroke="#63b8ff" d="M470.43,-75.29C541.59,-61.77 649.14,-41.34 716.18,-28.6"/>
<polygon fill="#63b8ff" stroke="#63b8ff" points="716.74,-32.06 725.91,-26.75 715.43,-25.18 716.74,-32.06"/>
</a>
</g>
</g>
</g>
</svg>
