<?xml version="1.0" encoding="UTF-8" standalone="no"?>
<!DOCTYPE svg PUBLIC "-//W3C//DTD SVG 1.1//EN"
 "http://www.w3.org/Graphics/SVG/1.1/DTD/svg11.dtd">
<!-- Generated by graphviz version 12.2.1 (20241206.2353)
 -->
<!-- Title: src/main/java/fr/softsf/canscan/ui/worker/DynamicPreviewWorker.java Pages: 1 -->
<svg width="2586pt" height="120pt"
 viewBox="0.00 0.00 2585.50 120.00" xmlns="http://www.w3.org/2000/svg" xmlns:xlink="http://www.w3.org/1999/xlink">
<g id="graph0" class="graph" transform="scale(1 1) rotate(0) translate(4 116)">
<title>src/main/java/fr/softsf/canscan/ui/worker/DynamicPreviewWorker.java</title>
<!-- Node1 -->
<g id="Node000001" class="node">
<title>Node1</title>
<g id="a_Node000001"><a xlink:title=" ">
<polygon fill="#999999" stroke="#666666" points="1322.88,-112 1147.12,-112 1147.12,-68 1322.88,-68 1322.88,-112"/>
<text text-anchor="start" x="1155.12" y="-98.5" font-family="Helvetica,sans-Serif" font-size="10.00">src/main/java/fr/softsf</text>
<text text-anchor="start" x="1155.12" y="-86.5" font-family="Helvetica,sans-Serif" font-size="10.00">/canscan/ui/worker/DynamicPreview</text>
<text text-anchor="middle" x="1235" y="-74.5" font-family="Helvetica,sans-Serif" font-size="10.00">Worker.java</text>
</a>
</g>
</g>
<!-- Node2 -->
<g id="Node000002" class="node">
<title>Node2</title>
<g id="a_Node000002"><a xlink:title=" ">
<polygon fill="#e0e0e0" stroke="#999999" points="148,-26 0,-26 0,-6 148,-6 148,-26"/>
<text text-anchor="middle" x="74" y="-12.5" font-family="Helvetica,sans-Serif" font-size="10.00">java.awt.image.BufferedImage</text>
</a>
</g>
</g>
<!-- Node1&#45;&gt;Node2 -->
<g id="edge1_Node000001_Node000002" class="edge">
<title>Node1&#45;&gt;Node2</title>
<g id="a_edge1_Node000001_Node000002"><a xlink:title=" ">
<path fill="none" stroke="#63b8ff" d="M1146.65,-88.09C962.17,-85.36 522.8,-74.55 157,-32 148.71,-31.04 139.99,-29.76 131.45,-28.35"/>
<polygon fill="#63b8ff" stroke="#63b8ff" points="132.32,-24.95 121.87,-26.7 131.13,-31.85 132.32,-24.95"/>
</a>
</g>
</g>
<!-- Node3 -->
<g id="Node000003" class="node">
<title>Node3</title>
<g id="a_Node000003"><a xlink:title=" ">
<polygon fill="#e0e0e0" stroke="#999999" points="229.62,-26 166.38,-26 166.38,-6 229.62,-6 229.62,-26"/>
<text text-anchor="middle" x="198" y="-12.5" font-family="Helvetica,sans-Serif" font-size="10.00">java.io.File</text>
</a>
</g>
</g>
<!-- Node1&#45;&gt;Node3 -->
<g id="edge2_Node000001_Node000003" class="edge">
<title>Node1&#45;&gt;Node3</title>
<g id="a_edge2_Node000001_Node000003"><a xlink:title=" ">
<path fill="none" stroke="#63b8ff" d="M1146.74,-87.26C936.57,-82.58 411.15,-67.61 239,-32 236.37,-31.46 233.68,-30.78 231,-30.01"/>
<polygon fill="#63b8ff" stroke="#63b8ff" points="232.24,-26.73 221.65,-26.94 230.06,-33.38 232.24,-26.73"/>
</a>
</g>
</g>
<!-- Node4 -->
<g id="Node000004" class="node">
<title>Node4</title>
<g id="a_Node000004"><a xlink:title=" ">
<polygon fill="#e0e0e0" stroke="#999999" points="334.25,-26 247.75,-26 247.75,-6 334.25,-6 334.25,-26"/>
<text text-anchor="middle" x="291" y="-12.5" font-family="Helvetica,sans-Serif" font-size="10.00">java.util.Objects</text>
</a>
</g>
</g>
<!-- Node1&#45;&gt;Node4 -->
<g id="edge3_Node000001_Node000004" class="edge">
<title>Node1&#45;&gt;Node4</title>
<g id="a_edge3_Node000001_Node000004"><a xlink:title=" ">
<path fill="none" stroke="#63b8ff" d="M1146.9,-89.67C985.97,-89.5 634.23,-82.69 343,-32 338.92,-31.29 334.7,-30.38 330.51,-29.36"/>
<polygon fill="#63b8ff" stroke="#63b8ff" points="331.65,-26.04 321.08,-26.85 329.85,-32.8 331.65,-26.04"/>
</a>
</g>
</g>
<!-- Node5 -->
<g id="Node000005" class="node">
<title>Node5</title>
<g id="a_Node000005"><a xlink:title=" ">
<polygon fill="#e0e0e0" stroke="#999999" points="451.62,-26 352.38,-26 352.38,-6 451.62,-6 451.62,-26"/>
<text text-anchor="middle" x="402" y="-12.5" font-family="Helvetica,sans-Serif" font-size="10.00">javax.swing.JLabel</text>
</a>
</g>
</g>
<!-- Node1&#45;&gt;Node5 -->
<g id="edge4_Node000001_Node000005" class="edge">
<title>Node1&#45;&gt;Node5</title>
<g id="a_edge4_Node000001_Node000005"><a xlink:title=" ">
<path fill="none" stroke="#63b8ff" d="M1146.78,-87.53C1002.48,-84 707.37,-72.07 461,-32 456.05,-31.2 450.92,-30.17 445.83,-29.05"/>
<polygon fill="#63b8ff" stroke="#63b8ff" points="446.87,-25.7 436.33,-26.79 445.26,-32.51 446.87,-25.7"/>
</a>
</g>
</g>
<!-- Node6 -->
<g id="Node000006" class="node">
<title>Node6</title>
<g id="a_Node000006"><a xlink:title=" ">
<polygon fill="#e0e0e0" stroke="#999999" points="600,-26 470,-26 470,-6 600,-6 600,-26"/>
<text text-anchor="middle" x="535" y="-12.5" font-family="Helvetica,sans-Serif" font-size="10.00">javax.swing.JProgressBar</text>
</a>
</g>
</g>
<!-- Node1&#45;&gt;Node6 -->
<g id="edge5_Node000001_Node000006" class="edge">
<title>Node1&#45;&gt;Node6</title>
<g id="a_edge5_Node000001_Node000006"><a xlink:title=" ">
<path fill="none" stroke="#63b8ff" d="M1146.78,-84.01C1025.26,-76.45 799.72,-59.93 609,-32 602.44,-31.04 595.58,-29.87 588.79,-28.62"/>
<polygon fill="#63b8ff" stroke="#63b8ff" points="589.48,-25.19 579,-26.73 588.16,-32.06 589.48,-25.19"/>
</a>
</g>
</g>
<!-- Node7 -->
<g id="Node000007" class="node">
<title>Node7</title>
<g id="a_Node000007"><a xlink:title=" ">
<polygon fill="#e0e0e0" stroke="#999999" points="748.38,-26 617.62,-26 617.62,-6 748.38,-6 748.38,-26"/>
<text text-anchor="middle" x="683" y="-12.5" font-family="Helvetica,sans-Serif" font-size="10.00">javax.swing.SwingUtilities</text>
</a>
</g>
</g>
<!-- Node1&#45;&gt;Node7 -->
<g id="edge6_Node000001_Node000007" class="edge">
<title>Node1&#45;&gt;Node7</title>
<g id="a_edge6_Node000001_Node000007"><a xlink:title=" ">
<path fill="none" stroke="#63b8ff" d="M1146.8,-80.55C1050.84,-70.88 893.07,-53.54 758,-32 751.62,-30.98 744.95,-29.81 738.33,-28.58"/>
<polygon fill="#63b8ff" stroke="#63b8ff" points="739.28,-25.19 728.8,-26.75 737.96,-32.07 739.28,-25.19"/>
</a>
</g>
</g>
<!-- Node8 -->
<g id="Node000008" class="node">
<title>Node8</title>
<g id="a_Node000008"><a xlink:title=" ">
<polygon fill="#e0e0e0" stroke="#999999" points="895.25,-26 766.75,-26 766.75,-6 895.25,-6 895.25,-26"/>
<text text-anchor="middle" x="831" y="-12.5" font-family="Helvetica,sans-Serif" font-size="10.00">javax.swing.SwingWorker</text>
</a>
</g>
</g>
<!-- Node1&#45;&gt;Node8 -->
<g id="edge7_Node000001_Node000008" class="edge">
<title>Node1&#45;&gt;Node8</title>
<g id="a_edge7_Node000001_Node000008"><a xlink:title=" ">
<path fill="none" stroke="#63b8ff" d="M1146.7,-74.59C1079.94,-63.5 986.08,-47.5 904,-32 898.42,-30.95 892.61,-29.81 886.81,-28.66"/>
<polygon fill="#63b8ff" stroke="#63b8ff" points="887.72,-25.27 877.22,-26.73 886.33,-32.13 887.72,-25.27"/>
</a>
</g>
</g>
<!-- Node9 -->
<g id="Node000009" class="node">
<title>Node9</title>
<g id="a_Node000009"><a xlink:title=" ">
<polygon fill="#e0e0e0" stroke="#999999" points="1052.5,-32 913.5,-32 913.5,0 1052.5,0 1052.5,-32"/>
<text text-anchor="start" x="921.5" y="-18.5" font-family="Helvetica,sans-Serif" font-size="10.00">org.apache.commons.lang3.</text>
<text text-anchor="middle" x="983" y="-6.5" font-family="Helvetica,sans-Serif" font-size="10.00">StringUtils</text>
</a>
</g>
</g>
<!-- Node1&#45;&gt;Node9 -->
<g id="edge8_Node000001_Node000009" class="edge">
<title>Node1&#45;&gt;Node9</title>
<g id="a_edge8_Node000001_Node000009"><a xlink:title=" ">
<path fill="none" stroke="#63b8ff" d="M1160.07,-67.59C1124.47,-57.42 1082.3,-45.37 1048.06,-35.59"/>
<polygon fill="#63b8ff" stroke="#63b8ff" points="1049.27,-32.29 1038.69,-32.91 1047.34,-39.02 1049.27,-32.29"/>
</a>
</g>
</g>
<!-- Node10 -->
<g id="Node000010" class="node">
<title>Node10</title>
<g id="a_Node000010"><a xlink:title=" ">
<polygon fill="#e0e0e0" stroke="#999999" points="1233.5,-32 1070.5,-32 1070.5,0 1233.5,0 1233.5,-32"/>
<text text-anchor="start" x="1078.5" y="-18.5" font-family="Helvetica,sans-Serif" font-size="10.00">edu.umd.cs.findbugs.annotations.</text>
<text text-anchor="middle" x="1152" y="-6.5" font-family="Helvetica,sans-Serif" font-size="10.00">SuppressFBWarnings</text>
</a>
</g>
</g>
<!-- Node1&#45;&gt;Node10 -->
<g id="edge9_Node000001_Node000010" class="edge">
<title>Node1&#45;&gt;Node10</title>
<g id="a_edge9_Node000001_Node000010"><a xlink:title=" ">
<path fill="none" stroke="#63b8ff" d="M1210.55,-67.79C1200.41,-59 1188.64,-48.78 1178.32,-39.83"/>
<polygon fill="#63b8ff" stroke="#63b8ff" points="1180.69,-37.25 1170.84,-33.34 1176.1,-42.54 1180.69,-37.25"/>
</a>
</g>
</g>
<!-- Node11 -->
<g id="Node000011" class="node">
<title>Node11</title>
<g id="a_Node000011"><a xlink:title=" ">
<polygon fill="#e0e0e0" stroke="#999999" points="1384.5,-32 1251.5,-32 1251.5,0 1384.5,0 1384.5,-32"/>
<text text-anchor="start" x="1259.5" y="-18.5" font-family="Helvetica,sans-Serif" font-size="10.00">fr.softsf.canscan.constant.</text>
<text text-anchor="middle" x="1318" y="-6.5" font-family="Helvetica,sans-Serif" font-size="10.00">StringConstants</text>
</a>
</g>
</g>
<!-- Node1&#45;&gt;Node11 -->
<g id="edge10_Node000001_Node000011" class="edge">
<title>Node1&#45;&gt;Node11</title>
<g id="a_edge10_Node000001_Node000011"><a xlink:title=" ">
<path fill="none" stroke="#63b8ff" d="M1259.45,-67.79C1269.59,-59 1281.36,-48.78 1291.68,-39.83"/>
<polygon fill="#63b8ff" stroke="#63b8ff" points="1293.9,-42.54 1299.16,-33.34 1289.31,-37.25 1293.9,-42.54"/>
</a>
</g>
</g>
<!-- Node12 -->
<g id="Node000012" class="node">
<title>Node12</title>
<g id="a_Node000012"><a xlink:title=" ">
<polygon fill="#e0e0e0" stroke="#999999" points="1523.88,-32 1402.12,-32 1402.12,0 1523.88,0 1523.88,-32"/>
<text text-anchor="start" x="1410.12" y="-18.5" font-family="Helvetica,sans-Serif" font-size="10.00">fr.softsf.canscan.model.</text>
<text text-anchor="middle" x="1463" y="-6.5" font-family="Helvetica,sans-Serif" font-size="10.00">CommonFields</text>
</a>
</g>
</g>
<!-- Node1&#45;&gt;Node12 -->
<g id="edge11_Node000001_Node000012" class="edge">
<title>Node1&#45;&gt;Node12</title>
<g id="a_edge11_Node000001_Node000012"><a xlink:title=" ">
<path fill="none" stroke="#63b8ff" d="M1302.79,-67.59C1334.73,-57.51 1372.49,-45.58 1403.33,-35.84"/>
<polygon fill="#63b8ff" stroke="#63b8ff" points="1404.01,-39.3 1412.49,-32.95 1401.9,-32.63 1404.01,-39.3"/>
</a>
</g>
</g>
<!-- Node13 -->
<g id="Node000013" class="node">
<title>Node13</title>
<g id="a_Node000013"><a xlink:title=" ">
<polygon fill="#e0e0e0" stroke="#999999" points="1663.88,-32 1542.12,-32 1542.12,0 1663.88,0 1663.88,-32"/>
<text text-anchor="start" x="1550.12" y="-18.5" font-family="Helvetica,sans-Serif" font-size="10.00">fr.softsf.canscan.model.</text>
<text text-anchor="middle" x="1603" y="-6.5" font-family="Helvetica,sans-Serif" font-size="10.00">EncodedData</text>
</a>
</g>
</g>
<!-- Node1&#45;&gt;Node13 -->
<g id="edge12_Node000001_Node000013" class="edge">
<title>Node1&#45;&gt;Node13</title>
<g id="a_edge12_Node000001_Node000013"><a xlink:title=" ">
<path fill="none" stroke="#63b8ff" d="M1323.12,-72.67C1379.71,-62.07 1455.08,-47.71 1530.77,-32.43"/>
<polygon fill="#63b8ff" stroke="#63b8ff" points="1531.34,-35.88 1540.45,-30.47 1529.95,-29.02 1531.34,-35.88"/>
</a>
</g>
</g>
<!-- Node14 -->
<g id="Node000014" class="node">
<title>Node14</title>
<g id="a_Node000014"><a xlink:title=" ">
<polygon fill="#e0e0e0" stroke="#999999" points="1803.88,-32 1682.12,-32 1682.12,0 1803.88,0 1803.88,-32"/>
<text text-anchor="start" x="1690.12" y="-18.5" font-family="Helvetica,sans-Serif" font-size="10.00">fr.softsf.canscan.model.</text>
<text text-anchor="middle" x="1743" y="-6.5" font-family="Helvetica,sans-Serif" font-size="10.00">WholeFields</text>
</a>
</g>
</g>
<!-- Node1&#45;&gt;Node14 -->
<g id="edge13_Node000001_Node000014" class="edge">
<title>Node1&#45;&gt;Node14</title>
<g id="a_edge13_Node000001_Node000014"><a xlink:title=" ">
<path fill="none" stroke="#63b8ff" d="M1322.99,-79.69C1409.15,-70.08 1544.35,-53.72 1670.93,-32.27"/>
<polygon fill="#63b8ff" stroke="#63b8ff" points="1671.21,-35.77 1680.48,-30.64 1670.03,-28.87 1671.21,-35.77"/>
</a>
</g>
</g>
<!-- Node15 -->
<g id="Node000015" class="node">
<title>Node15</title>
<g id="a_Node000015"><a xlink:title=" ">
<polygon fill="#e0e0e0" stroke="#999999" points="1948.5,-32 1821.5,-32 1821.5,0 1948.5,0 1948.5,-32"/>
<text text-anchor="start" x="1829.5" y="-18.5" font-family="Helvetica,sans-Serif" font-size="10.00">fr.softsf.canscan.service.</text>
<text text-anchor="middle" x="1885" y="-6.5" font-family="Helvetica,sans-Serif" font-size="10.00">DataBuilderService</text>
</a>
</g>
</g>
<!-- Node1&#45;&gt;Node15 -->
<g id="edge14_Node000001_Node000015" class="edge">
<title>Node1&#45;&gt;Node15</title>
<g id="a_edge14_Node000001_Node000015"><a xlink:title=" ">
<path fill="none" stroke="#63b8ff" d="M1323.01,-83.27C1434.31,-75.36 1632,-59.11 1809.93,-32.38"/>
<polygon fill="#63b8ff" stroke="#63b8ff" points="1810.22,-35.88 1819.58,-30.92 1809.17,-28.96 1810.22,-35.88"/>
</a>
</g>
</g>
<!-- Node16 -->
<g id="Node000016" class="node">
<title>Node16</title>
<g id="a_Node000016"><a xlink:title=" ">
<polygon fill="#e0e0e0" stroke="#999999" points="2107.62,-32 1966.38,-32 1966.38,0 2107.62,0 2107.62,-32"/>
<text text-anchor="start" x="1974.38" y="-18.5" font-family="Helvetica,sans-Serif" font-size="10.00">fr.softsf.canscan.ui.Encoded</text>
<text text-anchor="middle" x="2037" y="-6.5" font-family="Helvetica,sans-Serif" font-size="10.00">Image</text>
</a>
</g>
</g>
<!-- Node1&#45;&gt;Node16 -->
<g id="edge15_Node000001_Node000016" class="edge">
<title>Node1&#45;&gt;Node16</title>
<g id="a_edge15_Node000001_Node000016"><a xlink:title=" ">
<path fill="none" stroke="#63b8ff" d="M1323.25,-85.15C1457.65,-78.59 1721.83,-63 1954.92,-32.33"/>
<polygon fill="#63b8ff" stroke="#63b8ff" points="1955.05,-35.85 1964.5,-31.06 1954.13,-28.91 1955.05,-35.85"/>
</a>
</g>
</g>
<!-- Node17 -->
<g id="Node000017" class="node">
<title>Node17</title>
<g id="a_Node000017"><a xlink:title=" ">
<polygon fill="#e0e0e0" stroke="#999999" points="2252.12,-32 2125.88,-32 2125.88,0 2252.12,0 2252.12,-32"/>
<text text-anchor="start" x="2133.88" y="-18.5" font-family="Helvetica,sans-Serif" font-size="10.00">fr.softsf.canscan.ui.Label</text>
<text text-anchor="middle" x="2189" y="-6.5" font-family="Helvetica,sans-Serif" font-size="10.00">IconUtil</text>
</a>
</g>
</g>
<!-- Node1&#45;&gt;Node17 -->
<g id="edge16_Node000001_Node000017" class="edge">
<title>Node1&#45;&gt;Node17</title>
<g id="a_edge16_Node000001_Node000017"><a xlink:title=" ">
<path fill="none" stroke="#63b8ff" d="M1323.35,-87.4C1480.63,-83.66 1819.55,-71.52 2114.14,-32.27"/>
<polygon fill="#63b8ff" stroke="#63b8ff" points="2114.54,-35.74 2123.98,-30.94 2113.6,-28.81 2114.54,-35.74"/>
</a>
</g>
</g>
<!-- Node18 -->
<g id="Node000018" class="node">
<title>Node18</title>
<g id="a_Node000018"><a xlink:title=" ">
<polygon fill="#e0e0e0" stroke="#999999" points="2414.12,-26 2269.88,-26 2269.88,-6 2414.12,-6 2414.12,-26"/>
<text text-anchor="middle" x="2342" y="-12.5" font-family="Helvetica,sans-Serif" font-size="10.00">fr.softsf.canscan.ui.MyPopup</text>
</a>
</g>
</g>
<!-- Node1&#45;&gt;Node18 -->
<g id="edge17_Node000001_Node000018" class="edge">
<title>Node1&#45;&gt;Node18</title>
<g id="a_edge17_Node000001_Node000018"><a xlink:title=" ">
<path fill="none" stroke="#63b8ff" d="M1323.17,-87.89C1501.09,-84.8 1915.59,-73.41 2261,-32 2269.01,-31.04 2277.41,-29.78 2285.66,-28.39"/>
<polygon fill="#63b8ff" stroke="#63b8ff" points="2286.01,-31.88 2295.25,-26.7 2284.8,-24.98 2286.01,-31.88"/>
</a>
</g>
</g>
<!-- Node19 -->
<g id="Node000019" class="node">
<title>Node19</title>
<g id="a_Node000019"><a xlink:title=" ">
<polygon fill="#e0e0e0" stroke="#999999" points="2577.5,-26 2432.5,-26 2432.5,-6 2577.5,-6 2577.5,-26"/>
<text text-anchor="middle" x="2505" y="-12.5" font-family="Helvetica,sans-Serif" font-size="10.00">fr.softsf.canscan.util.Checker</text>
</a>
</g>
</g>
<!-- Node1&#45;&gt;Node19 -->
<g id="edge18_Node000001_Node000019" class="edge">
<title>Node1&#45;&gt;Node19</title>
<g id="a_edge18_Node000001_Node000019"><a xlink:title=" ">
<path fill="none" stroke="#63b8ff" d="M1323.26,-88.77C1520.88,-87.38 2013.75,-79.04 2423,-32 2431.11,-31.07 2439.62,-29.82 2447.96,-28.44"/>
<polygon fill="#63b8ff" stroke="#63b8ff" points="2448.44,-31.91 2457.7,-26.75 2447.25,-25.01 2448.44,-31.91"/>
</a>
</g>
</g>
</g>
</svg>
