<?xml version="1.0" encoding="UTF-8" standalone="no"?>
<!DOCTYPE svg PUBLIC "-//W3C//DTD SVG 1.1//EN"
 "http://www.w3.org/Graphics/SVG/1.1/DTD/svg11.dtd">
<!-- Generated by graphviz version 12.2.1 (20241206.2353)
 -->
<!-- Title: src/main/java/fr/softsf/canscan/ui/DynamicQrCodePreview.java Pages: 1 -->
<!--zoomable 108 -->

<svg id="main" version="1.1" xmlns="http://www.w3.org/2000/svg" xmlns:xlink="http://www.w3.org/1999/xlink" xml:space="preserve" onload="init(evt)">

<style type="text/css"><![CDATA[
.node, .edge {opacity: 0.7;}
.node.selected, .edge.selected {opacity: 1;}
.edge:hover path { stroke: red; }
.edge:hover polygon { stroke: red; fill: red; }
]]></style>

<defs>
  <circle id="rim" cx="0" cy="0" r="7"/>
  <circle id="rim2" cx="0" cy="0" r="3.5"/>
  <g id="zoomPlus">
    <use xlink:href="#rim" fill="#404040"><set attributeName="fill" to="#808080" begin="zoomplus.mouseover" end="zoomplus.mouseout"/></use>
    <path d="M-4,0h8M0,-4v8" fill="none" stroke="white" stroke-width="1.5" pointer-events="none"/>
  </g>
  <g id="zoomMin">
    <use xlink:href="#rim" fill="#404040"><set attributeName="fill" to="#808080" begin="zoomminus.mouseover" end="zoomminus.mouseout"/></use>
    <path d="M-4,0h8" fill="none" stroke="white" stroke-width="1.5" pointer-events="none"/>
  </g>
  <g id="arrowUp" transform="translate(30 24)">
    <use xlink:href="#rim"/>
    <path pointer-events="none" fill="none" stroke="white" stroke-width="1.5" d="M0,-3.0v7 M-2.5,-0.5L0,-3.0L2.5,-0.5"/>
  </g>
  <g id="arrowRight" transform="rotate(90) translate(36 -43)">
    <use xlink:href="#rim"/>
    <path pointer-events="none" fill="none" stroke="white" stroke-width="1.5" d="M0,-3.0v7 M-2.5,-0.5L0,-3.0L2.5,-0.5"/>
  </g>
  <g id="arrowDown" transform="rotate(180) translate(-30 -48)">
    <use xlink:href="#rim"/>
    <path pointer-events="none" fill="none" stroke="white" stroke-width="1.5" d="M0,-3.0v7 M-2.5,-0.5L0,-3.0L2.5,-0.5"/>
  </g>
  <g id="arrowLeft" transform="rotate(270) translate(-36 17)">
    <use xlink:href="#rim"/>
    <path pointer-events="none" fill="none" stroke="white" stroke-width="1.5" d="M0,-3.0v7 M-2.5,-0.5L0,-3.0L2.5,-0.5"/>
  </g>
  <g id="resetDef">
    <use xlink:href="#rim2" fill="#404040"><set attributeName="fill" to="#808080" begin="reset.mouseover" end="reset.mouseout"/></use>
  </g>
</defs>
<script type="application/ecmascript">
var viewWidth = 1966;
var viewHeight = 108;
var sectionId = 'dynsection-0';
</script>
<script type="application/ecmascript" xlink:href="svg.min.js"/>
<svg id="graph" class="graph">
<g id="viewport">
<title>src/main/java/fr/softsf/canscan/ui/DynamicQrCodePreview.java</title>
<!-- Node1 -->
<g id="Node000001" class="node">
<title>Node1</title>
<g id="a_Node000001"><a xlink:title=" ">
<polygon fill="#999999" stroke="#666666" points="1007.75,-100 810.25,-100 810.25,-68 1007.75,-68 1007.75,-100"/>
<text text-anchor="start" x="818.25" y="-86.5" font-family="Helvetica,sans-Serif" font-size="10.00">src/main/java/fr/softsf</text>
<text text-anchor="middle" x="909" y="-74.5" font-family="Helvetica,sans-Serif" font-size="10.00">/canscan/ui/DynamicQrCodePreview.java</text>
</a>
</g>
</g>
<!-- Node2 -->
<g id="Node000002" class="node">
<title>Node2</title>
<g id="a_Node000002"><a xlink:title=" ">
<polygon fill="#e0e0e0" stroke="#999999" points="148,-26 0,-26 0,-6 148,-6 148,-26"/>
<text text-anchor="middle" x="74" y="-12.5" font-family="Helvetica,sans-Serif" font-size="10.00">java.awt.image.BufferedImage</text>
</a>
</g>
</g>
<!-- Node1&#45;&gt;Node2 -->
<g id="edge1_Node000001_Node000002" class="edge">
<title>Node1&#45;&gt;Node2</title>
<g id="a_edge1_Node000001_Node000002"><a xlink:title=" ">
<path fill="none" stroke="#63b8ff" d="M809.82,-79.78C665.65,-74.31 389.94,-60.86 157,-32 149.01,-31.01 140.62,-29.75 132.37,-28.39"/>
<polygon fill="#63b8ff" stroke="#63b8ff" points="133.2,-24.98 122.76,-26.74 132.02,-31.88 133.2,-24.98"/>
</a>
</g>
</g>
<!-- Node3 -->
<g id="Node000003" class="node">
<title>Node3</title>
<g id="a_Node000003"><a xlink:title=" ">
<polygon fill="#e0e0e0" stroke="#999999" points="229.62,-26 166.38,-26 166.38,-6 229.62,-6 229.62,-26"/>
<text text-anchor="middle" x="198" y="-12.5" font-family="Helvetica,sans-Serif" font-size="10.00">java.io.File</text>
</a>
</g>
</g>
<!-- Node1&#45;&gt;Node3 -->
<g id="edge2_Node000001_Node000003" class="edge">
<title>Node1&#45;&gt;Node3</title>
<g id="a_edge2_Node000001_Node000003"><a xlink:title=" ">
<path fill="none" stroke="#63b8ff" d="M809.86,-83.89C678.01,-83.17 438.38,-75.19 239,-32 236.37,-31.43 233.69,-30.73 231.01,-29.95"/>
<polygon fill="#63b8ff" stroke="#63b8ff" points="232.26,-26.68 221.66,-26.86 230.06,-33.32 232.26,-26.68"/>
</a>
</g>
</g>
<!-- Node4 -->
<g id="Node000004" class="node">
<title>Node4</title>
<g id="a_Node000004"><a xlink:title=" ">
<polygon fill="#e0e0e0" stroke="#999999" points="334.25,-26 247.75,-26 247.75,-6 334.25,-6 334.25,-26"/>
<text text-anchor="middle" x="291" y="-12.5" font-family="Helvetica,sans-Serif" font-size="10.00">java.util.Objects</text>
</a>
</g>
</g>
<!-- Node1&#45;&gt;Node4 -->
<g id="edge3_Node000001_Node000004" class="edge">
<title>Node1&#45;&gt;Node4</title>
<g id="a_edge3_Node000001_Node000004"><a xlink:title=" ">
<path fill="none" stroke="#63b8ff" d="M809.8,-79.79C696.18,-74.8 504.82,-62.34 343,-32 339.14,-31.28 335.16,-30.39 331.2,-29.41"/>
<polygon fill="#63b8ff" stroke="#63b8ff" points="332.22,-26.06 321.65,-26.87 330.41,-32.83 332.22,-26.06"/>
</a>
</g>
</g>
<!-- Node5 -->
<g id="Node000005" class="node">
<title>Node5</title>
<g id="a_Node000005"><a xlink:title=" ">
<polygon fill="#e0e0e0" stroke="#999999" points="451.62,-26 352.38,-26 352.38,-6 451.62,-6 451.62,-26"/>
<text text-anchor="middle" x="402" y="-12.5" font-family="Helvetica,sans-Serif" font-size="10.00">javax.swing.JLabel</text>
</a>
</g>
</g>
<!-- Node1&#45;&gt;Node5 -->
<g id="edge4_Node000001_Node000005" class="edge">
<title>Node1&#45;&gt;Node5</title>
<g id="a_edge4_Node000001_Node000005"><a xlink:title=" ">
<path fill="none" stroke="#63b8ff" d="M810.11,-75.62C718.96,-67.9 580.16,-53.83 461,-32 456.38,-31.15 451.59,-30.15 446.82,-29.07"/>
<polygon fill="#63b8ff" stroke="#63b8ff" points="447.85,-25.71 437.31,-26.79 446.22,-32.52 447.85,-25.71"/>
</a>
</g>
</g>
<!-- Node6 -->
<g id="Node000006" class="node">
<title>Node6</title>
<g id="a_Node000006"><a xlink:title=" ">
<polygon fill="#e0e0e0" stroke="#999999" points="600.38,-26 469.62,-26 469.62,-6 600.38,-6 600.38,-26"/>
<text text-anchor="middle" x="535" y="-12.5" font-family="Helvetica,sans-Serif" font-size="10.00">javax.swing.SwingUtilities</text>
</a>
</g>
</g>
<!-- Node1&#45;&gt;Node6 -->
<g id="edge5_Node000001_Node000006" class="edge">
<title>Node1&#45;&gt;Node6</title>
<g id="a_edge5_Node000001_Node000006"><a xlink:title=" ">
<path fill="none" stroke="#63b8ff" d="M814.28,-67.55C755.41,-57.77 678.22,-44.64 610,-32 604.35,-30.95 598.47,-29.83 592.59,-28.69"/>
<polygon fill="#63b8ff" stroke="#63b8ff" points="593.34,-25.27 582.85,-26.78 591.99,-32.14 593.34,-25.27"/>
</a>
</g>
</g>
<!-- Node7 -->
<g id="Node000007" class="node">
<title>Node7</title>
<g id="a_Node000007"><a xlink:title=" ">
<polygon fill="#e0e0e0" stroke="#999999" points="747.25,-26 618.75,-26 618.75,-6 747.25,-6 747.25,-26"/>
<text text-anchor="middle" x="683" y="-12.5" font-family="Helvetica,sans-Serif" font-size="10.00">javax.swing.SwingWorker</text>
</a>
</g>
</g>
<!-- Node1&#45;&gt;Node7 -->
<g id="edge6_Node000001_Node000007" class="edge">
<title>Node1&#45;&gt;Node7</title>
<g id="a_edge6_Node000001_Node000007"><a xlink:title=" ">
<path fill="none" stroke="#63b8ff" d="M856.01,-67.53C816.52,-55.99 763.26,-40.44 726.3,-29.65"/>
<polygon fill="#63b8ff" stroke="#63b8ff" points="727.43,-26.33 716.85,-26.88 725.46,-33.05 727.43,-26.33"/>
</a>
</g>
</g>
<!-- Node8 -->
<g id="Node000008" class="node">
<title>Node8</title>
<g id="a_Node000008"><a xlink:title=" ">
<polygon fill="#e0e0e0" stroke="#999999" points="904.5,-32 765.5,-32 765.5,0 904.5,0 904.5,-32"/>
<text text-anchor="start" x="773.5" y="-18.5" font-family="Helvetica,sans-Serif" font-size="10.00">org.apache.commons.lang3.</text>
<text text-anchor="middle" x="835" y="-6.5" font-family="Helvetica,sans-Serif" font-size="10.00">StringUtils</text>
</a>
</g>
</g>
<!-- Node1&#45;&gt;Node8 -->
<g id="edge7_Node000001_Node000008" class="edge">
<title>Node1&#45;&gt;Node8</title>
<g id="a_edge7_Node000001_Node000008"><a xlink:title=" ">
<path fill="none" stroke="#63b8ff" d="M891.84,-67.69C882.66,-59.5 871.16,-49.25 860.92,-40.12"/>
<polygon fill="#63b8ff" stroke="#63b8ff" points="863.25,-37.5 853.46,-33.46 858.59,-42.73 863.25,-37.5"/>
</a>
</g>
</g>
<!-- Node9 -->
<g id="Node000009" class="node">
<title>Node9</title>
<g id="a_Node000009"><a xlink:title=" ">
<polygon fill="#e0e0e0" stroke="#999999" points="1043.88,-32 922.12,-32 922.12,0 1043.88,0 1043.88,-32"/>
<text text-anchor="start" x="930.12" y="-18.5" font-family="Helvetica,sans-Serif" font-size="10.00">fr.softsf.canscan.model.</text>
<text text-anchor="middle" x="983" y="-6.5" font-family="Helvetica,sans-Serif" font-size="10.00">QrConfig</text>
</a>
</g>
</g>
<!-- Node1&#45;&gt;Node9 -->
<g id="edge8_Node000001_Node000009" class="edge">
<title>Node1&#45;&gt;Node9</title>
<g id="a_edge8_Node000001_Node000009"><a xlink:title=" ">
<path fill="none" stroke="#63b8ff" d="M926.16,-67.69C935.34,-59.5 946.84,-49.25 957.08,-40.12"/>
<polygon fill="#63b8ff" stroke="#63b8ff" points="959.41,-42.73 964.54,-33.46 954.75,-37.5 959.41,-42.73"/>
</a>
</g>
</g>
<!-- Node10 -->
<g id="Node000010" class="node">
<title>Node10</title>
<g id="a_Node000010"><a xlink:title=" ">
<polygon fill="#e0e0e0" stroke="#999999" points="1183.88,-32 1062.12,-32 1062.12,0 1183.88,0 1183.88,-32"/>
<text text-anchor="start" x="1070.12" y="-18.5" font-family="Helvetica,sans-Serif" font-size="10.00">fr.softsf.canscan.model.</text>
<text text-anchor="middle" x="1123" y="-6.5" font-family="Helvetica,sans-Serif" font-size="10.00">QrDataResult</text>
</a>
</g>
</g>
<!-- Node1&#45;&gt;Node10 -->
<g id="edge9_Node000001_Node000010" class="edge">
<title>Node1&#45;&gt;Node10</title>
<g id="a_edge9_Node000001_Node000010"><a xlink:title=" ">
<path fill="none" stroke="#63b8ff" d="M959.17,-67.53C989.92,-58.04 1029.48,-45.84 1062.03,-35.81"/>
<polygon fill="#63b8ff" stroke="#63b8ff" points="1062.8,-39.23 1071.32,-32.94 1060.74,-32.54 1062.8,-39.23"/>
</a>
</g>
</g>
<!-- Node11 -->
<g id="Node000011" class="node">
<title>Node11</title>
<g id="a_Node000011"><a xlink:title=" ">
<polygon fill="#e0e0e0" stroke="#999999" points="1323.88,-32 1202.12,-32 1202.12,0 1323.88,0 1323.88,-32"/>
<text text-anchor="start" x="1210.12" y="-18.5" font-family="Helvetica,sans-Serif" font-size="10.00">fr.softsf.canscan.model.</text>
<text text-anchor="middle" x="1263" y="-6.5" font-family="Helvetica,sans-Serif" font-size="10.00">QrInput</text>
</a>
</g>
</g>
<!-- Node1&#45;&gt;Node11 -->
<g id="edge10_Node000001_Node000011" class="edge">
<title>Node1&#45;&gt;Node11</title>
<g id="a_edge10_Node000001_Node000011"><a xlink:title=" ">
<path fill="none" stroke="#63b8ff" d="M999.64,-67.52C1052.64,-58.28 1121.12,-46.02 1190.76,-32.41"/>
<polygon fill="#63b8ff" stroke="#63b8ff" points="1191.32,-35.86 1200.46,-30.5 1189.97,-28.99 1191.32,-35.86"/>
</a>
</g>
</g>
<!-- Node12 -->
<g id="Node000012" class="node">
<title>Node12</title>
<g id="a_Node000012"><a xlink:title=" ">
<polygon fill="#e0e0e0" stroke="#999999" points="1498.12,-32 1341.88,-32 1341.88,0 1498.12,0 1498.12,-32"/>
<text text-anchor="start" x="1349.88" y="-18.5" font-family="Helvetica,sans-Serif" font-size="10.00">fr.softsf.canscan.service.</text>
<text text-anchor="middle" x="1420" y="-6.5" font-family="Helvetica,sans-Serif" font-size="10.00">AbstractDynamicQrCodeWorker</text>
</a>
</g>
</g>
<!-- Node1&#45;&gt;Node12 -->
<g id="edge11_Node000001_Node000012" class="edge">
<title>Node1&#45;&gt;Node12</title>
<g id="a_edge11_Node000001_Node000012"><a xlink:title=" ">
<path fill="none" stroke="#63b8ff" d="M1008.14,-72.52C1091.5,-63.38 1214.09,-49.15 1330.53,-32.32"/>
<polygon fill="#63b8ff" stroke="#63b8ff" points="1330.89,-35.8 1340.28,-30.9 1329.88,-28.88 1330.89,-35.8"/>
</a>
</g>
</g>
<!-- Node13 -->
<g id="Node000013" class="node">
<title>Node13</title>
<g id="a_Node000013"><a xlink:title=" ">
<polygon fill="#e0e0e0" stroke="#999999" points="1643.5,-32 1516.5,-32 1516.5,0 1643.5,0 1643.5,-32"/>
<text text-anchor="start" x="1524.5" y="-18.5" font-family="Helvetica,sans-Serif" font-size="10.00">fr.softsf.canscan.service.</text>
<text text-anchor="middle" x="1580" y="-6.5" font-family="Helvetica,sans-Serif" font-size="10.00">DataBuilderService</text>
</a>
</g>
</g>
<!-- Node1&#45;&gt;Node13 -->
<g id="edge12_Node000001_Node000013" class="edge">
<title>Node1&#45;&gt;Node13</title>
<g id="a_edge12_Node000001_Node000013"><a xlink:title=" ">
<path fill="none" stroke="#63b8ff" d="M1008.08,-78.12C1124.59,-71.59 1323.96,-57.88 1505.03,-32.16"/>
<polygon fill="#63b8ff" stroke="#63b8ff" points="1505.48,-35.63 1514.88,-30.75 1504.48,-28.71 1505.48,-35.63"/>
</a>
</g>
</g>
<!-- Node14 -->
<g id="Node000014" class="node">
<title>Node14</title>
<g id="a_Node000014"><a xlink:title=" ">
<polygon fill="#e0e0e0" stroke="#999999" points="1806.5,-26 1661.5,-26 1661.5,-6 1806.5,-6 1806.5,-26"/>
<text text-anchor="middle" x="1734" y="-12.5" font-family="Helvetica,sans-Serif" font-size="10.00">fr.softsf.canscan.util.Checker</text>
</a>
</g>
</g>
<!-- Node1&#45;&gt;Node14 -->
<g id="edge13_Node000001_Node000014" class="edge">
<title>Node1&#45;&gt;Node14</title>
<g id="a_edge13_Node000001_Node000014"><a xlink:title=" ">
<path fill="none" stroke="#63b8ff" d="M1008.03,-79.82C1150.94,-74.42 1423.08,-61.07 1653,-32 1660.72,-31.02 1668.81,-29.79 1676.77,-28.44"/>
<polygon fill="#63b8ff" stroke="#63b8ff" points="1677.15,-31.93 1686.39,-26.75 1675.94,-25.03 1677.15,-31.93"/>
</a>
</g>
</g>
<!-- Node15 -->
<g id="Node000015" class="node">
<title>Node15</title>
<g id="a_Node000015"><a xlink:title=" ">
<polygon fill="#e0e0e0" stroke="#999999" points="1957.88,-32 1824.12,-32 1824.12,0 1957.88,0 1957.88,-32"/>
<text text-anchor="start" x="1832.12" y="-18.5" font-family="Helvetica,sans-Serif" font-size="10.00">fr.softsf.canscan.util.String</text>
<text text-anchor="middle" x="1891" y="-6.5" font-family="Helvetica,sans-Serif" font-size="10.00">Constants</text>
</a>
</g>
</g>
<!-- Node1&#45;&gt;Node15 -->
<g id="edge14_Node000001_Node000015" class="edge">
<title>Node1&#45;&gt;Node15</title>
<g id="a_edge14_Node000001_Node000015"><a xlink:title=" ">
<path fill="none" stroke="#63b8ff" d="M1008.06,-82C1173.22,-79.32 1515.35,-69.49 1813,-32.28"/>
<polygon fill="#63b8ff" stroke="#63b8ff" points="1813.03,-35.8 1822.52,-31.07 1812.16,-28.85 1813.03,-35.8"/>
</a>
</g>
</g>
</g>
</svg>

<g id="navigator" transform="translate(0 0)" fill="#404254">
  <rect fill="#f2f5e9" fill-opacity="0.5" stroke="#606060" stroke-width=".5" x="0" y="0" width="60" height="60"/>
  <use id="zoomplus" xlink:href="#zoomPlus" x="17" y="9" onmousedown="handleZoom(evt,'in')"/>
  <use id="zoomminus" xlink:href="#zoomMin" x="42" y="9" onmousedown="handleZoom(evt,'out')"/>
  <use id="reset" xlink:href="#resetDef" x="30" y="36" onmousedown="handleReset()"/>
   <use id="arrowup" xlink:href="#arrowUp" x="0" y="0" onmousedown="handlePan(0,-1)"/>
  <use id="arrowright" xlink:href="#arrowRight" x="0" y="0" onmousedown="handlePan(1,0)"/>
  <use id="arrowdown" xlink:href="#arrowDown" x="0" y="0" onmousedown="handlePan(0,1)"/>
  <use id="arrowleft" xlink:href="#arrowLeft" x="0" y="0" onmousedown="handlePan(-1,0)"/>
</g>
<svg viewBox="0 0 15 15" width="100%" height="30px" preserveAspectRatio="xMaxYMin meet">
 <g id="arrow_out" transform="scale(0.3 0.3)">
  <a xlink:href="_dynamic_qr_code_preview_8java__incl_org.svg" target="_base">
   <rect id="button" ry="5" rx="5" y="6" x="6" height="38" width="38"
        fill="#f2f5e9" fill-opacity="0.5" stroke="#606060" stroke-width="1.0"/>
   <path id="arrow"
     d="M 11.500037,31.436501 C 11.940474,20.09759 22.043105,11.32322 32.158766,21.979434 L 37.068811,17.246167 C 37.068811,17.246167 37.088388,32 37.088388,32 L 22.160133,31.978069 C 22.160133,31.978069 26.997745,27.140456 26.997745,27.140456 C 18.528582,18.264221 13.291696,25.230495 11.500037,31.436501 z"
     style="fill:#404040;"/>
  </a>
 </g>
</svg>

<style type='text/css'>
<![CDATA[
[data-mouse-over-selected='false'] { opacity: 0.7; }
[data-mouse-over-selected='true']  { opacity: 1.0; }
]]>
</style>
<script type="application/ecmascript"><![CDATA[
document.addEventListener('DOMContentLoaded', (event) => {
  highlightEdges();
  highlightAdjacentNodes();
});
]]></script>
</svg>
