<?xml version="1.0" encoding="UTF-8" standalone="no"?>
<!DOCTYPE svg PUBLIC "-//W3C//DTD SVG 1.1//EN"
 "http://www.w3.org/Graphics/SVG/1.1/DTD/svg11.dtd">
<!-- Generated by graphviz version 12.2.1 (20241206.2353)
 -->
<!-- Title: src/main/java/fr/softsf/canscan/ui/worker/DynamicResizeWorker.java Pages: 1 -->
<svg width="1800pt" height="120pt"
 viewBox="0.00 0.00 1800.00 120.00" xmlns="http://www.w3.org/2000/svg" xmlns:xlink="http://www.w3.org/1999/xlink">
<g id="graph0" class="graph" transform="scale(1 1) rotate(0) translate(4 116)">
<title>src/main/java/fr/softsf/canscan/ui/worker/DynamicResizeWorker.java</title>
<!-- Node1 -->
<g id="Node000001" class="node">
<title>Node1</title>
<g id="a_Node000001"><a xlink:title=" ">
<polygon fill="#999999" stroke="#666666" points="938.5,-112 767.25,-112 767.25,-68 938.5,-68 938.5,-112"/>
<text text-anchor="start" x="775.25" y="-98.5" font-family="Helvetica,sans-Serif" font-size="10.00">src/main/java/fr/softsf</text>
<text text-anchor="start" x="775.25" y="-86.5" font-family="Helvetica,sans-Serif" font-size="10.00">/canscan/ui/worker/DynamicResize</text>
<text text-anchor="middle" x="852.88" y="-74.5" font-family="Helvetica,sans-Serif" font-size="10.00">Worker.java</text>
</a>
</g>
</g>
<!-- Node2 -->
<g id="Node000002" class="node">
<title>Node2</title>
<g id="a_Node000002"><a xlink:title=" ">
<polygon fill="#e0e0e0" stroke="#999999" points="97.75,-26 0,-26 0,-6 97.75,-6 97.75,-26"/>
<text text-anchor="middle" x="48.88" y="-12.5" font-family="Helvetica,sans-Serif" font-size="10.00">java.awt.Container</text>
</a>
</g>
</g>
<!-- Node1&#45;&gt;Node2 -->
<g id="edge1_Node000001_Node000002" class="edge">
<title>Node1&#45;&gt;Node2</title>
<g id="a_edge1_Node000001_Node000002"><a xlink:title=" ">
<path fill="none" stroke="#63b8ff" d="M766.98,-87.36C627.56,-83.6 343.76,-71.36 106.88,-32 102.14,-31.21 97.23,-30.22 92.36,-29.13"/>
<polygon fill="#63b8ff" stroke="#63b8ff" points="93.19,-25.73 82.65,-26.79 91.55,-32.53 93.19,-25.73"/>
</a>
</g>
</g>
<!-- Node3 -->
<g id="Node000003" class="node">
<title>Node3</title>
<g id="a_Node000003"><a xlink:title=" ">
<polygon fill="#e0e0e0" stroke="#999999" points="218,-26 115.75,-26 115.75,-6 218,-6 218,-26"/>
<text text-anchor="middle" x="166.88" y="-12.5" font-family="Helvetica,sans-Serif" font-size="10.00">java.awt.Dimension</text>
</a>
</g>
</g>
<!-- Node1&#45;&gt;Node3 -->
<g id="edge2_Node000001_Node000003" class="edge">
<title>Node1&#45;&gt;Node3</title>
<g id="a_edge2_Node000001_Node000003"><a xlink:title=" ">
<path fill="none" stroke="#63b8ff" d="M766.77,-85.36C645.59,-79.3 418.13,-64.41 226.88,-32 221.98,-31.17 216.89,-30.15 211.85,-29.04"/>
<polygon fill="#63b8ff" stroke="#63b8ff" points="212.96,-25.7 202.42,-26.83 211.36,-32.52 212.96,-25.7"/>
</a>
</g>
</g>
<!-- Node4 -->
<g id="Node000004" class="node">
<title>Node4</title>
<g id="a_Node000004"><a xlink:title=" ">
<polygon fill="#e0e0e0" stroke="#999999" points="343.62,-26 236.12,-26 236.12,-6 343.62,-6 343.62,-26"/>
<text text-anchor="middle" x="289.88" y="-12.5" font-family="Helvetica,sans-Serif" font-size="10.00">java.awt.Graphics2D</text>
</a>
</g>
</g>
<!-- Node1&#45;&gt;Node4 -->
<g id="edge3_Node000001_Node000004" class="edge">
<title>Node1&#45;&gt;Node4</title>
<g id="a_edge3_Node000001_Node000004"><a xlink:title=" ">
<path fill="none" stroke="#63b8ff" d="M766.86,-82.48C666.69,-74.14 496.47,-57.62 351.88,-32 346.96,-31.13 341.85,-30.1 336.77,-28.99"/>
<polygon fill="#63b8ff" stroke="#63b8ff" points="337.78,-25.64 327.25,-26.82 336.22,-32.46 337.78,-25.64"/>
</a>
</g>
</g>
<!-- Node5 -->
<g id="Node000005" class="node">
<title>Node5</title>
<g id="a_Node000005"><a xlink:title=" ">
<polygon fill="#e0e0e0" stroke="#999999" points="484.5,-26 361.25,-26 361.25,-6 484.5,-6 484.5,-26"/>
<text text-anchor="middle" x="422.88" y="-12.5" font-family="Helvetica,sans-Serif" font-size="10.00">java.awt.RenderingHints</text>
</a>
</g>
</g>
<!-- Node1&#45;&gt;Node5 -->
<g id="edge4_Node000001_Node000005" class="edge">
<title>Node1&#45;&gt;Node5</title>
<g id="a_edge4_Node000001_Node000005"><a xlink:title=" ">
<path fill="none" stroke="#63b8ff" d="M767.07,-76.63C694.21,-65.82 586.96,-49.21 493.88,-32 488.36,-30.98 482.62,-29.86 476.9,-28.71"/>
<polygon fill="#63b8ff" stroke="#63b8ff" points="477.97,-25.36 467.47,-26.78 476.56,-32.21 477.97,-25.36"/>
</a>
</g>
</g>
<!-- Node6 -->
<g id="Node000006" class="node">
<title>Node6</title>
<g id="a_Node000006"><a xlink:title=" ">
<polygon fill="#e0e0e0" stroke="#999999" points="650.88,-26 502.88,-26 502.88,-6 650.88,-6 650.88,-26"/>
<text text-anchor="middle" x="576.88" y="-12.5" font-family="Helvetica,sans-Serif" font-size="10.00">java.awt.image.BufferedImage</text>
</a>
</g>
</g>
<!-- Node1&#45;&gt;Node6 -->
<g id="edge5_Node000001_Node000006" class="edge">
<title>Node1&#45;&gt;Node6</title>
<g id="a_edge5_Node000001_Node000006"><a xlink:title=" ">
<path fill="none" stroke="#63b8ff" d="M770.81,-67.59C722.98,-55.12 664.36,-39.82 624.17,-29.34"/>
<polygon fill="#63b8ff" stroke="#63b8ff" points="625.12,-25.97 614.56,-26.83 623.35,-32.74 625.12,-25.97"/>
</a>
</g>
</g>
<!-- Node7 -->
<g id="Node000007" class="node">
<title>Node7</title>
<g id="a_Node000007"><a xlink:title=" ">
<polygon fill="#e0e0e0" stroke="#999999" points="785.12,-26 668.62,-26 668.62,-6 785.12,-6 785.12,-26"/>
<text text-anchor="middle" x="726.88" y="-12.5" font-family="Helvetica,sans-Serif" font-size="10.00">javax.swing.ImageIcon</text>
</a>
</g>
</g>
<!-- Node1&#45;&gt;Node7 -->
<g id="edge6_Node000001_Node000007" class="edge">
<title>Node1&#45;&gt;Node7</title>
<g id="a_edge6_Node000001_Node000007"><a xlink:title=" ">
<path fill="none" stroke="#63b8ff" d="M815.41,-67.59C795.4,-56.16 771.25,-42.36 753.23,-32.06"/>
<polygon fill="#63b8ff" stroke="#63b8ff" points="755.14,-29.12 744.72,-27.2 751.67,-35.2 755.14,-29.12"/>
</a>
</g>
</g>
<!-- Node8 -->
<g id="Node000008" class="node">
<title>Node8</title>
<g id="a_Node000008"><a xlink:title=" ">
<polygon fill="#e0e0e0" stroke="#999999" points="902.5,-26 803.25,-26 803.25,-6 902.5,-6 902.5,-26"/>
<text text-anchor="middle" x="852.88" y="-12.5" font-family="Helvetica,sans-Serif" font-size="10.00">javax.swing.JLabel</text>
</a>
</g>
</g>
<!-- Node1&#45;&gt;Node8 -->
<g id="edge7_Node000001_Node000008" class="edge">
<title>Node1&#45;&gt;Node8</title>
<g id="a_edge7_Node000001_Node000008"><a xlink:title=" ">
<path fill="none" stroke="#63b8ff" d="M852.88,-67.79C852.88,-58.32 852.88,-47.2 852.88,-37.78"/>
<polygon fill="#63b8ff" stroke="#63b8ff" points="856.38,-37.82 852.88,-27.82 849.38,-37.82 856.38,-37.82"/>
</a>
</g>
</g>
<!-- Node9 -->
<g id="Node000009" class="node">
<title>Node9</title>
<g id="a_Node000009"><a xlink:title=" ">
<polygon fill="#e0e0e0" stroke="#999999" points="1050.88,-26 920.88,-26 920.88,-6 1050.88,-6 1050.88,-26"/>
<text text-anchor="middle" x="985.88" y="-12.5" font-family="Helvetica,sans-Serif" font-size="10.00">javax.swing.JProgressBar</text>
</a>
</g>
</g>
<!-- Node1&#45;&gt;Node9 -->
<g id="edge8_Node000001_Node000009" class="edge">
<title>Node1&#45;&gt;Node9</title>
<g id="a_edge8_Node000001_Node000009"><a xlink:title=" ">
<path fill="none" stroke="#63b8ff" d="M892.42,-67.59C913.64,-56.1 939.27,-42.23 958.32,-31.92"/>
<polygon fill="#63b8ff" stroke="#63b8ff" points="959.96,-35.01 967.09,-27.17 956.63,-28.85 959.96,-35.01"/>
</a>
</g>
</g>
<!-- Node10 -->
<g id="Node000010" class="node">
<title>Node10</title>
<g id="a_Node000010"><a xlink:title=" ">
<polygon fill="#e0e0e0" stroke="#999999" points="1197.12,-26 1068.62,-26 1068.62,-6 1197.12,-6 1197.12,-26"/>
<text text-anchor="middle" x="1132.88" y="-12.5" font-family="Helvetica,sans-Serif" font-size="10.00">javax.swing.SwingWorker</text>
</a>
</g>
</g>
<!-- Node1&#45;&gt;Node10 -->
<g id="edge9_Node000001_Node000010" class="edge">
<title>Node1&#45;&gt;Node10</title>
<g id="a_edge9_Node000001_Node000010"><a xlink:title=" ">
<path fill="none" stroke="#63b8ff" d="M936.13,-67.59C984.75,-55.09 1044.37,-39.76 1085.15,-29.27"/>
<polygon fill="#63b8ff" stroke="#63b8ff" points="1085.85,-32.71 1094.67,-26.82 1084.11,-25.93 1085.85,-32.71"/>
</a>
</g>
</g>
<!-- Node11 -->
<g id="Node000011" class="node">
<title>Node11</title>
<g id="a_Node000011"><a xlink:title=" ">
<polygon fill="#e0e0e0" stroke="#999999" points="1348.38,-32 1215.38,-32 1215.38,0 1348.38,0 1348.38,-32"/>
<text text-anchor="start" x="1223.38" y="-18.5" font-family="Helvetica,sans-Serif" font-size="10.00">fr.softsf.canscan.constant.</text>
<text text-anchor="middle" x="1281.88" y="-6.5" font-family="Helvetica,sans-Serif" font-size="10.00">IntConstants</text>
</a>
</g>
</g>
<!-- Node1&#45;&gt;Node11 -->
<g id="edge10_Node000001_Node000011" class="edge">
<title>Node1&#45;&gt;Node11</title>
<g id="a_edge10_Node000001_Node000011"><a xlink:title=" ">
<path fill="none" stroke="#63b8ff" d="M938.97,-75.95C1007.88,-65.31 1107.28,-49.53 1204,-32.3"/>
<polygon fill="#63b8ff" stroke="#63b8ff" points="1204.45,-35.77 1213.68,-30.57 1203.22,-28.88 1204.45,-35.77"/>
</a>
</g>
</g>
<!-- Node12 -->
<g id="Node000012" class="node">
<title>Node12</title>
<g id="a_Node000012"><a xlink:title=" ">
<polygon fill="#e0e0e0" stroke="#999999" points="1487.75,-32 1366,-32 1366,0 1487.75,0 1487.75,-32"/>
<text text-anchor="start" x="1374" y="-18.5" font-family="Helvetica,sans-Serif" font-size="10.00">fr.softsf.canscan.model.</text>
<text text-anchor="middle" x="1426.88" y="-6.5" font-family="Helvetica,sans-Serif" font-size="10.00">WholeFields</text>
</a>
</g>
</g>
<!-- Node1&#45;&gt;Node12 -->
<g id="edge11_Node000001_Node000012" class="edge">
<title>Node1&#45;&gt;Node12</title>
<g id="a_edge11_Node000001_Node000012"><a xlink:title=" ">
<path fill="none" stroke="#63b8ff" d="M938.57,-82C1036.87,-73.37 1203.04,-56.95 1354.29,-32.51"/>
<polygon fill="#63b8ff" stroke="#63b8ff" points="1354.81,-35.97 1364.12,-30.9 1353.69,-29.06 1354.81,-35.97"/>
</a>
</g>
</g>
<!-- Node13 -->
<g id="Node000013" class="node">
<title>Node13</title>
<g id="a_Node000013"><a xlink:title=" ">
<polygon fill="#e0e0e0" stroke="#999999" points="1647.5,-32 1506.25,-32 1506.25,0 1647.5,0 1647.5,-32"/>
<text text-anchor="start" x="1514.25" y="-18.5" font-family="Helvetica,sans-Serif" font-size="10.00">fr.softsf.canscan.ui.Encoded</text>
<text text-anchor="middle" x="1576.88" y="-6.5" font-family="Helvetica,sans-Serif" font-size="10.00">Image</text>
</a>
</g>
</g>
<!-- Node1&#45;&gt;Node13 -->
<g id="edge12_Node000001_Node000013" class="edge">
<title>Node1&#45;&gt;Node13</title>
<g id="a_edge12_Node000001_Node000013"><a xlink:title=" ">
<path fill="none" stroke="#63b8ff" d="M938.85,-84.05C1060.38,-76.47 1289.51,-59.99 1494.54,-32.23"/>
<polygon fill="#63b8ff" stroke="#63b8ff" points="1494.9,-35.72 1504.33,-30.9 1493.95,-28.78 1494.9,-35.72"/>
</a>
</g>
</g>
<!-- Node14 -->
<g id="Node000014" class="node">
<title>Node14</title>
<g id="a_Node000014"><a xlink:title=" ">
<polygon fill="#e0e0e0" stroke="#999999" points="1792,-32 1665.75,-32 1665.75,0 1792,0 1792,-32"/>
<text text-anchor="start" x="1673.75" y="-18.5" font-family="Helvetica,sans-Serif" font-size="10.00">fr.softsf.canscan.ui.Label</text>
<text text-anchor="middle" x="1728.88" y="-6.5" font-family="Helvetica,sans-Serif" font-size="10.00">IconUtil</text>
</a>
</g>
</g>
<!-- Node1&#45;&gt;Node14 -->
<g id="edge13_Node000001_Node000014" class="edge">
<title>Node1&#45;&gt;Node14</title>
<g id="a_edge13_Node000001_Node000014"><a xlink:title=" ">
<path fill="none" stroke="#63b8ff" d="M938.94,-86.7C1084.48,-81.97 1388.54,-68.49 1654.32,-32.24"/>
<polygon fill="#63b8ff" stroke="#63b8ff" points="1654.43,-35.76 1663.85,-30.92 1653.47,-28.82 1654.43,-35.76"/>
</a>
</g>
</g>
</g>
</svg>
