<?xml version="1.0" encoding="UTF-8" standalone="no"?>
<!DOCTYPE svg PUBLIC "-//W3C//DTD SVG 1.1//EN"
 "http://www.w3.org/Graphics/SVG/1.1/DTD/svg11.dtd">
<!-- Generated by graphviz version 12.2.1 (20241206.2353)
 -->
<!-- Title: src/main/java/fr/softsf/canscan/ui/DynamicQrCodeResize.java Pages: 1 -->
<!--zoomable 108 -->

<svg id="main" version="1.1" xmlns="http://www.w3.org/2000/svg" xmlns:xlink="http://www.w3.org/1999/xlink" xml:space="preserve" onload="init(evt)">

<style type="text/css"><![CDATA[
.node, .edge {opacity: 0.7;}
.node.selected, .edge.selected {opacity: 1;}
.edge:hover path { stroke: red; }
.edge:hover polygon { stroke: red; fill: red; }
]]></style>

<defs>
  <circle id="rim" cx="0" cy="0" r="7"/>
  <circle id="rim2" cx="0" cy="0" r="3.5"/>
  <g id="zoomPlus">
    <use xlink:href="#rim" fill="#404040"><set attributeName="fill" to="#808080" begin="zoomplus.mouseover" end="zoomplus.mouseout"/></use>
    <path d="M-4,0h8M0,-4v8" fill="none" stroke="white" stroke-width="1.5" pointer-events="none"/>
  </g>
  <g id="zoomMin">
    <use xlink:href="#rim" fill="#404040"><set attributeName="fill" to="#808080" begin="zoomminus.mouseover" end="zoomminus.mouseout"/></use>
    <path d="M-4,0h8" fill="none" stroke="white" stroke-width="1.5" pointer-events="none"/>
  </g>
  <g id="arrowUp" transform="translate(30 24)">
    <use xlink:href="#rim"/>
    <path pointer-events="none" fill="none" stroke="white" stroke-width="1.5" d="M0,-3.0v7 M-2.5,-0.5L0,-3.0L2.5,-0.5"/>
  </g>
  <g id="arrowRight" transform="rotate(90) translate(36 -43)">
    <use xlink:href="#rim"/>
    <path pointer-events="none" fill="none" stroke="white" stroke-width="1.5" d="M0,-3.0v7 M-2.5,-0.5L0,-3.0L2.5,-0.5"/>
  </g>
  <g id="arrowDown" transform="rotate(180) translate(-30 -48)">
    <use xlink:href="#rim"/>
    <path pointer-events="none" fill="none" stroke="white" stroke-width="1.5" d="M0,-3.0v7 M-2.5,-0.5L0,-3.0L2.5,-0.5"/>
  </g>
  <g id="arrowLeft" transform="rotate(270) translate(-36 17)">
    <use xlink:href="#rim"/>
    <path pointer-events="none" fill="none" stroke="white" stroke-width="1.5" d="M0,-3.0v7 M-2.5,-0.5L0,-3.0L2.5,-0.5"/>
  </g>
  <g id="resetDef">
    <use xlink:href="#rim2" fill="#404040"><set attributeName="fill" to="#808080" begin="reset.mouseover" end="reset.mouseout"/></use>
  </g>
</defs>
<script type="application/ecmascript">
var viewWidth = 1135;
var viewHeight = 108;
var sectionId = 'dynsection-0';
</script>
<script type="application/ecmascript" xlink:href="svg.min.js"/>
<svg id="graph" class="graph">
<g id="viewport">
<title>src/main/java/fr/softsf/canscan/ui/DynamicQrCodeResize.java</title>
<!-- Node1 -->
<g id="Node000001" class="node">
<title>Node1</title>
<g id="a_Node000001"><a xlink:title=" ">
<polygon fill="#999999" stroke="#666666" points="650.62,-100 456.88,-100 456.88,-68 650.62,-68 650.62,-100"/>
<text text-anchor="start" x="464.88" y="-86.5" font-family="Helvetica,sans-Serif" font-size="10.00">src/main/java/fr/softsf</text>
<text text-anchor="middle" x="553.75" y="-74.5" font-family="Helvetica,sans-Serif" font-size="10.00">/canscan/ui/DynamicQrCodeResize.java</text>
</a>
</g>
</g>
<!-- Node2 -->
<g id="Node000002" class="node">
<title>Node2</title>
<g id="a_Node000002"><a xlink:title=" ">
<polygon fill="#e0e0e0" stroke="#999999" points="107.5,-26 0,-26 0,-6 107.5,-6 107.5,-26"/>
<text text-anchor="middle" x="53.75" y="-12.5" font-family="Helvetica,sans-Serif" font-size="10.00">java.awt.Graphics2D</text>
</a>
</g>
</g>
<!-- Node1&#45;&gt;Node2 -->
<g id="edge1_Node000001_Node000002" class="edge">
<title>Node1&#45;&gt;Node2</title>
<g id="a_edge1_Node000001_Node000002"><a xlink:title=" ">
<path fill="none" stroke="#63b8ff" d="M456.7,-75.11C367.61,-67.06 232.19,-52.78 115.75,-32 110.83,-31.12 105.73,-30.09 100.65,-28.98"/>
<polygon fill="#63b8ff" stroke="#63b8ff" points="101.66,-25.62 91.13,-26.81 100.1,-32.45 101.66,-25.62"/>
</a>
</g>
</g>
<!-- Node3 -->
<g id="Node000003" class="node">
<title>Node3</title>
<g id="a_Node000003"><a xlink:title=" ">
<polygon fill="#e0e0e0" stroke="#999999" points="248.38,-26 125.12,-26 125.12,-6 248.38,-6 248.38,-26"/>
<text text-anchor="middle" x="186.75" y="-12.5" font-family="Helvetica,sans-Serif" font-size="10.00">java.awt.RenderingHints</text>
</a>
</g>
</g>
<!-- Node1&#45;&gt;Node3 -->
<g id="edge2_Node000001_Node000003" class="edge">
<title>Node1&#45;&gt;Node3</title>
<g id="a_edge2_Node000001_Node000003"><a xlink:title=" ">
<path fill="none" stroke="#63b8ff" d="M458.61,-67.54C400.49,-57.87 324.71,-44.84 257.75,-32 252.46,-30.99 246.96,-29.89 241.46,-28.77"/>
<polygon fill="#63b8ff" stroke="#63b8ff" points="242.24,-25.36 231.74,-26.77 240.82,-32.22 242.24,-25.36"/>
</a>
</g>
</g>
<!-- Node4 -->
<g id="Node000004" class="node">
<title>Node4</title>
<g id="a_Node000004"><a xlink:title=" ">
<polygon fill="#e0e0e0" stroke="#999999" points="414.75,-26 266.75,-26 266.75,-6 414.75,-6 414.75,-26"/>
<text text-anchor="middle" x="340.75" y="-12.5" font-family="Helvetica,sans-Serif" font-size="10.00">java.awt.image.BufferedImage</text>
</a>
</g>
</g>
<!-- Node1&#45;&gt;Node4 -->
<g id="edge3_Node000001_Node000004" class="edge">
<title>Node1&#45;&gt;Node4</title>
<g id="a_edge3_Node000001_Node000004"><a xlink:title=" ">
<path fill="none" stroke="#63b8ff" d="M503.81,-67.53C466.75,-56.04 416.82,-40.57 382.01,-29.79"/>
<polygon fill="#63b8ff" stroke="#63b8ff" points="383.31,-26.52 372.73,-26.91 381.24,-33.21 383.31,-26.52"/>
</a>
</g>
</g>
<!-- Node5 -->
<g id="Node000005" class="node">
<title>Node5</title>
<g id="a_Node000005"><a xlink:title=" ">
<polygon fill="#e0e0e0" stroke="#999999" points="549,-26 432.5,-26 432.5,-6 549,-6 549,-26"/>
<text text-anchor="middle" x="490.75" y="-12.5" font-family="Helvetica,sans-Serif" font-size="10.00">javax.swing.ImageIcon</text>
</a>
</g>
</g>
<!-- Node1&#45;&gt;Node5 -->
<g id="edge4_Node000001_Node000005" class="edge">
<title>Node1&#45;&gt;Node5</title>
<g id="a_edge4_Node000001_Node000005"><a xlink:title=" ">
<path fill="none" stroke="#63b8ff" d="M539.14,-67.69C529.69,-57.8 517.37,-44.89 507.52,-34.57"/>
<polygon fill="#63b8ff" stroke="#63b8ff" points="510.12,-32.23 500.69,-27.41 505.06,-37.06 510.12,-32.23"/>
</a>
</g>
</g>
<!-- Node6 -->
<g id="Node000006" class="node">
<title>Node6</title>
<g id="a_Node000006"><a xlink:title=" ">
<polygon fill="#e0e0e0" stroke="#999999" points="666.38,-26 567.12,-26 567.12,-6 666.38,-6 666.38,-26"/>
<text text-anchor="middle" x="616.75" y="-12.5" font-family="Helvetica,sans-Serif" font-size="10.00">javax.swing.JLabel</text>
</a>
</g>
</g>
<!-- Node1&#45;&gt;Node6 -->
<g id="edge5_Node000001_Node000006" class="edge">
<title>Node1&#45;&gt;Node6</title>
<g id="a_edge5_Node000001_Node000006"><a xlink:title=" ">
<path fill="none" stroke="#63b8ff" d="M568.36,-67.69C577.81,-57.8 590.13,-44.89 599.98,-34.57"/>
<polygon fill="#63b8ff" stroke="#63b8ff" points="602.44,-37.06 606.81,-27.41 597.38,-32.23 602.44,-37.06"/>
</a>
</g>
</g>
<!-- Node7 -->
<g id="Node000007" class="node">
<title>Node7</title>
<g id="a_Node000007"><a xlink:title=" ">
<polygon fill="#e0e0e0" stroke="#999999" points="813,-26 684.5,-26 684.5,-6 813,-6 813,-26"/>
<text text-anchor="middle" x="748.75" y="-12.5" font-family="Helvetica,sans-Serif" font-size="10.00">javax.swing.SwingWorker</text>
</a>
</g>
</g>
<!-- Node1&#45;&gt;Node7 -->
<g id="edge6_Node000001_Node000007" class="edge">
<title>Node1&#45;&gt;Node7</title>
<g id="a_edge6_Node000001_Node000007"><a xlink:title=" ">
<path fill="none" stroke="#63b8ff" d="M599.47,-67.53C633.1,-56.14 678.32,-40.84 710.14,-30.07"/>
<polygon fill="#63b8ff" stroke="#63b8ff" points="711.02,-33.47 719.37,-26.95 708.77,-26.84 711.02,-33.47"/>
</a>
</g>
</g>
<!-- Node8 -->
<g id="Node000008" class="node">
<title>Node8</title>
<g id="a_Node000008"><a xlink:title=" ">
<polygon fill="#e0e0e0" stroke="#999999" points="952.62,-32 830.88,-32 830.88,0 952.62,0 952.62,-32"/>
<text text-anchor="start" x="838.88" y="-18.5" font-family="Helvetica,sans-Serif" font-size="10.00">fr.softsf.canscan.model.</text>
<text text-anchor="middle" x="891.75" y="-6.5" font-family="Helvetica,sans-Serif" font-size="10.00">QrInput</text>
</a>
</g>
</g>
<!-- Node1&#45;&gt;Node8 -->
<g id="edge7_Node000001_Node000008" class="edge">
<title>Node1&#45;&gt;Node8</title>
<g id="a_edge7_Node000001_Node000008"><a xlink:title=" ">
<path fill="none" stroke="#63b8ff" d="M637.74,-67.53C687.82,-58.19 752.94,-45.83 819.55,-32.42"/>
<polygon fill="#63b8ff" stroke="#63b8ff" points="820.09,-35.88 829.2,-30.47 818.71,-29.02 820.09,-35.88"/>
</a>
</g>
</g>
<!-- Node9 -->
<g id="Node000009" class="node">
<title>Node9</title>
<g id="a_Node000009"><a xlink:title=" ">
<polygon fill="#e0e0e0" stroke="#999999" points="1126.88,-32 970.62,-32 970.62,0 1126.88,0 1126.88,-32"/>
<text text-anchor="start" x="978.62" y="-18.5" font-family="Helvetica,sans-Serif" font-size="10.00">fr.softsf.canscan.service.</text>
<text text-anchor="middle" x="1048.75" y="-6.5" font-family="Helvetica,sans-Serif" font-size="10.00">AbstractDynamicQrCodeWorker</text>
</a>
</g>
</g>
<!-- Node1&#45;&gt;Node9 -->
<g id="edge8_Node000001_Node000009" class="edge">
<title>Node1&#45;&gt;Node9</title>
<g id="a_edge8_Node000001_Node000009"><a xlink:title=" ">
<path fill="none" stroke="#63b8ff" d="M650.78,-72.15C730.89,-62.9 847.83,-48.72 959.4,-32.31"/>
<polygon fill="#63b8ff" stroke="#63b8ff" points="959.65,-35.81 969.03,-30.89 958.62,-28.89 959.65,-35.81"/>
</a>
</g>
</g>
</g>
</svg>

<g id="navigator" transform="translate(0 0)" fill="#404254">
  <rect fill="#f2f5e9" fill-opacity="0.5" stroke="#606060" stroke-width=".5" x="0" y="0" width="60" height="60"/>
  <use id="zoomplus" xlink:href="#zoomPlus" x="17" y="9" onmousedown="handleZoom(evt,'in')"/>
  <use id="zoomminus" xlink:href="#zoomMin" x="42" y="9" onmousedown="handleZoom(evt,'out')"/>
  <use id="reset" xlink:href="#resetDef" x="30" y="36" onmousedown="handleReset()"/>
   <use id="arrowup" xlink:href="#arrowUp" x="0" y="0" onmousedown="handlePan(0,-1)"/>
  <use id="arrowright" xlink:href="#arrowRight" x="0" y="0" onmousedown="handlePan(1,0)"/>
  <use id="arrowdown" xlink:href="#arrowDown" x="0" y="0" onmousedown="handlePan(0,1)"/>
  <use id="arrowleft" xlink:href="#arrowLeft" x="0" y="0" onmousedown="handlePan(-1,0)"/>
</g>
<svg viewBox="0 0 15 15" width="100%" height="30px" preserveAspectRatio="xMaxYMin meet">
 <g id="arrow_out" transform="scale(0.3 0.3)">
  <a xlink:href="_dynamic_qr_code_resize_8java__incl_org.svg" target="_base">
   <rect id="button" ry="5" rx="5" y="6" x="6" height="38" width="38"
        fill="#f2f5e9" fill-opacity="0.5" stroke="#606060" stroke-width="1.0"/>
   <path id="arrow"
     d="M 11.500037,31.436501 C 11.940474,20.09759 22.043105,11.32322 32.158766,21.979434 L 37.068811,17.246167 C 37.068811,17.246167 37.088388,32 37.088388,32 L 22.160133,31.978069 C 22.160133,31.978069 26.997745,27.140456 26.997745,27.140456 C 18.528582,18.264221 13.291696,25.230495 11.500037,31.436501 z"
     style="fill:#404040;"/>
  </a>
 </g>
</svg>

<style type='text/css'>
<![CDATA[
[data-mouse-over-selected='false'] { opacity: 0.7; }
[data-mouse-over-selected='true']  { opacity: 1.0; }
]]>
</style>
<script type="application/ecmascript"><![CDATA[
document.addEventListener('DOMContentLoaded', (event) => {
  highlightEdges();
  highlightAdjacentNodes();
});
]]></script>
</svg>
