<?xml version="1.0" encoding="UTF-8" standalone="no"?>
<!DOCTYPE svg PUBLIC "-//W3C//DTD SVG 1.1//EN"
 "http://www.w3.org/Graphics/SVG/1.1/DTD/svg11.dtd">
<!-- Generated by graphviz version 12.2.1 (20241206.2353)
 -->
<!-- Title: src/main/java/fr/softsf/canscan/util/FontManager.java Pages: 1 -->
<svg width="2544pt" height="108pt"
 viewBox="0.00 0.00 2543.75 108.00" xmlns="http://www.w3.org/2000/svg" xmlns:xlink="http://www.w3.org/1999/xlink">
<g id="graph0" class="graph" transform="scale(1 1) rotate(0) translate(4 104)">
<title>src/main/java/fr/softsf/canscan/util/FontManager.java</title>
<!-- Node1 -->
<g id="Node000001" class="node">
<title>Node1</title>
<g id="a_Node000001"><a xlink:title=" ">
<polygon fill="#999999" stroke="#666666" points="1346.88,-100 1194.38,-100 1194.38,-68 1346.88,-68 1346.88,-100"/>
<text text-anchor="start" x="1202.38" y="-86.5" font-family="Helvetica,sans-Serif" font-size="10.00">src/main/java/fr/softsf</text>
<text text-anchor="middle" x="1270.62" y="-74.5" font-family="Helvetica,sans-Serif" font-size="10.00">/canscan/util/FontManager.java</text>
</a>
</g>
</g>
<!-- Node2 -->
<g id="Node000002" class="node">
<title>Node2</title>
<g id="a_Node000002"><a xlink:title=" ">
<polygon fill="#e0e0e0" stroke="#999999" points="75.25,-26 0,-26 0,-6 75.25,-6 75.25,-26"/>
<text text-anchor="middle" x="37.62" y="-12.5" font-family="Helvetica,sans-Serif" font-size="10.00">java.awt.Font</text>
</a>
</g>
</g>
<!-- Node1&#45;&gt;Node2 -->
<g id="edge1_Node000001_Node000002" class="edge">
<title>Node1&#45;&gt;Node2</title>
<g id="a_edge1_Node000001_Node000002"><a xlink:title=" ">
<path fill="none" stroke="#63b8ff" d="M1194.15,-82.43C966.86,-80.3 298.01,-70.81 83.62,-32 80.18,-31.38 76.64,-30.56 73.13,-29.63"/>
<polygon fill="#63b8ff" stroke="#63b8ff" points="74.17,-26.29 63.59,-26.79 72.17,-32.99 74.17,-26.29"/>
</a>
</g>
</g>
<!-- Node3 -->
<g id="Node000003" class="node">
<title>Node3</title>
<g id="a_Node000003"><a xlink:title=" ">
<polygon fill="#e0e0e0" stroke="#999999" points="242.38,-26 92.88,-26 92.88,-6 242.38,-6 242.38,-26"/>
<text text-anchor="middle" x="167.62" y="-12.5" font-family="Helvetica,sans-Serif" font-size="10.00">java.awt.FontFormatException</text>
</a>
</g>
</g>
<!-- Node1&#45;&gt;Node3 -->
<g id="edge2_Node000001_Node000003" class="edge">
<title>Node1&#45;&gt;Node3</title>
<g id="a_edge2_Node000001_Node000003"><a xlink:title=" ">
<path fill="none" stroke="#63b8ff" d="M1193.98,-82.47C1023.86,-80.58 602.07,-71.9 251.62,-32 243.23,-31.04 234.41,-29.77 225.77,-28.37"/>
<polygon fill="#63b8ff" stroke="#63b8ff" points="226.5,-24.94 216.06,-26.72 225.33,-31.84 226.5,-24.94"/>
</a>
</g>
</g>
<!-- Node4 -->
<g id="Node000004" class="node">
<title>Node4</title>
<g id="a_Node000004"><a xlink:title=" ">
<polygon fill="#e0e0e0" stroke="#999999" points="368.38,-26 260.88,-26 260.88,-6 368.38,-6 368.38,-26"/>
<text text-anchor="middle" x="314.62" y="-12.5" font-family="Helvetica,sans-Serif" font-size="10.00">java.awt.FontMetrics</text>
</a>
</g>
</g>
<!-- Node1&#45;&gt;Node4 -->
<g id="edge3_Node000001_Node000004" class="edge">
<title>Node1&#45;&gt;Node4</title>
<g id="a_edge3_Node000001_Node000004"><a xlink:title=" ">
<path fill="none" stroke="#63b8ff" d="M1194.01,-83.17C1039.01,-82.51 677.43,-75.9 377.62,-32 372,-31.18 366.14,-30.09 360.35,-28.88"/>
<polygon fill="#63b8ff" stroke="#63b8ff" points="361.4,-25.53 350.88,-26.77 359.88,-32.36 361.4,-25.53"/>
</a>
</g>
</g>
<!-- Node5 -->
<g id="Node000005" class="node">
<title>Node5</title>
<g id="a_Node000005"><a xlink:title=" ">
<polygon fill="#e0e0e0" stroke="#999999" points="494.38,-26 386.88,-26 386.88,-6 494.38,-6 494.38,-26"/>
<text text-anchor="middle" x="440.62" y="-12.5" font-family="Helvetica,sans-Serif" font-size="10.00">java.awt.Graphics2D</text>
</a>
</g>
</g>
<!-- Node1&#45;&gt;Node5 -->
<g id="edge4_Node000001_Node000005" class="edge">
<title>Node1&#45;&gt;Node5</title>
<g id="a_edge4_Node000001_Node000005"><a xlink:title=" ">
<path fill="none" stroke="#63b8ff" d="M1193.96,-82.14C1055.39,-79.64 754.34,-69.91 503.62,-32 498.07,-31.16 492.28,-30.08 486.57,-28.88"/>
<polygon fill="#63b8ff" stroke="#63b8ff" points="487.74,-25.55 477.22,-26.79 486.21,-32.38 487.74,-25.55"/>
</a>
</g>
</g>
<!-- Node6 -->
<g id="Node000006" class="node">
<title>Node6</title>
<g id="a_Node000006"><a xlink:title=" ">
<polygon fill="#e0e0e0" stroke="#999999" points="662.38,-26 512.88,-26 512.88,-6 662.38,-6 662.38,-26"/>
<text text-anchor="middle" x="587.62" y="-12.5" font-family="Helvetica,sans-Serif" font-size="10.00">java.awt.GraphicsEnvironment</text>
</a>
</g>
</g>
<!-- Node1&#45;&gt;Node6 -->
<g id="edge5_Node000001_Node000006" class="edge">
<title>Node1&#45;&gt;Node6</title>
<g id="a_edge5_Node000001_Node000006"><a xlink:title=" ">
<path fill="none" stroke="#63b8ff" d="M1194.27,-78.75C1080.19,-71.89 858.66,-56.61 671.62,-32 663.84,-30.98 655.67,-29.73 647.62,-28.4"/>
<polygon fill="#63b8ff" stroke="#63b8ff" points="648.3,-24.97 637.86,-26.74 647.13,-31.87 648.3,-24.97"/>
</a>
</g>
</g>
<!-- Node7 -->
<g id="Node000007" class="node">
<title>Node7</title>
<g id="a_Node000007"><a xlink:title=" ">
<polygon fill="#e0e0e0" stroke="#999999" points="806.38,-26 680.88,-26 680.88,-6 806.38,-6 806.38,-26"/>
<text text-anchor="middle" x="743.62" y="-12.5" font-family="Helvetica,sans-Serif" font-size="10.00">java.awt.font.LineMetrics</text>
</a>
</g>
</g>
<!-- Node1&#45;&gt;Node7 -->
<g id="edge6_Node000001_Node000007" class="edge">
<title>Node1&#45;&gt;Node7</title>
<g id="a_edge6_Node000001_Node000007"><a xlink:title=" ">
<path fill="none" stroke="#63b8ff" d="M1194.25,-76.64C1103.62,-68.59 948.08,-53.17 815.62,-32 809.56,-31.03 803.23,-29.89 796.95,-28.69"/>
<polygon fill="#63b8ff" stroke="#63b8ff" points="797.74,-25.28 787.25,-26.76 796.37,-32.15 797.74,-25.28"/>
</a>
</g>
</g>
<!-- Node8 -->
<g id="Node000008" class="node">
<title>Node8</title>
<g id="a_Node000008"><a xlink:title=" ">
<polygon fill="#e0e0e0" stroke="#999999" points="976.5,-26 824.75,-26 824.75,-6 976.5,-6 976.5,-26"/>
<text text-anchor="middle" x="900.62" y="-12.5" font-family="Helvetica,sans-Serif" font-size="10.00">java.awt.geom.AffineTransform</text>
</a>
</g>
</g>
<!-- Node1&#45;&gt;Node8 -->
<g id="edge7_Node000001_Node000008" class="edge">
<title>Node1&#45;&gt;Node8</title>
<g id="a_edge7_Node000001_Node000008"><a xlink:title=" ">
<path fill="none" stroke="#63b8ff" d="M1193.96,-69.32C1126.17,-57.23 1028.41,-39.79 964.7,-28.43"/>
<polygon fill="#63b8ff" stroke="#63b8ff" points="965.56,-25.03 955.1,-26.72 964.33,-31.92 965.56,-25.03"/>
</a>
</g>
</g>
<!-- Node9 -->
<g id="Node000009" class="node">
<title>Node9</title>
<g id="a_Node000009"><a xlink:title=" ">
<polygon fill="#e0e0e0" stroke="#999999" points="1142.62,-26 994.62,-26 994.62,-6 1142.62,-6 1142.62,-26"/>
<text text-anchor="middle" x="1068.62" y="-12.5" font-family="Helvetica,sans-Serif" font-size="10.00">java.awt.image.BufferedImage</text>
</a>
</g>
</g>
<!-- Node1&#45;&gt;Node9 -->
<g id="edge8_Node000001_Node000009" class="edge">
<title>Node1&#45;&gt;Node9</title>
<g id="a_edge8_Node000001_Node000009"><a xlink:title=" ">
<path fill="none" stroke="#63b8ff" d="M1223.26,-67.53C1188.27,-56.09 1141.18,-40.71 1108.19,-29.93"/>
<polygon fill="#63b8ff" stroke="#63b8ff" points="1109.61,-26.71 1099.02,-26.93 1107.44,-33.36 1109.61,-26.71"/>
</a>
</g>
</g>
<!-- Node10 -->
<g id="Node000010" class="node">
<title>Node10</title>
<g id="a_Node000010"><a xlink:title=" ">
<polygon fill="#e0e0e0" stroke="#999999" points="1262.38,-26 1160.88,-26 1160.88,-6 1262.38,-6 1262.38,-26"/>
<text text-anchor="middle" x="1211.62" y="-12.5" font-family="Helvetica,sans-Serif" font-size="10.00">java.io.IOException</text>
</a>
</g>
</g>
<!-- Node1&#45;&gt;Node10 -->
<g id="edge9_Node000001_Node000010" class="edge">
<title>Node1&#45;&gt;Node10</title>
<g id="a_edge9_Node000001_Node000010"><a xlink:title=" ">
<path fill="none" stroke="#63b8ff" d="M1256.94,-67.69C1248.18,-57.9 1236.79,-45.15 1227.61,-34.89"/>
<polygon fill="#63b8ff" stroke="#63b8ff" points="1230.24,-32.57 1220.96,-27.44 1225.02,-37.23 1230.24,-32.57"/>
</a>
</g>
</g>
<!-- Node11 -->
<g id="Node000011" class="node">
<title>Node11</title>
<g id="a_Node000011"><a xlink:title=" ">
<polygon fill="#e0e0e0" stroke="#999999" points="1381,-26 1280.25,-26 1280.25,-6 1381,-6 1381,-26"/>
<text text-anchor="middle" x="1330.62" y="-12.5" font-family="Helvetica,sans-Serif" font-size="10.00">java.io.InputStream</text>
</a>
</g>
</g>
<!-- Node1&#45;&gt;Node11 -->
<g id="edge10_Node000001_Node000011" class="edge">
<title>Node1&#45;&gt;Node11</title>
<g id="a_edge10_Node000001_Node000011"><a xlink:title=" ">
<path fill="none" stroke="#63b8ff" d="M1284.54,-67.69C1293.54,-57.8 1305.27,-44.89 1314.65,-34.57"/>
<polygon fill="#63b8ff" stroke="#63b8ff" points="1317,-37.19 1321.14,-27.44 1311.82,-32.48 1317,-37.19"/>
</a>
</g>
</g>
<!-- Node12 -->
<g id="Node000012" class="node">
<title>Node12</title>
<g id="a_Node000012"><a xlink:title=" ">
<polygon fill="#e0e0e0" stroke="#999999" points="1498.25,-26 1399,-26 1399,-6 1498.25,-6 1498.25,-26"/>
<text text-anchor="middle" x="1448.62" y="-12.5" font-family="Helvetica,sans-Serif" font-size="10.00">javax.swing.JLabel</text>
</a>
</g>
</g>
<!-- Node1&#45;&gt;Node12 -->
<g id="edge11_Node000001_Node000012" class="edge">
<title>Node1&#45;&gt;Node12</title>
<g id="a_edge11_Node000001_Node000012"><a xlink:title=" ">
<path fill="none" stroke="#63b8ff" d="M1312.36,-67.53C1342.79,-56.24 1383.61,-41.11 1412.62,-30.35"/>
<polygon fill="#63b8ff" stroke="#63b8ff" points="1413.53,-33.74 1421.69,-26.99 1411.1,-27.18 1413.53,-33.74"/>
</a>
</g>
</g>
<!-- Node13 -->
<g id="Node000013" class="node">
<title>Node13</title>
<g id="a_Node000013"><a xlink:title=" ">
<polygon fill="#e0e0e0" stroke="#999999" points="1647,-26 1516.25,-26 1516.25,-6 1647,-6 1647,-26"/>
<text text-anchor="middle" x="1581.62" y="-12.5" font-family="Helvetica,sans-Serif" font-size="10.00">javax.swing.SwingUtilities</text>
</a>
</g>
</g>
<!-- Node1&#45;&gt;Node13 -->
<g id="edge12_Node000001_Node000013" class="edge">
<title>Node1&#45;&gt;Node13</title>
<g id="a_edge12_Node000001_Node000013"><a xlink:title=" ">
<path fill="none" stroke="#63b8ff" d="M1343.54,-67.53C1399.29,-55.7 1474.99,-39.63 1525.93,-28.82"/>
<polygon fill="#63b8ff" stroke="#63b8ff" points="1526.51,-32.27 1535.57,-26.77 1525.06,-25.43 1526.51,-32.27"/>
</a>
</g>
</g>
<!-- Node14 -->
<g id="Node000014" class="node">
<title>Node14</title>
<g id="a_Node000014"><a xlink:title=" ">
<polygon fill="#e0e0e0" stroke="#999999" points="1784,-26 1665.25,-26 1665.25,-6 1784,-6 1784,-26"/>
<text text-anchor="middle" x="1724.62" y="-12.5" font-family="Helvetica,sans-Serif" font-size="10.00">javax.swing.UIManager</text>
</a>
</g>
</g>
<!-- Node1&#45;&gt;Node14 -->
<g id="edge13_Node000001_Node000014" class="edge">
<title>Node1&#45;&gt;Node14</title>
<g id="a_edge13_Node000001_Node000014"><a xlink:title=" ">
<path fill="none" stroke="#63b8ff" d="M1347.24,-74.73C1425.14,-65.89 1549.19,-50.59 1655.62,-32 1661.22,-31.02 1667.05,-29.91 1672.84,-28.74"/>
<polygon fill="#63b8ff" stroke="#63b8ff" points="1673.31,-32.22 1682.39,-26.75 1671.89,-25.36 1673.31,-32.22"/>
</a>
</g>
</g>
<!-- Node15 -->
<g id="Node000015" class="node">
<title>Node15</title>
<g id="a_Node000015"><a xlink:title=" ">
<polygon fill="#e0e0e0" stroke="#999999" points="1934.75,-26 1802.5,-26 1802.5,-6 1934.75,-6 1934.75,-26"/>
<text text-anchor="middle" x="1868.62" y="-12.5" font-family="Helvetica,sans-Serif" font-size="10.00">com.formdev.flatlaf.FlatLaf</text>
</a>
</g>
</g>
<!-- Node1&#45;&gt;Node15 -->
<g id="edge14_Node000001_Node000015" class="edge">
<title>Node1&#45;&gt;Node15</title>
<g id="a_edge14_Node000001_Node000015"><a xlink:title=" ">
<path fill="none" stroke="#63b8ff" d="M1346.98,-77.88C1448.93,-70.52 1634.97,-55.2 1792.62,-32 1799.35,-31.01 1806.39,-29.82 1813.35,-28.56"/>
<polygon fill="#63b8ff" stroke="#63b8ff" points="1813.88,-32.02 1823.06,-26.74 1812.58,-25.15 1813.88,-32.02"/>
</a>
</g>
</g>
<!-- Node16 -->
<g id="Node000016" class="node">
<title>Node16</title>
<g id="a_Node000016"><a xlink:title=" ">
<polygon fill="#e0e0e0" stroke="#999999" points="2070.62,-32 1952.62,-32 1952.62,0 2070.62,0 2070.62,-32"/>
<text text-anchor="start" x="1960.62" y="-18.5" font-family="Helvetica,sans-Serif" font-size="10.00">com.formdev.flatlaf.util.</text>
<text text-anchor="middle" x="2011.62" y="-6.5" font-family="Helvetica,sans-Serif" font-size="10.00">FontUtils</text>
</a>
</g>
</g>
<!-- Node1&#45;&gt;Node16 -->
<g id="edge15_Node000001_Node000016" class="edge">
<title>Node1&#45;&gt;Node16</title>
<g id="a_edge15_Node000001_Node000016"><a xlink:title=" ">
<path fill="none" stroke="#63b8ff" d="M1347.22,-80.72C1470.43,-76.28 1720.4,-64.07 1941.22,-32.22"/>
<polygon fill="#63b8ff" stroke="#63b8ff" points="1941.49,-35.71 1950.88,-30.81 1940.48,-28.79 1941.49,-35.71"/>
</a>
</g>
</g>
<!-- Node17 -->
<g id="Node000017" class="node">
<title>Node17</title>
<g id="a_Node000017"><a xlink:title=" ">
<polygon fill="#e0e0e0" stroke="#999999" points="2222.12,-26 2089.12,-26 2089.12,-6 2222.12,-6 2222.12,-26"/>
<text text-anchor="middle" x="2155.62" y="-12.5" font-family="Helvetica,sans-Serif" font-size="10.00">fr.softsf.canscan.CanScan</text>
</a>
</g>
</g>
<!-- Node1&#45;&gt;Node17 -->
<g id="edge16_Node000001_Node000017" class="edge">
<title>Node1&#45;&gt;Node17</title>
<g id="a_edge16_Node000001_Node000017"><a xlink:title=" ">
<path fill="none" stroke="#63b8ff" d="M1347.35,-81.53C1491.42,-78.03 1812.01,-66.69 2079.62,-32 2086.8,-31.07 2094.31,-29.87 2101.71,-28.55"/>
<polygon fill="#63b8ff" stroke="#63b8ff" points="2102.11,-32.04 2111.29,-26.76 2100.82,-25.16 2102.11,-32.04"/>
</a>
</g>
</g>
<!-- Node18 -->
<g id="Node000018" class="node">
<title>Node18</title>
<g id="a_Node000018"><a xlink:title=" ">
<polygon fill="#e0e0e0" stroke="#999999" points="2373.12,-32 2240.12,-32 2240.12,0 2373.12,0 2373.12,-32"/>
<text text-anchor="start" x="2248.12" y="-18.5" font-family="Helvetica,sans-Serif" font-size="10.00">fr.softsf.canscan.constant.</text>
<text text-anchor="middle" x="2306.62" y="-6.5" font-family="Helvetica,sans-Serif" font-size="10.00">StringConstants</text>
</a>
</g>
</g>
<!-- Node1&#45;&gt;Node18 -->
<g id="edge17_Node000001_Node000018" class="edge">
<title>Node1&#45;&gt;Node18</title>
<g id="a_edge17_Node000001_Node000018"><a xlink:title=" ">
<path fill="none" stroke="#63b8ff" d="M1347.26,-82.68C1508.69,-81.19 1895.62,-73.36 2228.33,-32.31"/>
<polygon fill="#63b8ff" stroke="#63b8ff" points="2228.65,-35.79 2238.14,-31.08 2227.79,-28.85 2228.65,-35.79"/>
</a>
</g>
</g>
<!-- Node19 -->
<g id="Node000019" class="node">
<title>Node19</title>
<g id="a_Node000019"><a xlink:title=" ">
<polygon fill="#e0e0e0" stroke="#999999" points="2535.75,-26 2391.5,-26 2391.5,-6 2535.75,-6 2535.75,-26"/>
<text text-anchor="middle" x="2463.62" y="-12.5" font-family="Helvetica,sans-Serif" font-size="10.00">fr.softsf.canscan.ui.MyPopup</text>
</a>
</g>
</g>
<!-- Node1&#45;&gt;Node19 -->
<g id="edge18_Node000001_Node000019" class="edge">
<title>Node1&#45;&gt;Node19</title>
<g id="a_edge18_Node000001_Node000019"><a xlink:title=" ">
<path fill="none" stroke="#63b8ff" d="M1347.09,-83.1C1527.82,-82.55 1995.28,-76.53 2382.62,-32 2390.73,-31.07 2399.25,-29.81 2407.59,-28.41"/>
<polygon fill="#63b8ff" stroke="#63b8ff" points="2408.07,-31.88 2417.31,-26.7 2406.86,-24.98 2408.07,-31.88"/>
</a>
</g>
</g>
</g>
</svg>
