<?xml version="1.0" encoding="UTF-8" standalone="no"?>
<!DOCTYPE svg PUBLIC "-//W3C//DTD SVG 1.1//EN"
 "http://www.w3.org/Graphics/SVG/1.1/DTD/svg11.dtd">
<!-- Generated by graphviz version 12.2.1 (20241206.2353)
 -->
<!-- Title: src/main/java/fr/softsf/canscan/util/FontManager.java Pages: 1 -->
<svg width="2108pt" height="108pt"
 viewBox="0.00 0.00 2107.75 108.00" xmlns="http://www.w3.org/2000/svg" xmlns:xlink="http://www.w3.org/1999/xlink">
<g id="graph0" class="graph" transform="scale(1 1) rotate(0) translate(4 104)">
<title>src/main/java/fr/softsf/canscan/util/FontManager.java</title>
<!-- Node1 -->
<g id="Node000001" class="node">
<title>Node1</title>
<g id="a_Node000001"><a xlink:title=" ">
<polygon fill="#999999" stroke="#666666" points="1088.88,-100 936.38,-100 936.38,-68 1088.88,-68 1088.88,-100"/>
<text text-anchor="start" x="944.38" y="-86.5" font-family="Helvetica,sans-Serif" font-size="10.00">src/main/java/fr/softsf</text>
<text text-anchor="middle" x="1012.62" y="-74.5" font-family="Helvetica,sans-Serif" font-size="10.00">/canscan/util/FontManager.java</text>
</a>
</g>
</g>
<!-- Node2 -->
<g id="Node000002" class="node">
<title>Node2</title>
<g id="a_Node000002"><a xlink:title=" ">
<polygon fill="#e0e0e0" stroke="#999999" points="75.25,-26 0,-26 0,-6 75.25,-6 75.25,-26"/>
<text text-anchor="middle" x="37.62" y="-12.5" font-family="Helvetica,sans-Serif" font-size="10.00">java.awt.Font</text>
</a>
</g>
</g>
<!-- Node1&#45;&gt;Node2 -->
<g id="edge1_Node000001_Node000002" class="edge">
<title>Node1&#45;&gt;Node2</title>
<g id="a_edge1_Node000001_Node000002"><a xlink:title=" ">
<path fill="none" stroke="#63b8ff" d="M936.08,-81.36C744.19,-76.84 246.36,-62.46 83.62,-32 80.27,-31.37 76.81,-30.56 73.38,-29.65"/>
<polygon fill="#63b8ff" stroke="#63b8ff" points="74.66,-26.38 64.08,-26.89 72.67,-33.09 74.66,-26.38"/>
</a>
</g>
</g>
<!-- Node3 -->
<g id="Node000003" class="node">
<title>Node3</title>
<g id="a_Node000003"><a xlink:title=" ">
<polygon fill="#e0e0e0" stroke="#999999" points="242.38,-26 92.88,-26 92.88,-6 242.38,-6 242.38,-26"/>
<text text-anchor="middle" x="167.62" y="-12.5" font-family="Helvetica,sans-Serif" font-size="10.00">java.awt.FontFormatException</text>
</a>
</g>
</g>
<!-- Node1&#45;&gt;Node3 -->
<g id="edge2_Node000001_Node000003" class="edge">
<title>Node1&#45;&gt;Node3</title>
<g id="a_edge2_Node000001_Node000003"><a xlink:title=" ">
<path fill="none" stroke="#63b8ff" d="M935.94,-80.65C798.4,-75.8 500.86,-62.51 251.62,-32 243.54,-31.01 235.05,-29.75 226.7,-28.39"/>
<polygon fill="#63b8ff" stroke="#63b8ff" points="227.4,-24.96 216.95,-26.73 226.23,-31.86 227.4,-24.96"/>
</a>
</g>
</g>
<!-- Node4 -->
<g id="Node000004" class="node">
<title>Node4</title>
<g id="a_Node000004"><a xlink:title=" ">
<polygon fill="#e0e0e0" stroke="#999999" points="368.38,-26 260.88,-26 260.88,-6 368.38,-6 368.38,-26"/>
<text text-anchor="middle" x="314.62" y="-12.5" font-family="Helvetica,sans-Serif" font-size="10.00">java.awt.FontMetrics</text>
</a>
</g>
</g>
<!-- Node1&#45;&gt;Node4 -->
<g id="edge3_Node000001_Node000004" class="edge">
<title>Node1&#45;&gt;Node4</title>
<g id="a_edge3_Node000001_Node000004"><a xlink:title=" ">
<path fill="none" stroke="#63b8ff" d="M935.94,-80.64C816.12,-76.1 577.53,-63.63 377.62,-32 372.28,-31.15 366.73,-30.1 361.22,-28.94"/>
<polygon fill="#63b8ff" stroke="#63b8ff" points="362.08,-25.54 351.56,-26.78 360.56,-32.38 362.08,-25.54"/>
</a>
</g>
</g>
<!-- Node5 -->
<g id="Node000005" class="node">
<title>Node5</title>
<g id="a_Node000005"><a xlink:title=" ">
<polygon fill="#e0e0e0" stroke="#999999" points="536.38,-26 386.88,-26 386.88,-6 536.38,-6 536.38,-26"/>
<text text-anchor="middle" x="461.62" y="-12.5" font-family="Helvetica,sans-Serif" font-size="10.00">java.awt.GraphicsEnvironment</text>
</a>
</g>
</g>
<!-- Node1&#45;&gt;Node5 -->
<g id="edge4_Node000001_Node000005" class="edge">
<title>Node1&#45;&gt;Node5</title>
<g id="a_edge4_Node000001_Node000005"><a xlink:title=" ">
<path fill="none" stroke="#63b8ff" d="M935.98,-76.24C843.3,-67.69 682.66,-51.7 545.62,-32 538.14,-30.92 530.3,-29.68 522.54,-28.38"/>
<polygon fill="#63b8ff" stroke="#63b8ff" points="523.22,-24.95 512.77,-26.7 522.04,-31.84 523.22,-24.95"/>
</a>
</g>
</g>
<!-- Node6 -->
<g id="Node000006" class="node">
<title>Node6</title>
<g id="a_Node000006"><a xlink:title=" ">
<polygon fill="#e0e0e0" stroke="#999999" points="706.5,-26 554.75,-26 554.75,-6 706.5,-6 706.5,-26"/>
<text text-anchor="middle" x="630.62" y="-12.5" font-family="Helvetica,sans-Serif" font-size="10.00">java.awt.geom.AffineTransform</text>
</a>
</g>
</g>
<!-- Node1&#45;&gt;Node6 -->
<g id="edge5_Node000001_Node000006" class="edge">
<title>Node1&#45;&gt;Node6</title>
<g id="a_edge5_Node000001_Node000006"><a xlink:title=" ">
<path fill="none" stroke="#63b8ff" d="M936,-69.94C876.01,-59.7 790.49,-45.03 715.62,-32 708.94,-30.84 701.96,-29.61 695,-28.39"/>
<polygon fill="#63b8ff" stroke="#63b8ff" points="696.07,-25.03 685.61,-26.74 694.86,-31.92 696.07,-25.03"/>
</a>
</g>
</g>
<!-- Node7 -->
<g id="Node000007" class="node">
<title>Node7</title>
<g id="a_Node000007"><a xlink:title=" ">
<polygon fill="#e0e0e0" stroke="#999999" points="826.38,-26 724.88,-26 724.88,-6 826.38,-6 826.38,-26"/>
<text text-anchor="middle" x="775.62" y="-12.5" font-family="Helvetica,sans-Serif" font-size="10.00">java.io.IOException</text>
</a>
</g>
</g>
<!-- Node1&#45;&gt;Node7 -->
<g id="edge6_Node000001_Node000007" class="edge">
<title>Node1&#45;&gt;Node7</title>
<g id="a_edge6_Node000001_Node000007"><a xlink:title=" ">
<path fill="none" stroke="#63b8ff" d="M957.06,-67.53C915.47,-55.94 859.31,-40.3 820.54,-29.51"/>
<polygon fill="#63b8ff" stroke="#63b8ff" points="821.63,-26.18 811.05,-26.87 819.75,-32.92 821.63,-26.18"/>
</a>
</g>
</g>
<!-- Node8 -->
<g id="Node000008" class="node">
<title>Node8</title>
<g id="a_Node000008"><a xlink:title=" ">
<polygon fill="#e0e0e0" stroke="#999999" points="945,-26 844.25,-26 844.25,-6 945,-6 945,-26"/>
<text text-anchor="middle" x="894.62" y="-12.5" font-family="Helvetica,sans-Serif" font-size="10.00">java.io.InputStream</text>
</a>
</g>
</g>
<!-- Node1&#45;&gt;Node8 -->
<g id="edge7_Node000001_Node000008" class="edge">
<title>Node1&#45;&gt;Node8</title>
<g id="a_edge7_Node000001_Node000008"><a xlink:title=" ">
<path fill="none" stroke="#63b8ff" d="M984.96,-67.53C965.76,-56.79 940.33,-42.56 921.34,-31.94"/>
<polygon fill="#63b8ff" stroke="#63b8ff" points="923.3,-29.03 912.86,-27.2 919.88,-35.14 923.3,-29.03"/>
</a>
</g>
</g>
<!-- Node9 -->
<g id="Node000009" class="node">
<title>Node9</title>
<g id="a_Node000009"><a xlink:title=" ">
<polygon fill="#e0e0e0" stroke="#999999" points="1062.25,-26 963,-26 963,-6 1062.25,-6 1062.25,-26"/>
<text text-anchor="middle" x="1012.62" y="-12.5" font-family="Helvetica,sans-Serif" font-size="10.00">javax.swing.JLabel</text>
</a>
</g>
</g>
<!-- Node1&#45;&gt;Node9 -->
<g id="edge8_Node000001_Node000009" class="edge">
<title>Node1&#45;&gt;Node9</title>
<g id="a_edge8_Node000001_Node000009"><a xlink:title=" ">
<path fill="none" stroke="#63b8ff" d="M1012.62,-67.69C1012.62,-58.8 1012.62,-47.46 1012.62,-37.77"/>
<polygon fill="#63b8ff" stroke="#63b8ff" points="1016.13,-37.83 1012.63,-27.83 1009.13,-37.83 1016.13,-37.83"/>
</a>
</g>
</g>
<!-- Node10 -->
<g id="Node000010" class="node">
<title>Node10</title>
<g id="a_Node000010"><a xlink:title=" ">
<polygon fill="#e0e0e0" stroke="#999999" points="1211,-26 1080.25,-26 1080.25,-6 1211,-6 1211,-26"/>
<text text-anchor="middle" x="1145.62" y="-12.5" font-family="Helvetica,sans-Serif" font-size="10.00">javax.swing.SwingUtilities</text>
</a>
</g>
</g>
<!-- Node1&#45;&gt;Node10 -->
<g id="edge9_Node000001_Node000010" class="edge">
<title>Node1&#45;&gt;Node10</title>
<g id="a_edge9_Node000001_Node000010"><a xlink:title=" ">
<path fill="none" stroke="#63b8ff" d="M1043.81,-67.53C1065.75,-56.64 1094.91,-42.17 1116.4,-31.5"/>
<polygon fill="#63b8ff" stroke="#63b8ff" points="1117.8,-34.71 1125.21,-27.13 1114.69,-28.44 1117.8,-34.71"/>
</a>
</g>
</g>
<!-- Node11 -->
<g id="Node000011" class="node">
<title>Node11</title>
<g id="a_Node000011"><a xlink:title=" ">
<polygon fill="#e0e0e0" stroke="#999999" points="1348,-26 1229.25,-26 1229.25,-6 1348,-6 1348,-26"/>
<text text-anchor="middle" x="1288.62" y="-12.5" font-family="Helvetica,sans-Serif" font-size="10.00">javax.swing.UIManager</text>
</a>
</g>
</g>
<!-- Node1&#45;&gt;Node11 -->
<g id="edge10_Node000001_Node000011" class="edge">
<title>Node1&#45;&gt;Node11</title>
<g id="a_edge10_Node000001_Node000011"><a xlink:title=" ">
<path fill="none" stroke="#63b8ff" d="M1077.33,-67.53C1126.39,-55.79 1192.86,-39.9 1238.06,-29.09"/>
<polygon fill="#63b8ff" stroke="#63b8ff" points="1238.68,-32.54 1247.59,-26.81 1237.05,-25.73 1238.68,-32.54"/>
</a>
</g>
</g>
<!-- Node12 -->
<g id="Node000012" class="node">
<title>Node12</title>
<g id="a_Node000012"><a xlink:title=" ">
<polygon fill="#e0e0e0" stroke="#999999" points="1498.75,-26 1366.5,-26 1366.5,-6 1498.75,-6 1498.75,-26"/>
<text text-anchor="middle" x="1432.62" y="-12.5" font-family="Helvetica,sans-Serif" font-size="10.00">com.formdev.flatlaf.FlatLaf</text>
</a>
</g>
</g>
<!-- Node1&#45;&gt;Node12 -->
<g id="edge11_Node000001_Node000012" class="edge">
<title>Node1&#45;&gt;Node12</title>
<g id="a_edge11_Node000001_Node000012"><a xlink:title=" ">
<path fill="none" stroke="#63b8ff" d="M1089.3,-72.7C1159.13,-63.07 1265,-47.82 1356.62,-32 1362.67,-30.96 1368.98,-29.81 1375.26,-28.62"/>
<polygon fill="#63b8ff" stroke="#63b8ff" points="1375.82,-32.08 1384.98,-26.76 1374.5,-25.21 1375.82,-32.08"/>
</a>
</g>
</g>
<!-- Node13 -->
<g id="Node000013" class="node">
<title>Node13</title>
<g id="a_Node000013"><a xlink:title=" ">
<polygon fill="#e0e0e0" stroke="#999999" points="1634.62,-32 1516.62,-32 1516.62,0 1634.62,0 1634.62,-32"/>
<text text-anchor="start" x="1524.62" y="-18.5" font-family="Helvetica,sans-Serif" font-size="10.00">com.formdev.flatlaf.util.</text>
<text text-anchor="middle" x="1575.62" y="-6.5" font-family="Helvetica,sans-Serif" font-size="10.00">FontUtils</text>
</a>
</g>
</g>
<!-- Node1&#45;&gt;Node13 -->
<g id="edge12_Node000001_Node000013" class="edge">
<title>Node1&#45;&gt;Node13</title>
<g id="a_edge12_Node000001_Node000013"><a xlink:title=" ">
<path fill="none" stroke="#63b8ff" d="M1089.3,-77.83C1184.61,-70.8 1352.4,-56.42 1505.38,-32.25"/>
<polygon fill="#63b8ff" stroke="#63b8ff" points="1505.55,-35.77 1514.87,-30.73 1504.44,-28.85 1505.55,-35.77"/>
</a>
</g>
</g>
<!-- Node14 -->
<g id="Node000014" class="node">
<title>Node14</title>
<g id="a_Node000014"><a xlink:title=" ">
<polygon fill="#e0e0e0" stroke="#999999" points="1786.12,-26 1653.12,-26 1653.12,-6 1786.12,-6 1786.12,-26"/>
<text text-anchor="middle" x="1719.62" y="-12.5" font-family="Helvetica,sans-Serif" font-size="10.00">fr.softsf.canscan.CanScan</text>
</a>
</g>
</g>
<!-- Node1&#45;&gt;Node14 -->
<g id="edge13_Node000001_Node000014" class="edge">
<title>Node1&#45;&gt;Node14</title>
<g id="a_edge13_Node000001_Node000014"><a xlink:title=" ">
<path fill="none" stroke="#63b8ff" d="M1089.18,-79.64C1208.21,-73.77 1444.67,-59.58 1643.62,-32 1650.62,-31.03 1657.94,-29.83 1665.16,-28.53"/>
<polygon fill="#63b8ff" stroke="#63b8ff" points="1665.69,-31.99 1674.88,-26.71 1664.4,-25.11 1665.69,-31.99"/>
</a>
</g>
</g>
<!-- Node15 -->
<g id="Node000015" class="node">
<title>Node15</title>
<g id="a_Node000015"><a xlink:title=" ">
<polygon fill="#e0e0e0" stroke="#999999" points="1937.12,-32 1804.12,-32 1804.12,0 1937.12,0 1937.12,-32"/>
<text text-anchor="start" x="1812.12" y="-18.5" font-family="Helvetica,sans-Serif" font-size="10.00">fr.softsf.canscan.constant.</text>
<text text-anchor="middle" x="1870.62" y="-6.5" font-family="Helvetica,sans-Serif" font-size="10.00">StringConstants</text>
</a>
</g>
</g>
<!-- Node1&#45;&gt;Node15 -->
<g id="edge14_Node000001_Node000015" class="edge">
<title>Node1&#45;&gt;Node15</title>
<g id="a_edge14_Node000001_Node000015"><a xlink:title=" ">
<path fill="none" stroke="#63b8ff" d="M1089.37,-81.37C1227.99,-77.68 1529.48,-66.31 1792.34,-32.33"/>
<polygon fill="#63b8ff" stroke="#63b8ff" points="1792.68,-35.82 1802.14,-31.05 1791.77,-28.88 1792.68,-35.82"/>
</a>
</g>
</g>
<!-- Node16 -->
<g id="Node000016" class="node">
<title>Node16</title>
<g id="a_Node000016"><a xlink:title=" ">
<polygon fill="#e0e0e0" stroke="#999999" points="2099.75,-26 1955.5,-26 1955.5,-6 2099.75,-6 2099.75,-26"/>
<text text-anchor="middle" x="2027.62" y="-12.5" font-family="Helvetica,sans-Serif" font-size="10.00">fr.softsf.canscan.ui.MyPopup</text>
</a>
</g>
</g>
<!-- Node1&#45;&gt;Node16 -->
<g id="edge15_Node000001_Node000016" class="edge">
<title>Node1&#45;&gt;Node16</title>
<g id="a_edge15_Node000001_Node000016"><a xlink:title=" ">
<path fill="none" stroke="#63b8ff" d="M1089.19,-82.15C1249.05,-79.63 1629.77,-69.83 1946.62,-32 1954.63,-31.04 1963.04,-29.78 1971.28,-28.39"/>
<polygon fill="#63b8ff" stroke="#63b8ff" points="1971.64,-31.89 1980.88,-26.7 1970.43,-24.99 1971.64,-31.89"/>
</a>
</g>
</g>
</g>
</svg>
