<?xml version="1.0" encoding="UTF-8" standalone="no"?>
<!DOCTYPE svg PUBLIC "-//W3C//DTD SVG 1.1//EN"
 "http://www.w3.org/Graphics/SVG/1.1/DTD/svg11.dtd">
<!-- Generated by graphviz version 12.2.1 (20241206.2353)
 -->
<!-- Title: src/main/java/fr/softsf/canscan/service/GenerateAndSaveService.java Pages: 1 -->
<svg width="1853pt" height="120pt"
 viewBox="0.00 0.00 1852.50 120.00" xmlns="http://www.w3.org/2000/svg" xmlns:xlink="http://www.w3.org/1999/xlink">
<g id="graph0" class="graph" transform="scale(1 1) rotate(0) translate(4 116)">
<title>src/main/java/fr/softsf/canscan/service/GenerateAndSaveService.java</title>
<!-- Node1 -->
<g id="Node000001" class="node">
<title>Node1</title>
<g id="a_Node000001"><a xlink:title=" ">
<polygon fill="#999999" stroke="#666666" points="935.12,-112 784.88,-112 784.88,-68 935.12,-68 935.12,-112"/>
<text text-anchor="start" x="792.88" y="-98.5" font-family="Helvetica,sans-Serif" font-size="10.00">src/main/java/fr/softsf</text>
<text text-anchor="start" x="792.88" y="-86.5" font-family="Helvetica,sans-Serif" font-size="10.00">/canscan/service/GenerateAnd</text>
<text text-anchor="middle" x="860" y="-74.5" font-family="Helvetica,sans-Serif" font-size="10.00">SaveService.java</text>
</a>
</g>
</g>
<!-- Node2 -->
<g id="Node000002" class="node">
<title>Node2</title>
<g id="a_Node000002"><a xlink:title=" ">
<polygon fill="#e0e0e0" stroke="#999999" points="148,-26 0,-26 0,-6 148,-6 148,-26"/>
<text text-anchor="middle" x="74" y="-12.5" font-family="Helvetica,sans-Serif" font-size="10.00">java.awt.image.BufferedImage</text>
</a>
</g>
</g>
<!-- Node1&#45;&gt;Node2 -->
<g id="edge1_Node000001_Node000002" class="edge">
<title>Node1&#45;&gt;Node2</title>
<g id="a_edge1_Node000001_Node000002"><a xlink:title=" ">
<path fill="none" stroke="#63b8ff" d="M784.58,-85.31C655.59,-78.46 384.51,-61.71 157,-32 149.2,-30.98 141.03,-29.73 132.97,-28.39"/>
<polygon fill="#63b8ff" stroke="#63b8ff" points="133.66,-24.96 123.21,-26.71 132.47,-31.85 133.66,-24.96"/>
</a>
</g>
</g>
<!-- Node3 -->
<g id="Node000003" class="node">
<title>Node3</title>
<g id="a_Node000003"><a xlink:title=" ">
<polygon fill="#e0e0e0" stroke="#999999" points="229.62,-26 166.38,-26 166.38,-6 229.62,-6 229.62,-26"/>
<text text-anchor="middle" x="198" y="-12.5" font-family="Helvetica,sans-Serif" font-size="10.00">java.io.File</text>
</a>
</g>
</g>
<!-- Node1&#45;&gt;Node3 -->
<g id="edge2_Node000001_Node000003" class="edge">
<title>Node1&#45;&gt;Node3</title>
<g id="a_edge2_Node000001_Node000003"><a xlink:title=" ">
<path fill="none" stroke="#63b8ff" d="M784.46,-88.34C666.57,-85.91 432.3,-75.46 239,-32 236.54,-31.45 234.02,-30.78 231.51,-30.05"/>
<polygon fill="#63b8ff" stroke="#63b8ff" points="232.7,-26.76 222.11,-26.95 230.51,-33.4 232.7,-26.76"/>
</a>
</g>
</g>
<!-- Node4 -->
<g id="Node000004" class="node">
<title>Node4</title>
<g id="a_Node000004"><a xlink:title=" ">
<polygon fill="#e0e0e0" stroke="#999999" points="334.25,-26 247.75,-26 247.75,-6 334.25,-6 334.25,-26"/>
<text text-anchor="middle" x="291" y="-12.5" font-family="Helvetica,sans-Serif" font-size="10.00">java.util.Objects</text>
</a>
</g>
</g>
<!-- Node1&#45;&gt;Node4 -->
<g id="edge3_Node000001_Node000004" class="edge">
<title>Node1&#45;&gt;Node4</title>
<g id="a_edge3_Node000001_Node000004"><a xlink:title=" ">
<path fill="none" stroke="#63b8ff" d="M784.64,-84.6C683.61,-77.82 499.02,-62.28 344,-32 340.13,-31.24 336.13,-30.34 332.14,-29.36"/>
<polygon fill="#63b8ff" stroke="#63b8ff" points="333.09,-25.99 322.52,-26.83 331.3,-32.76 333.09,-25.99"/>
</a>
</g>
</g>
<!-- Node5 -->
<g id="Node000005" class="node">
<title>Node5</title>
<g id="a_Node000005"><a xlink:title=" ">
<polygon fill="#e0e0e0" stroke="#999999" points="481.25,-26 352.75,-26 352.75,-6 481.25,-6 481.25,-26"/>
<text text-anchor="middle" x="417" y="-12.5" font-family="Helvetica,sans-Serif" font-size="10.00">javax.swing.JFileChooser</text>
</a>
</g>
</g>
<!-- Node1&#45;&gt;Node5 -->
<g id="edge4_Node000001_Node000005" class="edge">
<title>Node1&#45;&gt;Node5</title>
<g id="a_edge4_Node000001_Node000005"><a xlink:title=" ">
<path fill="none" stroke="#63b8ff" d="M784.7,-78.52C709.81,-67.84 591.71,-50.27 490,-32 484.34,-30.98 478.43,-29.87 472.55,-28.71"/>
<polygon fill="#63b8ff" stroke="#63b8ff" points="473.3,-25.3 462.81,-26.77 471.93,-32.16 473.3,-25.3"/>
</a>
</g>
</g>
<!-- Node6 -->
<g id="Node000006" class="node">
<title>Node6</title>
<g id="a_Node000006"><a xlink:title=" ">
<polygon fill="#e0e0e0" stroke="#999999" points="629,-26 499,-26 499,-6 629,-6 629,-26"/>
<text text-anchor="middle" x="564" y="-12.5" font-family="Helvetica,sans-Serif" font-size="10.00">javax.swing.JProgressBar</text>
</a>
</g>
</g>
<!-- Node1&#45;&gt;Node6 -->
<g id="edge5_Node000001_Node000006" class="edge">
<title>Node1&#45;&gt;Node6</title>
<g id="a_edge5_Node000001_Node000006"><a xlink:title=" ">
<path fill="none" stroke="#63b8ff" d="M784.54,-70.65C731.06,-57.64 660.78,-40.54 614.09,-29.18"/>
<polygon fill="#63b8ff" stroke="#63b8ff" points="615.06,-25.82 604.51,-26.85 613.4,-32.62 615.06,-25.82"/>
</a>
</g>
</g>
<!-- Node7 -->
<g id="Node000007" class="node">
<title>Node7</title>
<g id="a_Node000007"><a xlink:title=" ">
<polygon fill="#e0e0e0" stroke="#999999" points="775.25,-26 646.75,-26 646.75,-6 775.25,-6 775.25,-26"/>
<text text-anchor="middle" x="711" y="-12.5" font-family="Helvetica,sans-Serif" font-size="10.00">javax.swing.SwingWorker</text>
</a>
</g>
</g>
<!-- Node1&#45;&gt;Node7 -->
<g id="edge6_Node000001_Node000007" class="edge">
<title>Node1&#45;&gt;Node7</title>
<g id="a_edge6_Node000001_Node000007"><a xlink:title=" ">
<path fill="none" stroke="#63b8ff" d="M815.7,-67.59C791.48,-55.89 762.14,-41.71 740.69,-31.35"/>
<polygon fill="#63b8ff" stroke="#63b8ff" points="742.44,-28.31 731.91,-27.11 739.4,-34.61 742.44,-28.31"/>
</a>
</g>
</g>
<!-- Node8 -->
<g id="Node000008" class="node">
<title>Node8</title>
<g id="a_Node000008"><a xlink:title=" ">
<polygon fill="#e0e0e0" stroke="#999999" points="926.5,-32 793.5,-32 793.5,0 926.5,0 926.5,-32"/>
<text text-anchor="start" x="801.5" y="-18.5" font-family="Helvetica,sans-Serif" font-size="10.00">fr.softsf.canscan.constant.</text>
<text text-anchor="middle" x="860" y="-6.5" font-family="Helvetica,sans-Serif" font-size="10.00">StringConstants</text>
</a>
</g>
</g>
<!-- Node1&#45;&gt;Node8 -->
<g id="edge7_Node000001_Node000008" class="edge">
<title>Node1&#45;&gt;Node8</title>
<g id="a_edge7_Node000001_Node000008"><a xlink:title=" ">
<path fill="none" stroke="#63b8ff" d="M860,-67.79C860,-60.18 860,-51.52 860,-43.52"/>
<polygon fill="#63b8ff" stroke="#63b8ff" points="863.5,-43.64 860,-33.64 856.5,-43.64 863.5,-43.64"/>
</a>
</g>
</g>
<!-- Node9 -->
<g id="Node000009" class="node">
<title>Node9</title>
<g id="a_Node000009"><a xlink:title=" ">
<polygon fill="#e0e0e0" stroke="#999999" points="1065.88,-32 944.12,-32 944.12,0 1065.88,0 1065.88,-32"/>
<text text-anchor="start" x="952.12" y="-18.5" font-family="Helvetica,sans-Serif" font-size="10.00">fr.softsf.canscan.model.</text>
<text text-anchor="middle" x="1005" y="-6.5" font-family="Helvetica,sans-Serif" font-size="10.00">CommonFields</text>
</a>
</g>
</g>
<!-- Node1&#45;&gt;Node9 -->
<g id="edge8_Node000001_Node000009" class="edge">
<title>Node1&#45;&gt;Node9</title>
<g id="a_edge8_Node000001_Node000009"><a xlink:title=" ">
<path fill="none" stroke="#63b8ff" d="M903.11,-67.59C922.27,-58.08 944.73,-46.93 963.67,-37.52"/>
<polygon fill="#63b8ff" stroke="#63b8ff" points="965.04,-40.75 972.44,-33.17 961.92,-34.48 965.04,-40.75"/>
</a>
</g>
</g>
<!-- Node10 -->
<g id="Node000010" class="node">
<title>Node10</title>
<g id="a_Node000010"><a xlink:title=" ">
<polygon fill="#e0e0e0" stroke="#999999" points="1205.88,-32 1084.12,-32 1084.12,0 1205.88,0 1205.88,-32"/>
<text text-anchor="start" x="1092.12" y="-18.5" font-family="Helvetica,sans-Serif" font-size="10.00">fr.softsf.canscan.model.</text>
<text text-anchor="middle" x="1145" y="-6.5" font-family="Helvetica,sans-Serif" font-size="10.00">EncodedData</text>
</a>
</g>
</g>
<!-- Node1&#45;&gt;Node10 -->
<g id="edge9_Node000001_Node000010" class="edge">
<title>Node1&#45;&gt;Node10</title>
<g id="a_edge9_Node000001_Node000010"><a xlink:title=" ">
<path fill="none" stroke="#63b8ff" d="M935.25,-69.99C977.79,-59.24 1030.71,-45.87 1072.75,-35.25"/>
<polygon fill="#63b8ff" stroke="#63b8ff" points="1073.43,-38.69 1082.27,-32.85 1071.72,-31.9 1073.43,-38.69"/>
</a>
</g>
</g>
<!-- Node11 -->
<g id="Node000011" class="node">
<title>Node11</title>
<g id="a_Node000011"><a xlink:title=" ">
<polygon fill="#e0e0e0" stroke="#999999" points="1365.62,-32 1224.38,-32 1224.38,0 1365.62,0 1365.62,-32"/>
<text text-anchor="start" x="1232.38" y="-18.5" font-family="Helvetica,sans-Serif" font-size="10.00">fr.softsf.canscan.ui.Encoded</text>
<text text-anchor="middle" x="1295" y="-6.5" font-family="Helvetica,sans-Serif" font-size="10.00">Image</text>
</a>
</g>
</g>
<!-- Node1&#45;&gt;Node11 -->
<g id="edge10_Node000001_Node000011" class="edge">
<title>Node1&#45;&gt;Node11</title>
<g id="a_edge10_Node000001_Node000011"><a xlink:title=" ">
<path fill="none" stroke="#63b8ff" d="M935.58,-77.45C1004.99,-66.71 1110.98,-49.97 1212.81,-32.36"/>
<polygon fill="#63b8ff" stroke="#63b8ff" points="1213.17,-35.85 1222.43,-30.69 1211.97,-28.95 1213.17,-35.85"/>
</a>
</g>
</g>
<!-- Node12 -->
<g id="Node000012" class="node">
<title>Node12</title>
<g id="a_Node000012"><a xlink:title=" ">
<polygon fill="#e0e0e0" stroke="#999999" points="1528.12,-26 1383.88,-26 1383.88,-6 1528.12,-6 1528.12,-26"/>
<text text-anchor="middle" x="1456" y="-12.5" font-family="Helvetica,sans-Serif" font-size="10.00">fr.softsf.canscan.ui.MyPopup</text>
</a>
</g>
</g>
<!-- Node1&#45;&gt;Node12 -->
<g id="edge11_Node000001_Node000012" class="edge">
<title>Node1&#45;&gt;Node12</title>
<g id="a_edge11_Node000001_Node000012"><a xlink:title=" ">
<path fill="none" stroke="#63b8ff" d="M935.28,-82.4C1035.79,-73.19 1219.27,-55.01 1375,-32 1382.14,-30.95 1389.61,-29.72 1397.01,-28.44"/>
<polygon fill="#63b8ff" stroke="#63b8ff" points="1397.4,-31.93 1406.64,-26.73 1396.18,-25.03 1397.4,-31.93"/>
</a>
</g>
</g>
<!-- Node13 -->
<g id="Node000013" class="node">
<title>Node13</title>
<g id="a_Node000013"><a xlink:title=" ">
<polygon fill="#e0e0e0" stroke="#999999" points="1681.62,-32 1546.38,-32 1546.38,0 1681.62,0 1681.62,-32"/>
<text text-anchor="start" x="1554.38" y="-18.5" font-family="Helvetica,sans-Serif" font-size="10.00">fr.softsf.canscan.ui.worker.</text>
<text text-anchor="middle" x="1614" y="-6.5" font-family="Helvetica,sans-Serif" font-size="10.00">GenerateAndSaveWorker</text>
</a>
</g>
</g>
<!-- Node1&#45;&gt;Node13 -->
<g id="edge12_Node000001_Node000013" class="edge">
<title>Node1&#45;&gt;Node13</title>
<g id="a_edge12_Node000001_Node000013"><a xlink:title=" ">
<path fill="none" stroke="#63b8ff" d="M935.43,-85.32C1058.7,-78.73 1311.14,-62.76 1534.75,-32.21"/>
<polygon fill="#63b8ff" stroke="#63b8ff" points="1535.12,-35.69 1544.55,-30.86 1534.16,-28.76 1535.12,-35.69"/>
</a>
</g>
</g>
<!-- Node14 -->
<g id="Node000014" class="node">
<title>Node14</title>
<g id="a_Node000014"><a xlink:title=" ">
<polygon fill="#e0e0e0" stroke="#999999" points="1844.5,-26 1699.5,-26 1699.5,-6 1844.5,-6 1844.5,-26"/>
<text text-anchor="middle" x="1772" y="-12.5" font-family="Helvetica,sans-Serif" font-size="10.00">fr.softsf.canscan.util.Checker</text>
</a>
</g>
</g>
<!-- Node1&#45;&gt;Node14 -->
<g id="edge13_Node000001_Node000014" class="edge">
<title>Node1&#45;&gt;Node14</title>
<g id="a_edge13_Node000001_Node000014"><a xlink:title=" ">
<path fill="none" stroke="#63b8ff" d="M935.62,-86.71C1081.97,-81.65 1413.93,-67.04 1691,-32 1698.72,-31.02 1706.81,-29.79 1714.77,-28.44"/>
<polygon fill="#63b8ff" stroke="#63b8ff" points="1715.15,-31.93 1724.39,-26.75 1713.94,-25.03 1715.15,-31.93"/>
</a>
</g>
</g>
</g>
</svg>
