<?xml version="1.0" encoding="UTF-8" standalone="no"?>
<!DOCTYPE svg PUBLIC "-//W3C//DTD SVG 1.1//EN"
 "http://www.w3.org/Graphics/SVG/1.1/DTD/svg11.dtd">
<!-- Generated by graphviz version 12.2.1 (20241206.2353)
 -->
<!-- Title: src/main/java/fr/softsf/canscan/ui/worker/GenerateAndSaveWorker.java Pages: 1 -->
<svg width="2154pt" height="120pt"
 viewBox="0.00 0.00 2154.12 120.00" xmlns="http://www.w3.org/2000/svg" xmlns:xlink="http://www.w3.org/1999/xlink">
<g id="graph0" class="graph" transform="scale(1 1) rotate(0) translate(4 116)">
<title>src/main/java/fr/softsf/canscan/ui/worker/GenerateAndSaveWorker.java</title>
<!-- Node1 -->
<g id="Node000001" class="node">
<title>Node1</title>
<g id="a_Node000001"><a xlink:title=" ">
<polygon fill="#999999" stroke="#666666" points="1078.25,-112 919.75,-112 919.75,-68 1078.25,-68 1078.25,-112"/>
<text text-anchor="start" x="927.75" y="-98.5" font-family="Helvetica,sans-Serif" font-size="10.00">src/main/java/fr/softsf</text>
<text text-anchor="start" x="927.75" y="-86.5" font-family="Helvetica,sans-Serif" font-size="10.00">/canscan/ui/worker/GenerateAnd</text>
<text text-anchor="middle" x="999" y="-74.5" font-family="Helvetica,sans-Serif" font-size="10.00">SaveWorker.java</text>
</a>
</g>
</g>
<!-- Node2 -->
<g id="Node000002" class="node">
<title>Node2</title>
<g id="a_Node000002"><a xlink:title=" ">
<polygon fill="#e0e0e0" stroke="#999999" points="148,-26 0,-26 0,-6 148,-6 148,-26"/>
<text text-anchor="middle" x="74" y="-12.5" font-family="Helvetica,sans-Serif" font-size="10.00">java.awt.image.BufferedImage</text>
</a>
</g>
</g>
<!-- Node1&#45;&gt;Node2 -->
<g id="edge1_Node000001_Node000002" class="edge">
<title>Node1&#45;&gt;Node2</title>
<g id="a_edge1_Node000001_Node000002"><a xlink:title=" ">
<path fill="none" stroke="#63b8ff" d="M919.49,-86.56C769.78,-81.33 436,-66.55 157,-32 149.01,-31.01 140.62,-29.75 132.37,-28.39"/>
<polygon fill="#63b8ff" stroke="#63b8ff" points="133.2,-24.98 122.76,-26.74 132.02,-31.88 133.2,-24.98"/>
</a>
</g>
</g>
<!-- Node3 -->
<g id="Node000003" class="node">
<title>Node3</title>
<g id="a_Node000003"><a xlink:title=" ">
<polygon fill="#e0e0e0" stroke="#999999" points="229.62,-26 166.38,-26 166.38,-6 229.62,-6 229.62,-26"/>
<text text-anchor="middle" x="198" y="-12.5" font-family="Helvetica,sans-Serif" font-size="10.00">java.io.File</text>
</a>
</g>
</g>
<!-- Node1&#45;&gt;Node3 -->
<g id="edge2_Node000001_Node000003" class="edge">
<title>Node1&#45;&gt;Node3</title>
<g id="a_edge2_Node000001_Node000003"><a xlink:title=" ">
<path fill="none" stroke="#63b8ff" d="M919.36,-85.81C751.65,-78.63 367.04,-59.66 239,-32 236.37,-31.43 233.69,-30.74 231.01,-29.95"/>
<polygon fill="#63b8ff" stroke="#63b8ff" points="232.26,-26.68 221.66,-26.87 230.06,-33.33 232.26,-26.68"/>
</a>
</g>
</g>
<!-- Node4 -->
<g id="Node000004" class="node">
<title>Node4</title>
<g id="a_Node000004"><a xlink:title=" ">
<polygon fill="#e0e0e0" stroke="#999999" points="372,-26 248,-26 248,-6 372,-6 372,-26"/>
<text text-anchor="middle" x="310" y="-12.5" font-family="Helvetica,sans-Serif" font-size="10.00">java.io.FileOutputStream</text>
</a>
</g>
</g>
<!-- Node1&#45;&gt;Node4 -->
<g id="edge3_Node000001_Node000004" class="edge">
<title>Node1&#45;&gt;Node4</title>
<g id="a_edge3_Node000001_Node000004"><a xlink:title=" ">
<path fill="none" stroke="#63b8ff" d="M919.62,-84.64C801.65,-77.49 573.3,-61.08 381,-32 374.7,-31.05 368.11,-29.88 361.6,-28.63"/>
<polygon fill="#63b8ff" stroke="#63b8ff" points="362.75,-25.29 352.26,-26.76 361.38,-32.16 362.75,-25.29"/>
</a>
</g>
</g>
<!-- Node5 -->
<g id="Node000005" class="node">
<title>Node5</title>
<g id="a_Node000005"><a xlink:title=" ">
<polygon fill="#e0e0e0" stroke="#999999" points="491.75,-26 390.25,-26 390.25,-6 491.75,-6 491.75,-26"/>
<text text-anchor="middle" x="441" y="-12.5" font-family="Helvetica,sans-Serif" font-size="10.00">java.io.IOException</text>
</a>
</g>
</g>
<!-- Node1&#45;&gt;Node5 -->
<g id="edge4_Node000001_Node000005" class="edge">
<title>Node1&#45;&gt;Node5</title>
<g id="a_edge4_Node000001_Node000005"><a xlink:title=" ">
<path fill="none" stroke="#63b8ff" d="M919.61,-83.14C820.94,-75.12 647.63,-58.6 501,-32 496.31,-31.15 491.43,-30.14 486.58,-29.06"/>
<polygon fill="#63b8ff" stroke="#63b8ff" points="487.42,-25.66 476.89,-26.77 485.82,-32.47 487.42,-25.66"/>
</a>
</g>
</g>
<!-- Node6 -->
<g id="Node000006" class="node">
<title>Node6</title>
<g id="a_Node000006"><a xlink:title=" ">
<polygon fill="#e0e0e0" stroke="#999999" points="618.12,-26 509.88,-26 509.88,-6 618.12,-6 618.12,-26"/>
<text text-anchor="middle" x="564" y="-12.5" font-family="Helvetica,sans-Serif" font-size="10.00">java.io.OutputStream</text>
</a>
</g>
</g>
<!-- Node1&#45;&gt;Node6 -->
<g id="edge5_Node000001_Node000006" class="edge">
<title>Node1&#45;&gt;Node6</title>
<g id="a_edge5_Node000001_Node000006"><a xlink:title=" ">
<path fill="none" stroke="#63b8ff" d="M919.58,-78.74C844.04,-68.54 727.36,-51.6 627,-32 622.34,-31.09 617.51,-30.07 612.69,-29.01"/>
<polygon fill="#63b8ff" stroke="#63b8ff" points="613.54,-25.61 603.01,-26.8 611.98,-32.44 613.54,-25.61"/>
</a>
</g>
</g>
<!-- Node7 -->
<g id="Node000007" class="node">
<title>Node7</title>
<g id="a_Node000007"><a xlink:title=" ">
<polygon fill="#e0e0e0" stroke="#999999" points="781.5,-32 636.5,-32 636.5,0 781.5,0 781.5,-32"/>
<text text-anchor="start" x="644.5" y="-18.5" font-family="Helvetica,sans-Serif" font-size="10.00">java.util.concurrent.Execution</text>
<text text-anchor="middle" x="709" y="-6.5" font-family="Helvetica,sans-Serif" font-size="10.00">Exception</text>
</a>
</g>
</g>
<!-- Node1&#45;&gt;Node7 -->
<g id="edge6_Node000001_Node000007" class="edge">
<title>Node1&#45;&gt;Node7</title>
<g id="a_edge6_Node000001_Node000007"><a xlink:title=" ">
<path fill="none" stroke="#63b8ff" d="M919.37,-69.23C876.43,-58.57 823.81,-45.5 781.94,-35.11"/>
<polygon fill="#63b8ff" stroke="#63b8ff" points="783,-31.77 772.45,-32.75 781.31,-38.56 783,-31.77"/>
</a>
</g>
</g>
<!-- Node8 -->
<g id="Node000008" class="node">
<title>Node8</title>
<g id="a_Node000008"><a xlink:title=" ">
<polygon fill="#e0e0e0" stroke="#999999" points="916.25,-26 799.75,-26 799.75,-6 916.25,-6 916.25,-26"/>
<text text-anchor="middle" x="858" y="-12.5" font-family="Helvetica,sans-Serif" font-size="10.00">javax.imageio.ImageIO</text>
</a>
</g>
</g>
<!-- Node1&#45;&gt;Node8 -->
<g id="edge7_Node000001_Node000008" class="edge">
<title>Node1&#45;&gt;Node8</title>
<g id="a_edge7_Node000001_Node000008"><a xlink:title=" ">
<path fill="none" stroke="#63b8ff" d="M957.08,-67.59C934.37,-56 906.9,-41.97 886.65,-31.63"/>
<polygon fill="#63b8ff" stroke="#63b8ff" points="888.35,-28.57 877.85,-27.14 885.16,-34.8 888.35,-28.57"/>
</a>
</g>
</g>
<!-- Node9 -->
<g id="Node000009" class="node">
<title>Node9</title>
<g id="a_Node000009"><a xlink:title=" ">
<polygon fill="#e0e0e0" stroke="#999999" points="1064,-26 934,-26 934,-6 1064,-6 1064,-26"/>
<text text-anchor="middle" x="999" y="-12.5" font-family="Helvetica,sans-Serif" font-size="10.00">javax.swing.JProgressBar</text>
</a>
</g>
</g>
<!-- Node1&#45;&gt;Node9 -->
<g id="edge8_Node000001_Node000009" class="edge">
<title>Node1&#45;&gt;Node9</title>
<g id="a_edge8_Node000001_Node000009"><a xlink:title=" ">
<path fill="none" stroke="#63b8ff" d="M999,-67.79C999,-58.32 999,-47.2 999,-37.78"/>
<polygon fill="#63b8ff" stroke="#63b8ff" points="1002.5,-37.82 999,-27.82 995.5,-37.82 1002.5,-37.82"/>
</a>
</g>
</g>
<!-- Node10 -->
<g id="Node000010" class="node">
<title>Node10</title>
<g id="a_Node000010"><a xlink:title=" ">
<polygon fill="#e0e0e0" stroke="#999999" points="1210.25,-26 1081.75,-26 1081.75,-6 1210.25,-6 1210.25,-26"/>
<text text-anchor="middle" x="1146" y="-12.5" font-family="Helvetica,sans-Serif" font-size="10.00">javax.swing.SwingWorker</text>
</a>
</g>
</g>
<!-- Node1&#45;&gt;Node10 -->
<g id="edge9_Node000001_Node000010" class="edge">
<title>Node1&#45;&gt;Node10</title>
<g id="a_edge9_Node000001_Node000010"><a xlink:title=" ">
<path fill="none" stroke="#63b8ff" d="M1042.71,-67.59C1066.49,-55.94 1095.28,-41.84 1116.42,-31.49"/>
<polygon fill="#63b8ff" stroke="#63b8ff" points="1117.91,-34.66 1125.35,-27.11 1114.83,-28.37 1117.91,-34.66"/>
</a>
</g>
</g>
<!-- Node11 -->
<g id="Node000011" class="node">
<title>Node11</title>
<g id="a_Node000011"><a xlink:title=" ">
<polygon fill="#e0e0e0" stroke="#999999" points="1393.25,-26 1228.75,-26 1228.75,-6 1393.25,-6 1393.25,-26"/>
<text text-anchor="middle" x="1311" y="-12.5" font-family="Helvetica,sans-Serif" font-size="10.00">com.google.zxing.WriterException</text>
</a>
</g>
</g>
<!-- Node1&#45;&gt;Node11 -->
<g id="edge10_Node000001_Node000011" class="edge">
<title>Node1&#45;&gt;Node11</title>
<g id="a_edge10_Node000001_Node000011"><a xlink:title=" ">
<path fill="none" stroke="#63b8ff" d="M1078.54,-70.65C1135.15,-57.58 1209.61,-40.4 1258.83,-29.04"/>
<polygon fill="#63b8ff" stroke="#63b8ff" points="1259.42,-32.5 1268.37,-26.84 1257.84,-25.68 1259.42,-32.5"/>
</a>
</g>
</g>
<!-- Node12 -->
<g id="Node000012" class="node">
<title>Node12</title>
<g id="a_Node000012"><a xlink:title=" ">
<polygon fill="#e0e0e0" stroke="#999999" points="1544.5,-32 1411.5,-32 1411.5,0 1544.5,0 1544.5,-32"/>
<text text-anchor="start" x="1419.5" y="-18.5" font-family="Helvetica,sans-Serif" font-size="10.00">fr.softsf.canscan.constant.</text>
<text text-anchor="middle" x="1478" y="-6.5" font-family="Helvetica,sans-Serif" font-size="10.00">StringConstants</text>
</a>
</g>
</g>
<!-- Node1&#45;&gt;Node12 -->
<g id="edge11_Node000001_Node000012" class="edge">
<title>Node1&#45;&gt;Node12</title>
<g id="a_edge11_Node000001_Node000012"><a xlink:title=" ">
<path fill="none" stroke="#63b8ff" d="M1078.72,-79.02C1157.7,-68.85 1282.35,-51.99 1400.29,-32.23"/>
<polygon fill="#63b8ff" stroke="#63b8ff" points="1400.54,-35.74 1409.82,-30.63 1399.37,-28.84 1400.54,-35.74"/>
</a>
</g>
</g>
<!-- Node13 -->
<g id="Node000013" class="node">
<title>Node13</title>
<g id="a_Node000013"><a xlink:title=" ">
<polygon fill="#e0e0e0" stroke="#999999" points="1683.88,-32 1562.12,-32 1562.12,0 1683.88,0 1683.88,-32"/>
<text text-anchor="start" x="1570.12" y="-18.5" font-family="Helvetica,sans-Serif" font-size="10.00">fr.softsf.canscan.model.</text>
<text text-anchor="middle" x="1623" y="-6.5" font-family="Helvetica,sans-Serif" font-size="10.00">CommonFields</text>
</a>
</g>
</g>
<!-- Node1&#45;&gt;Node13 -->
<g id="edge12_Node000001_Node000013" class="edge">
<title>Node1&#45;&gt;Node13</title>
<g id="a_edge12_Node000001_Node000013"><a xlink:title=" ">
<path fill="none" stroke="#63b8ff" d="M1078.4,-83.65C1184.19,-75.89 1377.33,-59.56 1550.62,-32.45"/>
<polygon fill="#63b8ff" stroke="#63b8ff" points="1550.92,-35.94 1560.25,-30.92 1549.82,-29.03 1550.92,-35.94"/>
</a>
</g>
</g>
<!-- Node14 -->
<g id="Node000014" class="node">
<title>Node14</title>
<g id="a_Node000014"><a xlink:title=" ">
<polygon fill="#e0e0e0" stroke="#999999" points="1823.88,-32 1702.12,-32 1702.12,0 1823.88,0 1823.88,-32"/>
<text text-anchor="start" x="1710.12" y="-18.5" font-family="Helvetica,sans-Serif" font-size="10.00">fr.softsf.canscan.model.</text>
<text text-anchor="middle" x="1763" y="-6.5" font-family="Helvetica,sans-Serif" font-size="10.00">EncodedData</text>
</a>
</g>
</g>
<!-- Node1&#45;&gt;Node14 -->
<g id="edge13_Node000001_Node000014" class="edge">
<title>Node1&#45;&gt;Node14</title>
<g id="a_edge13_Node000001_Node000014"><a xlink:title=" ">
<path fill="none" stroke="#63b8ff" d="M1078.74,-85.8C1206.12,-79.95 1463.43,-65.12 1690.85,-32.19"/>
<polygon fill="#63b8ff" stroke="#63b8ff" points="1691.12,-35.69 1700.5,-30.78 1690.1,-28.76 1691.12,-35.69"/>
</a>
</g>
</g>
<!-- Node15 -->
<g id="Node000015" class="node">
<title>Node15</title>
<g id="a_Node000015"><a xlink:title=" ">
<polygon fill="#e0e0e0" stroke="#999999" points="1983.62,-32 1842.38,-32 1842.38,0 1983.62,0 1983.62,-32"/>
<text text-anchor="start" x="1850.38" y="-18.5" font-family="Helvetica,sans-Serif" font-size="10.00">fr.softsf.canscan.ui.Encoded</text>
<text text-anchor="middle" x="1913" y="-6.5" font-family="Helvetica,sans-Serif" font-size="10.00">Image</text>
</a>
</g>
</g>
<!-- Node1&#45;&gt;Node15 -->
<g id="edge14_Node000001_Node000015" class="edge">
<title>Node1&#45;&gt;Node15</title>
<g id="a_edge14_Node000001_Node000015"><a xlink:title=" ">
<path fill="none" stroke="#63b8ff" d="M1078.65,-86.66C1225.43,-81.67 1548.64,-67.52 1830.69,-32.19"/>
<polygon fill="#63b8ff" stroke="#63b8ff" points="1830.99,-35.68 1840.47,-30.96 1830.11,-28.74 1830.99,-35.68"/>
</a>
</g>
</g>
<!-- Node16 -->
<g id="Node000016" class="node">
<title>Node16</title>
<g id="a_Node000016"><a xlink:title=" ">
<polygon fill="#e0e0e0" stroke="#999999" points="2146.12,-26 2001.88,-26 2001.88,-6 2146.12,-6 2146.12,-26"/>
<text text-anchor="middle" x="2074" y="-12.5" font-family="Helvetica,sans-Serif" font-size="10.00">fr.softsf.canscan.ui.MyPopup</text>
</a>
</g>
</g>
<!-- Node1&#45;&gt;Node16 -->
<g id="edge15_Node000001_Node000016" class="edge">
<title>Node1&#45;&gt;Node16</title>
<g id="a_edge15_Node000001_Node000016"><a xlink:title=" ">
<path fill="none" stroke="#63b8ff" d="M1078.54,-87.83C1247.52,-84.6 1654.51,-72.88 1993,-32 2000.82,-31.06 2009.02,-29.82 2017.08,-28.47"/>
<polygon fill="#63b8ff" stroke="#63b8ff" points="2017.58,-31.94 2026.83,-26.76 2016.37,-25.04 2017.58,-31.94"/>
</a>
</g>
</g>
</g>
</svg>
