<?xml version="1.0" encoding="UTF-8" standalone="no"?>
<!DOCTYPE svg PUBLIC "-//W3C//DTD SVG 1.1//EN"
 "http://www.w3.org/Graphics/SVG/1.1/DTD/svg11.dtd">
<!-- Generated by graphviz version 12.2.1 (20241206.2353)
 -->
<!-- Title: src/main/java/fr/softsf/canscan/ui/worker/GenerateAndSaveWorker.java Pages: 1 -->
<svg width="2913pt" height="120pt"
 viewBox="0.00 0.00 2912.75 120.00" xmlns="http://www.w3.org/2000/svg" xmlns:xlink="http://www.w3.org/1999/xlink">
<g id="graph0" class="graph" transform="scale(1 1) rotate(0) translate(4 116)">
<title>src/main/java/fr/softsf/canscan/ui/worker/GenerateAndSaveWorker.java</title>
<!-- Node1 -->
<g id="Node000001" class="node">
<title>Node1</title>
<g id="a_Node000001"><a xlink:title=" ">
<polygon fill="#999999" stroke="#666666" points="1421.5,-112 1263,-112 1263,-68 1421.5,-68 1421.5,-112"/>
<text text-anchor="start" x="1271" y="-98.5" font-family="Helvetica,sans-Serif" font-size="10.00">src/main/java/fr/softsf</text>
<text text-anchor="start" x="1271" y="-86.5" font-family="Helvetica,sans-Serif" font-size="10.00">/canscan/ui/worker/GenerateAnd</text>
<text text-anchor="middle" x="1342.25" y="-74.5" font-family="Helvetica,sans-Serif" font-size="10.00">SaveWorker.java</text>
</a>
</g>
</g>
<!-- Node2 -->
<g id="Node000002" class="node">
<title>Node2</title>
<g id="a_Node000002"><a xlink:title=" ">
<polygon fill="#e0e0e0" stroke="#999999" points="140.5,-26 0,-26 0,-6 140.5,-6 140.5,-26"/>
<text text-anchor="middle" x="70.25" y="-12.5" font-family="Helvetica,sans-Serif" font-size="10.00">java.awt.HeadlessException</text>
</a>
</g>
</g>
<!-- Node1&#45;&gt;Node2 -->
<g id="edge1_Node000001_Node000002" class="edge">
<title>Node1&#45;&gt;Node2</title>
<g id="a_edge1_Node000001_Node000002"><a xlink:title=" ">
<path fill="none" stroke="#63b8ff" d="M1262.71,-89.03C1070.63,-88.28 566.5,-81.33 149.25,-32 141.43,-31.08 133.22,-29.83 125.17,-28.45"/>
<polygon fill="#63b8ff" stroke="#63b8ff" points="125.91,-25.03 115.45,-26.7 124.67,-31.92 125.91,-25.03"/>
</a>
</g>
</g>
<!-- Node3 -->
<g id="Node000003" class="node">
<title>Node3</title>
<g id="a_Node000003"><a xlink:title=" ">
<polygon fill="#e0e0e0" stroke="#999999" points="242.38,-26 158.12,-26 158.12,-6 242.38,-6 242.38,-26"/>
<text text-anchor="middle" x="200.25" y="-12.5" font-family="Helvetica,sans-Serif" font-size="10.00">java.awt.Toolkit</text>
</a>
</g>
</g>
<!-- Node1&#45;&gt;Node3 -->
<g id="edge2_Node000001_Node000003" class="edge">
<title>Node1&#45;&gt;Node3</title>
<g id="a_edge2_Node000001_Node000003"><a xlink:title=" ">
<path fill="none" stroke="#63b8ff" d="M1262.86,-87.26C1045.84,-82.12 445.92,-65.24 251.25,-32 247.19,-31.31 243,-30.4 238.84,-29.37"/>
<polygon fill="#63b8ff" stroke="#63b8ff" points="240.06,-26.08 229.49,-26.84 238.23,-32.84 240.06,-26.08"/>
</a>
</g>
</g>
<!-- Node4 -->
<g id="Node000004" class="node">
<title>Node4</title>
<g id="a_Node000004"><a xlink:title=" ">
<polygon fill="#e0e0e0" stroke="#999999" points="396.25,-32 260.25,-32 260.25,0 396.25,0 396.25,-32"/>
<text text-anchor="start" x="268.25" y="-18.5" font-family="Helvetica,sans-Serif" font-size="10.00">java.awt.datatransfer.String</text>
<text text-anchor="middle" x="328.25" y="-6.5" font-family="Helvetica,sans-Serif" font-size="10.00">Selection</text>
</a>
</g>
</g>
<!-- Node1&#45;&gt;Node4 -->
<g id="edge3_Node000001_Node000004" class="edge">
<title>Node1&#45;&gt;Node4</title>
<g id="a_edge3_Node000001_Node000004"><a xlink:title=" ">
<path fill="none" stroke="#63b8ff" d="M1262.64,-87.69C1102.43,-84.28 729.61,-72.47 407.56,-32.18"/>
<polygon fill="#63b8ff" stroke="#63b8ff" points="408.47,-28.77 398.11,-30.99 407.59,-35.72 408.47,-28.77"/>
</a>
</g>
</g>
<!-- Node5 -->
<g id="Node000005" class="node">
<title>Node5</title>
<g id="a_Node000005"><a xlink:title=" ">
<polygon fill="#e0e0e0" stroke="#999999" points="562.25,-26 414.25,-26 414.25,-6 562.25,-6 562.25,-26"/>
<text text-anchor="middle" x="488.25" y="-12.5" font-family="Helvetica,sans-Serif" font-size="10.00">java.awt.image.BufferedImage</text>
</a>
</g>
</g>
<!-- Node1&#45;&gt;Node5 -->
<g id="edge4_Node000001_Node000005" class="edge">
<title>Node1&#45;&gt;Node5</title>
<g id="a_edge4_Node000001_Node000005"><a xlink:title=" ">
<path fill="none" stroke="#63b8ff" d="M1262.62,-85.87C1122.42,-79.75 822.57,-63.91 571.25,-32 563.26,-30.99 554.87,-29.71 546.63,-28.34"/>
<polygon fill="#63b8ff" stroke="#63b8ff" points="547.46,-24.94 537.01,-26.69 546.27,-31.83 547.46,-24.94"/>
</a>
</g>
</g>
<!-- Node6 -->
<g id="Node000006" class="node">
<title>Node6</title>
<g id="a_Node000006"><a xlink:title=" ">
<polygon fill="#e0e0e0" stroke="#999999" points="643.88,-26 580.62,-26 580.62,-6 643.88,-6 643.88,-26"/>
<text text-anchor="middle" x="612.25" y="-12.5" font-family="Helvetica,sans-Serif" font-size="10.00">java.io.File</text>
</a>
</g>
</g>
<!-- Node1&#45;&gt;Node6 -->
<g id="edge5_Node000001_Node000006" class="edge">
<title>Node1&#45;&gt;Node6</title>
<g id="a_edge5_Node000001_Node000006"><a xlink:title=" ">
<path fill="none" stroke="#63b8ff" d="M1262.7,-89.29C1133.36,-88.24 870.11,-79.73 653.25,-32 650.63,-31.42 647.94,-30.72 645.27,-29.93"/>
<polygon fill="#63b8ff" stroke="#63b8ff" points="646.51,-26.66 635.92,-26.84 644.31,-33.3 646.51,-26.66"/>
</a>
</g>
</g>
<!-- Node7 -->
<g id="Node000007" class="node">
<title>Node7</title>
<g id="a_Node000007"><a xlink:title=" ">
<polygon fill="#e0e0e0" stroke="#999999" points="786.25,-26 662.25,-26 662.25,-6 786.25,-6 786.25,-26"/>
<text text-anchor="middle" x="724.25" y="-12.5" font-family="Helvetica,sans-Serif" font-size="10.00">java.io.FileOutputStream</text>
</a>
</g>
</g>
<!-- Node1&#45;&gt;Node7 -->
<g id="edge6_Node000001_Node000007" class="edge">
<title>Node1&#45;&gt;Node7</title>
<g id="a_edge6_Node000001_Node000007"><a xlink:title=" ">
<path fill="none" stroke="#63b8ff" d="M1262.65,-83.32C1155.87,-75.11 960.55,-58 795.25,-32 789.18,-31.05 782.85,-29.91 776.58,-28.7"/>
<polygon fill="#63b8ff" stroke="#63b8ff" points="777.39,-25.29 766.9,-26.75 776.01,-32.16 777.39,-25.29"/>
</a>
</g>
</g>
<!-- Node8 -->
<g id="Node000008" class="node">
<title>Node8</title>
<g id="a_Node000008"><a xlink:title=" ">
<polygon fill="#e0e0e0" stroke="#999999" points="906,-26 804.5,-26 804.5,-6 906,-6 906,-26"/>
<text text-anchor="middle" x="855.25" y="-12.5" font-family="Helvetica,sans-Serif" font-size="10.00">java.io.IOException</text>
</a>
</g>
</g>
<!-- Node1&#45;&gt;Node8 -->
<g id="edge7_Node000001_Node000008" class="edge">
<title>Node1&#45;&gt;Node8</title>
<g id="a_edge7_Node000001_Node000008"><a xlink:title=" ">
<path fill="none" stroke="#63b8ff" d="M1262.73,-81.09C1176.65,-71.89 1035.54,-54.99 915.25,-32 910.68,-31.13 905.94,-30.12 901.22,-29.05"/>
<polygon fill="#63b8ff" stroke="#63b8ff" points="902.33,-25.72 891.79,-26.82 900.72,-32.53 902.33,-25.72"/>
</a>
</g>
</g>
<!-- Node9 -->
<g id="Node000009" class="node">
<title>Node9</title>
<g id="a_Node000009"><a xlink:title=" ">
<polygon fill="#e0e0e0" stroke="#999999" points="1032.38,-26 924.12,-26 924.12,-6 1032.38,-6 1032.38,-26"/>
<text text-anchor="middle" x="978.25" y="-12.5" font-family="Helvetica,sans-Serif" font-size="10.00">java.io.OutputStream</text>
</a>
</g>
</g>
<!-- Node1&#45;&gt;Node9 -->
<g id="edge8_Node000001_Node000009" class="edge">
<title>Node1&#45;&gt;Node9</title>
<g id="a_edge8_Node000001_Node000009"><a xlink:title=" ">
<path fill="none" stroke="#63b8ff" d="M1262.51,-74.95C1201.73,-63.98 1116.02,-47.97 1041.25,-32 1036.92,-31.08 1032.43,-30.08 1027.94,-29.06"/>
<polygon fill="#63b8ff" stroke="#63b8ff" points="1028.84,-25.67 1018.31,-26.83 1027.26,-32.49 1028.84,-25.67"/>
</a>
</g>
</g>
<!-- Node10 -->
<g id="Node000010" class="node">
<title>Node10</title>
<g id="a_Node000010"><a xlink:title=" ">
<polygon fill="#e0e0e0" stroke="#999999" points="1195.75,-32 1050.75,-32 1050.75,0 1195.75,0 1195.75,-32"/>
<text text-anchor="start" x="1058.75" y="-18.5" font-family="Helvetica,sans-Serif" font-size="10.00">java.util.concurrent.Execution</text>
<text text-anchor="middle" x="1123.25" y="-6.5" font-family="Helvetica,sans-Serif" font-size="10.00">Exception</text>
</a>
</g>
</g>
<!-- Node1&#45;&gt;Node10 -->
<g id="edge9_Node000001_Node000010" class="edge">
<title>Node1&#45;&gt;Node10</title>
<g id="a_edge9_Node000001_Node000010"><a xlink:title=" ">
<path fill="none" stroke="#63b8ff" d="M1277.14,-67.59C1246.59,-57.55 1210.5,-45.69 1180.95,-35.97"/>
<polygon fill="#63b8ff" stroke="#63b8ff" points="1182.41,-32.77 1171.82,-32.97 1180.23,-39.42 1182.41,-32.77"/>
</a>
</g>
</g>
<!-- Node11 -->
<g id="Node000011" class="node">
<title>Node11</title>
<g id="a_Node000011"><a xlink:title=" ">
<polygon fill="#e0e0e0" stroke="#999999" points="1330.5,-26 1214,-26 1214,-6 1330.5,-6 1330.5,-26"/>
<text text-anchor="middle" x="1272.25" y="-12.5" font-family="Helvetica,sans-Serif" font-size="10.00">javax.imageio.ImageIO</text>
</a>
</g>
</g>
<!-- Node1&#45;&gt;Node11 -->
<g id="edge10_Node000001_Node000011" class="edge">
<title>Node1&#45;&gt;Node11</title>
<g id="a_edge10_Node000001_Node000011"><a xlink:title=" ">
<path fill="none" stroke="#63b8ff" d="M1321.63,-67.79C1311.27,-57.14 1298.88,-44.39 1289.11,-34.34"/>
<polygon fill="#63b8ff" stroke="#63b8ff" points="1291.84,-32.13 1282.36,-27.4 1286.82,-37.01 1291.84,-32.13"/>
</a>
</g>
</g>
<!-- Node12 -->
<g id="Node000012" class="node">
<title>Node12</title>
<g id="a_Node000012"><a xlink:title=" ">
<polygon fill="#e0e0e0" stroke="#999999" points="1478.25,-26 1348.25,-26 1348.25,-6 1478.25,-6 1478.25,-26"/>
<text text-anchor="middle" x="1413.25" y="-12.5" font-family="Helvetica,sans-Serif" font-size="10.00">javax.swing.JProgressBar</text>
</a>
</g>
</g>
<!-- Node1&#45;&gt;Node12 -->
<g id="edge11_Node000001_Node000012" class="edge">
<title>Node1&#45;&gt;Node12</title>
<g id="a_edge11_Node000001_Node000012"><a xlink:title=" ">
<path fill="none" stroke="#63b8ff" d="M1363.17,-67.79C1373.67,-57.14 1386.24,-44.39 1396.15,-34.34"/>
<polygon fill="#63b8ff" stroke="#63b8ff" points="1398.48,-36.97 1403.01,-27.39 1393.49,-32.05 1398.48,-36.97"/>
</a>
</g>
</g>
<!-- Node13 -->
<g id="Node000013" class="node">
<title>Node13</title>
<g id="a_Node000013"><a xlink:title=" ">
<polygon fill="#e0e0e0" stroke="#999999" points="1624.5,-26 1496,-26 1496,-6 1624.5,-6 1624.5,-26"/>
<text text-anchor="middle" x="1560.25" y="-12.5" font-family="Helvetica,sans-Serif" font-size="10.00">javax.swing.SwingWorker</text>
</a>
</g>
</g>
<!-- Node1&#45;&gt;Node13 -->
<g id="edge12_Node000001_Node000013" class="edge">
<title>Node1&#45;&gt;Node13</title>
<g id="a_edge12_Node000001_Node000013"><a xlink:title=" ">
<path fill="none" stroke="#63b8ff" d="M1407.07,-67.59C1444.12,-55.36 1489.36,-40.41 1521.04,-29.95"/>
<polygon fill="#63b8ff" stroke="#63b8ff" points="1521.81,-33.38 1530.21,-26.92 1519.61,-26.74 1521.81,-33.38"/>
</a>
</g>
</g>
<!-- Node14 -->
<g id="Node000014" class="node">
<title>Node14</title>
<g id="a_Node000014"><a xlink:title=" ">
<polygon fill="#e0e0e0" stroke="#999999" points="1807.5,-26 1643,-26 1643,-6 1807.5,-6 1807.5,-26"/>
<text text-anchor="middle" x="1725.25" y="-12.5" font-family="Helvetica,sans-Serif" font-size="10.00">com.google.zxing.WriterException</text>
</a>
</g>
</g>
<!-- Node1&#45;&gt;Node14 -->
<g id="edge13_Node000001_Node000014" class="edge">
<title>Node1&#45;&gt;Node14</title>
<g id="a_edge13_Node000001_Node000014"><a xlink:title=" ">
<path fill="none" stroke="#63b8ff" d="M1421.61,-74.08C1493.58,-60.55 1598.19,-40.89 1663.93,-28.53"/>
<polygon fill="#63b8ff" stroke="#63b8ff" points="1664.27,-32.03 1673.45,-26.74 1662.98,-25.15 1664.27,-32.03"/>
</a>
</g>
</g>
<!-- Node15 -->
<g id="Node000015" class="node">
<title>Node15</title>
<g id="a_Node000015"><a xlink:title=" ">
<polygon fill="#e0e0e0" stroke="#999999" points="1988.75,-32 1825.75,-32 1825.75,0 1988.75,0 1988.75,-32"/>
<text text-anchor="start" x="1833.75" y="-18.5" font-family="Helvetica,sans-Serif" font-size="10.00">edu.umd.cs.findbugs.annotations.</text>
<text text-anchor="middle" x="1907.25" y="-6.5" font-family="Helvetica,sans-Serif" font-size="10.00">SuppressFBWarnings</text>
</a>
</g>
</g>
<!-- Node1&#45;&gt;Node15 -->
<g id="edge14_Node000001_Node000015" class="edge">
<title>Node1&#45;&gt;Node15</title>
<g id="a_edge14_Node000001_Node000015"><a xlink:title=" ">
<path fill="none" stroke="#63b8ff" d="M1421.64,-80.52C1513.51,-70.48 1669.6,-52.66 1814.15,-32.26"/>
<polygon fill="#63b8ff" stroke="#63b8ff" points="1814.52,-35.74 1823.92,-30.87 1813.53,-28.81 1814.52,-35.74"/>
</a>
</g>
</g>
<!-- Node16 -->
<g id="Node000016" class="node">
<title>Node16</title>
<g id="a_Node000016"><a xlink:title=" ">
<polygon fill="#e0e0e0" stroke="#999999" points="2139.75,-32 2006.75,-32 2006.75,0 2139.75,0 2139.75,-32"/>
<text text-anchor="start" x="2014.75" y="-18.5" font-family="Helvetica,sans-Serif" font-size="10.00">fr.softsf.canscan.constant.</text>
<text text-anchor="middle" x="2073.25" y="-6.5" font-family="Helvetica,sans-Serif" font-size="10.00">StringConstants</text>
</a>
</g>
</g>
<!-- Node1&#45;&gt;Node16 -->
<g id="edge15_Node000001_Node000016" class="edge">
<title>Node1&#45;&gt;Node16</title>
<g id="a_edge15_Node000001_Node000016"><a xlink:title=" ">
<path fill="none" stroke="#63b8ff" d="M1421.84,-84.93C1543.42,-78.09 1782.83,-62.15 1994.9,-32.39"/>
<polygon fill="#63b8ff" stroke="#63b8ff" points="1995.35,-35.86 2004.76,-30.99 1994.36,-28.93 1995.35,-35.86"/>
</a>
</g>
</g>
<!-- Node17 -->
<g id="Node000017" class="node">
<title>Node17</title>
<g id="a_Node000017"><a xlink:title=" ">
<polygon fill="#e0e0e0" stroke="#999999" points="2279.12,-32 2157.38,-32 2157.38,0 2279.12,0 2279.12,-32"/>
<text text-anchor="start" x="2165.38" y="-18.5" font-family="Helvetica,sans-Serif" font-size="10.00">fr.softsf.canscan.model.</text>
<text text-anchor="middle" x="2218.25" y="-6.5" font-family="Helvetica,sans-Serif" font-size="10.00">CommonFields</text>
</a>
</g>
</g>
<!-- Node1&#45;&gt;Node17 -->
<g id="edge16_Node000001_Node000017" class="edge">
<title>Node1&#45;&gt;Node17</title>
<g id="a_edge16_Node000001_Node000017"><a xlink:title=" ">
<path fill="none" stroke="#63b8ff" d="M1421.97,-87.16C1565.27,-83.02 1875.92,-70.27 2145.81,-32.38"/>
<polygon fill="#63b8ff" stroke="#63b8ff" points="2146.1,-35.87 2155.51,-31 2145.12,-28.94 2146.1,-35.87"/>
</a>
</g>
</g>
<!-- Node18 -->
<g id="Node000018" class="node">
<title>Node18</title>
<g id="a_Node000018"><a xlink:title=" ">
<polygon fill="#e0e0e0" stroke="#999999" points="2419.12,-32 2297.38,-32 2297.38,0 2419.12,0 2419.12,-32"/>
<text text-anchor="start" x="2305.38" y="-18.5" font-family="Helvetica,sans-Serif" font-size="10.00">fr.softsf.canscan.model.</text>
<text text-anchor="middle" x="2358.25" y="-6.5" font-family="Helvetica,sans-Serif" font-size="10.00">EncodedData</text>
</a>
</g>
</g>
<!-- Node1&#45;&gt;Node18 -->
<g id="edge17_Node000001_Node000018" class="edge">
<title>Node1&#45;&gt;Node18</title>
<g id="a_edge17_Node000001_Node000018"><a xlink:title=" ">
<path fill="none" stroke="#63b8ff" d="M1421.76,-88.25C1583.09,-85.85 1960.53,-75.78 2285.82,-32.2"/>
<polygon fill="#63b8ff" stroke="#63b8ff" points="2285.94,-35.71 2295.38,-30.9 2285,-28.77 2285.94,-35.71"/>
</a>
</g>
</g>
<!-- Node19 -->
<g id="Node000019" class="node">
<title>Node19</title>
<g id="a_Node000019"><a xlink:title=" ">
<polygon fill="#e0e0e0" stroke="#999999" points="2578.88,-32 2437.62,-32 2437.62,0 2578.88,0 2578.88,-32"/>
<text text-anchor="start" x="2445.62" y="-18.5" font-family="Helvetica,sans-Serif" font-size="10.00">fr.softsf.canscan.ui.Encoded</text>
<text text-anchor="middle" x="2508.25" y="-6.5" font-family="Helvetica,sans-Serif" font-size="10.00">Image</text>
</a>
</g>
</g>
<!-- Node1&#45;&gt;Node19 -->
<g id="edge18_Node000001_Node000019" class="edge">
<title>Node1&#45;&gt;Node19</title>
<g id="a_edge18_Node000001_Node000019"><a xlink:title=" ">
<path fill="none" stroke="#63b8ff" d="M1421.93,-88.44C1600.18,-86.39 2044.75,-76.95 2425.97,-32.16"/>
<polygon fill="#63b8ff" stroke="#63b8ff" points="2426.2,-35.66 2435.72,-31 2425.38,-28.7 2426.2,-35.66"/>
</a>
</g>
</g>
<!-- Node20 -->
<g id="Node000020" class="node">
<title>Node20</title>
<g id="a_Node000020"><a xlink:title=" ">
<polygon fill="#e0e0e0" stroke="#999999" points="2741.38,-26 2597.12,-26 2597.12,-6 2741.38,-6 2741.38,-26"/>
<text text-anchor="middle" x="2669.25" y="-12.5" font-family="Helvetica,sans-Serif" font-size="10.00">fr.softsf.canscan.ui.MyPopup</text>
</a>
</g>
</g>
<!-- Node1&#45;&gt;Node20 -->
<g id="edge19_Node000001_Node000020" class="edge">
<title>Node1&#45;&gt;Node20</title>
<g id="a_edge19_Node000001_Node000020"><a xlink:title=" ">
<path fill="none" stroke="#63b8ff" d="M1422,-89.14C1620.04,-88.67 2149.92,-82.37 2588.25,-32 2596.36,-31.07 2604.88,-29.81 2613.22,-28.41"/>
<polygon fill="#63b8ff" stroke="#63b8ff" points="2613.7,-31.88 2622.94,-26.7 2612.48,-24.98 2613.7,-31.88"/>
</a>
</g>
</g>
<!-- Node21 -->
<g id="Node000021" class="node">
<title>Node21</title>
<g id="a_Node000021"><a xlink:title=" ">
<polygon fill="#e0e0e0" stroke="#999999" points="2904.75,-26 2759.75,-26 2759.75,-6 2904.75,-6 2904.75,-26"/>
<text text-anchor="middle" x="2832.25" y="-12.5" font-family="Helvetica,sans-Serif" font-size="10.00">fr.softsf.canscan.util.Checker</text>
</a>
</g>
</g>
<!-- Node1&#45;&gt;Node21 -->
<g id="edge20_Node000001_Node000021" class="edge">
<title>Node1&#45;&gt;Node21</title>
<g id="a_edge20_Node000001_Node000021"><a xlink:title=" ">
<path fill="none" stroke="#63b8ff" d="M1421.94,-89.68C1636.99,-90.68 2246.93,-87.94 2750.25,-32 2758.55,-31.08 2767.28,-29.81 2775.81,-28.4"/>
<polygon fill="#63b8ff" stroke="#63b8ff" points="2776.13,-31.89 2785.38,-26.73 2774.93,-25 2776.13,-31.89"/>
</a>
</g>
</g>
</g>
</svg>
