<?xml version="1.0" encoding="UTF-8" standalone="no"?>
<!DOCTYPE svg PUBLIC "-//W3C//DTD SVG 1.1//EN"
 "http://www.w3.org/Graphics/SVG/1.1/DTD/svg11.dtd">
<!-- Generated by graphviz version 12.2.1 (20241206.2353)
 -->
<!-- Title: src/test/java/fr/softsf/canscan/NativeImageConfigSimulator.java Pages: 1 -->
<!--zoomable 108 -->

<svg id="main" version="1.1" xmlns="http://www.w3.org/2000/svg" xmlns:xlink="http://www.w3.org/1999/xlink" xml:space="preserve" onload="init(evt)">

<style type="text/css"><![CDATA[
.node, .edge {opacity: 0.7;}
.node.selected, .edge.selected {opacity: 1;}
.edge:hover path { stroke: red; }
.edge:hover polygon { stroke: red; fill: red; }
]]></style>

<defs>
  <circle id="rim" cx="0" cy="0" r="7"/>
  <circle id="rim2" cx="0" cy="0" r="3.5"/>
  <g id="zoomPlus">
    <use xlink:href="#rim" fill="#404040"><set attributeName="fill" to="#808080" begin="zoomplus.mouseover" end="zoomplus.mouseout"/></use>
    <path d="M-4,0h8M0,-4v8" fill="none" stroke="white" stroke-width="1.5" pointer-events="none"/>
  </g>
  <g id="zoomMin">
    <use xlink:href="#rim" fill="#404040"><set attributeName="fill" to="#808080" begin="zoomminus.mouseover" end="zoomminus.mouseout"/></use>
    <path d="M-4,0h8" fill="none" stroke="white" stroke-width="1.5" pointer-events="none"/>
  </g>
  <g id="arrowUp" transform="translate(30 24)">
    <use xlink:href="#rim"/>
    <path pointer-events="none" fill="none" stroke="white" stroke-width="1.5" d="M0,-3.0v7 M-2.5,-0.5L0,-3.0L2.5,-0.5"/>
  </g>
  <g id="arrowRight" transform="rotate(90) translate(36 -43)">
    <use xlink:href="#rim"/>
    <path pointer-events="none" fill="none" stroke="white" stroke-width="1.5" d="M0,-3.0v7 M-2.5,-0.5L0,-3.0L2.5,-0.5"/>
  </g>
  <g id="arrowDown" transform="rotate(180) translate(-30 -48)">
    <use xlink:href="#rim"/>
    <path pointer-events="none" fill="none" stroke="white" stroke-width="1.5" d="M0,-3.0v7 M-2.5,-0.5L0,-3.0L2.5,-0.5"/>
  </g>
  <g id="arrowLeft" transform="rotate(270) translate(-36 17)">
    <use xlink:href="#rim"/>
    <path pointer-events="none" fill="none" stroke="white" stroke-width="1.5" d="M0,-3.0v7 M-2.5,-0.5L0,-3.0L2.5,-0.5"/>
  </g>
  <g id="resetDef">
    <use xlink:href="#rim2" fill="#404040"><set attributeName="fill" to="#808080" begin="reset.mouseover" end="reset.mouseout"/></use>
  </g>
</defs>
<script type="application/ecmascript">
var viewWidth = 3679;
var viewHeight = 108;
var sectionId = 'dynsection-0';
</script>
<script type="application/ecmascript" xlink:href="svg.min.js"/>
<svg id="graph" class="graph">
<g id="viewport">
<title>src/test/java/fr/softsf/canscan/NativeImageConfigSimulator.java</title>
<!-- Node1 -->
<g id="Node000001" class="node">
<title>Node1</title>
<g id="a_Node000001"><a xlink:title=" ">
<polygon fill="#999999" stroke="#666666" points="1759.5,-100 1554.5,-100 1554.5,-68 1759.5,-68 1759.5,-100"/>
<text text-anchor="start" x="1562.5" y="-86.5" font-family="Helvetica,sans-Serif" font-size="10.00">src/test/java/fr/softsf</text>
<text text-anchor="middle" x="1657" y="-74.5" font-family="Helvetica,sans-Serif" font-size="10.00">/canscan/NativeImageConfigSimulator.java</text>
</a>
</g>
</g>
<!-- Node2 -->
<g id="Node000002" class="node">
<title>Node2</title>
<g id="a_Node000002"><a xlink:title=" ">
<polygon fill="#e0e0e0" stroke="#999999" points="106,-26 0,-26 0,-6 106,-6 106,-26"/>
<text text-anchor="middle" x="53" y="-12.5" font-family="Helvetica,sans-Serif" font-size="10.00">java.awt.Component</text>
</a>
</g>
</g>
<!-- Node1&#45;&gt;Node2 -->
<g id="edge1_Node000001_Node000002" class="edge">
<title>Node1&#45;&gt;Node2</title>
<g id="a_edge1_Node000001_Node000002"><a xlink:title=" ">
<path fill="none" stroke="#63b8ff" d="M1554.12,-82.34C1255.85,-79.98 394.18,-69.98 115,-32 109.32,-31.23 103.39,-30.15 97.56,-28.93"/>
<polygon fill="#63b8ff" stroke="#63b8ff" points="98.55,-25.57 88.02,-26.77 97.01,-32.39 98.55,-25.57"/>
</a>
</g>
</g>
<!-- Node3 -->
<g id="Node000003" class="node">
<title>Node3</title>
<g id="a_Node000003"><a xlink:title=" ">
<polygon fill="#e0e0e0" stroke="#999999" points="221.88,-26 124.12,-26 124.12,-6 221.88,-6 221.88,-26"/>
<text text-anchor="middle" x="173" y="-12.5" font-family="Helvetica,sans-Serif" font-size="10.00">java.awt.Container</text>
</a>
</g>
</g>
<!-- Node1&#45;&gt;Node3 -->
<g id="edge2_Node000001_Node000003" class="edge">
<title>Node1&#45;&gt;Node3</title>
<g id="a_edge2_Node000001_Node000003"><a xlink:title=" ">
<path fill="none" stroke="#63b8ff" d="M1554.08,-82.22C1271.28,-79.62 486.49,-69.15 231,-32 225.94,-31.26 220.69,-30.26 215.5,-29.11"/>
<polygon fill="#63b8ff" stroke="#63b8ff" points="216.37,-25.72 205.82,-26.79 214.73,-32.53 216.37,-25.72"/>
</a>
</g>
</g>
<!-- Node4 -->
<g id="Node000004" class="node">
<title>Node4</title>
<g id="a_Node000004"><a xlink:title=" ">
<polygon fill="#e0e0e0" stroke="#999999" points="318.12,-26 239.88,-26 239.88,-6 318.12,-6 318.12,-26"/>
<text text-anchor="middle" x="279" y="-12.5" font-family="Helvetica,sans-Serif" font-size="10.00">java.awt.Point</text>
</a>
</g>
</g>
<!-- Node1&#45;&gt;Node4 -->
<g id="edge3_Node000001_Node000004" class="edge">
<title>Node1&#45;&gt;Node4</title>
<g id="a_edge3_Node000001_Node000004"><a xlink:title=" ">
<path fill="none" stroke="#63b8ff" d="M1554.4,-82.57C1285.06,-80.87 562.4,-72.56 327,-32 323.34,-31.37 319.58,-30.54 315.84,-29.58"/>
<polygon fill="#63b8ff" stroke="#63b8ff" points="316.88,-26.24 306.31,-26.87 314.96,-32.97 316.88,-26.24"/>
</a>
</g>
</g>
<!-- Node5 -->
<g id="Node000005" class="node">
<title>Node5</title>
<g id="a_Node000005"><a xlink:title=" ">
<polygon fill="#e0e0e0" stroke="#999999" points="418,-26 336,-26 336,-6 418,-6 418,-26"/>
<text text-anchor="middle" x="377" y="-12.5" font-family="Helvetica,sans-Serif" font-size="10.00">java.awt.Robot</text>
</a>
</g>
</g>
<!-- Node1&#45;&gt;Node5 -->
<g id="edge4_Node000001_Node000005" class="edge">
<title>Node1&#45;&gt;Node5</title>
<g id="a_edge4_Node000001_Node000005"><a xlink:title=" ">
<path fill="none" stroke="#63b8ff" d="M1554.33,-82.04C1299.41,-79.13 642.65,-68.23 427,-32 423.08,-31.34 419.04,-30.47 415.03,-29.48"/>
<polygon fill="#63b8ff" stroke="#63b8ff" points="415.98,-26.11 405.41,-26.83 414.13,-32.86 415.98,-26.11"/>
</a>
</g>
</g>
<!-- Node6 -->
<g id="Node000006" class="node">
<title>Node6</title>
<g id="a_Node000006"><a xlink:title=" ">
<polygon fill="#e0e0e0" stroke="#999999" points="527.5,-26 436.5,-26 436.5,-6 527.5,-6 527.5,-26"/>
<text text-anchor="middle" x="482" y="-12.5" font-family="Helvetica,sans-Serif" font-size="10.00">java.awt.Window</text>
</a>
</g>
</g>
<!-- Node1&#45;&gt;Node6 -->
<g id="edge5_Node000001_Node000006" class="edge">
<title>Node1&#45;&gt;Node6</title>
<g id="a_edge5_Node000001_Node000006"><a xlink:title=" ">
<path fill="none" stroke="#63b8ff" d="M1554,-81.22C1315.54,-76.61 731.09,-62.5 537,-32 532.38,-31.27 527.59,-30.3 522.86,-29.21"/>
<polygon fill="#63b8ff" stroke="#63b8ff" points="524.02,-25.89 513.47,-26.84 522.31,-32.68 524.02,-25.89"/>
</a>
</g>
</g>
<!-- Node7 -->
<g id="Node000007" class="node">
<title>Node7</title>
<g id="a_Node000007"><a xlink:title=" ">
<polygon fill="#e0e0e0" stroke="#999999" points="676,-26 546,-26 546,-6 676,-6 676,-26"/>
<text text-anchor="middle" x="611" y="-12.5" font-family="Helvetica,sans-Serif" font-size="10.00">java.awt.event.InputEvent</text>
</a>
</g>
</g>
<!-- Node1&#45;&gt;Node7 -->
<g id="edge6_Node000001_Node000007" class="edge">
<title>Node1&#45;&gt;Node7</title>
<g id="a_edge6_Node000001_Node000007"><a xlink:title=" ">
<path fill="none" stroke="#63b8ff" d="M1554.05,-82.58C1376.13,-80.74 999.95,-71.96 685,-32 678,-31.11 670.68,-29.93 663.47,-28.63"/>
<polygon fill="#63b8ff" stroke="#63b8ff" points="664.27,-25.22 653.79,-26.78 662.96,-32.09 664.27,-25.22"/>
</a>
</g>
</g>
<!-- Node8 -->
<g id="Node000008" class="node">
<title>Node8</title>
<g id="a_Node000008"><a xlink:title=" ">
<polygon fill="#e0e0e0" stroke="#999999" points="819.75,-26 694.25,-26 694.25,-6 819.75,-6 819.75,-26"/>
<text text-anchor="middle" x="757" y="-12.5" font-family="Helvetica,sans-Serif" font-size="10.00">java.awt.event.KeyEvent</text>
</a>
</g>
</g>
<!-- Node1&#45;&gt;Node8 -->
<g id="edge7_Node000001_Node000008" class="edge">
<title>Node1&#45;&gt;Node8</title>
<g id="a_edge7_Node000001_Node000008"><a xlink:title=" ">
<path fill="none" stroke="#63b8ff" d="M1554.24,-81.42C1397.26,-77.93 1088.61,-66.85 829,-32 822.27,-31.1 815.23,-29.92 808.3,-28.63"/>
<polygon fill="#63b8ff" stroke="#63b8ff" points="809.16,-25.23 798.67,-26.73 807.81,-32.1 809.16,-25.23"/>
</a>
</g>
</g>
<!-- Node9 -->
<g id="Node000009" class="node">
<title>Node9</title>
<g id="a_Node000009"><a xlink:title=" ">
<polygon fill="#e0e0e0" stroke="#999999" points="924.25,-26 837.75,-26 837.75,-6 924.25,-6 924.25,-26"/>
<text text-anchor="middle" x="881" y="-12.5" font-family="Helvetica,sans-Serif" font-size="10.00">java.util.Objects</text>
</a>
</g>
</g>
<!-- Node1&#45;&gt;Node9 -->
<g id="edge8_Node000001_Node000009" class="edge">
<title>Node1&#45;&gt;Node9</title>
<g id="a_edge8_Node000001_Node000009"><a xlink:title=" ">
<path fill="none" stroke="#63b8ff" d="M1554.13,-82.36C1413.19,-79.99 1152.62,-70.23 934,-32 929.9,-31.28 925.65,-30.37 921.44,-29.36"/>
<polygon fill="#63b8ff" stroke="#63b8ff" points="922.49,-26.02 911.93,-26.88 920.72,-32.79 922.49,-26.02"/>
</a>
</g>
</g>
<!-- Node10 -->
<g id="Node000010" class="node">
<title>Node10</title>
<g id="a_Node000010"><a xlink:title=" ">
<polygon fill="#e0e0e0" stroke="#999999" points="1047.25,-26 942.75,-26 942.75,-6 1047.25,-6 1047.25,-26"/>
<text text-anchor="middle" x="995" y="-12.5" font-family="Helvetica,sans-Serif" font-size="10.00">javax.swing.JButton</text>
</a>
</g>
</g>
<!-- Node1&#45;&gt;Node10 -->
<g id="edge9_Node000001_Node000010" class="edge">
<title>Node1&#45;&gt;Node10</title>
<g id="a_edge9_Node000001_Node000010"><a xlink:title=" ">
<path fill="none" stroke="#63b8ff" d="M1554.04,-79.16C1433.87,-73.56 1229.46,-60.51 1056,-32 1050.96,-31.17 1045.72,-30.14 1040.53,-29.02"/>
<polygon fill="#63b8ff" stroke="#63b8ff" points="1041.33,-25.61 1030.8,-26.78 1039.76,-32.43 1041.33,-25.61"/>
</a>
</g>
</g>
<!-- Node11 -->
<g id="Node000011" class="node">
<title>Node11</title>
<g id="a_Node000011"><a xlink:title=" ">
<polygon fill="#e0e0e0" stroke="#999999" points="1201,-26 1065,-26 1065,-6 1201,-6 1201,-26"/>
<text text-anchor="middle" x="1133" y="-12.5" font-family="Helvetica,sans-Serif" font-size="10.00">javax.swing.JColorChooser</text>
</a>
</g>
</g>
<!-- Node1&#45;&gt;Node11 -->
<g id="edge10_Node000001_Node000011" class="edge">
<title>Node1&#45;&gt;Node11</title>
<g id="a_edge10_Node000001_Node000011"><a xlink:title=" ">
<path fill="none" stroke="#63b8ff" d="M1554.17,-73.59C1463.37,-64.73 1327.53,-50.12 1210,-32 1203.45,-30.99 1196.6,-29.82 1189.81,-28.59"/>
<polygon fill="#63b8ff" stroke="#63b8ff" points="1190.46,-25.15 1179.99,-26.76 1189.17,-32.03 1190.46,-25.15"/>
</a>
</g>
</g>
<!-- Node12 -->
<g id="Node000012" class="node">
<title>Node12</title>
<g id="a_Node000012"><a xlink:title=" ">
<polygon fill="#e0e0e0" stroke="#999999" points="1322.88,-26 1219.12,-26 1219.12,-6 1322.88,-6 1322.88,-26"/>
<text text-anchor="middle" x="1271" y="-12.5" font-family="Helvetica,sans-Serif" font-size="10.00">javax.swing.JDialog</text>
</a>
</g>
</g>
<!-- Node1&#45;&gt;Node12 -->
<g id="edge11_Node000001_Node000012" class="edge">
<title>Node1&#45;&gt;Node12</title>
<g id="a_edge11_Node000001_Node000012"><a xlink:title=" ">
<path fill="none" stroke="#63b8ff" d="M1554.14,-69.15C1490.01,-59.95 1405.91,-46.86 1332,-32 1327.61,-31.12 1323.07,-30.13 1318.53,-29.1"/>
<polygon fill="#63b8ff" stroke="#63b8ff" points="1319.34,-25.7 1308.81,-26.82 1317.74,-32.51 1319.34,-25.7"/>
</a>
</g>
</g>
<!-- Node13 -->
<g id="Node000013" class="node">
<title>Node13</title>
<g id="a_Node000013"><a xlink:title=" ">
<polygon fill="#e0e0e0" stroke="#999999" points="1469.25,-26 1340.75,-26 1340.75,-6 1469.25,-6 1469.25,-26"/>
<text text-anchor="middle" x="1405" y="-12.5" font-family="Helvetica,sans-Serif" font-size="10.00">javax.swing.JFileChooser</text>
</a>
</g>
</g>
<!-- Node1&#45;&gt;Node13 -->
<g id="edge12_Node000001_Node000013" class="edge">
<title>Node1&#45;&gt;Node13</title>
<g id="a_edge12_Node000001_Node000013"><a xlink:title=" ">
<path fill="none" stroke="#63b8ff" d="M1597.92,-67.53C1553.5,-55.89 1493.46,-40.17 1452.22,-29.37"/>
<polygon fill="#63b8ff" stroke="#63b8ff" points="1453.14,-25.99 1442.58,-26.84 1451.37,-32.76 1453.14,-25.99"/>
</a>
</g>
</g>
<!-- Node14 -->
<g id="Node000014" class="node">
<title>Node14</title>
<g id="a_Node000014"><a xlink:title=" ">
<polygon fill="#e0e0e0" stroke="#999999" points="1578.88,-26 1487.12,-26 1487.12,-6 1578.88,-6 1578.88,-26"/>
<text text-anchor="middle" x="1533" y="-12.5" font-family="Helvetica,sans-Serif" font-size="10.00">javax.swing.JList</text>
</a>
</g>
</g>
<!-- Node1&#45;&gt;Node14 -->
<g id="edge13_Node000001_Node000014" class="edge">
<title>Node1&#45;&gt;Node14</title>
<g id="a_edge13_Node000001_Node000014"><a xlink:title=" ">
<path fill="none" stroke="#63b8ff" d="M1627.93,-67.53C1607.66,-56.74 1580.78,-42.43 1560.8,-31.8"/>
<polygon fill="#63b8ff" stroke="#63b8ff" points="1562.58,-28.78 1552.11,-27.17 1559.29,-34.96 1562.58,-28.78"/>
</a>
</g>
</g>
<!-- Node15 -->
<g id="Node000015" class="node">
<title>Node15</title>
<g id="a_Node000015"><a xlink:title=" ">
<polygon fill="#e0e0e0" stroke="#999999" points="1716.75,-26 1597.25,-26 1597.25,-6 1716.75,-6 1716.75,-26"/>
<text text-anchor="middle" x="1657" y="-12.5" font-family="Helvetica,sans-Serif" font-size="10.00">javax.swing.JMenuItem</text>
</a>
</g>
</g>
<!-- Node1&#45;&gt;Node15 -->
<g id="edge14_Node000001_Node000015" class="edge">
<title>Node1&#45;&gt;Node15</title>
<g id="a_edge14_Node000001_Node000015"><a xlink:title=" ">
<path fill="none" stroke="#63b8ff" d="M1657,-67.69C1657,-58.8 1657,-47.46 1657,-37.77"/>
<polygon fill="#63b8ff" stroke="#63b8ff" points="1660.5,-37.83 1657,-27.83 1653.5,-37.83 1660.5,-37.83"/>
</a>
</g>
</g>
<!-- Node16 -->
<g id="Node000016" class="node">
<title>Node16</title>
<g id="a_Node000016"><a xlink:title=" ">
<polygon fill="#e0e0e0" stroke="#999999" points="1861.5,-26 1734.5,-26 1734.5,-6 1861.5,-6 1861.5,-26"/>
<text text-anchor="middle" x="1798" y="-12.5" font-family="Helvetica,sans-Serif" font-size="10.00">javax.swing.JOptionPane</text>
</a>
</g>
</g>
<!-- Node1&#45;&gt;Node16 -->
<g id="edge15_Node000001_Node000016" class="edge">
<title>Node1&#45;&gt;Node16</title>
<g id="a_edge15_Node000001_Node000016"><a xlink:title=" ">
<path fill="none" stroke="#63b8ff" d="M1690.06,-67.53C1713.53,-56.54 1744.8,-41.9 1767.64,-31.21"/>
<polygon fill="#63b8ff" stroke="#63b8ff" points="1768.85,-34.51 1776.42,-27.1 1765.88,-28.17 1768.85,-34.51"/>
</a>
</g>
</g>
<!-- Node17 -->
<g id="Node000017" class="node">
<title>Node17</title>
<g id="a_Node000017"><a xlink:title=" ">
<polygon fill="#e0e0e0" stroke="#999999" points="2006.88,-26 1879.12,-26 1879.12,-6 2006.88,-6 2006.88,-26"/>
<text text-anchor="middle" x="1943" y="-12.5" font-family="Helvetica,sans-Serif" font-size="10.00">javax.swing.JPopupMenu</text>
</a>
</g>
</g>
<!-- Node1&#45;&gt;Node17 -->
<g id="edge16_Node000001_Node000017" class="edge">
<title>Node1&#45;&gt;Node17</title>
<g id="a_edge16_Node000001_Node000017"><a xlink:title=" ">
<path fill="none" stroke="#63b8ff" d="M1724.05,-67.53C1775,-55.77 1844.06,-39.83 1890.9,-29.02"/>
<polygon fill="#63b8ff" stroke="#63b8ff" points="1891.57,-32.46 1900.53,-26.8 1890,-25.64 1891.57,-32.46"/>
</a>
</g>
</g>
<!-- Node18 -->
<g id="Node000018" class="node">
<title>Node18</title>
<g id="a_Node000018"><a xlink:title=" ">
<polygon fill="#e0e0e0" stroke="#999999" points="2155,-26 2025,-26 2025,-6 2155,-6 2155,-26"/>
<text text-anchor="middle" x="2090" y="-12.5" font-family="Helvetica,sans-Serif" font-size="10.00">javax.swing.JRadioButton</text>
</a>
</g>
</g>
<!-- Node1&#45;&gt;Node18 -->
<g id="edge17_Node000001_Node000018" class="edge">
<title>Node1&#45;&gt;Node18</title>
<g id="a_edge17_Node000001_Node000018"><a xlink:title=" ">
<path fill="none" stroke="#63b8ff" d="M1759.77,-70.03C1831.69,-60.56 1929.92,-46.83 2016,-32 2021.97,-30.97 2028.21,-29.82 2034.41,-28.64"/>
<polygon fill="#63b8ff" stroke="#63b8ff" points="2034.84,-32.12 2043.98,-26.76 2033.5,-25.25 2034.84,-32.12"/>
</a>
</g>
</g>
<!-- Node19 -->
<g id="Node000019" class="node">
<title>Node19</title>
<g id="a_Node000019"><a xlink:title=" ">
<polygon fill="#e0e0e0" stroke="#999999" points="2273.38,-26 2172.62,-26 2172.62,-6 2273.38,-6 2273.38,-26"/>
<text text-anchor="middle" x="2223" y="-12.5" font-family="Helvetica,sans-Serif" font-size="10.00">javax.swing.JSlider</text>
</a>
</g>
</g>
<!-- Node1&#45;&gt;Node19 -->
<g id="edge18_Node000001_Node000019" class="edge">
<title>Node1&#45;&gt;Node19</title>
<g id="a_edge18_Node000001_Node000019"><a xlink:title=" ">
<path fill="none" stroke="#63b8ff" d="M1759.58,-77.17C1862.43,-70.28 2025.04,-56.51 2164,-32 2168.68,-31.17 2173.54,-30.17 2178.37,-29.09"/>
<polygon fill="#63b8ff" stroke="#63b8ff" points="2179.1,-32.51 2188.02,-26.79 2177.48,-25.7 2179.1,-32.51"/>
</a>
</g>
</g>
<!-- Node20 -->
<g id="Node000020" class="node">
<title>Node20</title>
<g id="a_Node000020"><a xlink:title=" ">
<polygon fill="#e0e0e0" stroke="#999999" points="2406.5,-26 2291.5,-26 2291.5,-6 2406.5,-6 2406.5,-26"/>
<text text-anchor="middle" x="2349" y="-12.5" font-family="Helvetica,sans-Serif" font-size="10.00">javax.swing.JTextArea</text>
</a>
</g>
</g>
<!-- Node1&#45;&gt;Node20 -->
<g id="edge19_Node000001_Node000020" class="edge">
<title>Node1&#45;&gt;Node20</title>
<g id="a_edge19_Node000001_Node000020"><a xlink:title=" ">
<path fill="none" stroke="#63b8ff" d="M1759.81,-78.99C1884.09,-73.14 2099.3,-59.77 2282,-32 2287.74,-31.13 2293.73,-30.04 2299.66,-28.86"/>
<polygon fill="#63b8ff" stroke="#63b8ff" points="2300.36,-32.29 2309.43,-26.8 2298.92,-25.44 2300.36,-32.29"/>
</a>
</g>
</g>
<!-- Node21 -->
<g id="Node000021" class="node">
<title>Node21</title>
<g id="a_Node000021"><a xlink:title=" ">
<polygon fill="#e0e0e0" stroke="#999999" points="2539.88,-26 2424.12,-26 2424.12,-6 2539.88,-6 2539.88,-26"/>
<text text-anchor="middle" x="2482" y="-12.5" font-family="Helvetica,sans-Serif" font-size="10.00">javax.swing.JTextField</text>
</a>
</g>
</g>
<!-- Node1&#45;&gt;Node21 -->
<g id="edge20_Node000001_Node000021" class="edge">
<title>Node1&#45;&gt;Node21</title>
<g id="a_edge20_Node000001_Node000021"><a xlink:title=" ">
<path fill="none" stroke="#63b8ff" d="M1759.74,-81.18C1906.15,-77.44 2182.91,-66.11 2416,-32 2421.96,-31.13 2428.18,-30 2434.31,-28.76"/>
<polygon fill="#63b8ff" stroke="#63b8ff" points="2434.66,-32.27 2443.71,-26.75 2433.2,-25.42 2434.66,-32.27"/>
</a>
</g>
</g>
<!-- Node22 -->
<g id="Node000022" class="node">
<title>Node22</title>
<g id="a_Node000022"><a xlink:title=" ">
<polygon fill="#e0e0e0" stroke="#999999" points="2669.62,-26 2558.38,-26 2558.38,-6 2669.62,-6 2669.62,-26"/>
<text text-anchor="middle" x="2614" y="-12.5" font-family="Helvetica,sans-Serif" font-size="10.00">javax.swing.JWindow</text>
</a>
</g>
</g>
<!-- Node1&#45;&gt;Node22 -->
<g id="edge21_Node000001_Node000022" class="edge">
<title>Node1&#45;&gt;Node22</title>
<g id="a_edge21_Node000001_Node000022"><a xlink:title=" ">
<path fill="none" stroke="#63b8ff" d="M1759.9,-82.77C1926.51,-81.13 2265.31,-72.54 2549,-32 2554.95,-31.15 2561.15,-30.03 2567.27,-28.78"/>
<polygon fill="#63b8ff" stroke="#63b8ff" points="2567.6,-32.29 2576.63,-26.75 2566.11,-25.45 2567.6,-32.29"/>
</a>
</g>
</g>
<!-- Node23 -->
<g id="Node000023" class="node">
<title>Node23</title>
<g id="a_Node000023"><a xlink:title=" ">
<polygon fill="#e0e0e0" stroke="#999999" points="2818.38,-26 2687.62,-26 2687.62,-6 2818.38,-6 2818.38,-26"/>
<text text-anchor="middle" x="2753" y="-12.5" font-family="Helvetica,sans-Serif" font-size="10.00">javax.swing.SwingUtilities</text>
</a>
</g>
</g>
<!-- Node1&#45;&gt;Node23 -->
<g id="edge22_Node000001_Node000023" class="edge">
<title>Node1&#45;&gt;Node23</title>
<g id="a_edge22_Node000001_Node000023"><a xlink:title=" ">
<path fill="none" stroke="#63b8ff" d="M1759.71,-82.96C1944.41,-81.76 2344.53,-74 2679,-32 2686.08,-31.11 2693.5,-29.92 2700.8,-28.6"/>
<polygon fill="#63b8ff" stroke="#63b8ff" points="2701.43,-32.04 2710.6,-26.72 2700.12,-25.16 2701.43,-32.04"/>
</a>
</g>
</g>
<!-- Node24 -->
<g id="Node000024" class="node">
<title>Node24</title>
<g id="a_Node000024"><a xlink:title=" ">
<polygon fill="#e0e0e0" stroke="#999999" points="2999.12,-32 2836.88,-32 2836.88,0 2999.12,0 2999.12,-32"/>
<text text-anchor="start" x="2844.88" y="-18.5" font-family="Helvetica,sans-Serif" font-size="10.00">com.formdev.flatlaf.intellijthemes.</text>
<text text-anchor="middle" x="2918" y="-6.5" font-family="Helvetica,sans-Serif" font-size="10.00">FlatCobalt2IJTheme</text>
</a>
</g>
</g>
<!-- Node1&#45;&gt;Node24 -->
<g id="edge23_Node000001_Node000024" class="edge">
<title>Node1&#45;&gt;Node24</title>
<g id="a_edge23_Node000001_Node000024"><a xlink:title=" ">
<path fill="none" stroke="#63b8ff" d="M1759.81,-82.65C1961.96,-81.06 2425.46,-72.94 2825.48,-32.05"/>
<polygon fill="#63b8ff" stroke="#63b8ff" points="2825.61,-35.56 2835.19,-31.05 2824.89,-28.6 2825.61,-35.56"/>
</a>
</g>
</g>
<!-- Node25 -->
<g id="Node000025" class="node">
<title>Node25</title>
<g id="a_Node000025"><a xlink:title=" ">
<polygon fill="#e0e0e0" stroke="#999999" points="3211.25,-32 3016.75,-32 3016.75,0 3211.25,0 3211.25,-32"/>
<text text-anchor="start" x="3024.75" y="-18.5" font-family="Helvetica,sans-Serif" font-size="10.00">com.github.lgooddatepicker.components.</text>
<text text-anchor="middle" x="3114" y="-6.5" font-family="Helvetica,sans-Serif" font-size="10.00">TimePicker</text>
</a>
</g>
</g>
<!-- Node1&#45;&gt;Node25 -->
<g id="edge24_Node000001_Node000025" class="edge">
<title>Node1&#45;&gt;Node25</title>
<g id="a_edge24_Node000001_Node000025"><a xlink:title=" ">
<path fill="none" stroke="#63b8ff" d="M1759.76,-82.72C1984.05,-81.33 2534.39,-73.66 3004.98,-32.21"/>
<polygon fill="#63b8ff" stroke="#63b8ff" points="3005.27,-35.7 3014.92,-31.33 3004.65,-28.72 3005.27,-35.7"/>
</a>
</g>
</g>
<!-- Node26 -->
<g id="Node000026" class="node">
<title>Node26</title>
<g id="a_Node000026"><a xlink:title=" ">
<polygon fill="#e0e0e0" stroke="#999999" points="3362.5,-32 3229.5,-32 3229.5,0 3362.5,0 3362.5,-32"/>
<text text-anchor="start" x="3237.5" y="-18.5" font-family="Helvetica,sans-Serif" font-size="10.00">fr.softsf.canscan.constant.</text>
<text text-anchor="middle" x="3296" y="-6.5" font-family="Helvetica,sans-Serif" font-size="10.00">StringConstants</text>
</a>
</g>
</g>
<!-- Node1&#45;&gt;Node26 -->
<g id="edge25_Node000001_Node000026" class="edge">
<title>Node1&#45;&gt;Node26</title>
<g id="a_edge25_Node000001_Node000026"><a xlink:title=" ">
<path fill="none" stroke="#63b8ff" d="M1759.86,-81.82C2057.07,-78.08 2914.56,-64.79 3218.36,-32.01"/>
<polygon fill="#63b8ff" stroke="#63b8ff" points="3218.31,-35.54 3227.86,-30.95 3217.54,-28.58 3218.31,-35.54"/>
</a>
</g>
</g>
<!-- Node27 -->
<g id="Node000027" class="node">
<title>Node27</title>
<g id="a_Node000027"><a xlink:title=" ">
<polygon fill="#e0e0e0" stroke="#999999" points="3525.12,-32 3380.88,-32 3380.88,0 3525.12,0 3525.12,-32"/>
<text text-anchor="start" x="3388.88" y="-18.5" font-family="Helvetica,sans-Serif" font-size="10.00">fr.softsf.canscan.util.Browser</text>
<text text-anchor="middle" x="3453" y="-6.5" font-family="Helvetica,sans-Serif" font-size="10.00">Helper</text>
</a>
</g>
</g>
<!-- Node1&#45;&gt;Node27 -->
<g id="edge26_Node000001_Node000027" class="edge">
<title>Node1&#45;&gt;Node27</title>
<g id="a_edge26_Node000001_Node000027"><a xlink:title=" ">
<path fill="none" stroke="#63b8ff" d="M1759.77,-82.01C2076.33,-78.65 3034.89,-65.97 3369.5,-32.13"/>
<polygon fill="#63b8ff" stroke="#63b8ff" points="3369.57,-35.64 3379.15,-31.12 3368.84,-28.68 3369.57,-35.64"/>
</a>
</g>
</g>
<!-- Node28 -->
<g id="Node000028" class="node">
<title>Node28</title>
<g id="a_Node000028"><a xlink:title=" ">
<polygon fill="#e0e0e0" stroke="#999999" points="3670.88,-32 3543.12,-32 3543.12,0 3670.88,0 3670.88,-32"/>
<text text-anchor="start" x="3551.12" y="-18.5" font-family="Helvetica,sans-Serif" font-size="10.00">fr.softsf.canscan.util.Font</text>
<text text-anchor="middle" x="3607" y="-6.5" font-family="Helvetica,sans-Serif" font-size="10.00">Manager</text>
</a>
</g>
</g>
<!-- Node1&#45;&gt;Node28 -->
<g id="edge27_Node000001_Node000028" class="edge">
<title>Node1&#45;&gt;Node28</title>
<g id="a_edge27_Node000001_Node000028"><a xlink:title=" ">
<path fill="none" stroke="#63b8ff" d="M1759.82,-82.58C2096.35,-80.85 3163.88,-72.33 3531.8,-32.07"/>
<polygon fill="#63b8ff" stroke="#63b8ff" points="3531.96,-35.58 3541.5,-30.98 3531.18,-28.62 3531.96,-35.58"/>
</a>
</g>
</g>
</g>
</svg>

<g id="navigator" transform="translate(0 0)" fill="#404254">
  <rect fill="#f2f5e9" fill-opacity="0.5" stroke="#606060" stroke-width=".5" x="0" y="0" width="60" height="60"/>
  <use id="zoomplus" xlink:href="#zoomPlus" x="17" y="9" onmousedown="handleZoom(evt,'in')"/>
  <use id="zoomminus" xlink:href="#zoomMin" x="42" y="9" onmousedown="handleZoom(evt,'out')"/>
  <use id="reset" xlink:href="#resetDef" x="30" y="36" onmousedown="handleReset()"/>
   <use id="arrowup" xlink:href="#arrowUp" x="0" y="0" onmousedown="handlePan(0,-1)"/>
  <use id="arrowright" xlink:href="#arrowRight" x="0" y="0" onmousedown="handlePan(1,0)"/>
  <use id="arrowdown" xlink:href="#arrowDown" x="0" y="0" onmousedown="handlePan(0,1)"/>
  <use id="arrowleft" xlink:href="#arrowLeft" x="0" y="0" onmousedown="handlePan(-1,0)"/>
</g>
<svg viewBox="0 0 15 15" width="100%" height="30px" preserveAspectRatio="xMaxYMin meet">
 <g id="arrow_out" transform="scale(0.3 0.3)">
  <a xlink:href="_native_image_config_simulator_8java__incl_org.svg" target="_base">
   <rect id="button" ry="5" rx="5" y="6" x="6" height="38" width="38"
        fill="#f2f5e9" fill-opacity="0.5" stroke="#606060" stroke-width="1.0"/>
   <path id="arrow"
     d="M 11.500037,31.436501 C 11.940474,20.09759 22.043105,11.32322 32.158766,21.979434 L 37.068811,17.246167 C 37.068811,17.246167 37.088388,32 37.088388,32 L 22.160133,31.978069 C 22.160133,31.978069 26.997745,27.140456 26.997745,27.140456 C 18.528582,18.264221 13.291696,25.230495 11.500037,31.436501 z"
     style="fill:#404040;"/>
  </a>
 </g>
</svg>

<style type='text/css'>
<![CDATA[
[data-mouse-over-selected='false'] { opacity: 0.7; }
[data-mouse-over-selected='true']  { opacity: 1.0; }
]]>
</style>
<script type="application/ecmascript"><![CDATA[
document.addEventListener('DOMContentLoaded', (event) => {
  highlightEdges();
  highlightAdjacentNodes();
});
]]></script>
</svg>
