<?xml version="1.0" encoding="UTF-8" standalone="no"?>
<!DOCTYPE svg PUBLIC "-//W3C//DTD SVG 1.1//EN"
 "http://www.w3.org/Graphics/SVG/1.1/DTD/svg11.dtd">
<!-- Generated by graphviz version 12.2.1 (20241206.2353)
 -->
<!-- Title: src/main/java/fr/softsf/canscan/model/NativeImageUiComponents.java Pages: 1 -->
<svg width="1039pt" height="120pt"
 viewBox="0.00 0.00 1038.75 120.00" xmlns="http://www.w3.org/2000/svg" xmlns:xlink="http://www.w3.org/1999/xlink">
<g id="graph0" class="graph" transform="scale(1 1) rotate(0) translate(4 116)">
<title>src/main/java/fr/softsf/canscan/model/NativeImageUiComponents.java</title>
<!-- Node1 -->
<g id="Node000001" class="node">
<title>Node1</title>
<g id="a_Node000001"><a xlink:title=" ">
<polygon fill="#999999" stroke="#666666" points="522.88,-112 369.62,-112 369.62,-68 522.88,-68 522.88,-112"/>
<text text-anchor="start" x="377.62" y="-98.5" font-family="Helvetica,sans-Serif" font-size="10.00">src/main/java/fr/softsf</text>
<text text-anchor="start" x="377.62" y="-86.5" font-family="Helvetica,sans-Serif" font-size="10.00">/canscan/model/NativeImageUi</text>
<text text-anchor="middle" x="446.25" y="-74.5" font-family="Helvetica,sans-Serif" font-size="10.00">Components.java</text>
</a>
</g>
</g>
<!-- Node2 -->
<g id="Node000002" class="node">
<title>Node2</title>
<g id="a_Node000002"><a xlink:title=" ">
<polygon fill="#e0e0e0" stroke="#999999" points="104.5,-26 0,-26 0,-6 104.5,-6 104.5,-26"/>
<text text-anchor="middle" x="52.25" y="-12.5" font-family="Helvetica,sans-Serif" font-size="10.00">javax.swing.JButton</text>
</a>
</g>
</g>
<!-- Node1&#45;&gt;Node2 -->
<g id="edge1_Node000001_Node000002" class="edge">
<title>Node1&#45;&gt;Node2</title>
<g id="a_edge1_Node000001_Node000002"><a xlink:title=" ">
<path fill="none" stroke="#63b8ff" d="M369.24,-77.42C301.56,-66.86 200.53,-50.18 113.25,-32 108.93,-31.1 104.45,-30.11 99.97,-29.08"/>
<polygon fill="#63b8ff" stroke="#63b8ff" points="100.94,-25.71 90.4,-26.82 99.33,-32.52 100.94,-25.71"/>
</a>
</g>
</g>
<!-- Node3 -->
<g id="Node000003" class="node">
<title>Node3</title>
<g id="a_Node000003"><a xlink:title=" ">
<polygon fill="#e0e0e0" stroke="#999999" points="252.25,-26 122.25,-26 122.25,-6 252.25,-6 252.25,-26"/>
<text text-anchor="middle" x="187.25" y="-12.5" font-family="Helvetica,sans-Serif" font-size="10.00">javax.swing.JRadioButton</text>
</a>
</g>
</g>
<!-- Node1&#45;&gt;Node3 -->
<g id="edge2_Node000001_Node000003" class="edge">
<title>Node1&#45;&gt;Node3</title>
<g id="a_edge2_Node000001_Node000003"><a xlink:title=" ">
<path fill="none" stroke="#63b8ff" d="M369.24,-67.59C324.46,-55.14 269.59,-39.89 231.88,-29.41"/>
<polygon fill="#63b8ff" stroke="#63b8ff" points="233.27,-26.16 222.69,-26.85 231.39,-32.9 233.27,-26.16"/>
</a>
</g>
</g>
<!-- Node4 -->
<g id="Node000004" class="node">
<title>Node4</title>
<g id="a_Node000004"><a xlink:title=" ">
<polygon fill="#e0e0e0" stroke="#999999" points="370.62,-26 269.88,-26 269.88,-6 370.62,-6 370.62,-26"/>
<text text-anchor="middle" x="320.25" y="-12.5" font-family="Helvetica,sans-Serif" font-size="10.00">javax.swing.JSlider</text>
</a>
</g>
</g>
<!-- Node1&#45;&gt;Node4 -->
<g id="edge3_Node000001_Node000004" class="edge">
<title>Node1&#45;&gt;Node4</title>
<g id="a_edge3_Node000001_Node000004"><a xlink:title=" ">
<path fill="none" stroke="#63b8ff" d="M408.79,-67.59C388.78,-56.16 364.63,-42.36 346.61,-32.06"/>
<polygon fill="#63b8ff" stroke="#63b8ff" points="348.52,-29.12 338.1,-27.2 345.04,-35.2 348.52,-29.12"/>
</a>
</g>
</g>
<!-- Node5 -->
<g id="Node000005" class="node">
<title>Node5</title>
<g id="a_Node000005"><a xlink:title=" ">
<polygon fill="#e0e0e0" stroke="#999999" points="503.75,-26 388.75,-26 388.75,-6 503.75,-6 503.75,-26"/>
<text text-anchor="middle" x="446.25" y="-12.5" font-family="Helvetica,sans-Serif" font-size="10.00">javax.swing.JTextArea</text>
</a>
</g>
</g>
<!-- Node1&#45;&gt;Node5 -->
<g id="edge4_Node000001_Node000005" class="edge">
<title>Node1&#45;&gt;Node5</title>
<g id="a_edge4_Node000001_Node000005"><a xlink:title=" ">
<path fill="none" stroke="#63b8ff" d="M446.25,-67.79C446.25,-58.32 446.25,-47.2 446.25,-37.78"/>
<polygon fill="#63b8ff" stroke="#63b8ff" points="449.75,-37.82 446.25,-27.82 442.75,-37.82 449.75,-37.82"/>
</a>
</g>
</g>
<!-- Node6 -->
<g id="Node000006" class="node">
<title>Node6</title>
<g id="a_Node000006"><a xlink:title=" ">
<polygon fill="#e0e0e0" stroke="#999999" points="637.12,-26 521.38,-26 521.38,-6 637.12,-6 637.12,-26"/>
<text text-anchor="middle" x="579.25" y="-12.5" font-family="Helvetica,sans-Serif" font-size="10.00">javax.swing.JTextField</text>
</a>
</g>
</g>
<!-- Node1&#45;&gt;Node6 -->
<g id="edge5_Node000001_Node000006" class="edge">
<title>Node1&#45;&gt;Node6</title>
<g id="a_edge5_Node000001_Node000006"><a xlink:title=" ">
<path fill="none" stroke="#63b8ff" d="M485.79,-67.59C507.02,-56.1 532.65,-42.23 551.69,-31.92"/>
<polygon fill="#63b8ff" stroke="#63b8ff" points="553.34,-35.01 560.47,-27.17 550.01,-28.85 553.34,-35.01"/>
</a>
</g>
</g>
<!-- Node7 -->
<g id="Node000007" class="node">
<title>Node7</title>
<g id="a_Node000007"><a xlink:title=" ">
<polygon fill="#e0e0e0" stroke="#999999" points="849.5,-32 655,-32 655,0 849.5,0 849.5,-32"/>
<text text-anchor="start" x="663" y="-18.5" font-family="Helvetica,sans-Serif" font-size="10.00">com.github.lgooddatepicker.components.</text>
<text text-anchor="middle" x="752.25" y="-6.5" font-family="Helvetica,sans-Serif" font-size="10.00">TimePicker</text>
</a>
</g>
</g>
<!-- Node1&#45;&gt;Node7 -->
<g id="edge6_Node000001_Node000007" class="edge">
<title>Node1&#45;&gt;Node7</title>
<g id="a_edge6_Node000001_Node000007"><a xlink:title=" ">
<path fill="none" stroke="#63b8ff" d="M523.07,-70.92C569.7,-59.95 629,-46 675.6,-35.04"/>
<polygon fill="#63b8ff" stroke="#63b8ff" points="676.14,-38.5 685.08,-32.81 674.54,-31.69 676.14,-38.5"/>
</a>
</g>
</g>
<!-- Node8 -->
<g id="Node000008" class="node">
<title>Node8</title>
<g id="a_Node000008"><a xlink:title=" ">
<polygon fill="#e0e0e0" stroke="#999999" points="1030.75,-32 867.75,-32 867.75,0 1030.75,0 1030.75,-32"/>
<text text-anchor="start" x="875.75" y="-18.5" font-family="Helvetica,sans-Serif" font-size="10.00">edu.umd.cs.findbugs.annotations.</text>
<text text-anchor="middle" x="949.25" y="-6.5" font-family="Helvetica,sans-Serif" font-size="10.00">SuppressFBWarnings</text>
</a>
</g>
</g>
<!-- Node1&#45;&gt;Node8 -->
<g id="edge7_Node000001_Node000008" class="edge">
<title>Node1&#45;&gt;Node8</title>
<g id="a_edge7_Node000001_Node000008"><a xlink:title=" ">
<path fill="none" stroke="#63b8ff" d="M523.03,-78.98C603.41,-68.36 733.62,-50.76 856.32,-32.27"/>
<polygon fill="#63b8ff" stroke="#63b8ff" points="856.55,-35.77 865.92,-30.82 855.51,-28.85 856.55,-35.77"/>
</a>
</g>
</g>
</g>
</svg>
