<?xml version="1.0" encoding="UTF-8" standalone="no"?>
<!DOCTYPE svg PUBLIC "-//W3C//DTD SVG 1.1//EN"
 "http://www.w3.org/Graphics/SVG/1.1/DTD/svg11.dtd">
<!-- Generated by graphviz version 12.2.1 (20241206.2353)
 -->
<!-- Title: src/test/java/fr/softsf/canscan/NativeImageConfigSimulator.java Pages: 1 -->
<svg width="3193pt" height="108pt"
 viewBox="0.00 0.00 3193.12 108.00" xmlns="http://www.w3.org/2000/svg" xmlns:xlink="http://www.w3.org/1999/xlink">
<g id="graph0" class="graph" transform="scale(1 1) rotate(0) translate(4 104)">
<title>src/test/java/fr/softsf/canscan/NativeImageConfigSimulator.java</title>
<!-- Node1 -->
<g id="Node000001" class="node">
<title>Node1</title>
<g id="a_Node000001"><a xlink:title=" ">
<polygon fill="#999999" stroke="#666666" points="1578.5,-100 1373.5,-100 1373.5,-68 1578.5,-68 1578.5,-100"/>
<text text-anchor="start" x="1381.5" y="-86.5" font-family="Helvetica,sans-Serif" font-size="10.00">src/test/java/fr/softsf</text>
<text text-anchor="middle" x="1476" y="-74.5" font-family="Helvetica,sans-Serif" font-size="10.00">/canscan/NativeImageConfigSimulator.java</text>
</a>
</g>
</g>
<!-- Node2 -->
<g id="Node000002" class="node">
<title>Node2</title>
<g id="a_Node000002"><a xlink:title=" ">
<polygon fill="#e0e0e0" stroke="#999999" points="106,-26 0,-26 0,-6 106,-6 106,-26"/>
<text text-anchor="middle" x="53" y="-12.5" font-family="Helvetica,sans-Serif" font-size="10.00">java.awt.Component</text>
</a>
</g>
</g>
<!-- Node1&#45;&gt;Node2 -->
<g id="edge1_Node000001_Node000002" class="edge">
<title>Node1&#45;&gt;Node2</title>
<g id="a_edge1_Node000001_Node000002"><a xlink:title=" ">
<path fill="none" stroke="#63b8ff" d="M1373.14,-81.81C1099.44,-78.21 357.71,-65.56 115,-32 109.38,-31.22 103.54,-30.16 97.77,-28.95"/>
<polygon fill="#63b8ff" stroke="#63b8ff" points="98.88,-25.61 88.35,-26.82 97.34,-32.44 98.88,-25.61"/>
</a>
</g>
</g>
<!-- Node3 -->
<g id="Node000003" class="node">
<title>Node3</title>
<g id="a_Node000003"><a xlink:title=" ">
<polygon fill="#e0e0e0" stroke="#999999" points="221.88,-26 124.12,-26 124.12,-6 221.88,-6 221.88,-26"/>
<text text-anchor="middle" x="173" y="-12.5" font-family="Helvetica,sans-Serif" font-size="10.00">java.awt.Container</text>
</a>
</g>
</g>
<!-- Node1&#45;&gt;Node3 -->
<g id="edge2_Node000001_Node000003" class="edge">
<title>Node1&#45;&gt;Node3</title>
<g id="a_edge2_Node000001_Node000003"><a xlink:title=" ">
<path fill="none" stroke="#63b8ff" d="M1373.1,-81.59C1115.94,-77.63 450.21,-64.46 231,-32 226,-31.26 220.82,-30.26 215.69,-29.13"/>
<polygon fill="#63b8ff" stroke="#63b8ff" points="216.67,-25.76 206.13,-26.83 215.04,-32.57 216.67,-25.76"/>
</a>
</g>
</g>
<!-- Node4 -->
<g id="Node000004" class="node">
<title>Node4</title>
<g id="a_Node000004"><a xlink:title=" ">
<polygon fill="#e0e0e0" stroke="#999999" points="318.12,-26 239.88,-26 239.88,-6 318.12,-6 318.12,-26"/>
<text text-anchor="middle" x="279" y="-12.5" font-family="Helvetica,sans-Serif" font-size="10.00">java.awt.Point</text>
</a>
</g>
</g>
<!-- Node1&#45;&gt;Node4 -->
<g id="edge3_Node000001_Node000004" class="edge">
<title>Node1&#45;&gt;Node4</title>
<g id="a_edge3_Node000001_Node000004"><a xlink:title=" ">
<path fill="none" stroke="#63b8ff" d="M1373.42,-81.84C1130.66,-78.54 526.38,-66.97 327,-32 323.39,-31.37 319.67,-30.54 315.98,-29.59"/>
<polygon fill="#63b8ff" stroke="#63b8ff" points="317.14,-26.28 306.56,-26.91 315.22,-33.02 317.14,-26.28"/>
</a>
</g>
</g>
<!-- Node5 -->
<g id="Node000005" class="node">
<title>Node5</title>
<g id="a_Node000005"><a xlink:title=" ">
<polygon fill="#e0e0e0" stroke="#999999" points="418,-26 336,-26 336,-6 418,-6 418,-26"/>
<text text-anchor="middle" x="377" y="-12.5" font-family="Helvetica,sans-Serif" font-size="10.00">java.awt.Robot</text>
</a>
</g>
</g>
<!-- Node1&#45;&gt;Node5 -->
<g id="edge4_Node000001_Node000005" class="edge">
<title>Node1&#45;&gt;Node5</title>
<g id="a_edge4_Node000001_Node000005"><a xlink:title=" ">
<path fill="none" stroke="#63b8ff" d="M1373.17,-81.18C1145.88,-76.63 606.7,-62.85 427,-32 423.13,-31.34 419.14,-30.47 415.18,-29.48"/>
<polygon fill="#63b8ff" stroke="#63b8ff" points="416.25,-26.15 405.68,-26.87 414.4,-32.9 416.25,-26.15"/>
</a>
</g>
</g>
<!-- Node6 -->
<g id="Node000006" class="node">
<title>Node6</title>
<g id="a_Node000006"><a xlink:title=" ">
<polygon fill="#e0e0e0" stroke="#999999" points="527.5,-26 436.5,-26 436.5,-6 527.5,-6 527.5,-26"/>
<text text-anchor="middle" x="482" y="-12.5" font-family="Helvetica,sans-Serif" font-size="10.00">java.awt.Window</text>
</a>
</g>
</g>
<!-- Node1&#45;&gt;Node6 -->
<g id="edge5_Node000001_Node000006" class="edge">
<title>Node1&#45;&gt;Node6</title>
<g id="a_edge5_Node000001_Node000006"><a xlink:title=" ">
<path fill="none" stroke="#63b8ff" d="M1373.07,-80.16C1163.84,-73.95 695.35,-57.6 537,-32 532.57,-31.28 527.97,-30.35 523.42,-29.3"/>
<polygon fill="#63b8ff" stroke="#63b8ff" points="524.31,-25.91 513.76,-26.87 522.61,-32.7 524.31,-25.91"/>
</a>
</g>
</g>
<!-- Node7 -->
<g id="Node000007" class="node">
<title>Node7</title>
<g id="a_Node000007"><a xlink:title=" ">
<polygon fill="#e0e0e0" stroke="#999999" points="676,-26 546,-26 546,-6 676,-6 676,-26"/>
<text text-anchor="middle" x="611" y="-12.5" font-family="Helvetica,sans-Serif" font-size="10.00">java.awt.event.InputEvent</text>
</a>
</g>
</g>
<!-- Node1&#45;&gt;Node7 -->
<g id="edge6_Node000001_Node000007" class="edge">
<title>Node1&#45;&gt;Node7</title>
<g id="a_edge6_Node000001_Node000007"><a xlink:title=" ">
<path fill="none" stroke="#63b8ff" d="M1373.17,-80.82C1221.85,-76.6 930.54,-64.65 685,-32 678.18,-31.09 671.04,-29.93 664,-28.64"/>
<polygon fill="#63b8ff" stroke="#63b8ff" points="664.67,-25.21 654.19,-26.77 663.36,-32.09 664.67,-25.21"/>
</a>
</g>
</g>
<!-- Node8 -->
<g id="Node000008" class="node">
<title>Node8</title>
<g id="a_Node000008"><a xlink:title=" ">
<polygon fill="#e0e0e0" stroke="#999999" points="819.75,-26 694.25,-26 694.25,-6 819.75,-6 819.75,-26"/>
<text text-anchor="middle" x="757" y="-12.5" font-family="Helvetica,sans-Serif" font-size="10.00">java.awt.event.KeyEvent</text>
</a>
</g>
</g>
<!-- Node1&#45;&gt;Node8 -->
<g id="edge7_Node000001_Node000008" class="edge">
<title>Node1&#45;&gt;Node8</title>
<g id="a_edge7_Node000001_Node000008"><a xlink:title=" ">
<path fill="none" stroke="#63b8ff" d="M1373.02,-78.91C1245,-72.91 1020.01,-59.31 829,-32 822.52,-31.07 815.75,-29.92 809.07,-28.66"/>
<polygon fill="#63b8ff" stroke="#63b8ff" points="809.94,-25.26 799.45,-26.76 808.58,-32.13 809.94,-25.26"/>
</a>
</g>
</g>
<!-- Node9 -->
<g id="Node000009" class="node">
<title>Node9</title>
<g id="a_Node000009"><a xlink:title=" ">
<polygon fill="#e0e0e0" stroke="#999999" points="924.25,-26 837.75,-26 837.75,-6 924.25,-6 924.25,-26"/>
<text text-anchor="middle" x="881" y="-12.5" font-family="Helvetica,sans-Serif" font-size="10.00">java.util.Objects</text>
</a>
</g>
</g>
<!-- Node1&#45;&gt;Node9 -->
<g id="edge8_Node000001_Node000009" class="edge">
<title>Node1&#45;&gt;Node9</title>
<g id="a_edge8_Node000001_Node000009"><a xlink:title=" ">
<path fill="none" stroke="#63b8ff" d="M1373.09,-78.89C1263.48,-73.22 1085.32,-60.29 934,-32 929.96,-31.24 925.77,-30.32 921.61,-29.3"/>
<polygon fill="#63b8ff" stroke="#63b8ff" points="922.79,-25.99 912.23,-26.83 921.01,-32.76 922.79,-25.99"/>
</a>
</g>
</g>
<!-- Node10 -->
<g id="Node000010" class="node">
<title>Node10</title>
<g id="a_Node000010"><a xlink:title=" ">
<polygon fill="#e0e0e0" stroke="#999999" points="1047.25,-26 942.75,-26 942.75,-6 1047.25,-6 1047.25,-26"/>
<text text-anchor="middle" x="995" y="-12.5" font-family="Helvetica,sans-Serif" font-size="10.00">javax.swing.JButton</text>
</a>
</g>
</g>
<!-- Node1&#45;&gt;Node10 -->
<g id="edge9_Node000001_Node000010" class="edge">
<title>Node1&#45;&gt;Node10</title>
<g id="a_edge9_Node000001_Node000010"><a xlink:title=" ">
<path fill="none" stroke="#63b8ff" d="M1373.21,-74C1287.86,-65.7 1163.48,-51.67 1056,-32 1051.16,-31.11 1046.14,-30.08 1041.14,-28.97"/>
<polygon fill="#63b8ff" stroke="#63b8ff" points="1042.33,-25.65 1031.8,-26.79 1040.75,-32.47 1042.33,-25.65"/>
</a>
</g>
</g>
<!-- Node11 -->
<g id="Node000011" class="node">
<title>Node11</title>
<g id="a_Node000011"><a xlink:title=" ">
<polygon fill="#e0e0e0" stroke="#999999" points="1201,-26 1065,-26 1065,-6 1201,-6 1201,-26"/>
<text text-anchor="middle" x="1133" y="-12.5" font-family="Helvetica,sans-Serif" font-size="10.00">javax.swing.JColorChooser</text>
</a>
</g>
</g>
<!-- Node1&#45;&gt;Node11 -->
<g id="edge10_Node000001_Node000011" class="edge">
<title>Node1&#45;&gt;Node11</title>
<g id="a_edge10_Node000001_Node000011"><a xlink:title=" ">
<path fill="none" stroke="#63b8ff" d="M1395.08,-67.55C1342.37,-57.47 1272.1,-44 1210,-32 1204.38,-30.91 1198.52,-29.78 1192.67,-28.64"/>
<polygon fill="#63b8ff" stroke="#63b8ff" points="1193.43,-25.23 1182.95,-26.75 1192.1,-32.1 1193.43,-25.23"/>
</a>
</g>
</g>
<!-- Node12 -->
<g id="Node000012" class="node">
<title>Node12</title>
<g id="a_Node000012"><a xlink:title=" ">
<polygon fill="#e0e0e0" stroke="#999999" points="1322.88,-26 1219.12,-26 1219.12,-6 1322.88,-6 1322.88,-26"/>
<text text-anchor="middle" x="1271" y="-12.5" font-family="Helvetica,sans-Serif" font-size="10.00">javax.swing.JDialog</text>
</a>
</g>
</g>
<!-- Node1&#45;&gt;Node12 -->
<g id="edge11_Node000001_Node000012" class="edge">
<title>Node1&#45;&gt;Node12</title>
<g id="a_edge11_Node000001_Node000012"><a xlink:title=" ">
<path fill="none" stroke="#63b8ff" d="M1427.94,-67.53C1392.42,-56.09 1344.63,-40.71 1311.15,-29.93"/>
<polygon fill="#63b8ff" stroke="#63b8ff" points="1312.42,-26.66 1301.82,-26.92 1310.27,-33.32 1312.42,-26.66"/>
</a>
</g>
</g>
<!-- Node13 -->
<g id="Node000013" class="node">
<title>Node13</title>
<g id="a_Node000013"><a xlink:title=" ">
<polygon fill="#e0e0e0" stroke="#999999" points="1469.25,-26 1340.75,-26 1340.75,-6 1469.25,-6 1469.25,-26"/>
<text text-anchor="middle" x="1405" y="-12.5" font-family="Helvetica,sans-Serif" font-size="10.00">javax.swing.JFileChooser</text>
</a>
</g>
</g>
<!-- Node1&#45;&gt;Node13 -->
<g id="edge12_Node000001_Node000013" class="edge">
<title>Node1&#45;&gt;Node13</title>
<g id="a_edge12_Node000001_Node000013"><a xlink:title=" ">
<path fill="none" stroke="#63b8ff" d="M1459.53,-67.69C1448.67,-57.6 1434.44,-44.36 1423.23,-33.95"/>
<polygon fill="#63b8ff" stroke="#63b8ff" points="1425.84,-31.59 1416.13,-27.35 1421.07,-36.72 1425.84,-31.59"/>
</a>
</g>
</g>
<!-- Node14 -->
<g id="Node000014" class="node">
<title>Node14</title>
<g id="a_Node000014"><a xlink:title=" ">
<polygon fill="#e0e0e0" stroke="#999999" points="1606.75,-26 1487.25,-26 1487.25,-6 1606.75,-6 1606.75,-26"/>
<text text-anchor="middle" x="1547" y="-12.5" font-family="Helvetica,sans-Serif" font-size="10.00">javax.swing.JMenuItem</text>
</a>
</g>
</g>
<!-- Node1&#45;&gt;Node14 -->
<g id="edge13_Node000001_Node000014" class="edge">
<title>Node1&#45;&gt;Node14</title>
<g id="a_edge13_Node000001_Node000014"><a xlink:title=" ">
<path fill="none" stroke="#63b8ff" d="M1492.47,-67.69C1503.33,-57.6 1517.56,-44.36 1528.77,-33.95"/>
<polygon fill="#63b8ff" stroke="#63b8ff" points="1530.93,-36.72 1535.87,-27.35 1526.16,-31.59 1530.93,-36.72"/>
</a>
</g>
</g>
<!-- Node15 -->
<g id="Node000015" class="node">
<title>Node15</title>
<g id="a_Node000015"><a xlink:title=" ">
<polygon fill="#e0e0e0" stroke="#999999" points="1751.5,-26 1624.5,-26 1624.5,-6 1751.5,-6 1751.5,-26"/>
<text text-anchor="middle" x="1688" y="-12.5" font-family="Helvetica,sans-Serif" font-size="10.00">javax.swing.JOptionPane</text>
</a>
</g>
</g>
<!-- Node1&#45;&gt;Node15 -->
<g id="edge14_Node000001_Node000015" class="edge">
<title>Node1&#45;&gt;Node15</title>
<g id="a_edge14_Node000001_Node000015"><a xlink:title=" ">
<path fill="none" stroke="#63b8ff" d="M1525.7,-67.53C1562.59,-56.04 1612.28,-40.57 1646.93,-29.79"/>
<polygon fill="#63b8ff" stroke="#63b8ff" points="1647.66,-33.22 1656.17,-26.91 1645.58,-26.54 1647.66,-33.22"/>
</a>
</g>
</g>
<!-- Node16 -->
<g id="Node000016" class="node">
<title>Node16</title>
<g id="a_Node000016"><a xlink:title=" ">
<polygon fill="#e0e0e0" stroke="#999999" points="1896.88,-26 1769.12,-26 1769.12,-6 1896.88,-6 1896.88,-26"/>
<text text-anchor="middle" x="1833" y="-12.5" font-family="Helvetica,sans-Serif" font-size="10.00">javax.swing.JPopupMenu</text>
</a>
</g>
</g>
<!-- Node1&#45;&gt;Node16 -->
<g id="edge15_Node000001_Node000016" class="edge">
<title>Node1&#45;&gt;Node16</title>
<g id="a_edge15_Node000001_Node000016"><a xlink:title=" ">
<path fill="none" stroke="#63b8ff" d="M1566.29,-67.52C1622.4,-57.73 1695.98,-44.59 1761,-32 1766.28,-30.98 1771.78,-29.88 1777.28,-28.77"/>
<polygon fill="#63b8ff" stroke="#63b8ff" points="1777.91,-32.22 1787,-26.78 1776.51,-25.36 1777.91,-32.22"/>
</a>
</g>
</g>
<!-- Node17 -->
<g id="Node000017" class="node">
<title>Node17</title>
<g id="a_Node000017"><a xlink:title=" ">
<polygon fill="#e0e0e0" stroke="#999999" points="2045,-26 1915,-26 1915,-6 2045,-6 2045,-26"/>
<text text-anchor="middle" x="1980" y="-12.5" font-family="Helvetica,sans-Serif" font-size="10.00">javax.swing.JRadioButton</text>
</a>
</g>
</g>
<!-- Node1&#45;&gt;Node17 -->
<g id="edge16_Node000001_Node000017" class="edge">
<title>Node1&#45;&gt;Node17</title>
<g id="a_edge16_Node000001_Node000017"><a xlink:title=" ">
<path fill="none" stroke="#63b8ff" d="M1578.85,-73.19C1666.17,-64.3 1794.66,-49.86 1906,-32 1912.3,-30.99 1918.88,-29.82 1925.41,-28.59"/>
<polygon fill="#63b8ff" stroke="#63b8ff" points="1925.65,-32.11 1934.8,-26.77 1924.31,-25.24 1925.65,-32.11"/>
</a>
</g>
</g>
<!-- Node18 -->
<g id="Node000018" class="node">
<title>Node18</title>
<g id="a_Node000018"><a xlink:title=" ">
<polygon fill="#e0e0e0" stroke="#999999" points="2163.38,-26 2062.62,-26 2062.62,-6 2163.38,-6 2163.38,-26"/>
<text text-anchor="middle" x="2113" y="-12.5" font-family="Helvetica,sans-Serif" font-size="10.00">javax.swing.JSlider</text>
</a>
</g>
</g>
<!-- Node1&#45;&gt;Node18 -->
<g id="edge17_Node000001_Node000018" class="edge">
<title>Node1&#45;&gt;Node18</title>
<g id="a_edge17_Node000001_Node000018"><a xlink:title=" ">
<path fill="none" stroke="#63b8ff" d="M1578.96,-78.92C1695.05,-73.16 1889.14,-60.04 2054,-32 2058.88,-31.17 2063.95,-30.14 2068.97,-29.02"/>
<polygon fill="#63b8ff" stroke="#63b8ff" points="2069.42,-32.51 2078.34,-26.78 2067.8,-25.7 2069.42,-32.51"/>
</a>
</g>
</g>
<!-- Node19 -->
<g id="Node000019" class="node">
<title>Node19</title>
<g id="a_Node000019"><a xlink:title=" ">
<polygon fill="#e0e0e0" stroke="#999999" points="2296.5,-26 2181.5,-26 2181.5,-6 2296.5,-6 2296.5,-26"/>
<text text-anchor="middle" x="2239" y="-12.5" font-family="Helvetica,sans-Serif" font-size="10.00">javax.swing.JTextArea</text>
</a>
</g>
</g>
<!-- Node1&#45;&gt;Node19 -->
<g id="edge18_Node000001_Node000019" class="edge">
<title>Node1&#45;&gt;Node19</title>
<g id="a_edge18_Node000001_Node000019"><a xlink:title=" ">
<path fill="none" stroke="#63b8ff" d="M1578.82,-80.19C1715.09,-75.39 1962.7,-62.93 2172,-32 2177.97,-31.12 2184.2,-30 2190.35,-28.77"/>
<polygon fill="#63b8ff" stroke="#63b8ff" points="2190.72,-32.27 2199.79,-26.78 2189.28,-25.42 2190.72,-32.27"/>
</a>
</g>
</g>
<!-- Node20 -->
<g id="Node000020" class="node">
<title>Node20</title>
<g id="a_Node000020"><a xlink:title=" ">
<polygon fill="#e0e0e0" stroke="#999999" points="2429.88,-26 2314.12,-26 2314.12,-6 2429.88,-6 2429.88,-26"/>
<text text-anchor="middle" x="2372" y="-12.5" font-family="Helvetica,sans-Serif" font-size="10.00">javax.swing.JTextField</text>
</a>
</g>
</g>
<!-- Node1&#45;&gt;Node20 -->
<g id="edge19_Node000001_Node000020" class="edge">
<title>Node1&#45;&gt;Node20</title>
<g id="a_edge19_Node000001_Node000020"><a xlink:title=" ">
<path fill="none" stroke="#63b8ff" d="M1578.77,-82.03C1736.13,-79.34 2045.91,-69.3 2306,-32 2311.96,-31.15 2318.18,-30.03 2324.32,-28.8"/>
<polygon fill="#63b8ff" stroke="#63b8ff" points="2324.67,-32.3 2333.72,-26.79 2323.2,-25.46 2324.67,-32.3"/>
</a>
</g>
</g>
<!-- Node21 -->
<g id="Node000021" class="node">
<title>Node21</title>
<g id="a_Node000021"><a xlink:title=" ">
<polygon fill="#e0e0e0" stroke="#999999" points="2559.62,-26 2448.38,-26 2448.38,-6 2559.62,-6 2559.62,-26"/>
<text text-anchor="middle" x="2504" y="-12.5" font-family="Helvetica,sans-Serif" font-size="10.00">javax.swing.JWindow</text>
</a>
</g>
</g>
<!-- Node1&#45;&gt;Node21 -->
<g id="edge20_Node000001_Node000021" class="edge">
<title>Node1&#45;&gt;Node21</title>
<g id="a_edge20_Node000001_Node000021"><a xlink:title=" ">
<path fill="none" stroke="#63b8ff" d="M1578.83,-83.4C1755.56,-82.79 2127.94,-75.79 2439,-32 2444.95,-31.16 2451.16,-30.05 2457.27,-28.8"/>
<polygon fill="#63b8ff" stroke="#63b8ff" points="2457.6,-32.32 2466.63,-26.78 2456.11,-25.47 2457.6,-32.32"/>
</a>
</g>
</g>
<!-- Node22 -->
<g id="Node000022" class="node">
<title>Node22</title>
<g id="a_Node000022"><a xlink:title=" ">
<polygon fill="#e0e0e0" stroke="#999999" points="2708.38,-26 2577.62,-26 2577.62,-6 2708.38,-6 2708.38,-26"/>
<text text-anchor="middle" x="2643" y="-12.5" font-family="Helvetica,sans-Serif" font-size="10.00">javax.swing.SwingUtilities</text>
</a>
</g>
</g>
<!-- Node1&#45;&gt;Node22 -->
<g id="edge21_Node000001_Node000022" class="edge">
<title>Node1&#45;&gt;Node22</title>
<g id="a_edge21_Node000001_Node000022"><a xlink:title=" ">
<path fill="none" stroke="#63b8ff" d="M1578.91,-83.44C1773.21,-83.12 2207.04,-76.86 2569,-32 2576.09,-31.12 2583.51,-29.94 2590.8,-28.62"/>
<polygon fill="#63b8ff" stroke="#63b8ff" points="2591.43,-32.06 2600.6,-26.74 2590.12,-25.19 2591.43,-32.06"/>
</a>
</g>
</g>
<!-- Node23 -->
<g id="Node000023" class="node">
<title>Node23</title>
<g id="a_Node000023"><a xlink:title=" ">
<polygon fill="#e0e0e0" stroke="#999999" points="2889.12,-32 2726.88,-32 2726.88,0 2889.12,0 2889.12,-32"/>
<text text-anchor="start" x="2734.88" y="-18.5" font-family="Helvetica,sans-Serif" font-size="10.00">com.formdev.flatlaf.intellijthemes.</text>
<text text-anchor="middle" x="2808" y="-6.5" font-family="Helvetica,sans-Serif" font-size="10.00">FlatCobalt2IJTheme</text>
</a>
</g>
</g>
<!-- Node1&#45;&gt;Node23 -->
<g id="edge22_Node000001_Node000023" class="edge">
<title>Node1&#45;&gt;Node23</title>
<g id="a_edge22_Node000001_Node000023"><a xlink:title=" ">
<path fill="none" stroke="#63b8ff" d="M1578.86,-83.02C1789.95,-82.13 2287.45,-75.28 2715.34,-32.06"/>
<polygon fill="#63b8ff" stroke="#63b8ff" points="2715.6,-35.56 2725.2,-31.06 2714.89,-28.59 2715.6,-35.56"/>
</a>
</g>
</g>
<!-- Node24 -->
<g id="Node000024" class="node">
<title>Node24</title>
<g id="a_Node000024"><a xlink:title=" ">
<polygon fill="#e0e0e0" stroke="#999999" points="3040.5,-32 2907.5,-32 2907.5,0 3040.5,0 3040.5,-32"/>
<text text-anchor="start" x="2915.5" y="-18.5" font-family="Helvetica,sans-Serif" font-size="10.00">fr.softsf.canscan.constant.</text>
<text text-anchor="middle" x="2974" y="-6.5" font-family="Helvetica,sans-Serif" font-size="10.00">StringConstants</text>
</a>
</g>
</g>
<!-- Node1&#45;&gt;Node24 -->
<g id="edge23_Node000001_Node000024" class="edge">
<title>Node1&#45;&gt;Node24</title>
<g id="a_edge23_Node000001_Node000024"><a xlink:title=" ">
<path fill="none" stroke="#63b8ff" d="M1578.79,-81.44C1856.89,-76.88 2621.05,-62.04 2896.21,-32.03"/>
<polygon fill="#63b8ff" stroke="#63b8ff" points="2896.32,-35.54 2905.86,-30.94 2895.53,-28.58 2896.32,-35.54"/>
</a>
</g>
</g>
<!-- Node25 -->
<g id="Node000025" class="node">
<title>Node25</title>
<g id="a_Node000025"><a xlink:title=" ">
<polygon fill="#e0e0e0" stroke="#999999" points="3185.12,-32 3058.88,-32 3058.88,0 3185.12,0 3185.12,-32"/>
<text text-anchor="start" x="3066.88" y="-18.5" font-family="Helvetica,sans-Serif" font-size="10.00">fr.softsf.canscan.util.Use</text>
<text text-anchor="middle" x="3122" y="-6.5" font-family="Helvetica,sans-Serif" font-size="10.00">LucioleFont</text>
</a>
</g>
</g>
<!-- Node1&#45;&gt;Node25 -->
<g id="edge24_Node000001_Node000025" class="edge">
<title>Node1&#45;&gt;Node25</title>
<g id="a_edge24_Node000001_Node000025"><a xlink:title=" ">
<path fill="none" stroke="#63b8ff" d="M1578.79,-81.99C1877.39,-78.7 2742.3,-66.5 3047.44,-32.14"/>
<polygon fill="#63b8ff" stroke="#63b8ff" points="3047.46,-35.66 3056.99,-31.03 3046.65,-28.7 3047.46,-35.66"/>
</a>
</g>
</g>
</g>
</svg>
