<?xml version="1.0" encoding="UTF-8" standalone="no"?>
<!DOCTYPE svg PUBLIC "-//W3C//DTD SVG 1.1//EN"
 "http://www.w3.org/Graphics/SVG/1.1/DTD/svg11.dtd">
<!-- Generated by graphviz version 12.2.1 (20241206.2353)
 -->
<!-- Title: src/main/java/fr/softsf/canscan/ui/DynamicQrCodeResize.java Pages: 1 -->
<svg width="1105pt" height="108pt"
 viewBox="0.00 0.00 1105.25 108.00" xmlns="http://www.w3.org/2000/svg" xmlns:xlink="http://www.w3.org/1999/xlink">
<g id="graph0" class="graph" transform="scale(1 1) rotate(0) translate(4 104)">
<title>src/main/java/fr/softsf/canscan/ui/QrCodeResize.java</title>
<!-- Node1 -->
<g id="Node000001" class="node">
<title>Node1</title>
<g id="a_Node000001"><a xlink:title=" ">
<polygon fill="#999999" stroke="#666666" points="631.12,-100 476.38,-100 476.38,-68 631.12,-68 631.12,-100"/>
<text text-anchor="start" x="484.38" y="-86.5" font-family="Helvetica,sans-Serif" font-size="10.00">src/main/java/fr/softsf</text>
<text text-anchor="middle" x="553.75" y="-74.5" font-family="Helvetica,sans-Serif" font-size="10.00">/canscan/ui/QrCodeResize.java</text>
</a>
</g>
</g>
<!-- Node2 -->
<g id="Node000002" class="node">
<title>Node2</title>
<g id="a_Node000002"><a xlink:title=" ">
<polygon fill="#e0e0e0" stroke="#999999" points="107.5,-26 0,-26 0,-6 107.5,-6 107.5,-26"/>
<text text-anchor="middle" x="53.75" y="-12.5" font-family="Helvetica,sans-Serif" font-size="10.00">java.awt.Graphics2D</text>
</a>
</g>
</g>
<!-- Node1&#45;&gt;Node2 -->
<g id="edge1_Node000001_Node000002" class="edge">
<title>Node1&#45;&gt;Node2</title>
<g id="a_edge1_Node000001_Node000002"><a xlink:title=" ">
<path fill="none" stroke="#63b8ff" d="M476.19,-76.84C388.32,-69.19 241.04,-54.37 115.75,-32 110.83,-31.12 105.73,-30.09 100.65,-28.98"/>
<polygon fill="#63b8ff" stroke="#63b8ff" points="101.66,-25.62 91.13,-26.81 100.1,-32.45 101.66,-25.62"/>
</a>
</g>
</g>
<!-- Node3 -->
<g id="Node000003" class="node">
<title>Node3</title>
<g id="a_Node000003"><a xlink:title=" ">
<polygon fill="#e0e0e0" stroke="#999999" points="248.38,-26 125.12,-26 125.12,-6 248.38,-6 248.38,-26"/>
<text text-anchor="middle" x="186.75" y="-12.5" font-family="Helvetica,sans-Serif" font-size="10.00">java.awt.RenderingHints</text>
</a>
</g>
</g>
<!-- Node1&#45;&gt;Node3 -->
<g id="edge2_Node000001_Node000003" class="edge">
<title>Node1&#45;&gt;Node3</title>
<g id="a_edge2_Node000001_Node000003"><a xlink:title=" ">
<path fill="none" stroke="#63b8ff" d="M476.01,-70.43C416.23,-60.56 331.63,-46.16 257.75,-32 252.46,-30.99 246.96,-29.89 241.46,-28.77"/>
<polygon fill="#63b8ff" stroke="#63b8ff" points="242.24,-25.36 231.74,-26.77 240.82,-32.22 242.24,-25.36"/>
</a>
</g>
</g>
<!-- Node4 -->
<g id="Node000004" class="node">
<title>Node4</title>
<g id="a_Node000004"><a xlink:title=" ">
<polygon fill="#e0e0e0" stroke="#999999" points="414.75,-26 266.75,-26 266.75,-6 414.75,-6 414.75,-26"/>
<text text-anchor="middle" x="340.75" y="-12.5" font-family="Helvetica,sans-Serif" font-size="10.00">java.awt.image.BufferedImage</text>
</a>
</g>
</g>
<!-- Node1&#45;&gt;Node4 -->
<g id="edge3_Node000001_Node000004" class="edge">
<title>Node1&#45;&gt;Node4</title>
<g id="a_edge3_Node000001_Node000004"><a xlink:title=" ">
<path fill="none" stroke="#63b8ff" d="M503.81,-67.53C466.75,-56.04 416.82,-40.57 382.01,-29.79"/>
<polygon fill="#63b8ff" stroke="#63b8ff" points="383.31,-26.52 372.73,-26.91 381.24,-33.21 383.31,-26.52"/>
</a>
</g>
</g>
<!-- Node5 -->
<g id="Node000005" class="node">
<title>Node5</title>
<g id="a_Node000005"><a xlink:title=" ">
<polygon fill="#e0e0e0" stroke="#999999" points="549,-26 432.5,-26 432.5,-6 549,-6 549,-26"/>
<text text-anchor="middle" x="490.75" y="-12.5" font-family="Helvetica,sans-Serif" font-size="10.00">javax.swing.ImageIcon</text>
</a>
</g>
</g>
<!-- Node1&#45;&gt;Node5 -->
<g id="edge4_Node000001_Node000005" class="edge">
<title>Node1&#45;&gt;Node5</title>
<g id="a_edge4_Node000001_Node000005"><a xlink:title=" ">
<path fill="none" stroke="#63b8ff" d="M539.14,-67.69C529.69,-57.8 517.37,-44.89 507.52,-34.57"/>
<polygon fill="#63b8ff" stroke="#63b8ff" points="510.12,-32.23 500.69,-27.41 505.06,-37.06 510.12,-32.23"/>
</a>
</g>
</g>
<!-- Node6 -->
<g id="Node000006" class="node">
<title>Node6</title>
<g id="a_Node000006"><a xlink:title=" ">
<polygon fill="#e0e0e0" stroke="#999999" points="666.38,-26 567.12,-26 567.12,-6 666.38,-6 666.38,-26"/>
<text text-anchor="middle" x="616.75" y="-12.5" font-family="Helvetica,sans-Serif" font-size="10.00">javax.swing.JLabel</text>
</a>
</g>
</g>
<!-- Node1&#45;&gt;Node6 -->
<g id="edge5_Node000001_Node000006" class="edge">
<title>Node1&#45;&gt;Node6</title>
<g id="a_edge5_Node000001_Node000006"><a xlink:title=" ">
<path fill="none" stroke="#63b8ff" d="M568.36,-67.69C577.81,-57.8 590.13,-44.89 599.98,-34.57"/>
<polygon fill="#63b8ff" stroke="#63b8ff" points="602.44,-37.06 606.81,-27.41 597.38,-32.23 602.44,-37.06"/>
</a>
</g>
</g>
<!-- Node7 -->
<g id="Node000007" class="node">
<title>Node7</title>
<g id="a_Node000007"><a xlink:title=" ">
<polygon fill="#e0e0e0" stroke="#999999" points="813,-26 684.5,-26 684.5,-6 813,-6 813,-26"/>
<text text-anchor="middle" x="748.75" y="-12.5" font-family="Helvetica,sans-Serif" font-size="10.00">javax.swing.SwingWorker</text>
</a>
</g>
</g>
<!-- Node1&#45;&gt;Node7 -->
<g id="edge6_Node000001_Node000007" class="edge">
<title>Node1&#45;&gt;Node7</title>
<g id="a_edge6_Node000001_Node000007"><a xlink:title=" ">
<path fill="none" stroke="#63b8ff" d="M599.47,-67.53C633.1,-56.14 678.32,-40.84 710.14,-30.07"/>
<polygon fill="#63b8ff" stroke="#63b8ff" points="711.02,-33.47 719.37,-26.95 708.77,-26.84 711.02,-33.47"/>
</a>
</g>
</g>
<!-- Node8 -->
<g id="Node000008" class="node">
<title>Node8</title>
<g id="a_Node000008"><a xlink:title=" ">
<polygon fill="#e0e0e0" stroke="#999999" points="952.62,-32 830.88,-32 830.88,0 952.62,0 952.62,-32"/>
<text text-anchor="start" x="838.88" y="-18.5" font-family="Helvetica,sans-Serif" font-size="10.00">fr.softsf.canscan.model.</text>
<text text-anchor="middle" x="891.75" y="-6.5" font-family="Helvetica,sans-Serif" font-size="10.00">QrInput</text>
</a>
</g>
</g>
<!-- Node1&#45;&gt;Node8 -->
<g id="edge7_Node000001_Node000008" class="edge">
<title>Node1&#45;&gt;Node8</title>
<g id="a_edge7_Node000001_Node000008"><a xlink:title=" ">
<path fill="none" stroke="#63b8ff" d="M631.54,-68.69C682.36,-59.22 750.47,-46.32 819.58,-32.41"/>
<polygon fill="#63b8ff" stroke="#63b8ff" points="820.09,-35.88 829.2,-30.47 818.71,-29.02 820.09,-35.88"/>
</a>
</g>
</g>
<!-- Node9 -->
<g id="Node000009" class="node">
<title>Node9</title>
<g id="a_Node000009"><a xlink:title=" ">
<polygon fill="#e0e0e0" stroke="#999999" points="1097.25,-32 970.25,-32 970.25,0 1097.25,0 1097.25,-32"/>
<text text-anchor="start" x="978.25" y="-18.5" font-family="Helvetica,sans-Serif" font-size="10.00">fr.softsf.canscan.service.</text>
<text text-anchor="middle" x="1033.75" y="-6.5" font-family="Helvetica,sans-Serif" font-size="10.00">AbstractQrCodeWorker</text>
</a>
</g>
</g>
<!-- Node1&#45;&gt;Node9 -->
<g id="edge8_Node000001_Node000009" class="edge">
<title>Node1&#45;&gt;Node9</title>
<g id="a_edge8_Node000001_Node000009"><a xlink:title=" ">
<path fill="none" stroke="#63b8ff" d="M631.48,-75.18C711.28,-66.72 839.28,-51.97 958.66,-32.44"/>
<polygon fill="#63b8ff" stroke="#63b8ff" points="959.02,-35.93 968.32,-30.85 957.88,-29.02 959.02,-35.93"/>
</a>
</g>
</g>
</g>
</svg>
