<?xml version="1.0" encoding="UTF-8" standalone="no"?>
<!DOCTYPE svg PUBLIC "-//W3C//DTD SVG 1.1//EN"
 "http://www.w3.org/Graphics/SVG/1.1/DTD/svg11.dtd">
<!-- Generated by graphviz version 12.2.1 (20241206.2353)
 -->
<!-- Title: src/main/java/fr/softsf/canscan/ui/QrCodePreview.java Pages: 1 -->
<svg width="2240pt" height="108pt"
 viewBox="0.00 0.00 2239.88 108.00" xmlns="http://www.w3.org/2000/svg" xmlns:xlink="http://www.w3.org/1999/xlink">
<g id="graph0" class="graph" transform="scale(1 1) rotate(0) translate(4 104)">
<title>src/main/java/fr/softsf/canscan/ui/QrCodePreview.java</title>
<!-- Node1 -->
<g id="Node000001" class="node">
<title>Node1</title>
<g id="a_Node000001"><a xlink:title=" ">
<polygon fill="#999999" stroke="#666666" points="1163.25,-100 1004.75,-100 1004.75,-68 1163.25,-68 1163.25,-100"/>
<text text-anchor="start" x="1012.75" y="-86.5" font-family="Helvetica,sans-Serif" font-size="10.00">src/main/java/fr/softsf</text>
<text text-anchor="middle" x="1084" y="-74.5" font-family="Helvetica,sans-Serif" font-size="10.00">/canscan/ui/QrCodePreview.java</text>
</a>
</g>
</g>
<!-- Node2 -->
<g id="Node000002" class="node">
<title>Node2</title>
<g id="a_Node000002"><a xlink:title=" ">
<polygon fill="#e0e0e0" stroke="#999999" points="148,-26 0,-26 0,-6 148,-6 148,-26"/>
<text text-anchor="middle" x="74" y="-12.5" font-family="Helvetica,sans-Serif" font-size="10.00">java.awt.image.BufferedImage</text>
</a>
</g>
</g>
<!-- Node1&#45;&gt;Node2 -->
<g id="edge1_Node000001_Node000002" class="edge">
<title>Node1&#45;&gt;Node2</title>
<g id="a_edge1_Node000001_Node000002"><a xlink:title=" ">
<path fill="none" stroke="#63b8ff" d="M1004.35,-81.94C843.62,-79.06 469.16,-68.65 157,-32 148.71,-31.03 139.99,-29.74 131.45,-28.33"/>
<polygon fill="#63b8ff" stroke="#63b8ff" points="132.32,-24.93 121.87,-26.69 131.13,-31.83 132.32,-24.93"/>
</a>
</g>
</g>
<!-- Node3 -->
<g id="Node000003" class="node">
<title>Node3</title>
<g id="a_Node000003"><a xlink:title=" ">
<polygon fill="#e0e0e0" stroke="#999999" points="229.62,-26 166.38,-26 166.38,-6 229.62,-6 229.62,-26"/>
<text text-anchor="middle" x="198" y="-12.5" font-family="Helvetica,sans-Serif" font-size="10.00">java.io.File</text>
</a>
</g>
</g>
<!-- Node1&#45;&gt;Node3 -->
<g id="edge2_Node000001_Node000003" class="edge">
<title>Node1&#45;&gt;Node3</title>
<g id="a_edge2_Node000001_Node000003"><a xlink:title=" ">
<path fill="none" stroke="#63b8ff" d="M1004.45,-81.14C823.14,-76.43 383.78,-62.18 239,-32 236.37,-31.45 233.68,-30.77 231,-30"/>
<polygon fill="#63b8ff" stroke="#63b8ff" points="232.24,-26.72 221.65,-26.93 230.06,-33.37 232.24,-26.72"/>
</a>
</g>
</g>
<!-- Node4 -->
<g id="Node000004" class="node">
<title>Node4</title>
<g id="a_Node000004"><a xlink:title=" ">
<polygon fill="#e0e0e0" stroke="#999999" points="334.25,-26 247.75,-26 247.75,-6 334.25,-6 334.25,-26"/>
<text text-anchor="middle" x="291" y="-12.5" font-family="Helvetica,sans-Serif" font-size="10.00">java.util.Objects</text>
</a>
</g>
</g>
<!-- Node1&#45;&gt;Node4 -->
<g id="edge3_Node000001_Node000004" class="edge">
<title>Node1&#45;&gt;Node4</title>
<g id="a_edge3_Node000001_Node000004"><a xlink:title=" ">
<path fill="none" stroke="#63b8ff" d="M1004.37,-83.03C867.92,-81.86 581.1,-74.04 343,-32 338.92,-31.28 334.7,-30.36 330.52,-29.34"/>
<polygon fill="#63b8ff" stroke="#63b8ff" points="331.65,-26.02 321.09,-26.82 329.85,-32.78 331.65,-26.02"/>
</a>
</g>
</g>
<!-- Node5 -->
<g id="Node000005" class="node">
<title>Node5</title>
<g id="a_Node000005"><a xlink:title=" ">
<polygon fill="#e0e0e0" stroke="#999999" points="507.75,-32 352.25,-32 352.25,0 507.75,0 507.75,-32"/>
<text text-anchor="start" x="360.25" y="-18.5" font-family="Helvetica,sans-Serif" font-size="10.00">java.util.concurrent.Cancellation</text>
<text text-anchor="middle" x="430" y="-6.5" font-family="Helvetica,sans-Serif" font-size="10.00">Exception</text>
</a>
</g>
</g>
<!-- Node1&#45;&gt;Node5 -->
<g id="edge4_Node000001_Node000005" class="edge">
<title>Node1&#45;&gt;Node5</title>
<g id="a_edge4_Node000001_Node000005"><a xlink:title=" ">
<path fill="none" stroke="#63b8ff" d="M1004.28,-77.94C896.44,-70.63 697.85,-55.52 519.41,-32.39"/>
<polygon fill="#63b8ff" stroke="#63b8ff" points="520.1,-28.95 509.73,-31.13 519.2,-35.89 520.1,-28.95"/>
</a>
</g>
</g>
<!-- Node6 -->
<g id="Node000006" class="node">
<title>Node6</title>
<g id="a_Node000006"><a xlink:title=" ">
<polygon fill="#e0e0e0" stroke="#999999" points="670.5,-32 525.5,-32 525.5,0 670.5,0 670.5,-32"/>
<text text-anchor="start" x="533.5" y="-18.5" font-family="Helvetica,sans-Serif" font-size="10.00">java.util.concurrent.Execution</text>
<text text-anchor="middle" x="598" y="-6.5" font-family="Helvetica,sans-Serif" font-size="10.00">Exception</text>
</a>
</g>
</g>
<!-- Node1&#45;&gt;Node6 -->
<g id="edge5_Node000001_Node000006" class="edge">
<title>Node1&#45;&gt;Node6</title>
<g id="a_edge5_Node000001_Node000006"><a xlink:title=" ">
<path fill="none" stroke="#63b8ff" d="M1004.27,-74.34C925.01,-65.42 799.7,-50.47 682.17,-32.44"/>
<polygon fill="#63b8ff" stroke="#63b8ff" points="682.74,-28.99 672.32,-30.92 681.67,-35.91 682.74,-28.99"/>
</a>
</g>
</g>
<!-- Node7 -->
<g id="Node000007" class="node">
<title>Node7</title>
<g id="a_Node000007"><a xlink:title=" ">
<polygon fill="#e0e0e0" stroke="#999999" points="787.62,-26 688.38,-26 688.38,-6 787.62,-6 787.62,-26"/>
<text text-anchor="middle" x="738" y="-12.5" font-family="Helvetica,sans-Serif" font-size="10.00">javax.swing.JLabel</text>
</a>
</g>
</g>
<!-- Node1&#45;&gt;Node7 -->
<g id="edge6_Node000001_Node000007" class="edge">
<title>Node1&#45;&gt;Node7</title>
<g id="a_edge6_Node000001_Node000007"><a xlink:title=" ">
<path fill="none" stroke="#63b8ff" d="M1004.51,-70.48C946.73,-60.99 866.75,-47.04 797,-32 792.94,-31.12 788.73,-30.16 784.52,-29.16"/>
<polygon fill="#63b8ff" stroke="#63b8ff" points="785.48,-25.8 774.94,-26.82 783.82,-32.6 785.48,-25.8"/>
</a>
</g>
</g>
<!-- Node8 -->
<g id="Node000008" class="node">
<title>Node8</title>
<g id="a_Node000008"><a xlink:title=" ">
<polygon fill="#e0e0e0" stroke="#999999" points="936.38,-26 805.62,-26 805.62,-6 936.38,-6 936.38,-26"/>
<text text-anchor="middle" x="871" y="-12.5" font-family="Helvetica,sans-Serif" font-size="10.00">javax.swing.SwingUtilities</text>
</a>
</g>
</g>
<!-- Node1&#45;&gt;Node8 -->
<g id="edge7_Node000001_Node000008" class="edge">
<title>Node1&#45;&gt;Node8</title>
<g id="a_edge7_Node000001_Node000008"><a xlink:title=" ">
<path fill="none" stroke="#63b8ff" d="M1034.06,-67.53C997,-56.04 947.07,-40.57 912.26,-29.79"/>
<polygon fill="#63b8ff" stroke="#63b8ff" points="913.56,-26.52 902.98,-26.91 911.49,-33.21 913.56,-26.52"/>
</a>
</g>
</g>
<!-- Node9 -->
<g id="Node000009" class="node">
<title>Node9</title>
<g id="a_Node000009"><a xlink:title=" ">
<polygon fill="#e0e0e0" stroke="#999999" points="1083.25,-26 954.75,-26 954.75,-6 1083.25,-6 1083.25,-26"/>
<text text-anchor="middle" x="1019" y="-12.5" font-family="Helvetica,sans-Serif" font-size="10.00">javax.swing.SwingWorker</text>
</a>
</g>
</g>
<!-- Node1&#45;&gt;Node9 -->
<g id="edge8_Node000001_Node000009" class="edge">
<title>Node1&#45;&gt;Node9</title>
<g id="a_edge8_Node000001_Node000009"><a xlink:title=" ">
<path fill="none" stroke="#63b8ff" d="M1068.92,-67.69C1059.08,-57.7 1046.21,-44.63 1036,-34.26"/>
<polygon fill="#63b8ff" stroke="#63b8ff" points="1038.75,-32.06 1029.24,-27.39 1033.76,-36.98 1038.75,-32.06"/>
</a>
</g>
</g>
<!-- Node10 -->
<g id="Node000010" class="node">
<title>Node10</title>
<g id="a_Node000010"><a xlink:title=" ">
<polygon fill="#e0e0e0" stroke="#999999" points="1196.75,-26 1101.25,-26 1101.25,-6 1196.75,-6 1196.75,-26"/>
<text text-anchor="middle" x="1149" y="-12.5" font-family="Helvetica,sans-Serif" font-size="10.00">javax.swing.Timer</text>
</a>
</g>
</g>
<!-- Node1&#45;&gt;Node10 -->
<g id="edge9_Node000001_Node000010" class="edge">
<title>Node1&#45;&gt;Node10</title>
<g id="a_edge9_Node000001_Node000010"><a xlink:title=" ">
<path fill="none" stroke="#63b8ff" d="M1099.08,-67.69C1108.92,-57.7 1121.79,-44.63 1132,-34.26"/>
<polygon fill="#63b8ff" stroke="#63b8ff" points="1134.24,-36.98 1138.76,-27.39 1129.25,-32.06 1134.24,-36.98"/>
</a>
</g>
</g>
<!-- Node11 -->
<g id="Node000011" class="node">
<title>Node11</title>
<g id="a_Node000011"><a xlink:title=" ">
<polygon fill="#e0e0e0" stroke="#999999" points="1353.5,-32 1214.5,-32 1214.5,0 1353.5,0 1353.5,-32"/>
<text text-anchor="start" x="1222.5" y="-18.5" font-family="Helvetica,sans-Serif" font-size="10.00">org.apache.commons.lang3.</text>
<text text-anchor="middle" x="1284" y="-6.5" font-family="Helvetica,sans-Serif" font-size="10.00">StringUtils</text>
</a>
</g>
</g>
<!-- Node1&#45;&gt;Node11 -->
<g id="edge10_Node000001_Node000011" class="edge">
<title>Node1&#45;&gt;Node11</title>
<g id="a_edge10_Node000001_Node000011"><a xlink:title=" ">
<path fill="none" stroke="#63b8ff" d="M1130.89,-67.53C1159.37,-58.13 1195.96,-46.05 1226.22,-36.07"/>
<polygon fill="#63b8ff" stroke="#63b8ff" points="1227.22,-39.42 1235.62,-32.97 1225.03,-32.78 1227.22,-39.42"/>
</a>
</g>
</g>
<!-- Node12 -->
<g id="Node000012" class="node">
<title>Node12</title>
<g id="a_Node000012"><a xlink:title=" ">
<polygon fill="#e0e0e0" stroke="#999999" points="1492.88,-32 1371.12,-32 1371.12,0 1492.88,0 1492.88,-32"/>
<text text-anchor="start" x="1379.12" y="-18.5" font-family="Helvetica,sans-Serif" font-size="10.00">fr.softsf.canscan.model.</text>
<text text-anchor="middle" x="1432" y="-6.5" font-family="Helvetica,sans-Serif" font-size="10.00">QrConfig</text>
</a>
</g>
</g>
<!-- Node1&#45;&gt;Node12 -->
<g id="edge11_Node000001_Node000012" class="edge">
<title>Node1&#45;&gt;Node12</title>
<g id="a_edge11_Node000001_Node000012"><a xlink:title=" ">
<path fill="none" stroke="#63b8ff" d="M1163.51,-69.19C1216.67,-59.79 1288.47,-46.77 1359.73,-32.62"/>
<polygon fill="#63b8ff" stroke="#63b8ff" points="1360.09,-36.12 1369.21,-30.73 1358.72,-29.26 1360.09,-36.12"/>
</a>
</g>
</g>
<!-- Node13 -->
<g id="Node000013" class="node">
<title>Node13</title>
<g id="a_Node000013"><a xlink:title=" ">
<polygon fill="#e0e0e0" stroke="#999999" points="1632.88,-32 1511.12,-32 1511.12,0 1632.88,0 1632.88,-32"/>
<text text-anchor="start" x="1519.12" y="-18.5" font-family="Helvetica,sans-Serif" font-size="10.00">fr.softsf.canscan.model.</text>
<text text-anchor="middle" x="1572" y="-6.5" font-family="Helvetica,sans-Serif" font-size="10.00">QrDataResult</text>
</a>
</g>
</g>
<!-- Node1&#45;&gt;Node13 -->
<g id="edge12_Node000001_Node000013" class="edge">
<title>Node1&#45;&gt;Node13</title>
<g id="a_edge12_Node000001_Node000013"><a xlink:title=" ">
<path fill="none" stroke="#63b8ff" d="M1163.66,-75.43C1245.52,-67.16 1376.86,-52.55 1499.87,-32.26"/>
<polygon fill="#63b8ff" stroke="#63b8ff" points="1500.2,-35.76 1509.49,-30.66 1499.05,-28.85 1500.2,-35.76"/>
</a>
</g>
</g>
<!-- Node14 -->
<g id="Node000014" class="node">
<title>Node14</title>
<g id="a_Node000014"><a xlink:title=" ">
<polygon fill="#e0e0e0" stroke="#999999" points="1772.88,-32 1651.12,-32 1651.12,0 1772.88,0 1772.88,-32"/>
<text text-anchor="start" x="1659.12" y="-18.5" font-family="Helvetica,sans-Serif" font-size="10.00">fr.softsf.canscan.model.</text>
<text text-anchor="middle" x="1712" y="-6.5" font-family="Helvetica,sans-Serif" font-size="10.00">QrInput</text>
</a>
</g>
</g>
<!-- Node1&#45;&gt;Node14 -->
<g id="edge13_Node000001_Node000014" class="edge">
<title>Node1&#45;&gt;Node14</title>
<g id="a_edge13_Node000001_Node000014"><a xlink:title=" ">
<path fill="none" stroke="#63b8ff" d="M1163.37,-78.75C1269.62,-72.39 1464.12,-58.41 1639.72,-32.22"/>
<polygon fill="#63b8ff" stroke="#63b8ff" points="1640.13,-35.7 1649.5,-30.75 1639.09,-28.78 1640.13,-35.7"/>
</a>
</g>
</g>
<!-- Node15 -->
<g id="Node000015" class="node">
<title>Node15</title>
<g id="a_Node000015"><a xlink:title=" ">
<polygon fill="#e0e0e0" stroke="#999999" points="1917.5,-32 1790.5,-32 1790.5,0 1917.5,0 1917.5,-32"/>
<text text-anchor="start" x="1798.5" y="-18.5" font-family="Helvetica,sans-Serif" font-size="10.00">fr.softsf.canscan.service.</text>
<text text-anchor="middle" x="1854" y="-6.5" font-family="Helvetica,sans-Serif" font-size="10.00">BuildQRDataService</text>
</a>
</g>
</g>
<!-- Node1&#45;&gt;Node15 -->
<g id="edge14_Node000001_Node000015" class="edge">
<title>Node1&#45;&gt;Node15</title>
<g id="a_edge14_Node000001_Node000015"><a xlink:title=" ">
<path fill="none" stroke="#63b8ff" d="M1163.66,-80.61C1291.55,-76.02 1550.72,-63.61 1778.9,-32.33"/>
<polygon fill="#63b8ff" stroke="#63b8ff" points="1779.16,-35.82 1788.59,-30.98 1778.2,-28.89 1779.16,-35.82"/>
</a>
</g>
</g>
<!-- Node16 -->
<g id="Node000016" class="node">
<title>Node16</title>
<g id="a_Node000016"><a xlink:title=" ">
<polygon fill="#e0e0e0" stroke="#999999" points="2080.5,-26 1935.5,-26 1935.5,-6 2080.5,-6 2080.5,-26"/>
<text text-anchor="middle" x="2008" y="-12.5" font-family="Helvetica,sans-Serif" font-size="10.00">fr.softsf.canscan.util.Checker</text>
</a>
</g>
</g>
<!-- Node1&#45;&gt;Node16 -->
<g id="edge15_Node000001_Node000016" class="edge">
<title>Node1&#45;&gt;Node16</title>
<g id="a_edge15_Node000001_Node000016"><a xlink:title=" ">
<path fill="none" stroke="#63b8ff" d="M1163.62,-81.44C1313.53,-77.77 1647.75,-66.17 1927,-32 1934.82,-31.04 1943.02,-29.8 1951.07,-28.45"/>
<polygon fill="#63b8ff" stroke="#63b8ff" points="1951.58,-31.91 1960.82,-26.73 1950.37,-25.02 1951.58,-31.91"/>
</a>
</g>
</g>
<!-- Node17 -->
<g id="Node000017" class="node">
<title>Node17</title>
<g id="a_Node000017"><a xlink:title=" ">
<polygon fill="#e0e0e0" stroke="#999999" points="2231.88,-32 2098.12,-32 2098.12,0 2231.88,0 2231.88,-32"/>
<text text-anchor="start" x="2106.12" y="-18.5" font-family="Helvetica,sans-Serif" font-size="10.00">fr.softsf.canscan.util.String</text>
<text text-anchor="middle" x="2165" y="-6.5" font-family="Helvetica,sans-Serif" font-size="10.00">Constants</text>
</a>
</g>
</g>
<!-- Node1&#45;&gt;Node17 -->
<g id="edge16_Node000001_Node000017" class="edge">
<title>Node1&#45;&gt;Node17</title>
<g id="a_edge16_Node000001_Node000017"><a xlink:title=" ">
<path fill="none" stroke="#63b8ff" d="M1163.57,-82.92C1332.25,-81.9 1738.21,-74.91 2086.69,-32.3"/>
<polygon fill="#63b8ff" stroke="#63b8ff" points="2087.02,-35.79 2096.52,-31.09 2086.16,-28.84 2087.02,-35.79"/>
</a>
</g>
</g>
</g>
</svg>
