<?xml version="1.0" encoding="UTF-8" standalone="no"?>
<!DOCTYPE svg PUBLIC "-//W3C//DTD SVG 1.1//EN"
 "http://www.w3.org/Graphics/SVG/1.1/DTD/svg11.dtd">
<!-- Generated by graphviz version 12.2.1 (20241206.2353)
 -->
<!-- Title: src/main/java/fr/softsf/canscan/service/GenerateAndSaveService.java Pages: 1 -->
<svg width="2093pt" height="108pt"
 viewBox="0.00 0.00 2092.88 108.00" xmlns="http://www.w3.org/2000/svg" xmlns:xlink="http://www.w3.org/1999/xlink">
<g id="graph0" class="graph" transform="scale(1 1) rotate(0) translate(4 104)">
<title>src/main/java/fr/softsf/canscan/service/QrCodeService.java</title>
<!-- Node1 -->
<g id="Node000001" class="node">
<title>Node1</title>
<g id="a_Node000001"><a xlink:title=" ">
<polygon fill="#999999" stroke="#666666" points="1030.5,-100 849.5,-100 849.5,-68 1030.5,-68 1030.5,-100"/>
<text text-anchor="start" x="857.5" y="-86.5" font-family="Helvetica,sans-Serif" font-size="10.00">src/main/java/fr/softsf</text>
<text text-anchor="middle" x="940" y="-74.5" font-family="Helvetica,sans-Serif" font-size="10.00">/canscan/service/QrCodeService.java</text>
</a>
</g>
</g>
<!-- Node2 -->
<g id="Node000002" class="node">
<title>Node2</title>
<g id="a_Node000002"><a xlink:title=" ">
<polygon fill="#e0e0e0" stroke="#999999" points="148,-26 0,-26 0,-6 148,-6 148,-26"/>
<text text-anchor="middle" x="74" y="-12.5" font-family="Helvetica,sans-Serif" font-size="10.00">java.awt.image.BufferedImage</text>
</a>
</g>
</g>
<!-- Node1&#45;&gt;Node2 -->
<g id="edge1_Node000001_Node000002" class="edge">
<title>Node1&#45;&gt;Node2</title>
<g id="a_edge1_Node000001_Node000002"><a xlink:title=" ">
<path fill="none" stroke="#63b8ff" d="M849.26,-80.44C703.05,-75.56 406.47,-62.57 157,-32 148.91,-31.01 140.41,-29.74 132.06,-28.36"/>
<polygon fill="#63b8ff" stroke="#63b8ff" points="132.77,-24.93 122.32,-26.68 131.58,-31.83 132.77,-24.93"/>
</a>
</g>
</g>
<!-- Node3 -->
<g id="Node000003" class="node">
<title>Node3</title>
<g id="a_Node000003"><a xlink:title=" ">
<polygon fill="#e0e0e0" stroke="#999999" points="229.62,-26 166.38,-26 166.38,-6 229.62,-6 229.62,-26"/>
<text text-anchor="middle" x="198" y="-12.5" font-family="Helvetica,sans-Serif" font-size="10.00">java.io.File</text>
</a>
</g>
</g>
<!-- Node1&#45;&gt;Node3 -->
<g id="edge2_Node000001_Node000003" class="edge">
<title>Node1&#45;&gt;Node3</title>
<g id="a_edge2_Node000001_Node000003"><a xlink:title=" ">
<path fill="none" stroke="#63b8ff" d="M849.09,-79.53C686.63,-72.8 352.86,-56.47 239,-32 236.37,-31.44 233.69,-30.74 231.01,-29.96"/>
<polygon fill="#63b8ff" stroke="#63b8ff" points="232.25,-26.68 221.66,-26.88 230.06,-33.33 232.25,-26.68"/>
</a>
</g>
</g>
<!-- Node4 -->
<g id="Node000004" class="node">
<title>Node4</title>
<g id="a_Node000004"><a xlink:title=" ">
<polygon fill="#e0e0e0" stroke="#999999" points="372,-26 248,-26 248,-6 372,-6 372,-26"/>
<text text-anchor="middle" x="310" y="-12.5" font-family="Helvetica,sans-Serif" font-size="10.00">java.io.FileOutputStream</text>
</a>
</g>
</g>
<!-- Node1&#45;&gt;Node4 -->
<g id="edge3_Node000001_Node000004" class="edge">
<title>Node1&#45;&gt;Node4</title>
<g id="a_edge3_Node000001_Node000004"><a xlink:title=" ">
<path fill="none" stroke="#63b8ff" d="M849.08,-77.99C738.14,-71.12 545.06,-56.73 381,-32 374.7,-31.05 368.11,-29.89 361.6,-28.64"/>
<polygon fill="#63b8ff" stroke="#63b8ff" points="362.75,-25.3 352.26,-26.77 361.38,-32.16 362.75,-25.3"/>
</a>
</g>
</g>
<!-- Node5 -->
<g id="Node000005" class="node">
<title>Node5</title>
<g id="a_Node000005"><a xlink:title=" ">
<polygon fill="#e0e0e0" stroke="#999999" points="491.75,-26 390.25,-26 390.25,-6 491.75,-6 491.75,-26"/>
<text text-anchor="middle" x="441" y="-12.5" font-family="Helvetica,sans-Serif" font-size="10.00">java.io.IOException</text>
</a>
</g>
</g>
<!-- Node1&#45;&gt;Node5 -->
<g id="edge4_Node000001_Node000005" class="edge">
<title>Node1&#45;&gt;Node5</title>
<g id="a_edge4_Node000001_Node000005"><a xlink:title=" ">
<path fill="none" stroke="#63b8ff" d="M849.11,-75.9C759.98,-68.12 620.45,-53.78 501,-32 496.37,-31.16 491.56,-30.16 486.77,-29.09"/>
<polygon fill="#63b8ff" stroke="#63b8ff" points="487.74,-25.72 477.21,-26.84 486.14,-32.54 487.74,-25.72"/>
</a>
</g>
</g>
<!-- Node6 -->
<g id="Node000006" class="node">
<title>Node6</title>
<g id="a_Node000006"><a xlink:title=" ">
<polygon fill="#e0e0e0" stroke="#999999" points="618.12,-26 509.88,-26 509.88,-6 618.12,-6 618.12,-26"/>
<text text-anchor="middle" x="564" y="-12.5" font-family="Helvetica,sans-Serif" font-size="10.00">java.io.OutputStream</text>
</a>
</g>
</g>
<!-- Node1&#45;&gt;Node6 -->
<g id="edge5_Node000001_Node000006" class="edge">
<title>Node1&#45;&gt;Node6</title>
<g id="a_edge5_Node000001_Node000006"><a xlink:title=" ">
<path fill="none" stroke="#63b8ff" d="M849.29,-69.99C786.63,-60.57 701.5,-46.92 627,-32 622.41,-31.08 617.65,-30.06 612.89,-29.01"/>
<polygon fill="#63b8ff" stroke="#63b8ff" points="613.89,-25.64 603.36,-26.83 612.32,-32.47 613.89,-25.64"/>
</a>
</g>
</g>
<!-- Node7 -->
<g id="Node000007" class="node">
<title>Node7</title>
<g id="a_Node000007"><a xlink:title=" ">
<polygon fill="#e0e0e0" stroke="#999999" points="722.25,-26 635.75,-26 635.75,-6 722.25,-6 722.25,-26"/>
<text text-anchor="middle" x="679" y="-12.5" font-family="Helvetica,sans-Serif" font-size="10.00">java.util.Objects</text>
</a>
</g>
</g>
<!-- Node1&#45;&gt;Node7 -->
<g id="edge6_Node000001_Node000007" class="edge">
<title>Node1&#45;&gt;Node7</title>
<g id="a_edge6_Node000001_Node000007"><a xlink:title=" ">
<path fill="none" stroke="#63b8ff" d="M874.27,-67.51C833.27,-57.7 779.45,-44.53 732,-32 728.92,-31.19 725.75,-30.33 722.56,-29.46"/>
<polygon fill="#63b8ff" stroke="#63b8ff" points="723.78,-26.17 713.2,-26.87 721.91,-32.91 723.78,-26.17"/>
</a>
</g>
</g>
<!-- Node8 -->
<g id="Node000008" class="node">
<title>Node8</title>
<g id="a_Node000008"><a xlink:title=" ">
<polygon fill="#e0e0e0" stroke="#999999" points="857.25,-26 740.75,-26 740.75,-6 857.25,-6 857.25,-26"/>
<text text-anchor="middle" x="799" y="-12.5" font-family="Helvetica,sans-Serif" font-size="10.00">javax.imageio.ImageIO</text>
</a>
</g>
</g>
<!-- Node1&#45;&gt;Node8 -->
<g id="edge7_Node000001_Node000008" class="edge">
<title>Node1&#45;&gt;Node8</title>
<g id="a_edge7_Node000001_Node000008"><a xlink:title=" ">
<path fill="none" stroke="#63b8ff" d="M906.94,-67.53C883.47,-56.54 852.2,-41.9 829.36,-31.21"/>
<polygon fill="#63b8ff" stroke="#63b8ff" points="831.12,-28.17 820.58,-27.1 828.15,-34.51 831.12,-28.17"/>
</a>
</g>
</g>
<!-- Node9 -->
<g id="Node000009" class="node">
<title>Node9</title>
<g id="a_Node000009"><a xlink:title=" ">
<polygon fill="#e0e0e0" stroke="#999999" points="1004.25,-26 875.75,-26 875.75,-6 1004.25,-6 1004.25,-26"/>
<text text-anchor="middle" x="940" y="-12.5" font-family="Helvetica,sans-Serif" font-size="10.00">javax.swing.JFileChooser</text>
</a>
</g>
</g>
<!-- Node1&#45;&gt;Node9 -->
<g id="edge8_Node000001_Node000009" class="edge">
<title>Node1&#45;&gt;Node9</title>
<g id="a_edge8_Node000001_Node000009"><a xlink:title=" ">
<path fill="none" stroke="#63b8ff" d="M940,-67.69C940,-58.8 940,-47.46 940,-37.77"/>
<polygon fill="#63b8ff" stroke="#63b8ff" points="943.5,-37.83 940,-27.83 936.5,-37.83 943.5,-37.83"/>
</a>
</g>
</g>
<!-- Node10 -->
<g id="Node000010" class="node">
<title>Node10</title>
<g id="a_Node000010"><a xlink:title=" ">
<polygon fill="#e0e0e0" stroke="#999999" points="1187.25,-26 1022.75,-26 1022.75,-6 1187.25,-6 1187.25,-26"/>
<text text-anchor="middle" x="1105" y="-12.5" font-family="Helvetica,sans-Serif" font-size="10.00">com.google.zxing.WriterException</text>
</a>
</g>
</g>
<!-- Node1&#45;&gt;Node10 -->
<g id="edge9_Node000001_Node000010" class="edge">
<title>Node1&#45;&gt;Node10</title>
<g id="a_edge9_Node000001_Node000010"><a xlink:title=" ">
<path fill="none" stroke="#63b8ff" d="M978.69,-67.53C1006.65,-56.34 1044.07,-41.37 1070.91,-30.64"/>
<polygon fill="#63b8ff" stroke="#63b8ff" points="1071.96,-33.99 1079.94,-27.02 1069.36,-27.49 1071.96,-33.99"/>
</a>
</g>
</g>
<!-- Node11 -->
<g id="Node000011" class="node">
<title>Node11</title>
<g id="a_Node000011"><a xlink:title=" ">
<polygon fill="#e0e0e0" stroke="#999999" points="1326.88,-32 1205.12,-32 1205.12,0 1326.88,0 1326.88,-32"/>
<text text-anchor="start" x="1213.12" y="-18.5" font-family="Helvetica,sans-Serif" font-size="10.00">fr.softsf.canscan.model.</text>
<text text-anchor="middle" x="1266" y="-6.5" font-family="Helvetica,sans-Serif" font-size="10.00">QrConfig</text>
</a>
</g>
</g>
<!-- Node1&#45;&gt;Node11 -->
<g id="edge10_Node000001_Node000011" class="edge">
<title>Node1&#45;&gt;Node11</title>
<g id="a_edge10_Node000001_Node000011"><a xlink:title=" ">
<path fill="none" stroke="#63b8ff" d="M1019.34,-67.5C1067.17,-58.09 1129.59,-45.67 1193.77,-32.44"/>
<polygon fill="#63b8ff" stroke="#63b8ff" points="1194.36,-35.9 1203.45,-30.45 1192.94,-29.04 1194.36,-35.9"/>
</a>
</g>
</g>
<!-- Node12 -->
<g id="Node000012" class="node">
<title>Node12</title>
<g id="a_Node000012"><a xlink:title=" ">
<polygon fill="#e0e0e0" stroke="#999999" points="1466.88,-32 1345.12,-32 1345.12,0 1466.88,0 1466.88,-32"/>
<text text-anchor="start" x="1353.12" y="-18.5" font-family="Helvetica,sans-Serif" font-size="10.00">fr.softsf.canscan.model.</text>
<text text-anchor="middle" x="1406" y="-6.5" font-family="Helvetica,sans-Serif" font-size="10.00">QrDataResult</text>
</a>
</g>
</g>
<!-- Node1&#45;&gt;Node12 -->
<g id="edge11_Node000001_Node000012" class="edge">
<title>Node1&#45;&gt;Node12</title>
<g id="a_edge11_Node000001_Node000012"><a xlink:title=" ">
<path fill="none" stroke="#63b8ff" d="M1030.75,-73.48C1108.55,-64.82 1223.84,-50.81 1333.68,-32.31"/>
<polygon fill="#63b8ff" stroke="#63b8ff" points="1334.21,-35.77 1343.48,-30.64 1333.04,-28.87 1334.21,-35.77"/>
</a>
</g>
</g>
<!-- Node13 -->
<g id="Node000013" class="node">
<title>Node13</title>
<g id="a_Node000013"><a xlink:title=" ">
<polygon fill="#e0e0e0" stroke="#999999" points="1615.38,-26 1484.62,-26 1484.62,-6 1615.38,-6 1615.38,-26"/>
<text text-anchor="middle" x="1550" y="-12.5" font-family="Helvetica,sans-Serif" font-size="10.00">fr.softsf.canscan.ui.Popup</text>
</a>
</g>
</g>
<!-- Node1&#45;&gt;Node13 -->
<g id="edge12_Node000001_Node000013" class="edge">
<title>Node1&#45;&gt;Node13</title>
<g id="a_edge12_Node000001_Node000013"><a xlink:title=" ">
<path fill="none" stroke="#63b8ff" d="M1030.92,-77.27C1137.83,-69.87 1320.43,-55.1 1476,-32 1482.48,-31.04 1489.25,-29.88 1495.95,-28.64"/>
<polygon fill="#63b8ff" stroke="#63b8ff" points="1496.45,-32.11 1505.61,-26.78 1495.12,-25.23 1496.45,-32.11"/>
</a>
</g>
</g>
<!-- Node14 -->
<g id="Node000014" class="node">
<title>Node14</title>
<g id="a_Node000014"><a xlink:title=" ">
<polygon fill="#e0e0e0" stroke="#999999" points="1770.38,-32 1633.62,-32 1633.62,0 1770.38,0 1770.38,-32"/>
<text text-anchor="start" x="1641.62" y="-18.5" font-family="Helvetica,sans-Serif" font-size="10.00">fr.softsf.canscan.ui.QrCode</text>
<text text-anchor="middle" x="1702" y="-6.5" font-family="Helvetica,sans-Serif" font-size="10.00">BufferedImage</text>
</a>
</g>
</g>
<!-- Node1&#45;&gt;Node14 -->
<g id="edge13_Node000001_Node000014" class="edge">
<title>Node1&#45;&gt;Node14</title>
<g id="a_edge13_Node000001_Node000014"><a xlink:title=" ">
<path fill="none" stroke="#63b8ff" d="M1030.8,-79.57C1159.89,-73.95 1404.04,-60.58 1621.83,-32.18"/>
<polygon fill="#63b8ff" stroke="#63b8ff" points="1622.21,-35.66 1631.67,-30.88 1621.29,-28.72 1622.21,-35.66"/>
</a>
</g>
</g>
<!-- Node15 -->
<g id="Node000015" class="node">
<title>Node15</title>
<g id="a_Node000015"><a xlink:title=" ">
<polygon fill="#e0e0e0" stroke="#999999" points="1933.5,-26 1788.5,-26 1788.5,-6 1933.5,-6 1933.5,-26"/>
<text text-anchor="middle" x="1861" y="-12.5" font-family="Helvetica,sans-Serif" font-size="10.00">fr.softsf.canscan.util.Checker</text>
</a>
</g>
</g>
<!-- Node1&#45;&gt;Node15 -->
<g id="edge14_Node000001_Node000015" class="edge">
<title>Node1&#45;&gt;Node15</title>
<g id="a_edge14_Node000001_Node000015"><a xlink:title=" ">
<path fill="none" stroke="#63b8ff" d="M1030.96,-81.05C1185.29,-76.94 1508.1,-64.89 1779,-32 1787,-31.03 1795.4,-29.77 1803.65,-28.4"/>
<polygon fill="#63b8ff" stroke="#63b8ff" points="1804,-31.89 1813.26,-26.72 1802.8,-24.99 1804,-31.89"/>
</a>
</g>
</g>
<!-- Node16 -->
<g id="Node000016" class="node">
<title>Node16</title>
<g id="a_Node000016"><a xlink:title=" ">
<polygon fill="#e0e0e0" stroke="#999999" points="2084.88,-32 1951.12,-32 1951.12,0 2084.88,0 2084.88,-32"/>
<text text-anchor="start" x="1959.12" y="-18.5" font-family="Helvetica,sans-Serif" font-size="10.00">fr.softsf.canscan.util.String</text>
<text text-anchor="middle" x="2018" y="-6.5" font-family="Helvetica,sans-Serif" font-size="10.00">Constants</text>
</a>
</g>
</g>
<!-- Node1&#45;&gt;Node16 -->
<g id="edge15_Node000001_Node000016" class="edge">
<title>Node1&#45;&gt;Node16</title>
<g id="a_edge15_Node000001_Node000016"><a xlink:title=" ">
<path fill="none" stroke="#63b8ff" d="M1030.98,-82.83C1205.59,-81.52 1599.86,-73.88 1939.72,-32.3"/>
<polygon fill="#63b8ff" stroke="#63b8ff" points="1940.02,-35.79 1949.52,-31.09 1939.16,-28.84 1940.02,-35.79"/>
</a>
</g>
</g>
</g>
</svg>
