<?xml version="1.0" encoding="UTF-8" standalone="no"?>
<!DOCTYPE svg PUBLIC "-//W3C//DTD SVG 1.1//EN"
 "http://www.w3.org/Graphics/SVG/1.1/DTD/svg11.dtd">
<!-- Generated by graphviz version 12.2.1 (20241206.2353)
 -->
<!-- Title: src/main/java/fr/softsf/canscan/ui/DynamicPreviewWorker.java Pages: 1 -->
<svg width="1936pt" height="108pt"
 viewBox="0.00 0.00 1935.88 108.00" xmlns="http://www.w3.org/2000/svg" xmlns:xlink="http://www.w3.org/1999/xlink">
<g id="graph0" class="graph" transform="scale(1 1) rotate(0) translate(4 104)">
<title>src/main/java/fr/softsf/canscan/ui/QrCodePreview.java</title>
<!-- Node1 -->
<g id="Node000001" class="node">
<title>Node1</title>
<g id="a_Node000001"><a xlink:title=" ">
<polygon fill="#999999" stroke="#666666" points="988.25,-100 829.75,-100 829.75,-68 988.25,-68 988.25,-100"/>
<text text-anchor="start" x="837.75" y="-86.5" font-family="Helvetica,sans-Serif" font-size="10.00">src/main/java/fr/softsf</text>
<text text-anchor="middle" x="909" y="-74.5" font-family="Helvetica,sans-Serif" font-size="10.00">/canscan/ui/QrCodePreview.java</text>
</a>
</g>
</g>
<!-- Node2 -->
<g id="Node000002" class="node">
<title>Node2</title>
<g id="a_Node000002"><a xlink:title=" ">
<polygon fill="#e0e0e0" stroke="#999999" points="148,-26 0,-26 0,-6 148,-6 148,-26"/>
<text text-anchor="middle" x="74" y="-12.5" font-family="Helvetica,sans-Serif" font-size="10.00">java.awt.image.BufferedImage</text>
</a>
</g>
</g>
<!-- Node1&#45;&gt;Node2 -->
<g id="edge1_Node000001_Node000002" class="edge">
<title>Node1&#45;&gt;Node2</title>
<g id="a_edge1_Node000001_Node000002"><a xlink:title=" ">
<path fill="none" stroke="#63b8ff" d="M829.41,-80.51C691.87,-75.55 400.98,-62.22 157,-32 149.01,-31.01 140.62,-29.75 132.37,-28.39"/>
<polygon fill="#63b8ff" stroke="#63b8ff" points="133.2,-24.98 122.76,-26.74 132.02,-31.88 133.2,-24.98"/>
</a>
</g>
</g>
<!-- Node3 -->
<g id="Node000003" class="node">
<title>Node3</title>
<g id="a_Node000003"><a xlink:title=" ">
<polygon fill="#e0e0e0" stroke="#999999" points="229.62,-26 166.38,-26 166.38,-6 229.62,-6 229.62,-26"/>
<text text-anchor="middle" x="198" y="-12.5" font-family="Helvetica,sans-Serif" font-size="10.00">java.io.File</text>
</a>
</g>
</g>
<!-- Node1&#45;&gt;Node3 -->
<g id="edge2_Node000001_Node000003" class="edge">
<title>Node1&#45;&gt;Node3</title>
<g id="a_edge2_Node000001_Node000003"><a xlink:title=" ">
<path fill="none" stroke="#63b8ff" d="M829.34,-83.95C702.78,-83.9 448.64,-77.42 239,-32 236.37,-31.43 233.69,-30.73 231.01,-29.95"/>
<polygon fill="#63b8ff" stroke="#63b8ff" points="232.26,-26.68 221.66,-26.86 230.06,-33.32 232.26,-26.68"/>
</a>
</g>
</g>
<!-- Node4 -->
<g id="Node000004" class="node">
<title>Node4</title>
<g id="a_Node000004"><a xlink:title=" ">
<polygon fill="#e0e0e0" stroke="#999999" points="334.25,-26 247.75,-26 247.75,-6 334.25,-6 334.25,-26"/>
<text text-anchor="middle" x="291" y="-12.5" font-family="Helvetica,sans-Serif" font-size="10.00">java.util.Objects</text>
</a>
</g>
</g>
<!-- Node1&#45;&gt;Node4 -->
<g id="edge3_Node000001_Node000004" class="edge">
<title>Node1&#45;&gt;Node4</title>
<g id="a_edge3_Node000001_Node000004"><a xlink:title=" ">
<path fill="none" stroke="#63b8ff" d="M829.6,-80.62C719.51,-76.24 514.64,-64.18 343,-32 339.14,-31.28 335.16,-30.39 331.2,-29.41"/>
<polygon fill="#63b8ff" stroke="#63b8ff" points="332.22,-26.06 321.65,-26.87 330.41,-32.83 332.22,-26.06"/>
</a>
</g>
</g>
<!-- Node5 -->
<g id="Node000005" class="node">
<title>Node5</title>
<g id="a_Node000005"><a xlink:title=" ">
<polygon fill="#e0e0e0" stroke="#999999" points="451.62,-26 352.38,-26 352.38,-6 451.62,-6 451.62,-26"/>
<text text-anchor="middle" x="402" y="-12.5" font-family="Helvetica,sans-Serif" font-size="10.00">javax.swing.JLabel</text>
</a>
</g>
</g>
<!-- Node1&#45;&gt;Node5 -->
<g id="edge4_Node000001_Node000005" class="edge">
<title>Node1&#45;&gt;Node5</title>
<g id="a_edge4_Node000001_Node000005"><a xlink:title=" ">
<path fill="none" stroke="#63b8ff" d="M829.62,-77.24C739.7,-69.95 589.01,-55.45 461,-32 456.38,-31.15 451.59,-30.15 446.82,-29.07"/>
<polygon fill="#63b8ff" stroke="#63b8ff" points="447.85,-25.71 437.31,-26.79 446.22,-32.52 447.85,-25.71"/>
</a>
</g>
</g>
<!-- Node6 -->
<g id="Node000006" class="node">
<title>Node6</title>
<g id="a_Node000006"><a xlink:title=" ">
<polygon fill="#e0e0e0" stroke="#999999" points="600.38,-26 469.62,-26 469.62,-6 600.38,-6 600.38,-26"/>
<text text-anchor="middle" x="535" y="-12.5" font-family="Helvetica,sans-Serif" font-size="10.00">javax.swing.SwingUtilities</text>
</a>
</g>
</g>
<!-- Node1&#45;&gt;Node6 -->
<g id="edge5_Node000001_Node000006" class="edge">
<title>Node1&#45;&gt;Node6</title>
<g id="a_edge5_Node000001_Node000006"><a xlink:title=" ">
<path fill="none" stroke="#63b8ff" d="M829.25,-70.03C768.96,-60.07 684.17,-45.74 610,-32 604.35,-30.95 598.47,-29.83 592.59,-28.69"/>
<polygon fill="#63b8ff" stroke="#63b8ff" points="593.34,-25.27 582.85,-26.78 591.99,-32.14 593.34,-25.27"/>
</a>
</g>
</g>
<!-- Node7 -->
<g id="Node000007" class="node">
<title>Node7</title>
<g id="a_Node000007"><a xlink:title=" ">
<polygon fill="#e0e0e0" stroke="#999999" points="747.25,-26 618.75,-26 618.75,-6 747.25,-6 747.25,-26"/>
<text text-anchor="middle" x="683" y="-12.5" font-family="Helvetica,sans-Serif" font-size="10.00">javax.swing.SwingWorker</text>
</a>
</g>
</g>
<!-- Node1&#45;&gt;Node7 -->
<g id="edge6_Node000001_Node000007" class="edge">
<title>Node1&#45;&gt;Node7</title>
<g id="a_edge6_Node000001_Node000007"><a xlink:title=" ">
<path fill="none" stroke="#63b8ff" d="M856.01,-67.53C816.52,-55.99 763.26,-40.44 726.3,-29.65"/>
<polygon fill="#63b8ff" stroke="#63b8ff" points="727.43,-26.33 716.85,-26.88 725.46,-33.05 727.43,-26.33"/>
</a>
</g>
</g>
<!-- Node8 -->
<g id="Node000008" class="node">
<title>Node8</title>
<g id="a_Node000008"><a xlink:title=" ">
<polygon fill="#e0e0e0" stroke="#999999" points="904.5,-32 765.5,-32 765.5,0 904.5,0 904.5,-32"/>
<text text-anchor="start" x="773.5" y="-18.5" font-family="Helvetica,sans-Serif" font-size="10.00">org.apache.commons.lang3.</text>
<text text-anchor="middle" x="835" y="-6.5" font-family="Helvetica,sans-Serif" font-size="10.00">StringUtils</text>
</a>
</g>
</g>
<!-- Node1&#45;&gt;Node8 -->
<g id="edge7_Node000001_Node000008" class="edge">
<title>Node1&#45;&gt;Node8</title>
<g id="a_edge7_Node000001_Node000008"><a xlink:title=" ">
<path fill="none" stroke="#63b8ff" d="M891.84,-67.69C882.66,-59.5 871.16,-49.25 860.92,-40.12"/>
<polygon fill="#63b8ff" stroke="#63b8ff" points="863.25,-37.5 853.46,-33.46 858.59,-42.73 863.25,-37.5"/>
</a>
</g>
</g>
<!-- Node9 -->
<g id="Node000009" class="node">
<title>Node9</title>
<g id="a_Node000009"><a xlink:title=" ">
<polygon fill="#e0e0e0" stroke="#999999" points="1043.88,-32 922.12,-32 922.12,0 1043.88,0 1043.88,-32"/>
<text text-anchor="start" x="930.12" y="-18.5" font-family="Helvetica,sans-Serif" font-size="10.00">fr.softsf.canscan.model.</text>
<text text-anchor="middle" x="983" y="-6.5" font-family="Helvetica,sans-Serif" font-size="10.00">QrConfig</text>
</a>
</g>
</g>
<!-- Node1&#45;&gt;Node9 -->
<g id="edge8_Node000001_Node000009" class="edge">
<title>Node1&#45;&gt;Node9</title>
<g id="a_edge8_Node000001_Node000009"><a xlink:title=" ">
<path fill="none" stroke="#63b8ff" d="M926.16,-67.69C935.34,-59.5 946.84,-49.25 957.08,-40.12"/>
<polygon fill="#63b8ff" stroke="#63b8ff" points="959.41,-42.73 964.54,-33.46 954.75,-37.5 959.41,-42.73"/>
</a>
</g>
</g>
<!-- Node10 -->
<g id="Node000010" class="node">
<title>Node10</title>
<g id="a_Node000010"><a xlink:title=" ">
<polygon fill="#e0e0e0" stroke="#999999" points="1183.88,-32 1062.12,-32 1062.12,0 1183.88,0 1183.88,-32"/>
<text text-anchor="start" x="1070.12" y="-18.5" font-family="Helvetica,sans-Serif" font-size="10.00">fr.softsf.canscan.model.</text>
<text text-anchor="middle" x="1123" y="-6.5" font-family="Helvetica,sans-Serif" font-size="10.00">QrDataResult</text>
</a>
</g>
</g>
<!-- Node1&#45;&gt;Node10 -->
<g id="edge9_Node000001_Node000010" class="edge">
<title>Node1&#45;&gt;Node10</title>
<g id="a_edge9_Node000001_Node000010"><a xlink:title=" ">
<path fill="none" stroke="#63b8ff" d="M959.17,-67.53C989.92,-58.04 1029.48,-45.84 1062.03,-35.81"/>
<polygon fill="#63b8ff" stroke="#63b8ff" points="1062.8,-39.23 1071.32,-32.94 1060.74,-32.54 1062.8,-39.23"/>
</a>
</g>
</g>
<!-- Node11 -->
<g id="Node000011" class="node">
<title>Node11</title>
<g id="a_Node000011"><a xlink:title=" ">
<polygon fill="#e0e0e0" stroke="#999999" points="1323.88,-32 1202.12,-32 1202.12,0 1323.88,0 1323.88,-32"/>
<text text-anchor="start" x="1210.12" y="-18.5" font-family="Helvetica,sans-Serif" font-size="10.00">fr.softsf.canscan.model.</text>
<text text-anchor="middle" x="1263" y="-6.5" font-family="Helvetica,sans-Serif" font-size="10.00">QrInput</text>
</a>
</g>
</g>
<!-- Node1&#45;&gt;Node11 -->
<g id="edge10_Node000001_Node000011" class="edge">
<title>Node1&#45;&gt;Node11</title>
<g id="a_edge10_Node000001_Node000011"><a xlink:title=" ">
<path fill="none" stroke="#63b8ff" d="M988.7,-69.42C1043.03,-59.99 1116.88,-46.85 1191,-32.36"/>
<polygon fill="#63b8ff" stroke="#63b8ff" points="1191.32,-35.86 1200.46,-30.5 1189.97,-28.99 1191.32,-35.86"/>
</a>
</g>
</g>
<!-- Node12 -->
<g id="Node000012" class="node">
<title>Node12</title>
<g id="a_Node000012"><a xlink:title=" ">
<polygon fill="#e0e0e0" stroke="#999999" points="1468.5,-32 1341.5,-32 1341.5,0 1468.5,0 1468.5,-32"/>
<text text-anchor="start" x="1349.5" y="-18.5" font-family="Helvetica,sans-Serif" font-size="10.00">fr.softsf.canscan.service.</text>
<text text-anchor="middle" x="1405" y="-6.5" font-family="Helvetica,sans-Serif" font-size="10.00">AbstractQrCodeWorker</text>
</a>
</g>
</g>
<!-- Node1&#45;&gt;Node12 -->
<g id="edge11_Node000001_Node000012" class="edge">
<title>Node1&#45;&gt;Node12</title>
<g id="a_edge11_Node000001_Node000012"><a xlink:title=" ">
<path fill="none" stroke="#63b8ff" d="M988.6,-75.48C1071.53,-67.18 1205.43,-52.48 1329.83,-32.45"/>
<polygon fill="#63b8ff" stroke="#63b8ff" points="1330.26,-35.92 1339.57,-30.86 1329.14,-29.01 1330.26,-35.92"/>
</a>
</g>
</g>
<!-- Node13 -->
<g id="Node000013" class="node">
<title>Node13</title>
<g id="a_Node000013"><a xlink:title=" ">
<polygon fill="#e0e0e0" stroke="#999999" points="1613.5,-32 1486.5,-32 1486.5,0 1613.5,0 1613.5,-32"/>
<text text-anchor="start" x="1494.5" y="-18.5" font-family="Helvetica,sans-Serif" font-size="10.00">fr.softsf.canscan.service.</text>
<text text-anchor="middle" x="1550" y="-6.5" font-family="Helvetica,sans-Serif" font-size="10.00">BuildQRDataService</text>
</a>
</g>
</g>
<!-- Node1&#45;&gt;Node13 -->
<g id="edge12_Node000001_Node000013" class="edge">
<title>Node1&#45;&gt;Node13</title>
<g id="a_edge12_Node000001_Node000013"><a xlink:title=" ">
<path fill="none" stroke="#63b8ff" d="M988.51,-78.79C1096.56,-72.43 1295.96,-58.37 1474.87,-32.37"/>
<polygon fill="#63b8ff" stroke="#63b8ff" points="1475.2,-35.86 1484.58,-30.94 1474.18,-28.93 1475.2,-35.86"/>
</a>
</g>
</g>
<!-- Node14 -->
<g id="Node000014" class="node">
<title>Node14</title>
<g id="a_Node000014"><a xlink:title=" ">
<polygon fill="#e0e0e0" stroke="#999999" points="1776.5,-26 1631.5,-26 1631.5,-6 1776.5,-6 1776.5,-26"/>
<text text-anchor="middle" x="1704" y="-12.5" font-family="Helvetica,sans-Serif" font-size="10.00">fr.softsf.canscan.util.Checker</text>
</a>
</g>
</g>
<!-- Node1&#45;&gt;Node14 -->
<g id="edge13_Node000001_Node000014" class="edge">
<title>Node1&#45;&gt;Node14</title>
<g id="a_edge13_Node000001_Node000014"><a xlink:title=" ">
<path fill="none" stroke="#63b8ff" d="M988.53,-80.22C1120.7,-74.96 1393.72,-61.33 1623,-32 1630.71,-31.01 1638.8,-29.77 1646.77,-28.42"/>
<polygon fill="#63b8ff" stroke="#63b8ff" points="1647.15,-31.91 1656.39,-26.73 1645.93,-25.01 1647.15,-31.91"/>
</a>
</g>
</g>
<!-- Node15 -->
<g id="Node000015" class="node">
<title>Node15</title>
<g id="a_Node000015"><a xlink:title=" ">
<polygon fill="#e0e0e0" stroke="#999999" points="1927.88,-32 1794.12,-32 1794.12,0 1927.88,0 1927.88,-32"/>
<text text-anchor="start" x="1802.12" y="-18.5" font-family="Helvetica,sans-Serif" font-size="10.00">fr.softsf.canscan.util.String</text>
<text text-anchor="middle" x="1861" y="-6.5" font-family="Helvetica,sans-Serif" font-size="10.00">Constants</text>
</a>
</g>
</g>
<!-- Node1&#45;&gt;Node15 -->
<g id="edge14_Node000001_Node000015" class="edge">
<title>Node1&#45;&gt;Node15</title>
<g id="a_edge14_Node000001_Node000015"><a xlink:title=" ">
<path fill="none" stroke="#63b8ff" d="M988.55,-82.08C1141.05,-79.5 1485.13,-69.79 1783,-32.28"/>
<polygon fill="#63b8ff" stroke="#63b8ff" points="1783.04,-35.8 1792.52,-31.07 1782.15,-28.86 1783.04,-35.8"/>
</a>
</g>
</g>
</g>
</svg>
