<?xml version="1.0" encoding="UTF-8" standalone="no"?>
<!DOCTYPE svg PUBLIC "-//W3C//DTD SVG 1.1//EN"
 "http://www.w3.org/Graphics/SVG/1.1/DTD/svg11.dtd">
<!-- Generated by graphviz version 12.2.1 (20241206.2353)
 -->
<!-- Title: src/main/java/fr/softsf/canscan/model/QrConfig.java Pages: 1 -->
<svg width="168pt" height="96pt"
 viewBox="0.00 0.00 168.12 96.00" xmlns="http://www.w3.org/2000/svg" xmlns:xlink="http://www.w3.org/1999/xlink">
<g id="graph0" class="graph" transform="scale(1 1) rotate(0) translate(4 92)">
<title>src/main/java/fr/softsf/canscan/model/QrConfig.java</title>
<!-- Node1 -->
<g id="Node000001" class="node">
<title>Node1</title>
<g id="a_Node000001"><a xlink:title=" ">
<polygon fill="#999999" stroke="#666666" points="157.5,-88 9.5,-88 9.5,-56 157.5,-56 157.5,-88"/>
<text text-anchor="start" x="17.5" y="-74.5" font-family="Helvetica,sans-Serif" font-size="10.00">src/main/java/fr/softsf</text>
<text text-anchor="middle" x="83.5" y="-62.5" font-family="Helvetica,sans-Serif" font-size="10.00">/canscan/model/QrConfig.java</text>
</a>
</g>
</g>
<!-- Node2 -->
<g id="Node000002" class="node">
<title>Node2</title>
<g id="a_Node000002"><a xlink:title=" ">
<polygon fill="#e0e0e0" stroke="#999999" points="79,-20 0,-20 0,0 79,0 79,-20"/>
<text text-anchor="middle" x="39.5" y="-6.5" font-family="Helvetica,sans-Serif" font-size="10.00">java.awt.Color</text>
</a>
</g>
</g>
<!-- Node1&#45;&gt;Node2 -->
<g id="edge1_Node000001_Node000002" class="edge">
<title>Node1&#45;&gt;Node2</title>
<g id="a_edge1_Node000001_Node000002"><a xlink:title=" ">
<path fill="none" stroke="#63b8ff" d="M72.17,-55.55C66.38,-47.65 59.28,-37.97 53.19,-29.66"/>
<polygon fill="#63b8ff" stroke="#63b8ff" points="56.03,-27.62 47.29,-21.63 50.39,-31.76 56.03,-27.62"/>
</a>
</g>
</g>
<!-- Node3 -->
<g id="Node000003" class="node">
<title>Node3</title>
<g id="a_Node000003"><a xlink:title=" ">
<polygon fill="#e0e0e0" stroke="#999999" points="160.12,-20 96.88,-20 96.88,0 160.12,0 160.12,-20"/>
<text text-anchor="middle" x="128.5" y="-6.5" font-family="Helvetica,sans-Serif" font-size="10.00">java.io.File</text>
</a>
</g>
</g>
<!-- Node1&#45;&gt;Node3 -->
<g id="edge2_Node000001_Node000003" class="edge">
<title>Node1&#45;&gt;Node3</title>
<g id="a_edge2_Node000001_Node000003"><a xlink:title=" ">
<path fill="none" stroke="#63b8ff" d="M95.09,-55.55C101.08,-47.56 108.43,-37.76 114.71,-29.39"/>
<polygon fill="#63b8ff" stroke="#63b8ff" points="117.34,-31.72 120.54,-21.62 111.74,-27.52 117.34,-31.72"/>
</a>
</g>
</g>
</g>
</svg>
