<?xml version="1.0" encoding="UTF-8" standalone="no"?>
<!DOCTYPE svg PUBLIC "-//W3C//DTD SVG 1.1//EN"
 "http://www.w3.org/Graphics/SVG/1.1/DTD/svg11.dtd">
<!-- Generated by graphviz version 12.2.1 (20241206.2353)
 -->
<!-- Title: src/main/java/fr/softsf/canscan/ui/QrCodeBufferedImage.java Pages: 1 -->
<svg width="3013pt" height="108pt"
 viewBox="0.00 0.00 3013.00 108.00" xmlns="http://www.w3.org/2000/svg" xmlns:xlink="http://www.w3.org/1999/xlink">
<g id="graph0" class="graph" transform="scale(1 1) rotate(0) translate(4 104)">
<title>src/main/java/fr/softsf/canscan/ui/QrCodeBufferedImage.java</title>
<!-- Node1 -->
<g id="Node000001" class="node">
<title>Node1</title>
<g id="a_Node000001"><a xlink:title=" ">
<polygon fill="#999999" stroke="#666666" points="1457,-100 1270,-100 1270,-68 1457,-68 1457,-100"/>
<text text-anchor="start" x="1278" y="-86.5" font-family="Helvetica,sans-Serif" font-size="10.00">src/main/java/fr/softsf</text>
<text text-anchor="middle" x="1363.5" y="-74.5" font-family="Helvetica,sans-Serif" font-size="10.00">/canscan/ui/QrCodeBufferedImage.java</text>
</a>
</g>
</g>
<!-- Node2 -->
<g id="Node000002" class="node">
<title>Node2</title>
<g id="a_Node000002"><a xlink:title=" ">
<polygon fill="#e0e0e0" stroke="#999999" points="79,-26 0,-26 0,-6 79,-6 79,-26"/>
<text text-anchor="middle" x="39.5" y="-12.5" font-family="Helvetica,sans-Serif" font-size="10.00">java.awt.Color</text>
</a>
</g>
</g>
<!-- Node1&#45;&gt;Node2 -->
<g id="edge1_Node000001_Node000002" class="edge">
<title>Node1&#45;&gt;Node2</title>
<g id="a_edge1_Node000001_Node000002"><a xlink:title=" ">
<path fill="none" stroke="#63b8ff" d="M1269.71,-82.44C1015.06,-80.42 314.69,-71.33 87.5,-32 83.84,-31.37 80.08,-30.53 76.34,-29.58"/>
<polygon fill="#63b8ff" stroke="#63b8ff" points="77.38,-26.23 66.81,-26.86 75.46,-32.97 77.38,-26.23"/>
</a>
</g>
</g>
<!-- Node3 -->
<g id="Node000003" class="node">
<title>Node3</title>
<g id="a_Node000003"><a xlink:title=" ">
<polygon fill="#e0e0e0" stroke="#999999" points="204.25,-26 96.75,-26 96.75,-6 204.25,-6 204.25,-26"/>
<text text-anchor="middle" x="150.5" y="-12.5" font-family="Helvetica,sans-Serif" font-size="10.00">java.awt.Graphics2D</text>
</a>
</g>
</g>
<!-- Node1&#45;&gt;Node3 -->
<g id="edge2_Node000001_Node000003" class="edge">
<title>Node1&#45;&gt;Node3</title>
<g id="a_edge2_Node000001_Node000003"><a xlink:title=" ">
<path fill="none" stroke="#63b8ff" d="M1269.69,-81.18C1032.96,-76.21 415.74,-60.81 212.5,-32 206.89,-31.2 201.04,-30.13 195.28,-28.91"/>
<polygon fill="#63b8ff" stroke="#63b8ff" points="196.38,-25.57 185.86,-26.78 194.84,-32.4 196.38,-25.57"/>
</a>
</g>
</g>
<!-- Node4 -->
<g id="Node000004" class="node">
<title>Node4</title>
<g id="a_Node000004"><a xlink:title=" ">
<polygon fill="#e0e0e0" stroke="#999999" points="345.12,-26 221.88,-26 221.88,-6 345.12,-6 345.12,-26"/>
<text text-anchor="middle" x="283.5" y="-12.5" font-family="Helvetica,sans-Serif" font-size="10.00">java.awt.RenderingHints</text>
</a>
</g>
</g>
<!-- Node1&#45;&gt;Node4 -->
<g id="edge3_Node000001_Node000004" class="edge">
<title>Node1&#45;&gt;Node4</title>
<g id="a_edge3_Node000001_Node000004"><a xlink:title=" ">
<path fill="none" stroke="#63b8ff" d="M1269.51,-83.18C1090.6,-82.43 689.1,-75.53 354.5,-32 347.78,-31.13 340.74,-29.96 333.82,-28.65"/>
<polygon fill="#63b8ff" stroke="#63b8ff" points="334.72,-25.26 324.23,-26.74 333.35,-32.13 334.72,-25.26"/>
</a>
</g>
</g>
<!-- Node5 -->
<g id="Node000005" class="node">
<title>Node5</title>
<g id="a_Node000005"><a xlink:title=" ">
<polygon fill="#e0e0e0" stroke="#999999" points="487.88,-26 363.12,-26 363.12,-6 487.88,-6 487.88,-26"/>
<text text-anchor="middle" x="425.5" y="-12.5" font-family="Helvetica,sans-Serif" font-size="10.00">java.awt.geom.Ellipse2D</text>
</a>
</g>
</g>
<!-- Node1&#45;&gt;Node5 -->
<g id="edge4_Node000001_Node000005" class="edge">
<title>Node1&#45;&gt;Node5</title>
<g id="a_edge4_Node000001_Node000005"><a xlink:title=" ">
<path fill="none" stroke="#63b8ff" d="M1269.52,-81.97C1110.08,-79.21 776.68,-69.1 497.5,-32 490.77,-31.11 483.73,-29.94 476.8,-28.64"/>
<polygon fill="#63b8ff" stroke="#63b8ff" points="477.66,-25.25 467.17,-26.75 476.31,-32.11 477.66,-25.25"/>
</a>
</g>
</g>
<!-- Node6 -->
<g id="Node000006" class="node">
<title>Node6</title>
<g id="a_Node000006"><a xlink:title=" ">
<polygon fill="#e0e0e0" stroke="#999999" points="674.62,-26 506.38,-26 506.38,-6 674.62,-6 674.62,-26"/>
<text text-anchor="middle" x="590.5" y="-12.5" font-family="Helvetica,sans-Serif" font-size="10.00">java.awt.geom.RoundRectangle2D</text>
</a>
</g>
</g>
<!-- Node1&#45;&gt;Node6 -->
<g id="edge5_Node000001_Node000006" class="edge">
<title>Node1&#45;&gt;Node6</title>
<g id="a_edge5_Node000001_Node000006"><a xlink:title=" ">
<path fill="none" stroke="#63b8ff" d="M1269.76,-78.5C1138.39,-71.61 892.19,-56.61 683.5,-32 674.38,-30.92 664.78,-29.6 655.36,-28.18"/>
<polygon fill="#63b8ff" stroke="#63b8ff" points="655.91,-24.73 645.49,-26.66 654.84,-31.65 655.91,-24.73"/>
</a>
</g>
</g>
<!-- Node7 -->
<g id="Node000007" class="node">
<title>Node7</title>
<g id="a_Node000007"><a xlink:title=" ">
<polygon fill="#e0e0e0" stroke="#999999" points="840.5,-26 692.5,-26 692.5,-6 840.5,-6 840.5,-26"/>
<text text-anchor="middle" x="766.5" y="-12.5" font-family="Helvetica,sans-Serif" font-size="10.00">java.awt.image.BufferedImage</text>
</a>
</g>
</g>
<!-- Node1&#45;&gt;Node7 -->
<g id="edge6_Node000001_Node000007" class="edge">
<title>Node1&#45;&gt;Node7</title>
<g id="a_edge6_Node000001_Node000007"><a xlink:title=" ">
<path fill="none" stroke="#63b8ff" d="M1269.91,-75.97C1166.69,-67.7 995.82,-52.45 849.5,-32 842,-30.95 834.14,-29.71 826.37,-28.41"/>
<polygon fill="#63b8ff" stroke="#63b8ff" points="827.05,-24.97 816.6,-26.71 825.86,-31.87 827.05,-24.97"/>
</a>
</g>
</g>
<!-- Node8 -->
<g id="Node000008" class="node">
<title>Node8</title>
<g id="a_Node000008"><a xlink:title=" ">
<polygon fill="#e0e0e0" stroke="#999999" points="974.75,-26 858.25,-26 858.25,-6 974.75,-6 974.75,-26"/>
<text text-anchor="middle" x="916.5" y="-12.5" font-family="Helvetica,sans-Serif" font-size="10.00">java.io.FileInputStream</text>
</a>
</g>
</g>
<!-- Node1&#45;&gt;Node8 -->
<g id="edge7_Node000001_Node000008" class="edge">
<title>Node1&#45;&gt;Node8</title>
<g id="a_edge7_Node000001_Node000008"><a xlink:title=" ">
<path fill="none" stroke="#63b8ff" d="M1269.84,-72.73C1192.71,-63.72 1080.64,-49.36 983.5,-32 978.21,-31.05 972.69,-29.98 967.21,-28.84"/>
<polygon fill="#63b8ff" stroke="#63b8ff" points="968.06,-25.44 957.54,-26.77 966.59,-32.29 968.06,-25.44"/>
</a>
</g>
</g>
<!-- Node9 -->
<g id="Node000009" class="node">
<title>Node9</title>
<g id="a_Node000009"><a xlink:title=" ">
<polygon fill="#e0e0e0" stroke="#999999" points="1094.25,-26 992.75,-26 992.75,-6 1094.25,-6 1094.25,-26"/>
<text text-anchor="middle" x="1043.5" y="-12.5" font-family="Helvetica,sans-Serif" font-size="10.00">java.io.IOException</text>
</a>
</g>
</g>
<!-- Node1&#45;&gt;Node9 -->
<g id="edge8_Node000001_Node000009" class="edge">
<title>Node1&#45;&gt;Node9</title>
<g id="a_edge8_Node000001_Node000009"><a xlink:title=" ">
<path fill="none" stroke="#63b8ff" d="M1278.96,-67.55C1228,-57.96 1161.87,-45.01 1103.5,-32 1099.44,-31.09 1095.23,-30.12 1091.01,-29.11"/>
<polygon fill="#63b8ff" stroke="#63b8ff" points="1091.93,-25.74 1081.39,-26.78 1090.28,-32.54 1091.93,-25.74"/>
</a>
</g>
</g>
<!-- Node10 -->
<g id="Node000010" class="node">
<title>Node10</title>
<g id="a_Node000010"><a xlink:title=" ">
<polygon fill="#e0e0e0" stroke="#999999" points="1212.88,-26 1112.12,-26 1112.12,-6 1212.88,-6 1212.88,-26"/>
<text text-anchor="middle" x="1162.5" y="-12.5" font-family="Helvetica,sans-Serif" font-size="10.00">java.io.InputStream</text>
</a>
</g>
</g>
<!-- Node1&#45;&gt;Node10 -->
<g id="edge9_Node000001_Node000010" class="edge">
<title>Node1&#45;&gt;Node10</title>
<g id="a_edge9_Node000001_Node000010"><a xlink:title=" ">
<path fill="none" stroke="#63b8ff" d="M1316.37,-67.53C1281.56,-56.09 1234.69,-40.71 1201.87,-29.93"/>
<polygon fill="#63b8ff" stroke="#63b8ff" points="1203.34,-26.73 1192.75,-26.93 1201.16,-33.38 1203.34,-26.73"/>
</a>
</g>
</g>
<!-- Node11 -->
<g id="Node000011" class="node">
<title>Node11</title>
<g id="a_Node000011"><a xlink:title=" ">
<polygon fill="#e0e0e0" stroke="#999999" points="1302.25,-26 1230.75,-26 1230.75,-6 1302.25,-6 1302.25,-26"/>
<text text-anchor="middle" x="1266.5" y="-12.5" font-family="Helvetica,sans-Serif" font-size="10.00">java.util.Map</text>
</a>
</g>
</g>
<!-- Node1&#45;&gt;Node11 -->
<g id="edge10_Node000001_Node000011" class="edge">
<title>Node1&#45;&gt;Node11</title>
<g id="a_edge10_Node000001_Node000011"><a xlink:title=" ">
<path fill="none" stroke="#63b8ff" d="M1341,-67.69C1325.58,-57.2 1305.17,-43.31 1289.61,-32.73"/>
<polygon fill="#63b8ff" stroke="#63b8ff" points="1291.68,-29.9 1281.44,-27.17 1287.74,-35.69 1291.68,-29.9"/>
</a>
</g>
</g>
<!-- Node12 -->
<g id="Node000012" class="node">
<title>Node12</title>
<g id="a_Node000012"><a xlink:title=" ">
<polygon fill="#e0e0e0" stroke="#999999" points="1406.75,-26 1320.25,-26 1320.25,-6 1406.75,-6 1406.75,-26"/>
<text text-anchor="middle" x="1363.5" y="-12.5" font-family="Helvetica,sans-Serif" font-size="10.00">java.util.Objects</text>
</a>
</g>
</g>
<!-- Node1&#45;&gt;Node12 -->
<g id="edge11_Node000001_Node000012" class="edge">
<title>Node1&#45;&gt;Node12</title>
<g id="a_edge11_Node000001_Node000012"><a xlink:title=" ">
<path fill="none" stroke="#63b8ff" d="M1363.5,-67.69C1363.5,-58.8 1363.5,-47.46 1363.5,-37.77"/>
<polygon fill="#63b8ff" stroke="#63b8ff" points="1367,-37.83 1363.5,-27.83 1360,-37.83 1367,-37.83"/>
</a>
</g>
</g>
<!-- Node13 -->
<g id="Node000013" class="node">
<title>Node13</title>
<g id="a_Node000013"><a xlink:title=" ">
<polygon fill="#e0e0e0" stroke="#999999" points="1541.75,-26 1425.25,-26 1425.25,-6 1541.75,-6 1541.75,-26"/>
<text text-anchor="middle" x="1483.5" y="-12.5" font-family="Helvetica,sans-Serif" font-size="10.00">javax.imageio.ImageIO</text>
</a>
</g>
</g>
<!-- Node1&#45;&gt;Node13 -->
<g id="edge12_Node000001_Node000013" class="edge">
<title>Node1&#45;&gt;Node13</title>
<g id="a_edge12_Node000001_Node000013"><a xlink:title=" ">
<path fill="none" stroke="#63b8ff" d="M1391.63,-67.53C1411.16,-56.79 1437.02,-42.56 1456.33,-31.94"/>
<polygon fill="#63b8ff" stroke="#63b8ff" points="1457.9,-35.08 1464.97,-27.19 1454.52,-28.94 1457.9,-35.08"/>
</a>
</g>
</g>
<!-- Node14 -->
<g id="Node000014" class="node">
<title>Node14</title>
<g id="a_Node000014"><a xlink:title=" ">
<polygon fill="#e0e0e0" stroke="#999999" points="1691.25,-32 1559.75,-32 1559.75,0 1691.25,0 1691.25,-32"/>
<text text-anchor="start" x="1567.75" y="-18.5" font-family="Helvetica,sans-Serif" font-size="10.00">com.google.zxing.Barcode</text>
<text text-anchor="middle" x="1625.5" y="-6.5" font-family="Helvetica,sans-Serif" font-size="10.00">Format</text>
</a>
</g>
</g>
<!-- Node1&#45;&gt;Node14 -->
<g id="edge13_Node000001_Node000014" class="edge">
<title>Node1&#45;&gt;Node14</title>
<g id="a_edge13_Node000001_Node000014"><a xlink:title=" ">
<path fill="none" stroke="#63b8ff" d="M1424.93,-67.53C1463.22,-57.88 1512.69,-45.42 1552.92,-35.28"/>
<polygon fill="#63b8ff" stroke="#63b8ff" points="1553.69,-38.7 1562.54,-32.86 1551.98,-31.91 1553.69,-38.7"/>
</a>
</g>
</g>
<!-- Node15 -->
<g id="Node000015" class="node">
<title>Node15</title>
<g id="a_Node000015"><a xlink:title=" ">
<polygon fill="#e0e0e0" stroke="#999999" points="1877.25,-26 1709.75,-26 1709.75,-6 1877.25,-6 1877.25,-26"/>
<text text-anchor="middle" x="1793.5" y="-12.5" font-family="Helvetica,sans-Serif" font-size="10.00">com.google.zxing.EncodeHintType</text>
</a>
</g>
</g>
<!-- Node1&#45;&gt;Node15 -->
<g id="edge14_Node000001_Node000015" class="edge">
<title>Node1&#45;&gt;Node15</title>
<g id="a_edge14_Node000001_Node000015"><a xlink:title=" ">
<path fill="none" stroke="#63b8ff" d="M1457.24,-69.06C1524.87,-58.95 1618.36,-44.84 1700.5,-32 1708.19,-30.8 1716.23,-29.53 1724.23,-28.25"/>
<polygon fill="#63b8ff" stroke="#63b8ff" points="1724.66,-31.73 1733.98,-26.69 1723.55,-24.81 1724.66,-31.73"/>
</a>
</g>
</g>
<!-- Node16 -->
<g id="Node000016" class="node">
<title>Node16</title>
<g id="a_Node000016"><a xlink:title=" ">
<polygon fill="#e0e0e0" stroke="#999999" points="2042.12,-32 1894.88,-32 1894.88,0 2042.12,0 2042.12,-32"/>
<text text-anchor="start" x="1902.88" y="-18.5" font-family="Helvetica,sans-Serif" font-size="10.00">com.google.zxing.MultiFormat</text>
<text text-anchor="middle" x="1968.5" y="-6.5" font-family="Helvetica,sans-Serif" font-size="10.00">Writer</text>
</a>
</g>
</g>
<!-- Node1&#45;&gt;Node16 -->
<g id="edge15_Node000001_Node000016" class="edge">
<title>Node1&#45;&gt;Node16</title>
<g id="a_edge15_Node000001_Node000016"><a xlink:title=" ">
<path fill="none" stroke="#63b8ff" d="M1457.31,-76.23C1559.74,-68.3 1728.82,-53.64 1883.67,-32.33"/>
<polygon fill="#63b8ff" stroke="#63b8ff" points="1883.87,-35.84 1893.29,-30.99 1882.9,-28.9 1883.87,-35.84"/>
</a>
</g>
</g>
<!-- Node17 -->
<g id="Node000017" class="node">
<title>Node17</title>
<g id="a_Node000017"><a xlink:title=" ">
<polygon fill="#e0e0e0" stroke="#999999" points="2224.75,-26 2060.25,-26 2060.25,-6 2224.75,-6 2224.75,-26"/>
<text text-anchor="middle" x="2142.5" y="-12.5" font-family="Helvetica,sans-Serif" font-size="10.00">com.google.zxing.WriterException</text>
</a>
</g>
</g>
<!-- Node1&#45;&gt;Node17 -->
<g id="edge16_Node000001_Node000017" class="edge">
<title>Node1&#45;&gt;Node17</title>
<g id="a_edge16_Node000001_Node000017"><a xlink:title=" ">
<path fill="none" stroke="#63b8ff" d="M1457.23,-78.71C1589.88,-72.04 1839.81,-57.24 2051.5,-32 2060.43,-30.94 2069.82,-29.62 2079.04,-28.2"/>
<polygon fill="#63b8ff" stroke="#63b8ff" points="2079.34,-31.7 2088.67,-26.68 2078.24,-24.79 2079.34,-31.7"/>
</a>
</g>
</g>
<!-- Node18 -->
<g id="Node000018" class="node">
<title>Node18</title>
<g id="a_Node000018"><a xlink:title=" ">
<polygon fill="#e0e0e0" stroke="#999999" points="2378.5,-32 2242.5,-32 2242.5,0 2378.5,0 2378.5,-32"/>
<text text-anchor="start" x="2250.5" y="-18.5" font-family="Helvetica,sans-Serif" font-size="10.00">com.google.zxing.common.</text>
<text text-anchor="middle" x="2310.5" y="-6.5" font-family="Helvetica,sans-Serif" font-size="10.00">BitMatrix</text>
</a>
</g>
</g>
<!-- Node1&#45;&gt;Node18 -->
<g id="edge17_Node000001_Node000018" class="edge">
<title>Node1&#45;&gt;Node18</title>
<g id="a_edge17_Node000001_Node000018"><a xlink:title=" ">
<path fill="none" stroke="#63b8ff" d="M1457.22,-81.61C1615.04,-78.37 1943.93,-67.73 2231.09,-32.19"/>
<polygon fill="#63b8ff" stroke="#63b8ff" points="2231.15,-35.71 2240.64,-31 2230.28,-28.77 2231.15,-35.71"/>
</a>
</g>
</g>
<!-- Node19 -->
<g id="Node000019" class="node">
<title>Node19</title>
<g id="a_Node000019"><a xlink:title=" ">
<polygon fill="#e0e0e0" stroke="#999999" points="2562.12,-32 2396.88,-32 2396.88,0 2562.12,0 2562.12,-32"/>
<text text-anchor="start" x="2404.88" y="-18.5" font-family="Helvetica,sans-Serif" font-size="10.00">com.google.zxing.qrcode.decoder.</text>
<text text-anchor="middle" x="2479.5" y="-6.5" font-family="Helvetica,sans-Serif" font-size="10.00">ErrorCorrectionLevel</text>
</a>
</g>
</g>
<!-- Node1&#45;&gt;Node19 -->
<g id="edge18_Node000001_Node000019" class="edge">
<title>Node1&#45;&gt;Node19</title>
<g id="a_edge18_Node000001_Node000019"><a xlink:title=" ">
<path fill="none" stroke="#63b8ff" d="M1457.31,-81.83C1635.93,-78.84 2037.36,-68.44 2385.49,-32.12"/>
<polygon fill="#63b8ff" stroke="#63b8ff" points="2385.72,-35.62 2395.3,-31.09 2384.99,-28.66 2385.72,-35.62"/>
</a>
</g>
</g>
<!-- Node20 -->
<g id="Node000020" class="node">
<title>Node20</title>
<g id="a_Node000020"><a xlink:title=" ">
<polygon fill="#e0e0e0" stroke="#999999" points="2702.38,-32 2580.62,-32 2580.62,0 2702.38,0 2702.38,-32"/>
<text text-anchor="start" x="2588.62" y="-18.5" font-family="Helvetica,sans-Serif" font-size="10.00">fr.softsf.canscan.model.</text>
<text text-anchor="middle" x="2641.5" y="-6.5" font-family="Helvetica,sans-Serif" font-size="10.00">ModuleContext</text>
</a>
</g>
</g>
<!-- Node1&#45;&gt;Node20 -->
<g id="edge19_Node000001_Node000020" class="edge">
<title>Node1&#45;&gt;Node20</title>
<g id="a_edge19_Node000001_Node000020"><a xlink:title=" ">
<path fill="none" stroke="#63b8ff" d="M1457.41,-81.09C1698.4,-75.86 2335.53,-59.9 2569,-32.13"/>
<polygon fill="#63b8ff" stroke="#63b8ff" points="2569.14,-35.64 2578.64,-30.95 2568.29,-28.7 2569.14,-35.64"/>
</a>
</g>
</g>
<!-- Node21 -->
<g id="Node000021" class="node">
<title>Node21</title>
<g id="a_Node000021"><a xlink:title=" ">
<polygon fill="#e0e0e0" stroke="#999999" points="2842.38,-32 2720.62,-32 2720.62,0 2842.38,0 2842.38,-32"/>
<text text-anchor="start" x="2728.62" y="-18.5" font-family="Helvetica,sans-Serif" font-size="10.00">fr.softsf.canscan.model.</text>
<text text-anchor="middle" x="2781.5" y="-6.5" font-family="Helvetica,sans-Serif" font-size="10.00">QrConfig</text>
</a>
</g>
</g>
<!-- Node1&#45;&gt;Node21 -->
<g id="edge20_Node000001_Node000021" class="edge">
<title>Node1&#45;&gt;Node21</title>
<g id="a_edge20_Node000001_Node000021"><a xlink:title=" ">
<path fill="none" stroke="#63b8ff" d="M1457.15,-81.57C1717.32,-77.26 2446.44,-62.86 2708.76,-32.16"/>
<polygon fill="#63b8ff" stroke="#63b8ff" points="2709.13,-35.64 2718.64,-30.96 2708.29,-28.69 2709.13,-35.64"/>
</a>
</g>
</g>
<!-- Node22 -->
<g id="Node000022" class="node">
<title>Node22</title>
<g id="a_Node000022"><a xlink:title=" ">
<polygon fill="#e0e0e0" stroke="#999999" points="3005,-26 2860,-26 2860,-6 3005,-6 3005,-26"/>
<text text-anchor="middle" x="2932.5" y="-12.5" font-family="Helvetica,sans-Serif" font-size="10.00">fr.softsf.canscan.util.Checker</text>
</a>
</g>
</g>
<!-- Node1&#45;&gt;Node22 -->
<g id="edge21_Node000001_Node000022" class="edge">
<title>Node1&#45;&gt;Node22</title>
<g id="a_edge21_Node000001_Node000022"><a xlink:title=" ">
<path fill="none" stroke="#63b8ff" d="M1457.37,-81.61C1739.89,-77.15 2579.52,-61.68 2851.5,-32 2859.71,-31.1 2868.34,-29.85 2876.78,-28.44"/>
<polygon fill="#63b8ff" stroke="#63b8ff" points="2877.38,-31.89 2886.62,-26.71 2876.17,-25 2877.38,-31.89"/>
</a>
</g>
</g>
</g>
</svg>
