<?xml version="1.0" encoding="UTF-8" standalone="no"?>
<!DOCTYPE svg PUBLIC "-//W3C//DTD SVG 1.1//EN"
 "http://www.w3.org/Graphics/SVG/1.1/DTD/svg11.dtd">
<!-- Generated by graphviz version 12.2.1 (20241206.2353)
 -->
<!-- Title: src/main/java/fr/softsf/canscan/ui/UiComponentsConfiguration.java Pages: 1 -->
<svg width="3483pt" height="108pt"
 viewBox="0.00 0.00 3483.25 108.00" xmlns="http://www.w3.org/2000/svg" xmlns:xlink="http://www.w3.org/1999/xlink">
<g id="graph0" class="graph" transform="scale(1 1) rotate(0) translate(4 104)">
<title>src/main/java/fr/softsf/canscan/ui/UiComponentsConfiguration.java</title>
<!-- Node1 -->
<g id="Node000001" class="node">
<title>Node1</title>
<g id="a_Node000001"><a xlink:title=" ">
<polygon fill="#999999" stroke="#666666" points="1767.38,-100 1554.12,-100 1554.12,-68 1767.38,-68 1767.38,-100"/>
<text text-anchor="start" x="1562.12" y="-86.5" font-family="Helvetica,sans-Serif" font-size="10.00">src/main/java/fr/softsf</text>
<text text-anchor="middle" x="1660.75" y="-74.5" font-family="Helvetica,sans-Serif" font-size="10.00">/canscan/ui/UiComponentsConfiguration.java</text>
</a>
</g>
</g>
<!-- Node2 -->
<g id="Node000002" class="node">
<title>Node2</title>
<g id="a_Node000002"><a xlink:title=" ">
<polygon fill="#e0e0e0" stroke="#999999" points="113.5,-26 0,-26 0,-6 113.5,-6 113.5,-26"/>
<text text-anchor="middle" x="56.75" y="-12.5" font-family="Helvetica,sans-Serif" font-size="10.00">java.awt.BorderLayout</text>
</a>
</g>
</g>
<!-- Node1&#45;&gt;Node2 -->
<g id="edge1_Node000001_Node000002" class="edge">
<title>Node1&#45;&gt;Node2</title>
<g id="a_edge1_Node000001_Node000002"><a xlink:title=" ">
<path fill="none" stroke="#63b8ff" d="M1553.89,-82.1C1252.58,-79.15 400.13,-67.79 122.75,-32 116.56,-31.2 110.1,-30.09 103.74,-28.83"/>
<polygon fill="#63b8ff" stroke="#63b8ff" points="104.48,-25.41 93.97,-26.74 103.02,-32.25 104.48,-25.41"/>
</a>
</g>
</g>
<!-- Node3 -->
<g id="Node000003" class="node">
<title>Node3</title>
<g id="a_Node000003"><a xlink:title=" ">
<polygon fill="#e0e0e0" stroke="#999999" points="233.88,-26 131.62,-26 131.62,-6 233.88,-6 233.88,-26"/>
<text text-anchor="middle" x="182.75" y="-12.5" font-family="Helvetica,sans-Serif" font-size="10.00">java.awt.Dimension</text>
</a>
</g>
</g>
<!-- Node1&#45;&gt;Node3 -->
<g id="edge2_Node000001_Node000003" class="edge">
<title>Node1&#45;&gt;Node3</title>
<g id="a_edge2_Node000001_Node000003"><a xlink:title=" ">
<path fill="none" stroke="#63b8ff" d="M1553.82,-82.05C1268.84,-79.04 495.58,-67.75 242.75,-32 237.38,-31.24 231.8,-30.2 226.3,-29.01"/>
<polygon fill="#63b8ff" stroke="#63b8ff" points="227.21,-25.63 216.68,-26.77 225.62,-32.45 227.21,-25.63"/>
</a>
</g>
</g>
<!-- Node4 -->
<g id="Node000004" class="node">
<title>Node4</title>
<g id="a_Node000004"><a xlink:title=" ">
<polygon fill="#e0e0e0" stroke="#999999" points="393.38,-26 252.12,-26 252.12,-6 393.38,-6 393.38,-26"/>
<text text-anchor="middle" x="322.75" y="-12.5" font-family="Helvetica,sans-Serif" font-size="10.00">java.awt.GridBagConstraints</text>
</a>
</g>
</g>
<!-- Node1&#45;&gt;Node4 -->
<g id="edge3_Node000001_Node000004" class="edge">
<title>Node1&#45;&gt;Node4</title>
<g id="a_edge3_Node000001_Node000004"><a xlink:title=" ">
<path fill="none" stroke="#63b8ff" d="M1553.9,-83.87C1336.45,-84.5 827.08,-80.13 402.75,-32 394.74,-31.09 386.32,-29.84 378.08,-28.45"/>
<polygon fill="#63b8ff" stroke="#63b8ff" points="378.96,-25.05 368.5,-26.75 377.73,-31.94 378.96,-25.05"/>
</a>
</g>
</g>
<!-- Node5 -->
<g id="Node000005" class="node">
<title>Node5</title>
<g id="a_Node000005"><a xlink:title=" ">
<polygon fill="#e0e0e0" stroke="#999999" points="531.88,-26 411.62,-26 411.62,-6 531.88,-6 531.88,-26"/>
<text text-anchor="middle" x="471.75" y="-12.5" font-family="Helvetica,sans-Serif" font-size="10.00">java.awt.GridBagLayout</text>
</a>
</g>
</g>
<!-- Node1&#45;&gt;Node5 -->
<g id="edge4_Node000001_Node000005" class="edge">
<title>Node1&#45;&gt;Node5</title>
<g id="a_edge4_Node000001_Node000005"><a xlink:title=" ">
<path fill="none" stroke="#63b8ff" d="M1553.94,-80.39C1313.43,-74.14 735.35,-56.98 541.75,-32 535.2,-31.15 528.34,-30.01 521.6,-28.73"/>
<polygon fill="#63b8ff" stroke="#63b8ff" points="522.41,-25.33 511.91,-26.78 521.03,-32.19 522.41,-25.33"/>
</a>
</g>
</g>
<!-- Node6 -->
<g id="Node000006" class="node">
<title>Node6</title>
<g id="a_Node000006"><a xlink:title=" ">
<polygon fill="#e0e0e0" stroke="#999999" points="633.12,-26 550.38,-26 550.38,-6 633.12,-6 633.12,-26"/>
<text text-anchor="middle" x="591.75" y="-12.5" font-family="Helvetica,sans-Serif" font-size="10.00">java.awt.Insets</text>
</a>
</g>
</g>
<!-- Node1&#45;&gt;Node6 -->
<g id="edge5_Node000001_Node000006" class="edge">
<title>Node1&#45;&gt;Node6</title>
<g id="a_edge5_Node000001_Node000006"><a xlink:title=" ">
<path fill="none" stroke="#63b8ff" d="M1553.84,-80.84C1329.34,-75.77 815.36,-61.28 642.75,-32 638.69,-31.31 634.49,-30.41 630.34,-29.38"/>
<polygon fill="#63b8ff" stroke="#63b8ff" points="631.56,-26.09 620.99,-26.85 629.73,-32.84 631.56,-26.09"/>
</a>
</g>
</g>
<!-- Node7 -->
<g id="Node000007" class="node">
<title>Node7</title>
<g id="a_Node000007"><a xlink:title=" ">
<polygon fill="#e0e0e0" stroke="#999999" points="783.88,-26 651.62,-26 651.62,-6 783.88,-6 783.88,-26"/>
<text text-anchor="middle" x="717.75" y="-12.5" font-family="Helvetica,sans-Serif" font-size="10.00">javax.swing.BorderFactory</text>
</a>
</g>
</g>
<!-- Node1&#45;&gt;Node7 -->
<g id="edge6_Node000001_Node000007" class="edge">
<title>Node1&#45;&gt;Node7</title>
<g id="a_edge6_Node000001_Node000007"><a xlink:title=" ">
<path fill="none" stroke="#63b8ff" d="M1553.74,-81.48C1389.44,-78.07 1065.42,-67.11 792.75,-32 785.66,-31.09 778.24,-29.9 770.94,-28.58"/>
<polygon fill="#63b8ff" stroke="#63b8ff" points="771.59,-25.14 761.11,-26.72 770.29,-32.02 771.59,-25.14"/>
</a>
</g>
</g>
<!-- Node8 -->
<g id="Node000008" class="node">
<title>Node8</title>
<g id="a_Node000008"><a xlink:title=" ">
<polygon fill="#e0e0e0" stroke="#999999" points="927.5,-26 802,-26 802,-6 927.5,-6 927.5,-26"/>
<text text-anchor="middle" x="864.75" y="-12.5" font-family="Helvetica,sans-Serif" font-size="10.00">javax.swing.ButtonGroup</text>
</a>
</g>
</g>
<!-- Node1&#45;&gt;Node8 -->
<g id="edge7_Node000001_Node000008" class="edge">
<title>Node1&#45;&gt;Node8</title>
<g id="a_edge7_Node000001_Node000008"><a xlink:title=" ">
<path fill="none" stroke="#63b8ff" d="M1553.86,-79.98C1412.19,-74.95 1154.7,-62.24 936.75,-32 930.19,-31.09 923.33,-29.93 916.56,-28.66"/>
<polygon fill="#63b8ff" stroke="#63b8ff" points="917.3,-25.24 906.81,-26.75 915.95,-32.11 917.3,-25.24"/>
</a>
</g>
</g>
<!-- Node9 -->
<g id="Node000009" class="node">
<title>Node9</title>
<g id="a_Node000009"><a xlink:title=" ">
<polygon fill="#e0e0e0" stroke="#999999" points="1050,-26 945.5,-26 945.5,-6 1050,-6 1050,-26"/>
<text text-anchor="middle" x="997.75" y="-12.5" font-family="Helvetica,sans-Serif" font-size="10.00">javax.swing.JButton</text>
</a>
</g>
</g>
<!-- Node1&#45;&gt;Node9 -->
<g id="edge8_Node000001_Node000009" class="edge">
<title>Node1&#45;&gt;Node9</title>
<g id="a_edge8_Node000001_Node000009"><a xlink:title=" ">
<path fill="none" stroke="#63b8ff" d="M1553.83,-79C1432.98,-73.31 1230.69,-60.24 1058.75,-32 1053.71,-31.17 1048.47,-30.15 1043.28,-29.02"/>
<polygon fill="#63b8ff" stroke="#63b8ff" points="1044.08,-25.61 1033.55,-26.78 1042.51,-32.43 1044.08,-25.61"/>
</a>
</g>
</g>
<!-- Node10 -->
<g id="Node000010" class="node">
<title>Node10</title>
<g id="a_Node000010"><a xlink:title=" ">
<polygon fill="#e0e0e0" stroke="#999999" points="1193.88,-26 1067.62,-26 1067.62,-6 1193.88,-6 1193.88,-26"/>
<text text-anchor="middle" x="1130.75" y="-12.5" font-family="Helvetica,sans-Serif" font-size="10.00">javax.swing.JComponent</text>
</a>
</g>
</g>
<!-- Node1&#45;&gt;Node10 -->
<g id="edge9_Node000001_Node000010" class="edge">
<title>Node1&#45;&gt;Node10</title>
<g id="a_edge9_Node000001_Node000010"><a xlink:title=" ">
<path fill="none" stroke="#63b8ff" d="M1553.94,-73.99C1460.87,-65.45 1322.45,-51.09 1202.75,-32 1196.68,-31.03 1190.35,-29.9 1184.07,-28.69"/>
<polygon fill="#63b8ff" stroke="#63b8ff" points="1184.86,-25.28 1174.37,-26.77 1183.5,-32.15 1184.86,-25.28"/>
</a>
</g>
</g>
<!-- Node11 -->
<g id="Node000011" class="node">
<title>Node11</title>
<g id="a_Node000011"><a xlink:title=" ">
<polygon fill="#e0e0e0" stroke="#999999" points="1311.38,-26 1212.12,-26 1212.12,-6 1311.38,-6 1311.38,-26"/>
<text text-anchor="middle" x="1261.75" y="-12.5" font-family="Helvetica,sans-Serif" font-size="10.00">javax.swing.JLabel</text>
</a>
</g>
</g>
<!-- Node1&#45;&gt;Node11 -->
<g id="edge10_Node000001_Node000011" class="edge">
<title>Node1&#45;&gt;Node11</title>
<g id="a_edge10_Node000001_Node000011"><a xlink:title=" ">
<path fill="none" stroke="#63b8ff" d="M1553.84,-69.76C1486.63,-60.74 1398.28,-47.63 1320.75,-32 1316.44,-31.13 1311.98,-30.15 1307.53,-29.11"/>
<polygon fill="#63b8ff" stroke="#63b8ff" points="1308.57,-25.77 1298.03,-26.82 1306.93,-32.57 1308.57,-25.77"/>
</a>
</g>
</g>
<!-- Node12 -->
<g id="Node000012" class="node">
<title>Node12</title>
<g id="a_Node000012"><a xlink:title=" ">
<polygon fill="#e0e0e0" stroke="#999999" points="1430.12,-26 1329.38,-26 1329.38,-6 1430.12,-6 1430.12,-26"/>
<text text-anchor="middle" x="1379.75" y="-12.5" font-family="Helvetica,sans-Serif" font-size="10.00">javax.swing.JPanel</text>
</a>
</g>
</g>
<!-- Node1&#45;&gt;Node12 -->
<g id="edge11_Node000001_Node000012" class="edge">
<title>Node1&#45;&gt;Node12</title>
<g id="a_edge11_Node000001_Node000012"><a xlink:title=" ">
<path fill="none" stroke="#63b8ff" d="M1591.65,-67.56C1547.79,-57.65 1489.87,-44.37 1438.75,-32 1435.15,-31.13 1431.44,-30.22 1427.7,-29.29"/>
<polygon fill="#63b8ff" stroke="#63b8ff" points="1428.56,-25.9 1418.01,-26.86 1426.86,-32.69 1428.56,-25.9"/>
</a>
</g>
</g>
<!-- Node13 -->
<g id="Node000013" class="node">
<title>Node13</title>
<g id="a_Node000013"><a xlink:title=" ">
<polygon fill="#e0e0e0" stroke="#999999" points="1577.75,-26 1447.75,-26 1447.75,-6 1577.75,-6 1577.75,-26"/>
<text text-anchor="middle" x="1512.75" y="-12.5" font-family="Helvetica,sans-Serif" font-size="10.00">javax.swing.JProgressBar</text>
</a>
</g>
</g>
<!-- Node1&#45;&gt;Node13 -->
<g id="edge12_Node000001_Node000013" class="edge">
<title>Node1&#45;&gt;Node13</title>
<g id="a_edge12_Node000001_Node000013"><a xlink:title=" ">
<path fill="none" stroke="#63b8ff" d="M1626.05,-67.53C1601.3,-56.49 1568.3,-41.77 1544.3,-31.07"/>
<polygon fill="#63b8ff" stroke="#63b8ff" points="1545.9,-27.95 1535.35,-27.08 1543.05,-34.35 1545.9,-27.95"/>
</a>
</g>
</g>
<!-- Node14 -->
<g id="Node000014" class="node">
<title>Node14</title>
<g id="a_Node000014"><a xlink:title=" ">
<polygon fill="#e0e0e0" stroke="#999999" points="1725.75,-26 1595.75,-26 1595.75,-6 1725.75,-6 1725.75,-26"/>
<text text-anchor="middle" x="1660.75" y="-12.5" font-family="Helvetica,sans-Serif" font-size="10.00">javax.swing.JRadioButton</text>
</a>
</g>
</g>
<!-- Node1&#45;&gt;Node14 -->
<g id="edge13_Node000001_Node000014" class="edge">
<title>Node1&#45;&gt;Node14</title>
<g id="a_edge13_Node000001_Node000014"><a xlink:title=" ">
<path fill="none" stroke="#63b8ff" d="M1660.75,-67.69C1660.75,-58.8 1660.75,-47.46 1660.75,-37.77"/>
<polygon fill="#63b8ff" stroke="#63b8ff" points="1664.25,-37.83 1660.75,-27.83 1657.25,-37.83 1664.25,-37.83"/>
</a>
</g>
</g>
<!-- Node15 -->
<g id="Node000015" class="node">
<title>Node15</title>
<g id="a_Node000015"><a xlink:title=" ">
<polygon fill="#e0e0e0" stroke="#999999" points="1867.38,-26 1744.12,-26 1744.12,-6 1867.38,-6 1867.38,-26"/>
<text text-anchor="middle" x="1805.75" y="-12.5" font-family="Helvetica,sans-Serif" font-size="10.00">javax.swing.JScrollPane</text>
</a>
</g>
</g>
<!-- Node1&#45;&gt;Node15 -->
<g id="edge14_Node000001_Node000015" class="edge">
<title>Node1&#45;&gt;Node15</title>
<g id="a_edge14_Node000001_Node000015"><a xlink:title=" ">
<path fill="none" stroke="#63b8ff" d="M1694.75,-67.53C1718.88,-56.54 1751.04,-41.9 1774.53,-31.21"/>
<polygon fill="#63b8ff" stroke="#63b8ff" points="1775.94,-34.42 1783.59,-27.09 1773.04,-28.04 1775.94,-34.42"/>
</a>
</g>
</g>
<!-- Node16 -->
<g id="Node000016" class="node">
<title>Node16</title>
<g id="a_Node000016"><a xlink:title=" ">
<polygon fill="#e0e0e0" stroke="#999999" points="1986.12,-26 1885.38,-26 1885.38,-6 1986.12,-6 1986.12,-26"/>
<text text-anchor="middle" x="1935.75" y="-12.5" font-family="Helvetica,sans-Serif" font-size="10.00">javax.swing.JSlider</text>
</a>
</g>
</g>
<!-- Node1&#45;&gt;Node16 -->
<g id="edge15_Node000001_Node000016" class="edge">
<title>Node1&#45;&gt;Node16</title>
<g id="a_edge15_Node000001_Node000016"><a xlink:title=" ">
<path fill="none" stroke="#63b8ff" d="M1727.47,-67.56C1770.2,-57.59 1826.79,-44.25 1876.75,-32 1880.34,-31.12 1884.06,-30.2 1887.79,-29.27"/>
<polygon fill="#63b8ff" stroke="#63b8ff" points="1888.64,-32.66 1897.48,-26.83 1886.93,-25.87 1888.64,-32.66"/>
</a>
</g>
</g>
<!-- Node17 -->
<g id="Node000017" class="node">
<title>Node17</title>
<g id="a_Node000017"><a xlink:title=" ">
<polygon fill="#e0e0e0" stroke="#999999" points="2119.25,-26 2004.25,-26 2004.25,-6 2119.25,-6 2119.25,-26"/>
<text text-anchor="middle" x="2061.75" y="-12.5" font-family="Helvetica,sans-Serif" font-size="10.00">javax.swing.JTextArea</text>
</a>
</g>
</g>
<!-- Node1&#45;&gt;Node17 -->
<g id="edge16_Node000001_Node000017" class="edge">
<title>Node1&#45;&gt;Node17</title>
<g id="a_edge16_Node000001_Node000017"><a xlink:title=" ">
<path fill="none" stroke="#63b8ff" d="M1767.86,-68.55C1833.54,-59.22 1919.23,-46.2 1994.75,-32 1999.9,-31.03 2005.25,-29.95 2010.59,-28.83"/>
<polygon fill="#63b8ff" stroke="#63b8ff" points="2010.93,-32.34 2019.97,-26.81 2009.46,-25.5 2010.93,-32.34"/>
</a>
</g>
</g>
<!-- Node18 -->
<g id="Node000018" class="node">
<title>Node18</title>
<g id="a_Node000018"><a xlink:title=" ">
<polygon fill="#e0e0e0" stroke="#999999" points="2252.62,-26 2136.88,-26 2136.88,-6 2252.62,-6 2252.62,-26"/>
<text text-anchor="middle" x="2194.75" y="-12.5" font-family="Helvetica,sans-Serif" font-size="10.00">javax.swing.JTextField</text>
</a>
</g>
</g>
<!-- Node1&#45;&gt;Node18 -->
<g id="edge17_Node000001_Node000018" class="edge">
<title>Node1&#45;&gt;Node18</title>
<g id="a_edge17_Node000001_Node000018"><a xlink:title=" ">
<path fill="none" stroke="#63b8ff" d="M1767.64,-74.87C1862.81,-66.8 2005.62,-52.63 2128.75,-32 2134.26,-31.08 2140,-29.98 2145.69,-28.8"/>
<polygon fill="#63b8ff" stroke="#63b8ff" points="2145.99,-32.32 2155.03,-26.79 2144.52,-25.48 2145.99,-32.32"/>
</a>
</g>
</g>
<!-- Node19 -->
<g id="Node000019" class="node">
<title>Node19</title>
<g id="a_Node000019"><a xlink:title=" ">
<polygon fill="#e0e0e0" stroke="#999999" points="2404.62,-26 2270.88,-26 2270.88,-6 2404.62,-6 2404.62,-26"/>
<text text-anchor="middle" x="2337.75" y="-12.5" font-family="Helvetica,sans-Serif" font-size="10.00">javax.swing.OverlayLayout</text>
</a>
</g>
</g>
<!-- Node1&#45;&gt;Node19 -->
<g id="edge18_Node000001_Node000019" class="edge">
<title>Node1&#45;&gt;Node19</title>
<g id="a_edge18_Node000001_Node000019"><a xlink:title=" ">
<path fill="none" stroke="#63b8ff" d="M1767.81,-77.48C1888.32,-70.45 2089.75,-56.2 2261.75,-32 2268.65,-31.03 2275.88,-29.84 2283.01,-28.55"/>
<polygon fill="#63b8ff" stroke="#63b8ff" points="2283.41,-32.04 2292.6,-26.75 2282.12,-25.16 2283.41,-32.04"/>
</a>
</g>
</g>
<!-- Node20 -->
<g id="Node000020" class="node">
<title>Node20</title>
<g id="a_Node000020"><a xlink:title=" ">
<polygon fill="#e0e0e0" stroke="#999999" points="2553.12,-26 2422.38,-26 2422.38,-6 2553.12,-6 2553.12,-26"/>
<text text-anchor="middle" x="2487.75" y="-12.5" font-family="Helvetica,sans-Serif" font-size="10.00">javax.swing.SwingUtilities</text>
</a>
</g>
</g>
<!-- Node1&#45;&gt;Node20 -->
<g id="edge19_Node000001_Node000020" class="edge">
<title>Node1&#45;&gt;Node20</title>
<g id="a_edge19_Node000001_Node000020"><a xlink:title=" ">
<path fill="none" stroke="#63b8ff" d="M1767.81,-80.21C1914.23,-75.37 2184.88,-62.81 2413.75,-32 2420.57,-31.08 2427.71,-29.91 2434.75,-28.62"/>
<polygon fill="#63b8ff" stroke="#63b8ff" points="2435.39,-32.06 2444.55,-26.74 2434.07,-25.19 2435.39,-32.06"/>
</a>
</g>
</g>
<!-- Node21 -->
<g id="Node000021" class="node">
<title>Node21</title>
<g id="a_Node000021"><a xlink:title=" ">
<polygon fill="#e0e0e0" stroke="#999999" points="2714.12,-32 2571.38,-32 2571.38,0 2714.12,0 2714.12,-32"/>
<text text-anchor="start" x="2579.38" y="-18.5" font-family="Helvetica,sans-Serif" font-size="10.00">javax.swing.event.Document</text>
<text text-anchor="middle" x="2642.75" y="-6.5" font-family="Helvetica,sans-Serif" font-size="10.00">Listener</text>
</a>
</g>
</g>
<!-- Node1&#45;&gt;Node21 -->
<g id="edge20_Node000001_Node000021" class="edge">
<title>Node1&#45;&gt;Node21</title>
<g id="a_edge20_Node000001_Node000021"><a xlink:title=" ">
<path fill="none" stroke="#63b8ff" d="M1767.59,-81.32C1934.54,-77.73 2267.53,-66.68 2560.01,-32.09"/>
<polygon fill="#63b8ff" stroke="#63b8ff" points="2560.25,-35.59 2569.77,-30.92 2559.42,-28.64 2560.25,-35.59"/>
</a>
</g>
</g>
<!-- Node22 -->
<g id="Node000022" class="node">
<title>Node22</title>
<g id="a_Node000022"><a xlink:title=" ">
<polygon fill="#e0e0e0" stroke="#999999" points="2871.25,-32 2732.25,-32 2732.25,0 2871.25,0 2871.25,-32"/>
<text text-anchor="start" x="2740.25" y="-18.5" font-family="Helvetica,sans-Serif" font-size="10.00">org.apache.commons.lang3.</text>
<text text-anchor="middle" x="2801.75" y="-6.5" font-family="Helvetica,sans-Serif" font-size="10.00">StringUtils</text>
</a>
</g>
</g>
<!-- Node1&#45;&gt;Node22 -->
<g id="edge21_Node000001_Node000022" class="edge">
<title>Node1&#45;&gt;Node22</title>
<g id="a_edge21_Node000001_Node000022"><a xlink:title=" ">
<path fill="none" stroke="#63b8ff" d="M1767.81,-82.79C1957.8,-81.33 2366.46,-73.31 2720.79,-32.1"/>
<polygon fill="#63b8ff" stroke="#63b8ff" points="2721.02,-35.6 2730.54,-30.96 2720.2,-28.65 2721.02,-35.6"/>
</a>
</g>
</g>
<!-- Node23 -->
<g id="Node000023" class="node">
<title>Node23</title>
<g id="a_Node000023"><a xlink:title=" ">
<polygon fill="#e0e0e0" stroke="#999999" points="3022.25,-32 2889.25,-32 2889.25,0 3022.25,0 3022.25,-32"/>
<text text-anchor="start" x="2897.25" y="-18.5" font-family="Helvetica,sans-Serif" font-size="10.00">fr.softsf.canscan.constant.</text>
<text text-anchor="middle" x="2955.75" y="-6.5" font-family="Helvetica,sans-Serif" font-size="10.00">FloatConstants</text>
</a>
</g>
</g>
<!-- Node1&#45;&gt;Node23 -->
<g id="edge22_Node000001_Node000023" class="edge">
<title>Node1&#45;&gt;Node23</title>
<g id="a_edge22_Node000001_Node000023"><a xlink:title=" ">
<path fill="none" stroke="#63b8ff" d="M1767.56,-80.67C2019.32,-74.84 2645.6,-58.26 2877.38,-32.26"/>
<polygon fill="#63b8ff" stroke="#63b8ff" points="2877.74,-35.74 2887.27,-31.11 2876.93,-28.79 2877.74,-35.74"/>
</a>
</g>
</g>
<!-- Node24 -->
<g id="Node000024" class="node">
<title>Node24</title>
<g id="a_Node000024"><a xlink:title=" ">
<polygon fill="#e0e0e0" stroke="#999999" points="3173.25,-32 3040.25,-32 3040.25,0 3173.25,0 3173.25,-32"/>
<text text-anchor="start" x="3048.25" y="-18.5" font-family="Helvetica,sans-Serif" font-size="10.00">fr.softsf.canscan.constant.</text>
<text text-anchor="middle" x="3106.75" y="-6.5" font-family="Helvetica,sans-Serif" font-size="10.00">IntConstants</text>
</a>
</g>
</g>
<!-- Node1&#45;&gt;Node24 -->
<g id="edge23_Node000001_Node000024" class="edge">
<title>Node1&#45;&gt;Node24</title>
<g id="a_edge23_Node000001_Node000024"><a xlink:title=" ">
<path fill="none" stroke="#63b8ff" d="M1767.81,-81.24C2042.05,-76.37 2766.04,-61.21 3028.38,-32.25"/>
<polygon fill="#63b8ff" stroke="#63b8ff" points="3028.73,-35.73 3038.27,-31.12 3027.94,-28.78 3028.73,-35.73"/>
</a>
</g>
</g>
<!-- Node25 -->
<g id="Node000025" class="node">
<title>Node25</title>
<g id="a_Node000025"><a xlink:title=" ">
<polygon fill="#e0e0e0" stroke="#999999" points="3312.62,-32 3190.88,-32 3190.88,0 3312.62,0 3312.62,-32"/>
<text text-anchor="start" x="3198.88" y="-18.5" font-family="Helvetica,sans-Serif" font-size="10.00">fr.softsf.canscan.model.</text>
<text text-anchor="middle" x="3251.75" y="-6.5" font-family="Helvetica,sans-Serif" font-size="10.00">MecardJFields</text>
</a>
</g>
</g>
<!-- Node1&#45;&gt;Node25 -->
<g id="edge24_Node000001_Node000025" class="edge">
<title>Node1&#45;&gt;Node25</title>
<g id="a_edge24_Node000001_Node000025"><a xlink:title=" ">
<path fill="none" stroke="#63b8ff" d="M1767.82,-81.93C2063.33,-78.57 2887.22,-66.43 3179.52,-32.24"/>
<polygon fill="#63b8ff" stroke="#63b8ff" points="3179.51,-35.77 3189.02,-31.09 3178.67,-28.82 3179.51,-35.77"/>
</a>
</g>
</g>
<!-- Node26 -->
<g id="Node000026" class="node">
<title>Node26</title>
<g id="a_Node000026"><a xlink:title=" ">
<polygon fill="#e0e0e0" stroke="#999999" points="3475.25,-26 3330.25,-26 3330.25,-6 3475.25,-6 3475.25,-26"/>
<text text-anchor="middle" x="3402.75" y="-12.5" font-family="Helvetica,sans-Serif" font-size="10.00">fr.softsf.canscan.util.Checker</text>
</a>
</g>
</g>
<!-- Node1&#45;&gt;Node26 -->
<g id="edge25_Node000001_Node000026" class="edge">
<title>Node1&#45;&gt;Node26</title>
<g id="a_edge25_Node000001_Node000026"><a xlink:title=" ">
<path fill="none" stroke="#63b8ff" d="M1767.78,-81.85C2085.32,-78.09 3018.85,-64.51 3321.75,-32 3329.96,-31.12 3338.59,-29.87 3347.03,-28.47"/>
<polygon fill="#63b8ff" stroke="#63b8ff" points="3347.63,-31.92 3356.88,-26.74 3346.42,-25.02 3347.63,-31.92"/>
</a>
</g>
</g>
</g>
</svg>
