<?xml version="1.0" encoding="UTF-8" standalone="no"?>
<!DOCTYPE svg PUBLIC "-//W3C//DTD SVG 1.1//EN"
 "http://www.w3.org/Graphics/SVG/1.1/DTD/svg11.dtd">
<!-- Generated by graphviz version 12.2.1 (20241206.2353)
 -->
<!-- Title: src/main/java/fr/softsf/canscan/ui/UiComponentsConfiguration.java Pages: 1 -->
<svg width="5134pt" height="108pt"
 viewBox="0.00 0.00 5133.62 108.00" xmlns="http://www.w3.org/2000/svg" xmlns:xlink="http://www.w3.org/1999/xlink">
<g id="graph0" class="graph" transform="scale(1 1) rotate(0) translate(4 104)">
<title>src/main/java/fr/softsf/canscan/ui/UiComponentsConfiguration.java</title>
<!-- Node1 -->
<g id="Node000001" class="node">
<title>Node1</title>
<g id="a_Node000001"><a xlink:title=" ">
<polygon fill="#999999" stroke="#666666" points="2464.38,-100 2251.12,-100 2251.12,-68 2464.38,-68 2464.38,-100"/>
<text text-anchor="start" x="2259.12" y="-86.5" font-family="Helvetica,sans-Serif" font-size="10.00">src/main/java/fr/softsf</text>
<text text-anchor="middle" x="2357.75" y="-74.5" font-family="Helvetica,sans-Serif" font-size="10.00">/canscan/ui/UiComponentsConfiguration.java</text>
</a>
</g>
</g>
<!-- Node2 -->
<g id="Node000002" class="node">
<title>Node2</title>
<g id="a_Node000002"><a xlink:title=" ">
<polygon fill="#e0e0e0" stroke="#999999" points="113.5,-26 0,-26 0,-6 113.5,-6 113.5,-26"/>
<text text-anchor="middle" x="56.75" y="-12.5" font-family="Helvetica,sans-Serif" font-size="10.00">java.awt.BorderLayout</text>
</a>
</g>
</g>
<!-- Node1&#45;&gt;Node2 -->
<g id="edge1_Node000001_Node000002" class="edge">
<title>Node1&#45;&gt;Node2</title>
<g id="a_edge1_Node000001_Node000002"><a xlink:title=" ">
<path fill="none" stroke="#63b8ff" d="M2250.73,-83.4C1864.32,-84.41 542,-83.89 122.75,-32 116.55,-31.23 110.09,-30.14 103.73,-28.89"/>
<polygon fill="#63b8ff" stroke="#63b8ff" points="104.47,-25.47 93.97,-26.81 103.02,-32.31 104.47,-25.47"/>
</a>
</g>
</g>
<!-- Node3 -->
<g id="Node000003" class="node">
<title>Node3</title>
<g id="a_Node000003"><a xlink:title=" ">
<polygon fill="#e0e0e0" stroke="#999999" points="233.88,-26 131.62,-26 131.62,-6 233.88,-6 233.88,-26"/>
<text text-anchor="middle" x="182.75" y="-12.5" font-family="Helvetica,sans-Serif" font-size="10.00">java.awt.Dimension</text>
</a>
</g>
</g>
<!-- Node1&#45;&gt;Node3 -->
<g id="edge2_Node000001_Node000003" class="edge">
<title>Node1&#45;&gt;Node3</title>
<g id="a_edge2_Node000001_Node000003"><a xlink:title=" ">
<path fill="none" stroke="#63b8ff" d="M2250.69,-83.54C1877.73,-84.93 636.87,-85.35 242.75,-32 237.38,-31.27 231.8,-30.25 226.29,-29.08"/>
<polygon fill="#63b8ff" stroke="#63b8ff" points="227.2,-25.69 216.67,-26.84 225.62,-32.51 227.2,-25.69"/>
</a>
</g>
</g>
<!-- Node4 -->
<g id="Node000004" class="node">
<title>Node4</title>
<g id="a_Node000004"><a xlink:title=" ">
<polygon fill="#e0e0e0" stroke="#999999" points="393.38,-26 252.12,-26 252.12,-6 393.38,-6 393.38,-26"/>
<text text-anchor="middle" x="322.75" y="-12.5" font-family="Helvetica,sans-Serif" font-size="10.00">java.awt.GridBagConstraints</text>
</a>
</g>
</g>
<!-- Node1&#45;&gt;Node4 -->
<g id="edge3_Node000001_Node000004" class="edge">
<title>Node1&#45;&gt;Node4</title>
<g id="a_edge3_Node000001_Node000004"><a xlink:title=" ">
<path fill="none" stroke="#63b8ff" d="M2250.69,-82.45C1896.63,-80.3 765.49,-70.49 402.75,-32 394.54,-31.13 385.91,-29.87 377.48,-28.46"/>
<polygon fill="#63b8ff" stroke="#63b8ff" points="378.11,-25.01 367.65,-26.71 376.88,-31.9 378.11,-25.01"/>
</a>
</g>
</g>
<!-- Node5 -->
<g id="Node000005" class="node">
<title>Node5</title>
<g id="a_Node000005"><a xlink:title=" ">
<polygon fill="#e0e0e0" stroke="#999999" points="531.88,-26 411.62,-26 411.62,-6 531.88,-6 531.88,-26"/>
<text text-anchor="middle" x="471.75" y="-12.5" font-family="Helvetica,sans-Serif" font-size="10.00">java.awt.GridBagLayout</text>
</a>
</g>
</g>
<!-- Node1&#45;&gt;Node5 -->
<g id="edge4_Node000001_Node000005" class="edge">
<title>Node1&#45;&gt;Node5</title>
<g id="a_edge4_Node000001_Node000005"><a xlink:title=" ">
<path fill="none" stroke="#63b8ff" d="M2250.67,-82.56C1913.39,-80.79 875.65,-72.12 541.75,-32 534.95,-31.18 527.83,-30.02 520.85,-28.7"/>
<polygon fill="#63b8ff" stroke="#63b8ff" points="521.66,-25.3 511.17,-26.75 520.28,-32.16 521.66,-25.3"/>
</a>
</g>
</g>
<!-- Node6 -->
<g id="Node000006" class="node">
<title>Node6</title>
<g id="a_Node000006"><a xlink:title=" ">
<polygon fill="#e0e0e0" stroke="#999999" points="633.12,-26 550.38,-26 550.38,-6 633.12,-6 633.12,-26"/>
<text text-anchor="middle" x="591.75" y="-12.5" font-family="Helvetica,sans-Serif" font-size="10.00">java.awt.Insets</text>
</a>
</g>
</g>
<!-- Node1&#45;&gt;Node6 -->
<g id="edge5_Node000001_Node000006" class="edge">
<title>Node1&#45;&gt;Node6</title>
<g id="a_edge5_Node000001_Node000006"><a xlink:title=" ">
<path fill="none" stroke="#63b8ff" d="M2250.74,-83.47C1925.77,-84.34 953.62,-82.52 641.75,-32 637.83,-31.36 633.79,-30.51 629.78,-29.52"/>
<polygon fill="#63b8ff" stroke="#63b8ff" points="630.72,-26.15 620.15,-26.89 628.88,-32.91 630.72,-26.15"/>
</a>
</g>
</g>
<!-- Node7 -->
<g id="Node000007" class="node">
<title>Node7</title>
<g id="a_Node000007"><a xlink:title=" ">
<polygon fill="#e0e0e0" stroke="#999999" points="796.25,-26 651.25,-26 651.25,-6 796.25,-6 796.25,-26"/>
<text text-anchor="middle" x="723.75" y="-12.5" font-family="Helvetica,sans-Serif" font-size="10.00">java.awt.event.ActionListener</text>
</a>
</g>
</g>
<!-- Node1&#45;&gt;Node7 -->
<g id="edge6_Node000001_Node000007" class="edge">
<title>Node1&#45;&gt;Node7</title>
<g id="a_edge6_Node000001_Node000007"><a xlink:title=" ">
<path fill="none" stroke="#63b8ff" d="M2250.8,-81.55C1947.66,-77.11 1086.62,-62.14 805.75,-32 797.35,-31.1 788.51,-29.83 779.87,-28.4"/>
<polygon fill="#63b8ff" stroke="#63b8ff" points="780.63,-24.98 770.18,-26.72 779.43,-31.88 780.63,-24.98"/>
</a>
</g>
</g>
<!-- Node8 -->
<g id="Node000008" class="node">
<title>Node8</title>
<g id="a_Node000008"><a xlink:title=" ">
<polygon fill="#e0e0e0" stroke="#999999" points="946.88,-26 814.62,-26 814.62,-6 946.88,-6 946.88,-26"/>
<text text-anchor="middle" x="880.75" y="-12.5" font-family="Helvetica,sans-Serif" font-size="10.00">javax.swing.BorderFactory</text>
</a>
</g>
</g>
<!-- Node1&#45;&gt;Node8 -->
<g id="edge7_Node000001_Node000008" class="edge">
<title>Node1&#45;&gt;Node8</title>
<g id="a_edge7_Node000001_Node000008"><a xlink:title=" ">
<path fill="none" stroke="#63b8ff" d="M2250.84,-81.34C1968.26,-76.6 1206.12,-61.4 955.75,-32 948.39,-31.14 940.68,-29.94 933.12,-28.59"/>
<polygon fill="#63b8ff" stroke="#63b8ff" points="933.79,-25.15 923.31,-26.73 932.49,-32.03 933.79,-25.15"/>
</a>
</g>
</g>
<!-- Node9 -->
<g id="Node000009" class="node">
<title>Node9</title>
<g id="a_Node000009"><a xlink:title=" ">
<polygon fill="#e0e0e0" stroke="#999999" points="1090.5,-26 965,-26 965,-6 1090.5,-6 1090.5,-26"/>
<text text-anchor="middle" x="1027.75" y="-12.5" font-family="Helvetica,sans-Serif" font-size="10.00">javax.swing.ButtonGroup</text>
</a>
</g>
</g>
<!-- Node1&#45;&gt;Node9 -->
<g id="edge8_Node000001_Node000009" class="edge">
<title>Node1&#45;&gt;Node9</title>
<g id="a_edge8_Node000001_Node000009"><a xlink:title=" ">
<path fill="none" stroke="#63b8ff" d="M2250.99,-80.94C1989.3,-75.51 1321.16,-59.36 1099.75,-32 1092.76,-31.14 1085.45,-29.95 1078.27,-28.62"/>
<polygon fill="#63b8ff" stroke="#63b8ff" points="1079.14,-25.22 1068.65,-26.73 1077.79,-32.09 1079.14,-25.22"/>
</a>
</g>
</g>
<!-- Node10 -->
<g id="Node000010" class="node">
<title>Node10</title>
<g id="a_Node000010"><a xlink:title=" ">
<polygon fill="#e0e0e0" stroke="#999999" points="1213,-26 1108.5,-26 1108.5,-6 1213,-6 1213,-26"/>
<text text-anchor="middle" x="1160.75" y="-12.5" font-family="Helvetica,sans-Serif" font-size="10.00">javax.swing.JButton</text>
</a>
</g>
</g>
<!-- Node1&#45;&gt;Node10 -->
<g id="edge9_Node000001_Node000010" class="edge">
<title>Node1&#45;&gt;Node10</title>
<g id="a_edge9_Node000001_Node000010"><a xlink:title=" ">
<path fill="none" stroke="#63b8ff" d="M2251.08,-80.88C2007.91,-75.63 1418.38,-60.31 1221.75,-32 1216.37,-31.22 1210.76,-30.18 1205.24,-29.01"/>
<polygon fill="#63b8ff" stroke="#63b8ff" points="1206.08,-25.61 1195.55,-26.79 1204.52,-32.43 1206.08,-25.61"/>
</a>
</g>
</g>
<!-- Node11 -->
<g id="Node000011" class="node">
<title>Node11</title>
<g id="a_Node000011"><a xlink:title=" ">
<polygon fill="#e0e0e0" stroke="#999999" points="1356.88,-26 1230.62,-26 1230.62,-6 1356.88,-6 1356.88,-26"/>
<text text-anchor="middle" x="1293.75" y="-12.5" font-family="Helvetica,sans-Serif" font-size="10.00">javax.swing.JComponent</text>
</a>
</g>
</g>
<!-- Node1&#45;&gt;Node11 -->
<g id="edge10_Node000001_Node000011" class="edge">
<title>Node1&#45;&gt;Node11</title>
<g id="a_edge10_Node000001_Node000011"><a xlink:title=" ">
<path fill="none" stroke="#63b8ff" d="M2250.84,-82.89C2068.49,-81.49 1686,-73.34 1365.75,-32 1358.93,-31.12 1351.8,-29.95 1344.79,-28.64"/>
<polygon fill="#63b8ff" stroke="#63b8ff" points="1345.52,-25.22 1335.04,-26.73 1344.17,-32.09 1345.52,-25.22"/>
</a>
</g>
</g>
<!-- Node12 -->
<g id="Node000012" class="node">
<title>Node12</title>
<g id="a_Node000012"><a xlink:title=" ">
<polygon fill="#e0e0e0" stroke="#999999" points="1474.38,-26 1375.12,-26 1375.12,-6 1474.38,-6 1474.38,-26"/>
<text text-anchor="middle" x="1424.75" y="-12.5" font-family="Helvetica,sans-Serif" font-size="10.00">javax.swing.JLabel</text>
</a>
</g>
</g>
<!-- Node1&#45;&gt;Node12 -->
<g id="edge11_Node000001_Node000012" class="edge">
<title>Node1&#45;&gt;Node12</title>
<g id="a_edge11_Node000001_Node000012"><a xlink:title=" ">
<path fill="none" stroke="#63b8ff" d="M2250.77,-83.3C2085.33,-82.29 1757.87,-74.45 1483.75,-32 1478.74,-31.22 1473.53,-30.21 1468.38,-29.08"/>
<polygon fill="#63b8ff" stroke="#63b8ff" points="1469.3,-25.7 1458.76,-26.8 1467.69,-32.51 1469.3,-25.7"/>
</a>
</g>
</g>
<!-- Node13 -->
<g id="Node000013" class="node">
<title>Node13</title>
<g id="a_Node000013"><a xlink:title=" ">
<polygon fill="#e0e0e0" stroke="#999999" points="1593.12,-26 1492.38,-26 1492.38,-6 1593.12,-6 1593.12,-26"/>
<text text-anchor="middle" x="1542.75" y="-12.5" font-family="Helvetica,sans-Serif" font-size="10.00">javax.swing.JPanel</text>
</a>
</g>
</g>
<!-- Node1&#45;&gt;Node13 -->
<g id="edge12_Node000001_Node000013" class="edge">
<title>Node1&#45;&gt;Node13</title>
<g id="a_edge12_Node000001_Node000013"><a xlink:title=" ">
<path fill="none" stroke="#63b8ff" d="M2250.64,-81.88C2103.52,-78.96 1831.03,-68.57 1601.75,-32 1596.8,-31.21 1591.66,-30.2 1586.57,-29.08"/>
<polygon fill="#63b8ff" stroke="#63b8ff" points="1587.62,-25.73 1577.08,-26.83 1586,-32.54 1587.62,-25.73"/>
</a>
</g>
</g>
<!-- Node14 -->
<g id="Node000014" class="node">
<title>Node14</title>
<g id="a_Node000014"><a xlink:title=" ">
<polygon fill="#e0e0e0" stroke="#999999" points="1740.75,-26 1610.75,-26 1610.75,-6 1740.75,-6 1740.75,-26"/>
<text text-anchor="middle" x="1675.75" y="-12.5" font-family="Helvetica,sans-Serif" font-size="10.00">javax.swing.JProgressBar</text>
</a>
</g>
</g>
<!-- Node1&#45;&gt;Node14 -->
<g id="edge13_Node000001_Node000014" class="edge">
<title>Node1&#45;&gt;Node14</title>
<g id="a_edge13_Node000001_Node000014"><a xlink:title=" ">
<path fill="none" stroke="#63b8ff" d="M2250.79,-77.8C2129.02,-71.01 1924.35,-56.93 1749.75,-32 1743.18,-31.06 1736.32,-29.91 1729.53,-28.66"/>
<polygon fill="#63b8ff" stroke="#63b8ff" points="1730.22,-25.23 1719.74,-26.78 1728.9,-32.1 1730.22,-25.23"/>
</a>
</g>
</g>
<!-- Node15 -->
<g id="Node000015" class="node">
<title>Node15</title>
<g id="a_Node000015"><a xlink:title=" ">
<polygon fill="#e0e0e0" stroke="#999999" points="1888.75,-26 1758.75,-26 1758.75,-6 1888.75,-6 1888.75,-26"/>
<text text-anchor="middle" x="1823.75" y="-12.5" font-family="Helvetica,sans-Serif" font-size="10.00">javax.swing.JRadioButton</text>
</a>
</g>
</g>
<!-- Node1&#45;&gt;Node15 -->
<g id="edge14_Node000001_Node000015" class="edge">
<title>Node1&#45;&gt;Node15</title>
<g id="a_edge14_Node000001_Node000015"><a xlink:title=" ">
<path fill="none" stroke="#63b8ff" d="M2250.96,-73.89C2157.5,-65.27 2018.22,-50.85 1897.75,-32 1891.36,-31 1884.69,-29.83 1878.08,-28.59"/>
<polygon fill="#63b8ff" stroke="#63b8ff" points="1879.04,-25.21 1868.55,-26.74 1877.7,-32.08 1879.04,-25.21"/>
</a>
</g>
</g>
<!-- Node16 -->
<g id="Node000016" class="node">
<title>Node16</title>
<g id="a_Node000016"><a xlink:title=" ">
<polygon fill="#e0e0e0" stroke="#999999" points="2030.38,-26 1907.12,-26 1907.12,-6 2030.38,-6 2030.38,-26"/>
<text text-anchor="middle" x="1968.75" y="-12.5" font-family="Helvetica,sans-Serif" font-size="10.00">javax.swing.JScrollPane</text>
</a>
</g>
</g>
<!-- Node1&#45;&gt;Node16 -->
<g id="edge15_Node000001_Node000016" class="edge">
<title>Node1&#45;&gt;Node16</title>
<g id="a_edge15_Node000001_Node000016"><a xlink:title=" ">
<path fill="none" stroke="#63b8ff" d="M2252.97,-67.52C2190.86,-58.02 2110.67,-45.17 2039.75,-32 2034.24,-30.98 2028.5,-29.86 2022.78,-28.7"/>
<polygon fill="#63b8ff" stroke="#63b8ff" points="2023.84,-25.35 2013.34,-26.77 2022.44,-32.21 2023.84,-25.35"/>
</a>
</g>
</g>
<!-- Node17 -->
<g id="Node000017" class="node">
<title>Node17</title>
<g id="a_Node000017"><a xlink:title=" ">
<polygon fill="#e0e0e0" stroke="#999999" points="2149.12,-26 2048.38,-26 2048.38,-6 2149.12,-6 2149.12,-26"/>
<text text-anchor="middle" x="2098.75" y="-12.5" font-family="Helvetica,sans-Serif" font-size="10.00">javax.swing.JSlider</text>
</a>
</g>
</g>
<!-- Node1&#45;&gt;Node17 -->
<g id="edge16_Node000001_Node000017" class="edge">
<title>Node1&#45;&gt;Node17</title>
<g id="a_edge16_Node000001_Node000017"><a xlink:title=" ">
<path fill="none" stroke="#63b8ff" d="M2297.03,-67.53C2251.28,-55.87 2189.41,-40.1 2147.01,-29.3"/>
<polygon fill="#63b8ff" stroke="#63b8ff" points="2147.89,-25.91 2137.34,-26.83 2146.17,-32.69 2147.89,-25.91"/>
</a>
</g>
</g>
<!-- Node18 -->
<g id="Node000018" class="node">
<title>Node18</title>
<g id="a_Node000018"><a xlink:title=" ">
<polygon fill="#e0e0e0" stroke="#999999" points="2282.25,-26 2167.25,-26 2167.25,-6 2282.25,-6 2282.25,-26"/>
<text text-anchor="middle" x="2224.75" y="-12.5" font-family="Helvetica,sans-Serif" font-size="10.00">javax.swing.JTextArea</text>
</a>
</g>
</g>
<!-- Node1&#45;&gt;Node18 -->
<g id="edge17_Node000001_Node000018" class="edge">
<title>Node1&#45;&gt;Node18</title>
<g id="a_edge17_Node000001_Node000018"><a xlink:title=" ">
<path fill="none" stroke="#63b8ff" d="M2326.57,-67.53C2304.63,-56.64 2275.47,-42.17 2253.98,-31.5"/>
<polygon fill="#63b8ff" stroke="#63b8ff" points="2255.68,-28.44 2245.17,-27.13 2252.57,-34.71 2255.68,-28.44"/>
</a>
</g>
</g>
<!-- Node19 -->
<g id="Node000019" class="node">
<title>Node19</title>
<g id="a_Node000019"><a xlink:title=" ">
<polygon fill="#e0e0e0" stroke="#999999" points="2415.62,-26 2299.88,-26 2299.88,-6 2415.62,-6 2415.62,-26"/>
<text text-anchor="middle" x="2357.75" y="-12.5" font-family="Helvetica,sans-Serif" font-size="10.00">javax.swing.JTextField</text>
</a>
</g>
</g>
<!-- Node1&#45;&gt;Node19 -->
<g id="edge18_Node000001_Node000019" class="edge">
<title>Node1&#45;&gt;Node19</title>
<g id="a_edge18_Node000001_Node000019"><a xlink:title=" ">
<path fill="none" stroke="#63b8ff" d="M2357.75,-67.69C2357.75,-58.8 2357.75,-47.46 2357.75,-37.77"/>
<polygon fill="#63b8ff" stroke="#63b8ff" points="2361.25,-37.83 2357.75,-27.83 2354.25,-37.83 2361.25,-37.83"/>
</a>
</g>
</g>
<!-- Node20 -->
<g id="Node000020" class="node">
<title>Node20</title>
<g id="a_Node000020"><a xlink:title=" ">
<polygon fill="#e0e0e0" stroke="#999999" points="2567.62,-26 2433.88,-26 2433.88,-6 2567.62,-6 2567.62,-26"/>
<text text-anchor="middle" x="2500.75" y="-12.5" font-family="Helvetica,sans-Serif" font-size="10.00">javax.swing.OverlayLayout</text>
</a>
</g>
</g>
<!-- Node1&#45;&gt;Node20 -->
<g id="edge19_Node000001_Node000020" class="edge">
<title>Node1&#45;&gt;Node20</title>
<g id="a_edge19_Node000001_Node000020"><a xlink:title=" ">
<path fill="none" stroke="#63b8ff" d="M2391.28,-67.53C2415.08,-56.54 2446.79,-41.9 2469.96,-31.21"/>
<polygon fill="#63b8ff" stroke="#63b8ff" points="2471.27,-34.46 2478.88,-27.09 2468.33,-28.11 2471.27,-34.46"/>
</a>
</g>
</g>
<!-- Node21 -->
<g id="Node000021" class="node">
<title>Node21</title>
<g id="a_Node000021"><a xlink:title=" ">
<polygon fill="#e0e0e0" stroke="#999999" points="2716.12,-26 2585.38,-26 2585.38,-6 2716.12,-6 2716.12,-26"/>
<text text-anchor="middle" x="2650.75" y="-12.5" font-family="Helvetica,sans-Serif" font-size="10.00">javax.swing.SwingUtilities</text>
</a>
</g>
</g>
<!-- Node1&#45;&gt;Node21 -->
<g id="edge20_Node000001_Node000021" class="edge">
<title>Node1&#45;&gt;Node21</title>
<g id="a_edge20_Node000001_Node000021"><a xlink:title=" ">
<path fill="none" stroke="#63b8ff" d="M2426.45,-67.53C2478.75,-55.74 2549.69,-39.77 2597.68,-28.96"/>
<polygon fill="#63b8ff" stroke="#63b8ff" points="2598.29,-32.4 2607.28,-26.79 2596.75,-25.58 2598.29,-32.4"/>
</a>
</g>
</g>
<!-- Node22 -->
<g id="Node000022" class="node">
<title>Node22</title>
<g id="a_Node000022"><a xlink:title=" ">
<polygon fill="#e0e0e0" stroke="#999999" points="2877.12,-32 2734.38,-32 2734.38,0 2877.12,0 2877.12,-32"/>
<text text-anchor="start" x="2742.38" y="-18.5" font-family="Helvetica,sans-Serif" font-size="10.00">javax.swing.event.Document</text>
<text text-anchor="middle" x="2805.75" y="-6.5" font-family="Helvetica,sans-Serif" font-size="10.00">Listener</text>
</a>
</g>
</g>
<!-- Node1&#45;&gt;Node22 -->
<g id="edge21_Node000001_Node000022" class="edge">
<title>Node1&#45;&gt;Node22</title>
<g id="a_edge21_Node000001_Node000022"><a xlink:title=" ">
<path fill="none" stroke="#63b8ff" d="M2464.73,-69.43C2535.18,-60.18 2629.71,-47.21 2722.87,-32.26"/>
<polygon fill="#63b8ff" stroke="#63b8ff" points="2723.42,-35.72 2732.73,-30.67 2722.3,-28.81 2723.42,-35.72"/>
</a>
</g>
</g>
<!-- Node23 -->
<g id="Node000023" class="node">
<title>Node23</title>
<g id="a_Node000023"><a xlink:title=" ">
<polygon fill="#e0e0e0" stroke="#999999" points="3022.25,-32 2895.25,-32 2895.25,0 3022.25,0 3022.25,-32"/>
<text text-anchor="start" x="2903.25" y="-18.5" font-family="Helvetica,sans-Serif" font-size="10.00">javax.swing.text.Abstract</text>
<text text-anchor="middle" x="2958.75" y="-6.5" font-family="Helvetica,sans-Serif" font-size="10.00">Document</text>
</a>
</g>
</g>
<!-- Node1&#45;&gt;Node23 -->
<g id="edge22_Node000001_Node000023" class="edge">
<title>Node1&#45;&gt;Node23</title>
<g id="a_edge22_Node000001_Node000023"><a xlink:title=" ">
<path fill="none" stroke="#63b8ff" d="M2464.85,-76.01C2569.2,-68.43 2732.52,-54.54 2883.79,-32.18"/>
<polygon fill="#63b8ff" stroke="#63b8ff" points="2884.25,-35.65 2893.62,-30.71 2883.22,-28.73 2884.25,-35.65"/>
</a>
</g>
</g>
<!-- Node24 -->
<g id="Node000024" class="node">
<title>Node24</title>
<g id="a_Node000024"><a xlink:title=" ">
<polygon fill="#e0e0e0" stroke="#999999" points="3182.75,-26 3040.75,-26 3040.75,-6 3182.75,-6 3182.75,-26"/>
<text text-anchor="middle" x="3111.75" y="-12.5" font-family="Helvetica,sans-Serif" font-size="10.00">javax.swing.text.AttributeSet</text>
</a>
</g>
</g>
<!-- Node1&#45;&gt;Node24 -->
<g id="edge23_Node000001_Node000024" class="edge">
<title>Node1&#45;&gt;Node24</title>
<g id="a_edge23_Node000001_Node000024"><a xlink:title=" ">
<path fill="none" stroke="#63b8ff" d="M2464.64,-78.54C2597.87,-72.15 2832.35,-58.16 3031.75,-32 3039.28,-31.01 3047.18,-29.78 3054.95,-28.44"/>
<polygon fill="#63b8ff" stroke="#63b8ff" points="3055.48,-31.91 3064.71,-26.7 3054.25,-25.01 3055.48,-31.91"/>
</a>
</g>
</g>
<!-- Node25 -->
<g id="Node000025" class="node">
<title>Node25</title>
<g id="a_Node000025"><a xlink:title=" ">
<polygon fill="#e0e0e0" stroke="#999999" points="3344.88,-32 3200.62,-32 3200.62,0 3344.88,0 3344.88,-32"/>
<text text-anchor="start" x="3208.62" y="-18.5" font-family="Helvetica,sans-Serif" font-size="10.00">javax.swing.text.BadLocation</text>
<text text-anchor="middle" x="3272.75" y="-6.5" font-family="Helvetica,sans-Serif" font-size="10.00">Exception</text>
</a>
</g>
</g>
<!-- Node1&#45;&gt;Node25 -->
<g id="edge24_Node000001_Node000025" class="edge">
<title>Node1&#45;&gt;Node25</title>
<g id="a_edge24_Node000001_Node000025"><a xlink:title=" ">
<path fill="none" stroke="#63b8ff" d="M2464.77,-80.63C2621.67,-76.22 2923.47,-64.22 3189.36,-32.19"/>
<polygon fill="#63b8ff" stroke="#63b8ff" points="3189.39,-35.72 3198.89,-31.03 3188.54,-28.77 3189.39,-35.72"/>
</a>
</g>
</g>
<!-- Node26 -->
<g id="Node000026" class="node">
<title>Node26</title>
<g id="a_Node000026"><a xlink:title=" ">
<polygon fill="#e0e0e0" stroke="#999999" points="3498.38,-32 3363.12,-32 3363.12,0 3498.38,0 3498.38,-32"/>
<text text-anchor="start" x="3371.12" y="-18.5" font-family="Helvetica,sans-Serif" font-size="10.00">javax.swing.text.Document</text>
<text text-anchor="middle" x="3430.75" y="-6.5" font-family="Helvetica,sans-Serif" font-size="10.00">Filter</text>
</a>
</g>
</g>
<!-- Node1&#45;&gt;Node26 -->
<g id="edge25_Node000001_Node000026" class="edge">
<title>Node1&#45;&gt;Node26</title>
<g id="a_edge25_Node000001_Node000026"><a xlink:title=" ">
<path fill="none" stroke="#63b8ff" d="M2464.67,-82.47C2645.46,-80.47 3023.12,-71.61 3351.64,-32.13"/>
<polygon fill="#63b8ff" stroke="#63b8ff" points="3351.81,-35.64 3361.31,-30.96 3350.96,-28.69 3351.81,-35.64"/>
</a>
</g>
</g>
<!-- Node27 -->
<g id="Node000027" class="node">
<title>Node27</title>
<g id="a_Node000027"><a xlink:title=" ">
<polygon fill="#e0e0e0" stroke="#999999" points="3655.25,-32 3516.25,-32 3516.25,0 3655.25,0 3655.25,-32"/>
<text text-anchor="start" x="3524.25" y="-18.5" font-family="Helvetica,sans-Serif" font-size="10.00">org.apache.commons.lang3.</text>
<text text-anchor="middle" x="3585.75" y="-6.5" font-family="Helvetica,sans-Serif" font-size="10.00">StringUtils</text>
</a>
</g>
</g>
<!-- Node1&#45;&gt;Node27 -->
<g id="edge26_Node000001_Node000027" class="edge">
<title>Node1&#45;&gt;Node27</title>
<g id="a_edge26_Node000001_Node000027"><a xlink:title=" ">
<path fill="none" stroke="#63b8ff" d="M2464.79,-83.44C2666.61,-83.14 3117.24,-77.06 3504.92,-32.22"/>
<polygon fill="#63b8ff" stroke="#63b8ff" points="3505.06,-35.73 3514.58,-31.09 3504.25,-28.78 3505.06,-35.73"/>
</a>
</g>
</g>
<!-- Node28 -->
<g id="Node000028" class="node">
<title>Node28</title>
<g id="a_Node000028"><a xlink:title=" ">
<polygon fill="#e0e0e0" stroke="#999999" points="3868,-32 3673.5,-32 3673.5,0 3868,0 3868,-32"/>
<text text-anchor="start" x="3681.5" y="-18.5" font-family="Helvetica,sans-Serif" font-size="10.00">com.github.lgooddatepicker.components.</text>
<text text-anchor="middle" x="3770.75" y="-6.5" font-family="Helvetica,sans-Serif" font-size="10.00">DatePicker</text>
</a>
</g>
</g>
<!-- Node1&#45;&gt;Node28 -->
<g id="edge27_Node000001_Node000028" class="edge">
<title>Node1&#45;&gt;Node28</title>
<g id="a_edge27_Node000001_Node000028"><a xlink:title=" ">
<path fill="none" stroke="#63b8ff" d="M2464.72,-82.5C2686.26,-80.66 3211.52,-72.15 3661.89,-32.2"/>
<polygon fill="#63b8ff" stroke="#63b8ff" points="3662.03,-35.7 3671.67,-31.32 3661.4,-28.73 3662.03,-35.7"/>
</a>
</g>
</g>
<!-- Node29 -->
<g id="Node000029" class="node">
<title>Node29</title>
<g id="a_Node000029"><a xlink:title=" ">
<polygon fill="#e0e0e0" stroke="#999999" points="4081,-32 3886.5,-32 3886.5,0 4081,0 4081,-32"/>
<text text-anchor="start" x="3894.5" y="-18.5" font-family="Helvetica,sans-Serif" font-size="10.00">com.github.lgooddatepicker.components.</text>
<text text-anchor="middle" x="3983.75" y="-6.5" font-family="Helvetica,sans-Serif" font-size="10.00">TimePicker</text>
</a>
</g>
</g>
<!-- Node1&#45;&gt;Node29 -->
<g id="edge28_Node000001_Node000029" class="edge">
<title>Node1&#45;&gt;Node29</title>
<g id="a_edge28_Node000001_Node000029"><a xlink:title=" ">
<path fill="none" stroke="#63b8ff" d="M2464.8,-83.29C2711.53,-83.11 3339.39,-77.85 3874.69,-32.1"/>
<polygon fill="#63b8ff" stroke="#63b8ff" points="3874.95,-35.59 3884.61,-31.25 3874.35,-28.62 3874.95,-35.59"/>
</a>
</g>
</g>
<!-- Node30 -->
<g id="Node000030" class="node">
<title>Node30</title>
<g id="a_Node000030"><a xlink:title=" ">
<polygon fill="#e0e0e0" stroke="#999999" points="4232.25,-32 4099.25,-32 4099.25,0 4232.25,0 4232.25,-32"/>
<text text-anchor="start" x="4107.25" y="-18.5" font-family="Helvetica,sans-Serif" font-size="10.00">fr.softsf.canscan.constant.</text>
<text text-anchor="middle" x="4165.75" y="-6.5" font-family="Helvetica,sans-Serif" font-size="10.00">FloatConstants</text>
</a>
</g>
</g>
<!-- Node1&#45;&gt;Node30 -->
<g id="edge29_Node000001_Node000030" class="edge">
<title>Node1&#45;&gt;Node30</title>
<g id="a_edge29_Node000001_Node000030"><a xlink:title=" ">
<path fill="none" stroke="#63b8ff" d="M2464.71,-82.17C2787.63,-79.3 3750.64,-67.98 4087.87,-32.03"/>
<polygon fill="#63b8ff" stroke="#63b8ff" points="4088.06,-35.53 4097.61,-30.96 4087.29,-28.58 4088.06,-35.53"/>
</a>
</g>
</g>
<!-- Node31 -->
<g id="Node000031" class="node">
<title>Node31</title>
<g id="a_Node000031"><a xlink:title=" ">
<polygon fill="#e0e0e0" stroke="#999999" points="4383.25,-32 4250.25,-32 4250.25,0 4383.25,0 4383.25,-32"/>
<text text-anchor="start" x="4258.25" y="-18.5" font-family="Helvetica,sans-Serif" font-size="10.00">fr.softsf.canscan.constant.</text>
<text text-anchor="middle" x="4316.75" y="-6.5" font-family="Helvetica,sans-Serif" font-size="10.00">IntConstants</text>
</a>
</g>
</g>
<!-- Node1&#45;&gt;Node31 -->
<g id="edge30_Node000001_Node000031" class="edge">
<title>Node1&#45;&gt;Node31</title>
<g id="a_edge30_Node000001_Node000031"><a xlink:title=" ">
<path fill="none" stroke="#63b8ff" d="M2464.85,-82.5C2806.89,-80.53 3871.6,-71.41 4238.6,-32.21"/>
<polygon fill="#63b8ff" stroke="#63b8ff" points="4238.72,-35.72 4248.28,-31.15 4237.95,-28.76 4238.72,-35.72"/>
</a>
</g>
</g>
<!-- Node32 -->
<g id="Node000032" class="node">
<title>Node32</title>
<g id="a_Node000032"><a xlink:title=" ">
<polygon fill="#e0e0e0" stroke="#999999" points="4522.62,-32 4400.88,-32 4400.88,0 4522.62,0 4522.62,-32"/>
<text text-anchor="start" x="4408.88" y="-18.5" font-family="Helvetica,sans-Serif" font-size="10.00">fr.softsf.canscan.model.</text>
<text text-anchor="middle" x="4461.75" y="-6.5" font-family="Helvetica,sans-Serif" font-size="10.00">MecardJFields</text>
</a>
</g>
</g>
<!-- Node1&#45;&gt;Node32 -->
<g id="edge31_Node000001_Node000032" class="edge">
<title>Node1&#45;&gt;Node32</title>
<g id="a_edge31_Node000001_Node000032"><a xlink:title=" ">
<path fill="none" stroke="#63b8ff" d="M2464.78,-82.99C2824.87,-82.53 3991.72,-77.57 4389.28,-32.26"/>
<polygon fill="#63b8ff" stroke="#63b8ff" points="4389.5,-35.75 4399.03,-31.11 4388.69,-28.8 4389.5,-35.75"/>
</a>
</g>
</g>
<!-- Node33 -->
<g id="Node000033" class="node">
<title>Node33</title>
<g id="a_Node000033"><a xlink:title=" ">
<polygon fill="#e0e0e0" stroke="#999999" points="4662.62,-32 4540.88,-32 4540.88,0 4662.62,0 4662.62,-32"/>
<text text-anchor="start" x="4548.88" y="-18.5" font-family="Helvetica,sans-Serif" font-size="10.00">fr.softsf.canscan.model.</text>
<text text-anchor="middle" x="4601.75" y="-6.5" font-family="Helvetica,sans-Serif" font-size="10.00">MeetJFields</text>
</a>
</g>
</g>
<!-- Node1&#45;&gt;Node33 -->
<g id="edge32_Node000001_Node000033" class="edge">
<title>Node1&#45;&gt;Node33</title>
<g id="a_edge32_Node000001_Node000033"><a xlink:title=" ">
<path fill="none" stroke="#63b8ff" d="M2464.76,-83.15C2840.93,-83.25 4102.27,-80.01 4529.24,-32.11"/>
<polygon fill="#63b8ff" stroke="#63b8ff" points="4529.36,-35.62 4538.9,-31 4528.56,-28.67 4529.36,-35.62"/>
</a>
</g>
</g>
<!-- Node34 -->
<g id="Node000034" class="node">
<title>Node34</title>
<g id="a_Node000034"><a xlink:title=" ">
<polygon fill="#e0e0e0" stroke="#999999" points="4817.12,-32 4680.38,-32 4680.38,0 4817.12,0 4817.12,-32"/>
<text text-anchor="start" x="4688.38" y="-18.5" font-family="Helvetica,sans-Serif" font-size="10.00">fr.softsf.canscan.model.</text>
<text text-anchor="middle" x="4748.75" y="-6.5" font-family="Helvetica,sans-Serif" font-size="10.00">NativeImageUiComponents</text>
</a>
</g>
</g>
<!-- Node1&#45;&gt;Node34 -->
<g id="edge33_Node000001_Node000034" class="edge">
<title>Node1&#45;&gt;Node34</title>
<g id="a_edge33_Node000001_Node000034"><a xlink:title=" ">
<path fill="none" stroke="#63b8ff" d="M2464.74,-83.06C2856.45,-82.91 4212.74,-79.02 4668.73,-32.18"/>
<polygon fill="#63b8ff" stroke="#63b8ff" points="4668.91,-35.68 4678.49,-31.15 4668.17,-28.72 4668.91,-35.68"/>
</a>
</g>
</g>
<!-- Node35 -->
<g id="Node000035" class="node">
<title>Node35</title>
<g id="a_Node000035"><a xlink:title=" ">
<polygon fill="#e0e0e0" stroke="#999999" points="4980.25,-26 4835.25,-26 4835.25,-6 4980.25,-6 4980.25,-26"/>
<text text-anchor="middle" x="4907.75" y="-12.5" font-family="Helvetica,sans-Serif" font-size="10.00">fr.softsf.canscan.util.Checker</text>
</a>
</g>
</g>
<!-- Node1&#45;&gt;Node35 -->
<g id="edge34_Node000001_Node000035" class="edge">
<title>Node1&#45;&gt;Node35</title>
<g id="a_edge34_Node000001_Node000035"><a xlink:title=" ">
<path fill="none" stroke="#63b8ff" d="M2464.71,-83.07C2876.22,-82.99 4357.52,-79.36 4825.75,-32 4834.26,-31.14 4843.21,-29.88 4851.95,-28.44"/>
<polygon fill="#63b8ff" stroke="#63b8ff" points="4852.5,-31.9 4861.76,-26.74 4851.31,-25 4852.5,-31.9"/>
</a>
</g>
</g>
<!-- Node36 -->
<g id="Node000036" class="node">
<title>Node36</title>
<g id="a_Node000036"><a xlink:title=" ">
<polygon fill="#e0e0e0" stroke="#999999" points="5125.62,-32 4997.88,-32 4997.88,0 5125.62,0 5125.62,-32"/>
<text text-anchor="start" x="5005.88" y="-18.5" font-family="Helvetica,sans-Serif" font-size="10.00">fr.softsf.canscan.util.Font</text>
<text text-anchor="middle" x="5061.75" y="-6.5" font-family="Helvetica,sans-Serif" font-size="10.00">Manager</text>
</a>
</g>
</g>
<!-- Node1&#45;&gt;Node36 -->
<g id="edge35_Node000001_Node000036" class="edge">
<title>Node1&#45;&gt;Node36</title>
<g id="a_edge35_Node000001_Node000036"><a xlink:title=" ">
<path fill="none" stroke="#63b8ff" d="M2464.67,-82.1C2920.2,-78.13 4689,-61.04 4986.35,-32.17"/>
<polygon fill="#63b8ff" stroke="#63b8ff" points="4986.38,-35.69 4995.96,-31.17 4985.65,-28.73 4986.38,-35.69"/>
</a>
</g>
</g>
</g>
</svg>
