<?xml version="1.0" encoding="UTF-8" standalone="no"?>
<!DOCTYPE svg PUBLIC "-//W3C//DTD SVG 1.1//EN"
 "http://www.w3.org/Graphics/SVG/1.1/DTD/svg11.dtd">
<!-- Generated by graphviz version 12.2.1 (20241206.2353)
 -->
<!-- Title: src/main/java/fr/softsf/canscan/util/UseLucioleFont.java Pages: 1 -->
<svg width="1865pt" height="108pt"
 viewBox="0.00 0.00 1864.75 108.00" xmlns="http://www.w3.org/2000/svg" xmlns:xlink="http://www.w3.org/1999/xlink">
<g id="graph0" class="graph" transform="scale(1 1) rotate(0) translate(4 104)">
<title>src/main/java/fr/softsf/canscan/util/UseLucioleFont.java</title>
<!-- Node1 -->
<g id="Node000001" class="node">
<title>Node1</title>
<g id="a_Node000001"><a xlink:title=" ">
<polygon fill="#999999" stroke="#666666" points="984.5,-100 820.75,-100 820.75,-68 984.5,-68 984.5,-100"/>
<text text-anchor="start" x="828.75" y="-86.5" font-family="Helvetica,sans-Serif" font-size="10.00">src/main/java/fr/softsf</text>
<text text-anchor="middle" x="902.62" y="-74.5" font-family="Helvetica,sans-Serif" font-size="10.00">/canscan/util/UseLucioleFont.java</text>
</a>
</g>
</g>
<!-- Node2 -->
<g id="Node000002" class="node">
<title>Node2</title>
<g id="a_Node000002"><a xlink:title=" ">
<polygon fill="#e0e0e0" stroke="#999999" points="75.25,-26 0,-26 0,-6 75.25,-6 75.25,-26"/>
<text text-anchor="middle" x="37.62" y="-12.5" font-family="Helvetica,sans-Serif" font-size="10.00">java.awt.Font</text>
</a>
</g>
</g>
<!-- Node1&#45;&gt;Node2 -->
<g id="edge1_Node000001_Node000002" class="edge">
<title>Node1&#45;&gt;Node2</title>
<g id="a_edge1_Node000001_Node000002"><a xlink:title=" ">
<path fill="none" stroke="#63b8ff" d="M820.28,-80.52C641.57,-74.7 223.03,-58.62 83.62,-32 80.27,-31.36 76.82,-30.54 73.38,-29.62"/>
<polygon fill="#63b8ff" stroke="#63b8ff" points="74.66,-26.35 64.08,-26.85 72.67,-33.06 74.66,-26.35"/>
</a>
</g>
</g>
<!-- Node3 -->
<g id="Node000003" class="node">
<title>Node3</title>
<g id="a_Node000003"><a xlink:title=" ">
<polygon fill="#e0e0e0" stroke="#999999" points="242.38,-26 92.88,-26 92.88,-6 242.38,-6 242.38,-26"/>
<text text-anchor="middle" x="167.62" y="-12.5" font-family="Helvetica,sans-Serif" font-size="10.00">java.awt.FontFormatException</text>
</a>
</g>
</g>
<!-- Node1&#45;&gt;Node3 -->
<g id="edge2_Node000001_Node000003" class="edge">
<title>Node1&#45;&gt;Node3</title>
<g id="a_edge2_Node000001_Node000003"><a xlink:title=" ">
<path fill="none" stroke="#63b8ff" d="M820.4,-79.16C696.64,-72.8 455.3,-58.1 251.62,-32 243.64,-30.98 235.27,-29.71 227.03,-28.36"/>
<polygon fill="#63b8ff" stroke="#63b8ff" points="227.85,-24.95 217.41,-26.72 226.68,-31.85 227.85,-24.95"/>
</a>
</g>
</g>
<!-- Node4 -->
<g id="Node000004" class="node">
<title>Node4</title>
<g id="a_Node000004"><a xlink:title=" ">
<polygon fill="#e0e0e0" stroke="#999999" points="410.38,-26 260.88,-26 260.88,-6 410.38,-6 410.38,-26"/>
<text text-anchor="middle" x="335.62" y="-12.5" font-family="Helvetica,sans-Serif" font-size="10.00">java.awt.GraphicsEnvironment</text>
</a>
</g>
</g>
<!-- Node1&#45;&gt;Node4 -->
<g id="edge3_Node000001_Node000004" class="edge">
<title>Node1&#45;&gt;Node4</title>
<g id="a_edge3_Node000001_Node000004"><a xlink:title=" ">
<path fill="none" stroke="#63b8ff" d="M820.36,-76.12C724.06,-67.65 559.88,-51.9 419.62,-32 412.14,-30.94 404.29,-29.7 396.53,-28.4"/>
<polygon fill="#63b8ff" stroke="#63b8ff" points="397.22,-24.97 386.77,-26.73 396.03,-31.87 397.22,-24.97"/>
</a>
</g>
</g>
<!-- Node5 -->
<g id="Node000005" class="node">
<title>Node5</title>
<g id="a_Node000005"><a xlink:title=" ">
<polygon fill="#e0e0e0" stroke="#999999" points="580.5,-26 428.75,-26 428.75,-6 580.5,-6 580.5,-26"/>
<text text-anchor="middle" x="504.62" y="-12.5" font-family="Helvetica,sans-Serif" font-size="10.00">java.awt.geom.AffineTransform</text>
</a>
</g>
</g>
<!-- Node1&#45;&gt;Node5 -->
<g id="edge4_Node000001_Node000005" class="edge">
<title>Node1&#45;&gt;Node5</title>
<g id="a_edge4_Node000001_Node000005"><a xlink:title=" ">
<path fill="none" stroke="#63b8ff" d="M820.53,-69.93C757.36,-59.79 667.93,-45.29 589.62,-32 582.92,-30.86 575.92,-29.66 568.94,-28.44"/>
<polygon fill="#63b8ff" stroke="#63b8ff" points="569.6,-25 559.15,-26.73 568.4,-31.9 569.6,-25"/>
</a>
</g>
</g>
<!-- Node6 -->
<g id="Node000006" class="node">
<title>Node6</title>
<g id="a_Node000006"><a xlink:title=" ">
<polygon fill="#e0e0e0" stroke="#999999" points="700.38,-26 598.88,-26 598.88,-6 700.38,-6 700.38,-26"/>
<text text-anchor="middle" x="649.62" y="-12.5" font-family="Helvetica,sans-Serif" font-size="10.00">java.io.IOException</text>
</a>
</g>
</g>
<!-- Node1&#45;&gt;Node6 -->
<g id="edge5_Node000001_Node000006" class="edge">
<title>Node1&#45;&gt;Node6</title>
<g id="a_edge5_Node000001_Node000006"><a xlink:title=" ">
<path fill="none" stroke="#63b8ff" d="M843.31,-67.53C798.62,-55.87 738.18,-40.1 696.77,-29.3"/>
<polygon fill="#63b8ff" stroke="#63b8ff" points="697.91,-25.98 687.35,-26.84 696.15,-32.75 697.91,-25.98"/>
</a>
</g>
</g>
<!-- Node7 -->
<g id="Node000007" class="node">
<title>Node7</title>
<g id="a_Node000007"><a xlink:title=" ">
<polygon fill="#e0e0e0" stroke="#999999" points="819,-26 718.25,-26 718.25,-6 819,-6 819,-26"/>
<text text-anchor="middle" x="768.62" y="-12.5" font-family="Helvetica,sans-Serif" font-size="10.00">java.io.InputStream</text>
</a>
</g>
</g>
<!-- Node1&#45;&gt;Node7 -->
<g id="edge6_Node000001_Node000007" class="edge">
<title>Node1&#45;&gt;Node7</title>
<g id="a_edge6_Node000001_Node000007"><a xlink:title=" ">
<path fill="none" stroke="#63b8ff" d="M871.21,-67.53C849.11,-56.64 819.72,-42.17 798.07,-31.5"/>
<polygon fill="#63b8ff" stroke="#63b8ff" points="799.71,-28.41 789.19,-27.13 796.61,-34.69 799.71,-28.41"/>
</a>
</g>
</g>
<!-- Node8 -->
<g id="Node000008" class="node">
<title>Node8</title>
<g id="a_Node000008"><a xlink:title=" ">
<polygon fill="#e0e0e0" stroke="#999999" points="968,-26 837.25,-26 837.25,-6 968,-6 968,-26"/>
<text text-anchor="middle" x="902.62" y="-12.5" font-family="Helvetica,sans-Serif" font-size="10.00">javax.swing.SwingUtilities</text>
</a>
</g>
</g>
<!-- Node1&#45;&gt;Node8 -->
<g id="edge7_Node000001_Node000008" class="edge">
<title>Node1&#45;&gt;Node8</title>
<g id="a_edge7_Node000001_Node000008"><a xlink:title=" ">
<path fill="none" stroke="#63b8ff" d="M902.62,-67.69C902.62,-58.8 902.62,-47.46 902.62,-37.77"/>
<polygon fill="#63b8ff" stroke="#63b8ff" points="906.13,-37.83 902.63,-27.83 899.13,-37.83 906.13,-37.83"/>
</a>
</g>
</g>
<!-- Node9 -->
<g id="Node000009" class="node">
<title>Node9</title>
<g id="a_Node000009"><a xlink:title=" ">
<polygon fill="#e0e0e0" stroke="#999999" points="1105,-26 986.25,-26 986.25,-6 1105,-6 1105,-26"/>
<text text-anchor="middle" x="1045.62" y="-12.5" font-family="Helvetica,sans-Serif" font-size="10.00">javax.swing.UIManager</text>
</a>
</g>
</g>
<!-- Node1&#45;&gt;Node9 -->
<g id="edge8_Node000001_Node000009" class="edge">
<title>Node1&#45;&gt;Node9</title>
<g id="a_edge8_Node000001_Node000009"><a xlink:title=" ">
<path fill="none" stroke="#63b8ff" d="M936.15,-67.53C959.95,-56.54 991.67,-41.9 1014.83,-31.21"/>
<polygon fill="#63b8ff" stroke="#63b8ff" points="1016.14,-34.46 1023.75,-27.09 1013.21,-28.11 1016.14,-34.46"/>
</a>
</g>
</g>
<!-- Node10 -->
<g id="Node000010" class="node">
<title>Node10</title>
<g id="a_Node000010"><a xlink:title=" ">
<polygon fill="#e0e0e0" stroke="#999999" points="1255.75,-26 1123.5,-26 1123.5,-6 1255.75,-6 1255.75,-26"/>
<text text-anchor="middle" x="1189.62" y="-12.5" font-family="Helvetica,sans-Serif" font-size="10.00">com.formdev.flatlaf.FlatLaf</text>
</a>
</g>
</g>
<!-- Node1&#45;&gt;Node10 -->
<g id="edge9_Node000001_Node000010" class="edge">
<title>Node1&#45;&gt;Node10</title>
<g id="a_edge9_Node000001_Node000010"><a xlink:title=" ">
<path fill="none" stroke="#63b8ff" d="M969.91,-67.53C1021.04,-55.77 1090.34,-39.83 1137.34,-29.02"/>
<polygon fill="#63b8ff" stroke="#63b8ff" points="1138.05,-32.45 1147.01,-26.8 1136.48,-25.63 1138.05,-32.45"/>
</a>
</g>
</g>
<!-- Node11 -->
<g id="Node000011" class="node">
<title>Node11</title>
<g id="a_Node000011"><a xlink:title=" ">
<polygon fill="#e0e0e0" stroke="#999999" points="1391.62,-32 1273.62,-32 1273.62,0 1391.62,0 1391.62,-32"/>
<text text-anchor="start" x="1281.62" y="-18.5" font-family="Helvetica,sans-Serif" font-size="10.00">com.formdev.flatlaf.util.</text>
<text text-anchor="middle" x="1332.62" y="-6.5" font-family="Helvetica,sans-Serif" font-size="10.00">FontUtils</text>
</a>
</g>
</g>
<!-- Node1&#45;&gt;Node11 -->
<g id="edge10_Node000001_Node000011" class="edge">
<title>Node1&#45;&gt;Node11</title>
<g id="a_edge10_Node000001_Node000011"><a xlink:title=" ">
<path fill="none" stroke="#63b8ff" d="M984.86,-73.25C1055.77,-64.42 1161.12,-50.31 1262.01,-32.39"/>
<polygon fill="#63b8ff" stroke="#63b8ff" points="1262.63,-35.84 1271.85,-30.63 1261.39,-28.95 1262.63,-35.84"/>
</a>
</g>
</g>
<!-- Node12 -->
<g id="Node000012" class="node">
<title>Node12</title>
<g id="a_Node000012"><a xlink:title=" ">
<polygon fill="#e0e0e0" stroke="#999999" points="1543.12,-26 1410.12,-26 1410.12,-6 1543.12,-6 1543.12,-26"/>
<text text-anchor="middle" x="1476.62" y="-12.5" font-family="Helvetica,sans-Serif" font-size="10.00">fr.softsf.canscan.CanScan</text>
</a>
</g>
</g>
<!-- Node1&#45;&gt;Node12 -->
<g id="edge11_Node000001_Node000012" class="edge">
<title>Node1&#45;&gt;Node12</title>
<g id="a_edge11_Node000001_Node000012"><a xlink:title=" ">
<path fill="none" stroke="#63b8ff" d="M984.87,-76.93C1083.85,-69.08 1254.93,-53.79 1400.62,-32 1407.19,-31.02 1414.04,-29.86 1420.83,-28.63"/>
<polygon fill="#63b8ff" stroke="#63b8ff" points="1421.47,-32.07 1430.65,-26.78 1420.18,-25.19 1421.47,-32.07"/>
</a>
</g>
</g>
<!-- Node13 -->
<g id="Node000013" class="node">
<title>Node13</title>
<g id="a_Node000013"><a xlink:title=" ">
<polygon fill="#e0e0e0" stroke="#999999" points="1694.12,-32 1561.12,-32 1561.12,0 1694.12,0 1694.12,-32"/>
<text text-anchor="start" x="1569.12" y="-18.5" font-family="Helvetica,sans-Serif" font-size="10.00">fr.softsf.canscan.constant.</text>
<text text-anchor="middle" x="1627.62" y="-6.5" font-family="Helvetica,sans-Serif" font-size="10.00">StringConstants</text>
</a>
</g>
</g>
<!-- Node1&#45;&gt;Node13 -->
<g id="edge12_Node000001_Node000013" class="edge">
<title>Node1&#45;&gt;Node13</title>
<g id="a_edge12_Node000001_Node000013"><a xlink:title=" ">
<path fill="none" stroke="#63b8ff" d="M984.79,-79.69C1106.28,-74.11 1341.11,-60.66 1549.47,-32.34"/>
<polygon fill="#63b8ff" stroke="#63b8ff" points="1549.7,-35.84 1559.13,-31.02 1548.75,-28.91 1549.7,-35.84"/>
</a>
</g>
</g>
<!-- Node14 -->
<g id="Node000014" class="node">
<title>Node14</title>
<g id="a_Node000014"><a xlink:title=" ">
<polygon fill="#e0e0e0" stroke="#999999" points="1856.75,-26 1712.5,-26 1712.5,-6 1856.75,-6 1856.75,-26"/>
<text text-anchor="middle" x="1784.62" y="-12.5" font-family="Helvetica,sans-Serif" font-size="10.00">fr.softsf.canscan.ui.MyPopup</text>
</a>
</g>
</g>
<!-- Node1&#45;&gt;Node14 -->
<g id="edge13_Node000001_Node000014" class="edge">
<title>Node1&#45;&gt;Node14</title>
<g id="a_edge13_Node000001_Node000014"><a xlink:title=" ">
<path fill="none" stroke="#63b8ff" d="M984.8,-81.01C1130.23,-76.76 1442.27,-64.4 1703.62,-32 1711.44,-31.03 1719.64,-29.79 1727.7,-28.43"/>
<polygon fill="#63b8ff" stroke="#63b8ff" points="1728.21,-31.89 1737.45,-26.71 1726.99,-25 1728.21,-31.89"/>
</a>
</g>
</g>
</g>
</svg>
