<?xml version="1.0" encoding="UTF-8" standalone="no"?>
<!DOCTYPE svg PUBLIC "-//W3C//DTD SVG 1.1//EN"
 "http://www.w3.org/Graphics/SVG/1.1/DTD/svg11.dtd">
<!-- Generated by graphviz version 12.2.1 (20241206.2353)
 -->
<!-- Title: src/main/java/fr/softsf/canscan/service/VersionService.java Pages: 1 -->
<!--zoomable 108 -->

<svg id="main" version="1.1" xmlns="http://www.w3.org/2000/svg" xmlns:xlink="http://www.w3.org/1999/xlink" xml:space="preserve" onload="init(evt)">

<style type="text/css"><![CDATA[
.node, .edge {opacity: 0.7;}
.node.selected, .edge.selected {opacity: 1;}
.edge:hover path { stroke: red; }
.edge:hover polygon { stroke: red; fill: red; }
]]></style>

<defs>
  <circle id="rim" cx="0" cy="0" r="7"/>
  <circle id="rim2" cx="0" cy="0" r="3.5"/>
  <g id="zoomPlus">
    <use xlink:href="#rim" fill="#404040"><set attributeName="fill" to="#808080" begin="zoomplus.mouseover" end="zoomplus.mouseout"/></use>
    <path d="M-4,0h8M0,-4v8" fill="none" stroke="white" stroke-width="1.5" pointer-events="none"/>
  </g>
  <g id="zoomMin">
    <use xlink:href="#rim" fill="#404040"><set attributeName="fill" to="#808080" begin="zoomminus.mouseover" end="zoomminus.mouseout"/></use>
    <path d="M-4,0h8" fill="none" stroke="white" stroke-width="1.5" pointer-events="none"/>
  </g>
  <g id="arrowUp" transform="translate(30 24)">
    <use xlink:href="#rim"/>
    <path pointer-events="none" fill="none" stroke="white" stroke-width="1.5" d="M0,-3.0v7 M-2.5,-0.5L0,-3.0L2.5,-0.5"/>
  </g>
  <g id="arrowRight" transform="rotate(90) translate(36 -43)">
    <use xlink:href="#rim"/>
    <path pointer-events="none" fill="none" stroke="white" stroke-width="1.5" d="M0,-3.0v7 M-2.5,-0.5L0,-3.0L2.5,-0.5"/>
  </g>
  <g id="arrowDown" transform="rotate(180) translate(-30 -48)">
    <use xlink:href="#rim"/>
    <path pointer-events="none" fill="none" stroke="white" stroke-width="1.5" d="M0,-3.0v7 M-2.5,-0.5L0,-3.0L2.5,-0.5"/>
  </g>
  <g id="arrowLeft" transform="rotate(270) translate(-36 17)">
    <use xlink:href="#rim"/>
    <path pointer-events="none" fill="none" stroke="white" stroke-width="1.5" d="M0,-3.0v7 M-2.5,-0.5L0,-3.0L2.5,-0.5"/>
  </g>
  <g id="resetDef">
    <use xlink:href="#rim2" fill="#404040"><set attributeName="fill" to="#808080" begin="reset.mouseover" end="reset.mouseout"/></use>
  </g>
</defs>
<script type="application/ecmascript">
var viewWidth = 2098;
var viewHeight = 108;
var sectionId = 'dynsection-0';
</script>
<script type="application/ecmascript" xlink:href="svg.min.js"/>
<svg id="graph" class="graph">
<g id="viewport">
<title>src/main/java/fr/softsf/canscan/service/VersionService.java</title>
<!-- Node1 -->
<g id="Node000001" class="node">
<title>Node1</title>
<g id="a_Node000001"><a xlink:title=" ">
<polygon fill="#999999" stroke="#666666" points="1045.5,-100 866,-100 866,-68 1045.5,-68 1045.5,-100"/>
<text text-anchor="start" x="874" y="-86.5" font-family="Helvetica,sans-Serif" font-size="10.00">src/main/java/fr/softsf</text>
<text text-anchor="middle" x="955.75" y="-74.5" font-family="Helvetica,sans-Serif" font-size="10.00">/canscan/service/VersionService.java</text>
</a>
</g>
</g>
<!-- Node2 -->
<g id="Node000002" class="node">
<title>Node2</title>
<g id="a_Node000002"><a xlink:title=" ">
<polygon fill="#e0e0e0" stroke="#999999" points="101.5,-26 0,-26 0,-6 101.5,-6 101.5,-26"/>
<text text-anchor="middle" x="50.75" y="-12.5" font-family="Helvetica,sans-Serif" font-size="10.00">java.io.IOException</text>
</a>
</g>
</g>
<!-- Node1&#45;&gt;Node2 -->
<g id="edge1_Node000001_Node000002" class="edge">
<title>Node1&#45;&gt;Node2</title>
<g id="a_edge1_Node000001_Node000002"><a xlink:title=" ">
<path fill="none" stroke="#63b8ff" d="M865.75,-83C710.67,-81.8 383.48,-73.95 110.75,-32 105.52,-31.2 100.08,-30.14 94.71,-28.97"/>
<polygon fill="#63b8ff" stroke="#63b8ff" points="95.86,-25.65 85.32,-26.78 94.27,-32.46 95.86,-25.65"/>
</a>
</g>
</g>
<!-- Node3 -->
<g id="Node000003" class="node">
<title>Node3</title>
<g id="a_Node000003"><a xlink:title=" ">
<polygon fill="#e0e0e0" stroke="#999999" points="220.12,-26 119.38,-26 119.38,-6 220.12,-6 220.12,-26"/>
<text text-anchor="middle" x="169.75" y="-12.5" font-family="Helvetica,sans-Serif" font-size="10.00">java.io.InputStream</text>
</a>
</g>
</g>
<!-- Node1&#45;&gt;Node3 -->
<g id="edge2_Node000001_Node000003" class="edge">
<title>Node1&#45;&gt;Node3</title>
<g id="a_edge2_Node000001_Node000003"><a xlink:title=" ">
<path fill="none" stroke="#63b8ff" d="M865.62,-81.85C727.64,-78.92 456.1,-68.57 228.75,-32 223.8,-31.2 218.67,-30.19 213.58,-29.06"/>
<polygon fill="#63b8ff" stroke="#63b8ff" points="214.62,-25.71 204.08,-26.81 213,-32.52 214.62,-25.71"/>
</a>
</g>
</g>
<!-- Node4 -->
<g id="Node000004" class="node">
<title>Node4</title>
<g id="a_Node000004"><a xlink:title=" ">
<polygon fill="#e0e0e0" stroke="#999999" points="309.5,-26 238,-26 238,-6 309.5,-6 309.5,-26"/>
<text text-anchor="middle" x="273.75" y="-12.5" font-family="Helvetica,sans-Serif" font-size="10.00">java.net.URI</text>
</a>
</g>
</g>
<!-- Node1&#45;&gt;Node4 -->
<g id="edge3_Node000001_Node000004" class="edge">
<title>Node1&#45;&gt;Node4</title>
<g id="a_edge3_Node000001_Node000004"><a xlink:title=" ">
<path fill="none" stroke="#63b8ff" d="M865.74,-82.82C741.28,-80.98 510.21,-71.85 317.75,-32 314.74,-31.38 311.66,-30.61 308.58,-29.75"/>
<polygon fill="#63b8ff" stroke="#63b8ff" points="309.69,-26.43 299.1,-26.8 307.61,-33.11 309.69,-26.43"/>
</a>
</g>
</g>
<!-- Node5 -->
<g id="Node000005" class="node">
<title>Node5</title>
<g id="a_Node000005"><a xlink:title=" ">
<polygon fill="#e0e0e0" stroke="#999999" points="444.38,-26 327.12,-26 327.12,-6 444.38,-6 444.38,-26"/>
<text text-anchor="middle" x="385.75" y="-12.5" font-family="Helvetica,sans-Serif" font-size="10.00">java.net.http.HttpClient</text>
</a>
</g>
</g>
<!-- Node1&#45;&gt;Node5 -->
<g id="edge4_Node000001_Node000005" class="edge">
<title>Node1&#45;&gt;Node5</title>
<g id="a_edge4_Node000001_Node000005"><a xlink:title=" ">
<path fill="none" stroke="#63b8ff" d="M865.57,-77C764.77,-69.56 596.9,-54.98 453.75,-32 447.86,-31.05 441.71,-29.91 435.62,-28.69"/>
<polygon fill="#63b8ff" stroke="#63b8ff" points="436.78,-25.36 426.28,-26.74 435.35,-32.21 436.78,-25.36"/>
</a>
</g>
</g>
<!-- Node6 -->
<g id="Node000006" class="node">
<title>Node6</title>
<g id="a_Node000006"><a xlink:title=" ">
<polygon fill="#e0e0e0" stroke="#999999" points="591,-26 462.5,-26 462.5,-6 591,-6 591,-26"/>
<text text-anchor="middle" x="526.75" y="-12.5" font-family="Helvetica,sans-Serif" font-size="10.00">java.net.http.HttpRequest</text>
</a>
</g>
</g>
<!-- Node1&#45;&gt;Node6 -->
<g id="edge5_Node000001_Node000006" class="edge">
<title>Node1&#45;&gt;Node6</title>
<g id="a_edge5_Node000001_Node000006"><a xlink:title=" ">
<path fill="none" stroke="#63b8ff" d="M865.53,-71.61C793.42,-62.13 689.86,-47.7 599.75,-32 593.85,-30.97 587.71,-29.83 581.59,-28.64"/>
<polygon fill="#63b8ff" stroke="#63b8ff" points="582.65,-25.28 572.16,-26.77 581.29,-32.15 582.65,-25.28"/>
</a>
</g>
</g>
<!-- Node7 -->
<g id="Node000007" class="node">
<title>Node7</title>
<g id="a_Node000007"><a xlink:title=" ">
<polygon fill="#e0e0e0" stroke="#999999" points="744.75,-26 608.75,-26 608.75,-6 744.75,-6 744.75,-26"/>
<text text-anchor="middle" x="676.75" y="-12.5" font-family="Helvetica,sans-Serif" font-size="10.00">java.net.http.HttpResponse</text>
</a>
</g>
</g>
<!-- Node1&#45;&gt;Node7 -->
<g id="edge6_Node000001_Node000007" class="edge">
<title>Node1&#45;&gt;Node7</title>
<g id="a_edge6_Node000001_Node000007"><a xlink:title=" ">
<path fill="none" stroke="#63b8ff" d="M890.34,-67.53C840.74,-55.79 773.55,-39.9 727.87,-29.09"/>
<polygon fill="#63b8ff" stroke="#63b8ff" points="728.75,-25.7 718.21,-26.81 727.14,-32.52 728.75,-25.7"/>
</a>
</g>
</g>
<!-- Node8 -->
<g id="Node000008" class="node">
<title>Node8</title>
<g id="a_Node000008"><a xlink:title=" ">
<polygon fill="#e0e0e0" stroke="#999999" points="890.25,-32 763.25,-32 763.25,0 890.25,0 890.25,-32"/>
<text text-anchor="start" x="771.25" y="-18.5" font-family="Helvetica,sans-Serif" font-size="10.00">java.net.http.HttpTimeout</text>
<text text-anchor="middle" x="826.75" y="-6.5" font-family="Helvetica,sans-Serif" font-size="10.00">Exception</text>
</a>
</g>
</g>
<!-- Node1&#45;&gt;Node8 -->
<g id="edge7_Node000001_Node000008" class="edge">
<title>Node1&#45;&gt;Node8</title>
<g id="a_edge7_Node000001_Node000008"><a xlink:title=" ">
<path fill="none" stroke="#63b8ff" d="M925.51,-67.53C908.04,-58.59 885.85,-47.24 866.93,-37.56"/>
<polygon fill="#63b8ff" stroke="#63b8ff" points="868.65,-34.51 858.15,-33.07 865.46,-40.74 868.65,-34.51"/>
</a>
</g>
</g>
<!-- Node9 -->
<g id="Node000009" class="node">
<title>Node9</title>
<g id="a_Node000009"><a xlink:title=" ">
<polygon fill="#e0e0e0" stroke="#999999" points="1003.5,-26 908,-26 908,-6 1003.5,-6 1003.5,-26"/>
<text text-anchor="middle" x="955.75" y="-12.5" font-family="Helvetica,sans-Serif" font-size="10.00">java.time.Duration</text>
</a>
</g>
</g>
<!-- Node1&#45;&gt;Node9 -->
<g id="edge8_Node000001_Node000009" class="edge">
<title>Node1&#45;&gt;Node9</title>
<g id="a_edge8_Node000001_Node000009"><a xlink:title=" ">
<path fill="none" stroke="#63b8ff" d="M955.75,-67.69C955.75,-58.8 955.75,-47.46 955.75,-37.77"/>
<polygon fill="#63b8ff" stroke="#63b8ff" points="959.25,-37.83 955.75,-27.83 952.25,-37.83 959.25,-37.83"/>
</a>
</g>
</g>
<!-- Node10 -->
<g id="Node000010" class="node">
<title>Node10</title>
<g id="a_Node000010"><a xlink:title=" ">
<polygon fill="#e0e0e0" stroke="#999999" points="1166.25,-32 1021.25,-32 1021.25,0 1166.25,0 1166.25,-32"/>
<text text-anchor="start" x="1029.25" y="-18.5" font-family="Helvetica,sans-Serif" font-size="10.00">java.util.concurrent.Execution</text>
<text text-anchor="middle" x="1093.75" y="-6.5" font-family="Helvetica,sans-Serif" font-size="10.00">Exception</text>
</a>
</g>
</g>
<!-- Node1&#45;&gt;Node10 -->
<g id="edge9_Node000001_Node000010" class="edge">
<title>Node1&#45;&gt;Node10</title>
<g id="a_edge9_Node000001_Node000010"><a xlink:title=" ">
<path fill="none" stroke="#63b8ff" d="M988.1,-67.53C1006.96,-58.51 1030.97,-47.03 1051.33,-37.29"/>
<polygon fill="#63b8ff" stroke="#63b8ff" points="1052.72,-40.5 1060.23,-33.03 1049.7,-34.19 1052.72,-40.5"/>
</a>
</g>
</g>
<!-- Node11 -->
<g id="Node000011" class="node">
<title>Node11</title>
<g id="a_Node000011"><a xlink:title=" ">
<polygon fill="#e0e0e0" stroke="#999999" points="1289,-26 1184.5,-26 1184.5,-6 1289,-6 1289,-26"/>
<text text-anchor="middle" x="1236.75" y="-12.5" font-family="Helvetica,sans-Serif" font-size="10.00">javax.swing.JButton</text>
</a>
</g>
</g>
<!-- Node1&#45;&gt;Node11 -->
<g id="edge10_Node000001_Node000011" class="edge">
<title>Node1&#45;&gt;Node11</title>
<g id="a_edge10_Node000001_Node000011"><a xlink:title=" ">
<path fill="none" stroke="#63b8ff" d="M1023.2,-67.61C1066.77,-57.61 1124.65,-44.21 1175.75,-32 1179.58,-31.09 1183.54,-30.13 1187.52,-29.17"/>
<polygon fill="#63b8ff" stroke="#63b8ff" points="1188.34,-32.57 1197.23,-26.8 1186.68,-25.77 1188.34,-32.57"/>
</a>
</g>
</g>
<!-- Node12 -->
<g id="Node000012" class="node">
<title>Node12</title>
<g id="a_Node000012"><a xlink:title=" ">
<polygon fill="#e0e0e0" stroke="#999999" points="1436,-26 1307.5,-26 1307.5,-6 1436,-6 1436,-26"/>
<text text-anchor="middle" x="1371.75" y="-12.5" font-family="Helvetica,sans-Serif" font-size="10.00">javax.swing.SwingWorker</text>
</a>
</g>
</g>
<!-- Node1&#45;&gt;Node12 -->
<g id="edge11_Node000001_Node000012" class="edge">
<title>Node1&#45;&gt;Node12</title>
<g id="a_edge11_Node000001_Node000012"><a xlink:title=" ">
<path fill="none" stroke="#63b8ff" d="M1045.97,-70.85C1115.04,-61.23 1212.61,-46.97 1297.75,-32 1303.64,-30.96 1309.78,-29.82 1315.9,-28.64"/>
<polygon fill="#63b8ff" stroke="#63b8ff" points="1316.2,-32.15 1325.33,-26.79 1314.85,-25.28 1316.2,-32.15"/>
</a>
</g>
</g>
<!-- Node13 -->
<g id="Node000013" class="node">
<title>Node13</title>
<g id="a_Node000013"><a xlink:title=" ">
<polygon fill="#e0e0e0" stroke="#999999" points="1611.62,-32 1453.88,-32 1453.88,0 1611.62,0 1611.62,-32"/>
<text text-anchor="start" x="1461.88" y="-18.5" font-family="Helvetica,sans-Serif" font-size="10.00">com.fasterxml.jackson.databind.</text>
<text text-anchor="middle" x="1532.75" y="-6.5" font-family="Helvetica,sans-Serif" font-size="10.00">JsonNode</text>
</a>
</g>
</g>
<!-- Node1&#45;&gt;Node13 -->
<g id="edge12_Node000001_Node000013" class="edge">
<title>Node1&#45;&gt;Node13</title>
<g id="a_edge12_Node000001_Node000013"><a xlink:title=" ">
<path fill="none" stroke="#63b8ff" d="M1045.64,-75.39C1141.4,-66.88 1297.67,-51.85 1442.35,-32.27"/>
<polygon fill="#63b8ff" stroke="#63b8ff" points="1442.7,-35.76 1452.13,-30.94 1441.75,-28.82 1442.7,-35.76"/>
</a>
</g>
</g>
<!-- Node14 -->
<g id="Node000014" class="node">
<title>Node14</title>
<g id="a_Node000014"><a xlink:title=" ">
<polygon fill="#e0e0e0" stroke="#999999" points="1787.62,-32 1629.88,-32 1629.88,0 1787.62,0 1787.62,-32"/>
<text text-anchor="start" x="1637.88" y="-18.5" font-family="Helvetica,sans-Serif" font-size="10.00">com.fasterxml.jackson.databind.</text>
<text text-anchor="middle" x="1708.75" y="-6.5" font-family="Helvetica,sans-Serif" font-size="10.00">ObjectMapper</text>
</a>
</g>
</g>
<!-- Node1&#45;&gt;Node14 -->
<g id="edge13_Node000001_Node000014" class="edge">
<title>Node1&#45;&gt;Node14</title>
<g id="a_edge13_Node000001_Node000014"><a xlink:title=" ">
<path fill="none" stroke="#63b8ff" d="M1045.83,-78.73C1171.67,-72.19 1407.43,-57.78 1618.35,-32.22"/>
<polygon fill="#63b8ff" stroke="#63b8ff" points="1618.64,-35.71 1628.14,-31.02 1617.79,-28.76 1618.64,-35.71"/>
</a>
</g>
</g>
<!-- Node15 -->
<g id="Node000015" class="node">
<title>Node15</title>
<g id="a_Node000015"><a xlink:title=" ">
<polygon fill="#e0e0e0" stroke="#999999" points="1927.62,-32 1805.88,-32 1805.88,0 1927.62,0 1927.62,-32"/>
<text text-anchor="start" x="1813.88" y="-18.5" font-family="Helvetica,sans-Serif" font-size="10.00">fr.softsf.canscan.model.</text>
<text text-anchor="middle" x="1866.75" y="-6.5" font-family="Helvetica,sans-Serif" font-size="10.00">VersionValue</text>
</a>
</g>
</g>
<!-- Node1&#45;&gt;Node15 -->
<g id="edge14_Node000001_Node000015" class="edge">
<title>Node1&#45;&gt;Node15</title>
<g id="a_edge14_Node000001_Node000015"><a xlink:title=" ">
<path fill="none" stroke="#63b8ff" d="M1045.8,-81.98C1198.14,-79.27 1516.48,-69.4 1794.27,-32.2"/>
<polygon fill="#63b8ff" stroke="#63b8ff" points="1794.44,-35.71 1803.88,-30.9 1793.5,-28.77 1794.44,-35.71"/>
</a>
</g>
</g>
<!-- Node16 -->
<g id="Node000016" class="node">
<title>Node16</title>
<g id="a_Node000016"><a xlink:title=" ">
<polygon fill="#e0e0e0" stroke="#999999" points="2090.25,-26 1945.25,-26 1945.25,-6 2090.25,-6 2090.25,-26"/>
<text text-anchor="middle" x="2017.75" y="-12.5" font-family="Helvetica,sans-Serif" font-size="10.00">fr.softsf.canscan.util.Checker</text>
</a>
</g>
</g>
<!-- Node1&#45;&gt;Node16 -->
<g id="edge15_Node000001_Node000016" class="edge">
<title>Node1&#45;&gt;Node16</title>
<g id="a_edge15_Node000001_Node000016"><a xlink:title=" ">
<path fill="none" stroke="#63b8ff" d="M1045.69,-82.26C1218.8,-79.97 1610.09,-70.57 1936.75,-32 1944.76,-31.05 1953.17,-29.8 1961.41,-28.41"/>
<polygon fill="#63b8ff" stroke="#63b8ff" points="1961.77,-31.9 1971.01,-26.73 1960.55,-25.01 1961.77,-31.9"/>
</a>
</g>
</g>
</g>
</svg>

<g id="navigator" transform="translate(0 0)" fill="#404254">
  <rect fill="#f2f5e9" fill-opacity="0.5" stroke="#606060" stroke-width=".5" x="0" y="0" width="60" height="60"/>
  <use id="zoomplus" xlink:href="#zoomPlus" x="17" y="9" onmousedown="handleZoom(evt,'in')"/>
  <use id="zoomminus" xlink:href="#zoomMin" x="42" y="9" onmousedown="handleZoom(evt,'out')"/>
  <use id="reset" xlink:href="#resetDef" x="30" y="36" onmousedown="handleReset()"/>
   <use id="arrowup" xlink:href="#arrowUp" x="0" y="0" onmousedown="handlePan(0,-1)"/>
  <use id="arrowright" xlink:href="#arrowRight" x="0" y="0" onmousedown="handlePan(1,0)"/>
  <use id="arrowdown" xlink:href="#arrowDown" x="0" y="0" onmousedown="handlePan(0,1)"/>
  <use id="arrowleft" xlink:href="#arrowLeft" x="0" y="0" onmousedown="handlePan(-1,0)"/>
</g>
<svg viewBox="0 0 15 15" width="100%" height="30px" preserveAspectRatio="xMaxYMin meet">
 <g id="arrow_out" transform="scale(0.3 0.3)">
  <a xlink:href="_version_service_8java__incl_org.svg" target="_base">
   <rect id="button" ry="5" rx="5" y="6" x="6" height="38" width="38"
        fill="#f2f5e9" fill-opacity="0.5" stroke="#606060" stroke-width="1.0"/>
   <path id="arrow"
     d="M 11.500037,31.436501 C 11.940474,20.09759 22.043105,11.32322 32.158766,21.979434 L 37.068811,17.246167 C 37.068811,17.246167 37.088388,32 37.088388,32 L 22.160133,31.978069 C 22.160133,31.978069 26.997745,27.140456 26.997745,27.140456 C 18.528582,18.264221 13.291696,25.230495 11.500037,31.436501 z"
     style="fill:#404040;"/>
  </a>
 </g>
</svg>

<style type='text/css'>
<![CDATA[
[data-mouse-over-selected='false'] { opacity: 0.7; }
[data-mouse-over-selected='true']  { opacity: 1.0; }
]]>
</style>
<script type="application/ecmascript"><![CDATA[
document.addEventListener('DOMContentLoaded', (event) => {
  highlightEdges();
  highlightAdjacentNodes();
});
]]></script>
</svg>
