<?xml version="1.0" encoding="UTF-8" standalone="no"?>
<!DOCTYPE svg PUBLIC "-//W3C//DTD SVG 1.1//EN"
 "http://www.w3.org/Graphics/SVG/1.1/DTD/svg11.dtd">
<!-- Generated by graphviz version 12.2.1 (20241206.2353)
 -->
<!-- Title: fr.softsf.canscan.ui.EncodedImage.updateQrOriginal Pages: 1 -->
<svg width="327pt" height="90pt"
 viewBox="0.00 0.00 326.50 90.00" xmlns="http://www.w3.org/2000/svg" xmlns:xlink="http://www.w3.org/1999/xlink">
<g id="graph0" class="graph" transform="scale(1 1) rotate(0) translate(4 86)">
<title>fr.softsf.canscan.ui.EncodedImage.updateQrOriginal</title>
<!-- Node1 -->
<g id="Node000001" class="node">
<title>Node1</title>
<g id="a_Node000001"><a xlink:title="Updates the QR code image using a defensive copy.">
<polygon fill="#999999" stroke="#666666" points="141.25,-57 0,-57 0,-25 141.25,-25 141.25,-57"/>
<text text-anchor="start" x="8" y="-43.5" font-family="Helvetica,sans-Serif" font-size="10.00">fr.softsf.canscan.ui.Encoded</text>
<text text-anchor="middle" x="70.62" y="-31.5" font-family="Helvetica,sans-Serif" font-size="10.00">Image.updateQrOriginal</text>
</a>
</g>
</g>
<!-- Node2 -->
<g id="Node000002" class="node">
<title>Node2</title>
<g id="a_Node000002"><a xlink:href="classfr_1_1softsf_1_1canscan_1_1ui_1_1_encoded_image.html#a85e20778f91dad2dbf3e67ded698db16" target="_top" xlink:title="Creates a defensive copy of the source image.">
<polygon fill="white" stroke="#666666" points="318.5,-82 177.25,-82 177.25,-50 318.5,-50 318.5,-82"/>
<text text-anchor="start" x="185.25" y="-68.5" font-family="Helvetica,sans-Serif" font-size="10.00">fr.softsf.canscan.ui.Encoded</text>
<text text-anchor="middle" x="247.88" y="-56.5" font-family="Helvetica,sans-Serif" font-size="10.00">Image.createDefensiveCopy</text>
</a>
</g>
</g>
<!-- Node1&#45;&gt;Node2 -->
<g id="edge1_Node000001_Node000002" class="edge">
<title>Node1&#45;&gt;Node2</title>
<g id="a_edge1_Node000001_Node000002"><a xlink:title=" ">
<path fill="none" stroke="#63b8ff" d="M141.64,-50.99C149.55,-52.12 157.65,-53.27 165.69,-54.42"/>
<polygon fill="#63b8ff" stroke="#63b8ff" points="165.07,-57.87 175.47,-55.81 166.06,-50.94 165.07,-57.87"/>
</a>
</g>
</g>
<!-- Node3 -->
<g id="Node000003" class="node">
<title>Node3</title>
<g id="a_Node000003"><a xlink:href="classfr_1_1softsf_1_1canscan_1_1ui_1_1_encoded_image.html#a1f675a96edbc6fb8d417920bd4e26c41" target="_top" xlink:title="Releases the current QR code image and its resources.">
<polygon fill="white" stroke="#666666" points="318.5,-32 177.25,-32 177.25,0 318.5,0 318.5,-32"/>
<text text-anchor="start" x="185.25" y="-18.5" font-family="Helvetica,sans-Serif" font-size="10.00">fr.softsf.canscan.ui.Encoded</text>
<text text-anchor="middle" x="247.88" y="-6.5" font-family="Helvetica,sans-Serif" font-size="10.00">Image.freeQrOriginal</text>
</a>
</g>
</g>
<!-- Node1&#45;&gt;Node3 -->
<g id="edge2_Node000001_Node000003" class="edge">
<title>Node1&#45;&gt;Node3</title>
<g id="a_edge2_Node000001_Node000003"><a xlink:title=" ">
<path fill="none" stroke="#63b8ff" d="M141.64,-31.01C149.55,-29.88 157.65,-28.73 165.69,-27.58"/>
<polygon fill="#63b8ff" stroke="#63b8ff" points="166.06,-31.06 175.47,-26.19 165.07,-24.13 166.06,-31.06"/>
</a>
</g>
</g>
</g>
</svg>
