<?xml version="1.0" encoding="UTF-8" standalone="no"?>
<!DOCTYPE svg PUBLIC "-//W3C//DTD SVG 1.1//EN"
 "http://www.w3.org/Graphics/SVG/1.1/DTD/svg11.dtd">
<!-- Generated by graphviz version 12.2.1 (20241206.2353)
 -->
<!-- Title: fr.softsf.canscan.CanScan.generateQrCode Pages: 1 -->
<svg width="596pt" height="272pt"
 viewBox="0.00 0.00 596.00 272.00" xmlns="http://www.w3.org/2000/svg" xmlns:xlink="http://www.w3.org/1999/xlink">
<g id="graph0" class="graph" transform="scale(1 1) rotate(0) translate(4 268)">
<title>fr.softsf.canscan.CanScan.generateQrCode</title>
<!-- Node1 -->
<g id="Node000001" class="node">
<title>Node1</title>
<g id="a_Node000001"><a xlink:title="Generates and saves a QR code as a PNG file using the current input and configuration.">
<polygon fill="#999999" stroke="#666666" points="173.5,-145 0,-145 0,-113 173.5,-113 173.5,-145"/>
<text text-anchor="start" x="8" y="-131.5" font-family="Helvetica,sans-Serif" font-size="10.00">fr.softsf.canscan.CanScan.generate</text>
<text text-anchor="middle" x="86.75" y="-119.5" font-family="Helvetica,sans-Serif" font-size="10.00">QrCode</text>
</a>
</g>
</g>
<!-- Node2 -->
<g id="Node000002" class="node">
<title>Node2</title>
<g id="a_Node000002"><a xlink:href="classfr_1_1softsf_1_1canscan_1_1_can_scan.html#a2d26dcd1ae708eae46dba8952351aa1a" target="_top" xlink:title="Builds and returns a QrInput object containing all current user inputs and settings.">
<polygon fill="white" stroke="#666666" points="368,-208 218.5,-208 218.5,-176 368,-176 368,-208"/>
<text text-anchor="start" x="226.5" y="-194.5" font-family="Helvetica,sans-Serif" font-size="10.00">fr.softsf.canscan.CanScan.get</text>
<text text-anchor="middle" x="293.25" y="-182.5" font-family="Helvetica,sans-Serif" font-size="10.00">QrInput</text>
</a>
</g>
</g>
<!-- Node1&#45;&gt;Node2 -->
<g id="edge1_Node000001_Node000002" class="edge">
<title>Node1&#45;&gt;Node2</title>
<g id="a_edge1_Node000001_Node000002"><a xlink:title=" ">
<path fill="none" stroke="#63b8ff" d="M141.21,-145.47C167.75,-153.65 200.01,-163.58 227.9,-172.17"/>
<polygon fill="#63b8ff" stroke="#63b8ff" points="226.71,-175.47 237.3,-175.07 228.77,-168.78 226.71,-175.47"/>
</a>
</g>
</g>
<!-- Node4 -->
<g id="Node000004" class="node">
<title>Node4</title>
<g id="a_Node000004"><a xlink:href="classfr_1_1softsf_1_1canscan_1_1_can_scan.html#a4e67b1b5c764e72414a5c0f387810f5c" target="_top" xlink:title="Validates and returns the current QR code margin from the margin slider.">
<polygon fill="white" stroke="#666666" points="585.38,-264 415.62,-264 415.62,-232 585.38,-232 585.38,-264"/>
<text text-anchor="start" x="423.62" y="-250.5" font-family="Helvetica,sans-Serif" font-size="10.00">fr.softsf.canscan.CanScan.validate</text>
<text text-anchor="middle" x="500.5" y="-238.5" font-family="Helvetica,sans-Serif" font-size="10.00">AndGetMargin</text>
</a>
</g>
</g>
<!-- Node1&#45;&gt;Node4 -->
<g id="edge8_Node000001_Node000004" class="edge">
<title>Node1&#45;&gt;Node4</title>
<g id="a_edge8_Node000001_Node000004"><a xlink:title=" ">
<path fill="none" stroke="#63b8ff" d="M104.18,-145.3C126.11,-165.94 167.13,-200.75 209.5,-217 271.44,-240.75 345.94,-248.31 403.92,-250.03"/>
<polygon fill="#63b8ff" stroke="#63b8ff" points="403.69,-253.53 413.77,-250.27 403.85,-246.53 403.69,-253.53"/>
</a>
</g>
</g>
<!-- Node5 -->
<g id="Node000005" class="node">
<title>Node5</title>
<g id="a_Node000005"><a xlink:href="classfr_1_1softsf_1_1canscan_1_1_can_scan.html#a9e8188875168199cde065113ae2a393d" target="_top" xlink:title="Validates and returns the current image&#45;to&#45;QR ratio from the ratio slider.">
<polygon fill="white" stroke="#666666" points="585.38,-164 415.62,-164 415.62,-132 585.38,-132 585.38,-164"/>
<text text-anchor="start" x="423.62" y="-150.5" font-family="Helvetica,sans-Serif" font-size="10.00">fr.softsf.canscan.CanScan.validate</text>
<text text-anchor="middle" x="500.5" y="-138.5" font-family="Helvetica,sans-Serif" font-size="10.00">AndGetRatio</text>
</a>
</g>
</g>
<!-- Node1&#45;&gt;Node5 -->
<g id="edge9_Node000001_Node000005" class="edge">
<title>Node1&#45;&gt;Node5</title>
<g id="a_edge9_Node000001_Node000005"><a xlink:title=" ">
<path fill="none" stroke="#63b8ff" d="M173.82,-132.97C241.04,-136.07 334.39,-140.38 403.92,-143.59"/>
<polygon fill="#63b8ff" stroke="#63b8ff" points="403.64,-147.08 413.8,-144.05 403.97,-140.09 403.64,-147.08"/>
</a>
</g>
</g>
<!-- Node6 -->
<g id="Node000006" class="node">
<title>Node6</title>
<g id="a_Node000006"><a xlink:href="classfr_1_1softsf_1_1canscan_1_1_can_scan.html#a6d139bb8d0a3c7081096c8956189b684" target="_top" xlink:title="Validates and returns the QR code size from the corresponding text field.">
<polygon fill="white" stroke="#666666" points="585.38,-114 415.62,-114 415.62,-82 585.38,-82 585.38,-114"/>
<text text-anchor="start" x="423.62" y="-100.5" font-family="Helvetica,sans-Serif" font-size="10.00">fr.softsf.canscan.CanScan.validate</text>
<text text-anchor="middle" x="500.5" y="-88.5" font-family="Helvetica,sans-Serif" font-size="10.00">AndGetSize</text>
</a>
</g>
</g>
<!-- Node1&#45;&gt;Node6 -->
<g id="edge10_Node000001_Node000006" class="edge">
<title>Node1&#45;&gt;Node6</title>
<g id="a_edge10_Node000001_Node000006"><a xlink:title=" ">
<path fill="none" stroke="#63b8ff" d="M173.82,-122.52C241.04,-117.46 334.39,-110.43 403.92,-105.2"/>
<polygon fill="#63b8ff" stroke="#63b8ff" points="404.09,-108.69 413.8,-104.45 403.56,-101.71 404.09,-108.69"/>
</a>
</g>
</g>
<!-- Node7 -->
<g id="Node000007" class="node">
<title>Node7</title>
<g id="a_Node000007"><a xlink:href="classfr_1_1softsf_1_1canscan_1_1_can_scan.html#a2178e144ac357d7e144a2f20c83681bf" target="_top" xlink:title="Retrieves the selected file from a JFileChooser and ensures it has a &quot;.png&quot; extension.">
<polygon fill="white" stroke="#666666" points="368,-82 218.5,-82 218.5,-50 368,-50 368,-82"/>
<text text-anchor="start" x="226.5" y="-68.5" font-family="Helvetica,sans-Serif" font-size="10.00">fr.softsf.canscan.CanScan.get</text>
<text text-anchor="middle" x="293.25" y="-56.5" font-family="Helvetica,sans-Serif" font-size="10.00">SelectedPngFile</text>
</a>
</g>
</g>
<!-- Node1&#45;&gt;Node7 -->
<g id="edge6_Node000001_Node000007" class="edge">
<title>Node1&#45;&gt;Node7</title>
<g id="a_edge6_Node000001_Node000007"><a xlink:title=" ">
<path fill="none" stroke="#63b8ff" d="M141.21,-112.53C167.75,-104.35 200.01,-94.42 227.9,-85.83"/>
<polygon fill="#63b8ff" stroke="#63b8ff" points="228.77,-89.22 237.3,-82.93 226.71,-82.53 228.77,-89.22"/>
</a>
</g>
</g>
<!-- Node8 -->
<g id="Node000008" class="node">
<title>Node8</title>
<g id="a_Node000008"><a xlink:href="classfr_1_1softsf_1_1canscan_1_1_can_scan.html#a450a5742a56de389ea303ec3977017c8" target="_top" xlink:title="Resolves potential file name conflicts by checking if the specified file already exists.">
<polygon fill="white" stroke="#666666" points="377,-32 209.5,-32 209.5,0 377,0 377,-32"/>
<text text-anchor="start" x="217.5" y="-18.5" font-family="Helvetica,sans-Serif" font-size="10.00">fr.softsf.canscan.CanScan.resolve</text>
<text text-anchor="middle" x="293.25" y="-6.5" font-family="Helvetica,sans-Serif" font-size="10.00">FileNameConflict</text>
</a>
</g>
</g>
<!-- Node1&#45;&gt;Node8 -->
<g id="edge7_Node000001_Node000008" class="edge">
<title>Node1&#45;&gt;Node8</title>
<g id="a_edge7_Node000001_Node000008"><a xlink:title=" ">
<path fill="none" stroke="#63b8ff" d="M106.29,-112.54C129.11,-93.02 169.76,-60.67 209.5,-41 212.73,-39.4 216.08,-37.88 219.5,-36.45"/>
<polygon fill="#63b8ff" stroke="#63b8ff" points="220.48,-39.82 228.51,-32.92 217.93,-33.3 220.48,-39.82"/>
</a>
</g>
</g>
<!-- Node3 -->
<g id="Node000003" class="node">
<title>Node3</title>
<g id="a_Node000003"><a xlink:href="classfr_1_1softsf_1_1canscan_1_1_can_scan.html#a22606ca129489c778fbbe17cb8b70697" target="_top" xlink:title="Calculates the available height for QR code rendering.">
<polygon fill="white" stroke="#666666" points="588,-214 413,-214 413,-182 588,-182 588,-214"/>
<text text-anchor="start" x="421" y="-200.5" font-family="Helvetica,sans-Serif" font-size="10.00">fr.softsf.canscan.CanScan.calculate</text>
<text text-anchor="middle" x="500.5" y="-188.5" font-family="Helvetica,sans-Serif" font-size="10.00">AvailableQrHeight</text>
</a>
</g>
</g>
<!-- Node2&#45;&gt;Node3 -->
<g id="edge2_Node000002_Node000003" class="edge">
<title>Node2&#45;&gt;Node3</title>
<g id="a_edge2_Node000002_Node000003"><a xlink:title=" ">
<path fill="none" stroke="#63b8ff" d="M368.35,-194.17C379,-194.48 390.1,-194.8 401.13,-195.12"/>
<polygon fill="#63b8ff" stroke="#63b8ff" points="400.97,-198.62 411.07,-195.42 401.18,-191.62 400.97,-198.62"/>
</a>
</g>
</g>
<!-- Node2&#45;&gt;Node4 -->
<g id="edge3_Node000002_Node000004" class="edge">
<title>Node2&#45;&gt;Node4</title>
<g id="a_edge3_Node000002_Node000004"><a xlink:title=" ">
<path fill="none" stroke="#63b8ff" d="M354.72,-208.5C377.79,-214.79 404.31,-222.03 428.29,-228.57"/>
<polygon fill="#63b8ff" stroke="#63b8ff" points="427.08,-231.87 437.65,-231.12 428.92,-225.12 427.08,-231.87"/>
</a>
</g>
</g>
<!-- Node2&#45;&gt;Node5 -->
<g id="edge4_Node000002_Node000005" class="edge">
<title>Node2&#45;&gt;Node5</title>
<g id="a_edge4_Node000002_Node000005"><a xlink:title=" ">
<path fill="none" stroke="#63b8ff" d="M368.35,-176.11C382.44,-173.09 397.31,-169.91 411.78,-166.8"/>
<polygon fill="#63b8ff" stroke="#63b8ff" points="412.22,-170.29 421.26,-164.77 410.75,-163.45 412.22,-170.29"/>
</a>
</g>
</g>
<!-- Node2&#45;&gt;Node6 -->
<g id="edge5_Node000002_Node000006" class="edge">
<title>Node2&#45;&gt;Node6</title>
<g id="a_edge5_Node000002_Node000006"><a xlink:title=" ">
<path fill="none" stroke="#63b8ff" d="M318.35,-175.62C341.71,-160.33 378.58,-137.71 413,-123 417.01,-121.29 421.17,-119.65 425.41,-118.09"/>
<polygon fill="#63b8ff" stroke="#63b8ff" points="426.31,-121.48 434.6,-114.89 424.01,-114.87 426.31,-121.48"/>
</a>
</g>
</g>
</g>
</svg>
