<?xml version="1.0" encoding="UTF-8" standalone="no"?>
<!DOCTYPE svg PUBLIC "-//W3C//DTD SVG 1.1//EN"
 "http://www.w3.org/Graphics/SVG/1.1/DTD/svg11.dtd">
<!-- Generated by graphviz version 12.2.1 (20241206.2353)
 -->
<!-- Title: fr.softsf.canscan.ui.ColorOperation.chooseColor Pages: 1 -->
<svg width="677pt" height="90pt"
 viewBox="0.00 0.00 676.50 90.00" xmlns="http://www.w3.org/2000/svg" xmlns:xlink="http://www.w3.org/1999/xlink">
<g id="graph0" class="graph" transform="scale(1 1) rotate(0) translate(4 86)">
<title>fr.softsf.canscan.ui.ColorOperation.chooseColor</title>
<!-- Node1 -->
<g id="Node000001" class="node">
<title>Node1</title>
<g id="a_Node000001"><a xlink:title="Opens a color chooser dialog and updates the button with the selected color.">
<polygon fill="#999999" stroke="#666666" points="126.25,-57 0,-57 0,-25 126.25,-25 126.25,-57"/>
<text text-anchor="start" x="8" y="-43.5" font-family="Helvetica,sans-Serif" font-size="10.00">fr.softsf.canscan.ui.Color</text>
<text text-anchor="middle" x="63.12" y="-31.5" font-family="Helvetica,sans-Serif" font-size="10.00">Operation.chooseColor</text>
</a>
</g>
</g>
<!-- Node2 -->
<g id="Node000002" class="node">
<title>Node2</title>
<g id="a_Node000002"><a xlink:href="classfr_1_1softsf_1_1canscan_1_1ui_1_1_color_operation.html#a466717b99c523fa665a8895bb9c91b71" target="_top" xlink:title="Updates a button&#39;s icon and text to reflect a new color.">
<polygon fill="white" stroke="#666666" points="324.5,-57 162.25,-57 162.25,-25 324.5,-25 324.5,-57"/>
<text text-anchor="start" x="170.25" y="-43.5" font-family="Helvetica,sans-Serif" font-size="10.00">fr.softsf.canscan.ui.Color</text>
<text text-anchor="middle" x="243.38" y="-31.5" font-family="Helvetica,sans-Serif" font-size="10.00">Operation.updateButtonWithColor</text>
</a>
</g>
</g>
<!-- Node1&#45;&gt;Node2 -->
<g id="edge1_Node000001_Node000002" class="edge">
<title>Node1&#45;&gt;Node2</title>
<g id="a_edge1_Node000001_Node000002"><a xlink:title=" ">
<path fill="none" stroke="#63b8ff" d="M126.72,-41C134.42,-41 142.42,-41 150.44,-41"/>
<polygon fill="#63b8ff" stroke="#63b8ff" points="150.27,-44.5 160.27,-41 150.27,-37.5 150.27,-44.5"/>
</a>
</g>
</g>
<!-- Node3 -->
<g id="Node000003" class="node">
<title>Node3</title>
<g id="a_Node000003"><a xlink:href="classfr_1_1softsf_1_1canscan_1_1ui_1_1_color_operation.html#a2dc9a80146b95145d06e8ad45171e889" target="_top" xlink:title="Converts a Color object to its hexadecimal RGB string representation.">
<polygon fill="white" stroke="#666666" points="488.62,-82 362.38,-82 362.38,-50 488.62,-50 488.62,-82"/>
<text text-anchor="start" x="370.38" y="-68.5" font-family="Helvetica,sans-Serif" font-size="10.00">fr.softsf.canscan.ui.Color</text>
<text text-anchor="middle" x="425.5" y="-56.5" font-family="Helvetica,sans-Serif" font-size="10.00">Operation.colorToHex</text>
</a>
</g>
</g>
<!-- Node2&#45;&gt;Node3 -->
<g id="edge2_Node000002_Node000003" class="edge">
<title>Node2&#45;&gt;Node3</title>
<g id="a_edge2_Node000002_Node000003"><a xlink:title=" ">
<path fill="none" stroke="#63b8ff" d="M324.95,-52.18C333.62,-53.39 342.4,-54.6 350.97,-55.79"/>
<polygon fill="#63b8ff" stroke="#63b8ff" points="350.21,-59.22 360.6,-57.13 351.17,-52.29 350.21,-59.22"/>
</a>
</g>
</g>
<!-- Node4 -->
<g id="Node000004" class="node">
<title>Node4</title>
<g id="a_Node000004"><a xlink:href="classfr_1_1softsf_1_1canscan_1_1ui_1_1_color_operation.html#a71702ffd14d463001f26baa6e9a77e1a" target="_top" xlink:title="Creates a square icon filled with the specified color and a visible border.">
<polygon fill="white" stroke="#666666" points="490.5,-32 360.5,-32 360.5,0 490.5,0 490.5,-32"/>
<text text-anchor="start" x="368.5" y="-18.5" font-family="Helvetica,sans-Serif" font-size="10.00">fr.softsf.canscan.ui.Color</text>
<text text-anchor="middle" x="425.5" y="-6.5" font-family="Helvetica,sans-Serif" font-size="10.00">Operation.createColorIcon</text>
</a>
</g>
</g>
<!-- Node2&#45;&gt;Node4 -->
<g id="edge3_Node000002_Node000004" class="edge">
<title>Node2&#45;&gt;Node4</title>
<g id="a_edge3_Node000002_Node000004"><a xlink:title=" ">
<path fill="none" stroke="#63b8ff" d="M324.95,-29.82C332.98,-28.7 341.1,-27.58 349.07,-26.47"/>
<polygon fill="#63b8ff" stroke="#63b8ff" points="349.27,-29.97 358.7,-25.13 348.31,-23.04 349.27,-29.97"/>
</a>
</g>
</g>
<!-- Node5 -->
<g id="Node000005" class="node">
<title>Node5</title>
<g id="a_Node000005"><a xlink:href="classfr_1_1softsf_1_1canscan_1_1ui_1_1_color_operation.html#a98d693b64c1f7003ca834a41a0f123cb" target="_top" xlink:title="Disposes the current icon of a button to free memory.">
<polygon fill="white" stroke="#666666" points="668.5,-32 526.5,-32 526.5,0 668.5,0 668.5,-32"/>
<text text-anchor="start" x="534.5" y="-18.5" font-family="Helvetica,sans-Serif" font-size="10.00">fr.softsf.canscan.ui.Color</text>
<text text-anchor="middle" x="597.5" y="-6.5" font-family="Helvetica,sans-Serif" font-size="10.00">Operation.disposeButtonIcon</text>
</a>
</g>
</g>
<!-- Node4&#45;&gt;Node5 -->
<g id="edge4_Node000004_Node000005" class="edge">
<title>Node4&#45;&gt;Node5</title>
<g id="a_edge4_Node000004_Node000005"><a xlink:title=" ">
<path fill="none" stroke="#63b8ff" d="M490.77,-16C498.63,-16 506.74,-16 514.82,-16"/>
<polygon fill="#63b8ff" stroke="#63b8ff" points="514.66,-19.5 524.66,-16 514.66,-12.5 514.66,-19.5"/>
</a>
</g>
</g>
</g>
</svg>
