<?xml version="1.0" encoding="UTF-8" standalone="no"?>
<!DOCTYPE svg PUBLIC "-//W3C//DTD SVG 1.1//EN"
 "http://www.w3.org/Graphics/SVG/1.1/DTD/svg11.dtd">
<!-- Generated by graphviz version 12.2.1 (20241206.2353)
 -->
<!-- Title: fr.softsf.canscan.CanScan.buildTitle Pages: 1 -->
<svg width="1586pt" height="433pt"
 viewBox="0.00 0.00 1585.75 433.41" xmlns="http://www.w3.org/2000/svg" xmlns:xlink="http://www.w3.org/1999/xlink">
<g id="graph0" class="graph" transform="scale(1 1) rotate(0) translate(4 429.41)">
<title>fr.softsf.canscan.CanScan.buildTitle</title>
<!-- Node1 -->
<g id="Node000001" class="node">
<title>Node1</title>
<g id="a_Node000001"><a xlink:title="Constructs the application window title using metadata from the version properties.">
<polygon fill="#999999" stroke="#666666" points="156.25,-254 0,-254 0,-222 156.25,-222 156.25,-254"/>
<text text-anchor="start" x="8" y="-240.5" font-family="Helvetica,sans-Serif" font-size="10.00">fr.softsf.canscan.CanScan.build</text>
<text text-anchor="middle" x="78.12" y="-228.5" font-family="Helvetica,sans-Serif" font-size="10.00">Title</text>
</a>
</g>
</g>
<!-- Node2 -->
<g id="Node000002" class="node">
<title>Node2</title>
<g id="a_Node000002"><a xlink:href="classfr_1_1softsf_1_1canscan_1_1_can_scan.html#aefe4d08d96fdc7b2097daf4033bbbb9c" target="_top" xlink:title="Loads application metadata from the version.properties file.">
<polygon fill="white" stroke="#666666" points="341.75,-276 192.25,-276 192.25,-244 341.75,-244 341.75,-276"/>
<text text-anchor="start" x="200.25" y="-262.5" font-family="Helvetica,sans-Serif" font-size="10.00">fr.softsf.canscan.CanScan.get</text>
<text text-anchor="middle" x="267" y="-250.5" font-family="Helvetica,sans-Serif" font-size="10.00">ManifestKeys</text>
</a>
</g>
</g>
<!-- Node1&#45;&gt;Node2 -->
<g id="edge1_Node000001_Node000002" class="edge">
<title>Node1&#45;&gt;Node2</title>
<g id="a_edge1_Node000001_Node000002"><a xlink:title=" ">
<path fill="none" stroke="#63b8ff" d="M156.48,-247.11C164.47,-248.05 172.61,-249.01 180.68,-249.96"/>
<polygon fill="#63b8ff" stroke="#63b8ff" points="180.16,-253.42 190.5,-251.11 180.98,-246.47 180.16,-253.42"/>
</a>
</g>
</g>
<!-- Node3 -->
<g id="Node000003" class="node">
<title>Node3</title>
<g id="a_Node000003"><a xlink:href="classfr_1_1softsf_1_1canscan_1_1_can_scan.html#a102bcbc6cda608b642e870ba3fde6344" target="_top" xlink:title="Initializes the CanScan GUI.">
<polygon fill="white" stroke="#666666" points="513.75,-254 377.75,-254 377.75,-222 513.75,-222 513.75,-254"/>
<text text-anchor="start" x="385.75" y="-240.5" font-family="Helvetica,sans-Serif" font-size="10.00">fr.softsf.canscan.CanScan.</text>
<text text-anchor="middle" x="445.75" y="-228.5" font-family="Helvetica,sans-Serif" font-size="10.00">CanScan</text>
</a>
</g>
</g>
<!-- Node2&#45;&gt;Node3 -->
<g id="edge2_Node000002_Node000003" class="edge">
<title>Node2&#45;&gt;Node3</title>
<g id="a_edge2_Node000002_Node000003"><a xlink:title=" ">
<path fill="none" stroke="#63b8ff" d="M342.19,-250.77C350.15,-249.77 358.27,-248.76 366.28,-247.77"/>
<polygon fill="#63b8ff" stroke="#63b8ff" points="366.51,-251.27 376,-246.56 365.65,-244.32 366.51,-251.27"/>
</a>
</g>
</g>
<!-- Node3&#45;&gt;Node1 -->
<g id="edge5_Node000003_Node000001" class="edge">
<title>Node3&#45;&gt;Node1</title>
<g id="a_edge5_Node000003_Node000001"><a xlink:title=" ">
<path fill="none" stroke="#63b8ff" d="M377.44,-235.76C365.55,-235.44 353.29,-235.17 341.75,-235 275.31,-234.03 258.69,-234.12 192.25,-235 184.44,-235.1 176.33,-235.25 168.19,-235.42"/>
<polygon fill="#63b8ff" stroke="#63b8ff" points="168.14,-231.92 158.22,-235.64 168.3,-238.91 168.14,-231.92"/>
</a>
</g>
</g>
<!-- Node3&#45;&gt;Node3 -->
<g id="edge3_Node000003_Node000003" class="edge">
<title>Node3&#45;&gt;Node3</title>
<g id="a_edge3_Node000003_Node000003"><a xlink:title=" ">
<path fill="none" stroke="#63b8ff" d="M413.84,-254.44C407.88,-263.58 418.52,-272 445.75,-272 460.64,-272 470.57,-269.48 475.54,-265.71"/>
<polygon fill="#63b8ff" stroke="#63b8ff" points="478.97,-266.41 477.38,-255.93 472.09,-265.11 478.97,-266.41"/>
</a>
</g>
</g>
<!-- Node4 -->
<g id="Node000004" class="node">
<title>Node4</title>
<g id="a_Node000004"><a xlink:href="classfr_1_1softsf_1_1canscan_1_1_can_scan.html#a2732ecdc4490a717352975e68fce494c" target="_top" xlink:title="Adds a labeled component row to a panel using GridBagLayout.">
<polygon fill="white" stroke="#666666" points="946.25,-386 774.25,-386 774.25,-366 946.25,-366 946.25,-386"/>
<text text-anchor="middle" x="860.25" y="-372.5" font-family="Helvetica,sans-Serif" font-size="10.00">fr.softsf.canscan.CanScan.addRow</text>
</a>
</g>
</g>
<!-- Node3&#45;&gt;Node4 -->
<g id="edge4_Node000003_Node000004" class="edge">
<title>Node3&#45;&gt;Node4</title>
<g id="a_edge4_Node000003_Node000004"><a xlink:title=" ">
<path fill="none" stroke="#63b8ff" d="M451.28,-254.38C461.83,-289 491.7,-369.01 549.75,-401 638.87,-450.11 764.82,-413.21 824.85,-390.43"/>
<polygon fill="#63b8ff" stroke="#63b8ff" points="825.81,-393.82 833.86,-386.92 823.27,-387.29 825.81,-393.82"/>
</a>
</g>
</g>
<!-- Node5 -->
<g id="Node000005" class="node">
<title>Node5</title>
<g id="a_Node000005"><a xlink:href="classfr_1_1softsf_1_1canscan_1_1_can_scan.html#a209f22e1225dc963a2f7bde026af1bf9" target="_top" xlink:title="Opens a color chooser dialog and updates the selected color.">
<polygon fill="white" stroke="#666666" points="727.75,-254 560.25,-254 560.25,-222 727.75,-222 727.75,-254"/>
<text text-anchor="start" x="568.25" y="-240.5" font-family="Helvetica,sans-Serif" font-size="10.00">fr.softsf.canscan.CanScan.choose</text>
<text text-anchor="middle" x="644" y="-228.5" font-family="Helvetica,sans-Serif" font-size="10.00">Color</text>
</a>
</g>
</g>
<!-- Node3&#45;&gt;Node5 -->
<g id="edge6_Node000003_Node000005" class="edge">
<title>Node3&#45;&gt;Node5</title>
<g id="a_edge6_Node000003_Node000005"><a xlink:title=" ">
<path fill="none" stroke="#63b8ff" d="M514.01,-238C525.2,-238 536.98,-238 548.68,-238"/>
<polygon fill="#63b8ff" stroke="#63b8ff" points="548.35,-241.5 558.35,-238 548.35,-234.5 548.35,-241.5"/>
</a>
</g>
</g>
<!-- Node9 -->
<g id="Node000009" class="node">
<title>Node9</title>
<g id="a_Node000009"><a xlink:href="classfr_1_1softsf_1_1canscan_1_1_can_scan.html#aa401982a8aebc5d658e96917e4296d8a" target="_top" xlink:title="Creates a square icon filled with the specified color and a visible border.">
<polygon fill="white" stroke="#666666" points="941.75,-329 778.75,-329 778.75,-297 941.75,-297 941.75,-329"/>
<text text-anchor="start" x="786.75" y="-315.5" font-family="Helvetica,sans-Serif" font-size="10.00">fr.softsf.canscan.CanScan.create</text>
<text text-anchor="middle" x="860.25" y="-303.5" font-family="Helvetica,sans-Serif" font-size="10.00">ColorIcon</text>
</a>
</g>
</g>
<!-- Node3&#45;&gt;Node9 -->
<g id="edge19_Node000003_Node000009" class="edge">
<title>Node3&#45;&gt;Node9</title>
<g id="a_edge19_Node000003_Node000009"><a xlink:title=" ">
<path fill="none" stroke="#63b8ff" d="M511.14,-254.44C523.89,-257.47 537.21,-260.47 549.75,-263 622.45,-277.67 705.45,-290.89 767.18,-300.05"/>
<polygon fill="#63b8ff" stroke="#63b8ff" points="766.56,-303.49 776.96,-301.49 767.58,-296.57 766.56,-303.49"/>
</a>
</g>
</g>
<!-- Node13 -->
<g id="Node000013" class="node">
<title>Node13</title>
<g id="a_Node000013"><a xlink:href="classfr_1_1softsf_1_1canscan_1_1_can_scan.html#a2d26dcd1ae708eae46dba8952351aa1a" target="_top" xlink:title="Builds and returns a QrInput object containing all current user inputs and settings.">
<polygon fill="white" stroke="#666666" points="1354.38,-107 1204.88,-107 1204.88,-75 1354.38,-75 1354.38,-107"/>
<text text-anchor="start" x="1212.88" y="-93.5" font-family="Helvetica,sans-Serif" font-size="10.00">fr.softsf.canscan.CanScan.get</text>
<text text-anchor="middle" x="1279.62" y="-81.5" font-family="Helvetica,sans-Serif" font-size="10.00">QrInput</text>
</a>
</g>
</g>
<!-- Node3&#45;&gt;Node13 -->
<g id="edge20_Node000003_Node000013" class="edge">
<title>Node3&#45;&gt;Node13</title>
<g id="a_edge20_Node000003_Node000013"><a xlink:title=" ">
<path fill="none" stroke="#63b8ff" d="M456.42,-221.74C472.4,-196.49 506.83,-148.31 549.75,-125 757.85,-11.99 1050.69,-45.89 1193.54,-72.41"/>
<polygon fill="#63b8ff" stroke="#63b8ff" points="1192.85,-75.84 1203.33,-74.27 1194.15,-68.97 1192.85,-75.84"/>
</a>
</g>
</g>
<!-- Node18 -->
<g id="Node000018" class="node">
<title>Node18</title>
<g id="a_Node000018"><a xlink:href="classfr_1_1softsf_1_1canscan_1_1_can_scan.html#addd7b7d7f9cc810756dbbb66218414d4" target="_top" xlink:title="Initializes the FREE mode input panel with a multiline text area for arbitrary text or URLs.">
<polygon fill="white" stroke="#666666" points="718.38,-392 569.62,-392 569.62,-360 718.38,-360 718.38,-392"/>
<text text-anchor="start" x="577.62" y="-378.5" font-family="Helvetica,sans-Serif" font-size="10.00">fr.softsf.canscan.CanScan.init</text>
<text text-anchor="middle" x="644" y="-366.5" font-family="Helvetica,sans-Serif" font-size="10.00">FreeCard</text>
</a>
</g>
</g>
<!-- Node3&#45;&gt;Node18 -->
<g id="edge21_Node000003_Node000018" class="edge">
<title>Node3&#45;&gt;Node18</title>
<g id="a_edge21_Node000003_Node000018"><a xlink:title=" ">
<path fill="none" stroke="#63b8ff" d="M456.98,-254.16C473.45,-278.85 508.26,-325.74 549.75,-351 552.73,-352.82 555.85,-354.5 559.05,-356.06"/>
<polygon fill="#63b8ff" stroke="#63b8ff" points="557.59,-359.25 568.16,-360.05 560.4,-352.84 557.59,-359.25"/>
</a>
</g>
</g>
<!-- Node19 -->
<g id="Node000019" class="node">
<title>Node19</title>
<g id="a_Node000019"><a xlink:href="classfr_1_1softsf_1_1canscan_1_1_can_scan.html#a4047170747f52f54ee69ddbc834c5373" target="_top" xlink:title="Sets up automatic QR code preview updates for all input fields and controls.">
<polygon fill="white" stroke="#666666" points="729.62,-204 558.38,-204 558.38,-172 729.62,-172 729.62,-204"/>
<text text-anchor="start" x="566.38" y="-190.5" font-family="Helvetica,sans-Serif" font-size="10.00">fr.softsf.canscan.CanScan.initialize</text>
<text text-anchor="middle" x="644" y="-178.5" font-family="Helvetica,sans-Serif" font-size="10.00">AutomaticQRCodeRendering</text>
</a>
</g>
</g>
<!-- Node3&#45;&gt;Node19 -->
<g id="edge23_Node000003_Node000019" class="edge">
<title>Node3&#45;&gt;Node19</title>
<g id="a_edge23_Node000003_Node000019"><a xlink:title=" ">
<path fill="none" stroke="#63b8ff" d="M511.28,-221.56C529.22,-216.99 548.86,-211.98 567.38,-207.27"/>
<polygon fill="#63b8ff" stroke="#63b8ff" points="568.14,-210.69 576.96,-204.82 566.41,-203.9 568.14,-210.69"/>
</a>
</g>
</g>
<!-- Node21 -->
<g id="Node000021" class="node">
<title>Node21</title>
<g id="a_Node000021"><a xlink:href="classfr_1_1softsf_1_1canscan_1_1_can_scan.html#ab78c47588f2cb82b4395a1268b3c4ca4" target="_top" xlink:title="Initializes the MECARD input panel with labeled text fields for structured contact information.">
<polygon fill="white" stroke="#666666" points="718.38,-342 569.62,-342 569.62,-310 718.38,-310 718.38,-342"/>
<text text-anchor="start" x="577.62" y="-328.5" font-family="Helvetica,sans-Serif" font-size="10.00">fr.softsf.canscan.CanScan.init</text>
<text text-anchor="middle" x="644" y="-316.5" font-family="Helvetica,sans-Serif" font-size="10.00">Mecard</text>
</a>
</g>
</g>
<!-- Node3&#45;&gt;Node21 -->
<g id="edge26_Node000003_Node000021" class="edge">
<title>Node3&#45;&gt;Node21</title>
<g id="a_edge26_Node000003_Node000021"><a xlink:title=" ">
<path fill="none" stroke="#63b8ff" d="M472.25,-254.28C492.65,-266.82 522.3,-284 549.75,-296 557.75,-299.5 566.29,-302.8 574.83,-305.84"/>
<polygon fill="#63b8ff" stroke="#63b8ff" points="573.59,-309.11 584.18,-309.06 575.86,-302.49 573.59,-309.11"/>
</a>
</g>
</g>
<!-- Node22 -->
<g id="Node000022" class="node">
<title>Node22</title>
<g id="a_Node000022"><a xlink:href="classfr_1_1softsf_1_1canscan_1_1_can_scan.html#abbe4fb71ad979d6affed0b2c9629b832" target="_top" xlink:title="Updates the tooltip of the ratio slider to reflect its current value as a percentage.">
<polygon fill="white" stroke="#666666" points="718.75,-41 569.25,-41 569.25,-9 718.75,-9 718.75,-41"/>
<text text-anchor="start" x="577.25" y="-27.5" font-family="Helvetica,sans-Serif" font-size="10.00">fr.softsf.canscan.CanScan.set</text>
<text text-anchor="middle" x="644" y="-15.5" font-family="Helvetica,sans-Serif" font-size="10.00">RatioSliderTooltipValue</text>
</a>
</g>
</g>
<!-- Node3&#45;&gt;Node22 -->
<g id="edge28_Node000003_Node000022" class="edge">
<title>Node3&#45;&gt;Node22</title>
<g id="a_edge28_Node000003_Node000022"><a xlink:title=" ">
<path fill="none" stroke="#63b8ff" d="M451.44,-221.65C462.49,-186.01 493.55,-100.88 549.75,-55 553.63,-51.83 557.86,-48.99 562.3,-46.45"/>
<polygon fill="#63b8ff" stroke="#63b8ff" points="563.63,-49.7 570.95,-42.04 560.46,-43.46 563.63,-49.7"/>
</a>
</g>
</g>
<!-- Node23 -->
<g id="Node000023" class="node">
<title>Node23</title>
<g id="a_Node000023"><a xlink:href="classfr_1_1softsf_1_1canscan_1_1_can_scan.html#a428c742b098fa27d4c8984c1030c238d" target="_top" xlink:title="Switches the application between MECARD and FREE QR code modes.">
<polygon fill="white" stroke="#666666" points="738.25,-154 549.75,-154 549.75,-134 738.25,-134 738.25,-154"/>
<text text-anchor="middle" x="644" y="-140.5" font-family="Helvetica,sans-Serif" font-size="10.00">fr.softsf.canscan.CanScan.switchMode</text>
</a>
</g>
</g>
<!-- Node3&#45;&gt;Node23 -->
<g id="edge29_Node000003_Node000023" class="edge">
<title>Node3&#45;&gt;Node23</title>
<g id="a_edge29_Node000003_Node000023"><a xlink:title=" ">
<path fill="none" stroke="#63b8ff" d="M464.23,-221.57C483.62,-204.3 516.55,-177.63 549.75,-163 554.09,-161.09 558.62,-159.37 563.26,-157.82"/>
<polygon fill="#63b8ff" stroke="#63b8ff" points="564.21,-161.19 572.76,-154.94 562.18,-154.49 564.21,-161.19"/>
</a>
</g>
</g>
<!-- Node6 -->
<g id="Node000006" class="node">
<title>Node6</title>
<g id="a_Node000006"><a xlink:href="classfr_1_1softsf_1_1canscan_1_1_can_scan.html#a224c283143d84ebcfbce9d0058bd93aa" target="_top" xlink:title="Converts a Color object to its hexadecimal RGB string representation.">
<polygon fill="white" stroke="#666666" points="938.75,-279 781.75,-279 781.75,-247 938.75,-247 938.75,-279"/>
<text text-anchor="start" x="789.75" y="-265.5" font-family="Helvetica,sans-Serif" font-size="10.00">fr.softsf.canscan.CanScan.color</text>
<text text-anchor="middle" x="860.25" y="-253.5" font-family="Helvetica,sans-Serif" font-size="10.00">ToHex</text>
</a>
</g>
</g>
<!-- Node5&#45;&gt;Node6 -->
<g id="edge7_Node000005_Node000006" class="edge">
<title>Node5&#45;&gt;Node6</title>
<g id="a_edge7_Node000005_Node000006"><a xlink:title=" ">
<path fill="none" stroke="#63b8ff" d="M728.14,-247.7C741.97,-249.32 756.36,-250.99 770.33,-252.62"/>
<polygon fill="#63b8ff" stroke="#63b8ff" points="769.58,-256.06 779.92,-253.74 770.39,-249.11 769.58,-256.06"/>
</a>
</g>
</g>
<!-- Node5&#45;&gt;Node9 -->
<g id="edge10_Node000005_Node000009" class="edge">
<title>Node5&#45;&gt;Node9</title>
<g id="a_edge10_Node000005_Node000009"><a xlink:title=" ">
<path fill="none" stroke="#63b8ff" d="M701.87,-254.34C714.04,-258.37 726.7,-262.99 738.25,-268 755.04,-275.28 757.37,-280.93 774.25,-288 778.28,-289.69 782.47,-291.31 786.73,-292.86"/>
<polygon fill="#63b8ff" stroke="#63b8ff" points="785.38,-296.1 795.97,-296.07 787.67,-289.48 785.38,-296.1"/>
</a>
</g>
</g>
<!-- Node10 -->
<g id="Node000010" class="node">
<title>Node10</title>
<g id="a_Node000010"><a xlink:href="classfr_1_1softsf_1_1canscan_1_1_can_scan.html#a9ac2e28615c970404a4408245e62a6fc" target="_top" xlink:title="Schedules a debounced QR code preview update based on the current input and settings.">
<polygon fill="white" stroke="#666666" points="942.88,-179 777.62,-179 777.62,-147 942.88,-147 942.88,-179"/>
<text text-anchor="start" x="785.62" y="-165.5" font-family="Helvetica,sans-Serif" font-size="10.00">fr.softsf.canscan.CanScan.update</text>
<text text-anchor="middle" x="860.25" y="-153.5" font-family="Helvetica,sans-Serif" font-size="10.00">PreviewQRCode</text>
</a>
</g>
</g>
<!-- Node5&#45;&gt;Node10 -->
<g id="edge11_Node000005_Node000010" class="edge">
<title>Node5&#45;&gt;Node10</title>
<g id="a_edge11_Node000005_Node000010"><a xlink:title=" ">
<path fill="none" stroke="#63b8ff" d="M716.68,-221.52C724.09,-219.01 731.41,-216.17 738.25,-213 755.92,-204.8 756.68,-196.41 774.25,-188 777.58,-186.41 781.03,-184.89 784.56,-183.45"/>
<polygon fill="#63b8ff" stroke="#63b8ff" points="785.76,-186.74 793.87,-179.92 783.28,-180.2 785.76,-186.74"/>
</a>
</g>
</g>
<!-- Node7 -->
<g id="Node000007" class="node">
<title>Node7</title>
<g id="a_Node000007"><a xlink:href="enumfr_1_1softsf_1_1canscan_1_1util_1_1_checker.html#a38aa8db97b16480c728481f1835da11f" target="_top" xlink:title="Checks if the given object is null in a static context and displays an error dialog if so.">
<polygon fill="white" stroke="#666666" points="1156.5,-279 982.25,-279 982.25,-247 1156.5,-247 1156.5,-279"/>
<text text-anchor="start" x="990.25" y="-265.5" font-family="Helvetica,sans-Serif" font-size="10.00">fr.softsf.canscan.util.Checker.check</text>
<text text-anchor="middle" x="1069.38" y="-253.5" font-family="Helvetica,sans-Serif" font-size="10.00">StaticNPE</text>
</a>
</g>
</g>
<!-- Node6&#45;&gt;Node7 -->
<g id="edge8_Node000006_Node000007" class="edge">
<title>Node6&#45;&gt;Node7</title>
<g id="a_edge8_Node000006_Node000007"><a xlink:title=" ">
<path fill="none" stroke="#63b8ff" d="M938.96,-263C949.25,-263 959.9,-263 970.47,-263"/>
<polygon fill="#63b8ff" stroke="#63b8ff" points="970.37,-266.5 980.37,-263 970.37,-259.5 970.37,-266.5"/>
</a>
</g>
</g>
<!-- Node8 -->
<g id="Node000008" class="node">
<title>Node8</title>
<g id="a_Node000008"><a xlink:href="enumfr_1_1softsf_1_1canscan_1_1util_1_1_checker.html#af3fc9dd2a33f4d12c5db8cf2aeea17d7" target="_top" xlink:title="Validates that the given object is non&#45;null and, if a String, not blank.">
<polygon fill="white" stroke="#666666" points="1366.75,-279 1192.5,-279 1192.5,-247 1366.75,-247 1366.75,-279"/>
<text text-anchor="start" x="1200.5" y="-265.5" font-family="Helvetica,sans-Serif" font-size="10.00">fr.softsf.canscan.util.Checker.check</text>
<text text-anchor="middle" x="1279.62" y="-253.5" font-family="Helvetica,sans-Serif" font-size="10.00">NullOrBlankInternal</text>
</a>
</g>
</g>
<!-- Node7&#45;&gt;Node8 -->
<g id="edge9_Node000007_Node000008" class="edge">
<title>Node7&#45;&gt;Node8</title>
<g id="a_edge9_Node000007_Node000008"><a xlink:title=" ">
<path fill="none" stroke="#63b8ff" d="M1156.88,-263C1164.78,-263 1172.82,-263 1180.81,-263"/>
<polygon fill="#63b8ff" stroke="#63b8ff" points="1180.54,-266.5 1190.54,-263 1180.54,-259.5 1180.54,-266.5"/>
</a>
</g>
</g>
<!-- Node11 -->
<g id="Node000011" class="node">
<title>Node11</title>
<g id="a_Node000011"><a xlink:href="classfr_1_1softsf_1_1canscan_1_1_can_scan.html#aba5b2671745886284c444b8e3bec80e2" target="_top" xlink:title="Frees the QR code image and its label icon to release memory.">
<polygon fill="white" stroke="#666666" points="1145.62,-179 993.12,-179 993.12,-147 1145.62,-147 1145.62,-179"/>
<text text-anchor="start" x="1001.12" y="-165.5" font-family="Helvetica,sans-Serif" font-size="10.00">fr.softsf.canscan.CanScan.free</text>
<text text-anchor="middle" x="1069.38" y="-153.5" font-family="Helvetica,sans-Serif" font-size="10.00">QrOriginalAndQrCodeLabel</text>
</a>
</g>
</g>
<!-- Node10&#45;&gt;Node11 -->
<g id="edge12_Node000010_Node000011" class="edge">
<title>Node10&#45;&gt;Node11</title>
<g id="a_edge12_Node000010_Node000011"><a xlink:title=" ">
<path fill="none" stroke="#63b8ff" d="M943.11,-163C955.66,-163 968.66,-163 981.32,-163"/>
<polygon fill="#63b8ff" stroke="#63b8ff" points="981.32,-166.5 991.32,-163 981.32,-159.5 981.32,-166.5"/>
</a>
</g>
</g>
<!-- Node12 -->
<g id="Node000012" class="node">
<title>Node12</title>
<g id="a_Node000012"><a xlink:href="classfr_1_1softsf_1_1canscan_1_1_can_scan.html#a42d6a5e11bc8f147bed036366316564f" target="_top" xlink:title="Clears the current QR code display and starts a background worker to generate a new preview.">
<polygon fill="white" stroke="#666666" points="1148.25,-129 990.5,-129 990.5,-97 1148.25,-97 1148.25,-129"/>
<text text-anchor="start" x="998.5" y="-115.5" font-family="Helvetica,sans-Serif" font-size="10.00">fr.softsf.canscan.CanScan.reset</text>
<text text-anchor="middle" x="1069.38" y="-103.5" font-family="Helvetica,sans-Serif" font-size="10.00">AndStartPreviewWorker</text>
</a>
</g>
</g>
<!-- Node10&#45;&gt;Node12 -->
<g id="edge13_Node000010_Node000012" class="edge">
<title>Node10&#45;&gt;Node12</title>
<g id="a_edge13_Node000010_Node000012"><a xlink:title=" ">
<path fill="none" stroke="#63b8ff" d="M929.36,-146.56C948.47,-141.95 969.41,-136.89 989.11,-132.13"/>
<polygon fill="#63b8ff" stroke="#63b8ff" points="989.86,-135.56 998.76,-129.81 988.21,-128.75 989.86,-135.56"/>
</a>
</g>
</g>
<!-- Node12&#45;&gt;Node13 -->
<g id="edge14_Node000012_Node000013" class="edge">
<title>Node12&#45;&gt;Node13</title>
<g id="a_edge14_Node000012_Node000013"><a xlink:title=" ">
<path fill="none" stroke="#63b8ff" d="M1148.51,-104.75C1163.14,-103.2 1178.49,-101.58 1193.32,-100.01"/>
<polygon fill="#63b8ff" stroke="#63b8ff" points="1193.45,-103.52 1203.03,-98.99 1192.71,-96.56 1193.45,-103.52"/>
</a>
</g>
</g>
<!-- Node14 -->
<g id="Node000014" class="node">
<title>Node14</title>
<g id="a_Node000014"><a xlink:href="classfr_1_1softsf_1_1canscan_1_1_can_scan.html#a22606ca129489c778fbbe17cb8b70697" target="_top" xlink:title="Calculates the available height for QR code rendering.">
<polygon fill="white" stroke="#666666" points="1577.75,-182 1402.75,-182 1402.75,-150 1577.75,-150 1577.75,-182"/>
<text text-anchor="start" x="1410.75" y="-168.5" font-family="Helvetica,sans-Serif" font-size="10.00">fr.softsf.canscan.CanScan.calculate</text>
<text text-anchor="middle" x="1490.25" y="-156.5" font-family="Helvetica,sans-Serif" font-size="10.00">AvailableQrHeight</text>
</a>
</g>
</g>
<!-- Node13&#45;&gt;Node14 -->
<g id="edge15_Node000013_Node000014" class="edge">
<title>Node13&#45;&gt;Node14</title>
<g id="a_edge15_Node000013_Node000014"><a xlink:title=" ">
<path fill="none" stroke="#63b8ff" d="M1317.91,-107.48C1341.89,-117.78 1373.86,-130.95 1402.75,-141 1407.83,-142.77 1413.12,-144.52 1418.45,-146.21"/>
<polygon fill="#63b8ff" stroke="#63b8ff" points="1417.39,-149.55 1427.98,-149.17 1419.47,-142.86 1417.39,-149.55"/>
</a>
</g>
</g>
<!-- Node15 -->
<g id="Node000015" class="node">
<title>Node15</title>
<g id="a_Node000015"><a xlink:href="classfr_1_1softsf_1_1canscan_1_1_can_scan.html#a4e67b1b5c764e72414a5c0f387810f5c" target="_top" xlink:title="Validates and returns the current QR code margin from the margin slider.">
<polygon fill="white" stroke="#666666" points="1575.12,-132 1405.38,-132 1405.38,-100 1575.12,-100 1575.12,-132"/>
<text text-anchor="start" x="1413.38" y="-118.5" font-family="Helvetica,sans-Serif" font-size="10.00">fr.softsf.canscan.CanScan.validate</text>
<text text-anchor="middle" x="1490.25" y="-106.5" font-family="Helvetica,sans-Serif" font-size="10.00">AndGetMargin</text>
</a>
</g>
</g>
<!-- Node13&#45;&gt;Node15 -->
<g id="edge16_Node000013_Node000015" class="edge">
<title>Node13&#45;&gt;Node15</title>
<g id="a_edge16_Node000013_Node000015"><a xlink:title=" ">
<path fill="none" stroke="#63b8ff" d="M1354.77,-99.88C1367.36,-101.39 1380.59,-102.98 1393.64,-104.54"/>
<polygon fill="#63b8ff" stroke="#63b8ff" points="1393.19,-108.01 1403.54,-105.73 1394.02,-101.06 1393.19,-108.01"/>
</a>
</g>
</g>
<!-- Node16 -->
<g id="Node000016" class="node">
<title>Node16</title>
<g id="a_Node000016"><a xlink:href="classfr_1_1softsf_1_1canscan_1_1_can_scan.html#a9e8188875168199cde065113ae2a393d" target="_top" xlink:title="Validates and returns the current image&#45;to&#45;QR ratio from the ratio slider.">
<polygon fill="white" stroke="#666666" points="1575.12,-82 1405.38,-82 1405.38,-50 1575.12,-50 1575.12,-82"/>
<text text-anchor="start" x="1413.38" y="-68.5" font-family="Helvetica,sans-Serif" font-size="10.00">fr.softsf.canscan.CanScan.validate</text>
<text text-anchor="middle" x="1490.25" y="-56.5" font-family="Helvetica,sans-Serif" font-size="10.00">AndGetRatio</text>
</a>
</g>
</g>
<!-- Node13&#45;&gt;Node16 -->
<g id="edge17_Node000013_Node000016" class="edge">
<title>Node13&#45;&gt;Node16</title>
<g id="a_edge17_Node000013_Node000016"><a xlink:title=" ">
<path fill="none" stroke="#63b8ff" d="M1354.77,-82.12C1367.36,-80.61 1380.59,-79.02 1393.64,-77.46"/>
<polygon fill="#63b8ff" stroke="#63b8ff" points="1394.02,-80.94 1403.54,-76.27 1393.19,-73.99 1394.02,-80.94"/>
</a>
</g>
</g>
<!-- Node17 -->
<g id="Node000017" class="node">
<title>Node17</title>
<g id="a_Node000017"><a xlink:href="classfr_1_1softsf_1_1canscan_1_1_can_scan.html#a6d139bb8d0a3c7081096c8956189b684" target="_top" xlink:title="Validates and returns the QR code size from the corresponding text field.">
<polygon fill="white" stroke="#666666" points="1575.12,-32 1405.38,-32 1405.38,0 1575.12,0 1575.12,-32"/>
<text text-anchor="start" x="1413.38" y="-18.5" font-family="Helvetica,sans-Serif" font-size="10.00">fr.softsf.canscan.CanScan.validate</text>
<text text-anchor="middle" x="1490.25" y="-6.5" font-family="Helvetica,sans-Serif" font-size="10.00">AndGetSize</text>
</a>
</g>
</g>
<!-- Node13&#45;&gt;Node17 -->
<g id="edge18_Node000013_Node000017" class="edge">
<title>Node13&#45;&gt;Node17</title>
<g id="a_edge18_Node000013_Node000017"><a xlink:title=" ">
<path fill="none" stroke="#63b8ff" d="M1317.91,-74.52C1341.89,-64.22 1373.86,-51.05 1402.75,-41 1407.83,-39.23 1413.12,-37.48 1418.45,-35.79"/>
<polygon fill="#63b8ff" stroke="#63b8ff" points="1419.47,-39.14 1427.98,-32.83 1417.39,-32.45 1419.47,-39.14"/>
</a>
</g>
</g>
<!-- Node18&#45;&gt;Node4 -->
<g id="edge22_Node000018_Node000004" class="edge">
<title>Node18&#45;&gt;Node4</title>
<g id="a_edge22_Node000018_Node000004"><a xlink:title=" ">
<path fill="none" stroke="#63b8ff" d="M718.73,-376C732.91,-376 747.96,-376 762.73,-376"/>
<polygon fill="#63b8ff" stroke="#63b8ff" points="762.45,-379.5 772.45,-376 762.45,-372.5 762.45,-379.5"/>
</a>
</g>
</g>
<!-- Node19&#45;&gt;Node10 -->
<g id="edge25_Node000019_Node000010" class="edge">
<title>Node19&#45;&gt;Node10</title>
<g id="a_edge25_Node000019_Node000010"><a xlink:title=" ">
<path fill="none" stroke="#63b8ff" d="M729.98,-178.08C741.76,-176.71 753.91,-175.29 765.83,-173.9"/>
<polygon fill="#63b8ff" stroke="#63b8ff" points="766.13,-177.39 775.66,-172.75 765.32,-170.44 766.13,-177.39"/>
</a>
</g>
</g>
<!-- Node20 -->
<g id="Node000020" class="node">
<title>Node20</title>
<g id="a_Node000020"><a xlink:href="classfr_1_1softsf_1_1canscan_1_1_can_scan.html#a9856545d05ef553c8dfddd95a850a360" target="_top" xlink:title="Creates a minimal DocumentListener that executes the given action on any document change.">
<polygon fill="white" stroke="#666666" points="942.5,-229 778,-229 778,-197 942.5,-197 942.5,-229"/>
<text text-anchor="start" x="786" y="-215.5" font-family="Helvetica,sans-Serif" font-size="10.00">fr.softsf.canscan.CanScan.simple</text>
<text text-anchor="middle" x="860.25" y="-203.5" font-family="Helvetica,sans-Serif" font-size="10.00">DocumentListener</text>
</a>
</g>
</g>
<!-- Node19&#45;&gt;Node20 -->
<g id="edge24_Node000019_Node000020" class="edge">
<title>Node19&#45;&gt;Node20</title>
<g id="a_edge24_Node000019_Node000020"><a xlink:title=" ">
<path fill="none" stroke="#63b8ff" d="M729.98,-197.92C741.85,-199.3 754.09,-200.73 766.1,-202.13"/>
<polygon fill="#63b8ff" stroke="#63b8ff" points="765.67,-205.6 776.01,-203.29 766.48,-198.65 765.67,-205.6"/>
</a>
</g>
</g>
<!-- Node21&#45;&gt;Node4 -->
<g id="edge27_Node000021_Node000004" class="edge">
<title>Node21&#45;&gt;Node4</title>
<g id="a_edge27_Node000021_Node000004"><a xlink:title=" ">
<path fill="none" stroke="#63b8ff" d="M715.45,-342.44C743.94,-349.09 776.37,-356.66 803.22,-362.92"/>
<polygon fill="#63b8ff" stroke="#63b8ff" points="802.34,-366.31 812.88,-365.18 803.93,-359.5 802.34,-366.31"/>
</a>
</g>
</g>
<!-- Node23&#45;&gt;Node10 -->
<g id="edge31_Node000023_Node000010" class="edge">
<title>Node23&#45;&gt;Node10</title>
<g id="a_edge31_Node000023_Node000010"><a xlink:title=" ">
<path fill="none" stroke="#63b8ff" d="M738.66,-152.31C747.69,-153.11 756.84,-153.92 765.87,-154.72"/>
<polygon fill="#63b8ff" stroke="#63b8ff" points="765.43,-158.19 775.7,-155.59 766.04,-151.22 765.43,-158.19"/>
</a>
</g>
</g>
<!-- Node24 -->
<g id="Node000024" class="node">
<title>Node24</title>
<g id="a_Node000024"><a xlink:href="enumfr_1_1softsf_1_1canscan_1_1model_1_1_mode.html#a16a898a11ca939056bd7b275f11ea54c" target="_top" xlink:title="Returns the name of the mode as a string.">
<polygon fill="white" stroke="#666666" points="921.12,-129 799.38,-129 799.38,-97 921.12,-97 921.12,-129"/>
<text text-anchor="start" x="807.38" y="-115.5" font-family="Helvetica,sans-Serif" font-size="10.00">fr.softsf.canscan.model.</text>
<text text-anchor="middle" x="860.25" y="-103.5" font-family="Helvetica,sans-Serif" font-size="10.00">Mode.text</text>
</a>
</g>
</g>
<!-- Node23&#45;&gt;Node24 -->
<g id="edge30_Node000023_Node000024" class="edge">
<title>Node23&#45;&gt;Node24</title>
<g id="a_edge30_Node000023_Node000024"><a xlink:title=" ">
<path fill="none" stroke="#63b8ff" d="M717.54,-133.5C740.17,-130.23 765.12,-126.62 787.7,-123.35"/>
<polygon fill="#63b8ff" stroke="#63b8ff" points="788.02,-126.84 797.41,-121.95 787.01,-119.92 788.02,-126.84"/>
</a>
</g>
</g>
</g>
</svg>
