<?xml version="1.0" encoding="UTF-8" standalone="no"?>
<!DOCTYPE svg PUBLIC "-//W3C//DTD SVG 1.1//EN"
 "http://www.w3.org/Graphics/SVG/1.1/DTD/svg11.dtd">
<!-- Generated by graphviz version 12.2.1 (20241206.2353)
 -->
<!-- Title: fr.softsf.canscan.ui.EncodedImage.drawModules Pages: 1 -->
<!--zoomable 140 -->

<svg id="main" version="1.1" xmlns="http://www.w3.org/2000/svg" xmlns:xlink="http://www.w3.org/1999/xlink" xml:space="preserve" onload="init(evt)">

<style type="text/css"><![CDATA[
.node, .edge {opacity: 0.7;}
.node.selected, .edge.selected {opacity: 1;}
.edge:hover path { stroke: red; }
.edge:hover polygon { stroke: red; fill: red; }
]]></style>

<defs>
  <circle id="rim" cx="0" cy="0" r="7"/>
  <circle id="rim2" cx="0" cy="0" r="3.5"/>
  <g id="zoomPlus">
    <use xlink:href="#rim" fill="#404040"><set attributeName="fill" to="#808080" begin="zoomplus.mouseover" end="zoomplus.mouseout"/></use>
    <path d="M-4,0h8M0,-4v8" fill="none" stroke="white" stroke-width="1.5" pointer-events="none"/>
  </g>
  <g id="zoomMin">
    <use xlink:href="#rim" fill="#404040"><set attributeName="fill" to="#808080" begin="zoomminus.mouseover" end="zoomminus.mouseout"/></use>
    <path d="M-4,0h8" fill="none" stroke="white" stroke-width="1.5" pointer-events="none"/>
  </g>
  <g id="arrowUp" transform="translate(30 24)">
    <use xlink:href="#rim"/>
    <path pointer-events="none" fill="none" stroke="white" stroke-width="1.5" d="M0,-3.0v7 M-2.5,-0.5L0,-3.0L2.5,-0.5"/>
  </g>
  <g id="arrowRight" transform="rotate(90) translate(36 -43)">
    <use xlink:href="#rim"/>
    <path pointer-events="none" fill="none" stroke="white" stroke-width="1.5" d="M0,-3.0v7 M-2.5,-0.5L0,-3.0L2.5,-0.5"/>
  </g>
  <g id="arrowDown" transform="rotate(180) translate(-30 -48)">
    <use xlink:href="#rim"/>
    <path pointer-events="none" fill="none" stroke="white" stroke-width="1.5" d="M0,-3.0v7 M-2.5,-0.5L0,-3.0L2.5,-0.5"/>
  </g>
  <g id="arrowLeft" transform="rotate(270) translate(-36 17)">
    <use xlink:href="#rim"/>
    <path pointer-events="none" fill="none" stroke="white" stroke-width="1.5" d="M0,-3.0v7 M-2.5,-0.5L0,-3.0L2.5,-0.5"/>
  </g>
  <g id="resetDef">
    <use xlink:href="#rim2" fill="#404040"><set attributeName="fill" to="#808080" begin="reset.mouseover" end="reset.mouseout"/></use>
  </g>
</defs>
<script type="application/ecmascript">
var viewWidth = 681;
var viewHeight = 140;
var sectionId = 'dynsection-2';
</script>
<script type="application/ecmascript" xlink:href="svg.min.js"/>
<svg id="graph" class="graph">
<g id="viewport">
<title>fr.softsf.canscan.ui.EncodedImage.drawModules</title>
<!-- Node1 -->
<g id="Node000001" class="node">
<title>Node1</title>
<g id="a_Node000001"><a xlink:title="Renders all QR code modules onto the provided graphics context.">
<polygon fill="#999999" stroke="#666666" points="141.25,-107 0,-107 0,-75 141.25,-75 141.25,-107"/>
<text text-anchor="start" x="8" y="-93.5" font-family="Helvetica,sans-Serif" font-size="10.00">fr.softsf.canscan.ui.Encoded</text>
<text text-anchor="middle" x="70.62" y="-81.5" font-family="Helvetica,sans-Serif" font-size="10.00">Image.drawModules</text>
</a>
</g>
</g>
<!-- Node2 -->
<g id="Node000002" class="node">
<title>Node2</title>
<g id="a_Node000002"><a xlink:href="classfr_1_1softsf_1_1canscan_1_1ui_1_1_encoded_image.html#a39d00e8741eea56385de5b2401cea25e" target="_top" xlink:title="Draws a single QR code module at the specified coordinates with configured size and shape.">
<polygon fill="white" stroke="#666666" points="318.5,-132 177.25,-132 177.25,-100 318.5,-100 318.5,-132"/>
<text text-anchor="start" x="185.25" y="-118.5" font-family="Helvetica,sans-Serif" font-size="10.00">fr.softsf.canscan.ui.Encoded</text>
<text text-anchor="middle" x="247.88" y="-106.5" font-family="Helvetica,sans-Serif" font-size="10.00">Image.drawModule</text>
</a>
</g>
</g>
<!-- Node1&#45;&gt;Node2 -->
<g id="edge1_Node000001_Node000002" class="edge">
<title>Node1&#45;&gt;Node2</title>
<g id="a_edge1_Node000001_Node000002"><a xlink:title=" ">
<path fill="none" stroke="#63b8ff" d="M141.64,-100.99C149.55,-102.12 157.65,-103.27 165.69,-104.42"/>
<polygon fill="#63b8ff" stroke="#63b8ff" points="165.07,-107.87 175.47,-105.81 166.06,-100.94 165.07,-107.87"/>
</a>
</g>
</g>
<!-- Node3 -->
<g id="Node000003" class="node">
<title>Node3</title>
<g id="a_Node000003"><a xlink:href="classfr_1_1softsf_1_1canscan_1_1ui_1_1_encoded_image.html#a0a54994d696c706a8bf3e6dfc9c7eb5e" target="_top" xlink:title="Determines whether a QR code module should be skipped during rendering.">
<polygon fill="white" stroke="#666666" points="318.5,-82 177.25,-82 177.25,-50 318.5,-50 318.5,-82"/>
<text text-anchor="start" x="185.25" y="-68.5" font-family="Helvetica,sans-Serif" font-size="10.00">fr.softsf.canscan.ui.Encoded</text>
<text text-anchor="middle" x="247.88" y="-56.5" font-family="Helvetica,sans-Serif" font-size="10.00">Image.shouldSkipModule</text>
</a>
</g>
</g>
<!-- Node1&#45;&gt;Node3 -->
<g id="edge2_Node000001_Node000003" class="edge">
<title>Node1&#45;&gt;Node3</title>
<g id="a_edge2_Node000001_Node000003"><a xlink:title=" ">
<path fill="none" stroke="#63b8ff" d="M141.64,-81.01C149.55,-79.88 157.65,-78.73 165.69,-77.58"/>
<polygon fill="#63b8ff" stroke="#63b8ff" points="166.06,-81.06 175.47,-76.19 165.07,-74.13 166.06,-81.06"/>
</a>
</g>
</g>
<!-- Node4 -->
<g id="Node000004" class="node">
<title>Node4</title>
<g id="a_Node000004"><a xlink:href="classfr_1_1softsf_1_1canscan_1_1ui_1_1_encoded_image.html#ac5ca4991b2826e1655e2f4afe5f2659f" target="_top" xlink:title="Determines whether the given coordinates fall within any of the three QR code position patterns.">
<polygon fill="white" stroke="#666666" points="495.75,-82 354.5,-82 354.5,-50 495.75,-50 495.75,-82"/>
<text text-anchor="start" x="362.5" y="-68.5" font-family="Helvetica,sans-Serif" font-size="10.00">fr.softsf.canscan.ui.Encoded</text>
<text text-anchor="middle" x="425.12" y="-56.5" font-family="Helvetica,sans-Serif" font-size="10.00">Image.isInPositionPattern</text>
</a>
</g>
</g>
<!-- Node3&#45;&gt;Node4 -->
<g id="edge3_Node000003_Node000004" class="edge">
<title>Node3&#45;&gt;Node4</title>
<g id="a_edge3_Node000003_Node000004"><a xlink:title=" ">
<path fill="none" stroke="#63b8ff" d="M318.89,-66C326.8,-66 334.9,-66 342.94,-66"/>
<polygon fill="#63b8ff" stroke="#63b8ff" points="342.7,-69.5 352.7,-66 342.7,-62.5 342.7,-69.5"/>
</a>
</g>
</g>
<!-- Node5 -->
<g id="Node000005" class="node">
<title>Node5</title>
<g id="a_Node000005"><a xlink:href="classfr_1_1softsf_1_1canscan_1_1ui_1_1_encoded_image.html#a08c22c703968017fdad5423b34113bb1" target="_top" xlink:title="Checks if coordinates are within the bottom&#45;left position pattern.">
<polygon fill="white" stroke="#666666" points="673,-132 531.75,-132 531.75,-100 673,-100 673,-132"/>
<text text-anchor="start" x="539.75" y="-118.5" font-family="Helvetica,sans-Serif" font-size="10.00">fr.softsf.canscan.ui.Encoded</text>
<text text-anchor="middle" x="602.38" y="-106.5" font-family="Helvetica,sans-Serif" font-size="10.00">Image.isInBottomLeftPattern</text>
</a>
</g>
</g>
<!-- Node4&#45;&gt;Node5 -->
<g id="edge4_Node000004_Node000005" class="edge">
<title>Node4&#45;&gt;Node5</title>
<g id="a_edge4_Node000004_Node000005"><a xlink:title=" ">
<path fill="none" stroke="#63b8ff" d="M483.51,-82.37C499.16,-86.84 516.28,-91.72 532.51,-96.35"/>
<polygon fill="#63b8ff" stroke="#63b8ff" points="531.53,-99.71 542.11,-99.09 533.45,-92.98 531.53,-99.71"/>
</a>
</g>
</g>
<!-- Node6 -->
<g id="Node000006" class="node">
<title>Node6</title>
<g id="a_Node000006"><a xlink:href="classfr_1_1softsf_1_1canscan_1_1ui_1_1_encoded_image.html#a42b974304eab8bbf970c930aadf1c8cd" target="_top" xlink:title="Checks if coordinates are within the top&#45;left position pattern.">
<polygon fill="white" stroke="#666666" points="673,-82 531.75,-82 531.75,-50 673,-50 673,-82"/>
<text text-anchor="start" x="539.75" y="-68.5" font-family="Helvetica,sans-Serif" font-size="10.00">fr.softsf.canscan.ui.Encoded</text>
<text text-anchor="middle" x="602.38" y="-56.5" font-family="Helvetica,sans-Serif" font-size="10.00">Image.isInTopLeftPattern</text>
</a>
</g>
</g>
<!-- Node4&#45;&gt;Node6 -->
<g id="edge5_Node000004_Node000006" class="edge">
<title>Node4&#45;&gt;Node6</title>
<g id="a_edge5_Node000004_Node000006"><a xlink:title=" ">
<path fill="none" stroke="#63b8ff" d="M496.14,-66C504.05,-66 512.15,-66 520.19,-66"/>
<polygon fill="#63b8ff" stroke="#63b8ff" points="519.95,-69.5 529.95,-66 519.95,-62.5 519.95,-69.5"/>
</a>
</g>
</g>
<!-- Node7 -->
<g id="Node000007" class="node">
<title>Node7</title>
<g id="a_Node000007"><a xlink:href="classfr_1_1softsf_1_1canscan_1_1ui_1_1_encoded_image.html#a0f2ff4874795b0ea498b4840b1f0b14c" target="_top" xlink:title="Checks if coordinates are within the top&#45;right position pattern.">
<polygon fill="white" stroke="#666666" points="673,-32 531.75,-32 531.75,0 673,0 673,-32"/>
<text text-anchor="start" x="539.75" y="-18.5" font-family="Helvetica,sans-Serif" font-size="10.00">fr.softsf.canscan.ui.Encoded</text>
<text text-anchor="middle" x="602.38" y="-6.5" font-family="Helvetica,sans-Serif" font-size="10.00">Image.isInTopRightPattern</text>
</a>
</g>
</g>
<!-- Node4&#45;&gt;Node7 -->
<g id="edge6_Node000004_Node000007" class="edge">
<title>Node4&#45;&gt;Node7</title>
<g id="a_edge6_Node000004_Node000007"><a xlink:title=" ">
<path fill="none" stroke="#63b8ff" d="M483.51,-49.63C499.16,-45.16 516.28,-40.28 532.51,-35.65"/>
<polygon fill="#63b8ff" stroke="#63b8ff" points="533.45,-39.02 542.11,-32.91 531.53,-32.29 533.45,-39.02"/>
</a>
</g>
</g>
</g>
</svg>

<g id="navigator" transform="translate(0 0)" fill="#404254">
  <rect fill="#f2f5e9" fill-opacity="0.5" stroke="#606060" stroke-width=".5" x="0" y="0" width="60" height="60"/>
  <use id="zoomplus" xlink:href="#zoomPlus" x="17" y="9" onmousedown="handleZoom(evt,'in')"/>
  <use id="zoomminus" xlink:href="#zoomMin" x="42" y="9" onmousedown="handleZoom(evt,'out')"/>
  <use id="reset" xlink:href="#resetDef" x="30" y="36" onmousedown="handleReset()"/>
   <use id="arrowup" xlink:href="#arrowUp" x="0" y="0" onmousedown="handlePan(0,-1)"/>
  <use id="arrowright" xlink:href="#arrowRight" x="0" y="0" onmousedown="handlePan(1,0)"/>
  <use id="arrowdown" xlink:href="#arrowDown" x="0" y="0" onmousedown="handlePan(0,1)"/>
  <use id="arrowleft" xlink:href="#arrowLeft" x="0" y="0" onmousedown="handlePan(-1,0)"/>
</g>
<svg viewBox="0 0 15 15" width="100%" height="30px" preserveAspectRatio="xMaxYMin meet">
 <g id="arrow_out" transform="scale(0.3 0.3)">
  <a xlink:href="classfr_1_1softsf_1_1canscan_1_1ui_1_1_encoded_image_aa8ff2803efd64fa8cfbbf2aaff43bacb_cgraph_org.svg" target="_base">
   <rect id="button" ry="5" rx="5" y="6" x="6" height="38" width="38"
        fill="#f2f5e9" fill-opacity="0.5" stroke="#606060" stroke-width="1.0"/>
   <path id="arrow"
     d="M 11.500037,31.436501 C 11.940474,20.09759 22.043105,11.32322 32.158766,21.979434 L 37.068811,17.246167 C 37.068811,17.246167 37.088388,32 37.088388,32 L 22.160133,31.978069 C 22.160133,31.978069 26.997745,27.140456 26.997745,27.140456 C 18.528582,18.264221 13.291696,25.230495 11.500037,31.436501 z"
     style="fill:#404040;"/>
  </a>
 </g>
</svg>

<style type='text/css'>
<![CDATA[
[data-mouse-over-selected='false'] { opacity: 0.7; }
[data-mouse-over-selected='true']  { opacity: 1.0; }
]]>
</style>
<script type="application/ecmascript"><![CDATA[
document.addEventListener('DOMContentLoaded', (event) => {
  highlightEdges();
  highlightAdjacentNodes();
});
]]></script>
</svg>
