<?xml version="1.0" encoding="UTF-8" standalone="no"?>
<!DOCTYPE svg PUBLIC "-//W3C//DTD SVG 1.1//EN"
 "http://www.w3.org/Graphics/SVG/1.1/DTD/svg11.dtd">
<!-- Generated by graphviz version 12.2.1 (20241206.2353)
 -->
<!-- Title: fr.softsf.canscan.CanScan.CanScan Pages: 1 -->
<svg width="1223pt" height="500pt"
 viewBox="0.00 0.00 1223.00 500.00" xmlns="http://www.w3.org/2000/svg" xmlns:xlink="http://www.w3.org/1999/xlink">
<g id="graph0" class="graph" transform="scale(1 1) rotate(0) translate(4 496)">
<title>fr.softsf.canscan.CanScan.CanScan</title>
<!-- Node1 -->
<g id="Node000001" class="node">
<title>Node1</title>
<g id="a_Node000001"><a xlink:title="Constructs the CanScan GUI, setting up layout, panels, inputs, and QR preview.">
<polygon fill="#999999" stroke="#666666" points="136,-179 0,-179 0,-147 136,-147 136,-179"/>
<text text-anchor="start" x="8" y="-165.5" font-family="Helvetica,sans-Serif" font-size="10.00">fr.softsf.canscan.CanScan.</text>
<text text-anchor="middle" x="68" y="-153.5" font-family="Helvetica,sans-Serif" font-size="10.00">CanScan</text>
</a>
</g>
</g>
<!-- Node2 -->
<g id="Node000002" class="node">
<title>Node2</title>
<g id="a_Node000002"><a xlink:href="classfr_1_1softsf_1_1canscan_1_1_can_scan.html#a070115929fdc69b249d21866a00a47cc" target="_top" xlink:title="Assigns stable component names for testing and native&#45;image configuration.">
<polygon fill="white" stroke="#666666" points="343.25,-292 172,-292 172,-260 343.25,-260 343.25,-292"/>
<text text-anchor="start" x="180" y="-278.5" font-family="Helvetica,sans-Serif" font-size="10.00">fr.softsf.canscan.CanScan.initialize</text>
<text text-anchor="middle" x="257.62" y="-266.5" font-family="Helvetica,sans-Serif" font-size="10.00">ComponentNames</text>
</a>
</g>
</g>
<!-- Node1&#45;&gt;Node2 -->
<g id="edge1_Node000001_Node000002" class="edge">
<title>Node1&#45;&gt;Node2</title>
<g id="a_edge1_Node000001_Node000002"><a xlink:title=" ">
<path fill="none" stroke="#63b8ff" d="M85.55,-179.34C104.89,-197.67 138.52,-227.29 172,-246 178.07,-249.39 184.6,-252.51 191.24,-255.36"/>
<polygon fill="#63b8ff" stroke="#63b8ff" points="189.73,-258.52 200.31,-259.02 192.35,-252.03 189.73,-258.52"/>
</a>
</g>
</g>
<!-- Node3 -->
<g id="Node000003" class="node">
<title>Node3</title>
<g id="a_Node000003"><a xlink:href="classfr_1_1softsf_1_1canscan_1_1_can_scan.html#a14263ca931024d56cd9bed4af4b74c25" target="_top" xlink:title="Builds the main panel with header, QR preview overlay, and bottom spacer.">
<polygon fill="white" stroke="#666666" points="550.5,-417 379.25,-417 379.25,-385 550.5,-385 550.5,-417"/>
<text text-anchor="start" x="387.25" y="-403.5" font-family="Helvetica,sans-Serif" font-size="10.00">fr.softsf.canscan.CanScan.initialize</text>
<text text-anchor="middle" x="464.88" y="-391.5" font-family="Helvetica,sans-Serif" font-size="10.00">MainPanel</text>
</a>
</g>
</g>
<!-- Node1&#45;&gt;Node3 -->
<g id="edge2_Node000001_Node000003" class="edge">
<title>Node1&#45;&gt;Node3</title>
<g id="a_edge2_Node000001_Node000003"><a xlink:title=" ">
<path fill="none" stroke="#63b8ff" d="M97.97,-179.33C118.19,-190.15 146.1,-203.98 172,-213 245.62,-238.64 283.44,-200.99 343.25,-251 375.04,-277.58 353.85,-304.26 379.25,-337 391.78,-353.15 409.35,-367.32 425.23,-378.2"/>
<polygon fill="#63b8ff" stroke="#63b8ff" points="423.31,-381.12 433.58,-383.7 427.16,-375.28 423.31,-381.12"/>
</a>
</g>
</g>
<!-- Node13 -->
<g id="Node000013" class="node">
<title>Node13</title>
<g id="a_Node000013"><a xlink:href="classfr_1_1softsf_1_1canscan_1_1_can_scan.html#afb8d451dc5d6d9c7b6700e4b688c98a3" target="_top" xlink:title="Builds the north panel with mode selection, card panels, common fields, and generate button.">
<polygon fill="white" stroke="#666666" points="343.25,-204 172,-204 172,-172 343.25,-172 343.25,-204"/>
<text text-anchor="start" x="180" y="-190.5" font-family="Helvetica,sans-Serif" font-size="10.00">fr.softsf.canscan.CanScan.initialize</text>
<text text-anchor="middle" x="257.62" y="-178.5" font-family="Helvetica,sans-Serif" font-size="10.00">NorthPanel</text>
</a>
</g>
</g>
<!-- Node1&#45;&gt;Node13 -->
<g id="edge14_Node000001_Node000013" class="edge">
<title>Node1&#45;&gt;Node13</title>
<g id="a_edge14_Node000001_Node000013"><a xlink:title=" ">
<path fill="none" stroke="#63b8ff" d="M136.47,-171.99C144.26,-173.03 152.3,-174.1 160.37,-175.17"/>
<polygon fill="#63b8ff" stroke="#63b8ff" points="159.9,-178.64 170.27,-176.49 160.82,-171.7 159.9,-178.64"/>
</a>
</g>
</g>
<!-- Node30 -->
<g id="Node000030" class="node">
<title>Node30</title>
<g id="a_Node000030"><a xlink:href="classfr_1_1softsf_1_1canscan_1_1_can_scan.html#a4928478365bc812571ac037662cc5f6b" target="_top" xlink:title="Wraps the main panel in a scrollable container.">
<polygon fill="white" stroke="#666666" points="343.25,-154 172,-154 172,-122 343.25,-122 343.25,-154"/>
<text text-anchor="start" x="180" y="-140.5" font-family="Helvetica,sans-Serif" font-size="10.00">fr.softsf.canscan.CanScan.initialize</text>
<text text-anchor="middle" x="257.62" y="-128.5" font-family="Helvetica,sans-Serif" font-size="10.00">ScrollPane</text>
</a>
</g>
</g>
<!-- Node1&#45;&gt;Node30 -->
<g id="edge33_Node000001_Node000030" class="edge">
<title>Node1&#45;&gt;Node30</title>
<g id="a_edge33_Node000001_Node000030"><a xlink:title=" ">
<path fill="none" stroke="#63b8ff" d="M136.47,-154.01C144.26,-152.97 152.3,-151.9 160.37,-150.83"/>
<polygon fill="#63b8ff" stroke="#63b8ff" points="160.82,-154.3 170.27,-149.51 159.9,-147.36 160.82,-154.3"/>
</a>
</g>
</g>
<!-- Node31 -->
<g id="Node000031" class="node">
<title>Node31</title>
<g id="a_Node000031"><a xlink:href="classfr_1_1softsf_1_1canscan_1_1_can_scan.html#a358629f85831dc6cd4978c8854d88561" target="_top" xlink:title="Configures sliders for logo margin and ratio.">
<polygon fill="white" stroke="#666666" points="343.25,-104 172,-104 172,-72 343.25,-72 343.25,-104"/>
<text text-anchor="start" x="180" y="-90.5" font-family="Helvetica,sans-Serif" font-size="10.00">fr.softsf.canscan.CanScan.initialize</text>
<text text-anchor="middle" x="257.62" y="-78.5" font-family="Helvetica,sans-Serif" font-size="10.00">Sliders</text>
</a>
</g>
</g>
<!-- Node1&#45;&gt;Node31 -->
<g id="edge34_Node000001_Node000031" class="edge">
<title>Node1&#45;&gt;Node31</title>
<g id="a_edge34_Node000001_Node000031"><a xlink:title=" ">
<path fill="none" stroke="#63b8ff" d="M99.51,-146.55C119.7,-136.07 146.98,-122.69 172,-113 176.42,-111.29 181.01,-109.62 185.66,-108.02"/>
<polygon fill="#63b8ff" stroke="#63b8ff" points="186.74,-111.35 195.13,-104.88 184.54,-104.71 186.74,-111.35"/>
</a>
</g>
</g>
<!-- Node32 -->
<g id="Node000032" class="node">
<title>Node32</title>
<g id="a_Node000032"><a xlink:href="classfr_1_1softsf_1_1canscan_1_1_can_scan.html#a0a52159db640660477196e337ec62a9b" target="_top" xlink:title="Finalizes window layout: packs components, adjusts size for QR display and loader,...">
<polygon fill="white" stroke="#666666" points="343.25,-43 172,-43 172,-11 343.25,-11 343.25,-43"/>
<text text-anchor="start" x="180" y="-29.5" font-family="Helvetica,sans-Serif" font-size="10.00">fr.softsf.canscan.CanScan.initialize</text>
<text text-anchor="middle" x="257.62" y="-17.5" font-family="Helvetica,sans-Serif" font-size="10.00">Window</text>
</a>
</g>
</g>
<!-- Node1&#45;&gt;Node32 -->
<g id="edge35_Node000001_Node000032" class="edge">
<title>Node1&#45;&gt;Node32</title>
<g id="a_edge35_Node000001_Node000032"><a xlink:title=" ">
<path fill="none" stroke="#63b8ff" d="M82.5,-146.55C100.88,-125 135.67,-87.14 172,-63 180.31,-57.48 189.6,-52.51 198.91,-48.15"/>
<polygon fill="#63b8ff" stroke="#63b8ff" points="200.27,-51.37 207.98,-44.11 197.42,-44.98 200.27,-51.37"/>
</a>
</g>
</g>
<!-- Node4 -->
<g id="Node000004" class="node">
<title>Node4</title>
<g id="a_Node000004"><a xlink:href="classfr_1_1softsf_1_1canscan_1_1_can_scan.html#ad470e3c0750cf142dc611b1aeeda3a97" target="_top" xlink:title="Attaches automatic QR preview updates and input validation to all fields and controls.">
<polygon fill="white" stroke="#666666" points="779.5,-461 586.5,-461 586.5,-429 779.5,-429 779.5,-461"/>
<text text-anchor="start" x="594.5" y="-447.5" font-family="Helvetica,sans-Serif" font-size="10.00">fr.softsf.canscan.CanScan.automatic</text>
<text text-anchor="middle" x="683" y="-435.5" font-family="Helvetica,sans-Serif" font-size="10.00">QRCodeRenderingForFieldsAndControls</text>
</a>
</g>
</g>
<!-- Node3&#45;&gt;Node4 -->
<g id="edge3_Node000003_Node000004" class="edge">
<title>Node3&#45;&gt;Node4</title>
<g id="a_edge3_Node000003_Node000004"><a xlink:title=" ">
<path fill="none" stroke="#63b8ff" d="M546.66,-417.45C560.8,-420.33 575.61,-423.34 590.02,-426.27"/>
<polygon fill="#63b8ff" stroke="#63b8ff" points="588.97,-429.63 599.47,-428.2 590.37,-422.77 588.97,-429.63"/>
</a>
</g>
</g>
<!-- Node7 -->
<g id="Node000007" class="node">
<title>Node7</title>
<g id="a_Node000007"><a xlink:href="classfr_1_1softsf_1_1canscan_1_1_can_scan.html#a180290bc488e2346592ded98ccc4b1f3" target="_top" xlink:title="Collects current input and visual settings into a WholeFields for QR code generation.">
<polygon fill="white" stroke="#666666" points="980.38,-215 830.88,-215 830.88,-183 980.38,-183 980.38,-215"/>
<text text-anchor="start" x="838.88" y="-201.5" font-family="Helvetica,sans-Serif" font-size="10.00">fr.softsf.canscan.CanScan.get</text>
<text text-anchor="middle" x="905.62" y="-189.5" font-family="Helvetica,sans-Serif" font-size="10.00">QrInput</text>
</a>
</g>
</g>
<!-- Node3&#45;&gt;Node7 -->
<g id="edge13_Node000003_Node000007" class="edge">
<title>Node3&#45;&gt;Node7</title>
<g id="a_edge13_Node000003_Node000007"><a xlink:title=" ">
<path fill="none" stroke="#63b8ff" d="M550.77,-415.18C617.32,-421.94 709.98,-421.41 779.5,-382 841.01,-347.12 878.68,-268.05 895.05,-226.18"/>
<polygon fill="#63b8ff" stroke="#63b8ff" points="898.31,-227.44 898.57,-216.84 891.76,-224.97 898.31,-227.44"/>
</a>
</g>
</g>
<!-- Node5 -->
<g id="Node000005" class="node">
<title>Node5</title>
<g id="a_Node000005"><a xlink:href="enumfr_1_1softsf_1_1canscan_1_1ui_1_1_ui_components_configuration.html#afe8da76131acc9dd19a15d7f22ca9ef1" target="_top" xlink:title="Attaches a DocumentListener to a JTextField that:">
<polygon fill="white" stroke="#666666" points="995.75,-492 815.5,-492 815.5,-448 995.75,-448 995.75,-492"/>
<text text-anchor="start" x="823.5" y="-478.5" font-family="Helvetica,sans-Serif" font-size="10.00">fr.softsf.canscan.ui.UiComponents</text>
<text text-anchor="start" x="823.5" y="-466.5" font-family="Helvetica,sans-Serif" font-size="10.00">Configuration.attachLimitedDocument</text>
<text text-anchor="middle" x="905.62" y="-454.5" font-family="Helvetica,sans-Serif" font-size="10.00">Listener</text>
</a>
</g>
</g>
<!-- Node4&#45;&gt;Node5 -->
<g id="edge4_Node000004_Node000005" class="edge">
<title>Node4&#45;&gt;Node5</title>
<g id="a_edge4_Node000004_Node000005"><a xlink:title=" ">
<path fill="none" stroke="#63b8ff" d="M779.81,-455.86C787.79,-456.76 795.88,-457.68 803.89,-458.59"/>
<polygon fill="#63b8ff" stroke="#63b8ff" points="803.33,-462.04 813.66,-459.69 804.12,-455.09 803.33,-462.04"/>
</a>
</g>
</g>
<!-- Node6 -->
<g id="Node000006" class="node">
<title>Node6</title>
<g id="a_Node000006"><a xlink:href="enumfr_1_1softsf_1_1canscan_1_1ui_1_1_ui_components_configuration.html#aa700d9f2a270f6e54fcb53111855fa44" target="_top" xlink:title="Creates a simple DocumentListener that executes the given action on any change to the document.">
<polygon fill="white" stroke="#666666" points="1215,-461 1031.75,-461 1031.75,-429 1215,-429 1215,-461"/>
<text text-anchor="start" x="1039.75" y="-447.5" font-family="Helvetica,sans-Serif" font-size="10.00">fr.softsf.canscan.ui.UiComponents</text>
<text text-anchor="middle" x="1123.38" y="-435.5" font-family="Helvetica,sans-Serif" font-size="10.00">Configuration.createDocumentListener</text>
</a>
</g>
</g>
<!-- Node4&#45;&gt;Node6 -->
<g id="edge6_Node000004_Node000006" class="edge">
<title>Node4&#45;&gt;Node6</title>
<g id="a_edge6_Node000004_Node000006"><a xlink:title=" ">
<path fill="none" stroke="#63b8ff" d="M779.86,-440.12C791.86,-439.66 803.96,-439.26 815.5,-439 895.59,-437.17 915.66,-437.1 995.75,-439 1003.69,-439.19 1011.91,-439.44 1020.17,-439.74"/>
<polygon fill="#63b8ff" stroke="#63b8ff" points="1019.8,-443.23 1029.93,-440.11 1020.07,-436.23 1019.8,-443.23"/>
</a>
</g>
</g>
<!-- Node4&#45;&gt;Node7 -->
<g id="edge7_Node000004_Node000007" class="edge">
<title>Node4&#45;&gt;Node7</title>
<g id="a_edge7_Node000004_Node000007"><a xlink:title=" ">
<path fill="none" stroke="#63b8ff" d="M756.82,-428.54C764.94,-424.88 772.72,-420.43 779.5,-415 842.99,-364.17 880.64,-271.79 896.21,-226.09"/>
<polygon fill="#63b8ff" stroke="#63b8ff" points="899.49,-227.31 899.3,-216.71 892.85,-225.11 899.49,-227.31"/>
</a>
</g>
</g>
<!-- Node5&#45;&gt;Node6 -->
<g id="edge5_Node000005_Node000006" class="edge">
<title>Node5&#45;&gt;Node6</title>
<g id="a_edge5_Node000005_Node000006"><a xlink:title=" ">
<path fill="none" stroke="#63b8ff" d="M996.25,-459.61C1004.12,-458.7 1012.12,-457.78 1020.08,-456.85"/>
<polygon fill="#63b8ff" stroke="#63b8ff" points="1020.26,-460.36 1029.79,-455.73 1019.45,-453.4 1020.26,-460.36"/>
</a>
</g>
</g>
<!-- Node8 -->
<g id="Node000008" class="node">
<title>Node8</title>
<g id="a_Node000008"><a xlink:href="classfr_1_1softsf_1_1canscan_1_1_can_scan.html#a381368b99c4a0857c6abe6349b2c6d27" target="_top" xlink:title="Calculates the available height for QR code rendering.">
<polygon fill="white" stroke="#666666" points="1210.88,-43 1035.88,-43 1035.88,-11 1210.88,-11 1210.88,-43"/>
<text text-anchor="start" x="1043.88" y="-29.5" font-family="Helvetica,sans-Serif" font-size="10.00">fr.softsf.canscan.CanScan.calculate</text>
<text text-anchor="middle" x="1123.38" y="-17.5" font-family="Helvetica,sans-Serif" font-size="10.00">AvailableQrCodeLabelHeight</text>
</a>
</g>
</g>
<!-- Node7&#45;&gt;Node8 -->
<g id="edge8_Node000007_Node000008" class="edge">
<title>Node7&#45;&gt;Node8</title>
<g id="a_edge8_Node000007_Node000008"><a xlink:title=" ">
<path fill="none" stroke="#63b8ff" d="M980.72,-184.54C986.17,-181.64 991.28,-178.16 995.75,-174 1030.33,-141.82 1000.64,-109.55 1031.75,-74 1040.78,-63.68 1052.62,-55.31 1064.76,-48.65"/>
<polygon fill="#63b8ff" stroke="#63b8ff" points="1066.3,-51.8 1073.62,-44.14 1063.12,-45.56 1066.3,-51.8"/>
</a>
</g>
</g>
<!-- Node9 -->
<g id="Node000009" class="node">
<title>Node9</title>
<g id="a_Node000009"><a xlink:href="classfr_1_1softsf_1_1canscan_1_1_can_scan.html#a4e67b1b5c764e72414a5c0f387810f5c" target="_top" xlink:title="Validates and returns the current QR code margin from the margin slider.">
<polygon fill="white" stroke="#666666" points="1208.25,-265 1038.5,-265 1038.5,-233 1208.25,-233 1208.25,-265"/>
<text text-anchor="start" x="1046.5" y="-251.5" font-family="Helvetica,sans-Serif" font-size="10.00">fr.softsf.canscan.CanScan.validate</text>
<text text-anchor="middle" x="1123.38" y="-239.5" font-family="Helvetica,sans-Serif" font-size="10.00">AndGetMargin</text>
</a>
</g>
</g>
<!-- Node7&#45;&gt;Node9 -->
<g id="edge9_Node000007_Node000009" class="edge">
<title>Node7&#45;&gt;Node9</title>
<g id="a_edge9_Node000007_Node000009"><a xlink:title=" ">
<path fill="none" stroke="#63b8ff" d="M977.57,-215.44C997.66,-220.1 1019.7,-225.2 1040.38,-230"/>
<polygon fill="#63b8ff" stroke="#63b8ff" points="1039.38,-233.36 1049.91,-232.21 1040.96,-226.54 1039.38,-233.36"/>
</a>
</g>
</g>
<!-- Node10 -->
<g id="Node000010" class="node">
<title>Node10</title>
<g id="a_Node000010"><a xlink:href="classfr_1_1softsf_1_1canscan_1_1_can_scan.html#a8a2b238ac4af96d8710b3e5d7d051f77" target="_top" xlink:title="Validates and returns the current meet UID from the meet title field.">
<polygon fill="white" stroke="#666666" points="1208.25,-215 1038.5,-215 1038.5,-183 1208.25,-183 1208.25,-215"/>
<text text-anchor="start" x="1046.5" y="-201.5" font-family="Helvetica,sans-Serif" font-size="10.00">fr.softsf.canscan.CanScan.validate</text>
<text text-anchor="middle" x="1123.38" y="-189.5" font-family="Helvetica,sans-Serif" font-size="10.00">AndGetMeetUID</text>
</a>
</g>
</g>
<!-- Node7&#45;&gt;Node10 -->
<g id="edge10_Node000007_Node000010" class="edge">
<title>Node7&#45;&gt;Node10</title>
<g id="a_edge10_Node000007_Node000010"><a xlink:title=" ">
<path fill="none" stroke="#63b8ff" d="M980.87,-199C995.78,-199 1011.64,-199 1027.15,-199"/>
<polygon fill="#63b8ff" stroke="#63b8ff" points="1026.85,-202.5 1036.85,-199 1026.85,-195.5 1026.85,-202.5"/>
</a>
</g>
</g>
<!-- Node11 -->
<g id="Node000011" class="node">
<title>Node11</title>
<g id="a_Node000011"><a xlink:href="classfr_1_1softsf_1_1canscan_1_1_can_scan.html#a9e8188875168199cde065113ae2a393d" target="_top" xlink:title="Validates and returns the current image&#45;to&#45;QR ratio from the ratio slider.">
<polygon fill="white" stroke="#666666" points="1208.25,-165 1038.5,-165 1038.5,-133 1208.25,-133 1208.25,-165"/>
<text text-anchor="start" x="1046.5" y="-151.5" font-family="Helvetica,sans-Serif" font-size="10.00">fr.softsf.canscan.CanScan.validate</text>
<text text-anchor="middle" x="1123.38" y="-139.5" font-family="Helvetica,sans-Serif" font-size="10.00">AndGetRatio</text>
</a>
</g>
</g>
<!-- Node7&#45;&gt;Node11 -->
<g id="edge11_Node000007_Node000011" class="edge">
<title>Node7&#45;&gt;Node11</title>
<g id="a_edge11_Node000007_Node000011"><a xlink:title=" ">
<path fill="none" stroke="#63b8ff" d="M977.57,-182.56C997.66,-177.9 1019.7,-172.8 1040.38,-168"/>
<polygon fill="#63b8ff" stroke="#63b8ff" points="1040.96,-171.46 1049.91,-165.79 1039.38,-164.64 1040.96,-171.46"/>
</a>
</g>
</g>
<!-- Node12 -->
<g id="Node000012" class="node">
<title>Node12</title>
<g id="a_Node000012"><a xlink:href="classfr_1_1softsf_1_1canscan_1_1_can_scan.html#a6d139bb8d0a3c7081096c8956189b684" target="_top" xlink:title="Validates and returns the QR code size from the corresponding text field.">
<polygon fill="white" stroke="#666666" points="1208.25,-315 1038.5,-315 1038.5,-283 1208.25,-283 1208.25,-315"/>
<text text-anchor="start" x="1046.5" y="-301.5" font-family="Helvetica,sans-Serif" font-size="10.00">fr.softsf.canscan.CanScan.validate</text>
<text text-anchor="middle" x="1123.38" y="-289.5" font-family="Helvetica,sans-Serif" font-size="10.00">AndGetSize</text>
</a>
</g>
</g>
<!-- Node7&#45;&gt;Node12 -->
<g id="edge12_Node000007_Node000012" class="edge">
<title>Node7&#45;&gt;Node12</title>
<g id="a_edge12_Node000007_Node000012"><a xlink:title=" ">
<path fill="none" stroke="#63b8ff" d="M929.59,-215.38C953.95,-232.11 994.03,-257.85 1031.75,-274 1035.77,-275.72 1039.94,-277.36 1044.19,-278.9"/>
<polygon fill="#63b8ff" stroke="#63b8ff" points="1042.83,-282.14 1053.43,-282.08 1045.11,-275.52 1042.83,-282.14"/>
</a>
</g>
</g>
<!-- Node14 -->
<g id="Node000014" class="node">
<title>Node14</title>
<g id="a_Node000014"><a xlink:href="classfr_1_1softsf_1_1canscan_1_1_can_scan.html#ab2e018ca62c7497c29e84f42ae870daa" target="_top" xlink:title="Adds MECARD MEET FREE card panels to the north panel.">
<polygon fill="white" stroke="#666666" points="540.75,-328 389,-328 389,-296 540.75,-296 540.75,-328"/>
<text text-anchor="start" x="397" y="-314.5" font-family="Helvetica,sans-Serif" font-size="10.00">fr.softsf.canscan.CanScan.add</text>
<text text-anchor="middle" x="464.88" y="-302.5" font-family="Helvetica,sans-Serif" font-size="10.00">NorthPanelCardPanels</text>
</a>
</g>
</g>
<!-- Node13&#45;&gt;Node14 -->
<g id="edge15_Node000013_Node000014" class="edge">
<title>Node13&#45;&gt;Node14</title>
<g id="a_edge15_Node000013_Node000014"><a xlink:title=" ">
<path fill="none" stroke="#63b8ff" d="M320.35,-204.39C328.51,-208.09 336.41,-212.58 343.25,-218 366.44,-236.38 356.83,-254.7 379.25,-274 386.7,-280.41 395.41,-285.93 404.35,-290.61"/>
<polygon fill="#63b8ff" stroke="#63b8ff" points="402.6,-293.65 413.13,-294.88 405.67,-287.36 402.6,-293.65"/>
</a>
</g>
</g>
<!-- Node18 -->
<g id="Node000018" class="node">
<title>Node18</title>
<g id="a_Node000018"><a xlink:href="classfr_1_1softsf_1_1canscan_1_1_can_scan.html#a94ab4df98de0d05977e6a65ab75f89f0" target="_top" xlink:title="Adds common input fields to the north panel.">
<polygon fill="white" stroke="#666666" points="540.75,-265 389,-265 389,-233 540.75,-233 540.75,-265"/>
<text text-anchor="start" x="397" y="-251.5" font-family="Helvetica,sans-Serif" font-size="10.00">fr.softsf.canscan.CanScan.add</text>
<text text-anchor="middle" x="464.88" y="-239.5" font-family="Helvetica,sans-Serif" font-size="10.00">NorthPanelCommonFields</text>
</a>
</g>
</g>
<!-- Node13&#45;&gt;Node18 -->
<g id="edge19_Node000013_Node000018" class="edge">
<title>Node13&#45;&gt;Node18</title>
<g id="a_edge19_Node000013_Node000018"><a xlink:title=" ">
<path fill="none" stroke="#63b8ff" d="M313.56,-204.43C334.16,-210.58 357.78,-217.62 379.25,-224 385.12,-225.74 391.23,-227.55 397.35,-229.37"/>
<polygon fill="#63b8ff" stroke="#63b8ff" points="396.3,-232.71 406.88,-232.19 398.29,-225.99 396.3,-232.71"/>
</a>
</g>
</g>
<!-- Node21 -->
<g id="Node000021" class="node">
<title>Node21</title>
<g id="a_Node000021"><a xlink:href="classfr_1_1softsf_1_1canscan_1_1_can_scan.html#a9f205dfdb266d5d7f8f8899b69742663" target="_top" xlink:title="Adds the generate button to the north panel.">
<polygon fill="white" stroke="#666666" points="540.75,-215 389,-215 389,-183 540.75,-183 540.75,-215"/>
<text text-anchor="start" x="397" y="-201.5" font-family="Helvetica,sans-Serif" font-size="10.00">fr.softsf.canscan.CanScan.add</text>
<text text-anchor="middle" x="464.88" y="-189.5" font-family="Helvetica,sans-Serif" font-size="10.00">NorthPanelGenerateButton</text>
</a>
</g>
</g>
<!-- Node13&#45;&gt;Node21 -->
<g id="edge23_Node000013_Node000021" class="edge">
<title>Node13&#45;&gt;Node21</title>
<g id="a_edge23_Node000013_Node000021"><a xlink:title=" ">
<path fill="none" stroke="#63b8ff" d="M343.59,-192.55C354.84,-193.16 366.38,-193.77 377.65,-194.38"/>
<polygon fill="#63b8ff" stroke="#63b8ff" points="377.12,-197.86 387.3,-194.9 377.5,-190.87 377.12,-197.86"/>
</a>
</g>
</g>
<!-- Node22 -->
<g id="Node000022" class="node">
<title>Node22</title>
<g id="a_Node000022"><a xlink:href="classfr_1_1softsf_1_1canscan_1_1_can_scan.html#aa469763b92dd7cbc6dfdb9aaa0116b33" target="_top" xlink:title="Adds mode selection controls (MECARD/MEET/FREE) to the north panel.">
<polygon fill="white" stroke="#666666" points="540.75,-165 389,-165 389,-133 540.75,-133 540.75,-165"/>
<text text-anchor="start" x="397" y="-151.5" font-family="Helvetica,sans-Serif" font-size="10.00">fr.softsf.canscan.CanScan.add</text>
<text text-anchor="middle" x="464.88" y="-139.5" font-family="Helvetica,sans-Serif" font-size="10.00">NorthPanelModeSelection</text>
</a>
</g>
</g>
<!-- Node13&#45;&gt;Node22 -->
<g id="edge24_Node000013_Node000022" class="edge">
<title>Node13&#45;&gt;Node22</title>
<g id="a_edge24_Node000013_Node000022"><a xlink:title=" ">
<path fill="none" stroke="#63b8ff" d="M343.59,-171.86C354.84,-169.72 366.38,-167.53 377.65,-165.38"/>
<polygon fill="#63b8ff" stroke="#63b8ff" points="378.15,-168.85 387.32,-163.55 376.84,-161.97 378.15,-168.85"/>
</a>
</g>
</g>
<!-- Node28 -->
<g id="Node000028" class="node">
<title>Node28</title>
<g id="a_Node000028"><a xlink:href="classfr_1_1softsf_1_1canscan_1_1_can_scan.html#ada8edc3d5abda489ce9f75a0613cfc71" target="_top" xlink:title="Creates the base north panel with layout, maximum width, and padding applied.">
<polygon fill="white" stroke="#666666" points="539.62,-115 390.12,-115 390.12,-83 539.62,-83 539.62,-115"/>
<text text-anchor="start" x="398.12" y="-101.5" font-family="Helvetica,sans-Serif" font-size="10.00">fr.softsf.canscan.CanScan.get</text>
<text text-anchor="middle" x="464.88" y="-89.5" font-family="Helvetica,sans-Serif" font-size="10.00">NorthJPanel</text>
</a>
</g>
</g>
<!-- Node13&#45;&gt;Node28 -->
<g id="edge31_Node000013_Node000028" class="edge">
<title>Node13&#45;&gt;Node28</title>
<g id="a_edge31_Node000013_Node000028"><a xlink:title=" ">
<path fill="none" stroke="#63b8ff" d="M326.58,-171.55C332.4,-169.07 338.05,-166.24 343.25,-163 363.28,-150.54 359.22,-136.46 379.25,-124 381.28,-122.74 383.38,-121.53 385.53,-120.39"/>
<polygon fill="#63b8ff" stroke="#63b8ff" points="387.02,-123.56 394.55,-116.1 384.02,-117.23 387.02,-123.56"/>
</a>
</g>
</g>
<!-- Node29 -->
<g id="Node000029" class="node">
<title>Node29</title>
<g id="a_Node000029"><a xlink:href="classfr_1_1softsf_1_1canscan_1_1_can_scan.html#aeb5550da33925e95999aae23f525f7c5" target="_top" xlink:title="Creates default GridBagConstraints for consistent layout configuration.">
<polygon fill="white" stroke="#666666" points="543.75,-65 386,-65 386,-33 543.75,-33 543.75,-65"/>
<text text-anchor="start" x="394" y="-51.5" font-family="Helvetica,sans-Serif" font-size="10.00">fr.softsf.canscan.CanScan.north</text>
<text text-anchor="middle" x="464.88" y="-39.5" font-family="Helvetica,sans-Serif" font-size="10.00">PanelGridBagConstraints</text>
</a>
</g>
</g>
<!-- Node13&#45;&gt;Node29 -->
<g id="edge32_Node000013_Node000029" class="edge">
<title>Node13&#45;&gt;Node29</title>
<g id="a_edge32_Node000013_Node000029"><a xlink:title=" ">
<path fill="none" stroke="#63b8ff" d="M331.27,-171.64C335.57,-169.16 339.62,-166.29 343.25,-163 374.85,-134.33 347.65,-102.67 379.25,-74 380.16,-73.18 381.09,-72.38 382.05,-71.61"/>
<polygon fill="#63b8ff" stroke="#63b8ff" points="383.68,-74.73 389.97,-66.21 379.74,-68.95 383.68,-74.73"/>
</a>
</g>
</g>
<!-- Node15 -->
<g id="Node000015" class="node">
<title>Node15</title>
<g id="a_Node000015"><a xlink:href="classfr_1_1softsf_1_1canscan_1_1_can_scan.html#a38d65dd319daee1c3288690c17e43ca5" target="_top" xlink:title="Populates the FREE panel with a multiline text area.">
<polygon fill="white" stroke="#666666" points="769.75,-335 596.25,-335 596.25,-315 769.75,-315 769.75,-335"/>
<text text-anchor="middle" x="683" y="-321.5" font-family="Helvetica,sans-Serif" font-size="10.00">fr.softsf.canscan.CanScan.freeCard</text>
</a>
</g>
</g>
<!-- Node14&#45;&gt;Node15 -->
<g id="edge16_Node000014_Node000015" class="edge">
<title>Node14&#45;&gt;Node15</title>
<g id="a_edge16_Node000014_Node000015"><a xlink:title=" ">
<path fill="none" stroke="#63b8ff" d="M541.16,-316.53C555.24,-317.38 570.13,-318.27 584.76,-319.15"/>
<polygon fill="#63b8ff" stroke="#63b8ff" points="584.18,-322.62 594.37,-319.73 584.6,-315.63 584.18,-322.62"/>
</a>
</g>
</g>
<!-- Node16 -->
<g id="Node000016" class="node">
<title>Node16</title>
<g id="a_Node000016"><a xlink:href="classfr_1_1softsf_1_1canscan_1_1_can_scan.html#aed7e3048974882318a6519d8d36e8ec0" target="_top" xlink:title="Populates the MECARD panel with contact fields.">
<polygon fill="white" stroke="#666666" points="767.12,-297 598.88,-297 598.88,-277 767.12,-277 767.12,-297"/>
<text text-anchor="middle" x="683" y="-283.5" font-family="Helvetica,sans-Serif" font-size="10.00">fr.softsf.canscan.CanScan.mecard</text>
</a>
</g>
</g>
<!-- Node14&#45;&gt;Node16 -->
<g id="edge17_Node000014_Node000016" class="edge">
<title>Node14&#45;&gt;Node16</title>
<g id="a_edge17_Node000014_Node000016"><a xlink:title=" ">
<path fill="none" stroke="#63b8ff" d="M541.16,-303.29C556.06,-301.57 571.88,-299.74 587.33,-297.95"/>
<polygon fill="#63b8ff" stroke="#63b8ff" points="587.46,-301.46 596.99,-296.83 586.65,-294.51 587.46,-301.46"/>
</a>
</g>
</g>
<!-- Node17 -->
<g id="Node000017" class="node">
<title>Node17</title>
<g id="a_Node000017"><a xlink:href="classfr_1_1softsf_1_1canscan_1_1_can_scan.html#aa211e37381e1a96b368390e86cddb879" target="_top" xlink:title="Populates the MEET panel with meet fields.">
<polygon fill="white" stroke="#666666" points="772.38,-373 593.62,-373 593.62,-353 772.38,-353 772.38,-373"/>
<text text-anchor="middle" x="683" y="-359.5" font-family="Helvetica,sans-Serif" font-size="10.00">fr.softsf.canscan.CanScan.meetCard</text>
</a>
</g>
</g>
<!-- Node14&#45;&gt;Node17 -->
<g id="edge18_Node000014_Node000017" class="edge">
<title>Node14&#45;&gt;Node17</title>
<g id="a_edge18_Node000014_Node000017"><a xlink:title=" ">
<path fill="none" stroke="#63b8ff" d="M524.9,-328.45C544.44,-333.69 566.34,-339.33 586.5,-344 595.73,-346.14 605.5,-348.26 615.13,-350.25"/>
<polygon fill="#63b8ff" stroke="#63b8ff" points="614.34,-353.66 624.84,-352.23 615.74,-346.81 614.34,-353.66"/>
</a>
</g>
</g>
<!-- Node19 -->
<g id="Node000019" class="node">
<title>Node19</title>
<g id="a_Node000019"><a xlink:href="classfr_1_1softsf_1_1canscan_1_1_can_scan.html#a17b0a72ab305f98f86591411b6a352f2" target="_top" xlink:title="Creates the color selection panel for QR code and background colors.">
<polygon fill="white" stroke="#666666" points="761.5,-209 604.5,-209 604.5,-177 761.5,-177 761.5,-209"/>
<text text-anchor="start" x="612.5" y="-195.5" font-family="Helvetica,sans-Serif" font-size="10.00">fr.softsf.canscan.CanScan.color</text>
<text text-anchor="middle" x="683" y="-183.5" font-family="Helvetica,sans-Serif" font-size="10.00">Panel</text>
</a>
</g>
</g>
<!-- Node18&#45;&gt;Node19 -->
<g id="edge20_Node000018_Node000019" class="edge">
<title>Node18&#45;&gt;Node19</title>
<g id="a_edge20_Node000018_Node000019"><a xlink:title=" ">
<path fill="none" stroke="#63b8ff" d="M529.55,-232.5C553.96,-226.18 582.02,-218.91 607.36,-212.34"/>
<polygon fill="#63b8ff" stroke="#63b8ff" points="608.14,-215.75 616.94,-209.86 606.38,-208.98 608.14,-215.75"/>
</a>
</g>
</g>
<!-- Node20 -->
<g id="Node000020" class="node">
<title>Node20</title>
<g id="a_Node000020"><a xlink:href="enumfr_1_1softsf_1_1canscan_1_1ui_1_1_ui_components_configuration.html#a953922164a79d6b4a86eb426b782c730" target="_top" xlink:title="Generates the HTML string for a JLabel with text followed by an icon.">
<polygon fill="white" stroke="#666666" points="767.88,-259 598.12,-259 598.12,-227 767.88,-227 767.88,-259"/>
<text text-anchor="start" x="606.12" y="-245.5" font-family="Helvetica,sans-Serif" font-size="10.00">fr.softsf.canscan.ui.UiComponents</text>
<text text-anchor="middle" x="683" y="-233.5" font-family="Helvetica,sans-Serif" font-size="10.00">Configuration.getIconAfterTextHtml</text>
</a>
</g>
</g>
<!-- Node18&#45;&gt;Node20 -->
<g id="edge22_Node000018_Node000020" class="edge">
<title>Node18&#45;&gt;Node20</title>
<g id="a_edge22_Node000018_Node000020"><a xlink:title=" ">
<path fill="none" stroke="#63b8ff" d="M541.16,-246.91C555.72,-246.51 571.16,-246.08 586.27,-245.66"/>
<polygon fill="#63b8ff" stroke="#63b8ff" points="586.34,-249.16 596.23,-245.38 586.14,-242.16 586.34,-249.16"/>
</a>
</g>
</g>
<!-- Node19&#45;&gt;Node7 -->
<g id="edge21_Node000019_Node000007" class="edge">
<title>Node19&#45;&gt;Node7</title>
<g id="a_edge21_Node000019_Node000007"><a xlink:title=" ">
<path fill="none" stroke="#63b8ff" d="M761.78,-195.12C780.36,-195.62 800.3,-196.16 819.2,-196.68"/>
<polygon fill="#63b8ff" stroke="#63b8ff" points="818.9,-200.17 828.99,-196.94 819.09,-193.17 818.9,-200.17"/>
</a>
</g>
</g>
<!-- Node23 -->
<g id="Node000023" class="node">
<title>Node23</title>
<g id="a_Node000023"><a xlink:href="classfr_1_1softsf_1_1canscan_1_1_can_scan.html#a381579d3adc53b1122b38e7fda5c0235" target="_top" xlink:title="Configures the update button for version checking.">
<polygon fill="white" stroke="#666666" points="770.88,-121 595.12,-121 595.12,-89 770.88,-89 770.88,-121"/>
<text text-anchor="start" x="603.12" y="-107.5" font-family="Helvetica,sans-Serif" font-size="10.00">fr.softsf.canscan.CanScan.configure</text>
<text text-anchor="middle" x="683" y="-95.5" font-family="Helvetica,sans-Serif" font-size="10.00">UpdateButton</text>
</a>
</g>
</g>
<!-- Node22&#45;&gt;Node23 -->
<g id="edge25_Node000022_Node000023" class="edge">
<title>Node22&#45;&gt;Node23</title>
<g id="a_edge25_Node000022_Node000023"><a xlink:title=" ">
<path fill="none" stroke="#63b8ff" d="M541.16,-133.67C556.9,-130.47 573.66,-127.06 589.93,-123.74"/>
<polygon fill="#63b8ff" stroke="#63b8ff" points="590.51,-127.2 599.61,-121.77 589.11,-120.34 590.51,-127.2"/>
</a>
</g>
</g>
<!-- Node24 -->
<g id="Node000024" class="node">
<title>Node24</title>
<g id="a_Node000024"><a xlink:href="classfr_1_1softsf_1_1canscan_1_1_can_scan.html#a428c742b098fa27d4c8984c1030c238d" target="_top" xlink:title="Switches between MECARD, MEET, and FREE modes, updating the panel and QR preview.">
<polygon fill="white" stroke="#666666" points="777.25,-159 588.75,-159 588.75,-139 777.25,-139 777.25,-159"/>
<text text-anchor="middle" x="683" y="-145.5" font-family="Helvetica,sans-Serif" font-size="10.00">fr.softsf.canscan.CanScan.switchMode</text>
</a>
</g>
</g>
<!-- Node22&#45;&gt;Node24 -->
<g id="edge26_Node000022_Node000024" class="edge">
<title>Node22&#45;&gt;Node24</title>
<g id="a_edge26_Node000022_Node000024"><a xlink:title=" ">
<path fill="none" stroke="#63b8ff" d="M541.16,-149C552.7,-149 564.79,-149 576.83,-149"/>
<polygon fill="#63b8ff" stroke="#63b8ff" points="576.83,-152.5 586.83,-149 576.83,-145.5 576.83,-152.5"/>
</a>
</g>
</g>
<!-- Node24&#45;&gt;Node7 -->
<g id="edge27_Node000024_Node000007" class="edge">
<title>Node24&#45;&gt;Node7</title>
<g id="a_edge27_Node000024_Node000007"><a xlink:title=" ">
<path fill="none" stroke="#63b8ff" d="M738.89,-159.47C752.2,-162.13 766.38,-165.07 779.5,-168 795.89,-171.66 813.43,-175.84 830.03,-179.92"/>
<polygon fill="#63b8ff" stroke="#63b8ff" points="828.77,-183.21 839.32,-182.21 830.45,-176.41 828.77,-183.21"/>
</a>
</g>
</g>
<!-- Node25 -->
<g id="Node000025" class="node">
<title>Node25</title>
<g id="a_Node000025"><a xlink:href="enumfr_1_1softsf_1_1canscan_1_1model_1_1_mode.html#a16a898a11ca939056bd7b275f11ea54c" target="_top" xlink:title="Returns the mode label.">
<polygon fill="white" stroke="#666666" points="966.5,-165 844.75,-165 844.75,-133 966.5,-133 966.5,-165"/>
<text text-anchor="start" x="852.75" y="-151.5" font-family="Helvetica,sans-Serif" font-size="10.00">fr.softsf.canscan.model.</text>
<text text-anchor="middle" x="905.62" y="-139.5" font-family="Helvetica,sans-Serif" font-size="10.00">Mode.text</text>
</a>
</g>
</g>
<!-- Node24&#45;&gt;Node25 -->
<g id="edge28_Node000024_Node000025" class="edge">
<title>Node24&#45;&gt;Node25</title>
<g id="a_edge28_Node000024_Node000025"><a xlink:title=" ">
<path fill="none" stroke="#63b8ff" d="M777.56,-149C796.16,-149 815.4,-149 833.12,-149"/>
<polygon fill="#63b8ff" stroke="#63b8ff" points="833,-152.5 843,-149 833,-145.5 833,-152.5"/>
</a>
</g>
</g>
<!-- Node26 -->
<g id="Node000026" class="node">
<title>Node26</title>
<g id="a_Node000026"><a xlink:href="classfr_1_1softsf_1_1canscan_1_1_can_scan.html#a11fd9295c4843e6e68f9d1e4a710b906" target="_top" xlink:title="Enables or disables the &quot;Generate&quot; button based on required fields for the current mode.">
<polygon fill="white" stroke="#666666" points="988.25,-115 823,-115 823,-83 988.25,-83 988.25,-115"/>
<text text-anchor="start" x="831" y="-101.5" font-family="Helvetica,sans-Serif" font-size="10.00">fr.softsf.canscan.CanScan.update</text>
<text text-anchor="middle" x="905.62" y="-89.5" font-family="Helvetica,sans-Serif" font-size="10.00">GenerateButtonState</text>
</a>
</g>
</g>
<!-- Node24&#45;&gt;Node26 -->
<g id="edge29_Node000024_Node000026" class="edge">
<title>Node24&#45;&gt;Node26</title>
<g id="a_edge29_Node000024_Node000026"><a xlink:title=" ">
<path fill="none" stroke="#63b8ff" d="M738.89,-138.53C752.2,-135.87 766.38,-132.93 779.5,-130 795.89,-126.34 813.43,-122.16 830.03,-118.08"/>
<polygon fill="#63b8ff" stroke="#63b8ff" points="830.45,-121.59 839.32,-115.79 828.77,-114.79 830.45,-121.59"/>
</a>
</g>
</g>
<!-- Node27 -->
<g id="Node000027" class="node">
<title>Node27</title>
<g id="a_Node000027"><a xlink:href="classfr_1_1softsf_1_1canscan_1_1_can_scan.html#a3ce6e8b8bd62f20e8e8b9a744976c695" target="_top" xlink:title="Determines whether the &quot;Generate&quot; button should be disabled for the current mode.">
<polygon fill="white" stroke="#666666" points="1205.62,-115 1041.12,-115 1041.12,-83 1205.62,-83 1205.62,-115"/>
<text text-anchor="start" x="1049.12" y="-101.5" font-family="Helvetica,sans-Serif" font-size="10.00">fr.softsf.canscan.CanScan.should</text>
<text text-anchor="middle" x="1123.38" y="-89.5" font-family="Helvetica,sans-Serif" font-size="10.00">DisableGenerateButton</text>
</a>
</g>
</g>
<!-- Node26&#45;&gt;Node27 -->
<g id="edge30_Node000026_Node000027" class="edge">
<title>Node26&#45;&gt;Node27</title>
<g id="a_edge30_Node000026_Node000027"><a xlink:title=" ">
<path fill="none" stroke="#63b8ff" d="M988.5,-99C1001.91,-99 1015.89,-99 1029.54,-99"/>
<polygon fill="#63b8ff" stroke="#63b8ff" points="1029.4,-102.5 1039.4,-99 1029.4,-95.5 1029.4,-102.5"/>
</a>
</g>
</g>
<!-- Node33 -->
<g id="Node000033" class="node">
<title>Node33</title>
<g id="a_Node000033"><a xlink:href="classfr_1_1softsf_1_1canscan_1_1_can_scan.html#a0fe215984734bb1337dd49ca30238b78" target="_top" xlink:title="Sets the loader size so it matches the QR code label height and remains centered.">
<polygon fill="white" stroke="#666666" points="980.38,-32 830.88,-32 830.88,0 980.38,0 980.38,-32"/>
<text text-anchor="start" x="838.88" y="-18.5" font-family="Helvetica,sans-Serif" font-size="10.00">fr.softsf.canscan.CanScan.set</text>
<text text-anchor="middle" x="905.62" y="-6.5" font-family="Helvetica,sans-Serif" font-size="10.00">LoaderSize</text>
</a>
</g>
</g>
<!-- Node32&#45;&gt;Node33 -->
<g id="edge36_Node000032_Node000033" class="edge">
<title>Node32&#45;&gt;Node33</title>
<g id="a_edge36_Node000032_Node000033"><a xlink:title=" ">
<path fill="none" stroke="#63b8ff" d="M343.64,-24.78C355.59,-24.5 367.73,-24.23 379.25,-24 534.41,-20.89 715.36,-18.38 819.31,-17.05"/>
<polygon fill="#63b8ff" stroke="#63b8ff" points="819.2,-20.55 829.15,-16.92 819.11,-13.55 819.2,-20.55"/>
</a>
</g>
</g>
<!-- Node33&#45;&gt;Node8 -->
<g id="edge37_Node000033_Node000008" class="edge">
<title>Node33&#45;&gt;Node8</title>
<g id="a_edge37_Node000033_Node000008"><a xlink:title=" ">
<path fill="none" stroke="#63b8ff" d="M980.87,-19.79C994.96,-20.5 1009.89,-21.27 1024.57,-22.01"/>
<polygon fill="#63b8ff" stroke="#63b8ff" points="1024.06,-25.49 1034.22,-22.51 1024.42,-18.5 1024.06,-25.49"/>
</a>
</g>
</g>
</g>
</svg>
