<?xml version="1.0" encoding="UTF-8" standalone="no"?>
<!DOCTYPE svg PUBLIC "-//W3C//DTD SVG 1.1//EN"
 "http://www.w3.org/Graphics/SVG/1.1/DTD/svg11.dtd">
<!-- Generated by graphviz version 12.2.1 (20241206.2353)
 -->
<!-- Title: fr.softsf.canscan.CanScan.switchMode Pages: 1 -->
<svg width="988pt" height="190pt"
 viewBox="0.00 0.00 988.00 190.00" xmlns="http://www.w3.org/2000/svg" xmlns:xlink="http://www.w3.org/1999/xlink">
<g id="graph0" class="graph" transform="scale(1 1) rotate(0) translate(4 186)">
<title>fr.softsf.canscan.CanScan.switchMode</title>
<!-- Node1 -->
<g id="Node000001" class="node">
<title>Node1</title>
<g id="a_Node000001"><a xlink:title="Switches the application between MECARD and FREE QR code modes.">
<polygon fill="#999999" stroke="#666666" points="188.5,-151 0,-151 0,-131 188.5,-131 188.5,-151"/>
<text text-anchor="middle" x="94.25" y="-137.5" font-family="Helvetica,sans-Serif" font-size="10.00">fr.softsf.canscan.CanScan.switchMode</text>
</a>
</g>
</g>
<!-- Node2 -->
<g id="Node000002" class="node">
<title>Node2</title>
<g id="a_Node000002"><a xlink:href="enumfr_1_1softsf_1_1canscan_1_1model_1_1_mode.html#a16a898a11ca939056bd7b275f11ea54c" target="_top" xlink:title="Returns the name of the mode as a string.">
<polygon fill="white" stroke="#666666" points="368,-182 246.25,-182 246.25,-150 368,-150 368,-182"/>
<text text-anchor="start" x="254.25" y="-168.5" font-family="Helvetica,sans-Serif" font-size="10.00">fr.softsf.canscan.model.</text>
<text text-anchor="middle" x="307.12" y="-156.5" font-family="Helvetica,sans-Serif" font-size="10.00">Mode.text</text>
</a>
</g>
</g>
<!-- Node1&#45;&gt;Node2 -->
<g id="edge1_Node000001_Node000002" class="edge">
<title>Node1&#45;&gt;Node2</title>
<g id="a_edge1_Node000001_Node000002"><a xlink:title=" ">
<path fill="none" stroke="#63b8ff" d="M183.76,-151.49C200.8,-153.51 218.44,-155.6 234.84,-157.55"/>
<polygon fill="#63b8ff" stroke="#63b8ff" points="234.13,-160.99 244.47,-158.69 234.95,-154.04 234.13,-160.99"/>
</a>
</g>
</g>
<!-- Node3 -->
<g id="Node000003" class="node">
<title>Node3</title>
<g id="a_Node000003"><a xlink:href="classfr_1_1softsf_1_1canscan_1_1_can_scan.html#a9ac2e28615c970404a4408245e62a6fc" target="_top" xlink:title="Schedules a debounced QR code preview update based on the current input and settings.">
<polygon fill="white" stroke="#666666" points="389.75,-132 224.5,-132 224.5,-100 389.75,-100 389.75,-132"/>
<text text-anchor="start" x="232.5" y="-118.5" font-family="Helvetica,sans-Serif" font-size="10.00">fr.softsf.canscan.CanScan.update</text>
<text text-anchor="middle" x="307.12" y="-106.5" font-family="Helvetica,sans-Serif" font-size="10.00">PreviewQRCode</text>
</a>
</g>
</g>
<!-- Node1&#45;&gt;Node3 -->
<g id="edge2_Node000001_Node000003" class="edge">
<title>Node1&#45;&gt;Node3</title>
<g id="a_edge2_Node000001_Node000003"><a xlink:title=" ">
<path fill="none" stroke="#63b8ff" d="M183.76,-130.51C193.4,-129.36 203.24,-128.2 212.93,-127.05"/>
<polygon fill="#63b8ff" stroke="#63b8ff" points="213.21,-130.54 222.72,-125.89 212.38,-123.59 213.21,-130.54"/>
</a>
</g>
</g>
<!-- Node4 -->
<g id="Node000004" class="node">
<title>Node4</title>
<g id="a_Node000004"><a xlink:href="classfr_1_1softsf_1_1canscan_1_1_can_scan.html#aba5b2671745886284c444b8e3bec80e2" target="_top" xlink:title="Frees the QR code image and its label icon to release memory.">
<polygon fill="white" stroke="#666666" points="580.88,-157 428.38,-157 428.38,-125 580.88,-125 580.88,-157"/>
<text text-anchor="start" x="436.38" y="-143.5" font-family="Helvetica,sans-Serif" font-size="10.00">fr.softsf.canscan.CanScan.free</text>
<text text-anchor="middle" x="504.62" y="-131.5" font-family="Helvetica,sans-Serif" font-size="10.00">QrOriginalAndQrCodeLabel</text>
</a>
</g>
</g>
<!-- Node3&#45;&gt;Node4 -->
<g id="edge3_Node000003_Node000004" class="edge">
<title>Node3&#45;&gt;Node4</title>
<g id="a_edge3_Node000003_Node000004"><a xlink:title=" ">
<path fill="none" stroke="#63b8ff" d="M390.18,-126.49C399,-127.62 407.99,-128.77 416.86,-129.91"/>
<polygon fill="#63b8ff" stroke="#63b8ff" points="416.14,-133.34 426.51,-131.14 417.03,-126.4 416.14,-133.34"/>
</a>
</g>
</g>
<!-- Node5 -->
<g id="Node000005" class="node">
<title>Node5</title>
<g id="a_Node000005"><a xlink:href="classfr_1_1softsf_1_1canscan_1_1_can_scan.html#a42d6a5e11bc8f147bed036366316564f" target="_top" xlink:title="Clears the current QR code display and starts a background worker to generate a new preview.">
<polygon fill="white" stroke="#666666" points="583.5,-107 425.75,-107 425.75,-75 583.5,-75 583.5,-107"/>
<text text-anchor="start" x="433.75" y="-93.5" font-family="Helvetica,sans-Serif" font-size="10.00">fr.softsf.canscan.CanScan.reset</text>
<text text-anchor="middle" x="504.62" y="-81.5" font-family="Helvetica,sans-Serif" font-size="10.00">AndStartPreviewWorker</text>
</a>
</g>
</g>
<!-- Node3&#45;&gt;Node5 -->
<g id="edge4_Node000003_Node000005" class="edge">
<title>Node3&#45;&gt;Node5</title>
<g id="a_edge4_Node000003_Node000005"><a xlink:title=" ">
<path fill="none" stroke="#63b8ff" d="M390.18,-105.51C398.14,-104.49 406.24,-103.45 414.26,-102.43"/>
<polygon fill="#63b8ff" stroke="#63b8ff" points="414.55,-105.92 424.02,-101.18 413.66,-98.98 414.55,-105.92"/>
</a>
</g>
</g>
<!-- Node6 -->
<g id="Node000006" class="node">
<title>Node6</title>
<g id="a_Node000006"><a xlink:href="classfr_1_1softsf_1_1canscan_1_1_can_scan.html#a2d26dcd1ae708eae46dba8952351aa1a" target="_top" xlink:title="Builds and returns a QrInput object containing all current user inputs and settings.">
<polygon fill="white" stroke="#666666" points="769,-107 619.5,-107 619.5,-75 769,-75 769,-107"/>
<text text-anchor="start" x="627.5" y="-93.5" font-family="Helvetica,sans-Serif" font-size="10.00">fr.softsf.canscan.CanScan.get</text>
<text text-anchor="middle" x="694.25" y="-81.5" font-family="Helvetica,sans-Serif" font-size="10.00">QrInput</text>
</a>
</g>
</g>
<!-- Node5&#45;&gt;Node6 -->
<g id="edge5_Node000005_Node000006" class="edge">
<title>Node5&#45;&gt;Node6</title>
<g id="a_edge5_Node000005_Node000006"><a xlink:title=" ">
<path fill="none" stroke="#63b8ff" d="M583.84,-91C591.67,-91 599.66,-91 607.57,-91"/>
<polygon fill="#63b8ff" stroke="#63b8ff" points="607.56,-94.5 617.56,-91 607.56,-87.5 607.56,-94.5"/>
</a>
</g>
</g>
<!-- Node7 -->
<g id="Node000007" class="node">
<title>Node7</title>
<g id="a_Node000007"><a xlink:href="classfr_1_1softsf_1_1canscan_1_1_can_scan.html#a22606ca129489c778fbbe17cb8b70697" target="_top" xlink:title="Calculates the available height for QR code rendering.">
<polygon fill="white" stroke="#666666" points="980,-182 805,-182 805,-150 980,-150 980,-182"/>
<text text-anchor="start" x="813" y="-168.5" font-family="Helvetica,sans-Serif" font-size="10.00">fr.softsf.canscan.CanScan.calculate</text>
<text text-anchor="middle" x="892.5" y="-156.5" font-family="Helvetica,sans-Serif" font-size="10.00">AvailableQrHeight</text>
</a>
</g>
</g>
<!-- Node6&#45;&gt;Node7 -->
<g id="edge6_Node000006_Node000007" class="edge">
<title>Node6&#45;&gt;Node7</title>
<g id="a_edge6_Node000006_Node000007"><a xlink:title=" ">
<path fill="none" stroke="#63b8ff" d="M727.86,-107.38C749.42,-117.82 778.49,-131.19 805,-141 809.87,-142.8 814.94,-144.56 820.07,-146.25"/>
<polygon fill="#63b8ff" stroke="#63b8ff" points="818.61,-149.46 829.2,-149.17 820.74,-142.79 818.61,-149.46"/>
</a>
</g>
</g>
<!-- Node8 -->
<g id="Node000008" class="node">
<title>Node8</title>
<g id="a_Node000008"><a xlink:href="classfr_1_1softsf_1_1canscan_1_1_can_scan.html#a4e67b1b5c764e72414a5c0f387810f5c" target="_top" xlink:title="Validates and returns the current QR code margin from the margin slider.">
<polygon fill="white" stroke="#666666" points="977.38,-132 807.62,-132 807.62,-100 977.38,-100 977.38,-132"/>
<text text-anchor="start" x="815.62" y="-118.5" font-family="Helvetica,sans-Serif" font-size="10.00">fr.softsf.canscan.CanScan.validate</text>
<text text-anchor="middle" x="892.5" y="-106.5" font-family="Helvetica,sans-Serif" font-size="10.00">AndGetMargin</text>
</a>
</g>
</g>
<!-- Node6&#45;&gt;Node8 -->
<g id="edge7_Node000006_Node000008" class="edge">
<title>Node6&#45;&gt;Node8</title>
<g id="a_edge7_Node000006_Node000008"><a xlink:title=" ">
<path fill="none" stroke="#63b8ff" d="M769.44,-100.45C778.14,-101.56 787.11,-102.7 796.05,-103.84"/>
<polygon fill="#63b8ff" stroke="#63b8ff" points="795.47,-107.3 805.83,-105.09 796.35,-100.35 795.47,-107.3"/>
</a>
</g>
</g>
<!-- Node9 -->
<g id="Node000009" class="node">
<title>Node9</title>
<g id="a_Node000009"><a xlink:href="classfr_1_1softsf_1_1canscan_1_1_can_scan.html#a9e8188875168199cde065113ae2a393d" target="_top" xlink:title="Validates and returns the current image&#45;to&#45;QR ratio from the ratio slider.">
<polygon fill="white" stroke="#666666" points="977.38,-82 807.62,-82 807.62,-50 977.38,-50 977.38,-82"/>
<text text-anchor="start" x="815.62" y="-68.5" font-family="Helvetica,sans-Serif" font-size="10.00">fr.softsf.canscan.CanScan.validate</text>
<text text-anchor="middle" x="892.5" y="-56.5" font-family="Helvetica,sans-Serif" font-size="10.00">AndGetRatio</text>
</a>
</g>
</g>
<!-- Node6&#45;&gt;Node9 -->
<g id="edge8_Node000006_Node000009" class="edge">
<title>Node6&#45;&gt;Node9</title>
<g id="a_edge8_Node000006_Node000009"><a xlink:title=" ">
<path fill="none" stroke="#63b8ff" d="M769.44,-81.55C778.14,-80.44 787.11,-79.3 796.05,-78.16"/>
<polygon fill="#63b8ff" stroke="#63b8ff" points="796.35,-81.65 805.83,-76.91 795.47,-74.7 796.35,-81.65"/>
</a>
</g>
</g>
<!-- Node10 -->
<g id="Node000010" class="node">
<title>Node10</title>
<g id="a_Node000010"><a xlink:href="classfr_1_1softsf_1_1canscan_1_1_can_scan.html#a6d139bb8d0a3c7081096c8956189b684" target="_top" xlink:title="Validates and returns the QR code size from the corresponding text field.">
<polygon fill="white" stroke="#666666" points="977.38,-32 807.62,-32 807.62,0 977.38,0 977.38,-32"/>
<text text-anchor="start" x="815.62" y="-18.5" font-family="Helvetica,sans-Serif" font-size="10.00">fr.softsf.canscan.CanScan.validate</text>
<text text-anchor="middle" x="892.5" y="-6.5" font-family="Helvetica,sans-Serif" font-size="10.00">AndGetSize</text>
</a>
</g>
</g>
<!-- Node6&#45;&gt;Node10 -->
<g id="edge9_Node000006_Node000010" class="edge">
<title>Node6&#45;&gt;Node10</title>
<g id="a_edge9_Node000006_Node000010"><a xlink:title=" ">
<path fill="none" stroke="#63b8ff" d="M727.86,-74.62C749.42,-64.18 778.49,-50.81 805,-41 809.87,-39.2 814.94,-37.44 820.07,-35.75"/>
<polygon fill="#63b8ff" stroke="#63b8ff" points="820.74,-39.21 829.2,-32.83 818.61,-32.54 820.74,-39.21"/>
</a>
</g>
</g>
</g>
</svg>
