<?xml version="1.0" encoding="UTF-8" standalone="no"?>
<!DOCTYPE svg PUBLIC "-//W3C//DTD SVG 1.1//EN"
 "http://www.w3.org/Graphics/SVG/1.1/DTD/svg11.dtd">
<!-- Generated by graphviz version 12.2.1 (20241206.2353)
 -->
<!-- Title: fr.softsf.canscan.ui.worker.GenerateAndSaveWorker.done Pages: 1 -->
<svg width="771pt" height="165pt"
 viewBox="0.00 0.00 771.00 165.00" xmlns="http://www.w3.org/2000/svg" xmlns:xlink="http://www.w3.org/1999/xlink">
<g id="page0,1_graph0" class="graph" transform="scale(1 1) rotate(0) translate(4 161)">
<title>fr.softsf.canscan.ui.worker.GenerateAndSaveWorker.done</title>
<!-- Node1 -->
<g id="Node000001" class="node">
<title>Node1</title>
<g id="a_Node000001"><a xlink:title="Handles the completion of the background task.">
<polygon fill="#999999" stroke="#666666" points="150.25,-107 0,-107 0,-75 150.25,-75 150.25,-107"/>
<text text-anchor="start" x="8" y="-93.5" font-family="Helvetica,sans-Serif" font-size="10.00">fr.softsf.canscan.ui.worker.</text>
<text text-anchor="middle" x="75.12" y="-81.5" font-family="Helvetica,sans-Serif" font-size="10.00">GenerateAndSaveWorker.done</text>
</a>
</g>
</g>
<!-- Node2 -->
<g id="Node000002" class="node">
<title>Node2</title>
<g id="a_Node000002"><a xlink:href="classfr_1_1softsf_1_1canscan_1_1ui_1_1worker_1_1_generate_and_save_worker.html#a1f72dcb35fac027651a43af262249d61" target="_top" xlink:title="Handles execution errors by displaying the appropriate error message.">
<polygon fill="white" stroke="#666666" points="408.5,-157 186.25,-157 186.25,-125 408.5,-125 408.5,-157"/>
<text text-anchor="start" x="194.25" y="-143.5" font-family="Helvetica,sans-Serif" font-size="10.00">fr.softsf.canscan.ui.worker.</text>
<text text-anchor="middle" x="297.38" y="-131.5" font-family="Helvetica,sans-Serif" font-size="10.00">GenerateAndSaveWorker.handleExecutionError</text>
</a>
</g>
</g>
<!-- Node1&#45;&gt;Node2 -->
<g id="edge1_Node000001_Node000002" class="edge">
<title>Node1&#45;&gt;Node2</title>
<g id="a_edge1_Node000001_Node000002"><a xlink:title=" ">
<path fill="none" stroke="#63b8ff" d="M148.55,-107.44C169.15,-112.12 191.76,-117.25 212.97,-122.07"/>
<polygon fill="#63b8ff" stroke="#63b8ff" points="211.91,-125.41 222.43,-124.21 213.46,-118.59 211.91,-125.41"/>
</a>
</g>
</g>
<!-- Node3 -->
<g id="Node000003" class="node">
<title>Node3</title>
<g id="a_Node000003"><a xlink:href="classfr_1_1softsf_1_1canscan_1_1ui_1_1worker_1_1_generate_and_save_worker.html#aa957d875f8642b9682a5745cfc2bf000" target="_top" xlink:title="Handles thread interruption by restoring the interrupt status and displaying an error dialog.">
<polygon fill="white" stroke="#666666" points="400.62,-107 194.12,-107 194.12,-75 400.62,-75 400.62,-107"/>
<text text-anchor="start" x="202.12" y="-93.5" font-family="Helvetica,sans-Serif" font-size="10.00">fr.softsf.canscan.ui.worker.</text>
<text text-anchor="middle" x="297.38" y="-81.5" font-family="Helvetica,sans-Serif" font-size="10.00">GenerateAndSaveWorker.handleInterruption</text>
</a>
</g>
</g>
<!-- Node1&#45;&gt;Node3 -->
<g id="edge2_Node000001_Node000003" class="edge">
<title>Node1&#45;&gt;Node3</title>
<g id="a_edge2_Node000001_Node000003"><a xlink:title=" ">
<path fill="none" stroke="#63b8ff" d="M150.69,-91C160.97,-91 171.72,-91 182.51,-91"/>
<polygon fill="#63b8ff" stroke="#63b8ff" points="182.24,-94.5 192.24,-91 182.24,-87.5 182.24,-94.5"/>
</a>
</g>
</g>
<!-- Node4 -->
<g id="Node000004" class="node">
<title>Node4</title>
<g id="a_Node000004"><a xlink:href="classfr_1_1softsf_1_1canscan_1_1ui_1_1worker_1_1_generate_and_save_worker.html#abc16f79cac34059c9e5ced8d08da3504" target="_top" xlink:title="Handles successful QR code generation by updating the original image and displaying a confirmation di...">
<polygon fill="white" stroke="#666666" points="395.38,-57 199.38,-57 199.38,-25 395.38,-25 395.38,-57"/>
<text text-anchor="start" x="207.38" y="-43.5" font-family="Helvetica,sans-Serif" font-size="10.00">fr.softsf.canscan.ui.worker.</text>
<text text-anchor="middle" x="297.38" y="-31.5" font-family="Helvetica,sans-Serif" font-size="10.00">GenerateAndSaveWorker.handleSuccess</text>
</a>
</g>
</g>
<!-- Node1&#45;&gt;Node4 -->
<g id="edge3_Node000001_Node000004" class="edge">
<title>Node1&#45;&gt;Node4</title>
<g id="a_edge3_Node000001_Node000004"><a xlink:title=" ">
<path fill="none" stroke="#63b8ff" d="M148.55,-74.56C169.15,-69.88 191.76,-64.75 212.97,-59.93"/>
<polygon fill="#63b8ff" stroke="#63b8ff" points="213.46,-63.41 222.43,-57.79 211.91,-56.59 213.46,-63.41"/>
</a>
</g>
</g>
<!-- Node5 -->
<g id="Node000005" class="node">
<title>Node5</title>
<g id="a_Node000005"><a xlink:href="classfr_1_1softsf_1_1canscan_1_1ui_1_1_encoded_image.html#ac0cfbc18aa43c23ef8d22f24fd5f2c7f" target="_top" xlink:title="Updates the QR code image using a defensive copy.">
<polygon fill="white" stroke="#666666" points="585.75,-57 444.5,-57 444.5,-25 585.75,-25 585.75,-57"/>
<text text-anchor="start" x="452.5" y="-43.5" font-family="Helvetica,sans-Serif" font-size="10.00">fr.softsf.canscan.ui.Encoded</text>
<text text-anchor="middle" x="515.12" y="-31.5" font-family="Helvetica,sans-Serif" font-size="10.00">Image.updateQrOriginal</text>
</a>
</g>
</g>
<!-- Node4&#45;&gt;Node5 -->
<g id="edge4_Node000004_Node000005" class="edge">
<title>Node4&#45;&gt;Node5</title>
<g id="a_edge4_Node000004_Node000005"><a xlink:title=" ">
<path fill="none" stroke="#63b8ff" d="M395.84,-41C408.19,-41 420.73,-41 432.8,-41"/>
<polygon fill="#63b8ff" stroke="#63b8ff" points="432.69,-44.5 442.69,-41 432.69,-37.5 432.69,-44.5"/>
</a>
</g>
</g>
<!-- Node6 -->
<g id="Node000006" class="node">
<title>Node6</title>
<g id="a_Node000006"><a xlink:href="classfr_1_1softsf_1_1canscan_1_1ui_1_1_encoded_image.html#a85e20778f91dad2dbf3e67ded698db16" target="_top" xlink:title="Creates a defensive copy of the source image.">
<polygon fill="white" stroke="#666666" points="763,-82 621.75,-82 621.75,-50 763,-50 763,-82"/>
<text text-anchor="start" x="629.75" y="-68.5" font-family="Helvetica,sans-Serif" font-size="10.00">fr.softsf.canscan.ui.Encoded</text>
<text text-anchor="middle" x="692.38" y="-56.5" font-family="Helvetica,sans-Serif" font-size="10.00">Image.createDefensiveCopy</text>
</a>
</g>
</g>
<!-- Node5&#45;&gt;Node6 -->
<g id="edge5_Node000005_Node000006" class="edge">
<title>Node5&#45;&gt;Node6</title>
<g id="a_edge5_Node000005_Node000006"><a xlink:title=" ">
<path fill="none" stroke="#63b8ff" d="M586.14,-50.99C594.05,-52.12 602.15,-53.27 610.19,-54.42"/>
<polygon fill="#63b8ff" stroke="#63b8ff" points="609.57,-57.87 619.97,-55.81 610.56,-50.94 609.57,-57.87"/>
</a>
</g>
</g>
<!-- Node7 -->
<g id="Node000007" class="node">
<title>Node7</title>
<g id="a_Node000007"><a xlink:href="classfr_1_1softsf_1_1canscan_1_1ui_1_1_encoded_image.html#a1f675a96edbc6fb8d417920bd4e26c41" target="_top" xlink:title="Releases the current QR code image and its resources.">
<polygon fill="white" stroke="#666666" points="763,-32 621.75,-32 621.75,0 763,0 763,-32"/>
<text text-anchor="start" x="629.75" y="-18.5" font-family="Helvetica,sans-Serif" font-size="10.00">fr.softsf.canscan.ui.Encoded</text>
<text text-anchor="middle" x="692.38" y="-6.5" font-family="Helvetica,sans-Serif" font-size="10.00">Image.freeQrOriginal</text>
</a>
</g>
</g>
<!-- Node5&#45;&gt;Node7 -->
<g id="edge6_Node000005_Node000007" class="edge">
<title>Node5&#45;&gt;Node7</title>
<g id="a_edge6_Node000005_Node000007"><a xlink:title=" ">
<path fill="none" stroke="#63b8ff" d="M586.14,-31.01C594.05,-29.88 602.15,-28.73 610.19,-27.58"/>
<polygon fill="#63b8ff" stroke="#63b8ff" points="610.56,-31.06 619.97,-26.19 609.57,-24.13 610.56,-31.06"/>
</a>
</g>
</g>
</g>
</svg>
