<?xml version="1.0" encoding="UTF-8" standalone="no"?>
<!DOCTYPE svg PUBLIC "-//W3C//DTD SVG 1.1//EN"
 "http://www.w3.org/Graphics/SVG/1.1/DTD/svg11.dtd">
<!-- Generated by graphviz version 12.2.1 (20241206.2353)
 -->
<!-- Title: fr.softsf.canscan.CanScan.initializeTitle Pages: 1 -->
<svg width="1611pt" height="372pt"
 viewBox="0.00 0.00 1610.50 372.00" xmlns="http://www.w3.org/2000/svg" xmlns:xlink="http://www.w3.org/1999/xlink">
<g id="graph0" class="graph" transform="scale(1 1) rotate(0) translate(4 368)">
<title>fr.softsf.canscan.CanScan.initializeTitle</title>
<!-- Node1 -->
<g id="Node000001" class="node">
<title>Node1</title>
<g id="a_Node000001"><a xlink:title="Builds the application window title from version metadata.">
<polygon fill="#999999" stroke="#666666" points="171.25,-157 0,-157 0,-125 171.25,-125 171.25,-157"/>
<text text-anchor="start" x="8" y="-143.5" font-family="Helvetica,sans-Serif" font-size="10.00">fr.softsf.canscan.CanScan.initialize</text>
<text text-anchor="middle" x="85.62" y="-131.5" font-family="Helvetica,sans-Serif" font-size="10.00">Title</text>
</a>
</g>
</g>
<!-- Node2 -->
<g id="Node000002" class="node">
<title>Node2</title>
<g id="a_Node000002"><a xlink:href="classfr_1_1softsf_1_1canscan_1_1_can_scan.html#aefe4d08d96fdc7b2097daf4033bbbb9c" target="_top" xlink:title="Loads application metadata from version.properties.">
<polygon fill="white" stroke="#666666" points="356.75,-179 207.25,-179 207.25,-147 356.75,-147 356.75,-179"/>
<text text-anchor="start" x="215.25" y="-165.5" font-family="Helvetica,sans-Serif" font-size="10.00">fr.softsf.canscan.CanScan.get</text>
<text text-anchor="middle" x="282" y="-153.5" font-family="Helvetica,sans-Serif" font-size="10.00">ManifestKeys</text>
</a>
</g>
</g>
<!-- Node1&#45;&gt;Node2 -->
<g id="edge1_Node000001_Node000002" class="edge">
<title>Node1&#45;&gt;Node2</title>
<g id="a_edge1_Node000001_Node000002"><a xlink:title=" ">
<path fill="none" stroke="#63b8ff" d="M171.6,-150.62C179.58,-151.52 187.68,-152.44 195.67,-153.34"/>
<polygon fill="#63b8ff" stroke="#63b8ff" points="195.03,-156.79 205.36,-154.44 195.82,-149.84 195.03,-156.79"/>
</a>
</g>
</g>
<!-- Node3 -->
<g id="Node000003" class="node">
<title>Node3</title>
<g id="a_Node000003"><a xlink:href="classfr_1_1softsf_1_1canscan_1_1_can_scan.html#a102bcbc6cda608b642e870ba3fde6344" target="_top" xlink:title="Initializes the CanScan GUI.">
<polygon fill="white" stroke="#666666" points="528.75,-157 392.75,-157 392.75,-125 528.75,-125 528.75,-157"/>
<text text-anchor="start" x="400.75" y="-143.5" font-family="Helvetica,sans-Serif" font-size="10.00">fr.softsf.canscan.CanScan.</text>
<text text-anchor="middle" x="460.75" y="-131.5" font-family="Helvetica,sans-Serif" font-size="10.00">CanScan</text>
</a>
</g>
</g>
<!-- Node2&#45;&gt;Node3 -->
<g id="edge2_Node000002_Node000003" class="edge">
<title>Node2&#45;&gt;Node3</title>
<g id="a_edge2_Node000002_Node000003"><a xlink:title=" ">
<path fill="none" stroke="#63b8ff" d="M357.19,-153.77C365.15,-152.77 373.27,-151.76 381.28,-150.77"/>
<polygon fill="#63b8ff" stroke="#63b8ff" points="381.51,-154.27 391,-149.56 380.65,-147.32 381.51,-154.27"/>
</a>
</g>
</g>
<!-- Node3&#45;&gt;Node1 -->
<g id="edge30_Node000003_Node000001" class="edge">
<title>Node3&#45;&gt;Node1</title>
<g id="a_edge30_Node000003_Node000001"><a xlink:title=" ">
<path fill="none" stroke="#63b8ff" d="M392.44,-138.76C380.55,-138.44 368.29,-138.17 356.75,-138 290.31,-137.03 273.69,-137.17 207.25,-138 199.33,-138.1 191.12,-138.23 182.87,-138.39"/>
<polygon fill="#63b8ff" stroke="#63b8ff" points="183.07,-134.89 173.15,-138.59 183.22,-141.89 183.07,-134.89"/>
</a>
</g>
</g>
<!-- Node4 -->
<g id="Node000004" class="node">
<title>Node4</title>
<g id="a_Node000004"><a xlink:href="classfr_1_1softsf_1_1canscan_1_1_can_scan.html#a070115929fdc69b249d21866a00a47cc" target="_top" xlink:title="Assigns component names for identification.">
<polygon fill="white" stroke="#666666" points="736,-270 564.75,-270 564.75,-238 736,-238 736,-270"/>
<text text-anchor="start" x="572.75" y="-256.5" font-family="Helvetica,sans-Serif" font-size="10.00">fr.softsf.canscan.CanScan.initialize</text>
<text text-anchor="middle" x="650.38" y="-244.5" font-family="Helvetica,sans-Serif" font-size="10.00">ComponentNames</text>
</a>
</g>
</g>
<!-- Node3&#45;&gt;Node4 -->
<g id="edge3_Node000003_Node000004" class="edge">
<title>Node3&#45;&gt;Node4</title>
<g id="a_edge3_Node000003_Node000004"><a xlink:title=" ">
<path fill="none" stroke="#63b8ff" d="M478.3,-157.34C497.64,-175.67 531.27,-205.29 564.75,-224 570.82,-227.39 577.35,-230.51 583.99,-233.36"/>
<polygon fill="#63b8ff" stroke="#63b8ff" points="582.48,-236.52 593.06,-237.02 585.1,-230.03 582.48,-236.52"/>
</a>
</g>
</g>
<!-- Node5 -->
<g id="Node000005" class="node">
<title>Node5</title>
<g id="a_Node000005"><a xlink:href="classfr_1_1softsf_1_1canscan_1_1_can_scan.html#a14263ca931024d56cd9bed4af4b74c25" target="_top" xlink:title="Builds the main panel with header, QR preview overlay, and spacer.">
<polygon fill="white" stroke="#666666" points="943.25,-326 772,-326 772,-294 943.25,-294 943.25,-326"/>
<text text-anchor="start" x="780" y="-312.5" font-family="Helvetica,sans-Serif" font-size="10.00">fr.softsf.canscan.CanScan.initialize</text>
<text text-anchor="middle" x="857.62" y="-300.5" font-family="Helvetica,sans-Serif" font-size="10.00">MainPanel</text>
</a>
</g>
</g>
<!-- Node3&#45;&gt;Node5 -->
<g id="edge4_Node000003_Node000005" class="edge">
<title>Node3&#45;&gt;Node5</title>
<g id="a_edge4_Node000003_Node000005"><a xlink:title=" ">
<path fill="none" stroke="#63b8ff" d="M490.72,-157.33C510.94,-168.15 538.85,-181.98 564.75,-191 638.37,-216.64 672.05,-184.41 736,-229 760.27,-245.92 748.33,-267.25 772,-285 773.52,-286.14 775.08,-287.22 776.7,-288.26"/>
<polygon fill="#63b8ff" stroke="#63b8ff" points="774.57,-291.08 785.01,-292.93 778.01,-284.98 774.57,-291.08"/>
</a>
</g>
</g>
<!-- Node13 -->
<g id="Node000013" class="node">
<title>Node13</title>
<g id="a_Node000013"><a xlink:href="classfr_1_1softsf_1_1canscan_1_1_can_scan.html#afb8d451dc5d6d9c7b6700e4b688c98a3" target="_top" xlink:title="Builds the north panel containing mode selection, card panels, common fields, and the generate button...">
<polygon fill="white" stroke="#666666" points="736,-182 564.75,-182 564.75,-150 736,-150 736,-182"/>
<text text-anchor="start" x="572.75" y="-168.5" font-family="Helvetica,sans-Serif" font-size="10.00">fr.softsf.canscan.CanScan.initialize</text>
<text text-anchor="middle" x="650.38" y="-156.5" font-family="Helvetica,sans-Serif" font-size="10.00">NorthPanel</text>
</a>
</g>
</g>
<!-- Node3&#45;&gt;Node13 -->
<g id="edge13_Node000003_Node000013" class="edge">
<title>Node3&#45;&gt;Node13</title>
<g id="a_edge13_Node000003_Node000013"><a xlink:title=" ">
<path fill="none" stroke="#63b8ff" d="M529.22,-149.99C537.01,-151.03 545.05,-152.1 553.12,-153.17"/>
<polygon fill="#63b8ff" stroke="#63b8ff" points="552.65,-156.64 563.02,-154.49 553.57,-149.7 552.65,-156.64"/>
</a>
</g>
</g>
<!-- Node26 -->
<g id="Node000026" class="node">
<title>Node26</title>
<g id="a_Node000026"><a xlink:href="classfr_1_1softsf_1_1canscan_1_1_can_scan.html#a4928478365bc812571ac037662cc5f6b" target="_top" xlink:title="Wraps the main panel in a scrollable container.">
<polygon fill="white" stroke="#666666" points="736,-132 564.75,-132 564.75,-100 736,-100 736,-132"/>
<text text-anchor="start" x="572.75" y="-118.5" font-family="Helvetica,sans-Serif" font-size="10.00">fr.softsf.canscan.CanScan.initialize</text>
<text text-anchor="middle" x="650.38" y="-106.5" font-family="Helvetica,sans-Serif" font-size="10.00">ScrollPane</text>
</a>
</g>
</g>
<!-- Node3&#45;&gt;Node26 -->
<g id="edge28_Node000003_Node000026" class="edge">
<title>Node3&#45;&gt;Node26</title>
<g id="a_edge28_Node000003_Node000026"><a xlink:title=" ">
<path fill="none" stroke="#63b8ff" d="M529.22,-132.01C537.01,-130.97 545.05,-129.9 553.12,-128.83"/>
<polygon fill="#63b8ff" stroke="#63b8ff" points="553.57,-132.3 563.02,-127.51 552.65,-125.36 553.57,-132.3"/>
</a>
</g>
</g>
<!-- Node27 -->
<g id="Node000027" class="node">
<title>Node27</title>
<g id="a_Node000027"><a xlink:href="classfr_1_1softsf_1_1canscan_1_1_can_scan.html#a358629f85831dc6cd4978c8854d88561" target="_top" xlink:title="Configures sliders for logo margin and ratio.">
<polygon fill="white" stroke="#666666" points="736,-82 564.75,-82 564.75,-50 736,-50 736,-82"/>
<text text-anchor="start" x="572.75" y="-68.5" font-family="Helvetica,sans-Serif" font-size="10.00">fr.softsf.canscan.CanScan.initialize</text>
<text text-anchor="middle" x="650.38" y="-56.5" font-family="Helvetica,sans-Serif" font-size="10.00">Sliders</text>
</a>
</g>
</g>
<!-- Node3&#45;&gt;Node27 -->
<g id="edge29_Node000003_Node000027" class="edge">
<title>Node3&#45;&gt;Node27</title>
<g id="a_edge29_Node000003_Node000027"><a xlink:title=" ">
<path fill="none" stroke="#63b8ff" d="M492.26,-124.55C512.45,-114.07 539.73,-100.69 564.75,-91 569.17,-89.29 573.76,-87.62 578.41,-86.02"/>
<polygon fill="#63b8ff" stroke="#63b8ff" points="579.49,-89.35 587.88,-82.88 577.29,-82.71 579.49,-89.35"/>
</a>
</g>
</g>
<!-- Node28 -->
<g id="Node000028" class="node">
<title>Node28</title>
<g id="a_Node000028"><a xlink:href="classfr_1_1softsf_1_1canscan_1_1_can_scan.html#a0a52159db640660477196e337ec62a9b" target="_top" xlink:title="Finalizes window layout and appearance.">
<polygon fill="white" stroke="#666666" points="736,-32 564.75,-32 564.75,0 736,0 736,-32"/>
<text text-anchor="start" x="572.75" y="-18.5" font-family="Helvetica,sans-Serif" font-size="10.00">fr.softsf.canscan.CanScan.initialize</text>
<text text-anchor="middle" x="650.38" y="-6.5" font-family="Helvetica,sans-Serif" font-size="10.00">Window</text>
</a>
</g>
</g>
<!-- Node3&#45;&gt;Node28 -->
<g id="edge31_Node000003_Node000028" class="edge">
<title>Node3&#45;&gt;Node28</title>
<g id="a_edge31_Node000003_Node000028"><a xlink:title=" ">
<path fill="none" stroke="#63b8ff" d="M474.24,-124.67C492.01,-102.54 526.66,-63.26 564.75,-41 567.09,-39.63 569.52,-38.33 572,-37.1"/>
<polygon fill="#63b8ff" stroke="#63b8ff" points="573.41,-40.3 581.1,-33.02 570.54,-33.91 573.41,-40.3"/>
</a>
</g>
</g>
<!-- Node6 -->
<g id="Node000006" class="node">
<title>Node6</title>
<g id="a_Node000006"><a xlink:href="classfr_1_1softsf_1_1canscan_1_1_can_scan.html#ad470e3c0750cf142dc611b1aeeda3a97" target="_top" xlink:title="Attaches automatic QR code preview updates to all input fields and controls.">
<polygon fill="white" stroke="#666666" points="1172.25,-364 979.25,-364 979.25,-332 1172.25,-332 1172.25,-364"/>
<text text-anchor="start" x="987.25" y="-350.5" font-family="Helvetica,sans-Serif" font-size="10.00">fr.softsf.canscan.CanScan.automatic</text>
<text text-anchor="middle" x="1075.75" y="-338.5" font-family="Helvetica,sans-Serif" font-size="10.00">QRCodeRenderingForFieldsAndControls</text>
</a>
</g>
</g>
<!-- Node5&#45;&gt;Node6 -->
<g id="edge5_Node000005_Node000006" class="edge">
<title>Node5&#45;&gt;Node6</title>
<g id="a_edge5_Node000005_Node000006"><a xlink:title=" ">
<path fill="none" stroke="#63b8ff" d="M943.73,-324.96C952.37,-326.48 961.21,-328.04 970.03,-329.59"/>
<polygon fill="#63b8ff" stroke="#63b8ff" points="969.21,-333 979.67,-331.28 970.42,-326.1 969.21,-333"/>
</a>
</g>
</g>
<!-- Node8 -->
<g id="Node000008" class="node">
<title>Node8</title>
<g id="a_Node000008"><a xlink:href="classfr_1_1softsf_1_1canscan_1_1_can_scan.html#a180290bc488e2346592ded98ccc4b1f3" target="_top" xlink:title="Collects current input and visual settings into a WholeFields for QR code generation.">
<polygon fill="white" stroke="#666666" points="1374.62,-200 1225.12,-200 1225.12,-168 1374.62,-168 1374.62,-200"/>
<text text-anchor="start" x="1233.12" y="-186.5" font-family="Helvetica,sans-Serif" font-size="10.00">fr.softsf.canscan.CanScan.get</text>
<text text-anchor="middle" x="1299.88" y="-174.5" font-family="Helvetica,sans-Serif" font-size="10.00">QrInput</text>
</a>
</g>
</g>
<!-- Node5&#45;&gt;Node8 -->
<g id="edge12_Node000005_Node000008" class="edge">
<title>Node5&#45;&gt;Node8</title>
<g id="a_edge12_Node000005_Node000008"><a xlink:title=" ">
<path fill="none" stroke="#63b8ff" d="M943.51,-316.42C1008.39,-318.24 1098.85,-314.01 1172.25,-285 1214.17,-268.43 1253.25,-233 1276.6,-208.84"/>
<polygon fill="#63b8ff" stroke="#63b8ff" points="1279.11,-211.28 1283.43,-201.6 1274.02,-206.47 1279.11,-211.28"/>
</a>
</g>
</g>
<!-- Node7 -->
<g id="Node000007" class="node">
<title>Node7</title>
<g id="a_Node000007"><a xlink:href="enumfr_1_1softsf_1_1canscan_1_1ui_1_1_ui_components_configuration.html#aa700d9f2a270f6e54fcb53111855fa44" target="_top" xlink:title="Creates simple DocumentListener that executes action on any document change.">
<polygon fill="white" stroke="#666666" points="1391.5,-364 1208.25,-364 1208.25,-332 1391.5,-332 1391.5,-364"/>
<text text-anchor="start" x="1216.25" y="-350.5" font-family="Helvetica,sans-Serif" font-size="10.00">fr.softsf.canscan.ui.UiComponents</text>
<text text-anchor="middle" x="1299.88" y="-338.5" font-family="Helvetica,sans-Serif" font-size="10.00">Configuration.createDocumentListener</text>
</a>
</g>
</g>
<!-- Node6&#45;&gt;Node7 -->
<g id="edge6_Node000006_Node000007" class="edge">
<title>Node6&#45;&gt;Node7</title>
<g id="a_edge6_Node000006_Node000007"><a xlink:title=" ">
<path fill="none" stroke="#63b8ff" d="M1172.56,-348C1180.54,-348 1188.63,-348 1196.66,-348"/>
<polygon fill="#63b8ff" stroke="#63b8ff" points="1196.43,-351.5 1206.43,-348 1196.43,-344.5 1196.43,-351.5"/>
</a>
</g>
</g>
<!-- Node6&#45;&gt;Node8 -->
<g id="edge7_Node000006_Node000008" class="edge">
<title>Node6&#45;&gt;Node8</title>
<g id="a_edge7_Node000006_Node000008"><a xlink:title=" ">
<path fill="none" stroke="#63b8ff" d="M1144.43,-331.52C1154.13,-327.81 1163.7,-323.35 1172.25,-318 1218.53,-289.05 1259.34,-239.2 1281.44,-209.15"/>
<polygon fill="#63b8ff" stroke="#63b8ff" points="1284.04,-211.52 1287.05,-201.37 1278.36,-207.43 1284.04,-211.52"/>
</a>
</g>
</g>
<!-- Node9 -->
<g id="Node000009" class="node">
<title>Node9</title>
<g id="a_Node000009"><a xlink:href="classfr_1_1softsf_1_1canscan_1_1_can_scan.html#a381368b99c4a0857c6abe6349b2c6d27" target="_top" xlink:title="Calculates the available height for QR code rendering.">
<polygon fill="white" stroke="#666666" points="1602.5,-75 1427.5,-75 1427.5,-43 1602.5,-43 1602.5,-75"/>
<text text-anchor="start" x="1435.5" y="-61.5" font-family="Helvetica,sans-Serif" font-size="10.00">fr.softsf.canscan.CanScan.calculate</text>
<text text-anchor="middle" x="1515" y="-49.5" font-family="Helvetica,sans-Serif" font-size="10.00">AvailableQrCodeLabelHeight</text>
</a>
</g>
</g>
<!-- Node8&#45;&gt;Node9 -->
<g id="edge8_Node000008_Node000009" class="edge">
<title>Node8&#45;&gt;Node9</title>
<g id="a_edge8_Node000008_Node000009"><a xlink:title=" ">
<path fill="none" stroke="#63b8ff" d="M1370.29,-167.53C1377.77,-164.33 1385.01,-160.52 1391.5,-156 1413.09,-140.96 1407.73,-126.36 1427.5,-109 1439.77,-98.22 1454.72,-88.61 1468.71,-80.76"/>
<polygon fill="#63b8ff" stroke="#63b8ff" points="1470.21,-83.93 1477.34,-76.09 1466.88,-77.77 1470.21,-83.93"/>
</a>
</g>
</g>
<!-- Node10 -->
<g id="Node000010" class="node">
<title>Node10</title>
<g id="a_Node000010"><a xlink:href="classfr_1_1softsf_1_1canscan_1_1_can_scan.html#a4e67b1b5c764e72414a5c0f387810f5c" target="_top" xlink:title="Validates and returns the current QR code margin from the margin slider.">
<polygon fill="white" stroke="#666666" points="1599.88,-250 1430.12,-250 1430.12,-218 1599.88,-218 1599.88,-250"/>
<text text-anchor="start" x="1438.12" y="-236.5" font-family="Helvetica,sans-Serif" font-size="10.00">fr.softsf.canscan.CanScan.validate</text>
<text text-anchor="middle" x="1515" y="-224.5" font-family="Helvetica,sans-Serif" font-size="10.00">AndGetMargin</text>
</a>
</g>
</g>
<!-- Node8&#45;&gt;Node10 -->
<g id="edge9_Node000008_Node000010" class="edge">
<title>Node8&#45;&gt;Node10</title>
<g id="a_edge9_Node000008_Node000010"><a xlink:title=" ">
<path fill="none" stroke="#63b8ff" d="M1370.96,-200.44C1390.71,-205.08 1412.37,-210.16 1432.72,-214.93"/>
<polygon fill="#63b8ff" stroke="#63b8ff" points="1431.87,-218.33 1442.4,-217.2 1433.47,-211.51 1431.87,-218.33"/>
</a>
</g>
</g>
<!-- Node11 -->
<g id="Node000011" class="node">
<title>Node11</title>
<g id="a_Node000011"><a xlink:href="classfr_1_1softsf_1_1canscan_1_1_can_scan.html#a9e8188875168199cde065113ae2a393d" target="_top" xlink:title="Validates and returns the current image&#45;to&#45;QR ratio from the ratio slider.">
<polygon fill="white" stroke="#666666" points="1599.88,-200 1430.12,-200 1430.12,-168 1599.88,-168 1599.88,-200"/>
<text text-anchor="start" x="1438.12" y="-186.5" font-family="Helvetica,sans-Serif" font-size="10.00">fr.softsf.canscan.CanScan.validate</text>
<text text-anchor="middle" x="1515" y="-174.5" font-family="Helvetica,sans-Serif" font-size="10.00">AndGetRatio</text>
</a>
</g>
</g>
<!-- Node8&#45;&gt;Node11 -->
<g id="edge10_Node000008_Node000011" class="edge">
<title>Node8&#45;&gt;Node11</title>
<g id="a_edge10_Node000008_Node000011"><a xlink:title=" ">
<path fill="none" stroke="#63b8ff" d="M1375.12,-184C1389.19,-184 1404.09,-184 1418.71,-184"/>
<polygon fill="#63b8ff" stroke="#63b8ff" points="1418.3,-187.5 1428.3,-184 1418.3,-180.5 1418.3,-187.5"/>
</a>
</g>
</g>
<!-- Node12 -->
<g id="Node000012" class="node">
<title>Node12</title>
<g id="a_Node000012"><a xlink:href="classfr_1_1softsf_1_1canscan_1_1_can_scan.html#a6d139bb8d0a3c7081096c8956189b684" target="_top" xlink:title="Validates and returns the QR code size from the corresponding text field.">
<polygon fill="white" stroke="#666666" points="1599.88,-150 1430.12,-150 1430.12,-118 1599.88,-118 1599.88,-150"/>
<text text-anchor="start" x="1438.12" y="-136.5" font-family="Helvetica,sans-Serif" font-size="10.00">fr.softsf.canscan.CanScan.validate</text>
<text text-anchor="middle" x="1515" y="-124.5" font-family="Helvetica,sans-Serif" font-size="10.00">AndGetSize</text>
</a>
</g>
</g>
<!-- Node8&#45;&gt;Node12 -->
<g id="edge11_Node000008_Node000012" class="edge">
<title>Node8&#45;&gt;Node12</title>
<g id="a_edge11_Node000008_Node000012"><a xlink:title=" ">
<path fill="none" stroke="#63b8ff" d="M1370.96,-167.56C1390.71,-162.92 1412.37,-157.84 1432.72,-153.07"/>
<polygon fill="#63b8ff" stroke="#63b8ff" points="1433.47,-156.49 1442.4,-150.8 1431.87,-149.67 1433.47,-156.49"/>
</a>
</g>
</g>
<!-- Node14 -->
<g id="Node000014" class="node">
<title>Node14</title>
<g id="a_Node000014"><a xlink:href="classfr_1_1softsf_1_1canscan_1_1_can_scan.html#ab2e018ca62c7497c29e84f42ae870daa" target="_top" xlink:title="Adds MECARD and Free card panels to the north panel.">
<polygon fill="white" stroke="#666666" points="933.5,-276 781.75,-276 781.75,-244 933.5,-244 933.5,-276"/>
<text text-anchor="start" x="789.75" y="-262.5" font-family="Helvetica,sans-Serif" font-size="10.00">fr.softsf.canscan.CanScan.add</text>
<text text-anchor="middle" x="857.62" y="-250.5" font-family="Helvetica,sans-Serif" font-size="10.00">NorthPanelCardPanels</text>
</a>
</g>
</g>
<!-- Node13&#45;&gt;Node14 -->
<g id="edge14_Node000013_Node000014" class="edge">
<title>Node13&#45;&gt;Node14</title>
<g id="a_edge14_Node000013_Node000014"><a xlink:title=" ">
<path fill="none" stroke="#63b8ff" d="M709.61,-182.41C718.81,-186.18 727.93,-190.68 736,-196 755.69,-208.99 751.97,-222.54 772,-235 774.03,-236.26 776.13,-237.47 778.28,-238.61"/>
<polygon fill="#63b8ff" stroke="#63b8ff" points="776.77,-241.77 787.3,-242.9 779.77,-235.44 776.77,-241.77"/>
</a>
</g>
</g>
<!-- Node17 -->
<g id="Node000017" class="node">
<title>Node17</title>
<g id="a_Node000017"><a xlink:href="classfr_1_1softsf_1_1canscan_1_1_can_scan.html#a94ab4df98de0d05977e6a65ab75f89f0" target="_top" xlink:title="Adds common input fields to the north panel.">
<polygon fill="white" stroke="#666666" points="933.5,-226 781.75,-226 781.75,-194 933.5,-194 933.5,-226"/>
<text text-anchor="start" x="789.75" y="-212.5" font-family="Helvetica,sans-Serif" font-size="10.00">fr.softsf.canscan.CanScan.add</text>
<text text-anchor="middle" x="857.62" y="-200.5" font-family="Helvetica,sans-Serif" font-size="10.00">NorthPanelCommonFields</text>
</a>
</g>
</g>
<!-- Node13&#45;&gt;Node17 -->
<g id="edge17_Node000013_Node000017" class="edge">
<title>Node13&#45;&gt;Node17</title>
<g id="a_edge17_Node000013_Node000017"><a xlink:title=" ">
<path fill="none" stroke="#63b8ff" d="M728.09,-182.45C741.84,-185.39 756.25,-188.48 770.25,-191.48"/>
<polygon fill="#63b8ff" stroke="#63b8ff" points="769.37,-194.87 779.88,-193.55 770.84,-188.03 769.37,-194.87"/>
</a>
</g>
</g>
<!-- Node19 -->
<g id="Node000019" class="node">
<title>Node19</title>
<g id="a_Node000019"><a xlink:href="classfr_1_1softsf_1_1canscan_1_1_can_scan.html#a9f205dfdb266d5d7f8f8899b69742663" target="_top" xlink:title="Adds the generate button to the north panel.">
<polygon fill="white" stroke="#666666" points="933.5,-176 781.75,-176 781.75,-144 933.5,-144 933.5,-176"/>
<text text-anchor="start" x="789.75" y="-162.5" font-family="Helvetica,sans-Serif" font-size="10.00">fr.softsf.canscan.CanScan.add</text>
<text text-anchor="middle" x="857.62" y="-150.5" font-family="Helvetica,sans-Serif" font-size="10.00">NorthPanelGenerateButton</text>
</a>
</g>
</g>
<!-- Node13&#45;&gt;Node19 -->
<g id="edge20_Node000013_Node000019" class="edge">
<title>Node13&#45;&gt;Node19</title>
<g id="a_edge20_Node000013_Node000019"><a xlink:title=" ">
<path fill="none" stroke="#63b8ff" d="M736.34,-163.52C747.59,-163.19 759.13,-162.85 770.4,-162.52"/>
<polygon fill="#63b8ff" stroke="#63b8ff" points="770.15,-166.03 780.05,-162.24 769.95,-159.03 770.15,-166.03"/>
</a>
</g>
</g>
<!-- Node20 -->
<g id="Node000020" class="node">
<title>Node20</title>
<g id="a_Node000020"><a xlink:href="classfr_1_1softsf_1_1canscan_1_1_can_scan.html#aa469763b92dd7cbc6dfdb9aaa0116b33" target="_top" xlink:title="Adds mode selection controls (MECARD/Free) to the north panel.">
<polygon fill="white" stroke="#666666" points="933.5,-126 781.75,-126 781.75,-94 933.5,-94 933.5,-126"/>
<text text-anchor="start" x="789.75" y="-112.5" font-family="Helvetica,sans-Serif" font-size="10.00">fr.softsf.canscan.CanScan.add</text>
<text text-anchor="middle" x="857.62" y="-100.5" font-family="Helvetica,sans-Serif" font-size="10.00">NorthPanelModeSelection</text>
</a>
</g>
</g>
<!-- Node13&#45;&gt;Node20 -->
<g id="edge21_Node000013_Node000020" class="edge">
<title>Node13&#45;&gt;Node20</title>
<g id="a_edge21_Node000013_Node000020"><a xlink:title=" ">
<path fill="none" stroke="#63b8ff" d="M711.85,-149.5C734.92,-143.21 761.43,-135.97 785.41,-129.43"/>
<polygon fill="#63b8ff" stroke="#63b8ff" points="786.04,-132.88 794.77,-126.88 784.2,-126.13 786.04,-132.88"/>
</a>
</g>
</g>
<!-- Node25 -->
<g id="Node000025" class="node">
<title>Node25</title>
<g id="a_Node000025"><a xlink:href="classfr_1_1softsf_1_1canscan_1_1_can_scan.html#aeb5550da33925e95999aae23f525f7c5" target="_top" xlink:title="Creates default GridBagConstraints for consistent layout configuration.">
<polygon fill="white" stroke="#666666" points="936.5,-76 778.75,-76 778.75,-44 936.5,-44 936.5,-76"/>
<text text-anchor="start" x="786.75" y="-62.5" font-family="Helvetica,sans-Serif" font-size="10.00">fr.softsf.canscan.CanScan.north</text>
<text text-anchor="middle" x="857.62" y="-50.5" font-family="Helvetica,sans-Serif" font-size="10.00">PanelGridBagConstraints</text>
</a>
</g>
</g>
<!-- Node13&#45;&gt;Node25 -->
<g id="edge27_Node000013_Node000025" class="edge">
<title>Node13&#45;&gt;Node25</title>
<g id="a_edge27_Node000013_Node000025"><a xlink:title=" ">
<path fill="none" stroke="#63b8ff" d="M721.67,-149.67C726.74,-147.18 731.59,-144.31 736,-141 759.67,-123.25 748.33,-102.75 772,-85 773.52,-83.86 775.08,-82.78 776.7,-81.74"/>
<polygon fill="#63b8ff" stroke="#63b8ff" points="778.01,-85.02 785.01,-77.07 774.57,-78.92 778.01,-85.02"/>
</a>
</g>
</g>
<!-- Node15 -->
<g id="Node000015" class="node">
<title>Node15</title>
<g id="a_Node000015"><a xlink:href="classfr_1_1softsf_1_1canscan_1_1_can_scan.html#a38d65dd319daee1c3288690c17e43ca5" target="_top" xlink:title="Populates the FREE panel with a multiline text area for arbitrary text or URLs.">
<polygon fill="white" stroke="#666666" points="1162.5,-276 989,-276 989,-256 1162.5,-256 1162.5,-276"/>
<text text-anchor="middle" x="1075.75" y="-262.5" font-family="Helvetica,sans-Serif" font-size="10.00">fr.softsf.canscan.CanScan.freeCard</text>
</a>
</g>
</g>
<!-- Node14&#45;&gt;Node15 -->
<g id="edge15_Node000014_Node000015" class="edge">
<title>Node14&#45;&gt;Node15</title>
<g id="a_edge15_Node000014_Node000015"><a xlink:title=" ">
<path fill="none" stroke="#63b8ff" d="M933.91,-262.09C947.99,-262.48 962.88,-262.89 977.51,-263.3"/>
<polygon fill="#63b8ff" stroke="#63b8ff" points="977.02,-266.79 987.12,-263.57 977.22,-259.79 977.02,-266.79"/>
</a>
</g>
</g>
<!-- Node16 -->
<g id="Node000016" class="node">
<title>Node16</title>
<g id="a_Node000016"><a xlink:href="classfr_1_1softsf_1_1canscan_1_1_can_scan.html#aed7e3048974882318a6519d8d36e8ec0" target="_top" xlink:title="Populates the MECARD panel with structured contact fields.">
<polygon fill="white" stroke="#666666" points="1159.88,-238 991.62,-238 991.62,-218 1159.88,-218 1159.88,-238"/>
<text text-anchor="middle" x="1075.75" y="-224.5" font-family="Helvetica,sans-Serif" font-size="10.00">fr.softsf.canscan.CanScan.mecard</text>
</a>
</g>
</g>
<!-- Node14&#45;&gt;Node16 -->
<g id="edge16_Node000014_Node000016" class="edge">
<title>Node14&#45;&gt;Node16</title>
<g id="a_edge16_Node000014_Node000016"><a xlink:title=" ">
<path fill="none" stroke="#63b8ff" d="M933.91,-248.85C952.96,-246.03 973.5,-242.99 992.85,-240.13"/>
<polygon fill="#63b8ff" stroke="#63b8ff" points="993.21,-243.61 1002.59,-238.68 992.19,-236.69 993.21,-243.61"/>
</a>
</g>
</g>
<!-- Node18 -->
<g id="Node000018" class="node">
<title>Node18</title>
<g id="a_Node000018"><a xlink:href="classfr_1_1softsf_1_1canscan_1_1_can_scan.html#a17b0a72ab305f98f86591411b6a352f2" target="_top" xlink:title="Creates the color selection panel for QR code and background colors.">
<polygon fill="white" stroke="#666666" points="1154.25,-200 997.25,-200 997.25,-168 1154.25,-168 1154.25,-200"/>
<text text-anchor="start" x="1005.25" y="-186.5" font-family="Helvetica,sans-Serif" font-size="10.00">fr.softsf.canscan.CanScan.color</text>
<text text-anchor="middle" x="1075.75" y="-174.5" font-family="Helvetica,sans-Serif" font-size="10.00">Panel</text>
</a>
</g>
</g>
<!-- Node17&#45;&gt;Node18 -->
<g id="edge18_Node000017_Node000018" class="edge">
<title>Node17&#45;&gt;Node18</title>
<g id="a_edge18_Node000017_Node000018"><a xlink:title=" ">
<path fill="none" stroke="#63b8ff" d="M933.91,-200.94C950.6,-198.94 968.44,-196.79 985.62,-194.72"/>
<polygon fill="#63b8ff" stroke="#63b8ff" points="985.79,-198.23 995.3,-193.56 984.95,-191.28 985.79,-198.23"/>
</a>
</g>
</g>
<!-- Node18&#45;&gt;Node8 -->
<g id="edge19_Node000018_Node000008" class="edge">
<title>Node18&#45;&gt;Node8</title>
<g id="a_edge19_Node000018_Node000008"><a xlink:title=" ">
<path fill="none" stroke="#63b8ff" d="M1154.44,-184C1173.58,-184 1194.17,-184 1213.65,-184"/>
<polygon fill="#63b8ff" stroke="#63b8ff" points="1213.45,-187.5 1223.45,-184 1213.45,-180.5 1213.45,-187.5"/>
</a>
</g>
</g>
<!-- Node21 -->
<g id="Node000021" class="node">
<title>Node21</title>
<g id="a_Node000021"><a xlink:href="classfr_1_1softsf_1_1canscan_1_1_can_scan.html#a381579d3adc53b1122b38e7fda5c0235" target="_top" xlink:title="Configures the update button for version checking.">
<polygon fill="white" stroke="#666666" points="1163.62,-150 987.88,-150 987.88,-118 1163.62,-118 1163.62,-150"/>
<text text-anchor="start" x="995.88" y="-136.5" font-family="Helvetica,sans-Serif" font-size="10.00">fr.softsf.canscan.CanScan.configure</text>
<text text-anchor="middle" x="1075.75" y="-124.5" font-family="Helvetica,sans-Serif" font-size="10.00">UpdateButton</text>
</a>
</g>
</g>
<!-- Node20&#45;&gt;Node21 -->
<g id="edge22_Node000020_Node000021" class="edge">
<title>Node20&#45;&gt;Node21</title>
<g id="a_edge22_Node000020_Node000021"><a xlink:title=" ">
<path fill="none" stroke="#63b8ff" d="M933.91,-118.36C947.56,-119.88 961.98,-121.48 976.18,-123.05"/>
<polygon fill="#63b8ff" stroke="#63b8ff" points="975.67,-126.52 986,-124.14 976.45,-119.56 975.67,-126.52"/>
</a>
</g>
</g>
<!-- Node22 -->
<g id="Node000022" class="node">
<title>Node22</title>
<g id="a_Node000022"><a xlink:href="classfr_1_1softsf_1_1canscan_1_1_can_scan.html#a428c742b098fa27d4c8984c1030c238d" target="_top" xlink:title="Switches the application between MECARD and FREE modes.">
<polygon fill="white" stroke="#666666" points="1170,-100 981.5,-100 981.5,-80 1170,-80 1170,-100"/>
<text text-anchor="middle" x="1075.75" y="-86.5" font-family="Helvetica,sans-Serif" font-size="10.00">fr.softsf.canscan.CanScan.switchMode</text>
</a>
</g>
</g>
<!-- Node20&#45;&gt;Node22 -->
<g id="edge23_Node000020_Node000022" class="edge">
<title>Node20&#45;&gt;Node22</title>
<g id="a_edge23_Node000020_Node000022"><a xlink:title=" ">
<path fill="none" stroke="#63b8ff" d="M933.91,-103.03C945.57,-101.95 957.79,-100.82 969.96,-99.7"/>
<polygon fill="#63b8ff" stroke="#63b8ff" points="969.95,-103.21 979.59,-98.81 969.31,-96.24 969.95,-103.21"/>
</a>
</g>
</g>
<!-- Node22&#45;&gt;Node8 -->
<g id="edge24_Node000022_Node000008" class="edge">
<title>Node22&#45;&gt;Node8</title>
<g id="a_edge24_Node000022_Node000008"><a xlink:title=" ">
<path fill="none" stroke="#63b8ff" d="M1154.7,-100.48C1160.86,-102.8 1166.8,-105.61 1172.25,-109 1194.59,-122.9 1186.66,-140.96 1208.25,-156 1211.7,-158.4 1215.35,-160.6 1219.15,-162.62"/>
<polygon fill="#63b8ff" stroke="#63b8ff" points="1217.56,-165.74 1228.09,-166.88 1220.57,-159.42 1217.56,-165.74"/>
</a>
</g>
</g>
<!-- Node23 -->
<g id="Node000023" class="node">
<title>Node23</title>
<g id="a_Node000023"><a xlink:href="enumfr_1_1softsf_1_1canscan_1_1model_1_1_mode.html#a16a898a11ca939056bd7b275f11ea54c" target="_top" xlink:title="Returns the mode label.">
<polygon fill="white" stroke="#666666" points="1360.75,-147 1239,-147 1239,-115 1360.75,-115 1360.75,-147"/>
<text text-anchor="start" x="1247" y="-133.5" font-family="Helvetica,sans-Serif" font-size="10.00">fr.softsf.canscan.model.</text>
<text text-anchor="middle" x="1299.88" y="-121.5" font-family="Helvetica,sans-Serif" font-size="10.00">Mode.text</text>
</a>
</g>
</g>
<!-- Node22&#45;&gt;Node23 -->
<g id="edge25_Node000022_Node000023" class="edge">
<title>Node22&#45;&gt;Node23</title>
<g id="a_edge25_Node000022_Node000023"><a xlink:title=" ">
<path fill="none" stroke="#63b8ff" d="M1133.38,-100.45C1162.11,-105.76 1197.3,-112.25 1227.84,-117.89"/>
<polygon fill="#63b8ff" stroke="#63b8ff" points="1226.9,-121.27 1237.36,-119.65 1228.17,-114.39 1226.9,-121.27"/>
</a>
</g>
</g>
<!-- Node24 -->
<g id="Node000024" class="node">
<title>Node24</title>
<g id="a_Node000024"><a xlink:href="classfr_1_1softsf_1_1canscan_1_1_can_scan.html#a11fd9295c4843e6e68f9d1e4a710b906" target="_top" xlink:title="Updates the generate button state based on input validation.">
<polygon fill="white" stroke="#666666" points="1382.5,-97 1217.25,-97 1217.25,-65 1382.5,-65 1382.5,-97"/>
<text text-anchor="start" x="1225.25" y="-83.5" font-family="Helvetica,sans-Serif" font-size="10.00">fr.softsf.canscan.CanScan.update</text>
<text text-anchor="middle" x="1299.88" y="-71.5" font-family="Helvetica,sans-Serif" font-size="10.00">GenerateButtonState</text>
</a>
</g>
</g>
<!-- Node22&#45;&gt;Node24 -->
<g id="edge26_Node000022_Node000024" class="edge">
<title>Node22&#45;&gt;Node24</title>
<g id="a_edge26_Node000022_Node000024"><a xlink:title=" ">
<path fill="none" stroke="#63b8ff" d="M1170.31,-86.21C1182.08,-85.73 1194.12,-85.24 1205.88,-84.77"/>
<polygon fill="#63b8ff" stroke="#63b8ff" points="1205.69,-88.28 1215.54,-84.38 1205.41,-81.28 1205.69,-88.28"/>
</a>
</g>
</g>
<!-- Node29 -->
<g id="Node000029" class="node">
<title>Node29</title>
<g id="a_Node000029"><a xlink:href="classfr_1_1softsf_1_1canscan_1_1_can_scan.html#a0fe215984734bb1337dd49ca30238b78" target="_top" xlink:title="Sets the loader size so it matches the QR code label height and remains centered.">
<polygon fill="white" stroke="#666666" points="1374.62,-41 1225.12,-41 1225.12,-9 1374.62,-9 1374.62,-41"/>
<text text-anchor="start" x="1233.12" y="-27.5" font-family="Helvetica,sans-Serif" font-size="10.00">fr.softsf.canscan.CanScan.set</text>
<text text-anchor="middle" x="1299.88" y="-15.5" font-family="Helvetica,sans-Serif" font-size="10.00">LoaderSize</text>
</a>
</g>
</g>
<!-- Node28&#45;&gt;Node29 -->
<g id="edge32_Node000028_Node000029" class="edge">
<title>Node28&#45;&gt;Node29</title>
<g id="a_edge32_Node000028_Node000029"><a xlink:title=" ">
<path fill="none" stroke="#63b8ff" d="M736.36,-17.18C860.29,-18.9 1089.35,-22.09 1213.5,-23.81"/>
<polygon fill="#63b8ff" stroke="#63b8ff" points="1213.26,-27.31 1223.3,-23.95 1213.35,-20.31 1213.26,-27.31"/>
</a>
</g>
</g>
<!-- Node29&#45;&gt;Node9 -->
<g id="edge33_Node000029_Node000009" class="edge">
<title>Node29&#45;&gt;Node9</title>
<g id="a_edge33_Node000029_Node000009"><a xlink:title=" ">
<path fill="none" stroke="#63b8ff" d="M1375.12,-36.84C1388.39,-38.96 1402.4,-41.2 1416.21,-43.4"/>
<polygon fill="#63b8ff" stroke="#63b8ff" points="1415.3,-46.8 1425.73,-44.92 1416.41,-39.89 1415.3,-46.8"/>
</a>
</g>
</g>
</g>
</svg>
