<?xml version="1.0" encoding="UTF-8" standalone="no"?>
<!DOCTYPE svg PUBLIC "-//W3C//DTD SVG 1.1//EN"
 "http://www.w3.org/Graphics/SVG/1.1/DTD/svg11.dtd">
<!-- Generated by graphviz version 12.2.1 (20241206.2353)
 -->
<!-- Title: fr.softsf.canscan.CanScan.CanScan Pages: 1 -->
<!--zoomable 443 -->

<svg id="main" version="1.1" xmlns="http://www.w3.org/2000/svg" xmlns:xlink="http://www.w3.org/1999/xlink" xml:space="preserve" onload="init(evt)">

<style type="text/css"><![CDATA[
.node, .edge {opacity: 0.7;}
.node.selected, .edge.selected {opacity: 1;}
.edge:hover path { stroke: red; }
.edge:hover polygon { stroke: red; fill: red; }
]]></style>

<defs>
  <circle id="rim" cx="0" cy="0" r="7"/>
  <circle id="rim2" cx="0" cy="0" r="3.5"/>
  <g id="zoomPlus">
    <use xlink:href="#rim" fill="#404040"><set attributeName="fill" to="#808080" begin="zoomplus.mouseover" end="zoomplus.mouseout"/></use>
    <path d="M-4,0h8M0,-4v8" fill="none" stroke="white" stroke-width="1.5" pointer-events="none"/>
  </g>
  <g id="zoomMin">
    <use xlink:href="#rim" fill="#404040"><set attributeName="fill" to="#808080" begin="zoomminus.mouseover" end="zoomminus.mouseout"/></use>
    <path d="M-4,0h8" fill="none" stroke="white" stroke-width="1.5" pointer-events="none"/>
  </g>
  <g id="arrowUp" transform="translate(30 24)">
    <use xlink:href="#rim"/>
    <path pointer-events="none" fill="none" stroke="white" stroke-width="1.5" d="M0,-3.0v7 M-2.5,-0.5L0,-3.0L2.5,-0.5"/>
  </g>
  <g id="arrowRight" transform="rotate(90) translate(36 -43)">
    <use xlink:href="#rim"/>
    <path pointer-events="none" fill="none" stroke="white" stroke-width="1.5" d="M0,-3.0v7 M-2.5,-0.5L0,-3.0L2.5,-0.5"/>
  </g>
  <g id="arrowDown" transform="rotate(180) translate(-30 -48)">
    <use xlink:href="#rim"/>
    <path pointer-events="none" fill="none" stroke="white" stroke-width="1.5" d="M0,-3.0v7 M-2.5,-0.5L0,-3.0L2.5,-0.5"/>
  </g>
  <g id="arrowLeft" transform="rotate(270) translate(-36 17)">
    <use xlink:href="#rim"/>
    <path pointer-events="none" fill="none" stroke="white" stroke-width="1.5" d="M0,-3.0v7 M-2.5,-0.5L0,-3.0L2.5,-0.5"/>
  </g>
  <g id="resetDef">
    <use xlink:href="#rim2" fill="#404040"><set attributeName="fill" to="#808080" begin="reset.mouseover" end="reset.mouseout"/></use>
  </g>
</defs>
<script type="application/ecmascript">
var viewWidth = 788;
var viewHeight = 443;
var sectionId = 'dynsection-2';
</script>
<script type="application/ecmascript" xlink:href="svg.min.js"/>
<svg id="graph" class="graph">
<g id="viewport">
<title>fr.softsf.canscan.CanScan.CanScan</title>
<!-- Node1 -->
<g id="Node000001" class="node">
<title>Node1</title>
<g id="a_Node000001"><a xlink:title="Initializes the CanScan GUI.">
<polygon fill="#999999" stroke="#666666" points="136,-264 0,-264 0,-232 136,-232 136,-264"/>
<text text-anchor="start" x="8" y="-250.5" font-family="Helvetica,sans-Serif" font-size="10.00">fr.softsf.canscan.CanScan.</text>
<text text-anchor="middle" x="68" y="-238.5" font-family="Helvetica,sans-Serif" font-size="10.00">CanScan</text>
</a>
</g>
</g>
<!-- Node1&#45;&gt;Node1 -->
<g id="edge1_Node000001_Node000001" class="edge">
<title>Node1&#45;&gt;Node1</title>
<g id="a_edge1_Node000001_Node000001"><a xlink:title=" ">
<path fill="none" stroke="#63b8ff" d="M32.61,-264.44C26,-273.58 37.8,-282 68,-282 84.52,-282 95.53,-279.48 101.04,-275.71"/>
<polygon fill="#63b8ff" stroke="#63b8ff" points="104.46,-276.43 103.08,-265.92 97.61,-275 104.46,-276.43"/>
</a>
</g>
</g>
<!-- Node2 -->
<g id="Node000002" class="node">
<title>Node2</title>
<g id="a_Node000002"><a xlink:href="classfr_1_1softsf_1_1canscan_1_1_can_scan.html#a2732ecdc4490a717352975e68fce494c" target="_top" xlink:title="Adds a labeled component row to a panel using GridBagLayout.">
<polygon fill="white" stroke="#666666" points="568.5,-396 396.5,-396 396.5,-376 568.5,-376 568.5,-396"/>
<text text-anchor="middle" x="482.5" y="-382.5" font-family="Helvetica,sans-Serif" font-size="10.00">fr.softsf.canscan.CanScan.addRow</text>
</a>
</g>
</g>
<!-- Node1&#45;&gt;Node2 -->
<g id="edge2_Node000001_Node000002" class="edge">
<title>Node1&#45;&gt;Node2</title>
<g id="a_edge2_Node000001_Node000002"><a xlink:title=" ">
<path fill="none" stroke="#63b8ff" d="M73.53,-264.38C84.08,-299 113.95,-379.01 172,-411 261.12,-460.11 387.07,-423.21 447.1,-400.43"/>
<polygon fill="#63b8ff" stroke="#63b8ff" points="448.06,-403.82 456.11,-396.92 445.52,-397.29 448.06,-403.82"/>
</a>
</g>
</g>
<!-- Node3 -->
<g id="Node000003" class="node">
<title>Node3</title>
<g id="a_Node000003"><a xlink:href="classfr_1_1softsf_1_1canscan_1_1_can_scan.html#ad77dc63cc1aac70e3833d39005d42f25" target="_top" xlink:title="Constructs the application window title using metadata from the version properties.">
<polygon fill="white" stroke="#666666" points="344.38,-264 188.12,-264 188.12,-232 344.38,-232 344.38,-264"/>
<text text-anchor="start" x="196.12" y="-250.5" font-family="Helvetica,sans-Serif" font-size="10.00">fr.softsf.canscan.CanScan.build</text>
<text text-anchor="middle" x="266.25" y="-238.5" font-family="Helvetica,sans-Serif" font-size="10.00">Title</text>
</a>
</g>
</g>
<!-- Node1&#45;&gt;Node3 -->
<g id="edge3_Node000001_Node000003" class="edge">
<title>Node1&#45;&gt;Node3</title>
<g id="a_edge3_Node000001_Node000003"><a xlink:title=" ">
<path fill="none" stroke="#63b8ff" d="M136.26,-248C149.27,-248 163.07,-248 176.64,-248"/>
<polygon fill="#63b8ff" stroke="#63b8ff" points="176.44,-251.5 186.44,-248 176.44,-244.5 176.44,-251.5"/>
</a>
</g>
</g>
<!-- Node5 -->
<g id="Node000005" class="node">
<title>Node5</title>
<g id="a_Node000005"><a xlink:href="classfr_1_1softsf_1_1canscan_1_1_can_scan.html#a2d26dcd1ae708eae46dba8952351aa1a" target="_top" xlink:title="Builds and returns a QrInput object containing all current user inputs and settings.">
<polygon fill="white" stroke="#666666" points="557.25,-132 407.75,-132 407.75,-100 557.25,-100 557.25,-132"/>
<text text-anchor="start" x="415.75" y="-118.5" font-family="Helvetica,sans-Serif" font-size="10.00">fr.softsf.canscan.CanScan.get</text>
<text text-anchor="middle" x="482.5" y="-106.5" font-family="Helvetica,sans-Serif" font-size="10.00">QrInput</text>
</a>
</g>
</g>
<!-- Node1&#45;&gt;Node5 -->
<g id="edge6_Node000001_Node000005" class="edge">
<title>Node1&#45;&gt;Node5</title>
<g id="a_edge6_Node000001_Node000005"><a xlink:title=" ">
<path fill="none" stroke="#63b8ff" d="M76.65,-231.57C90.84,-203.29 124.19,-146.22 172,-123 241.78,-89.11 331.26,-91.21 396.04,-99.49"/>
<polygon fill="#63b8ff" stroke="#63b8ff" points="395.55,-102.96 405.93,-100.84 396.5,-96.02 395.55,-102.96"/>
</a>
</g>
</g>
<!-- Node10 -->
<g id="Node000010" class="node">
<title>Node10</title>
<g id="a_Node000010"><a xlink:href="classfr_1_1softsf_1_1canscan_1_1_can_scan.html#addd7b7d7f9cc810756dbbb66218414d4" target="_top" xlink:title="Initializes the FREE mode input panel with a multiline text area for arbitrary text or URLs.">
<polygon fill="white" stroke="#666666" points="340.62,-402 191.88,-402 191.88,-370 340.62,-370 340.62,-402"/>
<text text-anchor="start" x="199.88" y="-388.5" font-family="Helvetica,sans-Serif" font-size="10.00">fr.softsf.canscan.CanScan.init</text>
<text text-anchor="middle" x="266.25" y="-376.5" font-family="Helvetica,sans-Serif" font-size="10.00">FreeCard</text>
</a>
</g>
</g>
<!-- Node1&#45;&gt;Node10 -->
<g id="edge11_Node000001_Node000010" class="edge">
<title>Node1&#45;&gt;Node10</title>
<g id="a_edge11_Node000001_Node000010"><a xlink:title=" ">
<path fill="none" stroke="#63b8ff" d="M79.23,-264.16C95.7,-288.85 130.51,-335.74 172,-361 174.98,-362.82 178.1,-364.5 181.3,-366.06"/>
<polygon fill="#63b8ff" stroke="#63b8ff" points="179.84,-369.25 190.41,-370.05 182.65,-362.84 179.84,-369.25"/>
</a>
</g>
</g>
<!-- Node11 -->
<g id="Node000011" class="node">
<title>Node11</title>
<g id="a_Node000011"><a xlink:href="classfr_1_1softsf_1_1canscan_1_1_can_scan.html#a4047170747f52f54ee69ddbc834c5373" target="_top" xlink:title="Sets up automatic QR code preview updates for all input fields and controls.">
<polygon fill="white" stroke="#666666" points="351.88,-214 180.62,-214 180.62,-182 351.88,-182 351.88,-214"/>
<text text-anchor="start" x="188.62" y="-200.5" font-family="Helvetica,sans-Serif" font-size="10.00">fr.softsf.canscan.CanScan.initialize</text>
<text text-anchor="middle" x="266.25" y="-188.5" font-family="Helvetica,sans-Serif" font-size="10.00">AutomaticQRCodeRendering</text>
</a>
</g>
</g>
<!-- Node1&#45;&gt;Node11 -->
<g id="edge13_Node000001_Node000011" class="edge">
<title>Node1&#45;&gt;Node11</title>
<g id="a_edge13_Node000001_Node000011"><a xlink:title=" ">
<path fill="none" stroke="#63b8ff" d="M133.53,-231.56C151.47,-226.99 171.11,-221.98 189.63,-217.27"/>
<polygon fill="#63b8ff" stroke="#63b8ff" points="190.39,-220.69 199.21,-214.82 188.66,-213.9 190.39,-220.69"/>
</a>
</g>
</g>
<!-- Node13 -->
<g id="Node000013" class="node">
<title>Node13</title>
<g id="a_Node000013"><a xlink:href="classfr_1_1softsf_1_1canscan_1_1_can_scan.html#ab78c47588f2cb82b4395a1268b3c4ca4" target="_top" xlink:title="Initializes the MECARD input panel with labeled text fields for structured contact information.">
<polygon fill="white" stroke="#666666" points="340.62,-352 191.88,-352 191.88,-320 340.62,-320 340.62,-352"/>
<text text-anchor="start" x="199.88" y="-338.5" font-family="Helvetica,sans-Serif" font-size="10.00">fr.softsf.canscan.CanScan.init</text>
<text text-anchor="middle" x="266.25" y="-326.5" font-family="Helvetica,sans-Serif" font-size="10.00">Mecard</text>
</a>
</g>
</g>
<!-- Node1&#45;&gt;Node13 -->
<g id="edge16_Node000001_Node000013" class="edge">
<title>Node1&#45;&gt;Node13</title>
<g id="a_edge16_Node000001_Node000013"><a xlink:title=" ">
<path fill="none" stroke="#63b8ff" d="M94.5,-264.28C114.9,-276.82 144.55,-294 172,-306 180,-309.5 188.54,-312.8 197.08,-315.84"/>
<polygon fill="#63b8ff" stroke="#63b8ff" points="195.84,-319.11 206.43,-319.06 198.11,-312.49 195.84,-319.11"/>
</a>
</g>
</g>
<!-- Node14 -->
<g id="Node000014" class="node">
<title>Node14</title>
<g id="a_Node000014"><a xlink:href="classfr_1_1softsf_1_1canscan_1_1_can_scan.html#abbe4fb71ad979d6affed0b2c9629b832" target="_top" xlink:title="Updates the tooltip of the ratio slider to reflect its current value as a percentage.">
<polygon fill="white" stroke="#666666" points="341,-164 191.5,-164 191.5,-132 341,-132 341,-164"/>
<text text-anchor="start" x="199.5" y="-150.5" font-family="Helvetica,sans-Serif" font-size="10.00">fr.softsf.canscan.CanScan.set</text>
<text text-anchor="middle" x="266.25" y="-138.5" font-family="Helvetica,sans-Serif" font-size="10.00">RatioSliderTooltipValue</text>
</a>
</g>
</g>
<!-- Node1&#45;&gt;Node14 -->
<g id="edge18_Node000001_Node000014" class="edge">
<title>Node1&#45;&gt;Node14</title>
<g id="a_edge18_Node000001_Node000014"><a xlink:title=" ">
<path fill="none" stroke="#63b8ff" d="M87.02,-231.65C106.6,-214.7 139.47,-188.54 172,-173 175.33,-171.41 178.77,-169.91 182.29,-168.49"/>
<polygon fill="#63b8ff" stroke="#63b8ff" points="183.44,-171.8 191.59,-165.03 181,-165.24 183.44,-171.8"/>
</a>
</g>
</g>
<!-- Node15 -->
<g id="Node000015" class="node">
<title>Node15</title>
<g id="a_Node000015"><a xlink:href="classfr_1_1softsf_1_1canscan_1_1_can_scan.html#a428c742b098fa27d4c8984c1030c238d" target="_top" xlink:title="Switches the application between MECARD and FREE QR code modes.">
<polygon fill="white" stroke="#666666" points="360.5,-76 172,-76 172,-56 360.5,-56 360.5,-76"/>
<text text-anchor="middle" x="266.25" y="-62.5" font-family="Helvetica,sans-Serif" font-size="10.00">fr.softsf.canscan.CanScan.switchMode</text>
</a>
</g>
</g>
<!-- Node1&#45;&gt;Node15 -->
<g id="edge19_Node000001_Node000015" class="edge">
<title>Node1&#45;&gt;Node15</title>
<g id="a_edge19_Node000001_Node000015"><a xlink:title=" ">
<path fill="none" stroke="#63b8ff" d="M74.92,-231.7C87.52,-199.42 120.13,-127.23 172,-90 177.22,-86.25 182.98,-83.09 188.99,-80.42"/>
<polygon fill="#63b8ff" stroke="#63b8ff" points="189.85,-83.84 197.89,-76.93 187.3,-77.32 189.85,-83.84"/>
</a>
</g>
</g>
<!-- Node4 -->
<g id="Node000004" class="node">
<title>Node4</title>
<g id="a_Node000004"><a xlink:href="classfr_1_1softsf_1_1canscan_1_1_can_scan.html#aefe4d08d96fdc7b2097daf4033bbbb9c" target="_top" xlink:title="Loads application metadata from the version.properties file.">
<polygon fill="white" stroke="#666666" points="557.25,-286 407.75,-286 407.75,-254 557.25,-254 557.25,-286"/>
<text text-anchor="start" x="415.75" y="-272.5" font-family="Helvetica,sans-Serif" font-size="10.00">fr.softsf.canscan.CanScan.get</text>
<text text-anchor="middle" x="482.5" y="-260.5" font-family="Helvetica,sans-Serif" font-size="10.00">ManifestKeys</text>
</a>
</g>
</g>
<!-- Node3&#45;&gt;Node4 -->
<g id="edge4_Node000003_Node000004" class="edge">
<title>Node3&#45;&gt;Node4</title>
<g id="a_edge4_Node000003_Node000004"><a xlink:title=" ">
<path fill="none" stroke="#63b8ff" d="M344.6,-255.94C361.41,-257.67 379.29,-259.5 396.38,-261.26"/>
<polygon fill="#63b8ff" stroke="#63b8ff" points="395.68,-264.71 405.98,-262.25 396.39,-257.74 395.68,-264.71"/>
</a>
</g>
</g>
<!-- Node4&#45;&gt;Node1 -->
<g id="edge5_Node000004_Node000001" class="edge">
<title>Node4&#45;&gt;Node1</title>
<g id="a_edge5_Node000004_Node000001"><a xlink:title=" ">
<path fill="none" stroke="#63b8ff" d="M407.42,-276.04C344.54,-279.9 252.03,-282.57 172,-273 160.65,-271.64 148.74,-269.47 137.21,-266.96"/>
<polygon fill="#63b8ff" stroke="#63b8ff" points="138.31,-263.62 127.78,-264.8 136.75,-270.44 138.31,-263.62"/>
</a>
</g>
</g>
<!-- Node6 -->
<g id="Node000006" class="node">
<title>Node6</title>
<g id="a_Node000006"><a xlink:href="classfr_1_1softsf_1_1canscan_1_1_can_scan.html#a22606ca129489c778fbbe17cb8b70697" target="_top" xlink:title="Calculates the available height for QR code rendering.">
<polygon fill="white" stroke="#666666" points="779.5,-207 604.5,-207 604.5,-175 779.5,-175 779.5,-207"/>
<text text-anchor="start" x="612.5" y="-193.5" font-family="Helvetica,sans-Serif" font-size="10.00">fr.softsf.canscan.CanScan.calculate</text>
<text text-anchor="middle" x="692" y="-181.5" font-family="Helvetica,sans-Serif" font-size="10.00">AvailableQrHeight</text>
</a>
</g>
</g>
<!-- Node5&#45;&gt;Node6 -->
<g id="edge7_Node000005_Node000006" class="edge">
<title>Node5&#45;&gt;Node6</title>
<g id="a_edge7_Node000005_Node000006"><a xlink:title=" ">
<path fill="none" stroke="#63b8ff" d="M520.16,-132.39C543.95,-142.71 575.75,-155.94 604.5,-166 609.49,-167.75 614.68,-169.47 619.92,-171.14"/>
<polygon fill="#63b8ff" stroke="#63b8ff" points="618.67,-174.42 629.26,-174.05 620.75,-167.74 618.67,-174.42"/>
</a>
</g>
</g>
<!-- Node7 -->
<g id="Node000007" class="node">
<title>Node7</title>
<g id="a_Node000007"><a xlink:href="classfr_1_1softsf_1_1canscan_1_1_can_scan.html#a4e67b1b5c764e72414a5c0f387810f5c" target="_top" xlink:title="Validates and returns the current QR code margin from the margin slider.">
<polygon fill="white" stroke="#666666" points="776.88,-157 607.12,-157 607.12,-125 776.88,-125 776.88,-157"/>
<text text-anchor="start" x="615.12" y="-143.5" font-family="Helvetica,sans-Serif" font-size="10.00">fr.softsf.canscan.CanScan.validate</text>
<text text-anchor="middle" x="692" y="-131.5" font-family="Helvetica,sans-Serif" font-size="10.00">AndGetMargin</text>
</a>
</g>
</g>
<!-- Node5&#45;&gt;Node7 -->
<g id="edge8_Node000005_Node000007" class="edge">
<title>Node5&#45;&gt;Node7</title>
<g id="a_edge8_Node000005_Node000007"><a xlink:title=" ">
<path fill="none" stroke="#63b8ff" d="M557.53,-124.92C569.87,-126.41 582.81,-127.97 595.59,-129.5"/>
<polygon fill="#63b8ff" stroke="#63b8ff" points="594.9,-132.95 605.25,-130.67 595.74,-126 594.9,-132.95"/>
</a>
</g>
</g>
<!-- Node8 -->
<g id="Node000008" class="node">
<title>Node8</title>
<g id="a_Node000008"><a xlink:href="classfr_1_1softsf_1_1canscan_1_1_can_scan.html#a9e8188875168199cde065113ae2a393d" target="_top" xlink:title="Validates and returns the current image&#45;to&#45;QR ratio from the ratio slider.">
<polygon fill="white" stroke="#666666" points="776.88,-107 607.12,-107 607.12,-75 776.88,-75 776.88,-107"/>
<text text-anchor="start" x="615.12" y="-93.5" font-family="Helvetica,sans-Serif" font-size="10.00">fr.softsf.canscan.CanScan.validate</text>
<text text-anchor="middle" x="692" y="-81.5" font-family="Helvetica,sans-Serif" font-size="10.00">AndGetRatio</text>
</a>
</g>
</g>
<!-- Node5&#45;&gt;Node8 -->
<g id="edge9_Node000005_Node000008" class="edge">
<title>Node5&#45;&gt;Node8</title>
<g id="a_edge9_Node000005_Node000008"><a xlink:title=" ">
<path fill="none" stroke="#63b8ff" d="M557.53,-107.08C569.87,-105.59 582.81,-104.03 595.59,-102.5"/>
<polygon fill="#63b8ff" stroke="#63b8ff" points="595.74,-106 605.25,-101.33 594.9,-99.05 595.74,-106"/>
</a>
</g>
</g>
<!-- Node9 -->
<g id="Node000009" class="node">
<title>Node9</title>
<g id="a_Node000009"><a xlink:href="classfr_1_1softsf_1_1canscan_1_1_can_scan.html#a6d139bb8d0a3c7081096c8956189b684" target="_top" xlink:title="Validates and returns the QR code size from the corresponding text field.">
<polygon fill="white" stroke="#666666" points="776.88,-57 607.12,-57 607.12,-25 776.88,-25 776.88,-57"/>
<text text-anchor="start" x="615.12" y="-43.5" font-family="Helvetica,sans-Serif" font-size="10.00">fr.softsf.canscan.CanScan.validate</text>
<text text-anchor="middle" x="692" y="-31.5" font-family="Helvetica,sans-Serif" font-size="10.00">AndGetSize</text>
</a>
</g>
</g>
<!-- Node5&#45;&gt;Node9 -->
<g id="edge10_Node000005_Node000009" class="edge">
<title>Node5&#45;&gt;Node9</title>
<g id="a_edge10_Node000005_Node000009"><a xlink:title=" ">
<path fill="none" stroke="#63b8ff" d="M547.47,-99.62C554.69,-97.06 561.84,-94.19 568.5,-91 586.07,-82.59 586.91,-74.37 604.5,-66 607.82,-64.42 611.25,-62.92 614.76,-61.5"/>
<polygon fill="#63b8ff" stroke="#63b8ff" points="615.91,-64.81 624.03,-58 613.43,-58.26 615.91,-64.81"/>
</a>
</g>
</g>
<!-- Node10&#45;&gt;Node2 -->
<g id="edge12_Node000010_Node000002" class="edge">
<title>Node10&#45;&gt;Node2</title>
<g id="a_edge12_Node000010_Node000002"><a xlink:title=" ">
<path fill="none" stroke="#63b8ff" d="M340.98,-386C355.16,-386 370.21,-386 384.98,-386"/>
<polygon fill="#63b8ff" stroke="#63b8ff" points="384.7,-389.5 394.7,-386 384.7,-382.5 384.7,-389.5"/>
</a>
</g>
</g>
<!-- Node11&#45;&gt;Node5 -->
<g id="edge14_Node000011_Node000005" class="edge">
<title>Node11&#45;&gt;Node5</title>
<g id="a_edge14_Node000011_Node000005"><a xlink:title=" ">
<path fill="none" stroke="#63b8ff" d="M334.43,-181.53C343.27,-178.92 352.16,-176.06 360.5,-173 387.92,-162.96 417.59,-149.03 440.69,-137.45"/>
<polygon fill="#63b8ff" stroke="#63b8ff" points="442.13,-140.65 449.46,-133.01 438.96,-134.41 442.13,-140.65"/>
</a>
</g>
</g>
<!-- Node12 -->
<g id="Node000012" class="node">
<title>Node12</title>
<g id="a_Node000012"><a xlink:href="classfr_1_1softsf_1_1canscan_1_1_can_scan.html#a9856545d05ef553c8dfddd95a850a360" target="_top" xlink:title="Creates a minimal DocumentListener that executes the given action on any document change.">
<polygon fill="white" stroke="#666666" points="564.75,-214 400.25,-214 400.25,-182 564.75,-182 564.75,-214"/>
<text text-anchor="start" x="408.25" y="-200.5" font-family="Helvetica,sans-Serif" font-size="10.00">fr.softsf.canscan.CanScan.simple</text>
<text text-anchor="middle" x="482.5" y="-188.5" font-family="Helvetica,sans-Serif" font-size="10.00">DocumentListener</text>
</a>
</g>
</g>
<!-- Node11&#45;&gt;Node12 -->
<g id="edge15_Node000011_Node000012" class="edge">
<title>Node11&#45;&gt;Node12</title>
<g id="a_edge15_Node000011_Node000012"><a xlink:title=" ">
<path fill="none" stroke="#63b8ff" d="M352.23,-198C364.1,-198 376.34,-198 388.35,-198"/>
<polygon fill="#63b8ff" stroke="#63b8ff" points="388.25,-201.5 398.25,-198 388.25,-194.5 388.25,-201.5"/>
</a>
</g>
</g>
<!-- Node13&#45;&gt;Node2 -->
<g id="edge17_Node000013_Node000002" class="edge">
<title>Node13&#45;&gt;Node2</title>
<g id="a_edge17_Node000013_Node000002"><a xlink:title=" ">
<path fill="none" stroke="#63b8ff" d="M337.7,-352.44C366.19,-359.09 398.62,-366.66 425.47,-372.92"/>
<polygon fill="#63b8ff" stroke="#63b8ff" points="424.59,-376.31 435.13,-375.18 426.18,-369.5 424.59,-376.31"/>
</a>
</g>
</g>
<!-- Node15&#45;&gt;Node5 -->
<g id="edge20_Node000015_Node000005" class="edge">
<title>Node15&#45;&gt;Node5</title>
<g id="a_edge20_Node000015_Node000005"><a xlink:title=" ">
<path fill="none" stroke="#63b8ff" d="M312.16,-76.48C337.63,-82.42 370.27,-90.04 400.08,-97"/>
<polygon fill="#63b8ff" stroke="#63b8ff" points="398.91,-100.32 409.45,-99.18 400.5,-93.5 398.91,-100.32"/>
</a>
</g>
</g>
<!-- Node16 -->
<g id="Node000016" class="node">
<title>Node16</title>
<g id="a_Node000016"><a xlink:href="enumfr_1_1softsf_1_1canscan_1_1model_1_1_mode.html#a16a898a11ca939056bd7b275f11ea54c" target="_top" xlink:title="Returns the name of the mode as a string.">
<polygon fill="white" stroke="#666666" points="543.38,-82 421.62,-82 421.62,-50 543.38,-50 543.38,-82"/>
<text text-anchor="start" x="429.62" y="-68.5" font-family="Helvetica,sans-Serif" font-size="10.00">fr.softsf.canscan.model.</text>
<text text-anchor="middle" x="482.5" y="-56.5" font-family="Helvetica,sans-Serif" font-size="10.00">Mode.text</text>
</a>
</g>
</g>
<!-- Node15&#45;&gt;Node16 -->
<g id="edge21_Node000015_Node000016" class="edge">
<title>Node15&#45;&gt;Node16</title>
<g id="a_edge21_Node000015_Node000016"><a xlink:title=" ">
<path fill="none" stroke="#63b8ff" d="M360.91,-66C377.4,-66 394.33,-66 410.08,-66"/>
<polygon fill="#63b8ff" stroke="#63b8ff" points="409.82,-69.5 419.82,-66 409.82,-62.5 409.82,-69.5"/>
</a>
</g>
</g>
<!-- Node17 -->
<g id="Node000017" class="node">
<title>Node17</title>
<g id="a_Node000017"><a xlink:href="classfr_1_1softsf_1_1canscan_1_1_can_scan.html#a11fd9295c4843e6e68f9d1e4a710b906" target="_top" xlink:title="Validates the current input fields and toggles the state of the generate button.">
<polygon fill="white" stroke="#666666" points="565.12,-32 399.88,-32 399.88,0 565.12,0 565.12,-32"/>
<text text-anchor="start" x="407.88" y="-18.5" font-family="Helvetica,sans-Serif" font-size="10.00">fr.softsf.canscan.CanScan.update</text>
<text text-anchor="middle" x="482.5" y="-6.5" font-family="Helvetica,sans-Serif" font-size="10.00">GenerateButtonState</text>
</a>
</g>
</g>
<!-- Node15&#45;&gt;Node17 -->
<g id="edge22_Node000015_Node000017" class="edge">
<title>Node15&#45;&gt;Node17</title>
<g id="a_edge22_Node000015_Node000017"><a xlink:title=" ">
<path fill="none" stroke="#63b8ff" d="M312.16,-55.52C337.63,-49.58 370.27,-41.96 400.08,-35"/>
<polygon fill="#63b8ff" stroke="#63b8ff" points="400.5,-38.5 409.45,-32.82 398.91,-31.68 400.5,-38.5"/>
</a>
</g>
</g>
</g>
</svg>

<g id="navigator" transform="translate(0 0)" fill="#404254">
  <rect fill="#f2f5e9" fill-opacity="0.5" stroke="#606060" stroke-width=".5" x="0" y="0" width="60" height="60"/>
  <use id="zoomplus" xlink:href="#zoomPlus" x="17" y="9" onmousedown="handleZoom(evt,'in')"/>
  <use id="zoomminus" xlink:href="#zoomMin" x="42" y="9" onmousedown="handleZoom(evt,'out')"/>
  <use id="reset" xlink:href="#resetDef" x="30" y="36" onmousedown="handleReset()"/>
   <use id="arrowup" xlink:href="#arrowUp" x="0" y="0" onmousedown="handlePan(0,-1)"/>
  <use id="arrowright" xlink:href="#arrowRight" x="0" y="0" onmousedown="handlePan(1,0)"/>
  <use id="arrowdown" xlink:href="#arrowDown" x="0" y="0" onmousedown="handlePan(0,1)"/>
  <use id="arrowleft" xlink:href="#arrowLeft" x="0" y="0" onmousedown="handlePan(-1,0)"/>
</g>
<svg viewBox="0 0 15 15" width="100%" height="30px" preserveAspectRatio="xMaxYMin meet">
 <g id="arrow_out" transform="scale(0.3 0.3)">
  <a xlink:href="classfr_1_1softsf_1_1canscan_1_1_can_scan_a102bcbc6cda608b642e870ba3fde6344_cgraph_org.svg" target="_base">
   <rect id="button" ry="5" rx="5" y="6" x="6" height="38" width="38"
        fill="#f2f5e9" fill-opacity="0.5" stroke="#606060" stroke-width="1.0"/>
   <path id="arrow"
     d="M 11.500037,31.436501 C 11.940474,20.09759 22.043105,11.32322 32.158766,21.979434 L 37.068811,17.246167 C 37.068811,17.246167 37.088388,32 37.088388,32 L 22.160133,31.978069 C 22.160133,31.978069 26.997745,27.140456 26.997745,27.140456 C 18.528582,18.264221 13.291696,25.230495 11.500037,31.436501 z"
     style="fill:#404040;"/>
  </a>
 </g>
</svg>

<style type='text/css'>
<![CDATA[
[data-mouse-over-selected='false'] { opacity: 0.7; }
[data-mouse-over-selected='true']  { opacity: 1.0; }
]]>
</style>
<script type="application/ecmascript"><![CDATA[
document.addEventListener('DOMContentLoaded', (event) => {
  highlightEdges();
  highlightAdjacentNodes();
});
]]></script>
</svg>
