<?xml version="1.0" encoding="UTF-8" standalone="no"?>
<!DOCTYPE svg PUBLIC "-//W3C//DTD SVG 1.1//EN"
 "http://www.w3.org/Graphics/SVG/1.1/DTD/svg11.dtd">
<!-- Generated by graphviz version 12.2.1 (20241206.2353)
 -->
<!-- Title: fr.softsf.canscan.CanScan.switchMode Pages: 1 -->
<svg width="625pt" height="302pt"
 viewBox="0.00 0.00 625.25 302.00" xmlns="http://www.w3.org/2000/svg" xmlns:xlink="http://www.w3.org/1999/xlink">
<g id="page0,1_graph0" class="graph" transform="scale(1 1) rotate(0) translate(4 298)">
<title>fr.softsf.canscan.CanScan.switchMode</title>
<!-- Node1 -->
<g id="Node000001" class="node">
<title>Node1</title>
<g id="a_Node000001"><a xlink:title="Switches between MECARD, MEET, and FREE modes, updating the panel and QR preview.">
<polygon fill="#999999" stroke="#666666" points="188.5,-113 0,-113 0,-93 188.5,-93 188.5,-113"/>
<text text-anchor="middle" x="94.25" y="-99.5" font-family="Helvetica,sans-Serif" font-size="10.00">fr.softsf.canscan.CanScan.switchMode</text>
</a>
</g>
</g>
<!-- Node2 -->
<g id="Node000002" class="node">
<title>Node2</title>
<g id="a_Node000002"><a xlink:href="classfr_1_1softsf_1_1canscan_1_1_can_scan.html#a180290bc488e2346592ded98ccc4b1f3" target="_top" xlink:title="Collects current input and visual settings into a WholeFields for QR code generation.">
<polygon fill="white" stroke="#666666" points="392.75,-194 243.25,-194 243.25,-162 392.75,-162 392.75,-194"/>
<text text-anchor="start" x="251.25" y="-180.5" font-family="Helvetica,sans-Serif" font-size="10.00">fr.softsf.canscan.CanScan.get</text>
<text text-anchor="middle" x="318" y="-168.5" font-family="Helvetica,sans-Serif" font-size="10.00">QrInput</text>
</a>
</g>
</g>
<!-- Node1&#45;&gt;Node2 -->
<g id="edge1_Node000001_Node000002" class="edge">
<title>Node1&#45;&gt;Node2</title>
<g id="a_edge1_Node000001_Node000002"><a xlink:title=" ">
<path fill="none" stroke="#63b8ff" d="M119.75,-113.37C145.54,-124.07 187.46,-140.87 224.5,-153 230.13,-154.84 235.99,-156.66 241.9,-158.42"/>
<polygon fill="#63b8ff" stroke="#63b8ff" points="240.52,-161.66 251.1,-161.09 242.47,-154.94 240.52,-161.66"/>
</a>
</g>
</g>
<!-- Node7 -->
<g id="Node000007" class="node">
<title>Node7</title>
<g id="a_Node000007"><a xlink:href="enumfr_1_1softsf_1_1canscan_1_1model_1_1_mode.html#a16a898a11ca939056bd7b275f11ea54c" target="_top" xlink:title="Returns the mode label.">
<polygon fill="white" stroke="#666666" points="378.88,-144 257.12,-144 257.12,-112 378.88,-112 378.88,-144"/>
<text text-anchor="start" x="265.12" y="-130.5" font-family="Helvetica,sans-Serif" font-size="10.00">fr.softsf.canscan.model.</text>
<text text-anchor="middle" x="318" y="-118.5" font-family="Helvetica,sans-Serif" font-size="10.00">Mode.text</text>
</a>
</g>
</g>
<!-- Node1&#45;&gt;Node7 -->
<g id="edge6_Node000001_Node000007" class="edge">
<title>Node1&#45;&gt;Node7</title>
<g id="a_edge6_Node000001_Node000007"><a xlink:title=" ">
<path fill="none" stroke="#63b8ff" d="M188.33,-113.49C207.38,-115.64 227.15,-117.87 245.31,-119.92"/>
<polygon fill="#63b8ff" stroke="#63b8ff" points="244.85,-123.39 255.18,-121.03 245.63,-116.43 244.85,-123.39"/>
</a>
</g>
</g>
<!-- Node8 -->
<g id="Node000008" class="node">
<title>Node8</title>
<g id="a_Node000008"><a xlink:href="classfr_1_1softsf_1_1canscan_1_1_can_scan.html#a11fd9295c4843e6e68f9d1e4a710b906" target="_top" xlink:title="Enables or disables the &quot;Generate&quot; button based on required fields for the current mode.">
<polygon fill="white" stroke="#666666" points="400.62,-94 235.38,-94 235.38,-62 400.62,-62 400.62,-94"/>
<text text-anchor="start" x="243.38" y="-80.5" font-family="Helvetica,sans-Serif" font-size="10.00">fr.softsf.canscan.CanScan.update</text>
<text text-anchor="middle" x="318" y="-68.5" font-family="Helvetica,sans-Serif" font-size="10.00">GenerateButtonState</text>
</a>
</g>
</g>
<!-- Node1&#45;&gt;Node8 -->
<g id="edge7_Node000001_Node000008" class="edge">
<title>Node1&#45;&gt;Node8</title>
<g id="a_edge7_Node000001_Node000008"><a xlink:title=" ">
<path fill="none" stroke="#63b8ff" d="M188.33,-92.51C200.09,-91.18 212.14,-89.82 223.9,-88.5"/>
<polygon fill="#63b8ff" stroke="#63b8ff" points="224.03,-92 233.58,-87.41 223.25,-85.05 224.03,-92"/>
</a>
</g>
</g>
<!-- Node10 -->
<g id="Node000010" class="node">
<title>Node10</title>
<g id="a_Node000010"><a xlink:href="classfr_1_1softsf_1_1canscan_1_1ui_1_1worker_1_1_dynamic_preview_worker.html#aab1382704fa1f4c27f1eab80fc8534b1" target="_top" xlink:title="Updates and schedules a debounced QR code preview refresh.">
<polygon fill="white" stroke="#666666" points="411.5,-44 224.5,-44 224.5,0 411.5,0 411.5,-44"/>
<text text-anchor="start" x="232.5" y="-30.5" font-family="Helvetica,sans-Serif" font-size="10.00">fr.softsf.canscan.ui.worker.</text>
<text text-anchor="start" x="232.5" y="-18.5" font-family="Helvetica,sans-Serif" font-size="10.00">DynamicPreviewWorker.updateQrCode</text>
<text text-anchor="middle" x="318" y="-6.5" font-family="Helvetica,sans-Serif" font-size="10.00">Preview</text>
</a>
</g>
</g>
<!-- Node1&#45;&gt;Node10 -->
<g id="edge9_Node000001_Node000010" class="edge">
<title>Node1&#45;&gt;Node10</title>
<g id="a_edge9_Node000001_Node000010"><a xlink:title=" ">
<path fill="none" stroke="#63b8ff" d="M120.87,-92.69C146.85,-82.33 188.29,-66.06 224.5,-53 228.94,-51.4 233.5,-49.78 238.12,-48.17"/>
<polygon fill="#63b8ff" stroke="#63b8ff" points="239.2,-51.49 247.5,-44.91 236.91,-44.88 239.2,-51.49"/>
</a>
</g>
</g>
<!-- Node3 -->
<g id="Node000003" class="node">
<title>Node3</title>
<g id="a_Node000003"><a xlink:href="classfr_1_1softsf_1_1canscan_1_1_can_scan.html#a4e67b1b5c764e72414a5c0f387810f5c" target="_top" xlink:title="Validates and returns the current QR code margin from the margin slider.">
<polygon fill="white" stroke="#666666" points="617.25,-294 447.5,-294 447.5,-262 617.25,-262 617.25,-294"/>
<text text-anchor="start" x="455.5" y="-280.5" font-family="Helvetica,sans-Serif" font-size="10.00">fr.softsf.canscan.CanScan.validate</text>
<text text-anchor="middle" x="532.38" y="-268.5" font-family="Helvetica,sans-Serif" font-size="10.00">AndGetMargin</text>
</a>
</g>
</g>
<!-- Node2&#45;&gt;Node3 -->
<g id="edge2_Node000002_Node000003" class="edge">
<title>Node2&#45;&gt;Node3</title>
<g id="a_edge2_Node000002_Node000003"><a xlink:title=" ">
<path fill="none" stroke="#63b8ff" d="M343.19,-194.49C368.36,-211.06 409.34,-236.46 447.5,-253 451.28,-254.64 455.19,-256.21 459.18,-257.71"/>
<polygon fill="#63b8ff" stroke="#63b8ff" points="457.82,-260.94 468.41,-261 460.17,-254.34 457.82,-260.94"/>
</a>
</g>
</g>
<!-- Node4 -->
<g id="Node000004" class="node">
<title>Node4</title>
<g id="a_Node000004"><a xlink:href="classfr_1_1softsf_1_1canscan_1_1_can_scan.html#a8a2b238ac4af96d8710b3e5d7d051f77" target="_top" xlink:title="Validates and returns the current meet UID from the meet title field.">
<polygon fill="white" stroke="#666666" points="617.25,-244 447.5,-244 447.5,-212 617.25,-212 617.25,-244"/>
<text text-anchor="start" x="455.5" y="-230.5" font-family="Helvetica,sans-Serif" font-size="10.00">fr.softsf.canscan.CanScan.validate</text>
<text text-anchor="middle" x="532.38" y="-218.5" font-family="Helvetica,sans-Serif" font-size="10.00">AndGetMeetUID</text>
</a>
</g>
</g>
<!-- Node2&#45;&gt;Node4 -->
<g id="edge3_Node000002_Node000004" class="edge">
<title>Node2&#45;&gt;Node4</title>
<g id="a_edge3_Node000002_Node000004"><a xlink:title=" ">
<path fill="none" stroke="#63b8ff" d="M388.83,-194.44C408.52,-199.08 430.1,-204.16 450.39,-208.93"/>
<polygon fill="#63b8ff" stroke="#63b8ff" points="449.49,-212.32 460.03,-211.2 451.09,-205.5 449.49,-212.32"/>
</a>
</g>
</g>
<!-- Node5 -->
<g id="Node000005" class="node">
<title>Node5</title>
<g id="a_Node000005"><a xlink:href="classfr_1_1softsf_1_1canscan_1_1_can_scan.html#a9e8188875168199cde065113ae2a393d" target="_top" xlink:title="Validates and returns the current image&#45;to&#45;QR ratio from the ratio slider.">
<polygon fill="white" stroke="#666666" points="617.25,-194 447.5,-194 447.5,-162 617.25,-162 617.25,-194"/>
<text text-anchor="start" x="455.5" y="-180.5" font-family="Helvetica,sans-Serif" font-size="10.00">fr.softsf.canscan.CanScan.validate</text>
<text text-anchor="middle" x="532.38" y="-168.5" font-family="Helvetica,sans-Serif" font-size="10.00">AndGetRatio</text>
</a>
</g>
</g>
<!-- Node2&#45;&gt;Node5 -->
<g id="edge4_Node000002_Node000005" class="edge">
<title>Node2&#45;&gt;Node5</title>
<g id="a_edge4_Node000002_Node000005"><a xlink:title=" ">
<path fill="none" stroke="#63b8ff" d="M392.98,-178C406.77,-178 421.36,-178 435.7,-178"/>
<polygon fill="#63b8ff" stroke="#63b8ff" points="435.6,-181.5 445.6,-178 435.6,-174.5 435.6,-181.5"/>
</a>
</g>
</g>
<!-- Node6 -->
<g id="Node000006" class="node">
<title>Node6</title>
<g id="a_Node000006"><a xlink:href="classfr_1_1softsf_1_1canscan_1_1_can_scan.html#a6d139bb8d0a3c7081096c8956189b684" target="_top" xlink:title="Validates and returns the QR code size from the corresponding text field.">
<polygon fill="white" stroke="#666666" points="617.25,-144 447.5,-144 447.5,-112 617.25,-112 617.25,-144"/>
<text text-anchor="start" x="455.5" y="-130.5" font-family="Helvetica,sans-Serif" font-size="10.00">fr.softsf.canscan.CanScan.validate</text>
<text text-anchor="middle" x="532.38" y="-118.5" font-family="Helvetica,sans-Serif" font-size="10.00">AndGetSize</text>
</a>
</g>
</g>
<!-- Node2&#45;&gt;Node6 -->
<g id="edge5_Node000002_Node000006" class="edge">
<title>Node2&#45;&gt;Node6</title>
<g id="a_edge5_Node000002_Node000006"><a xlink:title=" ">
<path fill="none" stroke="#63b8ff" d="M388.83,-161.56C408.52,-156.92 430.1,-151.84 450.39,-147.07"/>
<polygon fill="#63b8ff" stroke="#63b8ff" points="451.09,-150.5 460.03,-144.8 449.49,-143.68 451.09,-150.5"/>
</a>
</g>
</g>
<!-- Node9 -->
<g id="Node000009" class="node">
<title>Node9</title>
<g id="a_Node000009"><a xlink:href="classfr_1_1softsf_1_1canscan_1_1_can_scan.html#a3ce6e8b8bd62f20e8e8b9a744976c695" target="_top" xlink:title="Determines whether the &quot;Generate&quot; button should be disabled for the current mode.">
<polygon fill="white" stroke="#666666" points="614.62,-94 450.12,-94 450.12,-62 614.62,-62 614.62,-94"/>
<text text-anchor="start" x="458.12" y="-80.5" font-family="Helvetica,sans-Serif" font-size="10.00">fr.softsf.canscan.CanScan.should</text>
<text text-anchor="middle" x="532.38" y="-68.5" font-family="Helvetica,sans-Serif" font-size="10.00">DisableGenerateButton</text>
</a>
</g>
</g>
<!-- Node8&#45;&gt;Node9 -->
<g id="edge8_Node000008_Node000009" class="edge">
<title>Node8&#45;&gt;Node9</title>
<g id="a_edge8_Node000008_Node000009"><a xlink:title=" ">
<path fill="none" stroke="#63b8ff" d="M401.11,-78C413.35,-78 426.05,-78 438.49,-78"/>
<polygon fill="#63b8ff" stroke="#63b8ff" points="438.32,-81.5 448.32,-78 438.32,-74.5 438.32,-81.5"/>
</a>
</g>
</g>
<!-- Node11 -->
<g id="Node000011" class="node">
<title>Node11</title>
<g id="a_Node000011"><a xlink:href="classfr_1_1softsf_1_1canscan_1_1ui_1_1worker_1_1_abstract_dynamic_worker.html#abd8ce1ed48ee82ef39d7d169a051faf6" target="_top" xlink:title=" ">
<polygon fill="white" stroke="#666666" points="616.12,-44 448.62,-44 448.62,0 616.12,0 616.12,-44"/>
<text text-anchor="start" x="456.62" y="-30.5" font-family="Helvetica,sans-Serif" font-size="10.00">fr.softsf.canscan.ui.worker.</text>
<text text-anchor="start" x="456.62" y="-18.5" font-family="Helvetica,sans-Serif" font-size="10.00">AbstractDynamicWorker&lt; Buffered</text>
<text text-anchor="middle" x="532.38" y="-6.5" font-family="Helvetica,sans-Serif" font-size="10.00">Image &gt;::resetAndStartWorker</text>
</a>
</g>
</g>
<!-- Node10&#45;&gt;Node11 -->
<g id="edge10_Node000010_Node000011" class="edge">
<title>Node10&#45;&gt;Node11</title>
<g id="a_edge10_Node000010_Node000011"><a xlink:title=" ">
<path fill="none" stroke="#63b8ff" d="M411.84,-22C420.21,-22 428.68,-22 437.06,-22"/>
<polygon fill="#63b8ff" stroke="#63b8ff" points="436.89,-25.5 446.89,-22 436.89,-18.5 436.89,-25.5"/>
</a>
</g>
</g>
</g>
</svg>
