<?xml version="1.0" encoding="UTF-8" standalone="no"?>
<!DOCTYPE svg PUBLIC "-//W3C//DTD SVG 1.1//EN"
 "http://www.w3.org/Graphics/SVG/1.1/DTD/svg11.dtd">
<!-- Generated by graphviz version 12.2.1 (20241206.2353)
 -->
<!-- Title: fr.softsf.canscan.CanScanUTest.givenBlueColorSelected_whenChooseBgColor_thenButtonTextAndColorUpdated Pages: 1 -->
<svg width="915pt" height="95pt"
 viewBox="0.00 0.00 914.50 95.00" xmlns="http://www.w3.org/2000/svg" xmlns:xlink="http://www.w3.org/1999/xlink">
<g id="graph0" class="graph" transform="scale(1 1) rotate(0) translate(4 91)">
<title>fr.softsf.canscan.CanScanUTest.givenBlueColorSelected_whenChooseBgColor_thenButtonTextAndColorUpdated</title>
<!-- Node1 -->
<g id="Node000001" class="node">
<title>Node1</title>
<g id="a_Node000001"><a xlink:title=" ">
<polygon fill="#999999" stroke="#666666" points="202,-69 0,-69 0,-13 202,-13 202,-69"/>
<text text-anchor="start" x="8" y="-55.5" font-family="Helvetica,sans-Serif" font-size="10.00">fr.softsf.canscan.CanScan</text>
<text text-anchor="start" x="8" y="-43.5" font-family="Helvetica,sans-Serif" font-size="10.00">UTest.givenBlueColorSelected</text>
<text text-anchor="start" x="8" y="-31.5" font-family="Helvetica,sans-Serif" font-size="10.00">_whenChooseBgColor_thenButtonTextAnd</text>
<text text-anchor="middle" x="101" y="-19.5" font-family="Helvetica,sans-Serif" font-size="10.00">ColorUpdated</text>
</a>
</g>
</g>
<!-- Node1&#45;&gt;Node1 -->
<g id="edge6_Node000001_Node000001" class="edge">
<title>Node1&#45;&gt;Node1</title>
<g id="a_edge6_Node000001_Node000001"><a xlink:title=" ">
<path fill="none" stroke="#63b8ff" d="M63.49,-69.3C63.09,-79.09 75.59,-87 101,-87 116.88,-87 127.72,-83.91 133.52,-79.2"/>
<polygon fill="#63b8ff" stroke="#63b8ff" points="136.45,-81.16 137.83,-70.65 130.2,-78 136.45,-81.16"/>
</a>
</g>
</g>
<!-- Node2 -->
<g id="Node000002" class="node">
<title>Node2</title>
<g id="a_Node000002"><a xlink:href="classfr_1_1softsf_1_1canscan_1_1ui_1_1_color_operation.html#a2b8df9a3e67501adf287968d641a0c42" target="_top" xlink:title="Opens a color chooser dialog and updates the button with the selected color.">
<polygon fill="white" stroke="#666666" points="364.25,-57 238,-57 238,-25 364.25,-25 364.25,-57"/>
<text text-anchor="start" x="246" y="-43.5" font-family="Helvetica,sans-Serif" font-size="10.00">fr.softsf.canscan.ui.Color</text>
<text text-anchor="middle" x="301.12" y="-31.5" font-family="Helvetica,sans-Serif" font-size="10.00">Operation.chooseColor</text>
</a>
</g>
</g>
<!-- Node1&#45;&gt;Node2 -->
<g id="edge1_Node000001_Node000002" class="edge">
<title>Node1&#45;&gt;Node2</title>
<g id="a_edge1_Node000001_Node000002"><a xlink:title=" ">
<path fill="none" stroke="#63b8ff" d="M202.22,-41C210.35,-41 218.46,-41 226.35,-41"/>
<polygon fill="#63b8ff" stroke="#63b8ff" points="226.2,-44.5 236.2,-41 226.2,-37.5 226.2,-44.5"/>
</a>
</g>
</g>
<!-- Node3 -->
<g id="Node000003" class="node">
<title>Node3</title>
<g id="a_Node000003"><a xlink:href="classfr_1_1softsf_1_1canscan_1_1ui_1_1_color_operation.html#a466717b99c523fa665a8895bb9c91b71" target="_top" xlink:title="Updates a button&#39;s icon and text to reflect a new color.">
<polygon fill="white" stroke="#666666" points="562.5,-57 400.25,-57 400.25,-25 562.5,-25 562.5,-57"/>
<text text-anchor="start" x="408.25" y="-43.5" font-family="Helvetica,sans-Serif" font-size="10.00">fr.softsf.canscan.ui.Color</text>
<text text-anchor="middle" x="481.38" y="-31.5" font-family="Helvetica,sans-Serif" font-size="10.00">Operation.updateButtonWithColor</text>
</a>
</g>
</g>
<!-- Node2&#45;&gt;Node3 -->
<g id="edge2_Node000002_Node000003" class="edge">
<title>Node2&#45;&gt;Node3</title>
<g id="a_edge2_Node000002_Node000003"><a xlink:title=" ">
<path fill="none" stroke="#63b8ff" d="M364.72,-41C372.42,-41 380.42,-41 388.44,-41"/>
<polygon fill="#63b8ff" stroke="#63b8ff" points="388.27,-44.5 398.27,-41 388.27,-37.5 388.27,-44.5"/>
</a>
</g>
</g>
<!-- Node4 -->
<g id="Node000004" class="node">
<title>Node4</title>
<g id="a_Node000004"><a xlink:href="classfr_1_1softsf_1_1canscan_1_1ui_1_1_color_operation.html#a2dc9a80146b95145d06e8ad45171e889" target="_top" xlink:title="Converts a Color object to its hexadecimal RGB string representation.">
<polygon fill="white" stroke="#666666" points="726.62,-82 600.38,-82 600.38,-50 726.62,-50 726.62,-82"/>
<text text-anchor="start" x="608.38" y="-68.5" font-family="Helvetica,sans-Serif" font-size="10.00">fr.softsf.canscan.ui.Color</text>
<text text-anchor="middle" x="663.5" y="-56.5" font-family="Helvetica,sans-Serif" font-size="10.00">Operation.colorToHex</text>
</a>
</g>
</g>
<!-- Node3&#45;&gt;Node4 -->
<g id="edge3_Node000003_Node000004" class="edge">
<title>Node3&#45;&gt;Node4</title>
<g id="a_edge3_Node000003_Node000004"><a xlink:title=" ">
<path fill="none" stroke="#63b8ff" d="M562.95,-52.18C571.62,-53.39 580.4,-54.6 588.97,-55.79"/>
<polygon fill="#63b8ff" stroke="#63b8ff" points="588.21,-59.22 598.6,-57.13 589.17,-52.29 588.21,-59.22"/>
</a>
</g>
</g>
<!-- Node5 -->
<g id="Node000005" class="node">
<title>Node5</title>
<g id="a_Node000005"><a xlink:href="classfr_1_1softsf_1_1canscan_1_1ui_1_1_color_operation.html#a71702ffd14d463001f26baa6e9a77e1a" target="_top" xlink:title="Creates a square icon filled with the specified color and a visible border.">
<polygon fill="white" stroke="#666666" points="728.5,-32 598.5,-32 598.5,0 728.5,0 728.5,-32"/>
<text text-anchor="start" x="606.5" y="-18.5" font-family="Helvetica,sans-Serif" font-size="10.00">fr.softsf.canscan.ui.Color</text>
<text text-anchor="middle" x="663.5" y="-6.5" font-family="Helvetica,sans-Serif" font-size="10.00">Operation.createColorIcon</text>
</a>
</g>
</g>
<!-- Node3&#45;&gt;Node5 -->
<g id="edge4_Node000003_Node000005" class="edge">
<title>Node3&#45;&gt;Node5</title>
<g id="a_edge4_Node000003_Node000005"><a xlink:title=" ">
<path fill="none" stroke="#63b8ff" d="M562.95,-29.82C570.98,-28.7 579.1,-27.58 587.07,-26.47"/>
<polygon fill="#63b8ff" stroke="#63b8ff" points="587.27,-29.97 596.7,-25.13 586.31,-23.04 587.27,-29.97"/>
</a>
</g>
</g>
<!-- Node6 -->
<g id="Node000006" class="node">
<title>Node6</title>
<g id="a_Node000006"><a xlink:href="classfr_1_1softsf_1_1canscan_1_1ui_1_1_color_operation.html#a98d693b64c1f7003ca834a41a0f123cb" target="_top" xlink:title="Disposes the current icon of a button to free memory.">
<polygon fill="white" stroke="#666666" points="906.5,-32 764.5,-32 764.5,0 906.5,0 906.5,-32"/>
<text text-anchor="start" x="772.5" y="-18.5" font-family="Helvetica,sans-Serif" font-size="10.00">fr.softsf.canscan.ui.Color</text>
<text text-anchor="middle" x="835.5" y="-6.5" font-family="Helvetica,sans-Serif" font-size="10.00">Operation.disposeButtonIcon</text>
</a>
</g>
</g>
<!-- Node5&#45;&gt;Node6 -->
<g id="edge5_Node000005_Node000006" class="edge">
<title>Node5&#45;&gt;Node6</title>
<g id="a_edge5_Node000005_Node000006"><a xlink:title=" ">
<path fill="none" stroke="#63b8ff" d="M728.77,-16C736.63,-16 744.74,-16 752.82,-16"/>
<polygon fill="#63b8ff" stroke="#63b8ff" points="752.66,-19.5 762.66,-16 752.66,-12.5 752.66,-19.5"/>
</a>
</g>
</g>
</g>
</svg>
