<?xml version="1.0" encoding="UTF-8" standalone="no"?>
<!DOCTYPE svg PUBLIC "-//W3C//DTD SVG 1.1//EN"
 "http://www.w3.org/Graphics/SVG/1.1/DTD/svg11.dtd">
<!-- Generated by graphviz version 12.2.1 (20241206.2353)
 -->
<!-- Title: fr.softsf.canscan.CanScan.initializeMainPanel Pages: 1 -->
<svg width="839pt" height="190pt"
 viewBox="0.00 0.00 838.50 190.00" xmlns="http://www.w3.org/2000/svg" xmlns:xlink="http://www.w3.org/1999/xlink">
<g id="graph0" class="graph" transform="scale(1 1) rotate(0) translate(4 186)">
<title>fr.softsf.canscan.CanScan.initializeMainPanel</title>
<!-- Node1 -->
<g id="Node000001" class="node">
<title>Node1</title>
<g id="a_Node000001"><a xlink:title="Builds the main panel with header, QR preview overlay, and spacer.">
<polygon fill="#999999" stroke="#666666" points="171.25,-129 0,-129 0,-97 171.25,-97 171.25,-129"/>
<text text-anchor="start" x="8" y="-115.5" font-family="Helvetica,sans-Serif" font-size="10.00">fr.softsf.canscan.CanScan.initialize</text>
<text text-anchor="middle" x="85.62" y="-103.5" font-family="Helvetica,sans-Serif" font-size="10.00">MainPanel</text>
</a>
</g>
</g>
<!-- Node2 -->
<g id="Node000002" class="node">
<title>Node2</title>
<g id="a_Node000002"><a xlink:href="classfr_1_1softsf_1_1canscan_1_1_can_scan.html#ad470e3c0750cf142dc611b1aeeda3a97" target="_top" xlink:title="Attaches automatic QR code preview updates to all input fields and controls.">
<polygon fill="white" stroke="#666666" points="400.25,-151 207.25,-151 207.25,-119 400.25,-119 400.25,-151"/>
<text text-anchor="start" x="215.25" y="-137.5" font-family="Helvetica,sans-Serif" font-size="10.00">fr.softsf.canscan.CanScan.automatic</text>
<text text-anchor="middle" x="303.75" y="-125.5" font-family="Helvetica,sans-Serif" font-size="10.00">QRCodeRenderingForFieldsAndControls</text>
</a>
</g>
</g>
<!-- Node1&#45;&gt;Node2 -->
<g id="edge1_Node000001_Node000002" class="edge">
<title>Node1&#45;&gt;Node2</title>
<g id="a_edge1_Node000001_Node000002"><a xlink:title=" ">
<path fill="none" stroke="#63b8ff" d="M171.73,-121.66C179.6,-122.46 187.64,-123.28 195.67,-124.1"/>
<polygon fill="#63b8ff" stroke="#63b8ff" points="195.19,-127.57 205.5,-125.1 195.9,-120.61 195.19,-127.57"/>
</a>
</g>
</g>
<!-- Node4 -->
<g id="Node000004" class="node">
<title>Node4</title>
<g id="a_Node000004"><a xlink:href="classfr_1_1softsf_1_1canscan_1_1_can_scan.html#a180290bc488e2346592ded98ccc4b1f3" target="_top" xlink:title="Collects current input and visual settings into a WholeFields for QR code generation.">
<polygon fill="white" stroke="#666666" points="602.62,-107 453.12,-107 453.12,-75 602.62,-75 602.62,-107"/>
<text text-anchor="start" x="461.12" y="-93.5" font-family="Helvetica,sans-Serif" font-size="10.00">fr.softsf.canscan.CanScan.get</text>
<text text-anchor="middle" x="527.88" y="-81.5" font-family="Helvetica,sans-Serif" font-size="10.00">QrInput</text>
</a>
</g>
</g>
<!-- Node1&#45;&gt;Node4 -->
<g id="edge8_Node000001_Node000004" class="edge">
<title>Node1&#45;&gt;Node4</title>
<g id="a_edge8_Node000001_Node000004"><a xlink:title=" ">
<path fill="none" stroke="#63b8ff" d="M171.51,-108.76C249.27,-104.87 363.78,-99.15 441.65,-95.26"/>
<polygon fill="#63b8ff" stroke="#63b8ff" points="441.54,-98.77 451.35,-94.77 441.19,-91.78 441.54,-98.77"/>
</a>
</g>
</g>
<!-- Node3 -->
<g id="Node000003" class="node">
<title>Node3</title>
<g id="a_Node000003"><a xlink:href="enumfr_1_1softsf_1_1canscan_1_1ui_1_1_ui_components_configuration.html#aa700d9f2a270f6e54fcb53111855fa44" target="_top" xlink:title="Creates simple DocumentListener that executes action on any document change.">
<polygon fill="white" stroke="#666666" points="619.5,-157 436.25,-157 436.25,-125 619.5,-125 619.5,-157"/>
<text text-anchor="start" x="444.25" y="-143.5" font-family="Helvetica,sans-Serif" font-size="10.00">fr.softsf.canscan.ui.UiComponents</text>
<text text-anchor="middle" x="527.88" y="-131.5" font-family="Helvetica,sans-Serif" font-size="10.00">Configuration.createDocumentListener</text>
</a>
</g>
</g>
<!-- Node2&#45;&gt;Node3 -->
<g id="edge2_Node000002_Node000003" class="edge">
<title>Node2&#45;&gt;Node3</title>
<g id="a_edge2_Node000002_Node000003"><a xlink:title=" ">
<path fill="none" stroke="#63b8ff" d="M400.56,-137.59C408.54,-137.8 416.63,-138.02 424.66,-138.24"/>
<polygon fill="#63b8ff" stroke="#63b8ff" points="424.34,-141.73 434.43,-138.5 424.53,-134.73 424.34,-141.73"/>
</a>
</g>
</g>
<!-- Node2&#45;&gt;Node4 -->
<g id="edge3_Node000002_Node000004" class="edge">
<title>Node2&#45;&gt;Node4</title>
<g id="a_edge3_Node000002_Node000004"><a xlink:title=" ">
<path fill="none" stroke="#63b8ff" d="M387.78,-118.55C405.35,-115.07 423.92,-111.39 441.57,-107.9"/>
<polygon fill="#63b8ff" stroke="#63b8ff" points="442.11,-111.36 451.24,-105.98 440.75,-104.49 442.11,-111.36"/>
</a>
</g>
</g>
<!-- Node5 -->
<g id="Node000005" class="node">
<title>Node5</title>
<g id="a_Node000005"><a xlink:href="classfr_1_1softsf_1_1canscan_1_1_can_scan.html#a381368b99c4a0857c6abe6349b2c6d27" target="_top" xlink:title="Calculates the available height for QR code rendering.">
<polygon fill="white" stroke="#666666" points="830.5,-182 655.5,-182 655.5,-150 830.5,-150 830.5,-182"/>
<text text-anchor="start" x="663.5" y="-168.5" font-family="Helvetica,sans-Serif" font-size="10.00">fr.softsf.canscan.CanScan.calculate</text>
<text text-anchor="middle" x="743" y="-156.5" font-family="Helvetica,sans-Serif" font-size="10.00">AvailableQrCodeLabelHeight</text>
</a>
</g>
</g>
<!-- Node4&#45;&gt;Node5 -->
<g id="edge4_Node000004_Node000005" class="edge">
<title>Node4&#45;&gt;Node5</title>
<g id="a_edge4_Node000004_Node000005"><a xlink:title=" ">
<path fill="none" stroke="#63b8ff" d="M598.05,-107.44C605.42,-109.97 612.7,-112.82 619.5,-116 637.14,-124.26 637.91,-132.63 655.5,-141 658.82,-142.58 662.25,-144.08 665.76,-145.5"/>
<polygon fill="#63b8ff" stroke="#63b8ff" points="664.43,-148.74 675.03,-149 666.91,-142.19 664.43,-148.74"/>
</a>
</g>
</g>
<!-- Node6 -->
<g id="Node000006" class="node">
<title>Node6</title>
<g id="a_Node000006"><a xlink:href="classfr_1_1softsf_1_1canscan_1_1_can_scan.html#a4e67b1b5c764e72414a5c0f387810f5c" target="_top" xlink:title="Validates and returns the current QR code margin from the margin slider.">
<polygon fill="white" stroke="#666666" points="827.88,-132 658.12,-132 658.12,-100 827.88,-100 827.88,-132"/>
<text text-anchor="start" x="666.12" y="-118.5" font-family="Helvetica,sans-Serif" font-size="10.00">fr.softsf.canscan.CanScan.validate</text>
<text text-anchor="middle" x="743" y="-106.5" font-family="Helvetica,sans-Serif" font-size="10.00">AndGetMargin</text>
</a>
</g>
</g>
<!-- Node4&#45;&gt;Node6 -->
<g id="edge5_Node000004_Node000006" class="edge">
<title>Node4&#45;&gt;Node6</title>
<g id="a_edge5_Node000004_Node000006"><a xlink:title=" ">
<path fill="none" stroke="#63b8ff" d="M603.12,-99.71C617.19,-101.36 632.09,-103.11 646.71,-104.82"/>
<polygon fill="#63b8ff" stroke="#63b8ff" points="645.97,-108.26 656.31,-105.95 646.78,-101.31 645.97,-108.26"/>
</a>
</g>
</g>
<!-- Node7 -->
<g id="Node000007" class="node">
<title>Node7</title>
<g id="a_Node000007"><a xlink:href="classfr_1_1softsf_1_1canscan_1_1_can_scan.html#a9e8188875168199cde065113ae2a393d" target="_top" xlink:title="Validates and returns the current image&#45;to&#45;QR ratio from the ratio slider.">
<polygon fill="white" stroke="#666666" points="827.88,-82 658.12,-82 658.12,-50 827.88,-50 827.88,-82"/>
<text text-anchor="start" x="666.12" y="-68.5" font-family="Helvetica,sans-Serif" font-size="10.00">fr.softsf.canscan.CanScan.validate</text>
<text text-anchor="middle" x="743" y="-56.5" font-family="Helvetica,sans-Serif" font-size="10.00">AndGetRatio</text>
</a>
</g>
</g>
<!-- Node4&#45;&gt;Node7 -->
<g id="edge6_Node000004_Node000007" class="edge">
<title>Node4&#45;&gt;Node7</title>
<g id="a_edge6_Node000004_Node000007"><a xlink:title=" ">
<path fill="none" stroke="#63b8ff" d="M603.12,-82.29C617.19,-80.64 632.09,-78.89 646.71,-77.18"/>
<polygon fill="#63b8ff" stroke="#63b8ff" points="646.78,-80.69 656.31,-76.05 645.97,-73.74 646.78,-80.69"/>
</a>
</g>
</g>
<!-- Node8 -->
<g id="Node000008" class="node">
<title>Node8</title>
<g id="a_Node000008"><a xlink:href="classfr_1_1softsf_1_1canscan_1_1_can_scan.html#a6d139bb8d0a3c7081096c8956189b684" target="_top" xlink:title="Validates and returns the QR code size from the corresponding text field.">
<polygon fill="white" stroke="#666666" points="827.88,-32 658.12,-32 658.12,0 827.88,0 827.88,-32"/>
<text text-anchor="start" x="666.12" y="-18.5" font-family="Helvetica,sans-Serif" font-size="10.00">fr.softsf.canscan.CanScan.validate</text>
<text text-anchor="middle" x="743" y="-6.5" font-family="Helvetica,sans-Serif" font-size="10.00">AndGetSize</text>
</a>
</g>
</g>
<!-- Node4&#45;&gt;Node8 -->
<g id="edge7_Node000004_Node000008" class="edge">
<title>Node4&#45;&gt;Node8</title>
<g id="a_edge7_Node000004_Node000008"><a xlink:title=" ">
<path fill="none" stroke="#63b8ff" d="M567.59,-74.61C592.48,-64.35 625.64,-51.19 655.5,-41 660.6,-39.26 665.88,-37.54 671.22,-35.86"/>
<polygon fill="#63b8ff" stroke="#63b8ff" points="672.23,-39.21 680.76,-32.92 670.17,-32.52 672.23,-39.21"/>
</a>
</g>
</g>
</g>
</svg>
