<?xml version="1.0" encoding="UTF-8" standalone="no"?>
<!DOCTYPE svg PUBLIC "-//W3C//DTD SVG 1.1//EN"
 "http://www.w3.org/Graphics/SVG/1.1/DTD/svg11.dtd">
<!-- Generated by graphviz version 12.2.1 (20241206.2353)
 -->
<!-- Title: fr.softsf.canscan.ui.ColorOperation.initializeColorButton Pages: 1 -->
<svg width="698pt" height="90pt"
 viewBox="0.00 0.00 698.25 90.00" xmlns="http://www.w3.org/2000/svg" xmlns:xlink="http://www.w3.org/1999/xlink">
<g id="graph0" class="graph" transform="scale(1 1) rotate(0) translate(4 86)">
<title>fr.softsf.canscan.ui.ColorOperation.initializeColorButton</title>
<!-- Node1 -->
<g id="Node000001" class="node">
<title>Node1</title>
<g id="a_Node000001"><a xlink:title="Initializes a color button with icon, text, and tooltip.">
<polygon fill="#999999" stroke="#666666" points="148,-57 0,-57 0,-25 148,-25 148,-57"/>
<text text-anchor="start" x="8" y="-43.5" font-family="Helvetica,sans-Serif" font-size="10.00">fr.softsf.canscan.ui.Color</text>
<text text-anchor="middle" x="74" y="-31.5" font-family="Helvetica,sans-Serif" font-size="10.00">Operation.initializeColorButton</text>
</a>
</g>
</g>
<!-- Node2 -->
<g id="Node000002" class="node">
<title>Node2</title>
<g id="a_Node000002"><a xlink:href="classfr_1_1softsf_1_1canscan_1_1ui_1_1_color_operation.html#a466717b99c523fa665a8895bb9c91b71" target="_top" xlink:title="Updates a button&#39;s icon and text to reflect a new color.">
<polygon fill="white" stroke="#666666" points="346.25,-57 184,-57 184,-25 346.25,-25 346.25,-57"/>
<text text-anchor="start" x="192" y="-43.5" font-family="Helvetica,sans-Serif" font-size="10.00">fr.softsf.canscan.ui.Color</text>
<text text-anchor="middle" x="265.12" y="-31.5" font-family="Helvetica,sans-Serif" font-size="10.00">Operation.updateButtonWithColor</text>
</a>
</g>
</g>
<!-- Node1&#45;&gt;Node2 -->
<g id="edge1_Node000001_Node000002" class="edge">
<title>Node1&#45;&gt;Node2</title>
<g id="a_edge1_Node000001_Node000002"><a xlink:title=" ">
<path fill="none" stroke="#63b8ff" d="M148.39,-41C156.22,-41 164.26,-41 172.27,-41"/>
<polygon fill="#63b8ff" stroke="#63b8ff" points="172.05,-44.5 182.05,-41 172.05,-37.5 172.05,-44.5"/>
</a>
</g>
</g>
<!-- Node3 -->
<g id="Node000003" class="node">
<title>Node3</title>
<g id="a_Node000003"><a xlink:href="classfr_1_1softsf_1_1canscan_1_1ui_1_1_color_operation.html#a2dc9a80146b95145d06e8ad45171e889" target="_top" xlink:title="Converts a Color object to its hexadecimal RGB string representation.">
<polygon fill="white" stroke="#666666" points="510.38,-82 384.12,-82 384.12,-50 510.38,-50 510.38,-82"/>
<text text-anchor="start" x="392.12" y="-68.5" font-family="Helvetica,sans-Serif" font-size="10.00">fr.softsf.canscan.ui.Color</text>
<text text-anchor="middle" x="447.25" y="-56.5" font-family="Helvetica,sans-Serif" font-size="10.00">Operation.colorToHex</text>
</a>
</g>
</g>
<!-- Node2&#45;&gt;Node3 -->
<g id="edge2_Node000002_Node000003" class="edge">
<title>Node2&#45;&gt;Node3</title>
<g id="a_edge2_Node000002_Node000003"><a xlink:title=" ">
<path fill="none" stroke="#63b8ff" d="M346.7,-52.18C355.37,-53.39 364.15,-54.6 372.72,-55.79"/>
<polygon fill="#63b8ff" stroke="#63b8ff" points="371.96,-59.22 382.35,-57.13 372.92,-52.29 371.96,-59.22"/>
</a>
</g>
</g>
<!-- Node4 -->
<g id="Node000004" class="node">
<title>Node4</title>
<g id="a_Node000004"><a xlink:href="classfr_1_1softsf_1_1canscan_1_1ui_1_1_color_operation.html#a71702ffd14d463001f26baa6e9a77e1a" target="_top" xlink:title="Creates a square icon filled with the specified color and a visible border.">
<polygon fill="white" stroke="#666666" points="512.25,-32 382.25,-32 382.25,0 512.25,0 512.25,-32"/>
<text text-anchor="start" x="390.25" y="-18.5" font-family="Helvetica,sans-Serif" font-size="10.00">fr.softsf.canscan.ui.Color</text>
<text text-anchor="middle" x="447.25" y="-6.5" font-family="Helvetica,sans-Serif" font-size="10.00">Operation.createColorIcon</text>
</a>
</g>
</g>
<!-- Node2&#45;&gt;Node4 -->
<g id="edge3_Node000002_Node000004" class="edge">
<title>Node2&#45;&gt;Node4</title>
<g id="a_edge3_Node000002_Node000004"><a xlink:title=" ">
<path fill="none" stroke="#63b8ff" d="M346.7,-29.82C354.73,-28.7 362.85,-27.58 370.82,-26.47"/>
<polygon fill="#63b8ff" stroke="#63b8ff" points="371.02,-29.97 380.45,-25.13 370.06,-23.04 371.02,-29.97"/>
</a>
</g>
</g>
<!-- Node5 -->
<g id="Node000005" class="node">
<title>Node5</title>
<g id="a_Node000005"><a xlink:href="classfr_1_1softsf_1_1canscan_1_1ui_1_1_color_operation.html#a98d693b64c1f7003ca834a41a0f123cb" target="_top" xlink:title="Disposes the current icon of a button to free memory.">
<polygon fill="white" stroke="#666666" points="690.25,-32 548.25,-32 548.25,0 690.25,0 690.25,-32"/>
<text text-anchor="start" x="556.25" y="-18.5" font-family="Helvetica,sans-Serif" font-size="10.00">fr.softsf.canscan.ui.Color</text>
<text text-anchor="middle" x="619.25" y="-6.5" font-family="Helvetica,sans-Serif" font-size="10.00">Operation.disposeButtonIcon</text>
</a>
</g>
</g>
<!-- Node4&#45;&gt;Node5 -->
<g id="edge4_Node000004_Node000005" class="edge">
<title>Node4&#45;&gt;Node5</title>
<g id="a_edge4_Node000004_Node000005"><a xlink:title=" ">
<path fill="none" stroke="#63b8ff" d="M512.52,-16C520.38,-16 528.49,-16 536.57,-16"/>
<polygon fill="#63b8ff" stroke="#63b8ff" points="536.41,-19.5 546.41,-16 536.41,-12.5 536.41,-19.5"/>
</a>
</g>
</g>
</g>
</svg>
