<?xml version="1.0" encoding="UTF-8" standalone="no"?>
<!DOCTYPE svg PUBLIC "-//W3C//DTD SVG 1.1//EN"
 "http://www.w3.org/Graphics/SVG/1.1/DTD/svg11.dtd">
<!-- Generated by graphviz version 12.2.1 (20241206.2353)
 -->
<!-- Title: fr.softsf.canscan.CanScan.generateQrCode Pages: 1 -->
<svg width="853pt" height="420pt"
 viewBox="0.00 0.00 852.75 420.00" xmlns="http://www.w3.org/2000/svg" xmlns:xlink="http://www.w3.org/1999/xlink">
<g id="graph0" class="graph" transform="scale(1 1) rotate(0) translate(4 416)">
<title>fr.softsf.canscan.CanScan.generateQrCode</title>
<!-- Node1 -->
<g id="Node000001" class="node">
<title>Node1</title>
<g id="a_Node000001"><a xlink:title="Generates a QR code from current input fields and visual settings, then saves it via GenerateAndSaveS...">
<polygon fill="#999999" stroke="#666666" points="173.5,-132 0,-132 0,-100 173.5,-100 173.5,-132"/>
<text text-anchor="start" x="8" y="-118.5" font-family="Helvetica,sans-Serif" font-size="10.00">fr.softsf.canscan.CanScan.generate</text>
<text text-anchor="middle" x="86.75" y="-106.5" font-family="Helvetica,sans-Serif" font-size="10.00">QrCode</text>
</a>
</g>
</g>
<!-- Node2 -->
<g id="Node000002" class="node">
<title>Node2</title>
<g id="a_Node000002"><a xlink:href="classfr_1_1softsf_1_1canscan_1_1service_1_1_generate_and_save_service.html#a165443738e1833533e7771d37ead17ed" target="_top" xlink:title="Generates and saves a QR code as a PNG file using the provided data and configuration.">
<polygon fill="white" stroke="#666666" points="378.5,-322 209.5,-322 209.5,-278 378.5,-278 378.5,-322"/>
<text text-anchor="start" x="217.5" y="-308.5" font-family="Helvetica,sans-Serif" font-size="10.00">fr.softsf.canscan.service.</text>
<text text-anchor="start" x="217.5" y="-296.5" font-family="Helvetica,sans-Serif" font-size="10.00">GenerateAndSaveService.generate</text>
<text text-anchor="middle" x="294" y="-284.5" font-family="Helvetica,sans-Serif" font-size="10.00">AndSave</text>
</a>
</g>
</g>
<!-- Node1&#45;&gt;Node2 -->
<g id="edge1_Node000001_Node000002" class="edge">
<title>Node1&#45;&gt;Node2</title>
<g id="a_edge1_Node000001_Node000002"><a xlink:title=" ">
<path fill="none" stroke="#63b8ff" d="M105.96,-132.33C140.55,-163.33 216.17,-231.12 259.92,-270.35"/>
<polygon fill="#63b8ff" stroke="#63b8ff" points="257.32,-272.71 267.1,-276.78 261.99,-267.5 257.32,-272.71"/>
</a>
</g>
</g>
<!-- Node9 -->
<g id="Node000009" class="node">
<title>Node9</title>
<g id="a_Node000009"><a xlink:href="classfr_1_1softsf_1_1canscan_1_1_can_scan.html#a180290bc488e2346592ded98ccc4b1f3" target="_top" xlink:title="Collects current input and visual settings into a WholeFields for QR code generation.">
<polygon fill="white" stroke="#666666" points="368.75,-132 219.25,-132 219.25,-100 368.75,-100 368.75,-132"/>
<text text-anchor="start" x="227.25" y="-118.5" font-family="Helvetica,sans-Serif" font-size="10.00">fr.softsf.canscan.CanScan.get</text>
<text text-anchor="middle" x="294" y="-106.5" font-family="Helvetica,sans-Serif" font-size="10.00">QrInput</text>
</a>
</g>
</g>
<!-- Node1&#45;&gt;Node9 -->
<g id="edge8_Node000001_Node000009" class="edge">
<title>Node1&#45;&gt;Node9</title>
<g id="a_edge8_Node000001_Node000009"><a xlink:title=" ">
<path fill="none" stroke="#63b8ff" d="M173.9,-116C184.98,-116 196.31,-116 207.38,-116"/>
<polygon fill="#63b8ff" stroke="#63b8ff" points="207.27,-119.5 217.27,-116 207.27,-112.5 207.27,-119.5"/>
</a>
</g>
</g>
<!-- Node11 -->
<g id="Node000011" class="node">
<title>Node11</title>
<g id="a_Node000011"><a xlink:href="classfr_1_1softsf_1_1canscan_1_1_can_scan.html#a4e67b1b5c764e72414a5c0f387810f5c" target="_top" xlink:title="Validates and returns the current QR code margin from the margin slider.">
<polygon fill="white" stroke="#666666" points="603.38,-232 433.62,-232 433.62,-200 603.38,-200 603.38,-232"/>
<text text-anchor="start" x="441.62" y="-218.5" font-family="Helvetica,sans-Serif" font-size="10.00">fr.softsf.canscan.CanScan.validate</text>
<text text-anchor="middle" x="518.5" y="-206.5" font-family="Helvetica,sans-Serif" font-size="10.00">AndGetMargin</text>
</a>
</g>
</g>
<!-- Node1&#45;&gt;Node11 -->
<g id="edge15_Node000001_Node000011" class="edge">
<title>Node1&#45;&gt;Node11</title>
<g id="a_edge15_Node000001_Node000011"><a xlink:title=" ">
<path fill="none" stroke="#63b8ff" d="M129.22,-132.47C152.53,-141.26 182.32,-151.73 209.5,-159 279.85,-177.81 360.88,-192.54 422.17,-202.31"/>
<polygon fill="#63b8ff" stroke="#63b8ff" points="421.46,-205.74 431.88,-203.84 422.55,-198.82 421.46,-205.74"/>
</a>
</g>
</g>
<!-- Node13 -->
<g id="Node000013" class="node">
<title>Node13</title>
<g id="a_Node000013"><a xlink:href="classfr_1_1softsf_1_1canscan_1_1_can_scan.html#a9e8188875168199cde065113ae2a393d" target="_top" xlink:title="Validates and returns the current image&#45;to&#45;QR ratio from the ratio slider.">
<polygon fill="white" stroke="#666666" points="603.38,-82 433.62,-82 433.62,-50 603.38,-50 603.38,-82"/>
<text text-anchor="start" x="441.62" y="-68.5" font-family="Helvetica,sans-Serif" font-size="10.00">fr.softsf.canscan.CanScan.validate</text>
<text text-anchor="middle" x="518.5" y="-56.5" font-family="Helvetica,sans-Serif" font-size="10.00">AndGetRatio</text>
</a>
</g>
</g>
<!-- Node1&#45;&gt;Node13 -->
<g id="edge16_Node000001_Node000013" class="edge">
<title>Node1&#45;&gt;Node13</title>
<g id="a_edge16_Node000001_Node000013"><a xlink:title=" ">
<path fill="none" stroke="#63b8ff" d="M160.57,-99.54C176.62,-96.34 193.59,-93.27 209.5,-91 280.37,-80.89 361.05,-74.52 422.05,-70.75"/>
<polygon fill="#63b8ff" stroke="#63b8ff" points="421.92,-74.26 431.69,-70.17 421.5,-67.28 421.92,-74.26"/>
</a>
</g>
</g>
<!-- Node14 -->
<g id="Node000014" class="node">
<title>Node14</title>
<g id="a_Node000014"><a xlink:href="classfr_1_1softsf_1_1canscan_1_1_can_scan.html#a6d139bb8d0a3c7081096c8956189b684" target="_top" xlink:title="Validates and returns the QR code size from the corresponding text field.">
<polygon fill="white" stroke="#666666" points="603.38,-32 433.62,-32 433.62,0 603.38,0 603.38,-32"/>
<text text-anchor="start" x="441.62" y="-18.5" font-family="Helvetica,sans-Serif" font-size="10.00">fr.softsf.canscan.CanScan.validate</text>
<text text-anchor="middle" x="518.5" y="-6.5" font-family="Helvetica,sans-Serif" font-size="10.00">AndGetSize</text>
</a>
</g>
</g>
<!-- Node1&#45;&gt;Node14 -->
<g id="edge17_Node000001_Node000014" class="edge">
<title>Node1&#45;&gt;Node14</title>
<g id="a_edge17_Node000001_Node000014"><a xlink:title=" ">
<path fill="none" stroke="#63b8ff" d="M125.8,-99.51C149.5,-89.77 180.84,-77.85 209.5,-70 279.62,-50.79 360.66,-36.9 422.01,-28.02"/>
<polygon fill="#63b8ff" stroke="#63b8ff" points="422.32,-31.51 431.73,-26.64 421.33,-24.58 422.32,-31.51"/>
</a>
</g>
</g>
<!-- Node3 -->
<g id="Node000003" class="node">
<title>Node3</title>
<g id="a_Node000003"><a xlink:href="classfr_1_1softsf_1_1canscan_1_1service_1_1_generate_and_save_service.html#a97c838511d72dc8bc2172e76dcc94d46" target="_top" xlink:title="Validates that all required inputs are non&#45;null.">
<polygon fill="white" stroke="#666666" points="621.38,-394 415.62,-394 415.62,-362 621.38,-362 621.38,-394"/>
<text text-anchor="start" x="423.62" y="-380.5" font-family="Helvetica,sans-Serif" font-size="10.00">fr.softsf.canscan.service.</text>
<text text-anchor="middle" x="518.5" y="-368.5" font-family="Helvetica,sans-Serif" font-size="10.00">GenerateAndSaveService.checkNPEInputs</text>
</a>
</g>
</g>
<!-- Node2&#45;&gt;Node3 -->
<g id="edge2_Node000002_Node000003" class="edge">
<title>Node2&#45;&gt;Node3</title>
<g id="a_edge2_Node000002_Node000003"><a xlink:title=" ">
<path fill="none" stroke="#63b8ff" d="M340.48,-322.48C362.47,-332.75 389.47,-344.49 414.5,-353 420.16,-354.93 426.05,-356.76 432.01,-358.51"/>
<polygon fill="#63b8ff" stroke="#63b8ff" points="430.75,-361.79 441.32,-361.13 432.65,-355.05 430.75,-361.79"/>
</a>
</g>
</g>
<!-- Node4 -->
<g id="Node000004" class="node">
<title>Node4</title>
<g id="a_Node000004"><a xlink:href="classfr_1_1softsf_1_1canscan_1_1service_1_1_generate_and_save_service.html#a5ed7c1dbcd3e50d890844affd8605995" target="_top" xlink:title="Opens a JFileChooser to select the output PNG file and handles file name conflicts.">
<polygon fill="white" stroke="#666666" points="622.5,-344 414.5,-344 414.5,-312 622.5,-312 622.5,-344"/>
<text text-anchor="start" x="422.5" y="-330.5" font-family="Helvetica,sans-Serif" font-size="10.00">fr.softsf.canscan.service.</text>
<text text-anchor="middle" x="518.5" y="-318.5" font-family="Helvetica,sans-Serif" font-size="10.00">GenerateAndSaveService.chooseOutputFile</text>
</a>
</g>
</g>
<!-- Node2&#45;&gt;Node4 -->
<g id="edge3_Node000002_Node000004" class="edge">
<title>Node2&#45;&gt;Node4</title>
<g id="a_edge3_Node000002_Node000004"><a xlink:title=" ">
<path fill="none" stroke="#63b8ff" d="M378.8,-310.55C386.76,-311.55 394.92,-312.57 403.11,-313.6"/>
<polygon fill="#63b8ff" stroke="#63b8ff" points="402.4,-317.04 412.76,-314.82 403.28,-310.1 402.4,-317.04"/>
</a>
</g>
</g>
<!-- Node7 -->
<g id="Node000007" class="node">
<title>Node7</title>
<g id="a_Node000007"><a xlink:href="classfr_1_1softsf_1_1canscan_1_1service_1_1_generate_and_save_service.html#a09c878cf95f9493c6d4382597d8ee66e" target="_top" xlink:title="Executes QR code generation asynchronously using a SwingWorker.">
<polygon fill="white" stroke="#666666" points="601.5,-294 435.5,-294 435.5,-250 601.5,-250 601.5,-294"/>
<text text-anchor="start" x="443.5" y="-280.5" font-family="Helvetica,sans-Serif" font-size="10.00">fr.softsf.canscan.service.</text>
<text text-anchor="start" x="443.5" y="-268.5" font-family="Helvetica,sans-Serif" font-size="10.00">GenerateAndSaveService.execute</text>
<text text-anchor="middle" x="518.5" y="-256.5" font-family="Helvetica,sans-Serif" font-size="10.00">QrGeneration</text>
</a>
</g>
</g>
<!-- Node2&#45;&gt;Node7 -->
<g id="edge6_Node000002_Node000007" class="edge">
<title>Node2&#45;&gt;Node7</title>
<g id="a_edge6_Node000002_Node000007"><a xlink:title=" ">
<path fill="none" stroke="#63b8ff" d="M378.8,-289.45C393.53,-287.6 408.93,-285.66 423.91,-283.78"/>
<polygon fill="#63b8ff" stroke="#63b8ff" points="424.26,-287.26 433.75,-282.54 423.39,-280.32 424.26,-287.26"/>
</a>
</g>
</g>
<!-- Node5 -->
<g id="Node000005" class="node">
<title>Node5</title>
<g id="a_Node000005"><a xlink:href="classfr_1_1softsf_1_1canscan_1_1service_1_1_generate_and_save_service.html#a723bdc3c23de4858c0a30864298fdacd" target="_top" xlink:title="Ensures the selected file has a &quot;.png&quot; extension.">
<polygon fill="white" stroke="#666666" points="843.25,-412 660,-412 660,-368 843.25,-368 843.25,-412"/>
<text text-anchor="start" x="668" y="-398.5" font-family="Helvetica,sans-Serif" font-size="10.00">fr.softsf.canscan.service.</text>
<text text-anchor="start" x="668" y="-386.5" font-family="Helvetica,sans-Serif" font-size="10.00">GenerateAndSaveService.getSelected</text>
<text text-anchor="middle" x="751.62" y="-374.5" font-family="Helvetica,sans-Serif" font-size="10.00">PngFile</text>
</a>
</g>
</g>
<!-- Node4&#45;&gt;Node5 -->
<g id="edge4_Node000004_Node000005" class="edge">
<title>Node4&#45;&gt;Node5</title>
<g id="a_edge4_Node000004_Node000005"><a xlink:title=" ">
<path fill="none" stroke="#63b8ff" d="M589.14,-344.47C600.31,-347.24 611.74,-350.14 622.5,-353 635.92,-356.56 650.08,-360.49 663.9,-364.41"/>
<polygon fill="#63b8ff" stroke="#63b8ff" points="662.86,-367.75 673.44,-367.13 664.78,-361.02 662.86,-367.75"/>
</a>
</g>
</g>
<!-- Node6 -->
<g id="Node000006" class="node">
<title>Node6</title>
<g id="a_Node000006"><a xlink:href="classfr_1_1softsf_1_1canscan_1_1service_1_1_generate_and_save_service.html#aeced3cbaf2f2c3a709ed5096aa543526" target="_top" xlink:title="Resolves potential file name conflicts by checking if the specified file already exists.">
<polygon fill="white" stroke="#666666" points="833.12,-350 670.12,-350 670.12,-306 833.12,-306 833.12,-350"/>
<text text-anchor="start" x="678.12" y="-336.5" font-family="Helvetica,sans-Serif" font-size="10.00">fr.softsf.canscan.service.</text>
<text text-anchor="start" x="678.12" y="-324.5" font-family="Helvetica,sans-Serif" font-size="10.00">GenerateAndSaveService.resolve</text>
<text text-anchor="middle" x="751.62" y="-312.5" font-family="Helvetica,sans-Serif" font-size="10.00">FileNameConflict</text>
</a>
</g>
</g>
<!-- Node4&#45;&gt;Node6 -->
<g id="edge5_Node000004_Node000006" class="edge">
<title>Node4&#45;&gt;Node6</title>
<g id="a_edge5_Node000004_Node000006"><a xlink:title=" ">
<path fill="none" stroke="#63b8ff" d="M622.89,-328C634.83,-328 646.93,-328 658.7,-328"/>
<polygon fill="#63b8ff" stroke="#63b8ff" points="658.34,-331.5 668.34,-328 658.34,-324.5 658.34,-331.5"/>
</a>
</g>
</g>
<!-- Node8 -->
<g id="Node000008" class="node">
<title>Node8</title>
<g id="a_Node000008"><a xlink:href="classfr_1_1softsf_1_1canscan_1_1ui_1_1worker_1_1_generate_and_save_worker.html#a3f40e85d8378c0b4877bd74e36bfd6a0" target="_top" xlink:title="Creates a new QR generation worker.">
<polygon fill="white" stroke="#666666" points="844.75,-288 658.5,-288 658.5,-244 844.75,-244 844.75,-288"/>
<text text-anchor="start" x="666.5" y="-274.5" font-family="Helvetica,sans-Serif" font-size="10.00">fr.softsf.canscan.ui.worker.</text>
<text text-anchor="start" x="666.5" y="-262.5" font-family="Helvetica,sans-Serif" font-size="10.00">GenerateAndSaveWorker.GenerateAnd</text>
<text text-anchor="middle" x="751.62" y="-250.5" font-family="Helvetica,sans-Serif" font-size="10.00">SaveWorker</text>
</a>
</g>
</g>
<!-- Node7&#45;&gt;Node8 -->
<g id="edge7_Node000007_Node000008" class="edge">
<title>Node7&#45;&gt;Node8</title>
<g id="a_edge7_Node000007_Node000008"><a xlink:title=" ">
<path fill="none" stroke="#63b8ff" d="M601.96,-269.86C616.53,-269.48 631.86,-269.08 646.92,-268.69"/>
<polygon fill="#63b8ff" stroke="#63b8ff" points="646.95,-272.19 656.86,-268.43 646.77,-265.2 646.95,-272.19"/>
</a>
</g>
</g>
<!-- Node9&#45;&gt;Node9 -->
<g id="edge10_Node000009_Node000009" class="edge">
<title>Node9&#45;&gt;Node9</title>
<g id="a_edge10_Node000009_Node000009"><a xlink:title=" ">
<path fill="none" stroke="#63b8ff" d="M257,-132.44C250.09,-141.58 262.43,-150 294,-150 311.51,-150 323.11,-147.41 328.78,-143.54"/>
<polygon fill="#63b8ff" stroke="#63b8ff" points="332.17,-144.42 330.7,-133.93 325.31,-143.05 332.17,-144.42"/>
</a>
</g>
</g>
<!-- Node10 -->
<g id="Node000010" class="node">
<title>Node10</title>
<g id="a_Node000010"><a xlink:href="classfr_1_1softsf_1_1canscan_1_1_can_scan.html#a1a6235214fa4fd656875c0dae3e960bd" target="_top" xlink:title="Clears input fields corresponding to the active generation mode upon exceeding capacity limits.">
<polygon fill="white" stroke="#666666" points="597,-182 440,-182 440,-150 597,-150 597,-182"/>
<text text-anchor="start" x="448" y="-168.5" font-family="Helvetica,sans-Serif" font-size="10.00">fr.softsf.canscan.CanScan.clear</text>
<text text-anchor="middle" x="518.5" y="-156.5" font-family="Helvetica,sans-Serif" font-size="10.00">FieldsForCurrentMode</text>
</a>
</g>
</g>
<!-- Node9&#45;&gt;Node10 -->
<g id="edge9_Node000009_Node000010" class="edge">
<title>Node9&#45;&gt;Node10</title>
<g id="a_edge9_Node000009_Node000010"><a xlink:title=" ">
<path fill="none" stroke="#63b8ff" d="M368.16,-132.44C388.98,-137.12 411.82,-142.25 433.24,-147.07"/>
<polygon fill="#63b8ff" stroke="#63b8ff" points="432.29,-150.44 442.82,-149.22 433.83,-143.61 432.29,-150.44"/>
</a>
</g>
</g>
<!-- Node9&#45;&gt;Node11 -->
<g id="edge11_Node000009_Node000011" class="edge">
<title>Node9&#45;&gt;Node11</title>
<g id="a_edge11_Node000009_Node000011"><a xlink:title=" ">
<path fill="none" stroke="#63b8ff" d="M316.29,-132.36C339.33,-149.32 377.72,-175.48 414.5,-191 418.74,-192.79 423.14,-194.47 427.62,-196.04"/>
<polygon fill="#63b8ff" stroke="#63b8ff" points="426.17,-199.25 436.77,-199.05 428.36,-192.6 426.17,-199.25"/>
</a>
</g>
</g>
<!-- Node12 -->
<g id="Node000012" class="node">
<title>Node12</title>
<g id="a_Node000012"><a xlink:href="classfr_1_1softsf_1_1canscan_1_1_can_scan.html#a8a2b238ac4af96d8710b3e5d7d051f77" target="_top" xlink:title="Validates and returns the current meet UID from the meet title field.">
<polygon fill="white" stroke="#666666" points="603.38,-132 433.62,-132 433.62,-100 603.38,-100 603.38,-132"/>
<text text-anchor="start" x="441.62" y="-118.5" font-family="Helvetica,sans-Serif" font-size="10.00">fr.softsf.canscan.CanScan.validate</text>
<text text-anchor="middle" x="518.5" y="-106.5" font-family="Helvetica,sans-Serif" font-size="10.00">AndGetMeetUID</text>
</a>
</g>
</g>
<!-- Node9&#45;&gt;Node12 -->
<g id="edge12_Node000009_Node000012" class="edge">
<title>Node9&#45;&gt;Node12</title>
<g id="a_edge12_Node000009_Node000012"><a xlink:title=" ">
<path fill="none" stroke="#63b8ff" d="M369.09,-116C385.99,-116 404.19,-116 421.85,-116"/>
<polygon fill="#63b8ff" stroke="#63b8ff" points="421.85,-119.5 431.85,-116 421.85,-112.5 421.85,-119.5"/>
</a>
</g>
</g>
<!-- Node9&#45;&gt;Node13 -->
<g id="edge13_Node000009_Node000013" class="edge">
<title>Node9&#45;&gt;Node13</title>
<g id="a_edge13_Node000009_Node000013"><a xlink:title=" ">
<path fill="none" stroke="#63b8ff" d="M368.16,-99.56C388.98,-94.88 411.82,-89.75 433.24,-84.93"/>
<polygon fill="#63b8ff" stroke="#63b8ff" points="433.83,-88.39 442.82,-82.78 432.29,-81.56 433.83,-88.39"/>
</a>
</g>
</g>
<!-- Node9&#45;&gt;Node14 -->
<g id="edge14_Node000009_Node000014" class="edge">
<title>Node9&#45;&gt;Node14</title>
<g id="a_edge14_Node000009_Node000014"><a xlink:title=" ">
<path fill="none" stroke="#63b8ff" d="M316.29,-99.64C339.33,-82.68 377.72,-56.52 414.5,-41 418.74,-39.21 423.14,-37.53 427.62,-35.96"/>
<polygon fill="#63b8ff" stroke="#63b8ff" points="428.36,-39.4 436.77,-32.95 426.17,-32.75 428.36,-39.4"/>
</a>
</g>
</g>
</g>
</svg>
