<?xml version="1.0" encoding="UTF-8" standalone="no"?>
<!DOCTYPE svg PUBLIC "-//W3C//DTD SVG 1.1//EN"
 "http://www.w3.org/Graphics/SVG/1.1/DTD/svg11.dtd">
<!-- Generated by graphviz version 12.2.1 (20241206.2353)
 -->
<!-- Title: fr.softsf.canscan.CanScan.getManifestKeys Pages: 1 -->
<svg width="1403pt" height="422pt"
 viewBox="0.00 0.00 1403.25 422.00" xmlns="http://www.w3.org/2000/svg" xmlns:xlink="http://www.w3.org/1999/xlink">
<g id="graph0" class="graph" transform="scale(1 1) rotate(0) translate(4 418)">
<title>fr.softsf.canscan.CanScan.getManifestKeys</title>
<!-- Node1 -->
<g id="Node000001" class="node">
<title>Node1</title>
<g id="a_Node000001"><a xlink:title="Loads application metadata from version.properties.">
<polygon fill="#999999" stroke="#666666" points="149.5,-107 0,-107 0,-75 149.5,-75 149.5,-107"/>
<text text-anchor="start" x="8" y="-93.5" font-family="Helvetica,sans-Serif" font-size="10.00">fr.softsf.canscan.CanScan.get</text>
<text text-anchor="middle" x="74.75" y="-81.5" font-family="Helvetica,sans-Serif" font-size="10.00">ManifestKeys</text>
</a>
</g>
</g>
<!-- Node2 -->
<g id="Node000002" class="node">
<title>Node2</title>
<g id="a_Node000002"><a xlink:href="classfr_1_1softsf_1_1canscan_1_1_can_scan.html#a102bcbc6cda608b642e870ba3fde6344" target="_top" xlink:title="Initializes the CanScan GUI.">
<polygon fill="white" stroke="#666666" points="321.5,-157 185.5,-157 185.5,-125 321.5,-125 321.5,-157"/>
<text text-anchor="start" x="193.5" y="-143.5" font-family="Helvetica,sans-Serif" font-size="10.00">fr.softsf.canscan.CanScan.</text>
<text text-anchor="middle" x="253.5" y="-131.5" font-family="Helvetica,sans-Serif" font-size="10.00">CanScan</text>
</a>
</g>
</g>
<!-- Node1&#45;&gt;Node2 -->
<g id="edge1_Node000001_Node000002" class="edge">
<title>Node1&#45;&gt;Node2</title>
<g id="a_edge1_Node000001_Node000002"><a xlink:title=" ">
<path fill="none" stroke="#63b8ff" d="M133.62,-107.37C149.56,-111.88 167.01,-116.82 183.51,-121.48"/>
<polygon fill="#63b8ff" stroke="#63b8ff" points="182.16,-124.74 192.74,-124.09 184.07,-118 182.16,-124.74"/>
</a>
</g>
</g>
<!-- Node3 -->
<g id="Node000003" class="node">
<title>Node3</title>
<g id="a_Node000003"><a xlink:href="classfr_1_1softsf_1_1canscan_1_1_can_scan.html#a070115929fdc69b249d21866a00a47cc" target="_top" xlink:title="Assigns component names for identification.">
<polygon fill="white" stroke="#666666" points="528.75,-320 357.5,-320 357.5,-288 528.75,-288 528.75,-320"/>
<text text-anchor="start" x="365.5" y="-306.5" font-family="Helvetica,sans-Serif" font-size="10.00">fr.softsf.canscan.CanScan.initialize</text>
<text text-anchor="middle" x="443.12" y="-294.5" font-family="Helvetica,sans-Serif" font-size="10.00">ComponentNames</text>
</a>
</g>
</g>
<!-- Node2&#45;&gt;Node3 -->
<g id="edge2_Node000002_Node000003" class="edge">
<title>Node2&#45;&gt;Node3</title>
<g id="a_edge2_Node000002_Node000003"><a xlink:title=" ">
<path fill="none" stroke="#63b8ff" d="M263.02,-157.36C278.32,-185.18 313.01,-241.82 357.5,-274 362.04,-277.28 366.98,-280.24 372.1,-282.89"/>
<polygon fill="#63b8ff" stroke="#63b8ff" points="370.24,-285.88 380.78,-286.98 373.23,-279.55 370.24,-285.88"/>
</a>
</g>
</g>
<!-- Node4 -->
<g id="Node000004" class="node">
<title>Node4</title>
<g id="a_Node000004"><a xlink:href="classfr_1_1softsf_1_1canscan_1_1_can_scan.html#a14263ca931024d56cd9bed4af4b74c25" target="_top" xlink:title="Builds the main panel with header, QR preview overlay, and spacer.">
<polygon fill="white" stroke="#666666" points="736,-376 564.75,-376 564.75,-344 736,-344 736,-376"/>
<text text-anchor="start" x="572.75" y="-362.5" font-family="Helvetica,sans-Serif" font-size="10.00">fr.softsf.canscan.CanScan.initialize</text>
<text text-anchor="middle" x="650.38" y="-350.5" font-family="Helvetica,sans-Serif" font-size="10.00">MainPanel</text>
</a>
</g>
</g>
<!-- Node2&#45;&gt;Node4 -->
<g id="edge3_Node000002_Node000004" class="edge">
<title>Node2&#45;&gt;Node4</title>
<g id="a_edge3_Node000002_Node000004"><a xlink:title=" ">
<path fill="none" stroke="#63b8ff" d="M266.48,-157.33C283.91,-179.82 318.45,-219.95 357.5,-241 426.12,-278 464.8,-234.41 528.75,-279 553.02,-295.92 541.08,-317.25 564.75,-335 566.27,-336.14 567.83,-337.22 569.45,-338.26"/>
<polygon fill="#63b8ff" stroke="#63b8ff" points="567.32,-341.08 577.76,-342.93 570.76,-334.98 567.32,-341.08"/>
</a>
</g>
</g>
<!-- Node12 -->
<g id="Node000012" class="node">
<title>Node12</title>
<g id="a_Node000012"><a xlink:href="classfr_1_1softsf_1_1canscan_1_1_can_scan.html#afb8d451dc5d6d9c7b6700e4b688c98a3" target="_top" xlink:title="Builds the north panel containing mode selection, card panels, common fields, and the generate button...">
<polygon fill="white" stroke="#666666" points="528.75,-232 357.5,-232 357.5,-200 528.75,-200 528.75,-232"/>
<text text-anchor="start" x="365.5" y="-218.5" font-family="Helvetica,sans-Serif" font-size="10.00">fr.softsf.canscan.CanScan.initialize</text>
<text text-anchor="middle" x="443.12" y="-206.5" font-family="Helvetica,sans-Serif" font-size="10.00">NorthPanel</text>
</a>
</g>
</g>
<!-- Node2&#45;&gt;Node12 -->
<g id="edge12_Node000002_Node000012" class="edge">
<title>Node2&#45;&gt;Node12</title>
<g id="a_edge12_Node000002_Node000012"><a xlink:title=" ">
<path fill="none" stroke="#63b8ff" d="M285.01,-157.45C305.2,-167.93 332.48,-181.31 357.5,-191 361.92,-192.71 366.51,-194.38 371.16,-195.98"/>
<polygon fill="#63b8ff" stroke="#63b8ff" points="370.04,-199.29 380.63,-199.12 372.24,-192.65 370.04,-199.29"/>
</a>
</g>
</g>
<!-- Node25 -->
<g id="Node000025" class="node">
<title>Node25</title>
<g id="a_Node000025"><a xlink:href="classfr_1_1softsf_1_1canscan_1_1_can_scan.html#a4928478365bc812571ac037662cc5f6b" target="_top" xlink:title="Wraps the main panel in a scrollable container.">
<polygon fill="white" stroke="#666666" points="528.75,-182 357.5,-182 357.5,-150 528.75,-150 528.75,-182"/>
<text text-anchor="start" x="365.5" y="-168.5" font-family="Helvetica,sans-Serif" font-size="10.00">fr.softsf.canscan.CanScan.initialize</text>
<text text-anchor="middle" x="443.12" y="-156.5" font-family="Helvetica,sans-Serif" font-size="10.00">ScrollPane</text>
</a>
</g>
</g>
<!-- Node2&#45;&gt;Node25 -->
<g id="edge27_Node000002_Node000025" class="edge">
<title>Node2&#45;&gt;Node25</title>
<g id="a_edge27_Node000002_Node000025"><a xlink:title=" ">
<path fill="none" stroke="#63b8ff" d="M321.97,-149.99C329.76,-151.03 337.8,-152.1 345.87,-153.17"/>
<polygon fill="#63b8ff" stroke="#63b8ff" points="345.4,-156.64 355.77,-154.49 346.32,-149.7 345.4,-156.64"/>
</a>
</g>
</g>
<!-- Node26 -->
<g id="Node000026" class="node">
<title>Node26</title>
<g id="a_Node000026"><a xlink:href="classfr_1_1softsf_1_1canscan_1_1_can_scan.html#a358629f85831dc6cd4978c8854d88561" target="_top" xlink:title="Configures sliders for logo margin and ratio.">
<polygon fill="white" stroke="#666666" points="528.75,-132 357.5,-132 357.5,-100 528.75,-100 528.75,-132"/>
<text text-anchor="start" x="365.5" y="-118.5" font-family="Helvetica,sans-Serif" font-size="10.00">fr.softsf.canscan.CanScan.initialize</text>
<text text-anchor="middle" x="443.12" y="-106.5" font-family="Helvetica,sans-Serif" font-size="10.00">Sliders</text>
</a>
</g>
</g>
<!-- Node2&#45;&gt;Node26 -->
<g id="edge28_Node000002_Node000026" class="edge">
<title>Node2&#45;&gt;Node26</title>
<g id="a_edge28_Node000002_Node000026"><a xlink:title=" ">
<path fill="none" stroke="#63b8ff" d="M321.97,-132.01C329.76,-130.97 337.8,-129.9 345.87,-128.83"/>
<polygon fill="#63b8ff" stroke="#63b8ff" points="346.32,-132.3 355.77,-127.51 345.4,-125.36 346.32,-132.3"/>
</a>
</g>
</g>
<!-- Node27 -->
<g id="Node000027" class="node">
<title>Node27</title>
<g id="a_Node000027"><a xlink:href="classfr_1_1softsf_1_1canscan_1_1_can_scan.html#ae9d7eee5ec656c89834bed84a588334f" target="_top" xlink:title="Builds the application window title from version metadata.">
<polygon fill="white" stroke="#666666" points="528.75,-32 357.5,-32 357.5,0 528.75,0 528.75,-32"/>
<text text-anchor="start" x="365.5" y="-18.5" font-family="Helvetica,sans-Serif" font-size="10.00">fr.softsf.canscan.CanScan.initialize</text>
<text text-anchor="middle" x="443.12" y="-6.5" font-family="Helvetica,sans-Serif" font-size="10.00">Title</text>
</a>
</g>
</g>
<!-- Node2&#45;&gt;Node27 -->
<g id="edge29_Node000002_Node000027" class="edge">
<title>Node2&#45;&gt;Node27</title>
<g id="a_edge29_Node000002_Node000027"><a xlink:title=" ">
<path fill="none" stroke="#63b8ff" d="M274.83,-124.74C288.49,-113.5 306.63,-97.94 321.5,-83 338.84,-65.57 336.86,-54.36 357.5,-41 359.38,-39.78 361.32,-38.62 363.31,-37.52"/>
<polygon fill="#63b8ff" stroke="#63b8ff" points="364.83,-40.67 372.25,-33.11 361.73,-34.39 364.83,-40.67"/>
</a>
</g>
</g>
<!-- Node28 -->
<g id="Node000028" class="node">
<title>Node28</title>
<g id="a_Node000028"><a xlink:href="classfr_1_1softsf_1_1canscan_1_1_can_scan.html#a0a52159db640660477196e337ec62a9b" target="_top" xlink:title="Finalizes window layout and appearance.">
<polygon fill="white" stroke="#666666" points="528.75,-82 357.5,-82 357.5,-50 528.75,-50 528.75,-82"/>
<text text-anchor="start" x="365.5" y="-68.5" font-family="Helvetica,sans-Serif" font-size="10.00">fr.softsf.canscan.CanScan.initialize</text>
<text text-anchor="middle" x="443.12" y="-56.5" font-family="Helvetica,sans-Serif" font-size="10.00">Window</text>
</a>
</g>
</g>
<!-- Node2&#45;&gt;Node28 -->
<g id="edge31_Node000002_Node000028" class="edge">
<title>Node2&#45;&gt;Node28</title>
<g id="a_edge31_Node000002_Node000028"><a xlink:title=" ">
<path fill="none" stroke="#63b8ff" d="M285.01,-124.55C305.2,-114.07 332.48,-100.69 357.5,-91 361.92,-89.29 366.51,-87.62 371.16,-86.02"/>
<polygon fill="#63b8ff" stroke="#63b8ff" points="372.24,-89.35 380.63,-82.88 370.04,-82.71 372.24,-89.35"/>
</a>
</g>
</g>
<!-- Node5 -->
<g id="Node000005" class="node">
<title>Node5</title>
<g id="a_Node000005"><a xlink:href="classfr_1_1softsf_1_1canscan_1_1_can_scan.html#ad470e3c0750cf142dc611b1aeeda3a97" target="_top" xlink:title="Attaches automatic QR code preview updates to all input fields and controls.">
<polygon fill="white" stroke="#666666" points="965,-414 772,-414 772,-382 965,-382 965,-414"/>
<text text-anchor="start" x="780" y="-400.5" font-family="Helvetica,sans-Serif" font-size="10.00">fr.softsf.canscan.CanScan.automatic</text>
<text text-anchor="middle" x="868.5" y="-388.5" font-family="Helvetica,sans-Serif" font-size="10.00">QRCodeRenderingForFieldsAndControls</text>
</a>
</g>
</g>
<!-- Node4&#45;&gt;Node5 -->
<g id="edge4_Node000004_Node000005" class="edge">
<title>Node4&#45;&gt;Node5</title>
<g id="a_edge4_Node000004_Node000005"><a xlink:title=" ">
<path fill="none" stroke="#63b8ff" d="M736.48,-374.96C745.12,-376.48 753.96,-378.04 762.78,-379.59"/>
<polygon fill="#63b8ff" stroke="#63b8ff" points="761.96,-383 772.42,-381.28 763.17,-376.1 761.96,-383"/>
</a>
</g>
</g>
<!-- Node7 -->
<g id="Node000007" class="node">
<title>Node7</title>
<g id="a_Node000007"><a xlink:href="classfr_1_1softsf_1_1canscan_1_1_can_scan.html#a180290bc488e2346592ded98ccc4b1f3" target="_top" xlink:title="Collects current input and visual settings into a WholeFields for QR code generation.">
<polygon fill="white" stroke="#666666" points="1167.38,-250 1017.88,-250 1017.88,-218 1167.38,-218 1167.38,-250"/>
<text text-anchor="start" x="1025.88" y="-236.5" font-family="Helvetica,sans-Serif" font-size="10.00">fr.softsf.canscan.CanScan.get</text>
<text text-anchor="middle" x="1092.62" y="-224.5" font-family="Helvetica,sans-Serif" font-size="10.00">QrInput</text>
</a>
</g>
</g>
<!-- Node4&#45;&gt;Node7 -->
<g id="edge11_Node000004_Node000007" class="edge">
<title>Node4&#45;&gt;Node7</title>
<g id="a_edge11_Node000004_Node000007"><a xlink:title=" ">
<path fill="none" stroke="#63b8ff" d="M736.26,-366.42C801.14,-368.24 891.6,-364.01 965,-335 1006.92,-318.43 1046,-283 1069.35,-258.84"/>
<polygon fill="#63b8ff" stroke="#63b8ff" points="1071.86,-261.28 1076.18,-251.6 1066.77,-256.47 1071.86,-261.28"/>
</a>
</g>
</g>
<!-- Node6 -->
<g id="Node000006" class="node">
<title>Node6</title>
<g id="a_Node000006"><a xlink:href="enumfr_1_1softsf_1_1canscan_1_1ui_1_1_ui_components_configuration.html#aa700d9f2a270f6e54fcb53111855fa44" target="_top" xlink:title="Creates simple DocumentListener that executes action on any document change.">
<polygon fill="white" stroke="#666666" points="1184.25,-414 1001,-414 1001,-382 1184.25,-382 1184.25,-414"/>
<text text-anchor="start" x="1009" y="-400.5" font-family="Helvetica,sans-Serif" font-size="10.00">fr.softsf.canscan.ui.UiComponents</text>
<text text-anchor="middle" x="1092.62" y="-388.5" font-family="Helvetica,sans-Serif" font-size="10.00">Configuration.createDocumentListener</text>
</a>
</g>
</g>
<!-- Node5&#45;&gt;Node6 -->
<g id="edge5_Node000005_Node000006" class="edge">
<title>Node5&#45;&gt;Node6</title>
<g id="a_edge5_Node000005_Node000006"><a xlink:title=" ">
<path fill="none" stroke="#63b8ff" d="M965.31,-398C973.29,-398 981.38,-398 989.41,-398"/>
<polygon fill="#63b8ff" stroke="#63b8ff" points="989.18,-401.5 999.18,-398 989.18,-394.5 989.18,-401.5"/>
</a>
</g>
</g>
<!-- Node5&#45;&gt;Node7 -->
<g id="edge6_Node000005_Node000007" class="edge">
<title>Node5&#45;&gt;Node7</title>
<g id="a_edge6_Node000005_Node000007"><a xlink:title=" ">
<path fill="none" stroke="#63b8ff" d="M937.18,-381.52C946.88,-377.81 956.45,-373.35 965,-368 1011.28,-339.05 1052.09,-289.2 1074.19,-259.15"/>
<polygon fill="#63b8ff" stroke="#63b8ff" points="1076.79,-261.52 1079.8,-251.37 1071.11,-257.43 1076.79,-261.52"/>
</a>
</g>
</g>
<!-- Node8 -->
<g id="Node000008" class="node">
<title>Node8</title>
<g id="a_Node000008"><a xlink:href="classfr_1_1softsf_1_1canscan_1_1_can_scan.html#a381368b99c4a0857c6abe6349b2c6d27" target="_top" xlink:title="Calculates the available height for QR code rendering.">
<polygon fill="white" stroke="#666666" points="1395.25,-125 1220.25,-125 1220.25,-93 1395.25,-93 1395.25,-125"/>
<text text-anchor="start" x="1228.25" y="-111.5" font-family="Helvetica,sans-Serif" font-size="10.00">fr.softsf.canscan.CanScan.calculate</text>
<text text-anchor="middle" x="1307.75" y="-99.5" font-family="Helvetica,sans-Serif" font-size="10.00">AvailableQrCodeLabelHeight</text>
</a>
</g>
</g>
<!-- Node7&#45;&gt;Node8 -->
<g id="edge7_Node000007_Node000008" class="edge">
<title>Node7&#45;&gt;Node8</title>
<g id="a_edge7_Node000007_Node000008"><a xlink:title=" ">
<path fill="none" stroke="#63b8ff" d="M1163.04,-217.53C1170.52,-214.33 1177.76,-210.52 1184.25,-206 1205.84,-190.96 1200.48,-176.36 1220.25,-159 1232.52,-148.22 1247.47,-138.61 1261.46,-130.76"/>
<polygon fill="#63b8ff" stroke="#63b8ff" points="1262.96,-133.93 1270.09,-126.09 1259.63,-127.77 1262.96,-133.93"/>
</a>
</g>
</g>
<!-- Node9 -->
<g id="Node000009" class="node">
<title>Node9</title>
<g id="a_Node000009"><a xlink:href="classfr_1_1softsf_1_1canscan_1_1_can_scan.html#a4e67b1b5c764e72414a5c0f387810f5c" target="_top" xlink:title="Validates and returns the current QR code margin from the margin slider.">
<polygon fill="white" stroke="#666666" points="1392.62,-300 1222.88,-300 1222.88,-268 1392.62,-268 1392.62,-300"/>
<text text-anchor="start" x="1230.88" y="-286.5" font-family="Helvetica,sans-Serif" font-size="10.00">fr.softsf.canscan.CanScan.validate</text>
<text text-anchor="middle" x="1307.75" y="-274.5" font-family="Helvetica,sans-Serif" font-size="10.00">AndGetMargin</text>
</a>
</g>
</g>
<!-- Node7&#45;&gt;Node9 -->
<g id="edge8_Node000007_Node000009" class="edge">
<title>Node7&#45;&gt;Node9</title>
<g id="a_edge8_Node000007_Node000009"><a xlink:title=" ">
<path fill="none" stroke="#63b8ff" d="M1163.71,-250.44C1183.46,-255.08 1205.12,-260.16 1225.47,-264.93"/>
<polygon fill="#63b8ff" stroke="#63b8ff" points="1224.62,-268.33 1235.15,-267.2 1226.22,-261.51 1224.62,-268.33"/>
</a>
</g>
</g>
<!-- Node10 -->
<g id="Node000010" class="node">
<title>Node10</title>
<g id="a_Node000010"><a xlink:href="classfr_1_1softsf_1_1canscan_1_1_can_scan.html#a9e8188875168199cde065113ae2a393d" target="_top" xlink:title="Validates and returns the current image&#45;to&#45;QR ratio from the ratio slider.">
<polygon fill="white" stroke="#666666" points="1392.62,-250 1222.88,-250 1222.88,-218 1392.62,-218 1392.62,-250"/>
<text text-anchor="start" x="1230.88" y="-236.5" font-family="Helvetica,sans-Serif" font-size="10.00">fr.softsf.canscan.CanScan.validate</text>
<text text-anchor="middle" x="1307.75" y="-224.5" font-family="Helvetica,sans-Serif" font-size="10.00">AndGetRatio</text>
</a>
</g>
</g>
<!-- Node7&#45;&gt;Node10 -->
<g id="edge9_Node000007_Node000010" class="edge">
<title>Node7&#45;&gt;Node10</title>
<g id="a_edge9_Node000007_Node000010"><a xlink:title=" ">
<path fill="none" stroke="#63b8ff" d="M1167.87,-234C1181.94,-234 1196.84,-234 1211.46,-234"/>
<polygon fill="#63b8ff" stroke="#63b8ff" points="1211.05,-237.5 1221.05,-234 1211.05,-230.5 1211.05,-237.5"/>
</a>
</g>
</g>
<!-- Node11 -->
<g id="Node000011" class="node">
<title>Node11</title>
<g id="a_Node000011"><a xlink:href="classfr_1_1softsf_1_1canscan_1_1_can_scan.html#a6d139bb8d0a3c7081096c8956189b684" target="_top" xlink:title="Validates and returns the QR code size from the corresponding text field.">
<polygon fill="white" stroke="#666666" points="1392.62,-200 1222.88,-200 1222.88,-168 1392.62,-168 1392.62,-200"/>
<text text-anchor="start" x="1230.88" y="-186.5" font-family="Helvetica,sans-Serif" font-size="10.00">fr.softsf.canscan.CanScan.validate</text>
<text text-anchor="middle" x="1307.75" y="-174.5" font-family="Helvetica,sans-Serif" font-size="10.00">AndGetSize</text>
</a>
</g>
</g>
<!-- Node7&#45;&gt;Node11 -->
<g id="edge10_Node000007_Node000011" class="edge">
<title>Node7&#45;&gt;Node11</title>
<g id="a_edge10_Node000007_Node000011"><a xlink:title=" ">
<path fill="none" stroke="#63b8ff" d="M1163.71,-217.56C1183.46,-212.92 1205.12,-207.84 1225.47,-203.07"/>
<polygon fill="#63b8ff" stroke="#63b8ff" points="1226.22,-206.49 1235.15,-200.8 1224.62,-199.67 1226.22,-206.49"/>
</a>
</g>
</g>
<!-- Node13 -->
<g id="Node000013" class="node">
<title>Node13</title>
<g id="a_Node000013"><a xlink:href="classfr_1_1softsf_1_1canscan_1_1_can_scan.html#ab2e018ca62c7497c29e84f42ae870daa" target="_top" xlink:title="Adds MECARD and Free card panels to the north panel.">
<polygon fill="white" stroke="#666666" points="726.25,-326 574.5,-326 574.5,-294 726.25,-294 726.25,-326"/>
<text text-anchor="start" x="582.5" y="-312.5" font-family="Helvetica,sans-Serif" font-size="10.00">fr.softsf.canscan.CanScan.add</text>
<text text-anchor="middle" x="650.38" y="-300.5" font-family="Helvetica,sans-Serif" font-size="10.00">NorthPanelCardPanels</text>
</a>
</g>
</g>
<!-- Node12&#45;&gt;Node13 -->
<g id="edge13_Node000012_Node000013" class="edge">
<title>Node12&#45;&gt;Node13</title>
<g id="a_edge13_Node000012_Node000013"><a xlink:title=" ">
<path fill="none" stroke="#63b8ff" d="M502.36,-232.41C511.56,-236.18 520.68,-240.68 528.75,-246 548.44,-258.99 544.72,-272.54 564.75,-285 566.78,-286.26 568.88,-287.47 571.03,-288.61"/>
<polygon fill="#63b8ff" stroke="#63b8ff" points="569.52,-291.77 580.05,-292.9 572.52,-285.44 569.52,-291.77"/>
</a>
</g>
</g>
<!-- Node16 -->
<g id="Node000016" class="node">
<title>Node16</title>
<g id="a_Node000016"><a xlink:href="classfr_1_1softsf_1_1canscan_1_1_can_scan.html#a94ab4df98de0d05977e6a65ab75f89f0" target="_top" xlink:title="Adds common input fields to the north panel.">
<polygon fill="white" stroke="#666666" points="726.25,-276 574.5,-276 574.5,-244 726.25,-244 726.25,-276"/>
<text text-anchor="start" x="582.5" y="-262.5" font-family="Helvetica,sans-Serif" font-size="10.00">fr.softsf.canscan.CanScan.add</text>
<text text-anchor="middle" x="650.38" y="-250.5" font-family="Helvetica,sans-Serif" font-size="10.00">NorthPanelCommonFields</text>
</a>
</g>
</g>
<!-- Node12&#45;&gt;Node16 -->
<g id="edge16_Node000012_Node000016" class="edge">
<title>Node12&#45;&gt;Node16</title>
<g id="a_edge16_Node000012_Node000016"><a xlink:title=" ">
<path fill="none" stroke="#63b8ff" d="M520.84,-232.45C534.59,-235.39 549,-238.48 563,-241.48"/>
<polygon fill="#63b8ff" stroke="#63b8ff" points="562.12,-244.87 572.63,-243.55 563.59,-238.03 562.12,-244.87"/>
</a>
</g>
</g>
<!-- Node18 -->
<g id="Node000018" class="node">
<title>Node18</title>
<g id="a_Node000018"><a xlink:href="classfr_1_1softsf_1_1canscan_1_1_can_scan.html#a9f205dfdb266d5d7f8f8899b69742663" target="_top" xlink:title="Adds the generate button to the north panel.">
<polygon fill="white" stroke="#666666" points="726.25,-226 574.5,-226 574.5,-194 726.25,-194 726.25,-226"/>
<text text-anchor="start" x="582.5" y="-212.5" font-family="Helvetica,sans-Serif" font-size="10.00">fr.softsf.canscan.CanScan.add</text>
<text text-anchor="middle" x="650.38" y="-200.5" font-family="Helvetica,sans-Serif" font-size="10.00">NorthPanelGenerateButton</text>
</a>
</g>
</g>
<!-- Node12&#45;&gt;Node18 -->
<g id="edge19_Node000012_Node000018" class="edge">
<title>Node12&#45;&gt;Node18</title>
<g id="a_edge19_Node000012_Node000018"><a xlink:title=" ">
<path fill="none" stroke="#63b8ff" d="M529.09,-213.52C540.34,-213.19 551.88,-212.85 563.15,-212.52"/>
<polygon fill="#63b8ff" stroke="#63b8ff" points="562.9,-216.03 572.8,-212.24 562.7,-209.03 562.9,-216.03"/>
</a>
</g>
</g>
<!-- Node19 -->
<g id="Node000019" class="node">
<title>Node19</title>
<g id="a_Node000019"><a xlink:href="classfr_1_1softsf_1_1canscan_1_1_can_scan.html#aa469763b92dd7cbc6dfdb9aaa0116b33" target="_top" xlink:title="Adds mode selection controls (MECARD/Free) to the north panel.">
<polygon fill="white" stroke="#666666" points="726.25,-176 574.5,-176 574.5,-144 726.25,-144 726.25,-176"/>
<text text-anchor="start" x="582.5" y="-162.5" font-family="Helvetica,sans-Serif" font-size="10.00">fr.softsf.canscan.CanScan.add</text>
<text text-anchor="middle" x="650.38" y="-150.5" font-family="Helvetica,sans-Serif" font-size="10.00">NorthPanelModeSelection</text>
</a>
</g>
</g>
<!-- Node12&#45;&gt;Node19 -->
<g id="edge20_Node000012_Node000019" class="edge">
<title>Node12&#45;&gt;Node19</title>
<g id="a_edge20_Node000012_Node000019"><a xlink:title=" ">
<path fill="none" stroke="#63b8ff" d="M504.6,-199.5C527.67,-193.21 554.18,-185.97 578.16,-179.43"/>
<polygon fill="#63b8ff" stroke="#63b8ff" points="578.79,-182.88 587.52,-176.88 576.95,-176.13 578.79,-182.88"/>
</a>
</g>
</g>
<!-- Node24 -->
<g id="Node000024" class="node">
<title>Node24</title>
<g id="a_Node000024"><a xlink:href="classfr_1_1softsf_1_1canscan_1_1_can_scan.html#aeb5550da33925e95999aae23f525f7c5" target="_top" xlink:title="Creates default GridBagConstraints for consistent layout configuration.">
<polygon fill="white" stroke="#666666" points="729.25,-126 571.5,-126 571.5,-94 729.25,-94 729.25,-126"/>
<text text-anchor="start" x="579.5" y="-112.5" font-family="Helvetica,sans-Serif" font-size="10.00">fr.softsf.canscan.CanScan.north</text>
<text text-anchor="middle" x="650.38" y="-100.5" font-family="Helvetica,sans-Serif" font-size="10.00">PanelGridBagConstraints</text>
</a>
</g>
</g>
<!-- Node12&#45;&gt;Node24 -->
<g id="edge26_Node000012_Node000024" class="edge">
<title>Node12&#45;&gt;Node24</title>
<g id="a_edge26_Node000012_Node000024"><a xlink:title=" ">
<path fill="none" stroke="#63b8ff" d="M514.42,-199.67C519.49,-197.18 524.34,-194.31 528.75,-191 552.42,-173.25 541.08,-152.75 564.75,-135 566.27,-133.86 567.83,-132.78 569.45,-131.74"/>
<polygon fill="#63b8ff" stroke="#63b8ff" points="570.76,-135.02 577.76,-127.07 567.32,-128.92 570.76,-135.02"/>
</a>
</g>
</g>
<!-- Node14 -->
<g id="Node000014" class="node">
<title>Node14</title>
<g id="a_Node000014"><a xlink:href="classfr_1_1softsf_1_1canscan_1_1_can_scan.html#a38d65dd319daee1c3288690c17e43ca5" target="_top" xlink:title="Populates the FREE panel with a multiline text area for arbitrary text or URLs.">
<polygon fill="white" stroke="#666666" points="955.25,-326 781.75,-326 781.75,-306 955.25,-306 955.25,-326"/>
<text text-anchor="middle" x="868.5" y="-312.5" font-family="Helvetica,sans-Serif" font-size="10.00">fr.softsf.canscan.CanScan.freeCard</text>
</a>
</g>
</g>
<!-- Node13&#45;&gt;Node14 -->
<g id="edge14_Node000013_Node000014" class="edge">
<title>Node13&#45;&gt;Node14</title>
<g id="a_edge14_Node000013_Node000014"><a xlink:title=" ">
<path fill="none" stroke="#63b8ff" d="M726.66,-312.09C740.74,-312.48 755.63,-312.89 770.26,-313.3"/>
<polygon fill="#63b8ff" stroke="#63b8ff" points="769.77,-316.79 779.87,-313.57 769.97,-309.79 769.77,-316.79"/>
</a>
</g>
</g>
<!-- Node15 -->
<g id="Node000015" class="node">
<title>Node15</title>
<g id="a_Node000015"><a xlink:href="classfr_1_1softsf_1_1canscan_1_1_can_scan.html#aed7e3048974882318a6519d8d36e8ec0" target="_top" xlink:title="Populates the MECARD panel with structured contact fields.">
<polygon fill="white" stroke="#666666" points="952.62,-288 784.38,-288 784.38,-268 952.62,-268 952.62,-288"/>
<text text-anchor="middle" x="868.5" y="-274.5" font-family="Helvetica,sans-Serif" font-size="10.00">fr.softsf.canscan.CanScan.mecard</text>
</a>
</g>
</g>
<!-- Node13&#45;&gt;Node15 -->
<g id="edge15_Node000013_Node000015" class="edge">
<title>Node13&#45;&gt;Node15</title>
<g id="a_edge15_Node000013_Node000015"><a xlink:title=" ">
<path fill="none" stroke="#63b8ff" d="M726.66,-298.85C745.71,-296.03 766.25,-292.99 785.6,-290.13"/>
<polygon fill="#63b8ff" stroke="#63b8ff" points="785.96,-293.61 795.34,-288.68 784.94,-286.69 785.96,-293.61"/>
</a>
</g>
</g>
<!-- Node17 -->
<g id="Node000017" class="node">
<title>Node17</title>
<g id="a_Node000017"><a xlink:href="classfr_1_1softsf_1_1canscan_1_1_can_scan.html#a17b0a72ab305f98f86591411b6a352f2" target="_top" xlink:title="Creates the color selection panel for QR code and background colors.">
<polygon fill="white" stroke="#666666" points="947,-250 790,-250 790,-218 947,-218 947,-250"/>
<text text-anchor="start" x="798" y="-236.5" font-family="Helvetica,sans-Serif" font-size="10.00">fr.softsf.canscan.CanScan.color</text>
<text text-anchor="middle" x="868.5" y="-224.5" font-family="Helvetica,sans-Serif" font-size="10.00">Panel</text>
</a>
</g>
</g>
<!-- Node16&#45;&gt;Node17 -->
<g id="edge17_Node000016_Node000017" class="edge">
<title>Node16&#45;&gt;Node17</title>
<g id="a_edge17_Node000016_Node000017"><a xlink:title=" ">
<path fill="none" stroke="#63b8ff" d="M726.66,-250.94C743.35,-248.94 761.19,-246.79 778.37,-244.72"/>
<polygon fill="#63b8ff" stroke="#63b8ff" points="778.54,-248.23 788.05,-243.56 777.7,-241.28 778.54,-248.23"/>
</a>
</g>
</g>
<!-- Node17&#45;&gt;Node7 -->
<g id="edge18_Node000017_Node000007" class="edge">
<title>Node17&#45;&gt;Node7</title>
<g id="a_edge18_Node000017_Node000007"><a xlink:title=" ">
<path fill="none" stroke="#63b8ff" d="M947.19,-234C966.33,-234 986.92,-234 1006.4,-234"/>
<polygon fill="#63b8ff" stroke="#63b8ff" points="1006.2,-237.5 1016.2,-234 1006.2,-230.5 1006.2,-237.5"/>
</a>
</g>
</g>
<!-- Node20 -->
<g id="Node000020" class="node">
<title>Node20</title>
<g id="a_Node000020"><a xlink:href="classfr_1_1softsf_1_1canscan_1_1_can_scan.html#a381579d3adc53b1122b38e7fda5c0235" target="_top" xlink:title="Configures the update button for version checking.">
<polygon fill="white" stroke="#666666" points="956.38,-200 780.62,-200 780.62,-168 956.38,-168 956.38,-200"/>
<text text-anchor="start" x="788.62" y="-186.5" font-family="Helvetica,sans-Serif" font-size="10.00">fr.softsf.canscan.CanScan.configure</text>
<text text-anchor="middle" x="868.5" y="-174.5" font-family="Helvetica,sans-Serif" font-size="10.00">UpdateButton</text>
</a>
</g>
</g>
<!-- Node19&#45;&gt;Node20 -->
<g id="edge21_Node000019_Node000020" class="edge">
<title>Node19&#45;&gt;Node20</title>
<g id="a_edge21_Node000019_Node000020"><a xlink:title=" ">
<path fill="none" stroke="#63b8ff" d="M726.66,-168.36C740.31,-169.88 754.73,-171.48 768.93,-173.05"/>
<polygon fill="#63b8ff" stroke="#63b8ff" points="768.42,-176.52 778.75,-174.14 769.2,-169.56 768.42,-176.52"/>
</a>
</g>
</g>
<!-- Node21 -->
<g id="Node000021" class="node">
<title>Node21</title>
<g id="a_Node000021"><a xlink:href="classfr_1_1softsf_1_1canscan_1_1_can_scan.html#a428c742b098fa27d4c8984c1030c238d" target="_top" xlink:title="Switches the application between MECARD and FREE modes.">
<polygon fill="white" stroke="#666666" points="962.75,-150 774.25,-150 774.25,-130 962.75,-130 962.75,-150"/>
<text text-anchor="middle" x="868.5" y="-136.5" font-family="Helvetica,sans-Serif" font-size="10.00">fr.softsf.canscan.CanScan.switchMode</text>
</a>
</g>
</g>
<!-- Node19&#45;&gt;Node21 -->
<g id="edge22_Node000019_Node000021" class="edge">
<title>Node19&#45;&gt;Node21</title>
<g id="a_edge22_Node000019_Node000021"><a xlink:title=" ">
<path fill="none" stroke="#63b8ff" d="M726.66,-153.03C738.32,-151.95 750.54,-150.82 762.71,-149.7"/>
<polygon fill="#63b8ff" stroke="#63b8ff" points="762.7,-153.21 772.34,-148.81 762.06,-146.24 762.7,-153.21"/>
</a>
</g>
</g>
<!-- Node21&#45;&gt;Node7 -->
<g id="edge23_Node000021_Node000007" class="edge">
<title>Node21&#45;&gt;Node7</title>
<g id="a_edge23_Node000021_Node000007"><a xlink:title=" ">
<path fill="none" stroke="#63b8ff" d="M947.45,-150.48C953.61,-152.8 959.55,-155.61 965,-159 987.34,-172.9 979.41,-190.96 1001,-206 1004.45,-208.4 1008.1,-210.6 1011.9,-212.62"/>
<polygon fill="#63b8ff" stroke="#63b8ff" points="1010.31,-215.74 1020.84,-216.88 1013.32,-209.42 1010.31,-215.74"/>
</a>
</g>
</g>
<!-- Node22 -->
<g id="Node000022" class="node">
<title>Node22</title>
<g id="a_Node000022"><a xlink:href="enumfr_1_1softsf_1_1canscan_1_1model_1_1_mode.html#a16a898a11ca939056bd7b275f11ea54c" target="_top" xlink:title="Returns the mode label.">
<polygon fill="white" stroke="#666666" points="1153.5,-197 1031.75,-197 1031.75,-165 1153.5,-165 1153.5,-197"/>
<text text-anchor="start" x="1039.75" y="-183.5" font-family="Helvetica,sans-Serif" font-size="10.00">fr.softsf.canscan.model.</text>
<text text-anchor="middle" x="1092.62" y="-171.5" font-family="Helvetica,sans-Serif" font-size="10.00">Mode.text</text>
</a>
</g>
</g>
<!-- Node21&#45;&gt;Node22 -->
<g id="edge24_Node000021_Node000022" class="edge">
<title>Node21&#45;&gt;Node22</title>
<g id="a_edge24_Node000021_Node000022"><a xlink:title=" ">
<path fill="none" stroke="#63b8ff" d="M926.13,-150.45C954.86,-155.76 990.05,-162.25 1020.59,-167.89"/>
<polygon fill="#63b8ff" stroke="#63b8ff" points="1019.65,-171.27 1030.11,-169.65 1020.92,-164.39 1019.65,-171.27"/>
</a>
</g>
</g>
<!-- Node23 -->
<g id="Node000023" class="node">
<title>Node23</title>
<g id="a_Node000023"><a xlink:href="classfr_1_1softsf_1_1canscan_1_1_can_scan.html#a11fd9295c4843e6e68f9d1e4a710b906" target="_top" xlink:title="Updates the generate button state based on input validation.">
<polygon fill="white" stroke="#666666" points="1175.25,-147 1010,-147 1010,-115 1175.25,-115 1175.25,-147"/>
<text text-anchor="start" x="1018" y="-133.5" font-family="Helvetica,sans-Serif" font-size="10.00">fr.softsf.canscan.CanScan.update</text>
<text text-anchor="middle" x="1092.62" y="-121.5" font-family="Helvetica,sans-Serif" font-size="10.00">GenerateButtonState</text>
</a>
</g>
</g>
<!-- Node21&#45;&gt;Node23 -->
<g id="edge25_Node000021_Node000023" class="edge">
<title>Node21&#45;&gt;Node23</title>
<g id="a_edge25_Node000021_Node000023"><a xlink:title=" ">
<path fill="none" stroke="#63b8ff" d="M963.06,-136.21C974.83,-135.73 986.87,-135.24 998.63,-134.77"/>
<polygon fill="#63b8ff" stroke="#63b8ff" points="998.44,-138.28 1008.29,-134.38 998.16,-131.28 998.44,-138.28"/>
</a>
</g>
</g>
<!-- Node27&#45;&gt;Node1 -->
<g id="edge30_Node000027_Node000001" class="edge">
<title>Node27&#45;&gt;Node1</title>
<g id="a_edge30_Node000027_Node000001"><a xlink:title=" ">
<path fill="none" stroke="#63b8ff" d="M361.74,-32.46C302.3,-44.62 221.5,-61.16 160.95,-73.56"/>
<polygon fill="#63b8ff" stroke="#63b8ff" points="160.47,-70.08 151.37,-75.52 161.87,-76.94 160.47,-70.08"/>
</a>
</g>
</g>
<!-- Node29 -->
<g id="Node000029" class="node">
<title>Node29</title>
<g id="a_Node000029"><a xlink:href="classfr_1_1softsf_1_1canscan_1_1_can_scan.html#a0fe215984734bb1337dd49ca30238b78" target="_top" xlink:title="Sets the loader size so it matches the QR code label height and remains centered.">
<polygon fill="white" stroke="#666666" points="1167.38,-91 1017.88,-91 1017.88,-59 1167.38,-59 1167.38,-91"/>
<text text-anchor="start" x="1025.88" y="-77.5" font-family="Helvetica,sans-Serif" font-size="10.00">fr.softsf.canscan.CanScan.set</text>
<text text-anchor="middle" x="1092.62" y="-65.5" font-family="Helvetica,sans-Serif" font-size="10.00">LoaderSize</text>
</a>
</g>
</g>
<!-- Node28&#45;&gt;Node29 -->
<g id="edge32_Node000028_Node000029" class="edge">
<title>Node28&#45;&gt;Node29</title>
<g id="a_edge32_Node000028_Node000029"><a xlink:title=" ">
<path fill="none" stroke="#63b8ff" d="M529.11,-67.18C653.04,-68.9 882.1,-72.09 1006.25,-73.81"/>
<polygon fill="#63b8ff" stroke="#63b8ff" points="1006.01,-77.31 1016.05,-73.95 1006.1,-70.31 1006.01,-77.31"/>
</a>
</g>
</g>
<!-- Node29&#45;&gt;Node8 -->
<g id="edge33_Node000029_Node000008" class="edge">
<title>Node29&#45;&gt;Node8</title>
<g id="a_edge33_Node000029_Node000008"><a xlink:title=" ">
<path fill="none" stroke="#63b8ff" d="M1167.87,-86.84C1181.14,-88.96 1195.15,-91.2 1208.96,-93.4"/>
<polygon fill="#63b8ff" stroke="#63b8ff" points="1208.05,-96.8 1218.48,-94.92 1209.16,-89.89 1208.05,-96.8"/>
</a>
</g>
</g>
</g>
</svg>
