<?xml version="1.0" encoding="UTF-8" standalone="no"?>
<!DOCTYPE svg PUBLIC "-//W3C//DTD SVG 1.1//EN"
 "http://www.w3.org/Graphics/SVG/1.1/DTD/svg11.dtd">
<!-- Generated by graphviz version 12.2.1 (20241206.2353)
 -->
<!-- Title: fr.softsf.canscan.CanScan.CanScan Pages: 1 -->
<!--zoomable 566 -->

<svg id="main" version="1.1" xmlns="http://www.w3.org/2000/svg" xmlns:xlink="http://www.w3.org/1999/xlink" xml:space="preserve" onload="init(evt)">

<style type="text/css"><![CDATA[
.node, .edge {opacity: 0.7;}
.node.selected, .edge.selected {opacity: 1;}
.edge:hover path { stroke: red; }
.edge:hover polygon { stroke: red; fill: red; }
]]></style>

<defs>
  <circle id="rim" cx="0" cy="0" r="7"/>
  <circle id="rim2" cx="0" cy="0" r="3.5"/>
  <g id="zoomPlus">
    <use xlink:href="#rim" fill="#404040"><set attributeName="fill" to="#808080" begin="zoomplus.mouseover" end="zoomplus.mouseout"/></use>
    <path d="M-4,0h8M0,-4v8" fill="none" stroke="white" stroke-width="1.5" pointer-events="none"/>
  </g>
  <g id="zoomMin">
    <use xlink:href="#rim" fill="#404040"><set attributeName="fill" to="#808080" begin="zoomminus.mouseover" end="zoomminus.mouseout"/></use>
    <path d="M-4,0h8" fill="none" stroke="white" stroke-width="1.5" pointer-events="none"/>
  </g>
  <g id="arrowUp" transform="translate(30 24)">
    <use xlink:href="#rim"/>
    <path pointer-events="none" fill="none" stroke="white" stroke-width="1.5" d="M0,-3.0v7 M-2.5,-0.5L0,-3.0L2.5,-0.5"/>
  </g>
  <g id="arrowRight" transform="rotate(90) translate(36 -43)">
    <use xlink:href="#rim"/>
    <path pointer-events="none" fill="none" stroke="white" stroke-width="1.5" d="M0,-3.0v7 M-2.5,-0.5L0,-3.0L2.5,-0.5"/>
  </g>
  <g id="arrowDown" transform="rotate(180) translate(-30 -48)">
    <use xlink:href="#rim"/>
    <path pointer-events="none" fill="none" stroke="white" stroke-width="1.5" d="M0,-3.0v7 M-2.5,-0.5L0,-3.0L2.5,-0.5"/>
  </g>
  <g id="arrowLeft" transform="rotate(270) translate(-36 17)">
    <use xlink:href="#rim"/>
    <path pointer-events="none" fill="none" stroke="white" stroke-width="1.5" d="M0,-3.0v7 M-2.5,-0.5L0,-3.0L2.5,-0.5"/>
  </g>
  <g id="resetDef">
    <use xlink:href="#rim2" fill="#404040"><set attributeName="fill" to="#808080" begin="reset.mouseover" end="reset.mouseout"/></use>
  </g>
</defs>
<script type="application/ecmascript">
var viewWidth = 1207;
var viewHeight = 566;
var sectionId = 'dynsection-2';
</script>
<script type="application/ecmascript" xlink:href="svg.min.js"/>
<svg id="graph" class="graph">
<g id="viewport">
<title>fr.softsf.canscan.CanScan.CanScan</title>
<!-- Node1 -->
<g id="Node000001" class="node">
<title>Node1</title>
<g id="a_Node000001"><a xlink:title="Initializes the CanScan GUI.">
<polygon fill="#999999" stroke="#666666" points="136,-195 0,-195 0,-163 136,-163 136,-195"/>
<text text-anchor="start" x="8" y="-181.5" font-family="Helvetica,sans-Serif" font-size="10.00">fr.softsf.canscan.CanScan.</text>
<text text-anchor="middle" x="68" y="-169.5" font-family="Helvetica,sans-Serif" font-size="10.00">CanScan</text>
</a>
</g>
</g>
<!-- Node2 -->
<g id="Node000002" class="node">
<title>Node2</title>
<g id="a_Node000002"><a xlink:href="classfr_1_1softsf_1_1canscan_1_1_can_scan.html#a070115929fdc69b249d21866a00a47cc" target="_top" xlink:title="Assigns component names for identification.">
<polygon fill="white" stroke="#666666" points="343.25,-358 172,-358 172,-326 343.25,-326 343.25,-358"/>
<text text-anchor="start" x="180" y="-344.5" font-family="Helvetica,sans-Serif" font-size="10.00">fr.softsf.canscan.CanScan.initialize</text>
<text text-anchor="middle" x="257.62" y="-332.5" font-family="Helvetica,sans-Serif" font-size="10.00">ComponentNames</text>
</a>
</g>
</g>
<!-- Node1&#45;&gt;Node2 -->
<g id="edge1_Node000001_Node000002" class="edge">
<title>Node1&#45;&gt;Node2</title>
<g id="a_edge1_Node000001_Node000002"><a xlink:title=" ">
<path fill="none" stroke="#63b8ff" d="M77.52,-195.36C92.82,-223.18 127.51,-279.82 172,-312 176.54,-315.28 181.48,-318.24 186.6,-320.89"/>
<polygon fill="#63b8ff" stroke="#63b8ff" points="184.74,-323.88 195.28,-324.98 187.73,-317.55 184.74,-323.88"/>
</a>
</g>
</g>
<!-- Node3 -->
<g id="Node000003" class="node">
<title>Node3</title>
<g id="a_Node000003"><a xlink:href="classfr_1_1softsf_1_1canscan_1_1_can_scan.html#a14263ca931024d56cd9bed4af4b74c25" target="_top" xlink:title="Creates the main panel containing all GUI sections.">
<polygon fill="white" stroke="#666666" points="550.5,-514 379.25,-514 379.25,-482 550.5,-482 550.5,-514"/>
<text text-anchor="start" x="387.25" y="-500.5" font-family="Helvetica,sans-Serif" font-size="10.00">fr.softsf.canscan.CanScan.initialize</text>
<text text-anchor="middle" x="464.88" y="-488.5" font-family="Helvetica,sans-Serif" font-size="10.00">MainPanel</text>
</a>
</g>
</g>
<!-- Node1&#45;&gt;Node3 -->
<g id="edge2_Node000001_Node000003" class="edge">
<title>Node1&#45;&gt;Node3</title>
<g id="a_edge2_Node000001_Node000003"><a xlink:title=" ">
<path fill="none" stroke="#63b8ff" d="M80.98,-195.33C98.41,-217.82 132.95,-257.95 172,-279 240.62,-316 281.24,-269.75 343.25,-317 370.45,-337.73 360.95,-356.12 379.25,-385 399.22,-416.52 425.37,-450.52 443.29,-472.89"/>
<polygon fill="#63b8ff" stroke="#63b8ff" points="440.46,-474.97 449.47,-480.56 445.91,-470.58 440.46,-474.97"/>
</a>
</g>
</g>
<!-- Node11 -->
<g id="Node000011" class="node">
<title>Node11</title>
<g id="a_Node000011"><a xlink:href="classfr_1_1softsf_1_1canscan_1_1_can_scan.html#afb8d451dc5d6d9c7b6700e4b688c98a3" target="_top" xlink:title="Builds the north panel containing mode selection, card panels, common fields, and the generate button...">
<polygon fill="white" stroke="#666666" points="343.25,-270 172,-270 172,-238 343.25,-238 343.25,-270"/>
<text text-anchor="start" x="180" y="-256.5" font-family="Helvetica,sans-Serif" font-size="10.00">fr.softsf.canscan.CanScan.initialize</text>
<text text-anchor="middle" x="257.62" y="-244.5" font-family="Helvetica,sans-Serif" font-size="10.00">NorthPanel</text>
</a>
</g>
</g>
<!-- Node1&#45;&gt;Node11 -->
<g id="edge11_Node000001_Node000011" class="edge">
<title>Node1&#45;&gt;Node11</title>
<g id="a_edge11_Node000001_Node000011"><a xlink:title=" ">
<path fill="none" stroke="#63b8ff" d="M99.51,-195.45C119.7,-205.93 146.98,-219.31 172,-229 176.42,-230.71 181.01,-232.38 185.66,-233.98"/>
<polygon fill="#63b8ff" stroke="#63b8ff" points="184.54,-237.29 195.13,-237.12 186.74,-230.65 184.54,-237.29"/>
</a>
</g>
</g>
<!-- Node26 -->
<g id="Node000026" class="node">
<title>Node26</title>
<g id="a_Node000026"><a xlink:href="classfr_1_1softsf_1_1canscan_1_1_can_scan.html#a4928478365bc812571ac037662cc5f6b" target="_top" xlink:title="Wraps the main panel in a scrollable container.">
<polygon fill="white" stroke="#666666" points="343.25,-220 172,-220 172,-188 343.25,-188 343.25,-220"/>
<text text-anchor="start" x="180" y="-206.5" font-family="Helvetica,sans-Serif" font-size="10.00">fr.softsf.canscan.CanScan.initialize</text>
<text text-anchor="middle" x="257.62" y="-194.5" font-family="Helvetica,sans-Serif" font-size="10.00">ScrollPane</text>
</a>
</g>
</g>
<!-- Node1&#45;&gt;Node26 -->
<g id="edge33_Node000001_Node000026" class="edge">
<title>Node1&#45;&gt;Node26</title>
<g id="a_edge33_Node000001_Node000026"><a xlink:title=" ">
<path fill="none" stroke="#63b8ff" d="M136.47,-187.99C144.26,-189.03 152.3,-190.1 160.37,-191.17"/>
<polygon fill="#63b8ff" stroke="#63b8ff" points="159.9,-194.64 170.27,-192.49 160.82,-187.7 159.9,-194.64"/>
</a>
</g>
</g>
<!-- Node27 -->
<g id="Node000027" class="node">
<title>Node27</title>
<g id="a_Node000027"><a xlink:href="classfr_1_1softsf_1_1canscan_1_1_can_scan.html#a358629f85831dc6cd4978c8854d88561" target="_top" xlink:title="Configures sliders for logo margin and ratio.">
<polygon fill="white" stroke="#666666" points="343.25,-170 172,-170 172,-138 343.25,-138 343.25,-170"/>
<text text-anchor="start" x="180" y="-156.5" font-family="Helvetica,sans-Serif" font-size="10.00">fr.softsf.canscan.CanScan.initialize</text>
<text text-anchor="middle" x="257.62" y="-144.5" font-family="Helvetica,sans-Serif" font-size="10.00">Sliders</text>
</a>
</g>
</g>
<!-- Node1&#45;&gt;Node27 -->
<g id="edge34_Node000001_Node000027" class="edge">
<title>Node1&#45;&gt;Node27</title>
<g id="a_edge34_Node000001_Node000027"><a xlink:title=" ">
<path fill="none" stroke="#63b8ff" d="M136.47,-170.01C144.26,-168.97 152.3,-167.9 160.37,-166.83"/>
<polygon fill="#63b8ff" stroke="#63b8ff" points="160.82,-170.3 170.27,-165.51 159.9,-163.36 160.82,-170.3"/>
</a>
</g>
</g>
<!-- Node29 -->
<g id="Node000029" class="node">
<title>Node29</title>
<g id="a_Node000029"><a xlink:href="classfr_1_1softsf_1_1canscan_1_1_can_scan.html#ae9d7eee5ec656c89834bed84a588334f" target="_top" xlink:title="Constructs the application window title using metadata from the version properties.">
<polygon fill="white" stroke="#666666" points="343.25,-120 172,-120 172,-88 343.25,-88 343.25,-120"/>
<text text-anchor="start" x="180" y="-106.5" font-family="Helvetica,sans-Serif" font-size="10.00">fr.softsf.canscan.CanScan.initialize</text>
<text text-anchor="middle" x="257.62" y="-94.5" font-family="Helvetica,sans-Serif" font-size="10.00">Title</text>
</a>
</g>
</g>
<!-- Node1&#45;&gt;Node29 -->
<g id="edge36_Node000001_Node000029" class="edge">
<title>Node1&#45;&gt;Node29</title>
<g id="a_edge36_Node000001_Node000029"><a xlink:title=" ">
<path fill="none" stroke="#63b8ff" d="M99.51,-162.55C119.7,-152.07 146.98,-138.69 172,-129 176.42,-127.29 181.01,-125.62 185.66,-124.02"/>
<polygon fill="#63b8ff" stroke="#63b8ff" points="186.74,-127.35 195.13,-120.88 184.54,-120.71 186.74,-127.35"/>
</a>
</g>
</g>
<!-- Node31 -->
<g id="Node000031" class="node">
<title>Node31</title>
<g id="a_Node000031"><a xlink:href="classfr_1_1softsf_1_1canscan_1_1_can_scan.html#a0a52159db640660477196e337ec62a9b" target="_top" xlink:title="Finalizes window layout and appearance.">
<polygon fill="white" stroke="#666666" points="343.25,-32 172,-32 172,0 343.25,0 343.25,-32"/>
<text text-anchor="start" x="180" y="-18.5" font-family="Helvetica,sans-Serif" font-size="10.00">fr.softsf.canscan.CanScan.initialize</text>
<text text-anchor="middle" x="257.62" y="-6.5" font-family="Helvetica,sans-Serif" font-size="10.00">Window</text>
</a>
</g>
</g>
<!-- Node1&#45;&gt;Node31 -->
<g id="edge39_Node000001_Node000031" class="edge">
<title>Node1&#45;&gt;Node31</title>
<g id="a_edge39_Node000001_Node000031"><a xlink:title=" ">
<path fill="none" stroke="#63b8ff" d="M77.52,-162.64C92.82,-134.82 127.51,-78.18 172,-46 176.54,-42.72 181.48,-39.76 186.6,-37.11"/>
<polygon fill="#63b8ff" stroke="#63b8ff" points="187.73,-40.45 195.28,-33.02 184.74,-34.12 187.73,-40.45"/>
</a>
</g>
</g>
<!-- Node4 -->
<g id="Node000004" class="node">
<title>Node4</title>
<g id="a_Node000004"><a xlink:href="classfr_1_1softsf_1_1canscan_1_1_can_scan.html#ad470e3c0750cf142dc611b1aeeda3a97" target="_top" xlink:title="Sets up automatic QR code preview updates for all input fields and controls.">
<polygon fill="white" stroke="#666666" points="779.5,-558 586.5,-558 586.5,-526 779.5,-526 779.5,-558"/>
<text text-anchor="start" x="594.5" y="-544.5" font-family="Helvetica,sans-Serif" font-size="10.00">fr.softsf.canscan.CanScan.automatic</text>
<text text-anchor="middle" x="683" y="-532.5" font-family="Helvetica,sans-Serif" font-size="10.00">QRCodeRenderingForFieldsAndControls</text>
</a>
</g>
</g>
<!-- Node3&#45;&gt;Node4 -->
<g id="edge3_Node000003_Node000004" class="edge">
<title>Node3&#45;&gt;Node4</title>
<g id="a_edge3_Node000003_Node000004"><a xlink:title=" ">
<path fill="none" stroke="#63b8ff" d="M546.66,-514.45C560.8,-517.33 575.61,-520.34 590.02,-523.27"/>
<polygon fill="#63b8ff" stroke="#63b8ff" points="588.97,-526.63 599.47,-525.2 590.37,-519.77 588.97,-526.63"/>
</a>
</g>
</g>
<!-- Node5 -->
<g id="Node000005" class="node">
<title>Node5</title>
<g id="a_Node000005"><a xlink:href="classfr_1_1softsf_1_1canscan_1_1_can_scan.html#a2d26dcd1ae708eae46dba8952351aa1a" target="_top" xlink:title="Builds and returns a QrInput object containing all current user inputs and settings.">
<polygon fill="white" stroke="#666666" points="976.25,-437 826.75,-437 826.75,-405 976.25,-405 976.25,-437"/>
<text text-anchor="start" x="834.75" y="-423.5" font-family="Helvetica,sans-Serif" font-size="10.00">fr.softsf.canscan.CanScan.get</text>
<text text-anchor="middle" x="901.5" y="-411.5" font-family="Helvetica,sans-Serif" font-size="10.00">QrInput</text>
</a>
</g>
</g>
<!-- Node3&#45;&gt;Node5 -->
<g id="edge10_Node000003_Node000005" class="edge">
<title>Node3&#45;&gt;Node5</title>
<g id="a_edge10_Node000003_Node000005"><a xlink:title=" ">
<path fill="none" stroke="#63b8ff" d="M550.78,-501.6C614.67,-502.23 703.86,-498.62 779.5,-479 809.55,-471.21 841.11,-455.81 864.46,-442.83"/>
<polygon fill="#63b8ff" stroke="#63b8ff" points="865.97,-446 872.94,-438.01 862.52,-439.91 865.97,-446"/>
</a>
</g>
</g>
<!-- Node4&#45;&gt;Node5 -->
<g id="edge4_Node000004_Node000005" class="edge">
<title>Node4&#45;&gt;Node5</title>
<g id="a_edge4_Node000004_Node000005"><a xlink:title=" ">
<path fill="none" stroke="#63b8ff" d="M747.12,-525.53C758.18,-521.71 769.38,-517.2 779.5,-512 815,-493.76 850.96,-465.14 874.34,-444.88"/>
<polygon fill="#63b8ff" stroke="#63b8ff" points="876.63,-447.53 881.82,-438.29 872,-442.27 876.63,-447.53"/>
</a>
</g>
</g>
<!-- Node10 -->
<g id="Node000010" class="node">
<title>Node10</title>
<g id="a_Node000010"><a xlink:href="classfr_1_1softsf_1_1canscan_1_1_can_scan.html#a9856545d05ef553c8dfddd95a850a360" target="_top" xlink:title="Creates a minimal DocumentListener that executes the given action on any document change.">
<polygon fill="white" stroke="#666666" points="983.75,-558 819.25,-558 819.25,-526 983.75,-526 983.75,-558"/>
<text text-anchor="start" x="827.25" y="-544.5" font-family="Helvetica,sans-Serif" font-size="10.00">fr.softsf.canscan.CanScan.simple</text>
<text text-anchor="middle" x="901.5" y="-532.5" font-family="Helvetica,sans-Serif" font-size="10.00">DocumentListener</text>
</a>
</g>
</g>
<!-- Node4&#45;&gt;Node10 -->
<g id="edge9_Node000004_Node000010" class="edge">
<title>Node4&#45;&gt;Node10</title>
<g id="a_edge9_Node000004_Node000010"><a xlink:title=" ">
<path fill="none" stroke="#63b8ff" d="M779.91,-542C789.05,-542 798.32,-542 807.43,-542"/>
<polygon fill="#63b8ff" stroke="#63b8ff" points="807.37,-545.5 817.37,-542 807.37,-538.5 807.37,-545.5"/>
</a>
</g>
</g>
<!-- Node6 -->
<g id="Node000006" class="node">
<title>Node6</title>
<g id="a_Node000006"><a xlink:href="classfr_1_1softsf_1_1canscan_1_1_can_scan.html#a22606ca129489c778fbbe17cb8b70697" target="_top" xlink:title="Calculates the available height for QR code rendering.">
<polygon fill="white" stroke="#666666" points="1198.5,-512 1023.5,-512 1023.5,-480 1198.5,-480 1198.5,-512"/>
<text text-anchor="start" x="1031.5" y="-498.5" font-family="Helvetica,sans-Serif" font-size="10.00">fr.softsf.canscan.CanScan.calculate</text>
<text text-anchor="middle" x="1111" y="-486.5" font-family="Helvetica,sans-Serif" font-size="10.00">AvailableQrHeight</text>
</a>
</g>
</g>
<!-- Node5&#45;&gt;Node6 -->
<g id="edge5_Node000005_Node000006" class="edge">
<title>Node5&#45;&gt;Node6</title>
<g id="a_edge5_Node000005_Node000006"><a xlink:title=" ">
<path fill="none" stroke="#63b8ff" d="M939.16,-437.39C962.95,-447.71 994.75,-460.94 1023.5,-471 1028.49,-472.75 1033.68,-474.47 1038.92,-476.14"/>
<polygon fill="#63b8ff" stroke="#63b8ff" points="1037.67,-479.42 1048.26,-479.05 1039.75,-472.74 1037.67,-479.42"/>
</a>
</g>
</g>
<!-- Node7 -->
<g id="Node000007" class="node">
<title>Node7</title>
<g id="a_Node000007"><a xlink:href="classfr_1_1softsf_1_1canscan_1_1_can_scan.html#a4e67b1b5c764e72414a5c0f387810f5c" target="_top" xlink:title="Validates and returns the current QR code margin from the margin slider.">
<polygon fill="white" stroke="#666666" points="1195.88,-462 1026.12,-462 1026.12,-430 1195.88,-430 1195.88,-462"/>
<text text-anchor="start" x="1034.12" y="-448.5" font-family="Helvetica,sans-Serif" font-size="10.00">fr.softsf.canscan.CanScan.validate</text>
<text text-anchor="middle" x="1111" y="-436.5" font-family="Helvetica,sans-Serif" font-size="10.00">AndGetMargin</text>
</a>
</g>
</g>
<!-- Node5&#45;&gt;Node7 -->
<g id="edge6_Node000005_Node000007" class="edge">
<title>Node5&#45;&gt;Node7</title>
<g id="a_edge6_Node000005_Node000007"><a xlink:title=" ">
<path fill="none" stroke="#63b8ff" d="M976.53,-429.92C988.87,-431.41 1001.81,-432.97 1014.59,-434.5"/>
<polygon fill="#63b8ff" stroke="#63b8ff" points="1013.9,-437.95 1024.25,-435.67 1014.74,-431 1013.9,-437.95"/>
</a>
</g>
</g>
<!-- Node8 -->
<g id="Node000008" class="node">
<title>Node8</title>
<g id="a_Node000008"><a xlink:href="classfr_1_1softsf_1_1canscan_1_1_can_scan.html#a9e8188875168199cde065113ae2a393d" target="_top" xlink:title="Validates and returns the current image&#45;to&#45;QR ratio from the ratio slider.">
<polygon fill="white" stroke="#666666" points="1195.88,-412 1026.12,-412 1026.12,-380 1195.88,-380 1195.88,-412"/>
<text text-anchor="start" x="1034.12" y="-398.5" font-family="Helvetica,sans-Serif" font-size="10.00">fr.softsf.canscan.CanScan.validate</text>
<text text-anchor="middle" x="1111" y="-386.5" font-family="Helvetica,sans-Serif" font-size="10.00">AndGetRatio</text>
</a>
</g>
</g>
<!-- Node5&#45;&gt;Node8 -->
<g id="edge7_Node000005_Node000008" class="edge">
<title>Node5&#45;&gt;Node8</title>
<g id="a_edge7_Node000005_Node000008"><a xlink:title=" ">
<path fill="none" stroke="#63b8ff" d="M976.53,-412.08C988.87,-410.59 1001.81,-409.03 1014.59,-407.5"/>
<polygon fill="#63b8ff" stroke="#63b8ff" points="1014.74,-411 1024.25,-406.33 1013.9,-404.05 1014.74,-411"/>
</a>
</g>
</g>
<!-- Node9 -->
<g id="Node000009" class="node">
<title>Node9</title>
<g id="a_Node000009"><a xlink:href="classfr_1_1softsf_1_1canscan_1_1_can_scan.html#a6d139bb8d0a3c7081096c8956189b684" target="_top" xlink:title="Validates and returns the QR code size from the corresponding text field.">
<polygon fill="white" stroke="#666666" points="1195.88,-362 1026.12,-362 1026.12,-330 1195.88,-330 1195.88,-362"/>
<text text-anchor="start" x="1034.12" y="-348.5" font-family="Helvetica,sans-Serif" font-size="10.00">fr.softsf.canscan.CanScan.validate</text>
<text text-anchor="middle" x="1111" y="-336.5" font-family="Helvetica,sans-Serif" font-size="10.00">AndGetSize</text>
</a>
</g>
</g>
<!-- Node5&#45;&gt;Node9 -->
<g id="edge8_Node000005_Node000009" class="edge">
<title>Node5&#45;&gt;Node9</title>
<g id="a_edge8_Node000005_Node000009"><a xlink:title=" ">
<path fill="none" stroke="#63b8ff" d="M939.16,-404.61C962.95,-394.29 994.75,-381.06 1023.5,-371 1028.49,-369.25 1033.68,-367.53 1038.92,-365.86"/>
<polygon fill="#63b8ff" stroke="#63b8ff" points="1039.75,-369.26 1048.26,-362.95 1037.67,-362.58 1039.75,-369.26"/>
</a>
</g>
</g>
<!-- Node12 -->
<g id="Node000012" class="node">
<title>Node12</title>
<g id="a_Node000012"><a xlink:href="classfr_1_1softsf_1_1canscan_1_1_can_scan.html#ab2e018ca62c7497c29e84f42ae870daa" target="_top" xlink:title="Adds MECARD and Free card panels to the north panel.">
<polygon fill="white" stroke="#666666" points="540.75,-176 389,-176 389,-144 540.75,-144 540.75,-176"/>
<text text-anchor="start" x="397" y="-162.5" font-family="Helvetica,sans-Serif" font-size="10.00">fr.softsf.canscan.CanScan.add</text>
<text text-anchor="middle" x="464.88" y="-150.5" font-family="Helvetica,sans-Serif" font-size="10.00">NorthPanelCardPanels</text>
</a>
</g>
</g>
<!-- Node11&#45;&gt;Node12 -->
<g id="edge12_Node000011_Node000012" class="edge">
<title>Node11&#45;&gt;Node12</title>
<g id="a_edge12_Node000011_Node000012"><a xlink:title=" ">
<path fill="none" stroke="#63b8ff" d="M327.23,-237.69C332.85,-235.18 338.27,-232.3 343.25,-229 364.3,-215.02 358.2,-198.98 379.25,-185 381.12,-183.76 383.05,-182.58 385.02,-181.46"/>
<polygon fill="#63b8ff" stroke="#63b8ff" points="386.55,-184.61 393.92,-176.99 383.41,-178.35 386.55,-184.61"/>
</a>
</g>
</g>
<!-- Node16 -->
<g id="Node000016" class="node">
<title>Node16</title>
<g id="a_Node000016"><a xlink:href="classfr_1_1softsf_1_1canscan_1_1_can_scan.html#a94ab4df98de0d05977e6a65ab75f89f0" target="_top" xlink:title="Adds common input fields to the north panel.">
<polygon fill="white" stroke="#666666" points="540.75,-226 389,-226 389,-194 540.75,-194 540.75,-226"/>
<text text-anchor="start" x="397" y="-212.5" font-family="Helvetica,sans-Serif" font-size="10.00">fr.softsf.canscan.CanScan.add</text>
<text text-anchor="middle" x="464.88" y="-200.5" font-family="Helvetica,sans-Serif" font-size="10.00">NorthPanelCommonFields</text>
</a>
</g>
</g>
<!-- Node11&#45;&gt;Node16 -->
<g id="edge17_Node000011_Node000016" class="edge">
<title>Node11&#45;&gt;Node16</title>
<g id="a_edge17_Node000011_Node000016"><a xlink:title=" ">
<path fill="none" stroke="#63b8ff" d="M335.34,-237.55C349.09,-234.61 363.5,-231.52 377.5,-228.52"/>
<polygon fill="#63b8ff" stroke="#63b8ff" points="378.09,-231.97 387.13,-226.45 376.62,-225.13 378.09,-231.97"/>
</a>
</g>
</g>
<!-- Node18 -->
<g id="Node000018" class="node">
<title>Node18</title>
<g id="a_Node000018"><a xlink:href="classfr_1_1softsf_1_1canscan_1_1_can_scan.html#a9f205dfdb266d5d7f8f8899b69742663" target="_top" xlink:title="Adds the generate button to the north panel.">
<polygon fill="white" stroke="#666666" points="540.75,-326 389,-326 389,-294 540.75,-294 540.75,-326"/>
<text text-anchor="start" x="397" y="-312.5" font-family="Helvetica,sans-Serif" font-size="10.00">fr.softsf.canscan.CanScan.add</text>
<text text-anchor="middle" x="464.88" y="-300.5" font-family="Helvetica,sans-Serif" font-size="10.00">NorthPanelGenerateButton</text>
</a>
</g>
</g>
<!-- Node11&#45;&gt;Node18 -->
<g id="edge22_Node000011_Node000018" class="edge">
<title>Node11&#45;&gt;Node18</title>
<g id="a_edge22_Node000011_Node000018"><a xlink:title=" ">
<path fill="none" stroke="#63b8ff" d="M319.1,-270.5C342.17,-276.79 368.68,-284.03 392.66,-290.57"/>
<polygon fill="#63b8ff" stroke="#63b8ff" points="391.45,-293.87 402.02,-293.12 393.29,-287.12 391.45,-293.87"/>
</a>
</g>
</g>
<!-- Node19 -->
<g id="Node000019" class="node">
<title>Node19</title>
<g id="a_Node000019"><a xlink:href="classfr_1_1softsf_1_1canscan_1_1_can_scan.html#aa469763b92dd7cbc6dfdb9aaa0116b33" target="_top" xlink:title="Adds mode selection controls (MECARD/Free) to the north panel.">
<polygon fill="white" stroke="#666666" points="540.75,-376 389,-376 389,-344 540.75,-344 540.75,-376"/>
<text text-anchor="start" x="397" y="-362.5" font-family="Helvetica,sans-Serif" font-size="10.00">fr.softsf.canscan.CanScan.add</text>
<text text-anchor="middle" x="464.88" y="-350.5" font-family="Helvetica,sans-Serif" font-size="10.00">NorthPanelModeSelection</text>
</a>
</g>
</g>
<!-- Node11&#45;&gt;Node19 -->
<g id="edge23_Node000011_Node000019" class="edge">
<title>Node11&#45;&gt;Node19</title>
<g id="a_edge23_Node000011_Node000019"><a xlink:title=" ">
<path fill="none" stroke="#63b8ff" d="M319.69,-270.47C328.04,-274.17 336.17,-278.63 343.25,-284 365.36,-300.76 356.7,-318.84 379.25,-335 380.83,-336.13 382.47,-337.22 384.15,-338.25"/>
<polygon fill="#63b8ff" stroke="#63b8ff" points="382.37,-341.27 392.83,-342.94 385.69,-335.11 382.37,-341.27"/>
</a>
</g>
</g>
<!-- Node25 -->
<g id="Node000025" class="node">
<title>Node25</title>
<g id="a_Node000025"><a xlink:href="classfr_1_1softsf_1_1canscan_1_1_can_scan.html#aeb5550da33925e95999aae23f525f7c5" target="_top" xlink:title="Creates default GridBagConstraints for consistent layout configuration.">
<polygon fill="white" stroke="#666666" points="543.75,-276 386,-276 386,-244 543.75,-244 543.75,-276"/>
<text text-anchor="start" x="394" y="-262.5" font-family="Helvetica,sans-Serif" font-size="10.00">fr.softsf.canscan.CanScan.north</text>
<text text-anchor="middle" x="464.88" y="-250.5" font-family="Helvetica,sans-Serif" font-size="10.00">PanelGridBagConstraints</text>
</a>
</g>
</g>
<!-- Node11&#45;&gt;Node25 -->
<g id="edge32_Node000011_Node000025" class="edge">
<title>Node11&#45;&gt;Node25</title>
<g id="a_edge32_Node000011_Node000025"><a xlink:title=" ">
<path fill="none" stroke="#63b8ff" d="M343.59,-256.48C353.69,-256.78 364.02,-257.08 374.18,-257.38"/>
<polygon fill="#63b8ff" stroke="#63b8ff" points="373.94,-260.87 384.04,-257.67 374.15,-253.88 373.94,-260.87"/>
</a>
</g>
</g>
<!-- Node13 -->
<g id="Node000013" class="node">
<title>Node13</title>
<g id="a_Node000013"><a xlink:href="classfr_1_1softsf_1_1canscan_1_1_can_scan.html#a38d65dd319daee1c3288690c17e43ca5" target="_top" xlink:title="Initializes the FREE mode input panel with a multiline text area for arbitrary text or URLs.">
<polygon fill="white" stroke="#666666" points="769.75,-170 596.25,-170 596.25,-150 769.75,-150 769.75,-170"/>
<text text-anchor="middle" x="683" y="-156.5" font-family="Helvetica,sans-Serif" font-size="10.00">fr.softsf.canscan.CanScan.freeCard</text>
</a>
</g>
</g>
<!-- Node12&#45;&gt;Node13 -->
<g id="edge13_Node000012_Node000013" class="edge">
<title>Node12&#45;&gt;Node13</title>
<g id="a_edge13_Node000012_Node000013"><a xlink:title=" ">
<path fill="none" stroke="#63b8ff" d="M541.16,-160C555.24,-160 570.13,-160 584.76,-160"/>
<polygon fill="#63b8ff" stroke="#63b8ff" points="584.37,-163.5 594.37,-160 584.37,-156.5 584.37,-163.5"/>
</a>
</g>
</g>
<!-- Node15 -->
<g id="Node000015" class="node">
<title>Node15</title>
<g id="a_Node000015"><a xlink:href="classfr_1_1softsf_1_1canscan_1_1_can_scan.html#aed7e3048974882318a6519d8d36e8ec0" target="_top" xlink:title="Initializes the MECARD input panel with labeled text fields for structured contact information.">
<polygon fill="white" stroke="#666666" points="767.12,-132 598.88,-132 598.88,-112 767.12,-112 767.12,-132"/>
<text text-anchor="middle" x="683" y="-118.5" font-family="Helvetica,sans-Serif" font-size="10.00">fr.softsf.canscan.CanScan.mecard</text>
</a>
</g>
</g>
<!-- Node12&#45;&gt;Node15 -->
<g id="edge15_Node000012_Node000015" class="edge">
<title>Node12&#45;&gt;Node15</title>
<g id="a_edge15_Node000012_Node000015"><a xlink:title=" ">
<path fill="none" stroke="#63b8ff" d="M541.16,-146.76C563.88,-142.77 588.73,-138.4 611.15,-134.46"/>
<polygon fill="#63b8ff" stroke="#63b8ff" points="611.55,-137.94 620.8,-132.76 610.34,-131.05 611.55,-137.94"/>
</a>
</g>
</g>
<!-- Node14 -->
<g id="Node000014" class="node">
<title>Node14</title>
<g id="a_Node000014"><a xlink:href="classfr_1_1softsf_1_1canscan_1_1_can_scan.html#a2732ecdc4490a717352975e68fce494c" target="_top" xlink:title="Adds a labeled component row to a panel using GridBagLayout.">
<polygon fill="white" stroke="#666666" points="987.5,-189 815.5,-189 815.5,-169 987.5,-169 987.5,-189"/>
<text text-anchor="middle" x="901.5" y="-175.5" font-family="Helvetica,sans-Serif" font-size="10.00">fr.softsf.canscan.CanScan.addRow</text>
</a>
</g>
</g>
<!-- Node13&#45;&gt;Node14 -->
<g id="edge14_Node000013_Node000014" class="edge">
<title>Node13&#45;&gt;Node14</title>
<g id="a_edge14_Node000013_Node000014"><a xlink:title=" ">
<path fill="none" stroke="#63b8ff" d="M770.19,-167.56C781.33,-168.54 792.8,-169.55 804.1,-170.54"/>
<polygon fill="#63b8ff" stroke="#63b8ff" points="803.54,-174 813.81,-171.39 804.15,-167.03 803.54,-174"/>
</a>
</g>
</g>
<!-- Node15&#45;&gt;Node14 -->
<g id="edge16_Node000015_Node000014" class="edge">
<title>Node15&#45;&gt;Node14</title>
<g id="a_edge16_Node000015_Node000014"><a xlink:title=" ">
<path fill="none" stroke="#63b8ff" d="M741.8,-132.46C754.29,-135.01 767.38,-137.9 779.5,-141 806.45,-147.89 836.27,-157.23 859.56,-164.93"/>
<polygon fill="#63b8ff" stroke="#63b8ff" points="858.4,-168.23 868.99,-168.08 860.61,-161.59 858.4,-168.23"/>
</a>
</g>
</g>
<!-- Node16&#45;&gt;Node14 -->
<g id="edge18_Node000016_Node000014" class="edge">
<title>Node16&#45;&gt;Node14</title>
<g id="a_edge18_Node000016_Node000014"><a xlink:title=" ">
<path fill="none" stroke="#63b8ff" d="M541.08,-204.64C613.8,-199.45 724.31,-191.57 803.59,-185.91"/>
<polygon fill="#63b8ff" stroke="#63b8ff" points="803.81,-189.41 813.54,-185.2 803.31,-182.42 803.81,-189.41"/>
</a>
</g>
</g>
<!-- Node17 -->
<g id="Node000017" class="node">
<title>Node17</title>
<g id="a_Node000017"><a xlink:href="classfr_1_1softsf_1_1canscan_1_1_can_scan.html#a17b0a72ab305f98f86591411b6a352f2" target="_top" xlink:title="Creates the color selection panel for QR code and background colors.">
<polygon fill="white" stroke="#666666" points="761.5,-334 604.5,-334 604.5,-302 761.5,-302 761.5,-334"/>
<text text-anchor="start" x="612.5" y="-320.5" font-family="Helvetica,sans-Serif" font-size="10.00">fr.softsf.canscan.CanScan.color</text>
<text text-anchor="middle" x="683" y="-308.5" font-family="Helvetica,sans-Serif" font-size="10.00">Panel</text>
</a>
</g>
</g>
<!-- Node16&#45;&gt;Node17 -->
<g id="edge19_Node000016_Node000017" class="edge">
<title>Node16&#45;&gt;Node17</title>
<g id="a_edge19_Node000016_Node000017"><a xlink:title=" ">
<path fill="none" stroke="#63b8ff" d="M536.65,-226.46C541.56,-228.92 546.24,-231.75 550.5,-235 574.63,-253.39 562.09,-274.99 586.5,-293 588.85,-294.74 591.32,-296.35 593.87,-297.86"/>
<polygon fill="#63b8ff" stroke="#63b8ff" points="592.23,-300.95 602.72,-302.42 595.44,-294.73 592.23,-300.95"/>
</a>
</g>
</g>
<!-- Node17&#45;&gt;Node5 -->
<g id="edge21_Node000017_Node000005" class="edge">
<title>Node17&#45;&gt;Node5</title>
<g id="a_edge21_Node000017_Node000005"><a xlink:title=" ">
<path fill="none" stroke="#63b8ff" d="M721.34,-334.42C739.04,-342.31 760.43,-351.98 779.5,-361 805.79,-373.43 835,-387.9 858.13,-399.51"/>
<polygon fill="#63b8ff" stroke="#63b8ff" points="856.45,-402.58 866.95,-403.95 859.59,-396.33 856.45,-402.58"/>
</a>
</g>
</g>
<!-- Node17&#45;&gt;Node17 -->
<g id="edge20_Node000017_Node000017" class="edge">
<title>Node17&#45;&gt;Node17</title>
<g id="a_edge20_Node000017_Node000017"><a xlink:title=" ">
<path fill="none" stroke="#63b8ff" d="M644.06,-334.44C636.79,-343.58 649.77,-352 683,-352 701.43,-352 713.63,-349.41 719.61,-345.54"/>
<polygon fill="#63b8ff" stroke="#63b8ff" points="723,-346.43 721.63,-335.92 716.15,-344.99 723,-346.43"/>
</a>
</g>
</g>
<!-- Node19&#45;&gt;Node14 -->
<g id="edge24_Node000019_Node000014" class="edge">
<title>Node19&#45;&gt;Node14</title>
<g id="a_edge24_Node000019_Node000014"><a xlink:title=" ">
<path fill="none" stroke="#63b8ff" d="M537.97,-343.71C542.46,-341.21 546.69,-338.32 550.5,-335 579.87,-309.36 556.45,-279.85 586.5,-255 654.45,-198.8 693.82,-229.83 779.5,-209 801.87,-203.56 826.55,-197.46 847.74,-192.19"/>
<polygon fill="#63b8ff" stroke="#63b8ff" points="848.48,-195.61 857.33,-189.8 846.79,-188.82 848.48,-195.61"/>
</a>
</g>
</g>
<!-- Node20 -->
<g id="Node000020" class="node">
<title>Node20</title>
<g id="a_Node000020"><a xlink:href="classfr_1_1softsf_1_1canscan_1_1_can_scan.html#a381579d3adc53b1122b38e7fda5c0235" target="_top" xlink:title="Configures the update button for version checking.">
<polygon fill="white" stroke="#666666" points="770.88,-470 595.12,-470 595.12,-438 770.88,-438 770.88,-470"/>
<text text-anchor="start" x="603.12" y="-456.5" font-family="Helvetica,sans-Serif" font-size="10.00">fr.softsf.canscan.CanScan.configure</text>
<text text-anchor="middle" x="683" y="-444.5" font-family="Helvetica,sans-Serif" font-size="10.00">UpdateButton</text>
</a>
</g>
</g>
<!-- Node19&#45;&gt;Node20 -->
<g id="edge25_Node000019_Node000020" class="edge">
<title>Node19&#45;&gt;Node20</title>
<g id="a_edge25_Node000019_Node000020"><a xlink:title=" ">
<path fill="none" stroke="#63b8ff" d="M489.86,-376.26C513.53,-391.68 551.21,-414.58 586.5,-429 590.83,-430.77 595.32,-432.44 599.89,-434.03"/>
<polygon fill="#63b8ff" stroke="#63b8ff" points="598.62,-437.29 609.21,-437.08 600.8,-430.64 598.62,-437.29"/>
</a>
</g>
</g>
<!-- Node21 -->
<g id="Node000021" class="node">
<title>Node21</title>
<g id="a_Node000021"><a xlink:href="classfr_1_1softsf_1_1canscan_1_1_can_scan.html#a5d8f82f2666e6632015dbc4a8ff2b58e" target="_top" xlink:title="Creates the radio button panel for mode selection.">
<polygon fill="white" stroke="#666666" points="761.5,-402 604.5,-402 604.5,-370 761.5,-370 761.5,-402"/>
<text text-anchor="start" x="612.5" y="-388.5" font-family="Helvetica,sans-Serif" font-size="10.00">fr.softsf.canscan.CanScan.radio</text>
<text text-anchor="middle" x="683" y="-376.5" font-family="Helvetica,sans-Serif" font-size="10.00">ButtonsPanel</text>
</a>
</g>
</g>
<!-- Node19&#45;&gt;Node21 -->
<g id="edge26_Node000019_Node000021" class="edge">
<title>Node19&#45;&gt;Node21</title>
<g id="a_edge26_Node000019_Node000021"><a xlink:title=" ">
<path fill="none" stroke="#63b8ff" d="M541.16,-369.06C557.85,-371.06 575.69,-373.21 592.87,-375.28"/>
<polygon fill="#63b8ff" stroke="#63b8ff" points="592.2,-378.72 602.55,-376.44 593.04,-371.77 592.2,-378.72"/>
</a>
</g>
</g>
<!-- Node22 -->
<g id="Node000022" class="node">
<title>Node22</title>
<g id="a_Node000022"><a xlink:href="classfr_1_1softsf_1_1canscan_1_1_can_scan.html#a428c742b098fa27d4c8984c1030c238d" target="_top" xlink:title="Switches the application between MECARD and FREE QR code modes.">
<polygon fill="white" stroke="#666666" points="777.25,-284 588.75,-284 588.75,-264 777.25,-264 777.25,-284"/>
<text text-anchor="middle" x="683" y="-270.5" font-family="Helvetica,sans-Serif" font-size="10.00">fr.softsf.canscan.CanScan.switchMode</text>
</a>
</g>
</g>
<!-- Node19&#45;&gt;Node22 -->
<g id="edge28_Node000019_Node000022" class="edge">
<title>Node19&#45;&gt;Node22</title>
<g id="a_edge28_Node000019_Node000022"><a xlink:title=" ">
<path fill="none" stroke="#63b8ff" d="M534.4,-343.56C540.03,-341.09 545.49,-338.25 550.5,-335 571.14,-321.64 565.28,-305.41 586.5,-293 589.14,-291.45 591.89,-290.03 594.72,-288.72"/>
<polygon fill="#63b8ff" stroke="#63b8ff" points="595.87,-292.03 603.83,-285.03 593.25,-285.54 595.87,-292.03"/>
</a>
</g>
</g>
<!-- Node21&#45;&gt;Node21 -->
<g id="edge27_Node000021_Node000021" class="edge">
<title>Node21&#45;&gt;Node21</title>
<g id="a_edge27_Node000021_Node000021"><a xlink:title=" ">
<path fill="none" stroke="#63b8ff" d="M644.06,-402.44C636.79,-411.58 649.77,-420 683,-420 701.43,-420 713.63,-417.41 719.61,-413.54"/>
<polygon fill="#63b8ff" stroke="#63b8ff" points="723,-414.43 721.63,-403.92 716.15,-412.99 723,-414.43"/>
</a>
</g>
</g>
<!-- Node22&#45;&gt;Node5 -->
<g id="edge29_Node000022_Node000005" class="edge">
<title>Node22&#45;&gt;Node5</title>
<g id="a_edge29_Node000022_Node000005"><a xlink:title=" ">
<path fill="none" stroke="#63b8ff" d="M759.61,-284.43C766.54,-286.75 773.29,-289.57 779.5,-293 791.65,-299.72 847.46,-361.32 878.86,-396.56"/>
<polygon fill="#63b8ff" stroke="#63b8ff" points="876.02,-398.62 885.28,-403.77 881.25,-393.97 876.02,-398.62"/>
</a>
</g>
</g>
<!-- Node23 -->
<g id="Node000023" class="node">
<title>Node23</title>
<g id="a_Node000023"><a xlink:href="enumfr_1_1softsf_1_1canscan_1_1model_1_1_mode.html#a16a898a11ca939056bd7b275f11ea54c" target="_top" xlink:title="Returns the mode label.">
<polygon fill="white" stroke="#666666" points="962.38,-265 840.62,-265 840.62,-233 962.38,-233 962.38,-265"/>
<text text-anchor="start" x="848.62" y="-251.5" font-family="Helvetica,sans-Serif" font-size="10.00">fr.softsf.canscan.model.</text>
<text text-anchor="middle" x="901.5" y="-239.5" font-family="Helvetica,sans-Serif" font-size="10.00">Mode.text</text>
</a>
</g>
</g>
<!-- Node22&#45;&gt;Node23 -->
<g id="edge30_Node000022_Node000023" class="edge">
<title>Node22&#45;&gt;Node23</title>
<g id="a_edge30_Node000022_Node000023"><a xlink:title=" ">
<path fill="none" stroke="#63b8ff" d="M774.87,-263.51C793.01,-261.41 811.8,-259.24 829.16,-257.24"/>
<polygon fill="#63b8ff" stroke="#63b8ff" points="829.31,-260.74 838.84,-256.12 828.5,-253.79 829.31,-260.74"/>
</a>
</g>
</g>
<!-- Node24 -->
<g id="Node000024" class="node">
<title>Node24</title>
<g id="a_Node000024"><a xlink:href="classfr_1_1softsf_1_1canscan_1_1_can_scan.html#a11fd9295c4843e6e68f9d1e4a710b906" target="_top" xlink:title="Validates the current input fields and toggles the state of the generate button.">
<polygon fill="white" stroke="#666666" points="984.12,-315 818.88,-315 818.88,-283 984.12,-283 984.12,-315"/>
<text text-anchor="start" x="826.88" y="-301.5" font-family="Helvetica,sans-Serif" font-size="10.00">fr.softsf.canscan.CanScan.update</text>
<text text-anchor="middle" x="901.5" y="-289.5" font-family="Helvetica,sans-Serif" font-size="10.00">GenerateButtonState</text>
</a>
</g>
</g>
<!-- Node22&#45;&gt;Node24 -->
<g id="edge31_Node000022_Node000024" class="edge">
<title>Node22&#45;&gt;Node24</title>
<g id="a_edge31_Node000022_Node000024"><a xlink:title=" ">
<path fill="none" stroke="#63b8ff" d="M774.87,-284.49C785.61,-285.73 796.58,-287 807.35,-288.24"/>
<polygon fill="#63b8ff" stroke="#63b8ff" points="806.63,-291.68 816.97,-289.35 807.44,-284.73 806.63,-291.68"/>
</a>
</g>
</g>
<!-- Node28 -->
<g id="Node000028" class="node">
<title>Node28</title>
<g id="a_Node000028"><a xlink:href="classfr_1_1softsf_1_1canscan_1_1_can_scan.html#abbe4fb71ad979d6affed0b2c9629b832" target="_top" xlink:title="Updates the tooltip of the ratio slider to reflect its current value as a percentage.">
<polygon fill="white" stroke="#666666" points="539.62,-126 390.12,-126 390.12,-94 539.62,-94 539.62,-126"/>
<text text-anchor="start" x="398.12" y="-112.5" font-family="Helvetica,sans-Serif" font-size="10.00">fr.softsf.canscan.CanScan.set</text>
<text text-anchor="middle" x="464.88" y="-100.5" font-family="Helvetica,sans-Serif" font-size="10.00">RatioSliderTooltipValue</text>
</a>
</g>
</g>
<!-- Node27&#45;&gt;Node28 -->
<g id="edge35_Node000027_Node000028" class="edge">
<title>Node27&#45;&gt;Node28</title>
<g id="a_edge35_Node000027_Node000028"><a xlink:title=" ">
<path fill="none" stroke="#63b8ff" d="M335.34,-137.55C349.5,-134.52 364.36,-131.33 378.74,-128.25"/>
<polygon fill="#63b8ff" stroke="#63b8ff" points="379.11,-131.75 388.15,-126.23 377.64,-124.91 379.11,-131.75"/>
</a>
</g>
</g>
<!-- Node30 -->
<g id="Node000030" class="node">
<title>Node30</title>
<g id="a_Node000030"><a xlink:href="classfr_1_1softsf_1_1canscan_1_1_can_scan.html#aefe4d08d96fdc7b2097daf4033bbbb9c" target="_top" xlink:title="Loads application metadata from the version.properties file.">
<polygon fill="white" stroke="#666666" points="539.62,-76 390.12,-76 390.12,-44 539.62,-44 539.62,-76"/>
<text text-anchor="start" x="398.12" y="-62.5" font-family="Helvetica,sans-Serif" font-size="10.00">fr.softsf.canscan.CanScan.get</text>
<text text-anchor="middle" x="464.88" y="-50.5" font-family="Helvetica,sans-Serif" font-size="10.00">ManifestKeys</text>
</a>
</g>
</g>
<!-- Node29&#45;&gt;Node30 -->
<g id="edge37_Node000029_Node000030" class="edge">
<title>Node29&#45;&gt;Node30</title>
<g id="a_edge37_Node000029_Node000030"><a xlink:title=" ">
<path fill="none" stroke="#63b8ff" d="M335.34,-87.55C349.5,-84.52 364.36,-81.33 378.74,-78.25"/>
<polygon fill="#63b8ff" stroke="#63b8ff" points="379.11,-81.75 388.15,-76.23 377.64,-74.91 379.11,-81.75"/>
</a>
</g>
</g>
<!-- Node30&#45;&gt;Node1 -->
<g id="edge38_Node000030_Node000001" class="edge">
<title>Node30&#45;&gt;Node1</title>
<g id="a_edge38_Node000030_Node000001"><a xlink:title=" ">
<path fill="none" stroke="#63b8ff" d="M389.77,-51.09C328.68,-46.9 241.15,-48.3 172,-79 135.96,-95 105.13,-129.41 86.83,-153.37"/>
<polygon fill="#63b8ff" stroke="#63b8ff" points="84.04,-151.27 80.9,-161.39 89.66,-155.43 84.04,-151.27"/>
</a>
</g>
</g>
</g>
</svg>

<g id="navigator" transform="translate(0 0)" fill="#404254">
  <rect fill="#f2f5e9" fill-opacity="0.5" stroke="#606060" stroke-width=".5" x="0" y="0" width="60" height="60"/>
  <use id="zoomplus" xlink:href="#zoomPlus" x="17" y="9" onmousedown="handleZoom(evt,'in')"/>
  <use id="zoomminus" xlink:href="#zoomMin" x="42" y="9" onmousedown="handleZoom(evt,'out')"/>
  <use id="reset" xlink:href="#resetDef" x="30" y="36" onmousedown="handleReset()"/>
   <use id="arrowup" xlink:href="#arrowUp" x="0" y="0" onmousedown="handlePan(0,-1)"/>
  <use id="arrowright" xlink:href="#arrowRight" x="0" y="0" onmousedown="handlePan(1,0)"/>
  <use id="arrowdown" xlink:href="#arrowDown" x="0" y="0" onmousedown="handlePan(0,1)"/>
  <use id="arrowleft" xlink:href="#arrowLeft" x="0" y="0" onmousedown="handlePan(-1,0)"/>
</g>
<svg viewBox="0 0 15 15" width="100%" height="30px" preserveAspectRatio="xMaxYMin meet">
 <g id="arrow_out" transform="scale(0.3 0.3)">
  <a xlink:href="classfr_1_1softsf_1_1canscan_1_1_can_scan_a102bcbc6cda608b642e870ba3fde6344_cgraph_org.svg" target="_base">
   <rect id="button" ry="5" rx="5" y="6" x="6" height="38" width="38"
        fill="#f2f5e9" fill-opacity="0.5" stroke="#606060" stroke-width="1.0"/>
   <path id="arrow"
     d="M 11.500037,31.436501 C 11.940474,20.09759 22.043105,11.32322 32.158766,21.979434 L 37.068811,17.246167 C 37.068811,17.246167 37.088388,32 37.088388,32 L 22.160133,31.978069 C 22.160133,31.978069 26.997745,27.140456 26.997745,27.140456 C 18.528582,18.264221 13.291696,25.230495 11.500037,31.436501 z"
     style="fill:#404040;"/>
  </a>
 </g>
</svg>

<style type='text/css'>
<![CDATA[
[data-mouse-over-selected='false'] { opacity: 0.7; }
[data-mouse-over-selected='true']  { opacity: 1.0; }
]]>
</style>
<script type="application/ecmascript"><![CDATA[
document.addEventListener('DOMContentLoaded', (event) => {
  highlightEdges();
  highlightAdjacentNodes();
});
]]></script>
</svg>
