<?xml version="1.0" encoding="UTF-8" standalone="no"?>
<!DOCTYPE svg PUBLIC "-//W3C//DTD SVG 1.1//EN"
 "http://www.w3.org/Graphics/SVG/1.1/DTD/svg11.dtd">
<!-- Generated by graphviz version 12.2.1 (20241206.2353)
 -->
<!-- Title: fr.softsf.canscan.CanScan.resetAndStartPreviewWorker Pages: 1 -->
<svg width="562pt" height="190pt"
 viewBox="0.00 0.00 562.25 190.00" xmlns="http://www.w3.org/2000/svg" xmlns:xlink="http://www.w3.org/1999/xlink">
<g id="graph0" class="graph" transform="scale(1 1) rotate(0) translate(4 186)">
<title>fr.softsf.canscan.CanScan.resetAndStartPreviewWorker</title>
<!-- Node1 -->
<g id="Node000001" class="node">
<title>Node1</title>
<g id="a_Node000001"><a xlink:title="Clears the current QR code display and starts a background worker to generate a new preview.">
<polygon fill="#999999" stroke="#666666" points="157.75,-107 0,-107 0,-75 157.75,-75 157.75,-107"/>
<text text-anchor="start" x="8" y="-93.5" font-family="Helvetica,sans-Serif" font-size="10.00">fr.softsf.canscan.CanScan.reset</text>
<text text-anchor="middle" x="78.88" y="-81.5" font-family="Helvetica,sans-Serif" font-size="10.00">AndStartPreviewWorker</text>
</a>
</g>
</g>
<!-- Node2 -->
<g id="Node000002" class="node">
<title>Node2</title>
<g id="a_Node000002"><a xlink:href="classfr_1_1softsf_1_1canscan_1_1_can_scan.html#a2d26dcd1ae708eae46dba8952351aa1a" target="_top" xlink:title="Builds and returns a QrInput object containing all current user inputs and settings.">
<polygon fill="white" stroke="#666666" points="343.25,-107 193.75,-107 193.75,-75 343.25,-75 343.25,-107"/>
<text text-anchor="start" x="201.75" y="-93.5" font-family="Helvetica,sans-Serif" font-size="10.00">fr.softsf.canscan.CanScan.get</text>
<text text-anchor="middle" x="268.5" y="-81.5" font-family="Helvetica,sans-Serif" font-size="10.00">QrInput</text>
</a>
</g>
</g>
<!-- Node1&#45;&gt;Node2 -->
<g id="edge1_Node000001_Node000002" class="edge">
<title>Node1&#45;&gt;Node2</title>
<g id="a_edge1_Node000001_Node000002"><a xlink:title=" ">
<path fill="none" stroke="#63b8ff" d="M158.09,-91C165.92,-91 173.91,-91 181.82,-91"/>
<polygon fill="#63b8ff" stroke="#63b8ff" points="181.81,-94.5 191.81,-91 181.81,-87.5 181.81,-94.5"/>
</a>
</g>
</g>
<!-- Node3 -->
<g id="Node000003" class="node">
<title>Node3</title>
<g id="a_Node000003"><a xlink:href="classfr_1_1softsf_1_1canscan_1_1_can_scan.html#a22606ca129489c778fbbe17cb8b70697" target="_top" xlink:title="Calculates the available height for QR code rendering.">
<polygon fill="white" stroke="#666666" points="554.25,-182 379.25,-182 379.25,-150 554.25,-150 554.25,-182"/>
<text text-anchor="start" x="387.25" y="-168.5" font-family="Helvetica,sans-Serif" font-size="10.00">fr.softsf.canscan.CanScan.calculate</text>
<text text-anchor="middle" x="466.75" y="-156.5" font-family="Helvetica,sans-Serif" font-size="10.00">AvailableQrHeight</text>
</a>
</g>
</g>
<!-- Node2&#45;&gt;Node3 -->
<g id="edge2_Node000002_Node000003" class="edge">
<title>Node2&#45;&gt;Node3</title>
<g id="a_edge2_Node000002_Node000003"><a xlink:title=" ">
<path fill="none" stroke="#63b8ff" d="M302.11,-107.38C323.67,-117.82 352.74,-131.19 379.25,-141 384.12,-142.8 389.19,-144.56 394.32,-146.25"/>
<polygon fill="#63b8ff" stroke="#63b8ff" points="392.86,-149.46 403.45,-149.17 394.99,-142.79 392.86,-149.46"/>
</a>
</g>
</g>
<!-- Node4 -->
<g id="Node000004" class="node">
<title>Node4</title>
<g id="a_Node000004"><a xlink:href="classfr_1_1softsf_1_1canscan_1_1_can_scan.html#a4e67b1b5c764e72414a5c0f387810f5c" target="_top" xlink:title="Validates and returns the current QR code margin from the margin slider.">
<polygon fill="white" stroke="#666666" points="551.62,-132 381.88,-132 381.88,-100 551.62,-100 551.62,-132"/>
<text text-anchor="start" x="389.88" y="-118.5" font-family="Helvetica,sans-Serif" font-size="10.00">fr.softsf.canscan.CanScan.validate</text>
<text text-anchor="middle" x="466.75" y="-106.5" font-family="Helvetica,sans-Serif" font-size="10.00">AndGetMargin</text>
</a>
</g>
</g>
<!-- Node2&#45;&gt;Node4 -->
<g id="edge3_Node000002_Node000004" class="edge">
<title>Node2&#45;&gt;Node4</title>
<g id="a_edge3_Node000002_Node000004"><a xlink:title=" ">
<path fill="none" stroke="#63b8ff" d="M343.69,-100.45C352.39,-101.56 361.36,-102.7 370.3,-103.84"/>
<polygon fill="#63b8ff" stroke="#63b8ff" points="369.72,-107.3 380.08,-105.09 370.6,-100.35 369.72,-107.3"/>
</a>
</g>
</g>
<!-- Node5 -->
<g id="Node000005" class="node">
<title>Node5</title>
<g id="a_Node000005"><a xlink:href="classfr_1_1softsf_1_1canscan_1_1_can_scan.html#a9e8188875168199cde065113ae2a393d" target="_top" xlink:title="Validates and returns the current image&#45;to&#45;QR ratio from the ratio slider.">
<polygon fill="white" stroke="#666666" points="551.62,-82 381.88,-82 381.88,-50 551.62,-50 551.62,-82"/>
<text text-anchor="start" x="389.88" y="-68.5" font-family="Helvetica,sans-Serif" font-size="10.00">fr.softsf.canscan.CanScan.validate</text>
<text text-anchor="middle" x="466.75" y="-56.5" font-family="Helvetica,sans-Serif" font-size="10.00">AndGetRatio</text>
</a>
</g>
</g>
<!-- Node2&#45;&gt;Node5 -->
<g id="edge4_Node000002_Node000005" class="edge">
<title>Node2&#45;&gt;Node5</title>
<g id="a_edge4_Node000002_Node000005"><a xlink:title=" ">
<path fill="none" stroke="#63b8ff" d="M343.69,-81.55C352.39,-80.44 361.36,-79.3 370.3,-78.16"/>
<polygon fill="#63b8ff" stroke="#63b8ff" points="370.6,-81.65 380.08,-76.91 369.72,-74.7 370.6,-81.65"/>
</a>
</g>
</g>
<!-- Node6 -->
<g id="Node000006" class="node">
<title>Node6</title>
<g id="a_Node000006"><a xlink:href="classfr_1_1softsf_1_1canscan_1_1_can_scan.html#a6d139bb8d0a3c7081096c8956189b684" target="_top" xlink:title="Validates and returns the QR code size from the corresponding text field.">
<polygon fill="white" stroke="#666666" points="551.62,-32 381.88,-32 381.88,0 551.62,0 551.62,-32"/>
<text text-anchor="start" x="389.88" y="-18.5" font-family="Helvetica,sans-Serif" font-size="10.00">fr.softsf.canscan.CanScan.validate</text>
<text text-anchor="middle" x="466.75" y="-6.5" font-family="Helvetica,sans-Serif" font-size="10.00">AndGetSize</text>
</a>
</g>
</g>
<!-- Node2&#45;&gt;Node6 -->
<g id="edge5_Node000002_Node000006" class="edge">
<title>Node2&#45;&gt;Node6</title>
<g id="a_edge5_Node000002_Node000006"><a xlink:title=" ">
<path fill="none" stroke="#63b8ff" d="M302.11,-74.62C323.67,-64.18 352.74,-50.81 379.25,-41 384.12,-39.2 389.19,-37.44 394.32,-35.75"/>
<polygon fill="#63b8ff" stroke="#63b8ff" points="394.99,-39.21 403.45,-32.83 392.86,-32.54 394.99,-39.21"/>
</a>
</g>
</g>
</g>
</svg>
