<?xml version="1.0" encoding="UTF-8" standalone="no"?>
<!DOCTYPE svg PUBLIC "-//W3C//DTD SVG 1.1//EN"
 "http://www.w3.org/Graphics/SVG/1.1/DTD/svg11.dtd">
<!-- Generated by graphviz version 12.2.1 (20241206.2353)
 -->
<!-- Title: fr.softsf.canscan.ui.DynamicQrCodePreviewPreview.createWorker Pages: 1 -->
<svg width="1072pt" height="234pt"
 viewBox="0.00 0.00 1072.00 234.00" xmlns="http://www.w3.org/2000/svg" xmlns:xlink="http://www.w3.org/1999/xlink">
<g id="graph0" class="graph" transform="scale(1 1) rotate(0) translate(4 230)">
<title>fr.softsf.canscan.ui.worker.DynamicPreviewWorker.createWorker</title>
<!-- Node1 -->
<g id="Node000001" class="node">
<title>Node1</title>
<g id="a_Node000001"><a xlink:title="Creates a background SwingWorker that generates the QR code preview image.">
<polygon fill="#999999" stroke="#666666" points="136.75,-101 0,-101 0,-69 136.75,-69 136.75,-101"/>
<text text-anchor="start" x="8" y="-87.5" font-family="Helvetica,sans-Serif" font-size="10.00">fr.softsf.canscan.ui.QrCode</text>
<text text-anchor="middle" x="68.38" y="-75.5" font-family="Helvetica,sans-Serif" font-size="10.00">Preview.createWorker</text>
</a>
</g>
</g>
<!-- Node2 -->
<g id="Node000002" class="node">
<title>Node2</title>
<g id="a_Node000002"><a xlink:href="classfr_1_1softsf_1_1canscan_1_1ui_1_1_qr_code_preview.html#a55581238ed0fb7c9ff7cab5bd779e87d" target="_top" xlink:title="Builds and returns the QR code preview image based on the current QrInput.">
<polygon fill="white" stroke="#666666" points="342.5,-126 205.75,-126 205.75,-94 342.5,-94 342.5,-126"/>
<text text-anchor="start" x="213.75" y="-112.5" font-family="Helvetica,sans-Serif" font-size="10.00">fr.softsf.canscan.ui.QrCode</text>
<text text-anchor="middle" x="274.12" y="-100.5" font-family="Helvetica,sans-Serif" font-size="10.00">Preview.buildPreviewImage</text>
</a>
</g>
</g>
<!-- Node1&#45;&gt;Node2 -->
<g id="edge1_Node000001_Node000002" class="edge">
<title>Node1&#45;&gt;Node2</title>
<g id="a_edge1_Node000001_Node000002"><a xlink:title=" ">
<path fill="none" stroke="#63b8ff" d="M137.22,-93.32C155.52,-95.57 175.48,-98.02 194.32,-100.33"/>
<polygon fill="#63b8ff" stroke="#63b8ff" points="193.72,-103.78 204.07,-101.53 194.57,-96.84 193.72,-103.78"/>
</a>
</g>
</g>
<!-- Node3 -->
<g id="Node000003" class="node">
<title>Node3</title>
<g id="a_Node000003"><a xlink:href="classfr_1_1softsf_1_1canscan_1_1service_1_1_abstract_qr_code_worker.html#ab7ffd831505e43d65d3d3381a90fc524" target="_top" xlink:title="Handles the completion of the current SwingWorker task.">
<polygon fill="white" stroke="#666666" points="375.5,-76 172.75,-76 172.75,-44 375.5,-44 375.5,-76"/>
<text text-anchor="start" x="180.75" y="-62.5" font-family="Helvetica,sans-Serif" font-size="10.00">fr.softsf.canscan.service.</text>
<text text-anchor="middle" x="274.12" y="-50.5" font-family="Helvetica,sans-Serif" font-size="10.00">AbstractQrCodeWorker.handleWorkerDone</text>
</a>
</g>
</g>
<!-- Node1&#45;&gt;Node3 -->
<g id="edge2_Node000001_Node000003" class="edge">
<title>Node1&#45;&gt;Node3</title>
<g id="a_edge2_Node000001_Node000003"><a xlink:title=" ">
<path fill="none" stroke="#63b8ff" d="M137.22,-76.68C145.02,-75.72 153.12,-74.72 161.31,-73.72"/>
<polygon fill="#63b8ff" stroke="#63b8ff" points="161.5,-77.22 171,-72.53 160.65,-70.27 161.5,-77.22"/>
</a>
</g>
</g>
<!-- Node4 -->
<g id="Node000004" class="node">
<title>Node4</title>
<g id="a_Node000004"><a xlink:href="classfr_1_1softsf_1_1canscan_1_1service_1_1_abstract_qr_code_worker.html#ace733ca9c4cf397695cc148a3a458253" target="_top" xlink:title="Called when the worker fails or is cancelled.">
<polygon fill="white" stroke="#666666" points="606.75,-123 416,-123 416,-91 606.75,-91 606.75,-123"/>
<text text-anchor="start" x="424" y="-109.5" font-family="Helvetica,sans-Serif" font-size="10.00">fr.softsf.canscan.service.</text>
<text text-anchor="middle" x="511.38" y="-97.5" font-family="Helvetica,sans-Serif" font-size="10.00">AbstractQrCodeWorker.onWorkerFailure</text>
</a>
</g>
</g>
<!-- Node3&#45;&gt;Node4 -->
<g id="edge3_Node000003_Node000004" class="edge">
<title>Node3&#45;&gt;Node4</title>
<g id="a_edge3_Node000003_Node000004"><a xlink:title=" ">
<path fill="none" stroke="#63b8ff" d="M357.4,-76.44C376.66,-80.28 397.3,-84.41 416.99,-88.34"/>
<polygon fill="#63b8ff" stroke="#63b8ff" points="416.17,-91.75 426.66,-90.27 417.54,-84.88 416.17,-91.75"/>
</a>
</g>
</g>
<!-- Node9 -->
<g id="Node000009" class="node">
<title>Node9</title>
<g id="a_Node000009"><a xlink:href="classfr_1_1softsf_1_1canscan_1_1service_1_1_abstract_qr_code_worker.html#a3ecd1b3ddd1dbf2c2a1e9487ae4bfd59" target="_top" xlink:title="Stops the loader&#39;s wait indicator if assigned.">
<polygon fill="white" stroke="#666666" points="1044.12,-76 875.88,-76 875.88,-32 1044.12,-32 1044.12,-76"/>
<text text-anchor="start" x="883.88" y="-62.5" font-family="Helvetica,sans-Serif" font-size="10.00">fr.softsf.canscan.service.</text>
<text text-anchor="start" x="883.88" y="-50.5" font-family="Helvetica,sans-Serif" font-size="10.00">AbstractQrCodeWorker.stopLoader</text>
<text text-anchor="middle" x="960" y="-38.5" font-family="Helvetica,sans-Serif" font-size="10.00">IfPresent</text>
</a>
</g>
</g>
<!-- Node3&#45;&gt;Node9 -->
<g id="edge10_Node000003_Node000009" class="edge">
<title>Node3&#45;&gt;Node9</title>
<g id="a_edge10_Node000003_Node000009"><a xlink:title=" ">
<path fill="none" stroke="#63b8ff" d="M375.67,-59.12C507.12,-57.96 735.72,-55.96 864.25,-54.83"/>
<polygon fill="#63b8ff" stroke="#63b8ff" points="864.13,-58.33 874.1,-54.74 864.07,-51.33 864.13,-58.33"/>
</a>
</g>
</g>
<!-- Node10 -->
<g id="Node000010" class="node">
<title>Node10</title>
<g id="a_Node000010"><a xlink:href="classfr_1_1softsf_1_1canscan_1_1service_1_1_abstract_qr_code_worker.html#aa5cb6b962f384211a647d90a7c1214de" target="_top" xlink:title="Called when the worker completes successfully with its result.">
<polygon fill="white" stroke="#666666" points="611.25,-32 411.5,-32 411.5,0 611.25,0 611.25,-32"/>
<text text-anchor="start" x="419.5" y="-18.5" font-family="Helvetica,sans-Serif" font-size="10.00">fr.softsf.canscan.service.</text>
<text text-anchor="middle" x="511.38" y="-6.5" font-family="Helvetica,sans-Serif" font-size="10.00">AbstractQrCodeWorker.onWorkerSuccess</text>
</a>
</g>
</g>
<!-- Node3&#45;&gt;Node10 -->
<g id="edge9_Node000003_Node000010" class="edge">
<title>Node3&#45;&gt;Node10</title>
<g id="a_edge9_Node000003_Node000010"><a xlink:title=" ">
<path fill="none" stroke="#63b8ff" d="M363.06,-43.55C378.75,-40.62 395.2,-37.54 411.18,-34.55"/>
<polygon fill="#63b8ff" stroke="#63b8ff" points="411.48,-38.06 420.67,-32.78 410.2,-31.18 411.48,-38.06"/>
</a>
</g>
</g>
<!-- Node5 -->
<g id="Node000005" class="node">
<title>Node5</title>
<g id="a_Node000005"><a xlink:href="classfr_1_1softsf_1_1canscan_1_1service_1_1_abstract_qr_code_worker.html#ad2923dae15a1315f89f6df73d846e87d" target="_top" xlink:title="Resets the current worker and associated resources.">
<polygon fill="white" stroke="#666666" points="820,-126 647.25,-126 647.25,-94 820,-94 820,-126"/>
<text text-anchor="start" x="655.25" y="-112.5" font-family="Helvetica,sans-Serif" font-size="10.00">fr.softsf.canscan.service.</text>
<text text-anchor="middle" x="733.62" y="-100.5" font-family="Helvetica,sans-Serif" font-size="10.00">AbstractQrCodeWorker.resetWorker</text>
</a>
</g>
</g>
<!-- Node4&#45;&gt;Node5 -->
<g id="edge4_Node000004_Node000005" class="edge">
<title>Node4&#45;&gt;Node5</title>
<g id="a_edge4_Node000004_Node000005"><a xlink:title=" ">
<path fill="none" stroke="#63b8ff" d="M607.06,-108.29C616.51,-108.42 626.11,-108.55 635.59,-108.68"/>
<polygon fill="#63b8ff" stroke="#63b8ff" points="635.5,-112.18 645.54,-108.81 635.59,-105.18 635.5,-112.18"/>
</a>
</g>
</g>
<!-- Node6 -->
<g id="Node000006" class="node">
<title>Node6</title>
<g id="a_Node000006"><a xlink:href="classfr_1_1softsf_1_1canscan_1_1service_1_1_abstract_qr_code_worker.html#af307a6f804bca23190b6408780c380d0" target="_top" xlink:title="Cancels the current SwingWorker and clears its reference safely.">
<polygon fill="white" stroke="#666666" points="1049.75,-226 870.25,-226 870.25,-194 1049.75,-194 1049.75,-226"/>
<text text-anchor="start" x="878.25" y="-212.5" font-family="Helvetica,sans-Serif" font-size="10.00">fr.softsf.canscan.service.</text>
<text text-anchor="middle" x="960" y="-200.5" font-family="Helvetica,sans-Serif" font-size="10.00">AbstractQrCodeWorker.cancelWorker</text>
</a>
</g>
</g>
<!-- Node5&#45;&gt;Node6 -->
<g id="edge5_Node000005_Node000006" class="edge">
<title>Node5&#45;&gt;Node6</title>
<g id="a_edge5_Node000005_Node000006"><a xlink:title=" ">
<path fill="none" stroke="#63b8ff" d="M756.29,-126.34C779.73,-143.28 818.75,-169.43 856,-185 860.3,-186.8 864.75,-188.48 869.29,-190.06"/>
<polygon fill="#63b8ff" stroke="#63b8ff" points="867.97,-193.31 878.56,-193.08 870.14,-186.65 867.97,-193.31"/>
</a>
</g>
</g>
<!-- Node7 -->
<g id="Node000007" class="node">
<title>Node7</title>
<g id="a_Node000007"><a xlink:href="classfr_1_1softsf_1_1canscan_1_1service_1_1_abstract_qr_code_worker.html#a63c4787bd3dbba55917dde56aa4ef5bc" target="_top" xlink:title="Clears any allocated data, icons, or buffers before starting a new task.">
<polygon fill="white" stroke="#666666" points="1054.25,-176 865.75,-176 865.75,-144 1054.25,-144 1054.25,-176"/>
<text text-anchor="start" x="873.75" y="-162.5" font-family="Helvetica,sans-Serif" font-size="10.00">fr.softsf.canscan.service.</text>
<text text-anchor="middle" x="960" y="-150.5" font-family="Helvetica,sans-Serif" font-size="10.00">AbstractQrCodeWorker.clearResources</text>
</a>
</g>
</g>
<!-- Node5&#45;&gt;Node7 -->
<g id="edge6_Node000005_Node000007" class="edge">
<title>Node5&#45;&gt;Node7</title>
<g id="a_edge6_Node000005_Node000007"><a xlink:title=" ">
<path fill="none" stroke="#63b8ff" d="M808.4,-126.44C829.4,-131.12 852.43,-136.25 874.03,-141.07"/>
<polygon fill="#63b8ff" stroke="#63b8ff" points="873.18,-144.46 883.7,-143.22 874.7,-137.63 873.18,-144.46"/>
</a>
</g>
</g>
<!-- Node8 -->
<g id="Node000008" class="node">
<title>Node8</title>
<g id="a_Node000008"><a xlink:href="classfr_1_1softsf_1_1canscan_1_1service_1_1_abstract_qr_code_worker.html#ab11bed09d0e3e1f74e1fb72fdeec8245" target="_top" xlink:title="Stops and clears the debounce timer.">
<polygon fill="white" stroke="#666666" points="1064,-126 856,-126 856,-94 1064,-94 1064,-126"/>
<text text-anchor="start" x="864" y="-112.5" font-family="Helvetica,sans-Serif" font-size="10.00">fr.softsf.canscan.service.</text>
<text text-anchor="middle" x="960" y="-100.5" font-family="Helvetica,sans-Serif" font-size="10.00">AbstractQrCodeWorker.stopDebounceTimer</text>
</a>
</g>
</g>
<!-- Node5&#45;&gt;Node8 -->
<g id="edge7_Node000005_Node000008" class="edge">
<title>Node5&#45;&gt;Node8</title>
<g id="a_edge7_Node000005_Node000008"><a xlink:title=" ">
<path fill="none" stroke="#63b8ff" d="M820.41,-110C828.23,-110 836.23,-110 844.25,-110"/>
<polygon fill="#63b8ff" stroke="#63b8ff" points="844.07,-113.5 854.07,-110 844.07,-106.5 844.07,-113.5"/>
</a>
</g>
</g>
<!-- Node5&#45;&gt;Node9 -->
<g id="edge8_Node000005_Node000009" class="edge">
<title>Node5&#45;&gt;Node9</title>
<g id="a_edge8_Node000005_Node000009"><a xlink:title=" ">
<path fill="none" stroke="#63b8ff" d="M800.73,-93.5C820.66,-88.53 842.93,-82.97 864.33,-77.63"/>
<polygon fill="#63b8ff" stroke="#63b8ff" points="865.1,-81.04 873.95,-75.23 863.4,-74.25 865.1,-81.04"/>
</a>
</g>
</g>
</g>
</svg>
