<?xml version="1.0" encoding="UTF-8" standalone="no"?>
<!DOCTYPE svg PUBLIC "-//W3C//DTD SVG 1.1//EN"
 "http://www.w3.org/Graphics/SVG/1.1/DTD/svg11.dtd">
<!-- Generated by graphviz version 12.2.1 (20241206.2353)
 -->
<!-- Title: fr.softsf.canscan.ui.ColorOperation.updateButtonWithColor Pages: 1 -->
<svg width="514pt" height="90pt"
 viewBox="0.00 0.00 514.25 90.00" xmlns="http://www.w3.org/2000/svg" xmlns:xlink="http://www.w3.org/1999/xlink">
<g id="graph0" class="graph" transform="scale(1 1) rotate(0) translate(4 86)">
<title>fr.softsf.canscan.ui.ColorOperation.updateButtonWithColor</title>
<!-- Node1 -->
<g id="Node000001" class="node">
<title>Node1</title>
<g id="a_Node000001"><a xlink:title="Updates a button&#39;s icon and text to reflect a new color.">
<polygon fill="#999999" stroke="#666666" points="162.25,-57 0,-57 0,-25 162.25,-25 162.25,-57"/>
<text text-anchor="start" x="8" y="-43.5" font-family="Helvetica,sans-Serif" font-size="10.00">fr.softsf.canscan.ui.Color</text>
<text text-anchor="middle" x="81.12" y="-31.5" font-family="Helvetica,sans-Serif" font-size="10.00">Operation.updateButtonWithColor</text>
</a>
</g>
</g>
<!-- Node2 -->
<g id="Node000002" class="node">
<title>Node2</title>
<g id="a_Node000002"><a xlink:href="classfr_1_1softsf_1_1canscan_1_1ui_1_1_color_operation.html#a2dc9a80146b95145d06e8ad45171e889" target="_top" xlink:title="Converts a Color object to its hexadecimal RGB string representation.">
<polygon fill="white" stroke="#666666" points="326.38,-82 200.12,-82 200.12,-50 326.38,-50 326.38,-82"/>
<text text-anchor="start" x="208.12" y="-68.5" font-family="Helvetica,sans-Serif" font-size="10.00">fr.softsf.canscan.ui.Color</text>
<text text-anchor="middle" x="263.25" y="-56.5" font-family="Helvetica,sans-Serif" font-size="10.00">Operation.colorToHex</text>
</a>
</g>
</g>
<!-- Node1&#45;&gt;Node2 -->
<g id="edge1_Node000001_Node000002" class="edge">
<title>Node1&#45;&gt;Node2</title>
<g id="a_edge1_Node000001_Node000002"><a xlink:title=" ">
<path fill="none" stroke="#63b8ff" d="M162.7,-52.18C171.37,-53.39 180.15,-54.6 188.72,-55.79"/>
<polygon fill="#63b8ff" stroke="#63b8ff" points="187.96,-59.22 198.35,-57.13 188.92,-52.29 187.96,-59.22"/>
</a>
</g>
</g>
<!-- Node3 -->
<g id="Node000003" class="node">
<title>Node3</title>
<g id="a_Node000003"><a xlink:href="classfr_1_1softsf_1_1canscan_1_1ui_1_1_color_operation.html#a71702ffd14d463001f26baa6e9a77e1a" target="_top" xlink:title="Creates a square icon filled with the specified color and a visible border.">
<polygon fill="white" stroke="#666666" points="328.25,-32 198.25,-32 198.25,0 328.25,0 328.25,-32"/>
<text text-anchor="start" x="206.25" y="-18.5" font-family="Helvetica,sans-Serif" font-size="10.00">fr.softsf.canscan.ui.Color</text>
<text text-anchor="middle" x="263.25" y="-6.5" font-family="Helvetica,sans-Serif" font-size="10.00">Operation.createColorIcon</text>
</a>
</g>
</g>
<!-- Node1&#45;&gt;Node3 -->
<g id="edge2_Node000001_Node000003" class="edge">
<title>Node1&#45;&gt;Node3</title>
<g id="a_edge2_Node000001_Node000003"><a xlink:title=" ">
<path fill="none" stroke="#63b8ff" d="M162.7,-29.82C170.73,-28.7 178.85,-27.58 186.82,-26.47"/>
<polygon fill="#63b8ff" stroke="#63b8ff" points="187.02,-29.97 196.45,-25.13 186.06,-23.04 187.02,-29.97"/>
</a>
</g>
</g>
<!-- Node4 -->
<g id="Node000004" class="node">
<title>Node4</title>
<g id="a_Node000004"><a xlink:href="classfr_1_1softsf_1_1canscan_1_1ui_1_1_color_operation.html#a98d693b64c1f7003ca834a41a0f123cb" target="_top" xlink:title="Disposes the current icon of a button to free memory.">
<polygon fill="white" stroke="#666666" points="506.25,-32 364.25,-32 364.25,0 506.25,0 506.25,-32"/>
<text text-anchor="start" x="372.25" y="-18.5" font-family="Helvetica,sans-Serif" font-size="10.00">fr.softsf.canscan.ui.Color</text>
<text text-anchor="middle" x="435.25" y="-6.5" font-family="Helvetica,sans-Serif" font-size="10.00">Operation.disposeButtonIcon</text>
</a>
</g>
</g>
<!-- Node3&#45;&gt;Node4 -->
<g id="edge3_Node000003_Node000004" class="edge">
<title>Node3&#45;&gt;Node4</title>
<g id="a_edge3_Node000003_Node000004"><a xlink:title=" ">
<path fill="none" stroke="#63b8ff" d="M328.52,-16C336.38,-16 344.49,-16 352.57,-16"/>
<polygon fill="#63b8ff" stroke="#63b8ff" points="352.41,-19.5 362.41,-16 352.41,-12.5 352.41,-19.5"/>
</a>
</g>
</g>
</g>
</svg>
