<?xml version="1.0" encoding="UTF-8" standalone="no"?>
<!DOCTYPE svg PUBLIC "-//W3C//DTD SVG 1.1//EN"
 "http://www.w3.org/Graphics/SVG/1.1/DTD/svg11.dtd">
<!-- Generated by graphviz version 12.2.1 (20241206.2353)
 -->
<!-- Title: fr.softsf.canscan.CanScan.colorPanel Pages: 1 -->
<!--zoomable 377 -->

<svg id="main" version="1.1" xmlns="http://www.w3.org/2000/svg" xmlns:xlink="http://www.w3.org/1999/xlink" xml:space="preserve">

<style type="text/css"><![CDATA[
.node, .edge {opacity: 0.7;}
.node.selected, .edge.selected {opacity: 1;}
.edge:hover path { stroke: red; }
.edge:hover polygon { stroke: red; fill: red; }
]]></style>

<defs>
  <circle id="rim" cx="0" cy="0" r="7"/>
  <circle id="rim2" cx="0" cy="0" r="3.5"/>
  <g id="zoomPlus">
    <use xlink:href="#rim" fill="#404040"><set attributeName="fill" to="#808080" begin="zoomplus.mouseover" end="zoomplus.mouseout"/></use>
    <path d="M-4,0h8M0,-4v8" fill="none" stroke="white" stroke-width="1.5" pointer-events="none"/>
  </g>
  <g id="zoomMin">
    <use xlink:href="#rim" fill="#404040"><set attributeName="fill" to="#808080" begin="zoomminus.mouseover" end="zoomminus.mouseout"/></use>
    <path d="M-4,0h8" fill="none" stroke="white" stroke-width="1.5" pointer-events="none"/>
  </g>
  <g id="arrowUp" transform="translate(30 24)">
    <use xlink:href="#rim"/>
    <path pointer-events="none" fill="none" stroke="white" stroke-width="1.5" d="M0,-3.0v7 M-2.5,-0.5L0,-3.0L2.5,-0.5"/>
  </g>
  <g id="arrowRight" transform="rotate(90) translate(36 -43)">
    <use xlink:href="#rim"/>
    <path pointer-events="none" fill="none" stroke="white" stroke-width="1.5" d="M0,-3.0v7 M-2.5,-0.5L0,-3.0L2.5,-0.5"/>
  </g>
  <g id="arrowDown" transform="rotate(180) translate(-30 -48)">
    <use xlink:href="#rim"/>
    <path pointer-events="none" fill="none" stroke="white" stroke-width="1.5" d="M0,-3.0v7 M-2.5,-0.5L0,-3.0L2.5,-0.5"/>
  </g>
  <g id="arrowLeft" transform="rotate(270) translate(-36 17)">
    <use xlink:href="#rim"/>
    <path pointer-events="none" fill="none" stroke="white" stroke-width="1.5" d="M0,-3.0v7 M-2.5,-0.5L0,-3.0L2.5,-0.5"/>
  </g>
  <g id="resetDef">
    <use xlink:href="#rim2" fill="#404040"><set attributeName="fill" to="#808080" begin="reset.mouseover" end="reset.mouseout"/></use>
  </g>
</defs>
<script type="application/ecmascript" xlink:href="svg.min.js"/>
<svg id="graph" class="graph" data-view-width="938" data-view-height="377" data-section-id="dynsection-8">
<g id="viewport">
<title>fr.softsf.canscan.CanScan.colorPanel</title>
<!-- Node1 -->
<g id="Node000001" class="node">
<title>Node1</title>
<g id="a_Node000001"><a xlink:title="Creates the color selection panel for QR code and background colors.">
<polygon fill="#999999" stroke="#666666" points="157,-244 0,-244 0,-212 157,-212 157,-244"/>
<text text-anchor="start" x="8" y="-230.5" font-family="Helvetica,sans-Serif" font-size="10.00">fr.softsf.canscan.CanScan.color</text>
<text text-anchor="middle" x="78.5" y="-218.5" font-family="Helvetica,sans-Serif" font-size="10.00">Panel</text>
</a>
</g>
</g>
<!-- Node2 -->
<g id="Node000002" class="node">
<title>Node2</title>
<g id="a_Node000002"><a xlink:href="classfr_1_1softsf_1_1canscan_1_1ui_1_1_color_operation.html#a2b8df9a3e67501adf287968d641a0c42" target="_top" xlink:title="Opens a color chooser dialog and updates the button with the selected color.">
<polygon fill="white" stroke="#666666" points="349.62,-340 223.38,-340 223.38,-308 349.62,-308 349.62,-340"/>
<text text-anchor="start" x="231.38" y="-326.5" font-family="Helvetica,sans-Serif" font-size="10.00">fr.softsf.canscan.ui.Color</text>
<text text-anchor="middle" x="286.5" y="-314.5" font-family="Helvetica,sans-Serif" font-size="10.00">Operation.chooseColor</text>
</a>
</g>
</g>
<!-- Node1&#45;&gt;Node2 -->
<g id="edge1_Node000001_Node000002" class="edge">
<title>Node1&#45;&gt;Node2</title>
<g id="a_edge1_Node000001_Node000002"><a xlink:title=" ">
<path fill="none" stroke="#63b8ff" d="M103.43,-244.33C125.82,-259.06 160.59,-280.59 193,-295 200.11,-298.16 207.66,-301.13 215.27,-303.86"/>
<polygon fill="#63b8ff" stroke="#63b8ff" points="214,-307.13 224.6,-307.08 216.29,-300.51 214,-307.13"/>
</a>
</g>
</g>
<!-- Node7 -->
<g id="Node000007" class="node">
<title>Node7</title>
<g id="a_Node000007"><a xlink:href="classfr_1_1softsf_1_1canscan_1_1_can_scan.html#a180290bc488e2346592ded98ccc4b1f3" target="_top" xlink:title="Collects current input and visual settings into a WholeFields for QR code generation.">
<polygon fill="white" stroke="#666666" points="361.25,-210 211.75,-210 211.75,-178 361.25,-178 361.25,-210"/>
<text text-anchor="start" x="219.75" y="-196.5" font-family="Helvetica,sans-Serif" font-size="10.00">fr.softsf.canscan.CanScan.get</text>
<text text-anchor="middle" x="286.5" y="-184.5" font-family="Helvetica,sans-Serif" font-size="10.00">QrInput</text>
</a>
</g>
</g>
<!-- Node1&#45;&gt;Node7 -->
<g id="edge6_Node000001_Node000007" class="edge">
<title>Node1&#45;&gt;Node7</title>
<g id="a_edge6_Node000001_Node000007"><a xlink:title=" ">
<path fill="none" stroke="#63b8ff" d="M157.38,-215.15C171.31,-212.85 185.9,-210.44 200.04,-208.11"/>
<polygon fill="#63b8ff" stroke="#63b8ff" points="200.46,-211.58 209.76,-206.5 199.32,-204.68 200.46,-211.58"/>
</a>
</g>
</g>
<!-- Node13 -->
<g id="Node000013" class="node">
<title>Node13</title>
<g id="a_Node000013"><a xlink:href="classfr_1_1softsf_1_1canscan_1_1ui_1_1_color_operation.html#a097b6f73395cc3945d514006a38dba21" target="_top" xlink:title="Initializes a color button with icon, text, and tooltip.">
<polygon fill="white" stroke="#666666" points="360.5,-286 212.5,-286 212.5,-254 360.5,-254 360.5,-286"/>
<text text-anchor="start" x="220.5" y="-272.5" font-family="Helvetica,sans-Serif" font-size="10.00">fr.softsf.canscan.ui.Color</text>
<text text-anchor="middle" x="286.5" y="-260.5" font-family="Helvetica,sans-Serif" font-size="10.00">Operation.initializeColorButton</text>
</a>
</g>
</g>
<!-- Node1&#45;&gt;Node13 -->
<g id="edge13_Node000001_Node000013" class="edge">
<title>Node1&#45;&gt;Node13</title>
<g id="a_edge13_Node000001_Node000013"><a xlink:title=" ">
<path fill="none" stroke="#63b8ff" d="M157.38,-243.88C171.73,-246.8 186.76,-249.87 201.28,-252.83"/>
<polygon fill="#63b8ff" stroke="#63b8ff" points="200.29,-256.2 210.79,-254.77 201.69,-249.34 200.29,-256.2"/>
</a>
</g>
</g>
<!-- Node14 -->
<g id="Node000014" class="node">
<title>Node14</title>
<g id="a_Node000014"><a xlink:href="classfr_1_1softsf_1_1canscan_1_1ui_1_1worker_1_1_dynamic_preview_worker.html#aab1382704fa1f4c27f1eab80fc8534b1" target="_top" xlink:title="Updates and schedules a debounced QR code preview refresh.">
<polygon fill="white" stroke="#666666" points="380,-110 193,-110 193,-66 380,-66 380,-110"/>
<text text-anchor="start" x="201" y="-96.5" font-family="Helvetica,sans-Serif" font-size="10.00">fr.softsf.canscan.ui.worker.</text>
<text text-anchor="start" x="201" y="-84.5" font-family="Helvetica,sans-Serif" font-size="10.00">DynamicPreviewWorker.updateQrCode</text>
<text text-anchor="middle" x="286.5" y="-72.5" font-family="Helvetica,sans-Serif" font-size="10.00">Preview</text>
</a>
</g>
</g>
<!-- Node1&#45;&gt;Node14 -->
<g id="edge15_Node000001_Node000014" class="edge">
<title>Node1&#45;&gt;Node14</title>
<g id="a_edge15_Node000001_Node000014"><a xlink:title=" ">
<path fill="none" stroke="#63b8ff" d="M103.53,-211.67C137.7,-188.45 200.84,-145.54 243.01,-116.88"/>
<polygon fill="#63b8ff" stroke="#63b8ff" points="244.91,-119.82 251.21,-111.3 240.97,-114.03 244.91,-119.82"/>
</a>
</g>
</g>
<!-- Node3 -->
<g id="Node000003" class="node">
<title>Node3</title>
<g id="a_Node000003"><a xlink:href="classfr_1_1softsf_1_1canscan_1_1ui_1_1_color_operation.html#a466717b99c523fa665a8895bb9c91b71" target="_top" xlink:title="Updates a button&#39;s icon and text to reflect a new color.">
<polygon fill="white" stroke="#666666" points="582,-344 419.75,-344 419.75,-312 582,-312 582,-344"/>
<text text-anchor="start" x="427.75" y="-330.5" font-family="Helvetica,sans-Serif" font-size="10.00">fr.softsf.canscan.ui.Color</text>
<text text-anchor="middle" x="500.88" y="-318.5" font-family="Helvetica,sans-Serif" font-size="10.00">Operation.updateButtonWithColor</text>
</a>
</g>
</g>
<!-- Node2&#45;&gt;Node3 -->
<g id="edge2_Node000002_Node000003" class="edge">
<title>Node2&#45;&gt;Node3</title>
<g id="a_edge2_Node000002_Node000003"><a xlink:title=" ">
<path fill="none" stroke="#63b8ff" d="M350.07,-325.18C368.28,-325.52 388.55,-325.9 408.16,-326.27"/>
<polygon fill="#63b8ff" stroke="#63b8ff" points="408.03,-329.77 418.09,-326.46 408.16,-322.77 408.03,-329.77"/>
</a>
</g>
</g>
<!-- Node4 -->
<g id="Node000004" class="node">
<title>Node4</title>
<g id="a_Node000004"><a xlink:href="classfr_1_1softsf_1_1canscan_1_1ui_1_1_color_operation.html#a2dc9a80146b95145d06e8ad45171e889" target="_top" xlink:title="Converts a Color object to its hexadecimal RGB string representation.">
<polygon fill="white" stroke="#666666" points="749.88,-369 623.62,-369 623.62,-337 749.88,-337 749.88,-369"/>
<text text-anchor="start" x="631.62" y="-355.5" font-family="Helvetica,sans-Serif" font-size="10.00">fr.softsf.canscan.ui.Color</text>
<text text-anchor="middle" x="686.75" y="-343.5" font-family="Helvetica,sans-Serif" font-size="10.00">Operation.colorToHex</text>
</a>
</g>
</g>
<!-- Node3&#45;&gt;Node4 -->
<g id="edge3_Node000003_Node000004" class="edge">
<title>Node3&#45;&gt;Node4</title>
<g id="a_edge3_Node000003_Node000004"><a xlink:title=" ">
<path fill="none" stroke="#63b8ff" d="M582.26,-338.93C592.12,-340.27 602.16,-341.64 611.92,-342.96"/>
<polygon fill="#63b8ff" stroke="#63b8ff" points="611.34,-346.42 621.72,-344.29 612.29,-339.48 611.34,-346.42"/>
</a>
</g>
</g>
<!-- Node5 -->
<g id="Node000005" class="node">
<title>Node5</title>
<g id="a_Node000005"><a xlink:href="classfr_1_1softsf_1_1canscan_1_1ui_1_1_color_operation.html#a71702ffd14d463001f26baa6e9a77e1a" target="_top" xlink:title="Creates a square icon filled with the specified color and a visible border.">
<polygon fill="white" stroke="#666666" points="751.75,-319 621.75,-319 621.75,-287 751.75,-287 751.75,-319"/>
<text text-anchor="start" x="629.75" y="-305.5" font-family="Helvetica,sans-Serif" font-size="10.00">fr.softsf.canscan.ui.Color</text>
<text text-anchor="middle" x="686.75" y="-293.5" font-family="Helvetica,sans-Serif" font-size="10.00">Operation.createColorIcon</text>
</a>
</g>
</g>
<!-- Node3&#45;&gt;Node5 -->
<g id="edge4_Node000003_Node000005" class="edge">
<title>Node3&#45;&gt;Node5</title>
<g id="a_edge4_Node000003_Node000005"><a xlink:title=" ">
<path fill="none" stroke="#63b8ff" d="M582.26,-317.07C591.43,-315.82 600.76,-314.56 609.87,-313.32"/>
<polygon fill="#63b8ff" stroke="#63b8ff" points="610.33,-316.79 619.77,-311.97 609.39,-309.85 610.33,-316.79"/>
</a>
</g>
</g>
<!-- Node6 -->
<g id="Node000006" class="node">
<title>Node6</title>
<g id="a_Node000006"><a xlink:href="classfr_1_1softsf_1_1canscan_1_1ui_1_1_color_operation.html#a98d693b64c1f7003ca834a41a0f123cb" target="_top" xlink:title="Disposes the current icon of a button to free memory.">
<polygon fill="white" stroke="#666666" points="929.75,-319 787.75,-319 787.75,-287 929.75,-287 929.75,-319"/>
<text text-anchor="start" x="795.75" y="-305.5" font-family="Helvetica,sans-Serif" font-size="10.00">fr.softsf.canscan.ui.Color</text>
<text text-anchor="middle" x="858.75" y="-293.5" font-family="Helvetica,sans-Serif" font-size="10.00">Operation.disposeButtonIcon</text>
</a>
</g>
</g>
<!-- Node5&#45;&gt;Node6 -->
<g id="edge5_Node000005_Node000006" class="edge">
<title>Node5&#45;&gt;Node6</title>
<g id="a_edge5_Node000005_Node000006"><a xlink:title=" ">
<path fill="none" stroke="#63b8ff" d="M752.02,-303C759.88,-303 767.99,-303 776.07,-303"/>
<polygon fill="#63b8ff" stroke="#63b8ff" points="775.91,-306.5 785.91,-303 775.91,-299.5 775.91,-306.5"/>
</a>
</g>
</g>
<!-- Node7&#45;&gt;Node7 -->
<g id="edge8_Node000007_Node000007" class="edge">
<title>Node7&#45;&gt;Node7</title>
<g id="a_edge8_Node000007_Node000007"><a xlink:title=" ">
<path fill="none" stroke="#63b8ff" d="M249.37,-210.44C242.43,-219.58 254.81,-228 286.5,-228 304.08,-228 315.71,-225.41 321.41,-221.54"/>
<polygon fill="#63b8ff" stroke="#63b8ff" points="324.8,-222.42 323.34,-211.93 317.94,-221.04 324.8,-222.42"/>
</a>
</g>
</g>
<!-- Node8 -->
<g id="Node000008" class="node">
<title>Node8</title>
<g id="a_Node000008"><a xlink:href="classfr_1_1softsf_1_1canscan_1_1_can_scan.html#a1a6235214fa4fd656875c0dae3e960bd" target="_top" xlink:title="Clears input fields corresponding to the active generation mode upon exceeding capacity limits.">
<polygon fill="white" stroke="#666666" points="579.38,-294 422.38,-294 422.38,-262 579.38,-262 579.38,-294"/>
<text text-anchor="start" x="430.38" y="-280.5" font-family="Helvetica,sans-Serif" font-size="10.00">fr.softsf.canscan.CanScan.clear</text>
<text text-anchor="middle" x="500.88" y="-268.5" font-family="Helvetica,sans-Serif" font-size="10.00">FieldsForCurrentMode</text>
</a>
</g>
</g>
<!-- Node7&#45;&gt;Node8 -->
<g id="edge7_Node000007_Node000008" class="edge">
<title>Node7&#45;&gt;Node8</title>
<g id="a_edge7_Node000007_Node000008"><a xlink:title=" ">
<path fill="none" stroke="#63b8ff" d="M319.97,-210.45C345.63,-223.08 382.57,-240.42 416,-253 420.6,-254.73 425.38,-256.43 430.22,-258.07"/>
<polygon fill="#63b8ff" stroke="#63b8ff" points="428.84,-261.29 439.43,-261.08 431.02,-254.64 428.84,-261.29"/>
</a>
</g>
</g>
<!-- Node9 -->
<g id="Node000009" class="node">
<title>Node9</title>
<g id="a_Node000009"><a xlink:href="classfr_1_1softsf_1_1canscan_1_1_can_scan.html#a4e67b1b5c764e72414a5c0f387810f5c" target="_top" xlink:title="Validates and returns the current QR code margin from the margin slider.">
<polygon fill="white" stroke="#666666" points="585.75,-244 416,-244 416,-212 585.75,-212 585.75,-244"/>
<text text-anchor="start" x="424" y="-230.5" font-family="Helvetica,sans-Serif" font-size="10.00">fr.softsf.canscan.CanScan.validate</text>
<text text-anchor="middle" x="500.88" y="-218.5" font-family="Helvetica,sans-Serif" font-size="10.00">AndGetMargin</text>
</a>
</g>
</g>
<!-- Node7&#45;&gt;Node9 -->
<g id="edge9_Node000007_Node000009" class="edge">
<title>Node7&#45;&gt;Node9</title>
<g id="a_edge9_Node000007_Node000009"><a xlink:title=" ">
<path fill="none" stroke="#63b8ff" d="M361.48,-205.84C375.41,-208.07 390.15,-210.43 404.62,-212.75"/>
<polygon fill="#63b8ff" stroke="#63b8ff" points="403.69,-216.15 414.12,-214.27 404.8,-209.23 403.69,-216.15"/>
</a>
</g>
</g>
<!-- Node10 -->
<g id="Node000010" class="node">
<title>Node10</title>
<g id="a_Node000010"><a xlink:href="classfr_1_1softsf_1_1canscan_1_1_can_scan.html#a8a2b238ac4af96d8710b3e5d7d051f77" target="_top" xlink:title="Validates and returns the current meet UID from the meet title field.">
<polygon fill="white" stroke="#666666" points="585.75,-194 416,-194 416,-162 585.75,-162 585.75,-194"/>
<text text-anchor="start" x="424" y="-180.5" font-family="Helvetica,sans-Serif" font-size="10.00">fr.softsf.canscan.CanScan.validate</text>
<text text-anchor="middle" x="500.88" y="-168.5" font-family="Helvetica,sans-Serif" font-size="10.00">AndGetMeetUID</text>
</a>
</g>
</g>
<!-- Node7&#45;&gt;Node10 -->
<g id="edge10_Node000007_Node000010" class="edge">
<title>Node7&#45;&gt;Node10</title>
<g id="a_edge10_Node000007_Node000010"><a xlink:title=" ">
<path fill="none" stroke="#63b8ff" d="M361.48,-188.43C375.27,-187.39 389.86,-186.29 404.2,-185.21"/>
<polygon fill="#63b8ff" stroke="#63b8ff" points="404.4,-188.7 414.11,-184.46 403.87,-181.72 404.4,-188.7"/>
</a>
</g>
</g>
<!-- Node11 -->
<g id="Node000011" class="node">
<title>Node11</title>
<g id="a_Node000011"><a xlink:href="classfr_1_1softsf_1_1canscan_1_1_can_scan.html#a9e8188875168199cde065113ae2a393d" target="_top" xlink:title="Validates and returns the current image&#45;to&#45;QR ratio from the ratio slider.">
<polygon fill="white" stroke="#666666" points="585.75,-144 416,-144 416,-112 585.75,-112 585.75,-144"/>
<text text-anchor="start" x="424" y="-130.5" font-family="Helvetica,sans-Serif" font-size="10.00">fr.softsf.canscan.CanScan.validate</text>
<text text-anchor="middle" x="500.88" y="-118.5" font-family="Helvetica,sans-Serif" font-size="10.00">AndGetRatio</text>
</a>
</g>
</g>
<!-- Node7&#45;&gt;Node11 -->
<g id="edge11_Node000007_Node000011" class="edge">
<title>Node7&#45;&gt;Node11</title>
<g id="a_edge11_Node000007_Node000011"><a xlink:title=" ">
<path fill="none" stroke="#63b8ff" d="M338.39,-177.51C361.97,-169.94 390.38,-160.9 416,-153 421.72,-151.24 427.66,-149.42 433.62,-147.62"/>
<polygon fill="#63b8ff" stroke="#63b8ff" points="434.32,-151.06 442.89,-144.83 432.3,-144.36 434.32,-151.06"/>
</a>
</g>
</g>
<!-- Node12 -->
<g id="Node000012" class="node">
<title>Node12</title>
<g id="a_Node000012"><a xlink:href="classfr_1_1softsf_1_1canscan_1_1_can_scan.html#a6d139bb8d0a3c7081096c8956189b684" target="_top" xlink:title="Validates and returns the QR code size from the corresponding text field.">
<polygon fill="white" stroke="#666666" points="585.75,-94 416,-94 416,-62 585.75,-62 585.75,-94"/>
<text text-anchor="start" x="424" y="-80.5" font-family="Helvetica,sans-Serif" font-size="10.00">fr.softsf.canscan.CanScan.validate</text>
<text text-anchor="middle" x="500.88" y="-68.5" font-family="Helvetica,sans-Serif" font-size="10.00">AndGetSize</text>
</a>
</g>
</g>
<!-- Node7&#45;&gt;Node12 -->
<g id="edge12_Node000007_Node000012" class="edge">
<title>Node7&#45;&gt;Node12</title>
<g id="a_edge12_Node000007_Node000012"><a xlink:title=" ">
<path fill="none" stroke="#63b8ff" d="M306.27,-177.68C330.25,-157.58 373.72,-123.58 416,-103 419.28,-101.4 422.68,-99.89 426.15,-98.45"/>
<polygon fill="#63b8ff" stroke="#63b8ff" points="427.25,-101.78 435.32,-94.92 424.73,-95.25 427.25,-101.78"/>
</a>
</g>
</g>
<!-- Node13&#45;&gt;Node3 -->
<g id="edge14_Node000013_Node000003" class="edge">
<title>Node13&#45;&gt;Node3</title>
<g id="a_edge14_Node000013_Node000003"><a xlink:title=" ">
<path fill="none" stroke="#63b8ff" d="M347.79,-286.47C373.01,-293.35 402.5,-301.41 428.76,-308.58"/>
<polygon fill="#63b8ff" stroke="#63b8ff" points="427.77,-311.94 438.34,-311.2 429.62,-305.18 427.77,-311.94"/>
</a>
</g>
</g>
<!-- Node15 -->
<g id="Node000015" class="node">
<title>Node15</title>
<g id="a_Node000015"><a xlink:href="classfr_1_1softsf_1_1canscan_1_1ui_1_1worker_1_1_abstract_dynamic_worker.html#abd8ce1ed48ee82ef39d7d169a051faf6" target="_top" xlink:title=" ">
<polygon fill="white" stroke="#666666" points="584.62,-44 417.12,-44 417.12,0 584.62,0 584.62,-44"/>
<text text-anchor="start" x="425.12" y="-30.5" font-family="Helvetica,sans-Serif" font-size="10.00">fr.softsf.canscan.ui.worker.</text>
<text text-anchor="start" x="425.12" y="-18.5" font-family="Helvetica,sans-Serif" font-size="10.00">AbstractDynamicWorker&lt; Buffered</text>
<text text-anchor="middle" x="500.88" y="-6.5" font-family="Helvetica,sans-Serif" font-size="10.00">Image &gt;::resetAndStartWorker</text>
</a>
</g>
</g>
<!-- Node14&#45;&gt;Node15 -->
<g id="edge16_Node000014_Node000015" class="edge">
<title>Node14&#45;&gt;Node15</title>
<g id="a_edge16_Node000014_Node000015"><a xlink:title=" ">
<path fill="none" stroke="#63b8ff" d="M359.7,-65.56C377.99,-59.88 397.79,-53.72 416.59,-47.88"/>
<polygon fill="#63b8ff" stroke="#63b8ff" points="417.56,-51.25 426.07,-44.94 415.48,-44.56 417.56,-51.25"/>
</a>
</g>
</g>
</g>
</svg>

<g id="navigator" transform="translate(0 0)" fill="#404254">
  <rect fill="#f2f5e9" fill-opacity="0.5" stroke="#606060" stroke-width=".5" x="0" y="0" width="60" height="60"/>
  <use id="zoomplus" xlink:href="#zoomPlus" x="17" y="9" data-zoom="in"/>
  <use id="zoomminus" xlink:href="#zoomMin" x="42" y="9" data-zoom="out"/>
  <use id="reset" xlink:href="#resetDef" x="30" y="36" data-reset="true"/>
  <use id="arrowup" xlink:href="#arrowUp" x="0" y="0" data-pan-x="0" data-pan-y="-1"/>
  <use id="arrowright" xlink:href="#arrowRight" x="0" y="0" data-pan-x="1" data-pan-y="0"/>
  <use id="arrowdown" xlink:href="#arrowDown" x="0" y="0" data-pan-x="0" data-pan-y="1"/>
  <use id="arrowleft" xlink:href="#arrowLeft" x="0" y="0" data-pan-x="-1" data-pan-y="0"/>
</g>
<svg viewBox="0 0 15 15" width="100%" height="30px" preserveAspectRatio="xMaxYMin meet">
 <g id="arrow_out" transform="scale(0.3 0.3)">
  <a xlink:href="classfr_1_1softsf_1_1canscan_1_1_can_scan_a17b0a72ab305f98f86591411b6a352f2_cgraph_org.svg" target="_base">
   <rect id="button" ry="5" rx="5" y="6" x="6" height="38" width="38"
        fill="#f2f5e9" fill-opacity="0.5" stroke="#606060" stroke-width="1.0"/>
   <path id="arrow"
     d="M 11.500037,31.436501 C 11.940474,20.09759 22.043105,11.32322 32.158766,21.979434 L 37.068811,17.246167 C 37.068811,17.246167 37.088388,32 37.088388,32 L 22.160133,31.978069 C 22.160133,31.978069 26.997745,27.140456 26.997745,27.140456 C 18.528582,18.264221 13.291696,25.230495 11.500037,31.436501 z"
     style="fill:#404040;"/>
  </a>
 </g>
</svg>

<style type='text/css'>
<![CDATA[
[data-mouse-over-selected='false'] { opacity: 0.7; }
[data-mouse-over-selected='true']  { opacity: 1.0; }
]]>
</style>
</svg>
