<?xml version="1.0" encoding="UTF-8" standalone="no"?>
<!DOCTYPE svg PUBLIC "-//W3C//DTD SVG 1.1//EN"
 "http://www.w3.org/Graphics/SVG/1.1/DTD/svg11.dtd">
<!-- Generated by graphviz version 12.2.1 (20241206.2353)
 -->
<!-- Title: fr.softsf.canscan.CanScan.getManifestKeys Pages: 1 -->
<svg width="1394pt" height="507pt"
 viewBox="0.00 0.00 1393.50 507.00" xmlns="http://www.w3.org/2000/svg" xmlns:xlink="http://www.w3.org/1999/xlink">
<g id="graph0" class="graph" transform="scale(1 1) rotate(0) translate(4 503)">
<title>fr.softsf.canscan.CanScan.getManifestKeys</title>
<!-- Node1 -->
<g id="Node000001" class="node">
<title>Node1</title>
<g id="a_Node000001"><a xlink:title="Loads application metadata from the version.properties file.">
<polygon fill="#999999" stroke="#666666" points="149.5,-342 0,-342 0,-310 149.5,-310 149.5,-342"/>
<text text-anchor="start" x="8" y="-328.5" font-family="Helvetica,sans-Serif" font-size="10.00">fr.softsf.canscan.CanScan.get</text>
<text text-anchor="middle" x="74.75" y="-316.5" font-family="Helvetica,sans-Serif" font-size="10.00">ManifestKeys</text>
</a>
</g>
</g>
<!-- Node2 -->
<g id="Node000002" class="node">
<title>Node2</title>
<g id="a_Node000002"><a xlink:href="classfr_1_1softsf_1_1canscan_1_1_can_scan.html#a102bcbc6cda608b642e870ba3fde6344" target="_top" xlink:title="Initializes the CanScan GUI.">
<polygon fill="white" stroke="#666666" points="321.5,-311 185.5,-311 185.5,-279 321.5,-279 321.5,-311"/>
<text text-anchor="start" x="193.5" y="-297.5" font-family="Helvetica,sans-Serif" font-size="10.00">fr.softsf.canscan.CanScan.</text>
<text text-anchor="middle" x="253.5" y="-285.5" font-family="Helvetica,sans-Serif" font-size="10.00">CanScan</text>
</a>
</g>
</g>
<!-- Node1&#45;&gt;Node2 -->
<g id="edge1_Node000001_Node000002" class="edge">
<title>Node1&#45;&gt;Node2</title>
<g id="a_edge1_Node000001_Node000002"><a xlink:title=" ">
<path fill="none" stroke="#63b8ff" d="M149.94,-312.99C157.9,-311.59 166.02,-310.17 174.03,-308.76"/>
<polygon fill="#63b8ff" stroke="#63b8ff" points="174.52,-312.23 183.76,-307.06 173.31,-305.34 174.52,-312.23"/>
</a>
</g>
</g>
<!-- Node2&#45;&gt;Node2 -->
<g id="edge2_Node000002_Node000002" class="edge">
<title>Node2&#45;&gt;Node2</title>
<g id="a_edge2_Node000002_Node000002"><a xlink:title=" ">
<path fill="none" stroke="#63b8ff" d="M221.59,-311.44C215.63,-320.58 226.27,-329 253.5,-329 268.39,-329 278.32,-326.48 283.29,-322.71"/>
<polygon fill="#63b8ff" stroke="#63b8ff" points="286.72,-323.41 285.13,-312.93 279.84,-322.11 286.72,-323.41"/>
</a>
</g>
</g>
<!-- Node3 -->
<g id="Node000003" class="node">
<title>Node3</title>
<g id="a_Node000003"><a xlink:href="classfr_1_1softsf_1_1canscan_1_1_can_scan.html#a2732ecdc4490a717352975e68fce494c" target="_top" xlink:title="Adds a labeled component row to a panel using GridBagLayout.">
<polygon fill="white" stroke="#666666" points="754,-405 582,-405 582,-385 754,-385 754,-405"/>
<text text-anchor="middle" x="668" y="-391.5" font-family="Helvetica,sans-Serif" font-size="10.00">fr.softsf.canscan.CanScan.addRow</text>
</a>
</g>
</g>
<!-- Node2&#45;&gt;Node3 -->
<g id="edge3_Node000002_Node000003" class="edge">
<title>Node2&#45;&gt;Node3</title>
<g id="a_edge3_Node000002_Node000003"><a xlink:title=" ">
<path fill="none" stroke="#63b8ff" d="M261.87,-311.1C275.85,-339.39 309.18,-397.2 357.5,-420 448.15,-462.76 570.38,-430.22 630.5,-409.21"/>
<polygon fill="#63b8ff" stroke="#63b8ff" points="631.34,-412.63 639.56,-405.95 628.97,-406.04 631.34,-412.63"/>
</a>
</g>
</g>
<!-- Node4 -->
<g id="Node000004" class="node">
<title>Node4</title>
<g id="a_Node000004"><a xlink:href="classfr_1_1softsf_1_1canscan_1_1_can_scan.html#ad77dc63cc1aac70e3833d39005d42f25" target="_top" xlink:title="Constructs the application window title using metadata from the version properties.">
<polygon fill="white" stroke="#666666" points="529.88,-499 373.62,-499 373.62,-467 529.88,-467 529.88,-499"/>
<text text-anchor="start" x="381.62" y="-485.5" font-family="Helvetica,sans-Serif" font-size="10.00">fr.softsf.canscan.CanScan.build</text>
<text text-anchor="middle" x="451.75" y="-473.5" font-family="Helvetica,sans-Serif" font-size="10.00">Title</text>
</a>
</g>
</g>
<!-- Node2&#45;&gt;Node4 -->
<g id="edge4_Node000002_Node000004" class="edge">
<title>Node2&#45;&gt;Node4</title>
<g id="a_edge4_Node000002_Node000004"><a xlink:title=" ">
<path fill="none" stroke="#63b8ff" d="M264.39,-311.5C287.55,-349.93 344.33,-442.94 357.5,-453 361.75,-456.25 366.37,-459.15 371.2,-461.74"/>
<polygon fill="#63b8ff" stroke="#63b8ff" points="369.46,-464.79 379.99,-465.99 372.5,-458.49 369.46,-464.79"/>
</a>
</g>
</g>
<!-- Node5 -->
<g id="Node000005" class="node">
<title>Node5</title>
<g id="a_Node000005"><a xlink:href="classfr_1_1softsf_1_1canscan_1_1_can_scan.html#a209f22e1225dc963a2f7bde026af1bf9" target="_top" xlink:title="Opens a color chooser dialog and updates the selected color.">
<polygon fill="white" stroke="#666666" points="535.5,-223 368,-223 368,-191 535.5,-191 535.5,-223"/>
<text text-anchor="start" x="376" y="-209.5" font-family="Helvetica,sans-Serif" font-size="10.00">fr.softsf.canscan.CanScan.choose</text>
<text text-anchor="middle" x="451.75" y="-197.5" font-family="Helvetica,sans-Serif" font-size="10.00">Color</text>
</a>
</g>
</g>
<!-- Node2&#45;&gt;Node5 -->
<g id="edge6_Node000002_Node000005" class="edge">
<title>Node2&#45;&gt;Node5</title>
<g id="a_edge6_Node000002_Node000005"><a xlink:title=" ">
<path fill="none" stroke="#63b8ff" d="M280,-278.72C300.4,-266.18 330.05,-249 357.5,-237 365.5,-233.5 374.04,-230.2 382.58,-227.16"/>
<polygon fill="#63b8ff" stroke="#63b8ff" points="383.61,-230.51 391.93,-223.94 381.34,-223.89 383.61,-230.51"/>
</a>
</g>
</g>
<!-- Node9 -->
<g id="Node000009" class="node">
<title>Node9</title>
<g id="a_Node000009"><a xlink:href="classfr_1_1softsf_1_1canscan_1_1_can_scan.html#aa401982a8aebc5d658e96917e4296d8a" target="_top" xlink:title="Creates a square icon filled with the specified color and a visible border.">
<polygon fill="white" stroke="#666666" points="749.5,-279 586.5,-279 586.5,-247 749.5,-247 749.5,-279"/>
<text text-anchor="start" x="594.5" y="-265.5" font-family="Helvetica,sans-Serif" font-size="10.00">fr.softsf.canscan.CanScan.create</text>
<text text-anchor="middle" x="668" y="-253.5" font-family="Helvetica,sans-Serif" font-size="10.00">ColorIcon</text>
</a>
</g>
</g>
<!-- Node2&#45;&gt;Node9 -->
<g id="edge19_Node000002_Node000009" class="edge">
<title>Node2&#45;&gt;Node9</title>
<g id="a_edge19_Node000002_Node000009"><a xlink:title=" ">
<path fill="none" stroke="#63b8ff" d="M312.91,-278.51C327.37,-275.07 342.9,-271.91 357.5,-270 430.12,-260.48 513.12,-259.11 574.88,-259.91"/>
<polygon fill="#63b8ff" stroke="#63b8ff" points="574.59,-263.41 584.64,-260.06 574.7,-256.41 574.59,-263.41"/>
</a>
</g>
</g>
<!-- Node13 -->
<g id="Node000013" class="node">
<title>Node13</title>
<g id="a_Node000013"><a xlink:href="classfr_1_1softsf_1_1canscan_1_1_can_scan.html#a2d26dcd1ae708eae46dba8952351aa1a" target="_top" xlink:title="Builds and returns a QrInput object containing all current user inputs and settings.">
<polygon fill="white" stroke="#666666" points="1162.12,-107 1012.62,-107 1012.62,-75 1162.12,-75 1162.12,-107"/>
<text text-anchor="start" x="1020.62" y="-93.5" font-family="Helvetica,sans-Serif" font-size="10.00">fr.softsf.canscan.CanScan.get</text>
<text text-anchor="middle" x="1087.38" y="-81.5" font-family="Helvetica,sans-Serif" font-size="10.00">QrInput</text>
</a>
</g>
</g>
<!-- Node2&#45;&gt;Node13 -->
<g id="edge20_Node000002_Node000013" class="edge">
<title>Node2&#45;&gt;Node13</title>
<g id="a_edge20_Node000002_Node000013"><a xlink:title=" ">
<path fill="none" stroke="#63b8ff" d="M258.03,-278.52C267.2,-239.92 295.46,-143.24 357.5,-94 558.99,65.91 900.09,-26.25 1032.02,-70.99"/>
<polygon fill="#63b8ff" stroke="#63b8ff" points="1030.61,-74.21 1041.21,-74.15 1032.89,-67.59 1030.61,-74.21"/>
</a>
</g>
</g>
<!-- Node18 -->
<g id="Node000018" class="node">
<title>Node18</title>
<g id="a_Node000018"><a xlink:href="classfr_1_1softsf_1_1canscan_1_1_can_scan.html#addd7b7d7f9cc810756dbbb66218414d4" target="_top" xlink:title="Initializes the FREE mode input panel with a multiline text area for arbitrary text or URLs.">
<polygon fill="white" stroke="#666666" points="526.12,-411 377.38,-411 377.38,-379 526.12,-379 526.12,-411"/>
<text text-anchor="start" x="385.38" y="-397.5" font-family="Helvetica,sans-Serif" font-size="10.00">fr.softsf.canscan.CanScan.init</text>
<text text-anchor="middle" x="451.75" y="-385.5" font-family="Helvetica,sans-Serif" font-size="10.00">FreeCard</text>
</a>
</g>
</g>
<!-- Node2&#45;&gt;Node18 -->
<g id="edge21_Node000002_Node000018" class="edge">
<title>Node2&#45;&gt;Node18</title>
<g id="a_edge21_Node000002_Node000018"><a xlink:title=" ">
<path fill="none" stroke="#63b8ff" d="M272.52,-311.35C292.1,-328.3 324.97,-354.46 357.5,-370 360.83,-371.59 364.27,-373.09 367.79,-374.51"/>
<polygon fill="#63b8ff" stroke="#63b8ff" points="366.5,-377.76 377.09,-377.97 368.94,-371.2 366.5,-377.76"/>
</a>
</g>
</g>
<!-- Node19 -->
<g id="Node000019" class="node">
<title>Node19</title>
<g id="a_Node000019"><a xlink:href="classfr_1_1softsf_1_1canscan_1_1_can_scan.html#a4047170747f52f54ee69ddbc834c5373" target="_top" xlink:title="Sets up automatic QR code preview updates for all input fields and controls.">
<polygon fill="white" stroke="#666666" points="537.38,-135 366.12,-135 366.12,-103 537.38,-103 537.38,-135"/>
<text text-anchor="start" x="374.12" y="-121.5" font-family="Helvetica,sans-Serif" font-size="10.00">fr.softsf.canscan.CanScan.initialize</text>
<text text-anchor="middle" x="451.75" y="-109.5" font-family="Helvetica,sans-Serif" font-size="10.00">AutomaticQRCodeRendering</text>
</a>
</g>
</g>
<!-- Node2&#45;&gt;Node19 -->
<g id="edge23_Node000002_Node000019" class="edge">
<title>Node2&#45;&gt;Node19</title>
<g id="a_edge23_Node000002_Node000019"><a xlink:title=" ">
<path fill="none" stroke="#63b8ff" d="M261.07,-278.51C274.37,-247.27 307.55,-179.44 357.5,-144 359.1,-142.87 360.74,-141.78 362.43,-140.75"/>
<polygon fill="#63b8ff" stroke="#63b8ff" points="363.99,-143.88 371.15,-136.07 360.68,-137.72 363.99,-143.88"/>
</a>
</g>
</g>
<!-- Node21 -->
<g id="Node000021" class="node">
<title>Node21</title>
<g id="a_Node000021"><a xlink:href="classfr_1_1softsf_1_1canscan_1_1_can_scan.html#ab78c47588f2cb82b4395a1268b3c4ca4" target="_top" xlink:title="Initializes the MECARD input panel with labeled text fields for structured contact information.">
<polygon fill="white" stroke="#666666" points="526.12,-311 377.38,-311 377.38,-279 526.12,-279 526.12,-311"/>
<text text-anchor="start" x="385.38" y="-297.5" font-family="Helvetica,sans-Serif" font-size="10.00">fr.softsf.canscan.CanScan.init</text>
<text text-anchor="middle" x="451.75" y="-285.5" font-family="Helvetica,sans-Serif" font-size="10.00">Mecard</text>
</a>
</g>
</g>
<!-- Node2&#45;&gt;Node21 -->
<g id="edge26_Node000002_Node000021" class="edge">
<title>Node2&#45;&gt;Node21</title>
<g id="a_edge26_Node000002_Node000021"><a xlink:title=" ">
<path fill="none" stroke="#63b8ff" d="M321.76,-295C336,-295 351.2,-295 365.99,-295"/>
<polygon fill="#63b8ff" stroke="#63b8ff" points="365.68,-298.5 375.68,-295 365.68,-291.5 365.68,-298.5"/>
</a>
</g>
</g>
<!-- Node22 -->
<g id="Node000022" class="node">
<title>Node22</title>
<g id="a_Node000022"><a xlink:href="classfr_1_1softsf_1_1canscan_1_1_can_scan.html#abbe4fb71ad979d6affed0b2c9629b832" target="_top" xlink:title="Updates the tooltip of the ratio slider to reflect its current value as a percentage.">
<polygon fill="white" stroke="#666666" points="526.5,-361 377,-361 377,-329 526.5,-329 526.5,-361"/>
<text text-anchor="start" x="385" y="-347.5" font-family="Helvetica,sans-Serif" font-size="10.00">fr.softsf.canscan.CanScan.set</text>
<text text-anchor="middle" x="451.75" y="-335.5" font-family="Helvetica,sans-Serif" font-size="10.00">RatioSliderTooltipValue</text>
</a>
</g>
</g>
<!-- Node2&#45;&gt;Node22 -->
<g id="edge28_Node000002_Node000022" class="edge">
<title>Node2&#45;&gt;Node22</title>
<g id="a_edge28_Node000002_Node000022"><a xlink:title=" ">
<path fill="none" stroke="#63b8ff" d="M319.03,-311.44C336.97,-316.01 356.61,-321.02 375.13,-325.73"/>
<polygon fill="#63b8ff" stroke="#63b8ff" points="374.16,-329.1 384.71,-328.18 375.89,-322.31 374.16,-329.1"/>
</a>
</g>
</g>
<!-- Node23 -->
<g id="Node000023" class="node">
<title>Node23</title>
<g id="a_Node000023"><a xlink:href="classfr_1_1softsf_1_1canscan_1_1_can_scan.html#a428c742b098fa27d4c8984c1030c238d" target="_top" xlink:title="Switches the application between MECARD and FREE QR code modes.">
<polygon fill="white" stroke="#666666" points="546,-173 357.5,-173 357.5,-153 546,-153 546,-173"/>
<text text-anchor="middle" x="451.75" y="-159.5" font-family="Helvetica,sans-Serif" font-size="10.00">fr.softsf.canscan.CanScan.switchMode</text>
</a>
</g>
</g>
<!-- Node2&#45;&gt;Node23 -->
<g id="edge29_Node000002_Node000023" class="edge">
<title>Node2&#45;&gt;Node23</title>
<g id="a_edge29_Node000002_Node000023"><a xlink:title=" ">
<path fill="none" stroke="#63b8ff" d="M264.54,-278.53C280.77,-253.42 315.26,-205.98 357.5,-182 360.33,-180.39 363.27,-178.92 366.3,-177.58"/>
<polygon fill="#63b8ff" stroke="#63b8ff" points="367.41,-180.9 375.45,-174 364.86,-174.38 367.41,-180.9"/>
</a>
</g>
</g>
<!-- Node4&#45;&gt;Node1 -->
<g id="edge5_Node000004_Node000001" class="edge">
<title>Node4&#45;&gt;Node1</title>
<g id="a_edge5_Node000004_Node000001"><a xlink:title=" ">
<path fill="none" stroke="#63b8ff" d="M411.73,-466.69C395.03,-459.7 375.31,-451.45 357.5,-444 276.15,-409.96 181.61,-370.35 125.34,-346.78"/>
<polygon fill="#63b8ff" stroke="#63b8ff" points="126.92,-343.64 116.34,-343.01 124.21,-350.1 126.92,-343.64"/>
</a>
</g>
</g>
<!-- Node6 -->
<g id="Node000006" class="node">
<title>Node6</title>
<g id="a_Node000006"><a xlink:href="classfr_1_1softsf_1_1canscan_1_1_can_scan.html#a224c283143d84ebcfbce9d0058bd93aa" target="_top" xlink:title="Converts a Color object to its hexadecimal RGB string representation.">
<polygon fill="white" stroke="#666666" points="746.5,-229 589.5,-229 589.5,-197 746.5,-197 746.5,-229"/>
<text text-anchor="start" x="597.5" y="-215.5" font-family="Helvetica,sans-Serif" font-size="10.00">fr.softsf.canscan.CanScan.color</text>
<text text-anchor="middle" x="668" y="-203.5" font-family="Helvetica,sans-Serif" font-size="10.00">ToHex</text>
</a>
</g>
</g>
<!-- Node5&#45;&gt;Node6 -->
<g id="edge7_Node000005_Node000006" class="edge">
<title>Node5&#45;&gt;Node6</title>
<g id="a_edge7_Node000005_Node000006"><a xlink:title=" ">
<path fill="none" stroke="#63b8ff" d="M535.89,-209.33C549.58,-209.71 563.83,-210.11 577.66,-210.5"/>
<polygon fill="#63b8ff" stroke="#63b8ff" points="577.56,-214 587.66,-210.78 577.76,-207 577.56,-214"/>
</a>
</g>
</g>
<!-- Node5&#45;&gt;Node9 -->
<g id="edge10_Node000005_Node000009" class="edge">
<title>Node5&#45;&gt;Node9</title>
<g id="a_edge10_Node000005_Node000009"><a xlink:title=" ">
<path fill="none" stroke="#63b8ff" d="M515.87,-223.5C540.07,-229.82 567.88,-237.09 593,-243.66"/>
<polygon fill="#63b8ff" stroke="#63b8ff" points="591.93,-247 602.49,-246.14 593.7,-240.22 591.93,-247"/>
</a>
</g>
</g>
<!-- Node10 -->
<g id="Node000010" class="node">
<title>Node10</title>
<g id="a_Node000010"><a xlink:href="classfr_1_1softsf_1_1canscan_1_1_can_scan.html#a9ac2e28615c970404a4408245e62a6fc" target="_top" xlink:title="Schedules a debounced QR code preview update based on the current input and settings.">
<polygon fill="white" stroke="#666666" points="750.62,-179 585.38,-179 585.38,-147 750.62,-147 750.62,-179"/>
<text text-anchor="start" x="593.38" y="-165.5" font-family="Helvetica,sans-Serif" font-size="10.00">fr.softsf.canscan.CanScan.update</text>
<text text-anchor="middle" x="668" y="-153.5" font-family="Helvetica,sans-Serif" font-size="10.00">PreviewQRCode</text>
</a>
</g>
</g>
<!-- Node5&#45;&gt;Node10 -->
<g id="edge11_Node000005_Node000010" class="edge">
<title>Node5&#45;&gt;Node10</title>
<g id="a_edge11_Node000005_Node000010"><a xlink:title=" ">
<path fill="none" stroke="#63b8ff" d="M532.83,-190.55C546.71,-187.7 561.24,-184.72 575.4,-181.81"/>
<polygon fill="#63b8ff" stroke="#63b8ff" points="576.08,-185.24 585.17,-179.8 574.67,-178.39 576.08,-185.24"/>
</a>
</g>
</g>
<!-- Node7 -->
<g id="Node000007" class="node">
<title>Node7</title>
<g id="a_Node000007"><a xlink:href="enumfr_1_1softsf_1_1canscan_1_1util_1_1_checker.html#a38aa8db97b16480c728481f1835da11f" target="_top" xlink:title="Checks if the given object is null in a static context and displays an error dialog if so.">
<polygon fill="white" stroke="#666666" points="964.25,-229 790,-229 790,-197 964.25,-197 964.25,-229"/>
<text text-anchor="start" x="798" y="-215.5" font-family="Helvetica,sans-Serif" font-size="10.00">fr.softsf.canscan.util.Checker.check</text>
<text text-anchor="middle" x="877.12" y="-203.5" font-family="Helvetica,sans-Serif" font-size="10.00">StaticNPE</text>
</a>
</g>
</g>
<!-- Node6&#45;&gt;Node7 -->
<g id="edge8_Node000006_Node000007" class="edge">
<title>Node6&#45;&gt;Node7</title>
<g id="a_edge8_Node000006_Node000007"><a xlink:title=" ">
<path fill="none" stroke="#63b8ff" d="M746.71,-213C757,-213 767.65,-213 778.22,-213"/>
<polygon fill="#63b8ff" stroke="#63b8ff" points="778.12,-216.5 788.12,-213 778.12,-209.5 778.12,-216.5"/>
</a>
</g>
</g>
<!-- Node8 -->
<g id="Node000008" class="node">
<title>Node8</title>
<g id="a_Node000008"><a xlink:href="enumfr_1_1softsf_1_1canscan_1_1util_1_1_checker.html#af3fc9dd2a33f4d12c5db8cf2aeea17d7" target="_top" xlink:title="Validates that the given object is non&#45;null and, if a String, not blank.">
<polygon fill="white" stroke="#666666" points="1174.5,-229 1000.25,-229 1000.25,-197 1174.5,-197 1174.5,-229"/>
<text text-anchor="start" x="1008.25" y="-215.5" font-family="Helvetica,sans-Serif" font-size="10.00">fr.softsf.canscan.util.Checker.check</text>
<text text-anchor="middle" x="1087.38" y="-203.5" font-family="Helvetica,sans-Serif" font-size="10.00">NullOrBlankInternal</text>
</a>
</g>
</g>
<!-- Node7&#45;&gt;Node8 -->
<g id="edge9_Node000007_Node000008" class="edge">
<title>Node7&#45;&gt;Node8</title>
<g id="a_edge9_Node000007_Node000008"><a xlink:title=" ">
<path fill="none" stroke="#63b8ff" d="M964.63,-213C972.53,-213 980.57,-213 988.56,-213"/>
<polygon fill="#63b8ff" stroke="#63b8ff" points="988.29,-216.5 998.29,-213 988.29,-209.5 988.29,-216.5"/>
</a>
</g>
</g>
<!-- Node11 -->
<g id="Node000011" class="node">
<title>Node11</title>
<g id="a_Node000011"><a xlink:href="classfr_1_1softsf_1_1canscan_1_1_can_scan.html#aba5b2671745886284c444b8e3bec80e2" target="_top" xlink:title="Frees the QR code image and its label icon to release memory.">
<polygon fill="white" stroke="#666666" points="953.38,-129 800.88,-129 800.88,-97 953.38,-97 953.38,-129"/>
<text text-anchor="start" x="808.88" y="-115.5" font-family="Helvetica,sans-Serif" font-size="10.00">fr.softsf.canscan.CanScan.free</text>
<text text-anchor="middle" x="877.12" y="-103.5" font-family="Helvetica,sans-Serif" font-size="10.00">QrOriginalAndQrCodeLabel</text>
</a>
</g>
</g>
<!-- Node10&#45;&gt;Node11 -->
<g id="edge12_Node000010_Node000011" class="edge">
<title>Node10&#45;&gt;Node11</title>
<g id="a_edge12_Node000010_Node000011"><a xlink:title=" ">
<path fill="none" stroke="#63b8ff" d="M737.11,-146.56C756.22,-141.95 777.16,-136.89 796.86,-132.13"/>
<polygon fill="#63b8ff" stroke="#63b8ff" points="797.61,-135.56 806.51,-129.81 795.96,-128.75 797.61,-135.56"/>
</a>
</g>
</g>
<!-- Node12 -->
<g id="Node000012" class="node">
<title>Node12</title>
<g id="a_Node000012"><a xlink:href="classfr_1_1softsf_1_1canscan_1_1_can_scan.html#a42d6a5e11bc8f147bed036366316564f" target="_top" xlink:title="Clears the current QR code display and starts a background worker to generate a new preview.">
<polygon fill="white" stroke="#666666" points="956,-179 798.25,-179 798.25,-147 956,-147 956,-179"/>
<text text-anchor="start" x="806.25" y="-165.5" font-family="Helvetica,sans-Serif" font-size="10.00">fr.softsf.canscan.CanScan.reset</text>
<text text-anchor="middle" x="877.12" y="-153.5" font-family="Helvetica,sans-Serif" font-size="10.00">AndStartPreviewWorker</text>
</a>
</g>
</g>
<!-- Node10&#45;&gt;Node12 -->
<g id="edge13_Node000010_Node000012" class="edge">
<title>Node10&#45;&gt;Node12</title>
<g id="a_edge13_Node000010_Node000012"><a xlink:title=" ">
<path fill="none" stroke="#63b8ff" d="M750.86,-163C762.6,-163 774.73,-163 786.61,-163"/>
<polygon fill="#63b8ff" stroke="#63b8ff" points="786.38,-166.5 796.38,-163 786.38,-159.5 786.38,-166.5"/>
</a>
</g>
</g>
<!-- Node12&#45;&gt;Node13 -->
<g id="edge14_Node000012_Node000013" class="edge">
<title>Node12&#45;&gt;Node13</title>
<g id="a_edge14_Node000012_Node000013"><a xlink:title=" ">
<path fill="none" stroke="#63b8ff" d="M937.17,-146.58C946.28,-143.84 955.54,-140.93 964.25,-138 987.92,-130.03 1013.78,-120.24 1035.58,-111.66"/>
<polygon fill="#63b8ff" stroke="#63b8ff" points="1036.84,-114.92 1044.85,-107.98 1034.26,-108.41 1036.84,-114.92"/>
</a>
</g>
</g>
<!-- Node14 -->
<g id="Node000014" class="node">
<title>Node14</title>
<g id="a_Node000014"><a xlink:href="classfr_1_1softsf_1_1canscan_1_1_can_scan.html#a22606ca129489c778fbbe17cb8b70697" target="_top" xlink:title="Calculates the available height for QR code rendering.">
<polygon fill="white" stroke="#666666" points="1385.5,-182 1210.5,-182 1210.5,-150 1385.5,-150 1385.5,-182"/>
<text text-anchor="start" x="1218.5" y="-168.5" font-family="Helvetica,sans-Serif" font-size="10.00">fr.softsf.canscan.CanScan.calculate</text>
<text text-anchor="middle" x="1298" y="-156.5" font-family="Helvetica,sans-Serif" font-size="10.00">AvailableQrHeight</text>
</a>
</g>
</g>
<!-- Node13&#45;&gt;Node14 -->
<g id="edge15_Node000013_Node000014" class="edge">
<title>Node13&#45;&gt;Node14</title>
<g id="a_edge15_Node000013_Node000014"><a xlink:title=" ">
<path fill="none" stroke="#63b8ff" d="M1125.66,-107.48C1149.64,-117.78 1181.61,-130.95 1210.5,-141 1215.58,-142.77 1220.87,-144.52 1226.2,-146.21"/>
<polygon fill="#63b8ff" stroke="#63b8ff" points="1225.14,-149.55 1235.73,-149.17 1227.22,-142.86 1225.14,-149.55"/>
</a>
</g>
</g>
<!-- Node15 -->
<g id="Node000015" class="node">
<title>Node15</title>
<g id="a_Node000015"><a xlink:href="classfr_1_1softsf_1_1canscan_1_1_can_scan.html#a4e67b1b5c764e72414a5c0f387810f5c" target="_top" xlink:title="Validates and returns the current QR code margin from the margin slider.">
<polygon fill="white" stroke="#666666" points="1382.88,-132 1213.12,-132 1213.12,-100 1382.88,-100 1382.88,-132"/>
<text text-anchor="start" x="1221.12" y="-118.5" font-family="Helvetica,sans-Serif" font-size="10.00">fr.softsf.canscan.CanScan.validate</text>
<text text-anchor="middle" x="1298" y="-106.5" font-family="Helvetica,sans-Serif" font-size="10.00">AndGetMargin</text>
</a>
</g>
</g>
<!-- Node13&#45;&gt;Node15 -->
<g id="edge16_Node000013_Node000015" class="edge">
<title>Node13&#45;&gt;Node15</title>
<g id="a_edge16_Node000013_Node000015"><a xlink:title=" ">
<path fill="none" stroke="#63b8ff" d="M1162.52,-99.88C1175.11,-101.39 1188.34,-102.98 1201.39,-104.54"/>
<polygon fill="#63b8ff" stroke="#63b8ff" points="1200.94,-108.01 1211.29,-105.73 1201.77,-101.06 1200.94,-108.01"/>
</a>
</g>
</g>
<!-- Node16 -->
<g id="Node000016" class="node">
<title>Node16</title>
<g id="a_Node000016"><a xlink:href="classfr_1_1softsf_1_1canscan_1_1_can_scan.html#a9e8188875168199cde065113ae2a393d" target="_top" xlink:title="Validates and returns the current image&#45;to&#45;QR ratio from the ratio slider.">
<polygon fill="white" stroke="#666666" points="1382.88,-82 1213.12,-82 1213.12,-50 1382.88,-50 1382.88,-82"/>
<text text-anchor="start" x="1221.12" y="-68.5" font-family="Helvetica,sans-Serif" font-size="10.00">fr.softsf.canscan.CanScan.validate</text>
<text text-anchor="middle" x="1298" y="-56.5" font-family="Helvetica,sans-Serif" font-size="10.00">AndGetRatio</text>
</a>
</g>
</g>
<!-- Node13&#45;&gt;Node16 -->
<g id="edge17_Node000013_Node000016" class="edge">
<title>Node13&#45;&gt;Node16</title>
<g id="a_edge17_Node000013_Node000016"><a xlink:title=" ">
<path fill="none" stroke="#63b8ff" d="M1162.52,-82.12C1175.11,-80.61 1188.34,-79.02 1201.39,-77.46"/>
<polygon fill="#63b8ff" stroke="#63b8ff" points="1201.77,-80.94 1211.29,-76.27 1200.94,-73.99 1201.77,-80.94"/>
</a>
</g>
</g>
<!-- Node17 -->
<g id="Node000017" class="node">
<title>Node17</title>
<g id="a_Node000017"><a xlink:href="classfr_1_1softsf_1_1canscan_1_1_can_scan.html#a6d139bb8d0a3c7081096c8956189b684" target="_top" xlink:title="Validates and returns the QR code size from the corresponding text field.">
<polygon fill="white" stroke="#666666" points="1382.88,-32 1213.12,-32 1213.12,0 1382.88,0 1382.88,-32"/>
<text text-anchor="start" x="1221.12" y="-18.5" font-family="Helvetica,sans-Serif" font-size="10.00">fr.softsf.canscan.CanScan.validate</text>
<text text-anchor="middle" x="1298" y="-6.5" font-family="Helvetica,sans-Serif" font-size="10.00">AndGetSize</text>
</a>
</g>
</g>
<!-- Node13&#45;&gt;Node17 -->
<g id="edge18_Node000013_Node000017" class="edge">
<title>Node13&#45;&gt;Node17</title>
<g id="a_edge18_Node000013_Node000017"><a xlink:title=" ">
<path fill="none" stroke="#63b8ff" d="M1125.66,-74.52C1149.64,-64.22 1181.61,-51.05 1210.5,-41 1215.58,-39.23 1220.87,-37.48 1226.2,-35.79"/>
<polygon fill="#63b8ff" stroke="#63b8ff" points="1227.22,-39.14 1235.73,-32.83 1225.14,-32.45 1227.22,-39.14"/>
</a>
</g>
</g>
<!-- Node18&#45;&gt;Node3 -->
<g id="edge22_Node000018_Node000003" class="edge">
<title>Node18&#45;&gt;Node3</title>
<g id="a_edge22_Node000018_Node000003"><a xlink:title=" ">
<path fill="none" stroke="#63b8ff" d="M526.48,-395C540.66,-395 555.71,-395 570.48,-395"/>
<polygon fill="#63b8ff" stroke="#63b8ff" points="570.2,-398.5 580.2,-395 570.2,-391.5 570.2,-398.5"/>
</a>
</g>
</g>
<!-- Node19&#45;&gt;Node10 -->
<g id="edge25_Node000019_Node000010" class="edge">
<title>Node19&#45;&gt;Node10</title>
<g id="a_edge25_Node000019_Node000010"><a xlink:title=" ">
<path fill="none" stroke="#63b8ff" d="M532.83,-135.45C546.71,-138.3 561.24,-141.28 575.4,-144.19"/>
<polygon fill="#63b8ff" stroke="#63b8ff" points="574.67,-147.61 585.17,-146.2 576.08,-140.76 574.67,-147.61"/>
</a>
</g>
</g>
<!-- Node20 -->
<g id="Node000020" class="node">
<title>Node20</title>
<g id="a_Node000020"><a xlink:href="classfr_1_1softsf_1_1canscan_1_1_can_scan.html#a9856545d05ef553c8dfddd95a850a360" target="_top" xlink:title="Creates a minimal DocumentListener that executes the given action on any document change.">
<polygon fill="white" stroke="#666666" points="750.25,-79 585.75,-79 585.75,-47 750.25,-47 750.25,-79"/>
<text text-anchor="start" x="593.75" y="-65.5" font-family="Helvetica,sans-Serif" font-size="10.00">fr.softsf.canscan.CanScan.simple</text>
<text text-anchor="middle" x="668" y="-53.5" font-family="Helvetica,sans-Serif" font-size="10.00">DocumentListener</text>
</a>
</g>
</g>
<!-- Node19&#45;&gt;Node20 -->
<g id="edge24_Node000019_Node000020" class="edge">
<title>Node19&#45;&gt;Node20</title>
<g id="a_edge24_Node000019_Node000020"><a xlink:title=" ">
<path fill="none" stroke="#63b8ff" d="M515.87,-102.5C540.07,-96.18 567.88,-88.91 593,-82.34"/>
<polygon fill="#63b8ff" stroke="#63b8ff" points="593.7,-85.78 602.49,-79.86 591.93,-79 593.7,-85.78"/>
</a>
</g>
</g>
<!-- Node21&#45;&gt;Node3 -->
<g id="edge27_Node000021_Node000003" class="edge">
<title>Node21&#45;&gt;Node3</title>
<g id="a_edge27_Node000021_Node000003"><a xlink:title=" ">
<path fill="none" stroke="#63b8ff" d="M522.77,-311.36C530.72,-313.93 538.62,-316.8 546,-320 582.32,-335.72 620.54,-361.12 644.08,-377.93"/>
<polygon fill="#63b8ff" stroke="#63b8ff" points="641.85,-380.64 651.99,-383.68 645.96,-374.97 641.85,-380.64"/>
</a>
</g>
</g>
<!-- Node23&#45;&gt;Node10 -->
<g id="edge31_Node000023_Node000010" class="edge">
<title>Node23&#45;&gt;Node10</title>
<g id="a_edge31_Node000023_Node000010"><a xlink:title=" ">
<path fill="none" stroke="#63b8ff" d="M546.41,-163C555.44,-163 564.59,-163 573.62,-163"/>
<polygon fill="#63b8ff" stroke="#63b8ff" points="573.44,-166.5 583.44,-163 573.44,-159.5 573.44,-166.5"/>
</a>
</g>
</g>
<!-- Node24 -->
<g id="Node000024" class="node">
<title>Node24</title>
<g id="a_Node000024"><a xlink:href="enumfr_1_1softsf_1_1canscan_1_1model_1_1_mode.html#a16a898a11ca939056bd7b275f11ea54c" target="_top" xlink:title="Returns the name of the mode as a string.">
<polygon fill="white" stroke="#666666" points="728.88,-129 607.12,-129 607.12,-97 728.88,-97 728.88,-129"/>
<text text-anchor="start" x="615.12" y="-115.5" font-family="Helvetica,sans-Serif" font-size="10.00">fr.softsf.canscan.model.</text>
<text text-anchor="middle" x="668" y="-103.5" font-family="Helvetica,sans-Serif" font-size="10.00">Mode.text</text>
</a>
</g>
</g>
<!-- Node23&#45;&gt;Node24 -->
<g id="edge30_Node000023_Node000024" class="edge">
<title>Node23&#45;&gt;Node24</title>
<g id="a_edge30_Node000023_Node000024"><a xlink:title=" ">
<path fill="none" stroke="#63b8ff" d="M506.6,-152.5C519.53,-149.85 533.28,-146.92 546,-144 562.14,-140.29 579.42,-136.03 595.72,-131.89"/>
<polygon fill="#63b8ff" stroke="#63b8ff" points="596.54,-135.29 605.36,-129.42 594.81,-128.51 596.54,-135.29"/>
</a>
</g>
</g>
</g>
</svg>
