<?xml version="1.0" encoding="UTF-8" standalone="no"?>
<!DOCTYPE svg PUBLIC "-//W3C//DTD SVG 1.1//EN"
 "http://www.w3.org/Graphics/SVG/1.1/DTD/svg11.dtd">
<!-- Generated by graphviz version 12.2.1 (20241206.2353)
 -->
<!-- Title: fr.softsf.canscan.CanScan.main Pages: 1 -->
<svg width="1416pt" height="500pt"
 viewBox="0.00 0.00 1416.00 500.00" xmlns="http://www.w3.org/2000/svg" xmlns:xlink="http://www.w3.org/1999/xlink">
<g id="graph0" class="graph" transform="scale(1 1) rotate(0) translate(4 496)">
<title>fr.softsf.canscan.CanScan.main</title>
<!-- Node1 -->
<g id="Node000001" class="node">
<title>Node1</title>
<g id="a_Node000001"><a xlink:title="Application entry point.">
<polygon fill="#999999" stroke="#666666" points="157,-173 0,-173 0,-153 157,-153 157,-173"/>
<text text-anchor="middle" x="78.5" y="-159.5" font-family="Helvetica,sans-Serif" font-size="10.00">fr.softsf.canscan.CanScan.main</text>
</a>
</g>
</g>
<!-- Node2 -->
<g id="Node000002" class="node">
<title>Node2</title>
<g id="a_Node000002"><a xlink:href="classfr_1_1softsf_1_1canscan_1_1_can_scan.html#a102bcbc6cda608b642e870ba3fde6344" target="_top" xlink:title="Constructs the CanScan GUI, setting up layout, panels, inputs, and QR preview.">
<polygon fill="white" stroke="#666666" points="329,-179 193,-179 193,-147 329,-147 329,-179"/>
<text text-anchor="start" x="201" y="-165.5" font-family="Helvetica,sans-Serif" font-size="10.00">fr.softsf.canscan.CanScan.</text>
<text text-anchor="middle" x="261" y="-153.5" font-family="Helvetica,sans-Serif" font-size="10.00">CanScan</text>
</a>
</g>
</g>
<!-- Node1&#45;&gt;Node2 -->
<g id="edge1_Node000001_Node000002" class="edge">
<title>Node1&#45;&gt;Node2</title>
<g id="a_edge1_Node000001_Node000002"><a xlink:title=" ">
<path fill="none" stroke="#63b8ff" d="M157.36,-163C165.24,-163 173.26,-163 181.15,-163"/>
<polygon fill="#63b8ff" stroke="#63b8ff" points="181.09,-166.5 191.09,-163 181.09,-159.5 181.09,-166.5"/>
</a>
</g>
</g>
<!-- Node3 -->
<g id="Node000003" class="node">
<title>Node3</title>
<g id="a_Node000003"><a xlink:href="classfr_1_1softsf_1_1canscan_1_1_can_scan.html#a070115929fdc69b249d21866a00a47cc" target="_top" xlink:title="Assigns stable component names for testing and native&#45;image configuration.">
<polygon fill="white" stroke="#666666" points="536.25,-292 365,-292 365,-260 536.25,-260 536.25,-292"/>
<text text-anchor="start" x="373" y="-278.5" font-family="Helvetica,sans-Serif" font-size="10.00">fr.softsf.canscan.CanScan.initialize</text>
<text text-anchor="middle" x="450.62" y="-266.5" font-family="Helvetica,sans-Serif" font-size="10.00">ComponentNames</text>
</a>
</g>
</g>
<!-- Node2&#45;&gt;Node3 -->
<g id="edge2_Node000002_Node000003" class="edge">
<title>Node2&#45;&gt;Node3</title>
<g id="a_edge2_Node000002_Node000003"><a xlink:title=" ">
<path fill="none" stroke="#63b8ff" d="M278.55,-179.34C297.89,-197.67 331.52,-227.29 365,-246 371.07,-249.39 377.6,-252.51 384.24,-255.36"/>
<polygon fill="#63b8ff" stroke="#63b8ff" points="382.73,-258.52 393.31,-259.02 385.35,-252.03 382.73,-258.52"/>
</a>
</g>
</g>
<!-- Node4 -->
<g id="Node000004" class="node">
<title>Node4</title>
<g id="a_Node000004"><a xlink:href="classfr_1_1softsf_1_1canscan_1_1_can_scan.html#a14263ca931024d56cd9bed4af4b74c25" target="_top" xlink:title="Builds the main panel with header, QR preview overlay, and bottom spacer.">
<polygon fill="white" stroke="#666666" points="743.5,-417 572.25,-417 572.25,-385 743.5,-385 743.5,-417"/>
<text text-anchor="start" x="580.25" y="-403.5" font-family="Helvetica,sans-Serif" font-size="10.00">fr.softsf.canscan.CanScan.initialize</text>
<text text-anchor="middle" x="657.88" y="-391.5" font-family="Helvetica,sans-Serif" font-size="10.00">MainPanel</text>
</a>
</g>
</g>
<!-- Node2&#45;&gt;Node4 -->
<g id="edge3_Node000002_Node000004" class="edge">
<title>Node2&#45;&gt;Node4</title>
<g id="a_edge3_Node000002_Node000004"><a xlink:title=" ">
<path fill="none" stroke="#63b8ff" d="M290.97,-179.33C311.19,-190.15 339.1,-203.98 365,-213 438.62,-238.64 476.44,-200.99 536.25,-251 568.04,-277.58 546.85,-304.26 572.25,-337 584.78,-353.15 602.35,-367.32 618.23,-378.2"/>
<polygon fill="#63b8ff" stroke="#63b8ff" points="616.31,-381.12 626.58,-383.7 620.16,-375.28 616.31,-381.12"/>
</a>
</g>
</g>
<!-- Node14 -->
<g id="Node000014" class="node">
<title>Node14</title>
<g id="a_Node000014"><a xlink:href="classfr_1_1softsf_1_1canscan_1_1_can_scan.html#afb8d451dc5d6d9c7b6700e4b688c98a3" target="_top" xlink:title="Builds the north panel with mode selection, card panels, common fields, and generate button.">
<polygon fill="white" stroke="#666666" points="536.25,-204 365,-204 365,-172 536.25,-172 536.25,-204"/>
<text text-anchor="start" x="373" y="-190.5" font-family="Helvetica,sans-Serif" font-size="10.00">fr.softsf.canscan.CanScan.initialize</text>
<text text-anchor="middle" x="450.62" y="-178.5" font-family="Helvetica,sans-Serif" font-size="10.00">NorthPanel</text>
</a>
</g>
</g>
<!-- Node2&#45;&gt;Node14 -->
<g id="edge15_Node000002_Node000014" class="edge">
<title>Node2&#45;&gt;Node14</title>
<g id="a_edge15_Node000002_Node000014"><a xlink:title=" ">
<path fill="none" stroke="#63b8ff" d="M329.47,-171.99C337.26,-173.03 345.3,-174.1 353.37,-175.17"/>
<polygon fill="#63b8ff" stroke="#63b8ff" points="352.9,-178.64 363.27,-176.49 353.82,-171.7 352.9,-178.64"/>
</a>
</g>
</g>
<!-- Node31 -->
<g id="Node000031" class="node">
<title>Node31</title>
<g id="a_Node000031"><a xlink:href="classfr_1_1softsf_1_1canscan_1_1_can_scan.html#a4928478365bc812571ac037662cc5f6b" target="_top" xlink:title="Wraps the main panel in a scrollable container.">
<polygon fill="white" stroke="#666666" points="536.25,-154 365,-154 365,-122 536.25,-122 536.25,-154"/>
<text text-anchor="start" x="373" y="-140.5" font-family="Helvetica,sans-Serif" font-size="10.00">fr.softsf.canscan.CanScan.initialize</text>
<text text-anchor="middle" x="450.62" y="-128.5" font-family="Helvetica,sans-Serif" font-size="10.00">ScrollPane</text>
</a>
</g>
</g>
<!-- Node2&#45;&gt;Node31 -->
<g id="edge34_Node000002_Node000031" class="edge">
<title>Node2&#45;&gt;Node31</title>
<g id="a_edge34_Node000002_Node000031"><a xlink:title=" ">
<path fill="none" stroke="#63b8ff" d="M329.47,-154.01C337.26,-152.97 345.3,-151.9 353.37,-150.83"/>
<polygon fill="#63b8ff" stroke="#63b8ff" points="353.82,-154.3 363.27,-149.51 352.9,-147.36 353.82,-154.3"/>
</a>
</g>
</g>
<!-- Node32 -->
<g id="Node000032" class="node">
<title>Node32</title>
<g id="a_Node000032"><a xlink:href="classfr_1_1softsf_1_1canscan_1_1_can_scan.html#a358629f85831dc6cd4978c8854d88561" target="_top" xlink:title="Configures sliders for logo margin and ratio.">
<polygon fill="white" stroke="#666666" points="536.25,-104 365,-104 365,-72 536.25,-72 536.25,-104"/>
<text text-anchor="start" x="373" y="-90.5" font-family="Helvetica,sans-Serif" font-size="10.00">fr.softsf.canscan.CanScan.initialize</text>
<text text-anchor="middle" x="450.62" y="-78.5" font-family="Helvetica,sans-Serif" font-size="10.00">Sliders</text>
</a>
</g>
</g>
<!-- Node2&#45;&gt;Node32 -->
<g id="edge35_Node000002_Node000032" class="edge">
<title>Node2&#45;&gt;Node32</title>
<g id="a_edge35_Node000002_Node000032"><a xlink:title=" ">
<path fill="none" stroke="#63b8ff" d="M292.51,-146.55C312.7,-136.07 339.98,-122.69 365,-113 369.42,-111.29 374.01,-109.62 378.66,-108.02"/>
<polygon fill="#63b8ff" stroke="#63b8ff" points="379.74,-111.35 388.13,-104.88 377.54,-104.71 379.74,-111.35"/>
</a>
</g>
</g>
<!-- Node33 -->
<g id="Node000033" class="node">
<title>Node33</title>
<g id="a_Node000033"><a xlink:href="classfr_1_1softsf_1_1canscan_1_1_can_scan.html#a0a52159db640660477196e337ec62a9b" target="_top" xlink:title="Finalizes window layout: packs components, adjusts size for QR display and loader,...">
<polygon fill="white" stroke="#666666" points="536.25,-43 365,-43 365,-11 536.25,-11 536.25,-43"/>
<text text-anchor="start" x="373" y="-29.5" font-family="Helvetica,sans-Serif" font-size="10.00">fr.softsf.canscan.CanScan.initialize</text>
<text text-anchor="middle" x="450.62" y="-17.5" font-family="Helvetica,sans-Serif" font-size="10.00">Window</text>
</a>
</g>
</g>
<!-- Node2&#45;&gt;Node33 -->
<g id="edge36_Node000002_Node000033" class="edge">
<title>Node2&#45;&gt;Node33</title>
<g id="a_edge36_Node000002_Node000033"><a xlink:title=" ">
<path fill="none" stroke="#63b8ff" d="M275.5,-146.55C293.88,-125 328.67,-87.14 365,-63 373.31,-57.48 382.6,-52.51 391.91,-48.15"/>
<polygon fill="#63b8ff" stroke="#63b8ff" points="393.27,-51.37 400.98,-44.11 390.42,-44.98 393.27,-51.37"/>
</a>
</g>
</g>
<!-- Node5 -->
<g id="Node000005" class="node">
<title>Node5</title>
<g id="a_Node000005"><a xlink:href="classfr_1_1softsf_1_1canscan_1_1_can_scan.html#ad470e3c0750cf142dc611b1aeeda3a97" target="_top" xlink:title="Attaches automatic QR preview updates and input validation to all fields and controls.">
<polygon fill="white" stroke="#666666" points="972.5,-461 779.5,-461 779.5,-429 972.5,-429 972.5,-461"/>
<text text-anchor="start" x="787.5" y="-447.5" font-family="Helvetica,sans-Serif" font-size="10.00">fr.softsf.canscan.CanScan.automatic</text>
<text text-anchor="middle" x="876" y="-435.5" font-family="Helvetica,sans-Serif" font-size="10.00">QRCodeRenderingForFieldsAndControls</text>
</a>
</g>
</g>
<!-- Node4&#45;&gt;Node5 -->
<g id="edge4_Node000004_Node000005" class="edge">
<title>Node4&#45;&gt;Node5</title>
<g id="a_edge4_Node000004_Node000005"><a xlink:title=" ">
<path fill="none" stroke="#63b8ff" d="M739.66,-417.45C753.8,-420.33 768.61,-423.34 783.02,-426.27"/>
<polygon fill="#63b8ff" stroke="#63b8ff" points="781.97,-429.63 792.47,-428.2 783.37,-422.77 781.97,-429.63"/>
</a>
</g>
</g>
<!-- Node8 -->
<g id="Node000008" class="node">
<title>Node8</title>
<g id="a_Node000008"><a xlink:href="classfr_1_1softsf_1_1canscan_1_1_can_scan.html#a180290bc488e2346592ded98ccc4b1f3" target="_top" xlink:title="Collects current input and visual settings into a WholeFields for QR code generation.">
<polygon fill="white" stroke="#666666" points="1173.38,-215 1023.88,-215 1023.88,-183 1173.38,-183 1173.38,-215"/>
<text text-anchor="start" x="1031.88" y="-201.5" font-family="Helvetica,sans-Serif" font-size="10.00">fr.softsf.canscan.CanScan.get</text>
<text text-anchor="middle" x="1098.62" y="-189.5" font-family="Helvetica,sans-Serif" font-size="10.00">QrInput</text>
</a>
</g>
</g>
<!-- Node4&#45;&gt;Node8 -->
<g id="edge14_Node000004_Node000008" class="edge">
<title>Node4&#45;&gt;Node8</title>
<g id="a_edge14_Node000004_Node000008"><a xlink:title=" ">
<path fill="none" stroke="#63b8ff" d="M743.77,-415.18C810.32,-421.94 902.98,-421.41 972.5,-382 1034.01,-347.12 1071.68,-268.05 1088.05,-226.18"/>
<polygon fill="#63b8ff" stroke="#63b8ff" points="1091.31,-227.44 1091.57,-216.84 1084.76,-224.97 1091.31,-227.44"/>
</a>
</g>
</g>
<!-- Node6 -->
<g id="Node000006" class="node">
<title>Node6</title>
<g id="a_Node000006"><a xlink:href="enumfr_1_1softsf_1_1canscan_1_1ui_1_1_ui_components_configuration.html#afe8da76131acc9dd19a15d7f22ca9ef1" target="_top" xlink:title="Attaches a DocumentListener to a JTextField that:">
<polygon fill="white" stroke="#666666" points="1188.75,-492 1008.5,-492 1008.5,-448 1188.75,-448 1188.75,-492"/>
<text text-anchor="start" x="1016.5" y="-478.5" font-family="Helvetica,sans-Serif" font-size="10.00">fr.softsf.canscan.ui.UiComponents</text>
<text text-anchor="start" x="1016.5" y="-466.5" font-family="Helvetica,sans-Serif" font-size="10.00">Configuration.attachLimitedDocument</text>
<text text-anchor="middle" x="1098.62" y="-454.5" font-family="Helvetica,sans-Serif" font-size="10.00">Listener</text>
</a>
</g>
</g>
<!-- Node5&#45;&gt;Node6 -->
<g id="edge5_Node000005_Node000006" class="edge">
<title>Node5&#45;&gt;Node6</title>
<g id="a_edge5_Node000005_Node000006"><a xlink:title=" ">
<path fill="none" stroke="#63b8ff" d="M972.81,-455.86C980.79,-456.76 988.88,-457.68 996.89,-458.59"/>
<polygon fill="#63b8ff" stroke="#63b8ff" points="996.33,-462.04 1006.66,-459.69 997.12,-455.09 996.33,-462.04"/>
</a>
</g>
</g>
<!-- Node7 -->
<g id="Node000007" class="node">
<title>Node7</title>
<g id="a_Node000007"><a xlink:href="enumfr_1_1softsf_1_1canscan_1_1ui_1_1_ui_components_configuration.html#aa700d9f2a270f6e54fcb53111855fa44" target="_top" xlink:title="Creates a simple DocumentListener that executes the given action on any change to the document.">
<polygon fill="white" stroke="#666666" points="1408,-461 1224.75,-461 1224.75,-429 1408,-429 1408,-461"/>
<text text-anchor="start" x="1232.75" y="-447.5" font-family="Helvetica,sans-Serif" font-size="10.00">fr.softsf.canscan.ui.UiComponents</text>
<text text-anchor="middle" x="1316.38" y="-435.5" font-family="Helvetica,sans-Serif" font-size="10.00">Configuration.createDocumentListener</text>
</a>
</g>
</g>
<!-- Node5&#45;&gt;Node7 -->
<g id="edge7_Node000005_Node000007" class="edge">
<title>Node5&#45;&gt;Node7</title>
<g id="a_edge7_Node000005_Node000007"><a xlink:title=" ">
<path fill="none" stroke="#63b8ff" d="M972.86,-440.12C984.86,-439.66 996.96,-439.26 1008.5,-439 1088.59,-437.17 1108.66,-437.1 1188.75,-439 1196.69,-439.19 1204.91,-439.44 1213.17,-439.74"/>
<polygon fill="#63b8ff" stroke="#63b8ff" points="1212.8,-443.23 1222.93,-440.11 1213.07,-436.23 1212.8,-443.23"/>
</a>
</g>
</g>
<!-- Node5&#45;&gt;Node8 -->
<g id="edge8_Node000005_Node000008" class="edge">
<title>Node5&#45;&gt;Node8</title>
<g id="a_edge8_Node000005_Node000008"><a xlink:title=" ">
<path fill="none" stroke="#63b8ff" d="M949.82,-428.54C957.94,-424.88 965.72,-420.43 972.5,-415 1035.99,-364.17 1073.64,-271.79 1089.21,-226.09"/>
<polygon fill="#63b8ff" stroke="#63b8ff" points="1092.49,-227.31 1092.3,-216.71 1085.85,-225.11 1092.49,-227.31"/>
</a>
</g>
</g>
<!-- Node6&#45;&gt;Node7 -->
<g id="edge6_Node000006_Node000007" class="edge">
<title>Node6&#45;&gt;Node7</title>
<g id="a_edge6_Node000006_Node000007"><a xlink:title=" ">
<path fill="none" stroke="#63b8ff" d="M1189.25,-459.61C1197.12,-458.7 1205.12,-457.78 1213.08,-456.85"/>
<polygon fill="#63b8ff" stroke="#63b8ff" points="1213.26,-460.36 1222.79,-455.73 1212.45,-453.4 1213.26,-460.36"/>
</a>
</g>
</g>
<!-- Node9 -->
<g id="Node000009" class="node">
<title>Node9</title>
<g id="a_Node000009"><a xlink:href="classfr_1_1softsf_1_1canscan_1_1_can_scan.html#a381368b99c4a0857c6abe6349b2c6d27" target="_top" xlink:title="Calculates the available height for QR code rendering.">
<polygon fill="white" stroke="#666666" points="1403.88,-43 1228.88,-43 1228.88,-11 1403.88,-11 1403.88,-43"/>
<text text-anchor="start" x="1236.88" y="-29.5" font-family="Helvetica,sans-Serif" font-size="10.00">fr.softsf.canscan.CanScan.calculate</text>
<text text-anchor="middle" x="1316.38" y="-17.5" font-family="Helvetica,sans-Serif" font-size="10.00">AvailableQrCodeLabelHeight</text>
</a>
</g>
</g>
<!-- Node8&#45;&gt;Node9 -->
<g id="edge9_Node000008_Node000009" class="edge">
<title>Node8&#45;&gt;Node9</title>
<g id="a_edge9_Node000008_Node000009"><a xlink:title=" ">
<path fill="none" stroke="#63b8ff" d="M1173.72,-184.54C1179.17,-181.64 1184.28,-178.16 1188.75,-174 1223.33,-141.82 1193.64,-109.55 1224.75,-74 1233.78,-63.68 1245.62,-55.31 1257.76,-48.65"/>
<polygon fill="#63b8ff" stroke="#63b8ff" points="1259.3,-51.8 1266.62,-44.14 1256.12,-45.56 1259.3,-51.8"/>
</a>
</g>
</g>
<!-- Node10 -->
<g id="Node000010" class="node">
<title>Node10</title>
<g id="a_Node000010"><a xlink:href="classfr_1_1softsf_1_1canscan_1_1_can_scan.html#a4e67b1b5c764e72414a5c0f387810f5c" target="_top" xlink:title="Validates and returns the current QR code margin from the margin slider.">
<polygon fill="white" stroke="#666666" points="1401.25,-265 1231.5,-265 1231.5,-233 1401.25,-233 1401.25,-265"/>
<text text-anchor="start" x="1239.5" y="-251.5" font-family="Helvetica,sans-Serif" font-size="10.00">fr.softsf.canscan.CanScan.validate</text>
<text text-anchor="middle" x="1316.38" y="-239.5" font-family="Helvetica,sans-Serif" font-size="10.00">AndGetMargin</text>
</a>
</g>
</g>
<!-- Node8&#45;&gt;Node10 -->
<g id="edge10_Node000008_Node000010" class="edge">
<title>Node8&#45;&gt;Node10</title>
<g id="a_edge10_Node000008_Node000010"><a xlink:title=" ">
<path fill="none" stroke="#63b8ff" d="M1170.57,-215.44C1190.66,-220.1 1212.7,-225.2 1233.38,-230"/>
<polygon fill="#63b8ff" stroke="#63b8ff" points="1232.38,-233.36 1242.91,-232.21 1233.96,-226.54 1232.38,-233.36"/>
</a>
</g>
</g>
<!-- Node11 -->
<g id="Node000011" class="node">
<title>Node11</title>
<g id="a_Node000011"><a xlink:href="classfr_1_1softsf_1_1canscan_1_1_can_scan.html#a8a2b238ac4af96d8710b3e5d7d051f77" target="_top" xlink:title="Validates and returns the current meet UID from the meet title field.">
<polygon fill="white" stroke="#666666" points="1401.25,-215 1231.5,-215 1231.5,-183 1401.25,-183 1401.25,-215"/>
<text text-anchor="start" x="1239.5" y="-201.5" font-family="Helvetica,sans-Serif" font-size="10.00">fr.softsf.canscan.CanScan.validate</text>
<text text-anchor="middle" x="1316.38" y="-189.5" font-family="Helvetica,sans-Serif" font-size="10.00">AndGetMeetUID</text>
</a>
</g>
</g>
<!-- Node8&#45;&gt;Node11 -->
<g id="edge11_Node000008_Node000011" class="edge">
<title>Node8&#45;&gt;Node11</title>
<g id="a_edge11_Node000008_Node000011"><a xlink:title=" ">
<path fill="none" stroke="#63b8ff" d="M1173.87,-199C1188.78,-199 1204.64,-199 1220.15,-199"/>
<polygon fill="#63b8ff" stroke="#63b8ff" points="1219.85,-202.5 1229.85,-199 1219.85,-195.5 1219.85,-202.5"/>
</a>
</g>
</g>
<!-- Node12 -->
<g id="Node000012" class="node">
<title>Node12</title>
<g id="a_Node000012"><a xlink:href="classfr_1_1softsf_1_1canscan_1_1_can_scan.html#a9e8188875168199cde065113ae2a393d" target="_top" xlink:title="Validates and returns the current image&#45;to&#45;QR ratio from the ratio slider.">
<polygon fill="white" stroke="#666666" points="1401.25,-165 1231.5,-165 1231.5,-133 1401.25,-133 1401.25,-165"/>
<text text-anchor="start" x="1239.5" y="-151.5" font-family="Helvetica,sans-Serif" font-size="10.00">fr.softsf.canscan.CanScan.validate</text>
<text text-anchor="middle" x="1316.38" y="-139.5" font-family="Helvetica,sans-Serif" font-size="10.00">AndGetRatio</text>
</a>
</g>
</g>
<!-- Node8&#45;&gt;Node12 -->
<g id="edge12_Node000008_Node000012" class="edge">
<title>Node8&#45;&gt;Node12</title>
<g id="a_edge12_Node000008_Node000012"><a xlink:title=" ">
<path fill="none" stroke="#63b8ff" d="M1170.57,-182.56C1190.66,-177.9 1212.7,-172.8 1233.38,-168"/>
<polygon fill="#63b8ff" stroke="#63b8ff" points="1233.96,-171.46 1242.91,-165.79 1232.38,-164.64 1233.96,-171.46"/>
</a>
</g>
</g>
<!-- Node13 -->
<g id="Node000013" class="node">
<title>Node13</title>
<g id="a_Node000013"><a xlink:href="classfr_1_1softsf_1_1canscan_1_1_can_scan.html#a6d139bb8d0a3c7081096c8956189b684" target="_top" xlink:title="Validates and returns the QR code size from the corresponding text field.">
<polygon fill="white" stroke="#666666" points="1401.25,-315 1231.5,-315 1231.5,-283 1401.25,-283 1401.25,-315"/>
<text text-anchor="start" x="1239.5" y="-301.5" font-family="Helvetica,sans-Serif" font-size="10.00">fr.softsf.canscan.CanScan.validate</text>
<text text-anchor="middle" x="1316.38" y="-289.5" font-family="Helvetica,sans-Serif" font-size="10.00">AndGetSize</text>
</a>
</g>
</g>
<!-- Node8&#45;&gt;Node13 -->
<g id="edge13_Node000008_Node000013" class="edge">
<title>Node8&#45;&gt;Node13</title>
<g id="a_edge13_Node000008_Node000013"><a xlink:title=" ">
<path fill="none" stroke="#63b8ff" d="M1122.59,-215.38C1146.95,-232.11 1187.03,-257.85 1224.75,-274 1228.77,-275.72 1232.94,-277.36 1237.19,-278.9"/>
<polygon fill="#63b8ff" stroke="#63b8ff" points="1235.83,-282.14 1246.43,-282.08 1238.11,-275.52 1235.83,-282.14"/>
</a>
</g>
</g>
<!-- Node15 -->
<g id="Node000015" class="node">
<title>Node15</title>
<g id="a_Node000015"><a xlink:href="classfr_1_1softsf_1_1canscan_1_1_can_scan.html#ab2e018ca62c7497c29e84f42ae870daa" target="_top" xlink:title="Adds MECARD MEET FREE card panels to the north panel.">
<polygon fill="white" stroke="#666666" points="733.75,-328 582,-328 582,-296 733.75,-296 733.75,-328"/>
<text text-anchor="start" x="590" y="-314.5" font-family="Helvetica,sans-Serif" font-size="10.00">fr.softsf.canscan.CanScan.add</text>
<text text-anchor="middle" x="657.88" y="-302.5" font-family="Helvetica,sans-Serif" font-size="10.00">NorthPanelCardPanels</text>
</a>
</g>
</g>
<!-- Node14&#45;&gt;Node15 -->
<g id="edge16_Node000014_Node000015" class="edge">
<title>Node14&#45;&gt;Node15</title>
<g id="a_edge16_Node000014_Node000015"><a xlink:title=" ">
<path fill="none" stroke="#63b8ff" d="M513.35,-204.39C521.51,-208.09 529.41,-212.58 536.25,-218 559.44,-236.38 549.83,-254.7 572.25,-274 579.7,-280.41 588.41,-285.93 597.35,-290.61"/>
<polygon fill="#63b8ff" stroke="#63b8ff" points="595.6,-293.65 606.13,-294.88 598.67,-287.36 595.6,-293.65"/>
</a>
</g>
</g>
<!-- Node19 -->
<g id="Node000019" class="node">
<title>Node19</title>
<g id="a_Node000019"><a xlink:href="classfr_1_1softsf_1_1canscan_1_1_can_scan.html#a94ab4df98de0d05977e6a65ab75f89f0" target="_top" xlink:title="Adds common input fields to the north panel.">
<polygon fill="white" stroke="#666666" points="733.75,-265 582,-265 582,-233 733.75,-233 733.75,-265"/>
<text text-anchor="start" x="590" y="-251.5" font-family="Helvetica,sans-Serif" font-size="10.00">fr.softsf.canscan.CanScan.add</text>
<text text-anchor="middle" x="657.88" y="-239.5" font-family="Helvetica,sans-Serif" font-size="10.00">NorthPanelCommonFields</text>
</a>
</g>
</g>
<!-- Node14&#45;&gt;Node19 -->
<g id="edge20_Node000014_Node000019" class="edge">
<title>Node14&#45;&gt;Node19</title>
<g id="a_edge20_Node000014_Node000019"><a xlink:title=" ">
<path fill="none" stroke="#63b8ff" d="M506.56,-204.43C527.16,-210.58 550.78,-217.62 572.25,-224 578.12,-225.74 584.23,-227.55 590.35,-229.37"/>
<polygon fill="#63b8ff" stroke="#63b8ff" points="589.3,-232.71 599.88,-232.19 591.29,-225.99 589.3,-232.71"/>
</a>
</g>
</g>
<!-- Node22 -->
<g id="Node000022" class="node">
<title>Node22</title>
<g id="a_Node000022"><a xlink:href="classfr_1_1softsf_1_1canscan_1_1_can_scan.html#a9f205dfdb266d5d7f8f8899b69742663" target="_top" xlink:title="Adds the generate button to the north panel.">
<polygon fill="white" stroke="#666666" points="733.75,-215 582,-215 582,-183 733.75,-183 733.75,-215"/>
<text text-anchor="start" x="590" y="-201.5" font-family="Helvetica,sans-Serif" font-size="10.00">fr.softsf.canscan.CanScan.add</text>
<text text-anchor="middle" x="657.88" y="-189.5" font-family="Helvetica,sans-Serif" font-size="10.00">NorthPanelGenerateButton</text>
</a>
</g>
</g>
<!-- Node14&#45;&gt;Node22 -->
<g id="edge24_Node000014_Node000022" class="edge">
<title>Node14&#45;&gt;Node22</title>
<g id="a_edge24_Node000014_Node000022"><a xlink:title=" ">
<path fill="none" stroke="#63b8ff" d="M536.59,-192.55C547.84,-193.16 559.38,-193.77 570.65,-194.38"/>
<polygon fill="#63b8ff" stroke="#63b8ff" points="570.12,-197.86 580.3,-194.9 570.5,-190.87 570.12,-197.86"/>
</a>
</g>
</g>
<!-- Node23 -->
<g id="Node000023" class="node">
<title>Node23</title>
<g id="a_Node000023"><a xlink:href="classfr_1_1softsf_1_1canscan_1_1_can_scan.html#aa469763b92dd7cbc6dfdb9aaa0116b33" target="_top" xlink:title="Adds mode selection controls (MECARD/MEET/FREE) to the north panel.">
<polygon fill="white" stroke="#666666" points="733.75,-165 582,-165 582,-133 733.75,-133 733.75,-165"/>
<text text-anchor="start" x="590" y="-151.5" font-family="Helvetica,sans-Serif" font-size="10.00">fr.softsf.canscan.CanScan.add</text>
<text text-anchor="middle" x="657.88" y="-139.5" font-family="Helvetica,sans-Serif" font-size="10.00">NorthPanelModeSelection</text>
</a>
</g>
</g>
<!-- Node14&#45;&gt;Node23 -->
<g id="edge25_Node000014_Node000023" class="edge">
<title>Node14&#45;&gt;Node23</title>
<g id="a_edge25_Node000014_Node000023"><a xlink:title=" ">
<path fill="none" stroke="#63b8ff" d="M536.59,-171.86C547.84,-169.72 559.38,-167.53 570.65,-165.38"/>
<polygon fill="#63b8ff" stroke="#63b8ff" points="571.15,-168.85 580.32,-163.55 569.84,-161.97 571.15,-168.85"/>
</a>
</g>
</g>
<!-- Node29 -->
<g id="Node000029" class="node">
<title>Node29</title>
<g id="a_Node000029"><a xlink:href="classfr_1_1softsf_1_1canscan_1_1_can_scan.html#ada8edc3d5abda489ce9f75a0613cfc71" target="_top" xlink:title="Creates the base north panel with layout, maximum width, and padding applied.">
<polygon fill="white" stroke="#666666" points="732.62,-115 583.12,-115 583.12,-83 732.62,-83 732.62,-115"/>
<text text-anchor="start" x="591.12" y="-101.5" font-family="Helvetica,sans-Serif" font-size="10.00">fr.softsf.canscan.CanScan.get</text>
<text text-anchor="middle" x="657.88" y="-89.5" font-family="Helvetica,sans-Serif" font-size="10.00">NorthJPanel</text>
</a>
</g>
</g>
<!-- Node14&#45;&gt;Node29 -->
<g id="edge32_Node000014_Node000029" class="edge">
<title>Node14&#45;&gt;Node29</title>
<g id="a_edge32_Node000014_Node000029"><a xlink:title=" ">
<path fill="none" stroke="#63b8ff" d="M519.58,-171.55C525.4,-169.07 531.05,-166.24 536.25,-163 556.28,-150.54 552.22,-136.46 572.25,-124 574.28,-122.74 576.38,-121.53 578.53,-120.39"/>
<polygon fill="#63b8ff" stroke="#63b8ff" points="580.02,-123.56 587.55,-116.1 577.02,-117.23 580.02,-123.56"/>
</a>
</g>
</g>
<!-- Node30 -->
<g id="Node000030" class="node">
<title>Node30</title>
<g id="a_Node000030"><a xlink:href="classfr_1_1softsf_1_1canscan_1_1_can_scan.html#aeb5550da33925e95999aae23f525f7c5" target="_top" xlink:title="Creates default GridBagConstraints for consistent layout configuration.">
<polygon fill="white" stroke="#666666" points="736.75,-65 579,-65 579,-33 736.75,-33 736.75,-65"/>
<text text-anchor="start" x="587" y="-51.5" font-family="Helvetica,sans-Serif" font-size="10.00">fr.softsf.canscan.CanScan.north</text>
<text text-anchor="middle" x="657.88" y="-39.5" font-family="Helvetica,sans-Serif" font-size="10.00">PanelGridBagConstraints</text>
</a>
</g>
</g>
<!-- Node14&#45;&gt;Node30 -->
<g id="edge33_Node000014_Node000030" class="edge">
<title>Node14&#45;&gt;Node30</title>
<g id="a_edge33_Node000014_Node000030"><a xlink:title=" ">
<path fill="none" stroke="#63b8ff" d="M524.27,-171.64C528.57,-169.16 532.62,-166.29 536.25,-163 567.85,-134.33 540.65,-102.67 572.25,-74 573.16,-73.18 574.09,-72.38 575.05,-71.61"/>
<polygon fill="#63b8ff" stroke="#63b8ff" points="576.68,-74.73 582.97,-66.21 572.74,-68.95 576.68,-74.73"/>
</a>
</g>
</g>
<!-- Node16 -->
<g id="Node000016" class="node">
<title>Node16</title>
<g id="a_Node000016"><a xlink:href="classfr_1_1softsf_1_1canscan_1_1_can_scan.html#a38d65dd319daee1c3288690c17e43ca5" target="_top" xlink:title="Populates the FREE panel with a multiline text area.">
<polygon fill="white" stroke="#666666" points="962.75,-335 789.25,-335 789.25,-315 962.75,-315 962.75,-335"/>
<text text-anchor="middle" x="876" y="-321.5" font-family="Helvetica,sans-Serif" font-size="10.00">fr.softsf.canscan.CanScan.freeCard</text>
</a>
</g>
</g>
<!-- Node15&#45;&gt;Node16 -->
<g id="edge17_Node000015_Node000016" class="edge">
<title>Node15&#45;&gt;Node16</title>
<g id="a_edge17_Node000015_Node000016"><a xlink:title=" ">
<path fill="none" stroke="#63b8ff" d="M734.16,-316.53C748.24,-317.38 763.13,-318.27 777.76,-319.15"/>
<polygon fill="#63b8ff" stroke="#63b8ff" points="777.18,-322.62 787.37,-319.73 777.6,-315.63 777.18,-322.62"/>
</a>
</g>
</g>
<!-- Node17 -->
<g id="Node000017" class="node">
<title>Node17</title>
<g id="a_Node000017"><a xlink:href="classfr_1_1softsf_1_1canscan_1_1_can_scan.html#aed7e3048974882318a6519d8d36e8ec0" target="_top" xlink:title="Populates the MECARD panel with contact fields.">
<polygon fill="white" stroke="#666666" points="960.12,-297 791.88,-297 791.88,-277 960.12,-277 960.12,-297"/>
<text text-anchor="middle" x="876" y="-283.5" font-family="Helvetica,sans-Serif" font-size="10.00">fr.softsf.canscan.CanScan.mecard</text>
</a>
</g>
</g>
<!-- Node15&#45;&gt;Node17 -->
<g id="edge18_Node000015_Node000017" class="edge">
<title>Node15&#45;&gt;Node17</title>
<g id="a_edge18_Node000015_Node000017"><a xlink:title=" ">
<path fill="none" stroke="#63b8ff" d="M734.16,-303.29C749.06,-301.57 764.88,-299.74 780.33,-297.95"/>
<polygon fill="#63b8ff" stroke="#63b8ff" points="780.46,-301.46 789.99,-296.83 779.65,-294.51 780.46,-301.46"/>
</a>
</g>
</g>
<!-- Node18 -->
<g id="Node000018" class="node">
<title>Node18</title>
<g id="a_Node000018"><a xlink:href="classfr_1_1softsf_1_1canscan_1_1_can_scan.html#aa211e37381e1a96b368390e86cddb879" target="_top" xlink:title="Populates the MEET panel with meet fields.">
<polygon fill="white" stroke="#666666" points="965.38,-373 786.62,-373 786.62,-353 965.38,-353 965.38,-373"/>
<text text-anchor="middle" x="876" y="-359.5" font-family="Helvetica,sans-Serif" font-size="10.00">fr.softsf.canscan.CanScan.meetCard</text>
</a>
</g>
</g>
<!-- Node15&#45;&gt;Node18 -->
<g id="edge19_Node000015_Node000018" class="edge">
<title>Node15&#45;&gt;Node18</title>
<g id="a_edge19_Node000015_Node000018"><a xlink:title=" ">
<path fill="none" stroke="#63b8ff" d="M717.9,-328.45C737.44,-333.69 759.34,-339.33 779.5,-344 788.73,-346.14 798.5,-348.26 808.13,-350.25"/>
<polygon fill="#63b8ff" stroke="#63b8ff" points="807.34,-353.66 817.84,-352.23 808.74,-346.81 807.34,-353.66"/>
</a>
</g>
</g>
<!-- Node20 -->
<g id="Node000020" class="node">
<title>Node20</title>
<g id="a_Node000020"><a xlink:href="classfr_1_1softsf_1_1canscan_1_1_can_scan.html#a17b0a72ab305f98f86591411b6a352f2" target="_top" xlink:title="Creates the color selection panel for QR code and background colors.">
<polygon fill="white" stroke="#666666" points="954.5,-209 797.5,-209 797.5,-177 954.5,-177 954.5,-209"/>
<text text-anchor="start" x="805.5" y="-195.5" font-family="Helvetica,sans-Serif" font-size="10.00">fr.softsf.canscan.CanScan.color</text>
<text text-anchor="middle" x="876" y="-183.5" font-family="Helvetica,sans-Serif" font-size="10.00">Panel</text>
</a>
</g>
</g>
<!-- Node19&#45;&gt;Node20 -->
<g id="edge21_Node000019_Node000020" class="edge">
<title>Node19&#45;&gt;Node20</title>
<g id="a_edge21_Node000019_Node000020"><a xlink:title=" ">
<path fill="none" stroke="#63b8ff" d="M722.55,-232.5C746.96,-226.18 775.02,-218.91 800.36,-212.34"/>
<polygon fill="#63b8ff" stroke="#63b8ff" points="801.14,-215.75 809.94,-209.86 799.38,-208.98 801.14,-215.75"/>
</a>
</g>
</g>
<!-- Node21 -->
<g id="Node000021" class="node">
<title>Node21</title>
<g id="a_Node000021"><a xlink:href="enumfr_1_1softsf_1_1canscan_1_1ui_1_1_ui_components_configuration.html#a953922164a79d6b4a86eb426b782c730" target="_top" xlink:title="Generates the HTML string for a JLabel with text followed by an icon.">
<polygon fill="white" stroke="#666666" points="960.88,-259 791.12,-259 791.12,-227 960.88,-227 960.88,-259"/>
<text text-anchor="start" x="799.12" y="-245.5" font-family="Helvetica,sans-Serif" font-size="10.00">fr.softsf.canscan.ui.UiComponents</text>
<text text-anchor="middle" x="876" y="-233.5" font-family="Helvetica,sans-Serif" font-size="10.00">Configuration.getIconAfterTextHtml</text>
</a>
</g>
</g>
<!-- Node19&#45;&gt;Node21 -->
<g id="edge23_Node000019_Node000021" class="edge">
<title>Node19&#45;&gt;Node21</title>
<g id="a_edge23_Node000019_Node000021"><a xlink:title=" ">
<path fill="none" stroke="#63b8ff" d="M734.16,-246.91C748.72,-246.51 764.16,-246.08 779.27,-245.66"/>
<polygon fill="#63b8ff" stroke="#63b8ff" points="779.34,-249.16 789.23,-245.38 779.14,-242.16 779.34,-249.16"/>
</a>
</g>
</g>
<!-- Node20&#45;&gt;Node8 -->
<g id="edge22_Node000020_Node000008" class="edge">
<title>Node20&#45;&gt;Node8</title>
<g id="a_edge22_Node000020_Node000008"><a xlink:title=" ">
<path fill="none" stroke="#63b8ff" d="M954.78,-195.12C973.36,-195.62 993.3,-196.16 1012.2,-196.68"/>
<polygon fill="#63b8ff" stroke="#63b8ff" points="1011.9,-200.17 1021.99,-196.94 1012.09,-193.17 1011.9,-200.17"/>
</a>
</g>
</g>
<!-- Node24 -->
<g id="Node000024" class="node">
<title>Node24</title>
<g id="a_Node000024"><a xlink:href="classfr_1_1softsf_1_1canscan_1_1_can_scan.html#a381579d3adc53b1122b38e7fda5c0235" target="_top" xlink:title="Configures the update button for version checking.">
<polygon fill="white" stroke="#666666" points="963.88,-121 788.12,-121 788.12,-89 963.88,-89 963.88,-121"/>
<text text-anchor="start" x="796.12" y="-107.5" font-family="Helvetica,sans-Serif" font-size="10.00">fr.softsf.canscan.CanScan.configure</text>
<text text-anchor="middle" x="876" y="-95.5" font-family="Helvetica,sans-Serif" font-size="10.00">UpdateButton</text>
</a>
</g>
</g>
<!-- Node23&#45;&gt;Node24 -->
<g id="edge26_Node000023_Node000024" class="edge">
<title>Node23&#45;&gt;Node24</title>
<g id="a_edge26_Node000023_Node000024"><a xlink:title=" ">
<path fill="none" stroke="#63b8ff" d="M734.16,-133.67C749.9,-130.47 766.66,-127.06 782.93,-123.74"/>
<polygon fill="#63b8ff" stroke="#63b8ff" points="783.51,-127.2 792.61,-121.77 782.11,-120.34 783.51,-127.2"/>
</a>
</g>
</g>
<!-- Node25 -->
<g id="Node000025" class="node">
<title>Node25</title>
<g id="a_Node000025"><a xlink:href="classfr_1_1softsf_1_1canscan_1_1_can_scan.html#a428c742b098fa27d4c8984c1030c238d" target="_top" xlink:title="Switches between MECARD, MEET, and FREE modes, updating the panel and QR preview.">
<polygon fill="white" stroke="#666666" points="970.25,-159 781.75,-159 781.75,-139 970.25,-139 970.25,-159"/>
<text text-anchor="middle" x="876" y="-145.5" font-family="Helvetica,sans-Serif" font-size="10.00">fr.softsf.canscan.CanScan.switchMode</text>
</a>
</g>
</g>
<!-- Node23&#45;&gt;Node25 -->
<g id="edge27_Node000023_Node000025" class="edge">
<title>Node23&#45;&gt;Node25</title>
<g id="a_edge27_Node000023_Node000025"><a xlink:title=" ">
<path fill="none" stroke="#63b8ff" d="M734.16,-149C745.7,-149 757.79,-149 769.83,-149"/>
<polygon fill="#63b8ff" stroke="#63b8ff" points="769.83,-152.5 779.83,-149 769.83,-145.5 769.83,-152.5"/>
</a>
</g>
</g>
<!-- Node25&#45;&gt;Node8 -->
<g id="edge28_Node000025_Node000008" class="edge">
<title>Node25&#45;&gt;Node8</title>
<g id="a_edge28_Node000025_Node000008"><a xlink:title=" ">
<path fill="none" stroke="#63b8ff" d="M931.89,-159.47C945.2,-162.13 959.38,-165.07 972.5,-168 988.89,-171.66 1006.43,-175.84 1023.03,-179.92"/>
<polygon fill="#63b8ff" stroke="#63b8ff" points="1021.77,-183.21 1032.32,-182.21 1023.45,-176.41 1021.77,-183.21"/>
</a>
</g>
</g>
<!-- Node26 -->
<g id="Node000026" class="node">
<title>Node26</title>
<g id="a_Node000026"><a xlink:href="enumfr_1_1softsf_1_1canscan_1_1model_1_1_mode.html#a16a898a11ca939056bd7b275f11ea54c" target="_top" xlink:title="Returns the mode label.">
<polygon fill="white" stroke="#666666" points="1159.5,-165 1037.75,-165 1037.75,-133 1159.5,-133 1159.5,-165"/>
<text text-anchor="start" x="1045.75" y="-151.5" font-family="Helvetica,sans-Serif" font-size="10.00">fr.softsf.canscan.model.</text>
<text text-anchor="middle" x="1098.62" y="-139.5" font-family="Helvetica,sans-Serif" font-size="10.00">Mode.text</text>
</a>
</g>
</g>
<!-- Node25&#45;&gt;Node26 -->
<g id="edge29_Node000025_Node000026" class="edge">
<title>Node25&#45;&gt;Node26</title>
<g id="a_edge29_Node000025_Node000026"><a xlink:title=" ">
<path fill="none" stroke="#63b8ff" d="M970.56,-149C989.16,-149 1008.4,-149 1026.12,-149"/>
<polygon fill="#63b8ff" stroke="#63b8ff" points="1026,-152.5 1036,-149 1026,-145.5 1026,-152.5"/>
</a>
</g>
</g>
<!-- Node27 -->
<g id="Node000027" class="node">
<title>Node27</title>
<g id="a_Node000027"><a xlink:href="classfr_1_1softsf_1_1canscan_1_1_can_scan.html#a11fd9295c4843e6e68f9d1e4a710b906" target="_top" xlink:title="Enables or disables the &quot;Generate&quot; button based on required fields for the current mode.">
<polygon fill="white" stroke="#666666" points="1181.25,-115 1016,-115 1016,-83 1181.25,-83 1181.25,-115"/>
<text text-anchor="start" x="1024" y="-101.5" font-family="Helvetica,sans-Serif" font-size="10.00">fr.softsf.canscan.CanScan.update</text>
<text text-anchor="middle" x="1098.62" y="-89.5" font-family="Helvetica,sans-Serif" font-size="10.00">GenerateButtonState</text>
</a>
</g>
</g>
<!-- Node25&#45;&gt;Node27 -->
<g id="edge30_Node000025_Node000027" class="edge">
<title>Node25&#45;&gt;Node27</title>
<g id="a_edge30_Node000025_Node000027"><a xlink:title=" ">
<path fill="none" stroke="#63b8ff" d="M931.89,-138.53C945.2,-135.87 959.38,-132.93 972.5,-130 988.89,-126.34 1006.43,-122.16 1023.03,-118.08"/>
<polygon fill="#63b8ff" stroke="#63b8ff" points="1023.45,-121.59 1032.32,-115.79 1021.77,-114.79 1023.45,-121.59"/>
</a>
</g>
</g>
<!-- Node28 -->
<g id="Node000028" class="node">
<title>Node28</title>
<g id="a_Node000028"><a xlink:href="classfr_1_1softsf_1_1canscan_1_1_can_scan.html#a3ce6e8b8bd62f20e8e8b9a744976c695" target="_top" xlink:title="Determines whether the &quot;Generate&quot; button should be disabled for the current mode.">
<polygon fill="white" stroke="#666666" points="1398.62,-115 1234.12,-115 1234.12,-83 1398.62,-83 1398.62,-115"/>
<text text-anchor="start" x="1242.12" y="-101.5" font-family="Helvetica,sans-Serif" font-size="10.00">fr.softsf.canscan.CanScan.should</text>
<text text-anchor="middle" x="1316.38" y="-89.5" font-family="Helvetica,sans-Serif" font-size="10.00">DisableGenerateButton</text>
</a>
</g>
</g>
<!-- Node27&#45;&gt;Node28 -->
<g id="edge31_Node000027_Node000028" class="edge">
<title>Node27&#45;&gt;Node28</title>
<g id="a_edge31_Node000027_Node000028"><a xlink:title=" ">
<path fill="none" stroke="#63b8ff" d="M1181.5,-99C1194.91,-99 1208.89,-99 1222.54,-99"/>
<polygon fill="#63b8ff" stroke="#63b8ff" points="1222.4,-102.5 1232.4,-99 1222.4,-95.5 1222.4,-102.5"/>
</a>
</g>
</g>
<!-- Node34 -->
<g id="Node000034" class="node">
<title>Node34</title>
<g id="a_Node000034"><a xlink:href="classfr_1_1softsf_1_1canscan_1_1_can_scan.html#a0fe215984734bb1337dd49ca30238b78" target="_top" xlink:title="Sets the loader size so it matches the QR code label height and remains centered.">
<polygon fill="white" stroke="#666666" points="1173.38,-32 1023.88,-32 1023.88,0 1173.38,0 1173.38,-32"/>
<text text-anchor="start" x="1031.88" y="-18.5" font-family="Helvetica,sans-Serif" font-size="10.00">fr.softsf.canscan.CanScan.set</text>
<text text-anchor="middle" x="1098.62" y="-6.5" font-family="Helvetica,sans-Serif" font-size="10.00">LoaderSize</text>
</a>
</g>
</g>
<!-- Node33&#45;&gt;Node34 -->
<g id="edge37_Node000033_Node000034" class="edge">
<title>Node33&#45;&gt;Node34</title>
<g id="a_edge37_Node000033_Node000034"><a xlink:title=" ">
<path fill="none" stroke="#63b8ff" d="M536.64,-24.78C548.59,-24.5 560.73,-24.23 572.25,-24 727.41,-20.89 908.36,-18.38 1012.31,-17.05"/>
<polygon fill="#63b8ff" stroke="#63b8ff" points="1012.2,-20.55 1022.15,-16.92 1012.11,-13.55 1012.2,-20.55"/>
</a>
</g>
</g>
<!-- Node34&#45;&gt;Node9 -->
<g id="edge38_Node000034_Node000009" class="edge">
<title>Node34&#45;&gt;Node9</title>
<g id="a_edge38_Node000034_Node000009"><a xlink:title=" ">
<path fill="none" stroke="#63b8ff" d="M1173.87,-19.79C1187.96,-20.5 1202.89,-21.27 1217.57,-22.01"/>
<polygon fill="#63b8ff" stroke="#63b8ff" points="1217.06,-25.49 1227.22,-22.51 1217.42,-18.5 1217.06,-25.49"/>
</a>
</g>
</g>
</g>
</svg>
