<?xml version="1.0" encoding="UTF-8" standalone="no"?>
<!DOCTYPE svg PUBLIC "-//W3C//DTD SVG 1.1//EN"
 "http://www.w3.org/Graphics/SVG/1.1/DTD/svg11.dtd">
<!-- Generated by graphviz version 12.2.1 (20241206.2353)
 -->
<!-- Title: fr.softsf.canscan.ui.EncodedImage.drawModules Pages: 1 -->
<svg width="681pt" height="140pt"
 viewBox="0.00 0.00 681.00 140.00" xmlns="http://www.w3.org/2000/svg" xmlns:xlink="http://www.w3.org/1999/xlink">
<g id="graph0" class="graph" transform="scale(1 1) rotate(0) translate(4 136)">
<title>fr.softsf.canscan.ui.EncodedImage.drawModules</title>
<!-- Node1 -->
<g id="Node000001" class="node">
<title>Node1</title>
<g id="a_Node000001"><a xlink:title="Renders all QR code modules onto the provided graphics context.">
<polygon fill="#999999" stroke="#666666" points="141.25,-107 0,-107 0,-75 141.25,-75 141.25,-107"/>
<text text-anchor="start" x="8" y="-93.5" font-family="Helvetica,sans-Serif" font-size="10.00">fr.softsf.canscan.ui.Encoded</text>
<text text-anchor="middle" x="70.62" y="-81.5" font-family="Helvetica,sans-Serif" font-size="10.00">Image.drawModules</text>
</a>
</g>
</g>
<!-- Node2 -->
<g id="Node000002" class="node">
<title>Node2</title>
<g id="a_Node000002"><a xlink:href="classfr_1_1softsf_1_1canscan_1_1ui_1_1_encoded_image.html#a39d00e8741eea56385de5b2401cea25e" target="_top" xlink:title="Draws a single QR code module at the specified coordinates with configured size and shape.">
<polygon fill="white" stroke="#666666" points="318.5,-132 177.25,-132 177.25,-100 318.5,-100 318.5,-132"/>
<text text-anchor="start" x="185.25" y="-118.5" font-family="Helvetica,sans-Serif" font-size="10.00">fr.softsf.canscan.ui.Encoded</text>
<text text-anchor="middle" x="247.88" y="-106.5" font-family="Helvetica,sans-Serif" font-size="10.00">Image.drawModule</text>
</a>
</g>
</g>
<!-- Node1&#45;&gt;Node2 -->
<g id="edge1_Node000001_Node000002" class="edge">
<title>Node1&#45;&gt;Node2</title>
<g id="a_edge1_Node000001_Node000002"><a xlink:title=" ">
<path fill="none" stroke="#63b8ff" d="M141.64,-100.99C149.55,-102.12 157.65,-103.27 165.69,-104.42"/>
<polygon fill="#63b8ff" stroke="#63b8ff" points="165.07,-107.87 175.47,-105.81 166.06,-100.94 165.07,-107.87"/>
</a>
</g>
</g>
<!-- Node3 -->
<g id="Node000003" class="node">
<title>Node3</title>
<g id="a_Node000003"><a xlink:href="classfr_1_1softsf_1_1canscan_1_1ui_1_1_encoded_image.html#a0a54994d696c706a8bf3e6dfc9c7eb5e" target="_top" xlink:title="Determines whether a QR code module should be skipped during rendering.">
<polygon fill="white" stroke="#666666" points="318.5,-82 177.25,-82 177.25,-50 318.5,-50 318.5,-82"/>
<text text-anchor="start" x="185.25" y="-68.5" font-family="Helvetica,sans-Serif" font-size="10.00">fr.softsf.canscan.ui.Encoded</text>
<text text-anchor="middle" x="247.88" y="-56.5" font-family="Helvetica,sans-Serif" font-size="10.00">Image.shouldSkipModule</text>
</a>
</g>
</g>
<!-- Node1&#45;&gt;Node3 -->
<g id="edge2_Node000001_Node000003" class="edge">
<title>Node1&#45;&gt;Node3</title>
<g id="a_edge2_Node000001_Node000003"><a xlink:title=" ">
<path fill="none" stroke="#63b8ff" d="M141.64,-81.01C149.55,-79.88 157.65,-78.73 165.69,-77.58"/>
<polygon fill="#63b8ff" stroke="#63b8ff" points="166.06,-81.06 175.47,-76.19 165.07,-74.13 166.06,-81.06"/>
</a>
</g>
</g>
<!-- Node4 -->
<g id="Node000004" class="node">
<title>Node4</title>
<g id="a_Node000004"><a xlink:href="classfr_1_1softsf_1_1canscan_1_1ui_1_1_encoded_image.html#ac5ca4991b2826e1655e2f4afe5f2659f" target="_top" xlink:title="Determines whether the given coordinates fall within any of the three QR code position patterns.">
<polygon fill="white" stroke="#666666" points="495.75,-82 354.5,-82 354.5,-50 495.75,-50 495.75,-82"/>
<text text-anchor="start" x="362.5" y="-68.5" font-family="Helvetica,sans-Serif" font-size="10.00">fr.softsf.canscan.ui.Encoded</text>
<text text-anchor="middle" x="425.12" y="-56.5" font-family="Helvetica,sans-Serif" font-size="10.00">Image.isInPositionPattern</text>
</a>
</g>
</g>
<!-- Node3&#45;&gt;Node4 -->
<g id="edge3_Node000003_Node000004" class="edge">
<title>Node3&#45;&gt;Node4</title>
<g id="a_edge3_Node000003_Node000004"><a xlink:title=" ">
<path fill="none" stroke="#63b8ff" d="M318.89,-66C326.8,-66 334.9,-66 342.94,-66"/>
<polygon fill="#63b8ff" stroke="#63b8ff" points="342.7,-69.5 352.7,-66 342.7,-62.5 342.7,-69.5"/>
</a>
</g>
</g>
<!-- Node5 -->
<g id="Node000005" class="node">
<title>Node5</title>
<g id="a_Node000005"><a xlink:href="classfr_1_1softsf_1_1canscan_1_1ui_1_1_encoded_image.html#a08c22c703968017fdad5423b34113bb1" target="_top" xlink:title="Checks if coordinates are within the bottom&#45;left position pattern.">
<polygon fill="white" stroke="#666666" points="673,-132 531.75,-132 531.75,-100 673,-100 673,-132"/>
<text text-anchor="start" x="539.75" y="-118.5" font-family="Helvetica,sans-Serif" font-size="10.00">fr.softsf.canscan.ui.Encoded</text>
<text text-anchor="middle" x="602.38" y="-106.5" font-family="Helvetica,sans-Serif" font-size="10.00">Image.isInBottomLeftPattern</text>
</a>
</g>
</g>
<!-- Node4&#45;&gt;Node5 -->
<g id="edge4_Node000004_Node000005" class="edge">
<title>Node4&#45;&gt;Node5</title>
<g id="a_edge4_Node000004_Node000005"><a xlink:title=" ">
<path fill="none" stroke="#63b8ff" d="M483.51,-82.37C499.16,-86.84 516.28,-91.72 532.51,-96.35"/>
<polygon fill="#63b8ff" stroke="#63b8ff" points="531.53,-99.71 542.11,-99.09 533.45,-92.98 531.53,-99.71"/>
</a>
</g>
</g>
<!-- Node6 -->
<g id="Node000006" class="node">
<title>Node6</title>
<g id="a_Node000006"><a xlink:href="classfr_1_1softsf_1_1canscan_1_1ui_1_1_encoded_image.html#a42b974304eab8bbf970c930aadf1c8cd" target="_top" xlink:title="Checks if coordinates are within the top&#45;left position pattern.">
<polygon fill="white" stroke="#666666" points="673,-82 531.75,-82 531.75,-50 673,-50 673,-82"/>
<text text-anchor="start" x="539.75" y="-68.5" font-family="Helvetica,sans-Serif" font-size="10.00">fr.softsf.canscan.ui.Encoded</text>
<text text-anchor="middle" x="602.38" y="-56.5" font-family="Helvetica,sans-Serif" font-size="10.00">Image.isInTopLeftPattern</text>
</a>
</g>
</g>
<!-- Node4&#45;&gt;Node6 -->
<g id="edge5_Node000004_Node000006" class="edge">
<title>Node4&#45;&gt;Node6</title>
<g id="a_edge5_Node000004_Node000006"><a xlink:title=" ">
<path fill="none" stroke="#63b8ff" d="M496.14,-66C504.05,-66 512.15,-66 520.19,-66"/>
<polygon fill="#63b8ff" stroke="#63b8ff" points="519.95,-69.5 529.95,-66 519.95,-62.5 519.95,-69.5"/>
</a>
</g>
</g>
<!-- Node7 -->
<g id="Node000007" class="node">
<title>Node7</title>
<g id="a_Node000007"><a xlink:href="classfr_1_1softsf_1_1canscan_1_1ui_1_1_encoded_image.html#a0f2ff4874795b0ea498b4840b1f0b14c" target="_top" xlink:title="Checks if coordinates are within the top&#45;right position pattern.">
<polygon fill="white" stroke="#666666" points="673,-32 531.75,-32 531.75,0 673,0 673,-32"/>
<text text-anchor="start" x="539.75" y="-18.5" font-family="Helvetica,sans-Serif" font-size="10.00">fr.softsf.canscan.ui.Encoded</text>
<text text-anchor="middle" x="602.38" y="-6.5" font-family="Helvetica,sans-Serif" font-size="10.00">Image.isInTopRightPattern</text>
</a>
</g>
</g>
<!-- Node4&#45;&gt;Node7 -->
<g id="edge6_Node000004_Node000007" class="edge">
<title>Node4&#45;&gt;Node7</title>
<g id="a_edge6_Node000004_Node000007"><a xlink:title=" ">
<path fill="none" stroke="#63b8ff" d="M483.51,-49.63C499.16,-45.16 516.28,-40.28 532.51,-35.65"/>
<polygon fill="#63b8ff" stroke="#63b8ff" points="533.45,-39.02 542.11,-32.91 531.53,-32.29 533.45,-39.02"/>
</a>
</g>
</g>
</g>
</svg>
