<?xml version="1.0" encoding="UTF-8" standalone="no"?>
<!DOCTYPE svg PUBLIC "-//W3C//DTD SVG 1.1//EN"
 "http://www.w3.org/Graphics/SVG/1.1/DTD/svg11.dtd">
<!-- Generated by graphviz version 12.2.1 (20241206.2353)
 -->
<!-- Title: fr.softsf.canscan.NativeImageConfigSimulator.main Pages: 1 -->
<svg width="1030pt" height="468pt"
 viewBox="0.00 0.00 1030.00 468.00" xmlns="http://www.w3.org/2000/svg" xmlns:xlink="http://www.w3.org/1999/xlink">
<g id="graph0" class="graph" transform="scale(1 1) rotate(0) translate(4 464)">
<title>fr.softsf.canscan.NativeImageConfigSimulator.main</title>
<!-- Node1 -->
<g id="Node000001" class="node">
<title>Node1</title>
<g id="a_Node000001"><a xlink:title="Launches the Native Image configuration UI and runs the simulation in a background thread.">
<polygon fill="#999999" stroke="#666666" points="136.75,-249 0,-249 0,-217 136.75,-217 136.75,-249"/>
<text text-anchor="start" x="8" y="-235.5" font-family="Helvetica,sans-Serif" font-size="10.00">fr.softsf.canscan.Native</text>
<text text-anchor="middle" x="68.38" y="-223.5" font-family="Helvetica,sans-Serif" font-size="10.00">ImageConfigSimulator.main</text>
</a>
</g>
</g>
<!-- Node2 -->
<g id="Node000002" class="node">
<title>Node2</title>
<g id="a_Node000002"><a xlink:href="classfr_1_1softsf_1_1canscan_1_1_native_image_config_simulator.html#afbc1231d98e565f72006b6f31c7dce34" target="_top" xlink:title="Runs the full end&#45;to&#45;end UI simulation for Native Image configuration using a Robot.">
<polygon fill="white" stroke="#666666" points="347.75,-249 172.75,-249 172.75,-217 347.75,-217 347.75,-249"/>
<text text-anchor="start" x="180.75" y="-235.5" font-family="Helvetica,sans-Serif" font-size="10.00">fr.softsf.canscan.Native</text>
<text text-anchor="middle" x="260.25" y="-223.5" font-family="Helvetica,sans-Serif" font-size="10.00">ImageConfigSimulator.runSimulation</text>
</a>
</g>
</g>
<!-- Node1&#45;&gt;Node2 -->
<g id="edge1_Node000001_Node000002" class="edge">
<title>Node1&#45;&gt;Node2</title>
<g id="a_edge1_Node000001_Node000002"><a xlink:title=" ">
<path fill="none" stroke="#63b8ff" d="M137.12,-233C144.87,-233 152.87,-233 160.92,-233"/>
<polygon fill="#63b8ff" stroke="#63b8ff" points="160.77,-236.5 170.77,-233 160.77,-229.5 160.77,-236.5"/>
</a>
</g>
</g>
<!-- Node3 -->
<g id="Node000003" class="node">
<title>Node3</title>
<g id="a_Node000003"><a xlink:href="classfr_1_1softsf_1_1canscan_1_1_native_image_config_simulator.html#acbf2b92c5c36da7ad4329966d92f1a1b" target="_top" xlink:title="Simulates clicking a browse button to open a JFileChooser, performs a right&#45;click inside it,...">
<polygon fill="white" stroke="#666666" points="574.5,-410 395,-410 395,-366 574.5,-366 574.5,-410"/>
<text text-anchor="start" x="403" y="-396.5" font-family="Helvetica,sans-Serif" font-size="10.00">fr.softsf.canscan.Native</text>
<text text-anchor="start" x="403" y="-384.5" font-family="Helvetica,sans-Serif" font-size="10.00">ImageConfigSimulator.browseFolders</text>
<text text-anchor="middle" x="484.75" y="-372.5" font-family="Helvetica,sans-Serif" font-size="10.00">Simulation</text>
</a>
</g>
</g>
<!-- Node2&#45;&gt;Node3 -->
<g id="edge2_Node000002_Node000003" class="edge">
<title>Node2&#45;&gt;Node3</title>
<g id="a_edge2_Node000002_Node000003"><a xlink:title=" ">
<path fill="none" stroke="#63b8ff" d="M272.93,-249.19C292.78,-275.56 335.65,-327.77 383.75,-357 385.75,-358.22 387.81,-359.39 389.9,-360.52"/>
<polygon fill="#63b8ff" stroke="#63b8ff" points="388.1,-363.53 398.62,-364.83 391.21,-357.26 388.1,-363.53"/>
</a>
</g>
</g>
<!-- Node5 -->
<g id="Node000005" class="node">
<title>Node5</title>
<g id="a_Node000005"><a xlink:href="classfr_1_1softsf_1_1canscan_1_1_native_image_config_simulator.html#a3ce8b70d660baabe5ed741e64dfd0af3" target="_top" xlink:title="Simulates selecting a color via JColorChooser, confirms the dialog with Enter, and verifies the selec...">
<polygon fill="white" stroke="#666666" points="585.75,-460 383.75,-460 383.75,-428 585.75,-428 585.75,-460"/>
<text text-anchor="start" x="391.75" y="-446.5" font-family="Helvetica,sans-Serif" font-size="10.00">fr.softsf.canscan.Native</text>
<text text-anchor="middle" x="484.75" y="-434.5" font-family="Helvetica,sans-Serif" font-size="10.00">ImageConfigSimulator.chooseModuleColor</text>
</a>
</g>
</g>
<!-- Node2&#45;&gt;Node5 -->
<g id="edge4_Node000002_Node000005" class="edge">
<title>Node2&#45;&gt;Node5</title>
<g id="a_edge4_Node000002_Node000005"><a xlink:title=" ">
<path fill="none" stroke="#63b8ff" d="M267.21,-249.39C281.38,-285.91 320.66,-374.28 383.75,-419 385.36,-420.14 387.01,-421.23 388.7,-422.26"/>
<polygon fill="#63b8ff" stroke="#63b8ff" points="386.98,-425.31 397.44,-426.96 390.29,-419.15 386.98,-425.31"/>
</a>
</g>
</g>
<!-- Node7 -->
<g id="Node000007" class="node">
<title>Node7</title>
<g id="a_Node000007"><a xlink:href="classfr_1_1softsf_1_1canscan_1_1_native_image_config_simulator.html#ad18c2e9f57e07032b9a48a10e02e61f6" target="_top" xlink:title="Searches for a component of the specified type and name within the given container hierarchy.">
<polygon fill="white" stroke="#666666" points="575.62,-32 393.88,-32 393.88,0 575.62,0 575.62,-32"/>
<text text-anchor="start" x="401.88" y="-18.5" font-family="Helvetica,sans-Serif" font-size="10.00">fr.softsf.canscan.Native</text>
<text text-anchor="middle" x="484.75" y="-6.5" font-family="Helvetica,sans-Serif" font-size="10.00">ImageConfigSimulator.findComponent</text>
</a>
</g>
</g>
<!-- Node2&#45;&gt;Node7 -->
<g id="edge7_Node000002_Node000007" class="edge">
<title>Node2&#45;&gt;Node7</title>
<g id="a_edge7_Node000002_Node000007"><a xlink:title=" ">
<path fill="none" stroke="#63b8ff" d="M268.89,-216.58C285.37,-182.78 327.38,-104.74 383.75,-59 394.63,-50.17 407.61,-42.84 420.54,-36.89"/>
<polygon fill="#63b8ff" stroke="#63b8ff" points="421.7,-40.21 429.48,-33.02 418.91,-33.79 421.7,-40.21"/>
</a>
</g>
</g>
<!-- Node8 -->
<g id="Node000008" class="node">
<title>Node8</title>
<g id="a_Node000008"><a xlink:href="classfr_1_1softsf_1_1canscan_1_1_native_image_config_simulator.html#a38fd2d97bfc693365a8dc700273ada47" target="_top" xlink:title="Simulates selecting the free data mode and entering an oversized payload into the input field.">
<polygon fill="white" stroke="#666666" points="561.38,-224 408.12,-224 408.12,-180 561.38,-180 561.38,-224"/>
<text text-anchor="start" x="416.12" y="-210.5" font-family="Helvetica,sans-Serif" font-size="10.00">fr.softsf.canscan.Native</text>
<text text-anchor="start" x="416.12" y="-198.5" font-family="Helvetica,sans-Serif" font-size="10.00">ImageConfigSimulator.freeData</text>
<text text-anchor="middle" x="484.75" y="-186.5" font-family="Helvetica,sans-Serif" font-size="10.00">TooBig</text>
</a>
</g>
</g>
<!-- Node2&#45;&gt;Node8 -->
<g id="edge9_Node000002_Node000008" class="edge">
<title>Node2&#45;&gt;Node8</title>
<g id="a_edge9_Node000002_Node000008"><a xlink:title=" ">
<path fill="none" stroke="#63b8ff" d="M348.23,-220.88C364.02,-218.68 380.5,-216.39 396.3,-214.18"/>
<polygon fill="#63b8ff" stroke="#63b8ff" points="396.75,-217.66 406.17,-212.81 395.78,-210.72 396.75,-217.66"/>
</a>
</g>
</g>
<!-- Node11 -->
<g id="Node000011" class="node">
<title>Node11</title>
<g id="a_Node000011"><a xlink:href="classfr_1_1softsf_1_1canscan_1_1_native_image_config_simulator.html#ae2840980d77f2806ab5f1bd471186ed3" target="_top" xlink:title="Simulates typing &quot;Test&quot; into a JTextField and verifies the input using a Robot.">
<polygon fill="white" stroke="#666666" points="568.88,-162 400.62,-162 400.62,-118 568.88,-118 568.88,-162"/>
<text text-anchor="start" x="408.62" y="-148.5" font-family="Helvetica,sans-Serif" font-size="10.00">fr.softsf.canscan.Native</text>
<text text-anchor="start" x="408.62" y="-136.5" font-family="Helvetica,sans-Serif" font-size="10.00">ImageConfigSimulator.nameTyping</text>
<text text-anchor="middle" x="484.75" y="-124.5" font-family="Helvetica,sans-Serif" font-size="10.00">Simulation</text>
</a>
</g>
</g>
<!-- Node2&#45;&gt;Node11 -->
<g id="edge15_Node000002_Node000011" class="edge">
<title>Node2&#45;&gt;Node11</title>
<g id="a_edge15_Node000002_Node000011"><a xlink:title=" ">
<path fill="none" stroke="#63b8ff" d="M290.31,-216.54C314.73,-203.14 350.83,-184.32 383.75,-171 387.76,-169.38 391.88,-167.79 396.07,-166.24"/>
<polygon fill="#63b8ff" stroke="#63b8ff" points="396.92,-169.66 405.16,-163 394.56,-163.07 396.92,-169.66"/>
</a>
</g>
</g>
<!-- Node14 -->
<g id="Node000014" class="node">
<title>Node14</title>
<g id="a_Node000014"><a xlink:href="classfr_1_1softsf_1_1canscan_1_1_native_image_config_simulator.html#aca8bae30971c2243dc992ef4dc9d3ca8" target="_top" xlink:title="Simulates opening the latest release repository URL in the system browser.">
<polygon fill="white" stroke="#666666" points="566.62,-348 402.88,-348 402.88,-304 566.62,-304 566.62,-348"/>
<text text-anchor="start" x="410.88" y="-334.5" font-family="Helvetica,sans-Serif" font-size="10.00">fr.softsf.canscan.Native</text>
<text text-anchor="start" x="410.88" y="-322.5" font-family="Helvetica,sans-Serif" font-size="10.00">ImageConfigSimulator.openLatest</text>
<text text-anchor="middle" x="484.75" y="-310.5" font-family="Helvetica,sans-Serif" font-size="10.00">ReleaseRepoInBrowser</text>
</a>
</g>
</g>
<!-- Node2&#45;&gt;Node14 -->
<g id="edge19_Node000002_Node000014" class="edge">
<title>Node2&#45;&gt;Node14</title>
<g id="a_edge19_Node000002_Node000014"><a xlink:title=" ">
<path fill="none" stroke="#63b8ff" d="M290.31,-249.46C314.73,-262.86 350.83,-281.68 383.75,-295 387.76,-296.62 391.88,-298.21 396.07,-299.76"/>
<polygon fill="#63b8ff" stroke="#63b8ff" points="394.56,-302.93 405.16,-303 396.92,-296.34 394.56,-302.93"/>
</a>
</g>
</g>
<!-- Node15 -->
<g id="Node000015" class="node">
<title>Node15</title>
<g id="a_Node000015"><a xlink:href="classfr_1_1softsf_1_1canscan_1_1_native_image_config_simulator.html#a9e920788e82b3b113a566174265607af" target="_top" xlink:title="Simulates hovering over a JSlider to verify its tooltip matches the current slider value.">
<polygon fill="white" stroke="#666666" points="564.38,-286 405.12,-286 405.12,-242 564.38,-242 564.38,-286"/>
<text text-anchor="start" x="413.12" y="-272.5" font-family="Helvetica,sans-Serif" font-size="10.00">fr.softsf.canscan.Native</text>
<text text-anchor="start" x="413.12" y="-260.5" font-family="Helvetica,sans-Serif" font-size="10.00">ImageConfigSimulator.ratioSlider</text>
<text text-anchor="middle" x="484.75" y="-248.5" font-family="Helvetica,sans-Serif" font-size="10.00">TooltipSimulation</text>
</a>
</g>
</g>
<!-- Node2&#45;&gt;Node15 -->
<g id="edge21_Node000002_Node000015" class="edge">
<title>Node2&#45;&gt;Node15</title>
<g id="a_edge21_Node000002_Node000015"><a xlink:title=" ">
<path fill="none" stroke="#63b8ff" d="M348.23,-245.12C363.09,-247.19 378.56,-249.34 393.5,-251.43"/>
<polygon fill="#63b8ff" stroke="#63b8ff" points="392.92,-254.88 403.31,-252.79 393.89,-247.95 392.92,-254.88"/>
</a>
</g>
</g>
<!-- Node16 -->
<g id="Node000016" class="node">
<title>Node16</title>
<g id="a_Node000016"><a xlink:href="classfr_1_1softsf_1_1canscan_1_1_native_image_config_simulator.html#a346e85bc50a5fd264ba680c0c5a3d51a" target="_top" xlink:title="Simulates activating the meeting mode and selecting a start time through the TimePicker.">
<polygon fill="white" stroke="#666666" points="582.38,-100 387.12,-100 387.12,-68 582.38,-68 582.38,-100"/>
<text text-anchor="start" x="395.12" y="-86.5" font-family="Helvetica,sans-Serif" font-size="10.00">fr.softsf.canscan.Native</text>
<text text-anchor="middle" x="484.75" y="-74.5" font-family="Helvetica,sans-Serif" font-size="10.00">ImageConfigSimulator.selectABeginTime</text>
</a>
</g>
</g>
<!-- Node2&#45;&gt;Node16 -->
<g id="edge23_Node000002_Node000016" class="edge">
<title>Node2&#45;&gt;Node16</title>
<g id="a_edge23_Node000002_Node000016"><a xlink:title=" ">
<path fill="none" stroke="#63b8ff" d="M272.75,-216.51C292.34,-189.71 334.85,-136.88 383.75,-109 386.23,-107.58 388.79,-106.25 391.42,-104.99"/>
<polygon fill="#63b8ff" stroke="#63b8ff" points="392.62,-108.28 400.4,-101.09 389.83,-101.86 392.62,-108.28"/>
</a>
</g>
</g>
<!-- Node4 -->
<g id="Node000004" class="node">
<title>Node4</title>
<g id="a_Node000004"><a xlink:href="classfr_1_1softsf_1_1canscan_1_1_native_image_config_simulator.html#aaadd03094f00bbe2258c6e9742be224d" target="_top" xlink:title="Compares two strings and prints the test result with a label.">
<polygon fill="white" stroke="#666666" points="799,-280 626.25,-280 626.25,-248 799,-248 799,-280"/>
<text text-anchor="start" x="634.25" y="-266.5" font-family="Helvetica,sans-Serif" font-size="10.00">fr.softsf.canscan.Native</text>
<text text-anchor="middle" x="712.62" y="-254.5" font-family="Helvetica,sans-Serif" font-size="10.00">ImageConfigSimulator.assertEquals</text>
</a>
</g>
</g>
<!-- Node3&#45;&gt;Node4 -->
<g id="edge3_Node000003_Node000004" class="edge">
<title>Node3&#45;&gt;Node4</title>
<g id="a_edge3_Node000003_Node000004"><a xlink:title=" ">
<path fill="none" stroke="#63b8ff" d="M566.65,-365.53C573.22,-362.92 579.67,-360.08 585.75,-357 622.94,-338.18 660.76,-308.52 685.1,-287.77"/>
<polygon fill="#63b8ff" stroke="#63b8ff" points="687.32,-290.48 692.59,-281.29 682.74,-285.18 687.32,-290.48"/>
</a>
</g>
</g>
<!-- Node5&#45;&gt;Node4 -->
<g id="edge5_Node000005_Node000004" class="edge">
<title>Node5&#45;&gt;Node4</title>
<g id="a_edge5_Node000005_Node000004"><a xlink:title=" ">
<path fill="none" stroke="#63b8ff" d="M571.29,-427.55C576.38,-425.08 581.26,-422.25 585.75,-419 610.03,-401.44 603.55,-385.8 621.75,-362 642.06,-335.44 668.15,-307.57 686.98,-288.37"/>
<polygon fill="#63b8ff" stroke="#63b8ff" points="689.47,-290.84 694.02,-281.27 684.49,-285.91 689.47,-290.84"/>
</a>
</g>
</g>
<!-- Node6 -->
<g id="Node000006" class="node">
<title>Node6</title>
<g id="a_Node000006"><a xlink:href="classfr_1_1softsf_1_1canscan_1_1_native_image_config_simulator.html#ab4d4463dc9177237a8de0a7b6713e7cf" target="_top" xlink:title="Simulates pressing the Enter key using the provided Robot, followed by a short delay.">
<polygon fill="white" stroke="#666666" points="1012.25,-340 849.25,-340 849.25,-308 1012.25,-308 1012.25,-340"/>
<text text-anchor="start" x="857.25" y="-326.5" font-family="Helvetica,sans-Serif" font-size="10.00">fr.softsf.canscan.Native</text>
<text text-anchor="middle" x="930.75" y="-314.5" font-family="Helvetica,sans-Serif" font-size="10.00">ImageConfigSimulator.pressEnter</text>
</a>
</g>
</g>
<!-- Node5&#45;&gt;Node6 -->
<g id="edge6_Node000005_Node000006" class="edge">
<title>Node5&#45;&gt;Node6</title>
<g id="a_edge6_Node000005_Node000006"><a xlink:title=" ">
<path fill="none" stroke="#63b8ff" d="M552.51,-427.55C563.62,-424.74 575.02,-421.82 585.75,-419 681.45,-393.83 791.62,-363.09 860.97,-343.53"/>
<polygon fill="#63b8ff" stroke="#63b8ff" points="861.61,-346.98 870.28,-340.9 859.71,-340.25 861.61,-346.98"/>
</a>
</g>
</g>
<!-- Node7&#45;&gt;Node7 -->
<g id="edge8_Node000007_Node000007" class="edge">
<title>Node7&#45;&gt;Node7</title>
<g id="a_edge8_Node000007_Node000007"><a xlink:title=" ">
<path fill="none" stroke="#63b8ff" d="M444.67,-32.44C437.19,-41.58 450.55,-50 484.75,-50 503.72,-50 516.28,-47.41 522.43,-43.54"/>
<polygon fill="#63b8ff" stroke="#63b8ff" points="525.81,-44.44 524.51,-33.92 518.97,-42.95 525.81,-44.44"/>
</a>
</g>
</g>
<!-- Node8&#45;&gt;Node4 -->
<g id="edge10_Node000008_Node000004" class="edge">
<title>Node8&#45;&gt;Node4</title>
<g id="a_edge10_Node000008_Node000004"><a xlink:title=" ">
<path fill="none" stroke="#63b8ff" d="M561.59,-222.82C587.16,-229.84 615.58,-237.64 640.74,-244.54"/>
<polygon fill="#63b8ff" stroke="#63b8ff" points="639.65,-247.87 650.22,-247.15 641.51,-241.12 639.65,-247.87"/>
</a>
</g>
</g>
<!-- Node9 -->
<g id="Node000009" class="node">
<title>Node9</title>
<g id="a_Node000009"><a xlink:href="classfr_1_1softsf_1_1canscan_1_1_native_image_config_simulator.html#a4795cbc2d8717311fd26b8589a618616" target="_top" xlink:title="Confirms and closes a visible JOptionPane by pressing Enter, then returns the dialog title.">
<polygon fill="white" stroke="#666666" points="789.25,-227 636,-227 636,-183 789.25,-183 789.25,-227"/>
<text text-anchor="start" x="644" y="-213.5" font-family="Helvetica,sans-Serif" font-size="10.00">fr.softsf.canscan.Native</text>
<text text-anchor="start" x="644" y="-201.5" font-family="Helvetica,sans-Serif" font-size="10.00">ImageConfigSimulator.intercept</text>
<text text-anchor="middle" x="712.62" y="-189.5" font-family="Helvetica,sans-Serif" font-size="10.00">AndValideDialog</text>
</a>
</g>
</g>
<!-- Node8&#45;&gt;Node9 -->
<g id="edge11_Node000008_Node000009" class="edge">
<title>Node8&#45;&gt;Node9</title>
<g id="a_edge11_Node000008_Node000009"><a xlink:title=" ">
<path fill="none" stroke="#63b8ff" d="M561.59,-203.01C581.7,-203.27 603.58,-203.57 624.26,-203.84"/>
<polygon fill="#63b8ff" stroke="#63b8ff" points="624.04,-207.34 634.09,-203.97 624.13,-200.34 624.04,-207.34"/>
</a>
</g>
</g>
<!-- Node9&#45;&gt;Node6 -->
<g id="edge14_Node000009_Node000006" class="edge">
<title>Node9&#45;&gt;Node6</title>
<g id="a_edge14_Node000009_Node000006"><a xlink:title=" ">
<path fill="none" stroke="#63b8ff" d="M778.24,-227.37C786.87,-230.96 795.5,-234.86 803.5,-239 838.26,-256.97 875.05,-282.59 899.89,-301"/>
<polygon fill="#63b8ff" stroke="#63b8ff" points="897.48,-303.57 907.58,-306.76 901.68,-297.97 897.48,-303.57"/>
</a>
</g>
</g>
<!-- Node10 -->
<g id="Node000010" class="node">
<title>Node10</title>
<g id="a_Node000010"><a xlink:href="classfr_1_1softsf_1_1canscan_1_1_native_image_config_simulator.html#ac80dbcb1d031bb72c93cf21315c09f27" target="_top" xlink:title="Recursively searches the given container and its descendants for a JOptionPane instance.">
<polygon fill="white" stroke="#666666" points="1022,-221 839.5,-221 839.5,-189 1022,-189 1022,-221"/>
<text text-anchor="start" x="847.5" y="-207.5" font-family="Helvetica,sans-Serif" font-size="10.00">fr.softsf.canscan.Native</text>
<text text-anchor="middle" x="930.75" y="-195.5" font-family="Helvetica,sans-Serif" font-size="10.00">ImageConfigSimulator.findOptionPane</text>
</a>
</g>
</g>
<!-- Node9&#45;&gt;Node10 -->
<g id="edge12_Node000009_Node000010" class="edge">
<title>Node9&#45;&gt;Node10</title>
<g id="a_edge12_Node000009_Node000010"><a xlink:title=" ">
<path fill="none" stroke="#63b8ff" d="M789.52,-205C801.94,-205 814.98,-205 827.9,-205"/>
<polygon fill="#63b8ff" stroke="#63b8ff" points="827.69,-208.5 837.69,-205 827.69,-201.5 827.69,-208.5"/>
</a>
</g>
</g>
<!-- Node10&#45;&gt;Node10 -->
<g id="edge13_Node000010_Node000010" class="edge">
<title>Node10&#45;&gt;Node10</title>
<g id="a_edge13_Node000010_Node000010"><a xlink:title=" ">
<path fill="none" stroke="#63b8ff" d="M891.81,-221.44C884.54,-230.58 897.52,-239 930.75,-239 949.18,-239 961.38,-236.41 967.36,-232.54"/>
<polygon fill="#63b8ff" stroke="#63b8ff" points="970.75,-233.43 969.38,-222.92 963.9,-231.99 970.75,-233.43"/>
</a>
</g>
</g>
<!-- Node11&#45;&gt;Node4 -->
<g id="edge16_Node000011_Node000004" class="edge">
<title>Node11&#45;&gt;Node4</title>
<g id="a_edge16_Node000011_Node000004"><a xlink:title=" ">
<path fill="none" stroke="#63b8ff" d="M569.13,-160.19C575.05,-163.29 580.67,-166.87 585.75,-171 611.37,-191.84 596.14,-215.14 621.75,-236 624.45,-238.2 627.32,-240.23 630.32,-242.1"/>
<polygon fill="#63b8ff" stroke="#63b8ff" points="628.49,-245.08 638.95,-246.81 631.85,-238.94 628.49,-245.08"/>
</a>
</g>
</g>
<!-- Node12 -->
<g id="Node000012" class="node">
<title>Node12</title>
<g id="a_Node000012"><a xlink:href="classfr_1_1softsf_1_1canscan_1_1_native_image_config_simulator.html#acc5424a9d2c1d44c93a045868f58a5ff" target="_top" xlink:title="Simulates typing a full string using the Robot class.">
<polygon fill="white" stroke="#666666" points="792.62,-159 632.62,-159 632.62,-127 792.62,-127 792.62,-159"/>
<text text-anchor="start" x="640.62" y="-145.5" font-family="Helvetica,sans-Serif" font-size="10.00">fr.softsf.canscan.Native</text>
<text text-anchor="middle" x="712.62" y="-133.5" font-family="Helvetica,sans-Serif" font-size="10.00">ImageConfigSimulator.typeString</text>
</a>
</g>
</g>
<!-- Node11&#45;&gt;Node12 -->
<g id="edge17_Node000011_Node000012" class="edge">
<title>Node11&#45;&gt;Node12</title>
<g id="a_edge17_Node000011_Node000012"><a xlink:title=" ">
<path fill="none" stroke="#63b8ff" d="M569.22,-141.11C586.12,-141.33 603.98,-141.57 621.11,-141.8"/>
<polygon fill="#63b8ff" stroke="#63b8ff" points="620.69,-145.29 630.74,-141.93 620.79,-138.29 620.69,-145.29"/>
</a>
</g>
</g>
<!-- Node13 -->
<g id="Node000013" class="node">
<title>Node13</title>
<g id="a_Node000013"><a xlink:href="classfr_1_1softsf_1_1canscan_1_1_native_image_config_simulator.html#a4c1895b6327fef325b1b0c8047bcfcb7" target="_top" xlink:title="Simulates typing a single character using the Robot class.">
<polygon fill="white" stroke="#666666" points="1008.5,-165 853,-165 853,-133 1008.5,-133 1008.5,-165"/>
<text text-anchor="start" x="861" y="-151.5" font-family="Helvetica,sans-Serif" font-size="10.00">fr.softsf.canscan.Native</text>
<text text-anchor="middle" x="930.75" y="-139.5" font-family="Helvetica,sans-Serif" font-size="10.00">ImageConfigSimulator.typeChar</text>
</a>
</g>
</g>
<!-- Node12&#45;&gt;Node13 -->
<g id="edge18_Node000012_Node000013" class="edge">
<title>Node12&#45;&gt;Node13</title>
<g id="a_edge18_Node000012_Node000013"><a xlink:title=" ">
<path fill="none" stroke="#63b8ff" d="M792.87,-145.2C808.73,-145.64 825.48,-146.11 841.62,-146.55"/>
<polygon fill="#63b8ff" stroke="#63b8ff" points="841.07,-150.04 851.16,-146.82 841.26,-143.04 841.07,-150.04"/>
</a>
</g>
</g>
<!-- Node14&#45;&gt;Node4 -->
<g id="edge20_Node000014_Node000004" class="edge">
<title>Node14&#45;&gt;Node4</title>
<g id="a_edge20_Node000014_Node000004"><a xlink:title=" ">
<path fill="none" stroke="#63b8ff" d="M566.98,-303.7C591.11,-297.08 617.34,-289.88 640.75,-283.45"/>
<polygon fill="#63b8ff" stroke="#63b8ff" points="641.47,-286.89 650.19,-280.86 639.62,-280.14 641.47,-286.89"/>
</a>
</g>
</g>
<!-- Node15&#45;&gt;Node4 -->
<g id="edge22_Node000015_Node000004" class="edge">
<title>Node15&#45;&gt;Node4</title>
<g id="a_edge22_Node000015_Node000004"><a xlink:title=" ">
<path fill="none" stroke="#63b8ff" d="M564.75,-264C580.88,-264 598.02,-264 614.69,-264"/>
<polygon fill="#63b8ff" stroke="#63b8ff" points="614.62,-267.5 624.62,-264 614.62,-260.5 614.62,-267.5"/>
</a>
</g>
</g>
<!-- Node16&#45;&gt;Node4 -->
<g id="edge24_Node000016_Node000004" class="edge">
<title>Node16&#45;&gt;Node4</title>
<g id="a_edge24_Node000016_Node000004"><a xlink:title=" ">
<path fill="none" stroke="#63b8ff" d="M574.77,-100.44C578.72,-102.92 582.41,-105.76 585.75,-109 627.88,-149.83 580.8,-193.98 621.75,-236 623.56,-237.85 625.48,-239.59 627.51,-241.2"/>
<polygon fill="#63b8ff" stroke="#63b8ff" points="625.46,-244.04 635.71,-246.74 629.38,-238.24 625.46,-244.04"/>
</a>
</g>
</g>
<!-- Node17 -->
<g id="Node000017" class="node">
<title>Node17</title>
<g id="a_Node000017"><a xlink:href="classfr_1_1softsf_1_1canscan_1_1_native_image_config_simulator.html#aaf2a12382a791fc827de25518f612449" target="_top" xlink:title="Recursively searches for the visible JList across all open windows.">
<polygon fill="white" stroke="#666666" points="803.5,-99 621.75,-99 621.75,-67 803.5,-67 803.5,-99"/>
<text text-anchor="start" x="629.75" y="-85.5" font-family="Helvetica,sans-Serif" font-size="10.00">fr.softsf.canscan.Native</text>
<text text-anchor="middle" x="712.62" y="-73.5" font-family="Helvetica,sans-Serif" font-size="10.00">ImageConfigSimulator.findVisibleJList</text>
</a>
</g>
</g>
<!-- Node16&#45;&gt;Node17 -->
<g id="edge25_Node000016_Node000017" class="edge">
<title>Node16&#45;&gt;Node17</title>
<g id="a_edge25_Node000016_Node000017"><a xlink:title=" ">
<path fill="none" stroke="#63b8ff" d="M582.85,-83.57C591.85,-83.53 600.98,-83.49 610.02,-83.45"/>
<polygon fill="#63b8ff" stroke="#63b8ff" points="609.89,-86.95 619.88,-83.41 609.86,-79.95 609.89,-86.95"/>
</a>
</g>
</g>
<!-- Node18 -->
<g id="Node000018" class="node">
<title>Node18</title>
<g id="a_Node000018"><a xlink:href="classfr_1_1softsf_1_1canscan_1_1_native_image_config_simulator.html#a00f369f6ee9b0eea8bacef585d45b4c0" target="_top" xlink:title="Recursively searches for a JList within a given container.">
<polygon fill="white" stroke="#666666" points="1007,-97 854.5,-97 854.5,-53 1007,-53 1007,-97"/>
<text text-anchor="start" x="862.5" y="-83.5" font-family="Helvetica,sans-Serif" font-size="10.00">fr.softsf.canscan.Native</text>
<text text-anchor="start" x="862.5" y="-71.5" font-family="Helvetica,sans-Serif" font-size="10.00">ImageConfigSimulator.findJList</text>
<text text-anchor="middle" x="930.75" y="-59.5" font-family="Helvetica,sans-Serif" font-size="10.00">InContainer</text>
</a>
</g>
</g>
<!-- Node17&#45;&gt;Node18 -->
<g id="edge26_Node000017_Node000018" class="edge">
<title>Node17&#45;&gt;Node18</title>
<g id="a_edge26_Node000017_Node000018"><a xlink:title=" ">
<path fill="none" stroke="#63b8ff" d="M803.72,-79.67C816.71,-79.18 830.05,-78.69 842.98,-78.21"/>
<polygon fill="#63b8ff" stroke="#63b8ff" points="842.83,-81.72 852.69,-77.85 842.57,-74.72 842.83,-81.72"/>
</a>
</g>
</g>
<!-- Node18&#45;&gt;Node18 -->
<g id="edge27_Node000018_Node000018" class="edge">
<title>Node18&#45;&gt;Node18</title>
<g id="a_edge27_Node000018_Node000018"><a xlink:title=" ">
<path fill="none" stroke="#63b8ff" d="M890.34,-97.21C887.03,-106.8 900.5,-115 930.75,-115 948.71,-115 960.75,-112.11 966.88,-107.75"/>
<polygon fill="#63b8ff" stroke="#63b8ff" points="970.07,-109.2 970.59,-98.61 963.59,-106.57 970.07,-109.2"/>
</a>
</g>
</g>
</g>
</svg>
