<?xml version="1.0" encoding="UTF-8" standalone="no"?>
<!DOCTYPE svg PUBLIC "-//W3C//DTD SVG 1.1//EN"
 "http://www.w3.org/Graphics/SVG/1.1/DTD/svg11.dtd">
<!-- Generated by graphviz version 12.2.1 (20241206.2353)
 -->
<!-- Title: fr.softsf.canscan.CanScan.CanScan Pages: 1 -->
<svg width="1208pt" height="539pt"
 viewBox="0.00 0.00 1208.00 539.01" xmlns="http://www.w3.org/2000/svg" xmlns:xlink="http://www.w3.org/1999/xlink">
<g id="graph0" class="graph" transform="scale(1 1) rotate(0) translate(4 535.01)">
<title>fr.softsf.canscan.CanScan.CanScan</title>
<!-- Node1 -->
<g id="Node000001" class="node">
<title>Node1</title>
<g id="a_Node000001"><a xlink:title="Initializes the CanScan GUI.">
<polygon fill="#999999" stroke="#666666" points="136,-313 0,-313 0,-281 136,-281 136,-313"/>
<text text-anchor="start" x="8" y="-299.5" font-family="Helvetica,sans-Serif" font-size="10.00">fr.softsf.canscan.CanScan.</text>
<text text-anchor="middle" x="68" y="-287.5" font-family="Helvetica,sans-Serif" font-size="10.00">CanScan</text>
</a>
</g>
</g>
<!-- Node1&#45;&gt;Node1 -->
<g id="edge1_Node000001_Node000001" class="edge">
<title>Node1&#45;&gt;Node1</title>
<g id="a_edge1_Node000001_Node000001"><a xlink:title=" ">
<path fill="none" stroke="#63b8ff" d="M32.61,-313.44C26,-322.58 37.8,-331 68,-331 84.52,-331 95.53,-328.48 101.04,-324.71"/>
<polygon fill="#63b8ff" stroke="#63b8ff" points="104.46,-325.43 103.08,-314.92 97.61,-324 104.46,-325.43"/>
</a>
</g>
</g>
<!-- Node2 -->
<g id="Node000002" class="node">
<title>Node2</title>
<g id="a_Node000002"><a xlink:href="classfr_1_1softsf_1_1canscan_1_1_can_scan.html#a2732ecdc4490a717352975e68fce494c" target="_top" xlink:title="Adds a labeled component row to a panel using GridBagLayout.">
<polygon fill="white" stroke="#666666" points="568.5,-489 396.5,-489 396.5,-469 568.5,-469 568.5,-489"/>
<text text-anchor="middle" x="482.5" y="-475.5" font-family="Helvetica,sans-Serif" font-size="10.00">fr.softsf.canscan.CanScan.addRow</text>
</a>
</g>
</g>
<!-- Node1&#45;&gt;Node2 -->
<g id="edge2_Node000001_Node000002" class="edge">
<title>Node1&#45;&gt;Node2</title>
<g id="a_edge2_Node000001_Node000002"><a xlink:title=" ">
<path fill="none" stroke="#63b8ff" d="M71.31,-313.21C78.08,-354 102.04,-460.67 172,-504 259.37,-558.11 388.24,-517.77 448.36,-493.64"/>
<polygon fill="#63b8ff" stroke="#63b8ff" points="449.45,-496.98 457.36,-489.93 446.78,-490.51 449.45,-496.98"/>
</a>
</g>
</g>
<!-- Node3 -->
<g id="Node000003" class="node">
<title>Node3</title>
<g id="a_Node000003"><a xlink:href="classfr_1_1softsf_1_1canscan_1_1_can_scan.html#ad77dc63cc1aac70e3833d39005d42f25" target="_top" xlink:title="Constructs the application window title using metadata from the version properties.">
<polygon fill="white" stroke="#666666" points="344.38,-357 188.12,-357 188.12,-325 344.38,-325 344.38,-357"/>
<text text-anchor="start" x="196.12" y="-343.5" font-family="Helvetica,sans-Serif" font-size="10.00">fr.softsf.canscan.CanScan.build</text>
<text text-anchor="middle" x="266.25" y="-331.5" font-family="Helvetica,sans-Serif" font-size="10.00">Title</text>
</a>
</g>
</g>
<!-- Node1&#45;&gt;Node3 -->
<g id="edge3_Node000001_Node000003" class="edge">
<title>Node1&#45;&gt;Node3</title>
<g id="a_edge3_Node000001_Node000003"><a xlink:title=" ">
<path fill="none" stroke="#63b8ff" d="M136.26,-312.08C150.5,-315.27 165.7,-318.68 180.49,-322"/>
<polygon fill="#63b8ff" stroke="#63b8ff" points="179.69,-325.4 190.22,-324.18 181.22,-318.57 179.69,-325.4"/>
</a>
</g>
</g>
<!-- Node5 -->
<g id="Node000005" class="node">
<title>Node5</title>
<g id="a_Node000005"><a xlink:href="classfr_1_1softsf_1_1canscan_1_1_can_scan.html#a209f22e1225dc963a2f7bde026af1bf9" target="_top" xlink:title="Opens a color chooser dialog and updates the selected color.">
<polygon fill="white" stroke="#666666" points="350,-269 182.5,-269 182.5,-237 350,-237 350,-269"/>
<text text-anchor="start" x="190.5" y="-255.5" font-family="Helvetica,sans-Serif" font-size="10.00">fr.softsf.canscan.CanScan.choose</text>
<text text-anchor="middle" x="266.25" y="-243.5" font-family="Helvetica,sans-Serif" font-size="10.00">Color</text>
</a>
</g>
</g>
<!-- Node1&#45;&gt;Node5 -->
<g id="edge6_Node000001_Node000005" class="edge">
<title>Node1&#45;&gt;Node5</title>
<g id="a_edge6_Node000001_Node000005"><a xlink:title=" ">
<path fill="none" stroke="#63b8ff" d="M136.26,-281.92C150.5,-278.73 165.7,-275.32 180.49,-272"/>
<polygon fill="#63b8ff" stroke="#63b8ff" points="181.22,-275.43 190.22,-269.82 179.69,-268.6 181.22,-275.43"/>
</a>
</g>
</g>
<!-- Node9 -->
<g id="Node000009" class="node">
<title>Node9</title>
<g id="a_Node000009"><a xlink:href="classfr_1_1softsf_1_1canscan_1_1_can_scan.html#aa401982a8aebc5d658e96917e4296d8a" target="_top" xlink:title="Creates a square icon filled with the specified color and a visible border.">
<polygon fill="white" stroke="#666666" points="564,-327 401,-327 401,-295 564,-295 564,-327"/>
<text text-anchor="start" x="409" y="-313.5" font-family="Helvetica,sans-Serif" font-size="10.00">fr.softsf.canscan.CanScan.create</text>
<text text-anchor="middle" x="482.5" y="-301.5" font-family="Helvetica,sans-Serif" font-size="10.00">ColorIcon</text>
</a>
</g>
</g>
<!-- Node1&#45;&gt;Node9 -->
<g id="edge19_Node000001_Node000009" class="edge">
<title>Node1&#45;&gt;Node9</title>
<g id="a_edge19_Node000001_Node000009"><a xlink:title=" ">
<path fill="none" stroke="#63b8ff" d="M136.19,-299.28C205.06,-301.62 312.65,-305.27 389.42,-307.87"/>
<polygon fill="#63b8ff" stroke="#63b8ff" points="388.89,-311.36 399,-308.2 389.13,-304.36 388.89,-311.36"/>
</a>
</g>
</g>
<!-- Node13 -->
<g id="Node000013" class="node">
<title>Node13</title>
<g id="a_Node000013"><a xlink:href="classfr_1_1softsf_1_1canscan_1_1_can_scan.html#a2d26dcd1ae708eae46dba8952351aa1a" target="_top" xlink:title="Builds and returns a QrInput object containing all current user inputs and settings.">
<polygon fill="white" stroke="#666666" points="976.62,-107 827.12,-107 827.12,-75 976.62,-75 976.62,-107"/>
<text text-anchor="start" x="835.12" y="-93.5" font-family="Helvetica,sans-Serif" font-size="10.00">fr.softsf.canscan.CanScan.get</text>
<text text-anchor="middle" x="901.88" y="-81.5" font-family="Helvetica,sans-Serif" font-size="10.00">QrInput</text>
</a>
</g>
</g>
<!-- Node1&#45;&gt;Node13 -->
<g id="edge20_Node000001_Node000013" class="edge">
<title>Node1&#45;&gt;Node13</title>
<g id="a_edge20_Node000001_Node000013"><a xlink:title=" ">
<path fill="none" stroke="#63b8ff" d="M74.9,-280.74C87.46,-248.53 120.01,-176.58 172,-140 370.77,-0.15 680.38,-42.22 823.51,-72.21"/>
<polygon fill="#63b8ff" stroke="#63b8ff" points="822.36,-75.55 832.87,-74.21 823.82,-68.7 822.36,-75.55"/>
</a>
</g>
</g>
<!-- Node18 -->
<g id="Node000018" class="node">
<title>Node18</title>
<g id="a_Node000018"><a xlink:href="classfr_1_1softsf_1_1canscan_1_1_can_scan.html#addd7b7d7f9cc810756dbbb66218414d4" target="_top" xlink:title="Initializes the FREE mode input panel with a multiline text area for arbitrary text or URLs.">
<polygon fill="white" stroke="#666666" points="340.62,-495 191.88,-495 191.88,-463 340.62,-463 340.62,-495"/>
<text text-anchor="start" x="199.88" y="-481.5" font-family="Helvetica,sans-Serif" font-size="10.00">fr.softsf.canscan.CanScan.init</text>
<text text-anchor="middle" x="266.25" y="-469.5" font-family="Helvetica,sans-Serif" font-size="10.00">FreeCard</text>
</a>
</g>
</g>
<!-- Node1&#45;&gt;Node18 -->
<g id="edge21_Node000001_Node000018" class="edge">
<title>Node1&#45;&gt;Node18</title>
<g id="a_edge21_Node000001_Node000018"><a xlink:title=" ">
<path fill="none" stroke="#63b8ff" d="M74.98,-313.15C87.69,-345.16 120.49,-416.75 172,-454 174.99,-456.16 178.15,-458.13 181.44,-459.94"/>
<polygon fill="#63b8ff" stroke="#63b8ff" points="179.72,-463 190.25,-464.19 182.77,-456.69 179.72,-463"/>
</a>
</g>
</g>
<!-- Node19 -->
<g id="Node000019" class="node">
<title>Node19</title>
<g id="a_Node000019"><a xlink:href="classfr_1_1softsf_1_1canscan_1_1_can_scan.html#a4047170747f52f54ee69ddbc834c5373" target="_top" xlink:title="Sets up automatic QR code preview updates for all input fields and controls.">
<polygon fill="white" stroke="#666666" points="351.88,-219 180.62,-219 180.62,-187 351.88,-187 351.88,-219"/>
<text text-anchor="start" x="188.62" y="-205.5" font-family="Helvetica,sans-Serif" font-size="10.00">fr.softsf.canscan.CanScan.initialize</text>
<text text-anchor="middle" x="266.25" y="-193.5" font-family="Helvetica,sans-Serif" font-size="10.00">AutomaticQRCodeRendering</text>
</a>
</g>
</g>
<!-- Node1&#45;&gt;Node19 -->
<g id="edge23_Node000001_Node000019" class="edge">
<title>Node1&#45;&gt;Node19</title>
<g id="a_edge23_Node000001_Node000019"><a xlink:title=" ">
<path fill="none" stroke="#63b8ff" d="M89.11,-280.59C109.06,-265.04 141.03,-242.06 172,-228 175.73,-226.31 179.6,-224.71 183.54,-223.2"/>
<polygon fill="#63b8ff" stroke="#63b8ff" points="184.45,-226.6 192.7,-219.94 182.1,-220 184.45,-226.6"/>
</a>
</g>
</g>
<!-- Node21 -->
<g id="Node000021" class="node">
<title>Node21</title>
<g id="a_Node000021"><a xlink:href="classfr_1_1softsf_1_1canscan_1_1_can_scan.html#ab78c47588f2cb82b4395a1268b3c4ca4" target="_top" xlink:title="Initializes the MECARD input panel with labeled text fields for structured contact information.">
<polygon fill="white" stroke="#666666" points="340.62,-445 191.88,-445 191.88,-413 340.62,-413 340.62,-445"/>
<text text-anchor="start" x="199.88" y="-431.5" font-family="Helvetica,sans-Serif" font-size="10.00">fr.softsf.canscan.CanScan.init</text>
<text text-anchor="middle" x="266.25" y="-419.5" font-family="Helvetica,sans-Serif" font-size="10.00">Mecard</text>
</a>
</g>
</g>
<!-- Node1&#45;&gt;Node21 -->
<g id="edge26_Node000001_Node000021" class="edge">
<title>Node1&#45;&gt;Node21</title>
<g id="a_edge26_Node000001_Node000021"><a xlink:title=" ">
<path fill="none" stroke="#63b8ff" d="M81.2,-313.16C98.87,-335.51 133.71,-375.74 172,-399 177.82,-402.53 184.1,-405.7 190.55,-408.52"/>
<polygon fill="#63b8ff" stroke="#63b8ff" points="188.81,-411.59 199.39,-412.1 191.44,-405.1 188.81,-411.59"/>
</a>
</g>
</g>
<!-- Node22 -->
<g id="Node000022" class="node">
<title>Node22</title>
<g id="a_Node000022"><a xlink:href="classfr_1_1softsf_1_1canscan_1_1_can_scan.html#abbe4fb71ad979d6affed0b2c9629b832" target="_top" xlink:title="Updates the tooltip of the ratio slider to reflect its current value as a percentage.">
<polygon fill="white" stroke="#666666" points="341,-39 191.5,-39 191.5,-7 341,-7 341,-39"/>
<text text-anchor="start" x="199.5" y="-25.5" font-family="Helvetica,sans-Serif" font-size="10.00">fr.softsf.canscan.CanScan.set</text>
<text text-anchor="middle" x="266.25" y="-13.5" font-family="Helvetica,sans-Serif" font-size="10.00">RatioSliderTooltipValue</text>
</a>
</g>
</g>
<!-- Node1&#45;&gt;Node22 -->
<g id="edge28_Node000001_Node000022" class="edge">
<title>Node1&#45;&gt;Node22</title>
<g id="a_edge28_Node000001_Node000022"><a xlink:title=" ">
<path fill="none" stroke="#63b8ff" d="M71.16,-280.67C77.78,-237.14 101.8,-117.27 172,-53 175.29,-49.99 178.89,-47.27 182.7,-44.83"/>
<polygon fill="#63b8ff" stroke="#63b8ff" points="184.2,-48 191.21,-40.06 180.78,-41.9 184.2,-48"/>
</a>
</g>
</g>
<!-- Node23 -->
<g id="Node000023" class="node">
<title>Node23</title>
<g id="a_Node000023"><a xlink:href="classfr_1_1softsf_1_1canscan_1_1_can_scan.html#a428c742b098fa27d4c8984c1030c238d" target="_top" xlink:title="Switches the application between MECARD and FREE QR code modes.">
<polygon fill="white" stroke="#666666" points="360.5,-169 172,-169 172,-149 360.5,-149 360.5,-169"/>
<text text-anchor="middle" x="266.25" y="-155.5" font-family="Helvetica,sans-Serif" font-size="10.00">fr.softsf.canscan.CanScan.switchMode</text>
</a>
</g>
</g>
<!-- Node1&#45;&gt;Node23 -->
<g id="edge29_Node000001_Node000023" class="edge">
<title>Node1&#45;&gt;Node23</title>
<g id="a_edge29_Node000001_Node000023"><a xlink:title=" ">
<path fill="none" stroke="#63b8ff" d="M78.3,-280.51C94.01,-254.3 128.36,-203.52 172,-178 174.65,-176.45 177.41,-175.03 180.24,-173.72"/>
<polygon fill="#63b8ff" stroke="#63b8ff" points="181.42,-177.01 189.38,-170.02 178.8,-170.52 181.42,-177.01"/>
</a>
</g>
</g>
<!-- Node4 -->
<g id="Node000004" class="node">
<title>Node4</title>
<g id="a_Node000004"><a xlink:href="classfr_1_1softsf_1_1canscan_1_1_can_scan.html#aefe4d08d96fdc7b2097daf4033bbbb9c" target="_top" xlink:title="Loads application metadata from the version.properties file.">
<polygon fill="white" stroke="#666666" points="557.25,-393 407.75,-393 407.75,-361 557.25,-361 557.25,-393"/>
<text text-anchor="start" x="415.75" y="-379.5" font-family="Helvetica,sans-Serif" font-size="10.00">fr.softsf.canscan.CanScan.get</text>
<text text-anchor="middle" x="482.5" y="-367.5" font-family="Helvetica,sans-Serif" font-size="10.00">ManifestKeys</text>
</a>
</g>
</g>
<!-- Node3&#45;&gt;Node4 -->
<g id="edge4_Node000003_Node000004" class="edge">
<title>Node3&#45;&gt;Node4</title>
<g id="a_edge4_Node000003_Node000004"><a xlink:title=" ">
<path fill="none" stroke="#63b8ff" d="M344.6,-354C361.41,-356.82 379.29,-359.83 396.38,-362.7"/>
<polygon fill="#63b8ff" stroke="#63b8ff" points="395.55,-366.11 405.99,-364.31 396.71,-359.2 395.55,-366.11"/>
</a>
</g>
</g>
<!-- Node4&#45;&gt;Node1 -->
<g id="edge5_Node000004_Node000001" class="edge">
<title>Node4&#45;&gt;Node1</title>
<g id="a_edge5_Node000004_Node000001"><a xlink:title=" ">
<path fill="none" stroke="#63b8ff" d="M407.31,-385.55C343.36,-390.32 249.37,-391.03 172,-366 143.18,-356.68 114.93,-336.76 95.32,-320.7"/>
<polygon fill="#63b8ff" stroke="#63b8ff" points="97.75,-318.17 87.84,-314.4 93.23,-323.52 97.75,-318.17"/>
</a>
</g>
</g>
<!-- Node6 -->
<g id="Node000006" class="node">
<title>Node6</title>
<g id="a_Node000006"><a xlink:href="classfr_1_1softsf_1_1canscan_1_1_can_scan.html#a224c283143d84ebcfbce9d0058bd93aa" target="_top" xlink:title="Converts a Color object to its hexadecimal RGB string representation.">
<polygon fill="white" stroke="#666666" points="561,-277 404,-277 404,-245 561,-245 561,-277"/>
<text text-anchor="start" x="412" y="-263.5" font-family="Helvetica,sans-Serif" font-size="10.00">fr.softsf.canscan.CanScan.color</text>
<text text-anchor="middle" x="482.5" y="-251.5" font-family="Helvetica,sans-Serif" font-size="10.00">ToHex</text>
</a>
</g>
</g>
<!-- Node5&#45;&gt;Node6 -->
<g id="edge7_Node000005_Node000006" class="edge">
<title>Node5&#45;&gt;Node6</title>
<g id="a_edge7_Node000005_Node000006"><a xlink:title=" ">
<path fill="none" stroke="#63b8ff" d="M350.39,-256.1C364.08,-256.62 378.33,-257.15 392.16,-257.66"/>
<polygon fill="#63b8ff" stroke="#63b8ff" points="392.03,-261.16 402.16,-258.04 392.29,-254.17 392.03,-261.16"/>
</a>
</g>
</g>
<!-- Node5&#45;&gt;Node9 -->
<g id="edge10_Node000005_Node000009" class="edge">
<title>Node5&#45;&gt;Node9</title>
<g id="a_edge10_Node000005_Node000009"><a xlink:title=" ">
<path fill="none" stroke="#63b8ff" d="M328.07,-269.47C353.62,-276.38 383.53,-284.48 410.12,-291.68"/>
<polygon fill="#63b8ff" stroke="#63b8ff" points="408.87,-294.96 419.44,-294.2 410.7,-288.21 408.87,-294.96"/>
</a>
</g>
</g>
<!-- Node10 -->
<g id="Node000010" class="node">
<title>Node10</title>
<g id="a_Node000010"><a xlink:href="classfr_1_1softsf_1_1canscan_1_1_can_scan.html#a9ac2e28615c970404a4408245e62a6fc" target="_top" xlink:title="Schedules a debounced QR code preview update based on the current input and settings.">
<polygon fill="white" stroke="#666666" points="565.12,-227 399.88,-227 399.88,-195 565.12,-195 565.12,-227"/>
<text text-anchor="start" x="407.88" y="-213.5" font-family="Helvetica,sans-Serif" font-size="10.00">fr.softsf.canscan.CanScan.update</text>
<text text-anchor="middle" x="482.5" y="-201.5" font-family="Helvetica,sans-Serif" font-size="10.00">PreviewQRCode</text>
</a>
</g>
</g>
<!-- Node5&#45;&gt;Node10 -->
<g id="edge11_Node000005_Node000010" class="edge">
<title>Node5&#45;&gt;Node10</title>
<g id="a_edge11_Node000005_Node000010"><a xlink:title=" ">
<path fill="none" stroke="#63b8ff" d="M350.39,-236.7C362.85,-234.26 375.78,-231.73 388.43,-229.24"/>
<polygon fill="#63b8ff" stroke="#63b8ff" points="388.84,-232.73 397.98,-227.37 387.49,-225.86 388.84,-232.73"/>
</a>
</g>
</g>
<!-- Node7 -->
<g id="Node000007" class="node">
<title>Node7</title>
<g id="a_Node000007"><a xlink:href="enumfr_1_1softsf_1_1canscan_1_1util_1_1_checker.html#a38aa8db97b16480c728481f1835da11f" target="_top" xlink:title="Checks if the given object is null in a static context and displays an error dialog if so.">
<polygon fill="white" stroke="#666666" points="778.75,-277 604.5,-277 604.5,-245 778.75,-245 778.75,-277"/>
<text text-anchor="start" x="612.5" y="-263.5" font-family="Helvetica,sans-Serif" font-size="10.00">fr.softsf.canscan.util.Checker.check</text>
<text text-anchor="middle" x="691.62" y="-251.5" font-family="Helvetica,sans-Serif" font-size="10.00">StaticNPE</text>
</a>
</g>
</g>
<!-- Node6&#45;&gt;Node7 -->
<g id="edge8_Node000006_Node000007" class="edge">
<title>Node6&#45;&gt;Node7</title>
<g id="a_edge8_Node000006_Node000007"><a xlink:title=" ">
<path fill="none" stroke="#63b8ff" d="M561.21,-261C571.5,-261 582.15,-261 592.72,-261"/>
<polygon fill="#63b8ff" stroke="#63b8ff" points="592.62,-264.5 602.62,-261 592.62,-257.5 592.62,-264.5"/>
</a>
</g>
</g>
<!-- Node8 -->
<g id="Node000008" class="node">
<title>Node8</title>
<g id="a_Node000008"><a xlink:href="enumfr_1_1softsf_1_1canscan_1_1util_1_1_checker.html#af3fc9dd2a33f4d12c5db8cf2aeea17d7" target="_top" xlink:title="Validates that the given object is non&#45;null and, if a String, not blank.">
<polygon fill="white" stroke="#666666" points="989,-277 814.75,-277 814.75,-245 989,-245 989,-277"/>
<text text-anchor="start" x="822.75" y="-263.5" font-family="Helvetica,sans-Serif" font-size="10.00">fr.softsf.canscan.util.Checker.check</text>
<text text-anchor="middle" x="901.88" y="-251.5" font-family="Helvetica,sans-Serif" font-size="10.00">NullOrBlankInternal</text>
</a>
</g>
</g>
<!-- Node7&#45;&gt;Node8 -->
<g id="edge9_Node000007_Node000008" class="edge">
<title>Node7&#45;&gt;Node8</title>
<g id="a_edge9_Node000007_Node000008"><a xlink:title=" ">
<path fill="none" stroke="#63b8ff" d="M779.13,-261C787.03,-261 795.07,-261 803.06,-261"/>
<polygon fill="#63b8ff" stroke="#63b8ff" points="802.79,-264.5 812.79,-261 802.79,-257.5 802.79,-264.5"/>
</a>
</g>
</g>
<!-- Node11 -->
<g id="Node000011" class="node">
<title>Node11</title>
<g id="a_Node000011"><a xlink:href="classfr_1_1softsf_1_1canscan_1_1_can_scan.html#aba5b2671745886284c444b8e3bec80e2" target="_top" xlink:title="Frees the QR code image and its label icon to release memory.">
<polygon fill="white" stroke="#666666" points="767.88,-227 615.38,-227 615.38,-195 767.88,-195 767.88,-227"/>
<text text-anchor="start" x="623.38" y="-213.5" font-family="Helvetica,sans-Serif" font-size="10.00">fr.softsf.canscan.CanScan.free</text>
<text text-anchor="middle" x="691.62" y="-201.5" font-family="Helvetica,sans-Serif" font-size="10.00">QrOriginalAndQrCodeLabel</text>
</a>
</g>
</g>
<!-- Node10&#45;&gt;Node11 -->
<g id="edge12_Node000010_Node000011" class="edge">
<title>Node10&#45;&gt;Node11</title>
<g id="a_edge12_Node000010_Node000011"><a xlink:title=" ">
<path fill="none" stroke="#63b8ff" d="M565.36,-211C577.91,-211 590.91,-211 603.57,-211"/>
<polygon fill="#63b8ff" stroke="#63b8ff" points="603.57,-214.5 613.57,-211 603.57,-207.5 603.57,-214.5"/>
</a>
</g>
</g>
<!-- Node12 -->
<g id="Node000012" class="node">
<title>Node12</title>
<g id="a_Node000012"><a xlink:href="classfr_1_1softsf_1_1canscan_1_1_can_scan.html#a42d6a5e11bc8f147bed036366316564f" target="_top" xlink:title="Clears the current QR code display and starts a background worker to generate a new preview.">
<polygon fill="white" stroke="#666666" points="770.5,-154 612.75,-154 612.75,-122 770.5,-122 770.5,-154"/>
<text text-anchor="start" x="620.75" y="-140.5" font-family="Helvetica,sans-Serif" font-size="10.00">fr.softsf.canscan.CanScan.reset</text>
<text text-anchor="middle" x="691.62" y="-128.5" font-family="Helvetica,sans-Serif" font-size="10.00">AndStartPreviewWorker</text>
</a>
</g>
</g>
<!-- Node10&#45;&gt;Node12 -->
<g id="edge13_Node000010_Node000012" class="edge">
<title>Node10&#45;&gt;Node12</title>
<g id="a_edge13_Node000010_Node000012"><a xlink:title=" ">
<path fill="none" stroke="#63b8ff" d="M541.79,-194.6C550.77,-191.86 559.92,-188.94 568.5,-186 592.58,-177.75 618.9,-167.56 640.92,-158.69"/>
<polygon fill="#63b8ff" stroke="#63b8ff" points="642,-162.03 649.95,-155.03 639.37,-155.54 642,-162.03"/>
</a>
</g>
</g>
<!-- Node12&#45;&gt;Node13 -->
<g id="edge14_Node000012_Node000013" class="edge">
<title>Node12&#45;&gt;Node13</title>
<g id="a_edge14_Node000012_Node000013"><a xlink:title=" ">
<path fill="none" stroke="#63b8ff" d="M765.46,-121.56C782.11,-117.8 799.93,-113.78 816.99,-109.93"/>
<polygon fill="#63b8ff" stroke="#63b8ff" points="817.62,-113.38 826.6,-107.76 816.08,-106.55 817.62,-113.38"/>
</a>
</g>
</g>
<!-- Node14 -->
<g id="Node000014" class="node">
<title>Node14</title>
<g id="a_Node000014"><a xlink:href="classfr_1_1softsf_1_1canscan_1_1_can_scan.html#a22606ca129489c778fbbe17cb8b70697" target="_top" xlink:title="Calculates the available height for QR code rendering.">
<polygon fill="white" stroke="#666666" points="1200,-182 1025,-182 1025,-150 1200,-150 1200,-182"/>
<text text-anchor="start" x="1033" y="-168.5" font-family="Helvetica,sans-Serif" font-size="10.00">fr.softsf.canscan.CanScan.calculate</text>
<text text-anchor="middle" x="1112.5" y="-156.5" font-family="Helvetica,sans-Serif" font-size="10.00">AvailableQrHeight</text>
</a>
</g>
</g>
<!-- Node13&#45;&gt;Node14 -->
<g id="edge15_Node000013_Node000014" class="edge">
<title>Node13&#45;&gt;Node14</title>
<g id="a_edge15_Node000013_Node000014"><a xlink:title=" ">
<path fill="none" stroke="#63b8ff" d="M940.16,-107.48C964.14,-117.78 996.11,-130.95 1025,-141 1030.08,-142.77 1035.37,-144.52 1040.7,-146.21"/>
<polygon fill="#63b8ff" stroke="#63b8ff" points="1039.64,-149.55 1050.23,-149.17 1041.72,-142.86 1039.64,-149.55"/>
</a>
</g>
</g>
<!-- Node15 -->
<g id="Node000015" class="node">
<title>Node15</title>
<g id="a_Node000015"><a xlink:href="classfr_1_1softsf_1_1canscan_1_1_can_scan.html#a4e67b1b5c764e72414a5c0f387810f5c" target="_top" xlink:title="Validates and returns the current QR code margin from the margin slider.">
<polygon fill="white" stroke="#666666" points="1197.38,-132 1027.62,-132 1027.62,-100 1197.38,-100 1197.38,-132"/>
<text text-anchor="start" x="1035.62" y="-118.5" font-family="Helvetica,sans-Serif" font-size="10.00">fr.softsf.canscan.CanScan.validate</text>
<text text-anchor="middle" x="1112.5" y="-106.5" font-family="Helvetica,sans-Serif" font-size="10.00">AndGetMargin</text>
</a>
</g>
</g>
<!-- Node13&#45;&gt;Node15 -->
<g id="edge16_Node000013_Node000015" class="edge">
<title>Node13&#45;&gt;Node15</title>
<g id="a_edge16_Node000013_Node000015"><a xlink:title=" ">
<path fill="none" stroke="#63b8ff" d="M977.02,-99.88C989.61,-101.39 1002.84,-102.98 1015.89,-104.54"/>
<polygon fill="#63b8ff" stroke="#63b8ff" points="1015.44,-108.01 1025.79,-105.73 1016.27,-101.06 1015.44,-108.01"/>
</a>
</g>
</g>
<!-- Node16 -->
<g id="Node000016" class="node">
<title>Node16</title>
<g id="a_Node000016"><a xlink:href="classfr_1_1softsf_1_1canscan_1_1_can_scan.html#a9e8188875168199cde065113ae2a393d" target="_top" xlink:title="Validates and returns the current image&#45;to&#45;QR ratio from the ratio slider.">
<polygon fill="white" stroke="#666666" points="1197.38,-82 1027.62,-82 1027.62,-50 1197.38,-50 1197.38,-82"/>
<text text-anchor="start" x="1035.62" y="-68.5" font-family="Helvetica,sans-Serif" font-size="10.00">fr.softsf.canscan.CanScan.validate</text>
<text text-anchor="middle" x="1112.5" y="-56.5" font-family="Helvetica,sans-Serif" font-size="10.00">AndGetRatio</text>
</a>
</g>
</g>
<!-- Node13&#45;&gt;Node16 -->
<g id="edge17_Node000013_Node000016" class="edge">
<title>Node13&#45;&gt;Node16</title>
<g id="a_edge17_Node000013_Node000016"><a xlink:title=" ">
<path fill="none" stroke="#63b8ff" d="M977.02,-82.12C989.61,-80.61 1002.84,-79.02 1015.89,-77.46"/>
<polygon fill="#63b8ff" stroke="#63b8ff" points="1016.27,-80.94 1025.79,-76.27 1015.44,-73.99 1016.27,-80.94"/>
</a>
</g>
</g>
<!-- Node17 -->
<g id="Node000017" class="node">
<title>Node17</title>
<g id="a_Node000017"><a xlink:href="classfr_1_1softsf_1_1canscan_1_1_can_scan.html#a6d139bb8d0a3c7081096c8956189b684" target="_top" xlink:title="Validates and returns the QR code size from the corresponding text field.">
<polygon fill="white" stroke="#666666" points="1197.38,-32 1027.62,-32 1027.62,0 1197.38,0 1197.38,-32"/>
<text text-anchor="start" x="1035.62" y="-18.5" font-family="Helvetica,sans-Serif" font-size="10.00">fr.softsf.canscan.CanScan.validate</text>
<text text-anchor="middle" x="1112.5" y="-6.5" font-family="Helvetica,sans-Serif" font-size="10.00">AndGetSize</text>
</a>
</g>
</g>
<!-- Node13&#45;&gt;Node17 -->
<g id="edge18_Node000013_Node000017" class="edge">
<title>Node13&#45;&gt;Node17</title>
<g id="a_edge18_Node000013_Node000017"><a xlink:title=" ">
<path fill="none" stroke="#63b8ff" d="M940.16,-74.52C964.14,-64.22 996.11,-51.05 1025,-41 1030.08,-39.23 1035.37,-37.48 1040.7,-35.79"/>
<polygon fill="#63b8ff" stroke="#63b8ff" points="1041.72,-39.14 1050.23,-32.83 1039.64,-32.45 1041.72,-39.14"/>
</a>
</g>
</g>
<!-- Node18&#45;&gt;Node2 -->
<g id="edge22_Node000018_Node000002" class="edge">
<title>Node18&#45;&gt;Node2</title>
<g id="a_edge22_Node000018_Node000002"><a xlink:title=" ">
<path fill="none" stroke="#63b8ff" d="M340.98,-479C355.16,-479 370.21,-479 384.98,-479"/>
<polygon fill="#63b8ff" stroke="#63b8ff" points="384.7,-482.5 394.7,-479 384.7,-475.5 384.7,-482.5"/>
</a>
</g>
</g>
<!-- Node19&#45;&gt;Node10 -->
<g id="edge25_Node000019_Node000010" class="edge">
<title>Node19&#45;&gt;Node10</title>
<g id="a_edge25_Node000019_Node000010"><a xlink:title=" ">
<path fill="none" stroke="#63b8ff" d="M352.23,-206.17C364.01,-206.61 376.16,-207.07 388.08,-207.51"/>
<polygon fill="#63b8ff" stroke="#63b8ff" points="387.78,-211 397.9,-207.88 388.04,-204.01 387.78,-211"/>
</a>
</g>
</g>
<!-- Node20 -->
<g id="Node000020" class="node">
<title>Node20</title>
<g id="a_Node000020"><a xlink:href="classfr_1_1softsf_1_1canscan_1_1_can_scan.html#a9856545d05ef553c8dfddd95a850a360" target="_top" xlink:title="Creates a minimal DocumentListener that executes the given action on any document change.">
<polygon fill="white" stroke="#666666" points="564.75,-177 400.25,-177 400.25,-145 564.75,-145 564.75,-177"/>
<text text-anchor="start" x="408.25" y="-163.5" font-family="Helvetica,sans-Serif" font-size="10.00">fr.softsf.canscan.CanScan.simple</text>
<text text-anchor="middle" x="482.5" y="-151.5" font-family="Helvetica,sans-Serif" font-size="10.00">DocumentListener</text>
</a>
</g>
</g>
<!-- Node19&#45;&gt;Node20 -->
<g id="edge24_Node000019_Node000020" class="edge">
<title>Node19&#45;&gt;Node20</title>
<g id="a_edge24_Node000019_Node000020"><a xlink:title=" ">
<path fill="none" stroke="#63b8ff" d="M351.31,-186.52C363.52,-184.13 376.15,-181.65 388.52,-179.23"/>
<polygon fill="#63b8ff" stroke="#63b8ff" points="389.16,-182.67 398.3,-177.31 387.81,-175.8 389.16,-182.67"/>
</a>
</g>
</g>
<!-- Node21&#45;&gt;Node2 -->
<g id="edge27_Node000021_Node000002" class="edge">
<title>Node21&#45;&gt;Node2</title>
<g id="a_edge27_Node000021_Node000002"><a xlink:title=" ">
<path fill="none" stroke="#63b8ff" d="M337.7,-445.44C366.19,-452.09 398.62,-459.66 425.47,-465.92"/>
<polygon fill="#63b8ff" stroke="#63b8ff" points="424.59,-469.31 435.13,-468.18 426.18,-462.5 424.59,-469.31"/>
</a>
</g>
</g>
<!-- Node23&#45;&gt;Node10 -->
<g id="edge31_Node000023_Node000010" class="edge">
<title>Node23&#45;&gt;Node10</title>
<g id="a_edge31_Node000023_Node000010"><a xlink:title=" ">
<path fill="none" stroke="#63b8ff" d="M321.62,-169.46C334.41,-172.09 347.96,-175.02 360.5,-178 377.62,-182.07 395.98,-186.86 413.1,-191.51"/>
<polygon fill="#63b8ff" stroke="#63b8ff" points="412.12,-194.87 422.69,-194.14 413.97,-188.12 412.12,-194.87"/>
</a>
</g>
</g>
<!-- Node24 -->
<g id="Node000024" class="node">
<title>Node24</title>
<g id="a_Node000024"><a xlink:href="enumfr_1_1softsf_1_1canscan_1_1model_1_1_mode.html#a16a898a11ca939056bd7b275f11ea54c" target="_top" xlink:title="Returns the name of the mode as a string.">
<polygon fill="white" stroke="#666666" points="543.38,-127 421.62,-127 421.62,-95 543.38,-95 543.38,-127"/>
<text text-anchor="start" x="429.62" y="-113.5" font-family="Helvetica,sans-Serif" font-size="10.00">fr.softsf.canscan.model.</text>
<text text-anchor="middle" x="482.5" y="-101.5" font-family="Helvetica,sans-Serif" font-size="10.00">Mode.text</text>
</a>
</g>
</g>
<!-- Node23&#45;&gt;Node24 -->
<g id="edge30_Node000023_Node000024" class="edge">
<title>Node23&#45;&gt;Node24</title>
<g id="a_edge30_Node000023_Node000024"><a xlink:title=" ">
<path fill="none" stroke="#63b8ff" d="M314,-148.53C342.2,-142.21 378.68,-134.04 410.39,-126.93"/>
<polygon fill="#63b8ff" stroke="#63b8ff" points="410.92,-130.4 419.92,-124.8 409.39,-123.57 410.92,-130.4"/>
</a>
</g>
</g>
</g>
</svg>
