<?xml version="1.0" encoding="UTF-8" standalone="no"?>
<!DOCTYPE svg PUBLIC "-//W3C//DTD SVG 1.1//EN"
 "http://www.w3.org/Graphics/SVG/1.1/DTD/svg11.dtd">
<!-- Generated by graphviz version 12.2.1 (20241206.2353)
 -->
<!-- Title: fr.softsf.canscan.CanScan.main Pages: 1 -->
<!--zoomable 539 -->

<svg id="main" version="1.1" xmlns="http://www.w3.org/2000/svg" xmlns:xlink="http://www.w3.org/1999/xlink" xml:space="preserve" onload="init(evt)">

<style type="text/css"><![CDATA[
.node, .edge {opacity: 0.7;}
.node.selected, .edge.selected {opacity: 1;}
.edge:hover path { stroke: red; }
.edge:hover polygon { stroke: red; fill: red; }
]]></style>

<defs>
  <circle id="rim" cx="0" cy="0" r="7"/>
  <circle id="rim2" cx="0" cy="0" r="3.5"/>
  <g id="zoomPlus">
    <use xlink:href="#rim" fill="#404040"><set attributeName="fill" to="#808080" begin="zoomplus.mouseover" end="zoomplus.mouseout"/></use>
    <path d="M-4,0h8M0,-4v8" fill="none" stroke="white" stroke-width="1.5" pointer-events="none"/>
  </g>
  <g id="zoomMin">
    <use xlink:href="#rim" fill="#404040"><set attributeName="fill" to="#808080" begin="zoomminus.mouseover" end="zoomminus.mouseout"/></use>
    <path d="M-4,0h8" fill="none" stroke="white" stroke-width="1.5" pointer-events="none"/>
  </g>
  <g id="arrowUp" transform="translate(30 24)">
    <use xlink:href="#rim"/>
    <path pointer-events="none" fill="none" stroke="white" stroke-width="1.5" d="M0,-3.0v7 M-2.5,-0.5L0,-3.0L2.5,-0.5"/>
  </g>
  <g id="arrowRight" transform="rotate(90) translate(36 -43)">
    <use xlink:href="#rim"/>
    <path pointer-events="none" fill="none" stroke="white" stroke-width="1.5" d="M0,-3.0v7 M-2.5,-0.5L0,-3.0L2.5,-0.5"/>
  </g>
  <g id="arrowDown" transform="rotate(180) translate(-30 -48)">
    <use xlink:href="#rim"/>
    <path pointer-events="none" fill="none" stroke="white" stroke-width="1.5" d="M0,-3.0v7 M-2.5,-0.5L0,-3.0L2.5,-0.5"/>
  </g>
  <g id="arrowLeft" transform="rotate(270) translate(-36 17)">
    <use xlink:href="#rim"/>
    <path pointer-events="none" fill="none" stroke="white" stroke-width="1.5" d="M0,-3.0v7 M-2.5,-0.5L0,-3.0L2.5,-0.5"/>
  </g>
  <g id="resetDef">
    <use xlink:href="#rim2" fill="#404040"><set attributeName="fill" to="#808080" begin="reset.mouseover" end="reset.mouseout"/></use>
  </g>
</defs>
<script type="application/ecmascript">
var viewWidth = 1401;
var viewHeight = 539;
var sectionId = 'dynsection-15';
</script>
<script type="application/ecmascript" xlink:href="svg.min.js"/>
<svg id="graph" class="graph">
<g id="viewport">
<title>fr.softsf.canscan.CanScan.main</title>
<!-- Node1 -->
<g id="Node000001" class="node">
<title>Node1</title>
<g id="a_Node000001"><a xlink:title="Application entry point.">
<polygon fill="#999999" stroke="#666666" points="157,-307 0,-307 0,-287 157,-287 157,-307"/>
<text text-anchor="middle" x="78.5" y="-293.5" font-family="Helvetica,sans-Serif" font-size="10.00">fr.softsf.canscan.CanScan.main</text>
</a>
</g>
</g>
<!-- Node2 -->
<g id="Node000002" class="node">
<title>Node2</title>
<g id="a_Node000002"><a xlink:href="classfr_1_1softsf_1_1canscan_1_1_can_scan.html#a102bcbc6cda608b642e870ba3fde6344" target="_top" xlink:title="Initializes the CanScan GUI.">
<polygon fill="white" stroke="#666666" points="329,-313 193,-313 193,-281 329,-281 329,-313"/>
<text text-anchor="start" x="201" y="-299.5" font-family="Helvetica,sans-Serif" font-size="10.00">fr.softsf.canscan.CanScan.</text>
<text text-anchor="middle" x="261" y="-287.5" font-family="Helvetica,sans-Serif" font-size="10.00">CanScan</text>
</a>
</g>
</g>
<!-- Node1&#45;&gt;Node2 -->
<g id="edge1_Node000001_Node000002" class="edge">
<title>Node1&#45;&gt;Node2</title>
<g id="a_edge1_Node000001_Node000002"><a xlink:title=" ">
<path fill="none" stroke="#63b8ff" d="M157.36,-297C165.24,-297 173.26,-297 181.15,-297"/>
<polygon fill="#63b8ff" stroke="#63b8ff" points="181.09,-300.5 191.09,-297 181.09,-293.5 181.09,-300.5"/>
</a>
</g>
</g>
<!-- Node2&#45;&gt;Node2 -->
<g id="edge2_Node000002_Node000002" class="edge">
<title>Node2&#45;&gt;Node2</title>
<g id="a_edge2_Node000002_Node000002"><a xlink:title=" ">
<path fill="none" stroke="#63b8ff" d="M228.42,-313.44C222.34,-322.58 233.2,-331 261,-331 276.2,-331 286.34,-328.48 291.41,-324.71"/>
<polygon fill="#63b8ff" stroke="#63b8ff" points="294.84,-325.41 293.3,-314.93 287.97,-324.09 294.84,-325.41"/>
</a>
</g>
</g>
<!-- Node3 -->
<g id="Node000003" class="node">
<title>Node3</title>
<g id="a_Node000003"><a xlink:href="classfr_1_1softsf_1_1canscan_1_1_can_scan.html#a2732ecdc4490a717352975e68fce494c" target="_top" xlink:title="Adds a labeled component row to a panel using GridBagLayout.">
<polygon fill="white" stroke="#666666" points="761.5,-489 589.5,-489 589.5,-469 761.5,-469 761.5,-489"/>
<text text-anchor="middle" x="675.5" y="-475.5" font-family="Helvetica,sans-Serif" font-size="10.00">fr.softsf.canscan.CanScan.addRow</text>
</a>
</g>
</g>
<!-- Node2&#45;&gt;Node3 -->
<g id="edge3_Node000002_Node000003" class="edge">
<title>Node2&#45;&gt;Node3</title>
<g id="a_edge3_Node000002_Node000003"><a xlink:title=" ">
<path fill="none" stroke="#63b8ff" d="M264.31,-313.21C271.08,-354 295.04,-460.67 365,-504 452.37,-558.11 581.24,-517.77 641.36,-493.64"/>
<polygon fill="#63b8ff" stroke="#63b8ff" points="642.45,-496.98 650.36,-489.93 639.78,-490.51 642.45,-496.98"/>
</a>
</g>
</g>
<!-- Node4 -->
<g id="Node000004" class="node">
<title>Node4</title>
<g id="a_Node000004"><a xlink:href="classfr_1_1softsf_1_1canscan_1_1_can_scan.html#ad77dc63cc1aac70e3833d39005d42f25" target="_top" xlink:title="Constructs the application window title using metadata from the version properties.">
<polygon fill="white" stroke="#666666" points="537.38,-357 381.12,-357 381.12,-325 537.38,-325 537.38,-357"/>
<text text-anchor="start" x="389.12" y="-343.5" font-family="Helvetica,sans-Serif" font-size="10.00">fr.softsf.canscan.CanScan.build</text>
<text text-anchor="middle" x="459.25" y="-331.5" font-family="Helvetica,sans-Serif" font-size="10.00">Title</text>
</a>
</g>
</g>
<!-- Node2&#45;&gt;Node4 -->
<g id="edge4_Node000002_Node000004" class="edge">
<title>Node2&#45;&gt;Node4</title>
<g id="a_edge4_Node000002_Node000004"><a xlink:title=" ">
<path fill="none" stroke="#63b8ff" d="M329.26,-312.08C343.5,-315.27 358.7,-318.68 373.49,-322"/>
<polygon fill="#63b8ff" stroke="#63b8ff" points="372.69,-325.4 383.22,-324.18 374.22,-318.57 372.69,-325.4"/>
</a>
</g>
</g>
<!-- Node6 -->
<g id="Node000006" class="node">
<title>Node6</title>
<g id="a_Node000006"><a xlink:href="classfr_1_1softsf_1_1canscan_1_1_can_scan.html#a209f22e1225dc963a2f7bde026af1bf9" target="_top" xlink:title="Opens a color chooser dialog and updates the selected color.">
<polygon fill="white" stroke="#666666" points="543,-269 375.5,-269 375.5,-237 543,-237 543,-269"/>
<text text-anchor="start" x="383.5" y="-255.5" font-family="Helvetica,sans-Serif" font-size="10.00">fr.softsf.canscan.CanScan.choose</text>
<text text-anchor="middle" x="459.25" y="-243.5" font-family="Helvetica,sans-Serif" font-size="10.00">Color</text>
</a>
</g>
</g>
<!-- Node2&#45;&gt;Node6 -->
<g id="edge7_Node000002_Node000006" class="edge">
<title>Node2&#45;&gt;Node6</title>
<g id="a_edge7_Node000002_Node000006"><a xlink:title=" ">
<path fill="none" stroke="#63b8ff" d="M329.26,-281.92C343.5,-278.73 358.7,-275.32 373.49,-272"/>
<polygon fill="#63b8ff" stroke="#63b8ff" points="374.22,-275.43 383.22,-269.82 372.69,-268.6 374.22,-275.43"/>
</a>
</g>
</g>
<!-- Node10 -->
<g id="Node000010" class="node">
<title>Node10</title>
<g id="a_Node000010"><a xlink:href="classfr_1_1softsf_1_1canscan_1_1_can_scan.html#aa401982a8aebc5d658e96917e4296d8a" target="_top" xlink:title="Creates a square icon filled with the specified color and a visible border.">
<polygon fill="white" stroke="#666666" points="757,-327 594,-327 594,-295 757,-295 757,-327"/>
<text text-anchor="start" x="602" y="-313.5" font-family="Helvetica,sans-Serif" font-size="10.00">fr.softsf.canscan.CanScan.create</text>
<text text-anchor="middle" x="675.5" y="-301.5" font-family="Helvetica,sans-Serif" font-size="10.00">ColorIcon</text>
</a>
</g>
</g>
<!-- Node2&#45;&gt;Node10 -->
<g id="edge20_Node000002_Node000010" class="edge">
<title>Node2&#45;&gt;Node10</title>
<g id="a_edge20_Node000002_Node000010"><a xlink:title=" ">
<path fill="none" stroke="#63b8ff" d="M329.19,-299.28C398.06,-301.62 505.65,-305.27 582.42,-307.87"/>
<polygon fill="#63b8ff" stroke="#63b8ff" points="581.89,-311.36 592,-308.2 582.13,-304.36 581.89,-311.36"/>
</a>
</g>
</g>
<!-- Node14 -->
<g id="Node000014" class="node">
<title>Node14</title>
<g id="a_Node000014"><a xlink:href="classfr_1_1softsf_1_1canscan_1_1_can_scan.html#a2d26dcd1ae708eae46dba8952351aa1a" target="_top" xlink:title="Builds and returns a QrInput object containing all current user inputs and settings.">
<polygon fill="white" stroke="#666666" points="1169.62,-107 1020.12,-107 1020.12,-75 1169.62,-75 1169.62,-107"/>
<text text-anchor="start" x="1028.12" y="-93.5" font-family="Helvetica,sans-Serif" font-size="10.00">fr.softsf.canscan.CanScan.get</text>
<text text-anchor="middle" x="1094.88" y="-81.5" font-family="Helvetica,sans-Serif" font-size="10.00">QrInput</text>
</a>
</g>
</g>
<!-- Node2&#45;&gt;Node14 -->
<g id="edge21_Node000002_Node000014" class="edge">
<title>Node2&#45;&gt;Node14</title>
<g id="a_edge21_Node000002_Node000014"><a xlink:title=" ">
<path fill="none" stroke="#63b8ff" d="M267.9,-280.74C280.46,-248.53 313.01,-176.58 365,-140 563.77,-0.15 873.38,-42.22 1016.51,-72.21"/>
<polygon fill="#63b8ff" stroke="#63b8ff" points="1015.36,-75.55 1025.87,-74.21 1016.82,-68.7 1015.36,-75.55"/>
</a>
</g>
</g>
<!-- Node19 -->
<g id="Node000019" class="node">
<title>Node19</title>
<g id="a_Node000019"><a xlink:href="classfr_1_1softsf_1_1canscan_1_1_can_scan.html#addd7b7d7f9cc810756dbbb66218414d4" target="_top" xlink:title="Initializes the FREE mode input panel with a multiline text area for arbitrary text or URLs.">
<polygon fill="white" stroke="#666666" points="533.62,-495 384.88,-495 384.88,-463 533.62,-463 533.62,-495"/>
<text text-anchor="start" x="392.88" y="-481.5" font-family="Helvetica,sans-Serif" font-size="10.00">fr.softsf.canscan.CanScan.init</text>
<text text-anchor="middle" x="459.25" y="-469.5" font-family="Helvetica,sans-Serif" font-size="10.00">FreeCard</text>
</a>
</g>
</g>
<!-- Node2&#45;&gt;Node19 -->
<g id="edge22_Node000002_Node000019" class="edge">
<title>Node2&#45;&gt;Node19</title>
<g id="a_edge22_Node000002_Node000019"><a xlink:title=" ">
<path fill="none" stroke="#63b8ff" d="M267.98,-313.15C280.69,-345.16 313.49,-416.75 365,-454 367.99,-456.16 371.15,-458.13 374.44,-459.94"/>
<polygon fill="#63b8ff" stroke="#63b8ff" points="372.72,-463 383.25,-464.19 375.77,-456.69 372.72,-463"/>
</a>
</g>
</g>
<!-- Node20 -->
<g id="Node000020" class="node">
<title>Node20</title>
<g id="a_Node000020"><a xlink:href="classfr_1_1softsf_1_1canscan_1_1_can_scan.html#a4047170747f52f54ee69ddbc834c5373" target="_top" xlink:title="Sets up automatic QR code preview updates for all input fields and controls.">
<polygon fill="white" stroke="#666666" points="544.88,-219 373.62,-219 373.62,-187 544.88,-187 544.88,-219"/>
<text text-anchor="start" x="381.62" y="-205.5" font-family="Helvetica,sans-Serif" font-size="10.00">fr.softsf.canscan.CanScan.initialize</text>
<text text-anchor="middle" x="459.25" y="-193.5" font-family="Helvetica,sans-Serif" font-size="10.00">AutomaticQRCodeRendering</text>
</a>
</g>
</g>
<!-- Node2&#45;&gt;Node20 -->
<g id="edge24_Node000002_Node000020" class="edge">
<title>Node2&#45;&gt;Node20</title>
<g id="a_edge24_Node000002_Node000020"><a xlink:title=" ">
<path fill="none" stroke="#63b8ff" d="M282.11,-280.59C302.06,-265.04 334.03,-242.06 365,-228 368.73,-226.31 372.6,-224.71 376.54,-223.2"/>
<polygon fill="#63b8ff" stroke="#63b8ff" points="377.45,-226.6 385.7,-219.94 375.1,-220 377.45,-226.6"/>
</a>
</g>
</g>
<!-- Node22 -->
<g id="Node000022" class="node">
<title>Node22</title>
<g id="a_Node000022"><a xlink:href="classfr_1_1softsf_1_1canscan_1_1_can_scan.html#ab78c47588f2cb82b4395a1268b3c4ca4" target="_top" xlink:title="Initializes the MECARD input panel with labeled text fields for structured contact information.">
<polygon fill="white" stroke="#666666" points="533.62,-445 384.88,-445 384.88,-413 533.62,-413 533.62,-445"/>
<text text-anchor="start" x="392.88" y="-431.5" font-family="Helvetica,sans-Serif" font-size="10.00">fr.softsf.canscan.CanScan.init</text>
<text text-anchor="middle" x="459.25" y="-419.5" font-family="Helvetica,sans-Serif" font-size="10.00">Mecard</text>
</a>
</g>
</g>
<!-- Node2&#45;&gt;Node22 -->
<g id="edge27_Node000002_Node000022" class="edge">
<title>Node2&#45;&gt;Node22</title>
<g id="a_edge27_Node000002_Node000022"><a xlink:title=" ">
<path fill="none" stroke="#63b8ff" d="M274.2,-313.16C291.87,-335.51 326.71,-375.74 365,-399 370.82,-402.53 377.1,-405.7 383.55,-408.52"/>
<polygon fill="#63b8ff" stroke="#63b8ff" points="381.81,-411.59 392.39,-412.1 384.44,-405.1 381.81,-411.59"/>
</a>
</g>
</g>
<!-- Node23 -->
<g id="Node000023" class="node">
<title>Node23</title>
<g id="a_Node000023"><a xlink:href="classfr_1_1softsf_1_1canscan_1_1_can_scan.html#abbe4fb71ad979d6affed0b2c9629b832" target="_top" xlink:title="Updates the tooltip of the ratio slider to reflect its current value as a percentage.">
<polygon fill="white" stroke="#666666" points="534,-39 384.5,-39 384.5,-7 534,-7 534,-39"/>
<text text-anchor="start" x="392.5" y="-25.5" font-family="Helvetica,sans-Serif" font-size="10.00">fr.softsf.canscan.CanScan.set</text>
<text text-anchor="middle" x="459.25" y="-13.5" font-family="Helvetica,sans-Serif" font-size="10.00">RatioSliderTooltipValue</text>
</a>
</g>
</g>
<!-- Node2&#45;&gt;Node23 -->
<g id="edge29_Node000002_Node000023" class="edge">
<title>Node2&#45;&gt;Node23</title>
<g id="a_edge29_Node000002_Node000023"><a xlink:title=" ">
<path fill="none" stroke="#63b8ff" d="M264.16,-280.67C270.78,-237.14 294.8,-117.27 365,-53 368.29,-49.99 371.89,-47.27 375.7,-44.83"/>
<polygon fill="#63b8ff" stroke="#63b8ff" points="377.2,-48 384.21,-40.06 373.78,-41.9 377.2,-48"/>
</a>
</g>
</g>
<!-- Node24 -->
<g id="Node000024" class="node">
<title>Node24</title>
<g id="a_Node000024"><a xlink:href="classfr_1_1softsf_1_1canscan_1_1_can_scan.html#a428c742b098fa27d4c8984c1030c238d" target="_top" xlink:title="Switches the application between MECARD and FREE QR code modes.">
<polygon fill="white" stroke="#666666" points="553.5,-169 365,-169 365,-149 553.5,-149 553.5,-169"/>
<text text-anchor="middle" x="459.25" y="-155.5" font-family="Helvetica,sans-Serif" font-size="10.00">fr.softsf.canscan.CanScan.switchMode</text>
</a>
</g>
</g>
<!-- Node2&#45;&gt;Node24 -->
<g id="edge30_Node000002_Node000024" class="edge">
<title>Node2&#45;&gt;Node24</title>
<g id="a_edge30_Node000002_Node000024"><a xlink:title=" ">
<path fill="none" stroke="#63b8ff" d="M271.3,-280.51C287.01,-254.3 321.36,-203.52 365,-178 367.65,-176.45 370.41,-175.03 373.24,-173.72"/>
<polygon fill="#63b8ff" stroke="#63b8ff" points="374.42,-177.01 382.38,-170.02 371.8,-170.52 374.42,-177.01"/>
</a>
</g>
</g>
<!-- Node5 -->
<g id="Node000005" class="node">
<title>Node5</title>
<g id="a_Node000005"><a xlink:href="classfr_1_1softsf_1_1canscan_1_1_can_scan.html#aefe4d08d96fdc7b2097daf4033bbbb9c" target="_top" xlink:title="Loads application metadata from the version.properties file.">
<polygon fill="white" stroke="#666666" points="750.25,-393 600.75,-393 600.75,-361 750.25,-361 750.25,-393"/>
<text text-anchor="start" x="608.75" y="-379.5" font-family="Helvetica,sans-Serif" font-size="10.00">fr.softsf.canscan.CanScan.get</text>
<text text-anchor="middle" x="675.5" y="-367.5" font-family="Helvetica,sans-Serif" font-size="10.00">ManifestKeys</text>
</a>
</g>
</g>
<!-- Node4&#45;&gt;Node5 -->
<g id="edge5_Node000004_Node000005" class="edge">
<title>Node4&#45;&gt;Node5</title>
<g id="a_edge5_Node000004_Node000005"><a xlink:title=" ">
<path fill="none" stroke="#63b8ff" d="M537.6,-354C554.41,-356.82 572.29,-359.83 589.38,-362.7"/>
<polygon fill="#63b8ff" stroke="#63b8ff" points="588.55,-366.11 598.99,-364.31 589.71,-359.2 588.55,-366.11"/>
</a>
</g>
</g>
<!-- Node5&#45;&gt;Node2 -->
<g id="edge6_Node000005_Node000002" class="edge">
<title>Node5&#45;&gt;Node2</title>
<g id="a_edge6_Node000005_Node000002"><a xlink:title=" ">
<path fill="none" stroke="#63b8ff" d="M600.31,-385.55C536.36,-390.32 442.37,-391.03 365,-366 336.18,-356.68 307.93,-336.76 288.32,-320.7"/>
<polygon fill="#63b8ff" stroke="#63b8ff" points="290.75,-318.17 280.84,-314.4 286.23,-323.52 290.75,-318.17"/>
</a>
</g>
</g>
<!-- Node7 -->
<g id="Node000007" class="node">
<title>Node7</title>
<g id="a_Node000007"><a xlink:href="classfr_1_1softsf_1_1canscan_1_1_can_scan.html#a224c283143d84ebcfbce9d0058bd93aa" target="_top" xlink:title="Converts a Color object to its hexadecimal RGB string representation.">
<polygon fill="white" stroke="#666666" points="754,-277 597,-277 597,-245 754,-245 754,-277"/>
<text text-anchor="start" x="605" y="-263.5" font-family="Helvetica,sans-Serif" font-size="10.00">fr.softsf.canscan.CanScan.color</text>
<text text-anchor="middle" x="675.5" y="-251.5" font-family="Helvetica,sans-Serif" font-size="10.00">ToHex</text>
</a>
</g>
</g>
<!-- Node6&#45;&gt;Node7 -->
<g id="edge8_Node000006_Node000007" class="edge">
<title>Node6&#45;&gt;Node7</title>
<g id="a_edge8_Node000006_Node000007"><a xlink:title=" ">
<path fill="none" stroke="#63b8ff" d="M543.39,-256.1C557.08,-256.62 571.33,-257.15 585.16,-257.66"/>
<polygon fill="#63b8ff" stroke="#63b8ff" points="585.03,-261.16 595.16,-258.04 585.29,-254.17 585.03,-261.16"/>
</a>
</g>
</g>
<!-- Node6&#45;&gt;Node10 -->
<g id="edge11_Node000006_Node000010" class="edge">
<title>Node6&#45;&gt;Node10</title>
<g id="a_edge11_Node000006_Node000010"><a xlink:title=" ">
<path fill="none" stroke="#63b8ff" d="M521.07,-269.47C546.62,-276.38 576.53,-284.48 603.12,-291.68"/>
<polygon fill="#63b8ff" stroke="#63b8ff" points="601.87,-294.96 612.44,-294.2 603.7,-288.21 601.87,-294.96"/>
</a>
</g>
</g>
<!-- Node11 -->
<g id="Node000011" class="node">
<title>Node11</title>
<g id="a_Node000011"><a xlink:href="classfr_1_1softsf_1_1canscan_1_1_can_scan.html#a9ac2e28615c970404a4408245e62a6fc" target="_top" xlink:title="Schedules a debounced QR code preview update based on the current input and settings.">
<polygon fill="white" stroke="#666666" points="758.12,-227 592.88,-227 592.88,-195 758.12,-195 758.12,-227"/>
<text text-anchor="start" x="600.88" y="-213.5" font-family="Helvetica,sans-Serif" font-size="10.00">fr.softsf.canscan.CanScan.update</text>
<text text-anchor="middle" x="675.5" y="-201.5" font-family="Helvetica,sans-Serif" font-size="10.00">PreviewQRCode</text>
</a>
</g>
</g>
<!-- Node6&#45;&gt;Node11 -->
<g id="edge12_Node000006_Node000011" class="edge">
<title>Node6&#45;&gt;Node11</title>
<g id="a_edge12_Node000006_Node000011"><a xlink:title=" ">
<path fill="none" stroke="#63b8ff" d="M543.39,-236.7C555.85,-234.26 568.78,-231.73 581.43,-229.24"/>
<polygon fill="#63b8ff" stroke="#63b8ff" points="581.84,-232.73 590.98,-227.37 580.49,-225.86 581.84,-232.73"/>
</a>
</g>
</g>
<!-- Node8 -->
<g id="Node000008" class="node">
<title>Node8</title>
<g id="a_Node000008"><a xlink:href="enumfr_1_1softsf_1_1canscan_1_1util_1_1_checker.html#a38aa8db97b16480c728481f1835da11f" target="_top" xlink:title="Checks if the given object is null in a static context and displays an error dialog if so.">
<polygon fill="white" stroke="#666666" points="971.75,-277 797.5,-277 797.5,-245 971.75,-245 971.75,-277"/>
<text text-anchor="start" x="805.5" y="-263.5" font-family="Helvetica,sans-Serif" font-size="10.00">fr.softsf.canscan.util.Checker.check</text>
<text text-anchor="middle" x="884.62" y="-251.5" font-family="Helvetica,sans-Serif" font-size="10.00">StaticNPE</text>
</a>
</g>
</g>
<!-- Node7&#45;&gt;Node8 -->
<g id="edge9_Node000007_Node000008" class="edge">
<title>Node7&#45;&gt;Node8</title>
<g id="a_edge9_Node000007_Node000008"><a xlink:title=" ">
<path fill="none" stroke="#63b8ff" d="M754.21,-261C764.5,-261 775.15,-261 785.72,-261"/>
<polygon fill="#63b8ff" stroke="#63b8ff" points="785.62,-264.5 795.62,-261 785.62,-257.5 785.62,-264.5"/>
</a>
</g>
</g>
<!-- Node9 -->
<g id="Node000009" class="node">
<title>Node9</title>
<g id="a_Node000009"><a xlink:href="enumfr_1_1softsf_1_1canscan_1_1util_1_1_checker.html#af3fc9dd2a33f4d12c5db8cf2aeea17d7" target="_top" xlink:title="Validates that the given object is non&#45;null and, if a String, not blank.">
<polygon fill="white" stroke="#666666" points="1182,-277 1007.75,-277 1007.75,-245 1182,-245 1182,-277"/>
<text text-anchor="start" x="1015.75" y="-263.5" font-family="Helvetica,sans-Serif" font-size="10.00">fr.softsf.canscan.util.Checker.check</text>
<text text-anchor="middle" x="1094.88" y="-251.5" font-family="Helvetica,sans-Serif" font-size="10.00">NullOrBlankInternal</text>
</a>
</g>
</g>
<!-- Node8&#45;&gt;Node9 -->
<g id="edge10_Node000008_Node000009" class="edge">
<title>Node8&#45;&gt;Node9</title>
<g id="a_edge10_Node000008_Node000009"><a xlink:title=" ">
<path fill="none" stroke="#63b8ff" d="M972.13,-261C980.03,-261 988.07,-261 996.06,-261"/>
<polygon fill="#63b8ff" stroke="#63b8ff" points="995.79,-264.5 1005.79,-261 995.79,-257.5 995.79,-264.5"/>
</a>
</g>
</g>
<!-- Node12 -->
<g id="Node000012" class="node">
<title>Node12</title>
<g id="a_Node000012"><a xlink:href="classfr_1_1softsf_1_1canscan_1_1_can_scan.html#aba5b2671745886284c444b8e3bec80e2" target="_top" xlink:title="Frees the QR code image and its label icon to release memory.">
<polygon fill="white" stroke="#666666" points="960.88,-227 808.38,-227 808.38,-195 960.88,-195 960.88,-227"/>
<text text-anchor="start" x="816.38" y="-213.5" font-family="Helvetica,sans-Serif" font-size="10.00">fr.softsf.canscan.CanScan.free</text>
<text text-anchor="middle" x="884.62" y="-201.5" font-family="Helvetica,sans-Serif" font-size="10.00">QrOriginalAndQrCodeLabel</text>
</a>
</g>
</g>
<!-- Node11&#45;&gt;Node12 -->
<g id="edge13_Node000011_Node000012" class="edge">
<title>Node11&#45;&gt;Node12</title>
<g id="a_edge13_Node000011_Node000012"><a xlink:title=" ">
<path fill="none" stroke="#63b8ff" d="M758.36,-211C770.91,-211 783.91,-211 796.57,-211"/>
<polygon fill="#63b8ff" stroke="#63b8ff" points="796.57,-214.5 806.57,-211 796.57,-207.5 796.57,-214.5"/>
</a>
</g>
</g>
<!-- Node13 -->
<g id="Node000013" class="node">
<title>Node13</title>
<g id="a_Node000013"><a xlink:href="classfr_1_1softsf_1_1canscan_1_1_can_scan.html#a42d6a5e11bc8f147bed036366316564f" target="_top" xlink:title="Clears the current QR code display and starts a background worker to generate a new preview.">
<polygon fill="white" stroke="#666666" points="963.5,-154 805.75,-154 805.75,-122 963.5,-122 963.5,-154"/>
<text text-anchor="start" x="813.75" y="-140.5" font-family="Helvetica,sans-Serif" font-size="10.00">fr.softsf.canscan.CanScan.reset</text>
<text text-anchor="middle" x="884.62" y="-128.5" font-family="Helvetica,sans-Serif" font-size="10.00">AndStartPreviewWorker</text>
</a>
</g>
</g>
<!-- Node11&#45;&gt;Node13 -->
<g id="edge14_Node000011_Node000013" class="edge">
<title>Node11&#45;&gt;Node13</title>
<g id="a_edge14_Node000011_Node000013"><a xlink:title=" ">
<path fill="none" stroke="#63b8ff" d="M734.79,-194.6C743.77,-191.86 752.92,-188.94 761.5,-186 785.58,-177.75 811.9,-167.56 833.92,-158.69"/>
<polygon fill="#63b8ff" stroke="#63b8ff" points="835,-162.03 842.95,-155.03 832.37,-155.54 835,-162.03"/>
</a>
</g>
</g>
<!-- Node13&#45;&gt;Node14 -->
<g id="edge15_Node000013_Node000014" class="edge">
<title>Node13&#45;&gt;Node14</title>
<g id="a_edge15_Node000013_Node000014"><a xlink:title=" ">
<path fill="none" stroke="#63b8ff" d="M958.46,-121.56C975.11,-117.8 992.93,-113.78 1009.99,-109.93"/>
<polygon fill="#63b8ff" stroke="#63b8ff" points="1010.62,-113.38 1019.6,-107.76 1009.08,-106.55 1010.62,-113.38"/>
</a>
</g>
</g>
<!-- Node15 -->
<g id="Node000015" class="node">
<title>Node15</title>
<g id="a_Node000015"><a xlink:href="classfr_1_1softsf_1_1canscan_1_1_can_scan.html#a22606ca129489c778fbbe17cb8b70697" target="_top" xlink:title="Calculates the available height for QR code rendering.">
<polygon fill="white" stroke="#666666" points="1393,-182 1218,-182 1218,-150 1393,-150 1393,-182"/>
<text text-anchor="start" x="1226" y="-168.5" font-family="Helvetica,sans-Serif" font-size="10.00">fr.softsf.canscan.CanScan.calculate</text>
<text text-anchor="middle" x="1305.5" y="-156.5" font-family="Helvetica,sans-Serif" font-size="10.00">AvailableQrHeight</text>
</a>
</g>
</g>
<!-- Node14&#45;&gt;Node15 -->
<g id="edge16_Node000014_Node000015" class="edge">
<title>Node14&#45;&gt;Node15</title>
<g id="a_edge16_Node000014_Node000015"><a xlink:title=" ">
<path fill="none" stroke="#63b8ff" d="M1133.16,-107.48C1157.14,-117.78 1189.11,-130.95 1218,-141 1223.08,-142.77 1228.37,-144.52 1233.7,-146.21"/>
<polygon fill="#63b8ff" stroke="#63b8ff" points="1232.64,-149.55 1243.23,-149.17 1234.72,-142.86 1232.64,-149.55"/>
</a>
</g>
</g>
<!-- Node16 -->
<g id="Node000016" class="node">
<title>Node16</title>
<g id="a_Node000016"><a xlink:href="classfr_1_1softsf_1_1canscan_1_1_can_scan.html#a4e67b1b5c764e72414a5c0f387810f5c" target="_top" xlink:title="Validates and returns the current QR code margin from the margin slider.">
<polygon fill="white" stroke="#666666" points="1390.38,-132 1220.62,-132 1220.62,-100 1390.38,-100 1390.38,-132"/>
<text text-anchor="start" x="1228.62" y="-118.5" font-family="Helvetica,sans-Serif" font-size="10.00">fr.softsf.canscan.CanScan.validate</text>
<text text-anchor="middle" x="1305.5" y="-106.5" font-family="Helvetica,sans-Serif" font-size="10.00">AndGetMargin</text>
</a>
</g>
</g>
<!-- Node14&#45;&gt;Node16 -->
<g id="edge17_Node000014_Node000016" class="edge">
<title>Node14&#45;&gt;Node16</title>
<g id="a_edge17_Node000014_Node000016"><a xlink:title=" ">
<path fill="none" stroke="#63b8ff" d="M1170.02,-99.88C1182.61,-101.39 1195.84,-102.98 1208.89,-104.54"/>
<polygon fill="#63b8ff" stroke="#63b8ff" points="1208.44,-108.01 1218.79,-105.73 1209.27,-101.06 1208.44,-108.01"/>
</a>
</g>
</g>
<!-- Node17 -->
<g id="Node000017" class="node">
<title>Node17</title>
<g id="a_Node000017"><a xlink:href="classfr_1_1softsf_1_1canscan_1_1_can_scan.html#a9e8188875168199cde065113ae2a393d" target="_top" xlink:title="Validates and returns the current image&#45;to&#45;QR ratio from the ratio slider.">
<polygon fill="white" stroke="#666666" points="1390.38,-82 1220.62,-82 1220.62,-50 1390.38,-50 1390.38,-82"/>
<text text-anchor="start" x="1228.62" y="-68.5" font-family="Helvetica,sans-Serif" font-size="10.00">fr.softsf.canscan.CanScan.validate</text>
<text text-anchor="middle" x="1305.5" y="-56.5" font-family="Helvetica,sans-Serif" font-size="10.00">AndGetRatio</text>
</a>
</g>
</g>
<!-- Node14&#45;&gt;Node17 -->
<g id="edge18_Node000014_Node000017" class="edge">
<title>Node14&#45;&gt;Node17</title>
<g id="a_edge18_Node000014_Node000017"><a xlink:title=" ">
<path fill="none" stroke="#63b8ff" d="M1170.02,-82.12C1182.61,-80.61 1195.84,-79.02 1208.89,-77.46"/>
<polygon fill="#63b8ff" stroke="#63b8ff" points="1209.27,-80.94 1218.79,-76.27 1208.44,-73.99 1209.27,-80.94"/>
</a>
</g>
</g>
<!-- Node18 -->
<g id="Node000018" class="node">
<title>Node18</title>
<g id="a_Node000018"><a xlink:href="classfr_1_1softsf_1_1canscan_1_1_can_scan.html#a6d139bb8d0a3c7081096c8956189b684" target="_top" xlink:title="Validates and returns the QR code size from the corresponding text field.">
<polygon fill="white" stroke="#666666" points="1390.38,-32 1220.62,-32 1220.62,0 1390.38,0 1390.38,-32"/>
<text text-anchor="start" x="1228.62" y="-18.5" font-family="Helvetica,sans-Serif" font-size="10.00">fr.softsf.canscan.CanScan.validate</text>
<text text-anchor="middle" x="1305.5" y="-6.5" font-family="Helvetica,sans-Serif" font-size="10.00">AndGetSize</text>
</a>
</g>
</g>
<!-- Node14&#45;&gt;Node18 -->
<g id="edge19_Node000014_Node000018" class="edge">
<title>Node14&#45;&gt;Node18</title>
<g id="a_edge19_Node000014_Node000018"><a xlink:title=" ">
<path fill="none" stroke="#63b8ff" d="M1133.16,-74.52C1157.14,-64.22 1189.11,-51.05 1218,-41 1223.08,-39.23 1228.37,-37.48 1233.7,-35.79"/>
<polygon fill="#63b8ff" stroke="#63b8ff" points="1234.72,-39.14 1243.23,-32.83 1232.64,-32.45 1234.72,-39.14"/>
</a>
</g>
</g>
<!-- Node19&#45;&gt;Node3 -->
<g id="edge23_Node000019_Node000003" class="edge">
<title>Node19&#45;&gt;Node3</title>
<g id="a_edge23_Node000019_Node000003"><a xlink:title=" ">
<path fill="none" stroke="#63b8ff" d="M533.98,-479C548.16,-479 563.21,-479 577.98,-479"/>
<polygon fill="#63b8ff" stroke="#63b8ff" points="577.7,-482.5 587.7,-479 577.7,-475.5 577.7,-482.5"/>
</a>
</g>
</g>
<!-- Node20&#45;&gt;Node11 -->
<g id="edge26_Node000020_Node000011" class="edge">
<title>Node20&#45;&gt;Node11</title>
<g id="a_edge26_Node000020_Node000011"><a xlink:title=" ">
<path fill="none" stroke="#63b8ff" d="M545.23,-206.17C557.01,-206.61 569.16,-207.07 581.08,-207.51"/>
<polygon fill="#63b8ff" stroke="#63b8ff" points="580.78,-211 590.9,-207.88 581.04,-204.01 580.78,-211"/>
</a>
</g>
</g>
<!-- Node21 -->
<g id="Node000021" class="node">
<title>Node21</title>
<g id="a_Node000021"><a xlink:href="classfr_1_1softsf_1_1canscan_1_1_can_scan.html#a9856545d05ef553c8dfddd95a850a360" target="_top" xlink:title="Creates a minimal DocumentListener that executes the given action on any document change.">
<polygon fill="white" stroke="#666666" points="757.75,-177 593.25,-177 593.25,-145 757.75,-145 757.75,-177"/>
<text text-anchor="start" x="601.25" y="-163.5" font-family="Helvetica,sans-Serif" font-size="10.00">fr.softsf.canscan.CanScan.simple</text>
<text text-anchor="middle" x="675.5" y="-151.5" font-family="Helvetica,sans-Serif" font-size="10.00">DocumentListener</text>
</a>
</g>
</g>
<!-- Node20&#45;&gt;Node21 -->
<g id="edge25_Node000020_Node000021" class="edge">
<title>Node20&#45;&gt;Node21</title>
<g id="a_edge25_Node000020_Node000021"><a xlink:title=" ">
<path fill="none" stroke="#63b8ff" d="M544.31,-186.52C556.52,-184.13 569.15,-181.65 581.52,-179.23"/>
<polygon fill="#63b8ff" stroke="#63b8ff" points="582.16,-182.67 591.3,-177.31 580.81,-175.8 582.16,-182.67"/>
</a>
</g>
</g>
<!-- Node22&#45;&gt;Node3 -->
<g id="edge28_Node000022_Node000003" class="edge">
<title>Node22&#45;&gt;Node3</title>
<g id="a_edge28_Node000022_Node000003"><a xlink:title=" ">
<path fill="none" stroke="#63b8ff" d="M530.7,-445.44C559.19,-452.09 591.62,-459.66 618.47,-465.92"/>
<polygon fill="#63b8ff" stroke="#63b8ff" points="617.59,-469.31 628.13,-468.18 619.18,-462.5 617.59,-469.31"/>
</a>
</g>
</g>
<!-- Node24&#45;&gt;Node11 -->
<g id="edge32_Node000024_Node000011" class="edge">
<title>Node24&#45;&gt;Node11</title>
<g id="a_edge32_Node000024_Node000011"><a xlink:title=" ">
<path fill="none" stroke="#63b8ff" d="M514.62,-169.46C527.41,-172.09 540.96,-175.02 553.5,-178 570.62,-182.07 588.98,-186.86 606.1,-191.51"/>
<polygon fill="#63b8ff" stroke="#63b8ff" points="605.12,-194.87 615.69,-194.14 606.97,-188.12 605.12,-194.87"/>
</a>
</g>
</g>
<!-- Node25 -->
<g id="Node000025" class="node">
<title>Node25</title>
<g id="a_Node000025"><a xlink:href="enumfr_1_1softsf_1_1canscan_1_1model_1_1_mode.html#a16a898a11ca939056bd7b275f11ea54c" target="_top" xlink:title="Returns the name of the mode as a string.">
<polygon fill="white" stroke="#666666" points="736.38,-127 614.62,-127 614.62,-95 736.38,-95 736.38,-127"/>
<text text-anchor="start" x="622.62" y="-113.5" font-family="Helvetica,sans-Serif" font-size="10.00">fr.softsf.canscan.model.</text>
<text text-anchor="middle" x="675.5" y="-101.5" font-family="Helvetica,sans-Serif" font-size="10.00">Mode.text</text>
</a>
</g>
</g>
<!-- Node24&#45;&gt;Node25 -->
<g id="edge31_Node000024_Node000025" class="edge">
<title>Node24&#45;&gt;Node25</title>
<g id="a_edge31_Node000024_Node000025"><a xlink:title=" ">
<path fill="none" stroke="#63b8ff" d="M507,-148.53C535.2,-142.21 571.68,-134.04 603.39,-126.93"/>
<polygon fill="#63b8ff" stroke="#63b8ff" points="603.92,-130.4 612.92,-124.8 602.39,-123.57 603.92,-130.4"/>
</a>
</g>
</g>
</g>
</svg>

<g id="navigator" transform="translate(0 0)" fill="#404254">
  <rect fill="#f2f5e9" fill-opacity="0.5" stroke="#606060" stroke-width=".5" x="0" y="0" width="60" height="60"/>
  <use id="zoomplus" xlink:href="#zoomPlus" x="17" y="9" onmousedown="handleZoom(evt,'in')"/>
  <use id="zoomminus" xlink:href="#zoomMin" x="42" y="9" onmousedown="handleZoom(evt,'out')"/>
  <use id="reset" xlink:href="#resetDef" x="30" y="36" onmousedown="handleReset()"/>
   <use id="arrowup" xlink:href="#arrowUp" x="0" y="0" onmousedown="handlePan(0,-1)"/>
  <use id="arrowright" xlink:href="#arrowRight" x="0" y="0" onmousedown="handlePan(1,0)"/>
  <use id="arrowdown" xlink:href="#arrowDown" x="0" y="0" onmousedown="handlePan(0,1)"/>
  <use id="arrowleft" xlink:href="#arrowLeft" x="0" y="0" onmousedown="handlePan(-1,0)"/>
</g>
<svg viewBox="0 0 15 15" width="100%" height="30px" preserveAspectRatio="xMaxYMin meet">
 <g id="arrow_out" transform="scale(0.3 0.3)">
  <a xlink:href="classfr_1_1softsf_1_1canscan_1_1_can_scan_a3452eff1010c69d3f01d23dc2fac7e8e_cgraph_org.svg" target="_base">
   <rect id="button" ry="5" rx="5" y="6" x="6" height="38" width="38"
        fill="#f2f5e9" fill-opacity="0.5" stroke="#606060" stroke-width="1.0"/>
   <path id="arrow"
     d="M 11.500037,31.436501 C 11.940474,20.09759 22.043105,11.32322 32.158766,21.979434 L 37.068811,17.246167 C 37.068811,17.246167 37.088388,32 37.088388,32 L 22.160133,31.978069 C 22.160133,31.978069 26.997745,27.140456 26.997745,27.140456 C 18.528582,18.264221 13.291696,25.230495 11.500037,31.436501 z"
     style="fill:#404040;"/>
  </a>
 </g>
</svg>

<style type='text/css'>
<![CDATA[
[data-mouse-over-selected='false'] { opacity: 0.7; }
[data-mouse-over-selected='true']  { opacity: 1.0; }
]]>
</style>
<script type="application/ecmascript"><![CDATA[
document.addEventListener('DOMContentLoaded', (event) => {
  highlightEdges();
  highlightAdjacentNodes();
});
]]></script>
</svg>
