<?xml version="1.0" encoding="UTF-8" standalone="no"?>
<!DOCTYPE svg PUBLIC "-//W3C//DTD SVG 1.1//EN"
 "http://www.w3.org/Graphics/SVG/1.1/DTD/svg11.dtd">
<!-- Generated by graphviz version 12.2.1 (20241206.2353)
 -->
<!-- Title: fr.softsf.canscan.CanScan.initializeNorthPanel Pages: 1 -->
<svg width="1010pt" height="267pt"
 viewBox="0.00 0.00 1009.75 267.00" xmlns="http://www.w3.org/2000/svg" xmlns:xlink="http://www.w3.org/1999/xlink">
<g id="graph0" class="graph" transform="scale(1 1) rotate(0) translate(4 263)">
<title>fr.softsf.canscan.CanScan.initializeNorthPanel</title>
<!-- Node1 -->
<g id="Node000001" class="node">
<title>Node1</title>
<g id="a_Node000001"><a xlink:title="Builds the north panel containing mode selection, card panels, common fields, and the generate button...">
<polygon fill="#999999" stroke="#666666" points="171.25,-132 0,-132 0,-100 171.25,-100 171.25,-132"/>
<text text-anchor="start" x="8" y="-118.5" font-family="Helvetica,sans-Serif" font-size="10.00">fr.softsf.canscan.CanScan.initialize</text>
<text text-anchor="middle" x="85.62" y="-106.5" font-family="Helvetica,sans-Serif" font-size="10.00">NorthPanel</text>
</a>
</g>
</g>
<!-- Node2 -->
<g id="Node000002" class="node">
<title>Node2</title>
<g id="a_Node000002"><a xlink:href="classfr_1_1softsf_1_1canscan_1_1_can_scan.html#ab2e018ca62c7497c29e84f42ae870daa" target="_top" xlink:title="Adds MECARD and Free card panels to the north panel.">
<polygon fill="white" stroke="#666666" points="362,-232 210.25,-232 210.25,-200 362,-200 362,-232"/>
<text text-anchor="start" x="218.25" y="-218.5" font-family="Helvetica,sans-Serif" font-size="10.00">fr.softsf.canscan.CanScan.add</text>
<text text-anchor="middle" x="286.12" y="-206.5" font-family="Helvetica,sans-Serif" font-size="10.00">NorthPanelCardPanels</text>
</a>
</g>
</g>
<!-- Node1&#45;&gt;Node2 -->
<g id="edge1_Node000001_Node000002" class="edge">
<title>Node1&#45;&gt;Node2</title>
<g id="a_edge1_Node000001_Node000002"><a xlink:title=" ">
<path fill="none" stroke="#63b8ff" d="M109.24,-132.43C132.8,-148.96 171.22,-174.32 207.25,-191 210.6,-192.55 214.07,-194.04 217.61,-195.48"/>
<polygon fill="#63b8ff" stroke="#63b8ff" points="216.35,-198.74 226.94,-199.04 218.85,-192.2 216.35,-198.74"/>
</a>
</g>
</g>
<!-- Node5 -->
<g id="Node000005" class="node">
<title>Node5</title>
<g id="a_Node000005"><a xlink:href="classfr_1_1softsf_1_1canscan_1_1_can_scan.html#a94ab4df98de0d05977e6a65ab75f89f0" target="_top" xlink:title="Adds common input fields to the north panel.">
<polygon fill="white" stroke="#666666" points="362,-182 210.25,-182 210.25,-150 362,-150 362,-182"/>
<text text-anchor="start" x="218.25" y="-168.5" font-family="Helvetica,sans-Serif" font-size="10.00">fr.softsf.canscan.CanScan.add</text>
<text text-anchor="middle" x="286.12" y="-156.5" font-family="Helvetica,sans-Serif" font-size="10.00">NorthPanelCommonFields</text>
</a>
</g>
</g>
<!-- Node1&#45;&gt;Node5 -->
<g id="edge4_Node000001_Node000005" class="edge">
<title>Node1&#45;&gt;Node5</title>
<g id="a_edge4_Node000001_Node000005"><a xlink:title=" ">
<path fill="none" stroke="#63b8ff" d="M151.9,-132.44C170.13,-137.03 190.1,-142.06 208.9,-146.8"/>
<polygon fill="#63b8ff" stroke="#63b8ff" points="207.79,-150.13 218.35,-149.18 209.5,-143.34 207.79,-150.13"/>
</a>
</g>
</g>
<!-- Node12 -->
<g id="Node000012" class="node">
<title>Node12</title>
<g id="a_Node000012"><a xlink:href="classfr_1_1softsf_1_1canscan_1_1_can_scan.html#a9f205dfdb266d5d7f8f8899b69742663" target="_top" xlink:title="Adds the generate button to the north panel.">
<polygon fill="white" stroke="#666666" points="362,-132 210.25,-132 210.25,-100 362,-100 362,-132"/>
<text text-anchor="start" x="218.25" y="-118.5" font-family="Helvetica,sans-Serif" font-size="10.00">fr.softsf.canscan.CanScan.add</text>
<text text-anchor="middle" x="286.12" y="-106.5" font-family="Helvetica,sans-Serif" font-size="10.00">NorthPanelGenerateButton</text>
</a>
</g>
</g>
<!-- Node1&#45;&gt;Node12 -->
<g id="edge11_Node000001_Node000012" class="edge">
<title>Node1&#45;&gt;Node12</title>
<g id="a_edge11_Node000001_Node000012"><a xlink:title=" ">
<path fill="none" stroke="#63b8ff" d="M171.67,-116C180.62,-116 189.73,-116 198.7,-116"/>
<polygon fill="#63b8ff" stroke="#63b8ff" points="198.45,-119.5 208.45,-116 198.45,-112.5 198.45,-119.5"/>
</a>
</g>
</g>
<!-- Node13 -->
<g id="Node000013" class="node">
<title>Node13</title>
<g id="a_Node000013"><a xlink:href="classfr_1_1softsf_1_1canscan_1_1_can_scan.html#aa469763b92dd7cbc6dfdb9aaa0116b33" target="_top" xlink:title="Adds mode selection controls (MECARD/Free) to the north panel.">
<polygon fill="white" stroke="#666666" points="362,-82 210.25,-82 210.25,-50 362,-50 362,-82"/>
<text text-anchor="start" x="218.25" y="-68.5" font-family="Helvetica,sans-Serif" font-size="10.00">fr.softsf.canscan.CanScan.add</text>
<text text-anchor="middle" x="286.12" y="-56.5" font-family="Helvetica,sans-Serif" font-size="10.00">NorthPanelModeSelection</text>
</a>
</g>
</g>
<!-- Node1&#45;&gt;Node13 -->
<g id="edge12_Node000001_Node000013" class="edge">
<title>Node1&#45;&gt;Node13</title>
<g id="a_edge12_Node000001_Node000013"><a xlink:title=" ">
<path fill="none" stroke="#63b8ff" d="M151.9,-99.56C170.13,-94.97 190.1,-89.94 208.9,-85.2"/>
<polygon fill="#63b8ff" stroke="#63b8ff" points="209.5,-88.66 218.35,-82.82 207.79,-81.87 209.5,-88.66"/>
</a>
</g>
</g>
<!-- Node18 -->
<g id="Node000018" class="node">
<title>Node18</title>
<g id="a_Node000018"><a xlink:href="classfr_1_1softsf_1_1canscan_1_1_can_scan.html#aeb5550da33925e95999aae23f525f7c5" target="_top" xlink:title="Creates default GridBagConstraints for consistent layout configuration.">
<polygon fill="white" stroke="#666666" points="365,-32 207.25,-32 207.25,0 365,0 365,-32"/>
<text text-anchor="start" x="215.25" y="-18.5" font-family="Helvetica,sans-Serif" font-size="10.00">fr.softsf.canscan.CanScan.north</text>
<text text-anchor="middle" x="286.12" y="-6.5" font-family="Helvetica,sans-Serif" font-size="10.00">PanelGridBagConstraints</text>
</a>
</g>
</g>
<!-- Node1&#45;&gt;Node18 -->
<g id="edge18_Node000001_Node000018" class="edge">
<title>Node1&#45;&gt;Node18</title>
<g id="a_edge18_Node000001_Node000018"><a xlink:title=" ">
<path fill="none" stroke="#63b8ff" d="M109.24,-99.57C132.8,-83.04 171.22,-57.68 207.25,-41 210.6,-39.45 214.07,-37.96 217.61,-36.52"/>
<polygon fill="#63b8ff" stroke="#63b8ff" points="218.85,-39.8 226.94,-32.96 216.35,-33.26 218.85,-39.8"/>
</a>
</g>
</g>
<!-- Node3 -->
<g id="Node000003" class="node">
<title>Node3</title>
<g id="a_Node000003"><a xlink:href="classfr_1_1softsf_1_1canscan_1_1_can_scan.html#a38d65dd319daee1c3288690c17e43ca5" target="_top" xlink:title="Populates the FREE panel with a multiline text area for arbitrary text or URLs.">
<polygon fill="white" stroke="#666666" points="582,-259 408.5,-259 408.5,-239 582,-239 582,-259"/>
<text text-anchor="middle" x="495.25" y="-245.5" font-family="Helvetica,sans-Serif" font-size="10.00">fr.softsf.canscan.CanScan.freeCard</text>
</a>
</g>
</g>
<!-- Node2&#45;&gt;Node3 -->
<g id="edge2_Node000002_Node000003" class="edge">
<title>Node2&#45;&gt;Node3</title>
<g id="a_edge2_Node000002_Node000003"><a xlink:title=" ">
<path fill="none" stroke="#63b8ff" d="M362.49,-228.01C380.32,-230.85 399.35,-233.88 417.25,-236.73"/>
<polygon fill="#63b8ff" stroke="#63b8ff" points="416.6,-240.17 427.03,-238.29 417.7,-233.26 416.6,-240.17"/>
</a>
</g>
</g>
<!-- Node4 -->
<g id="Node000004" class="node">
<title>Node4</title>
<g id="a_Node000004"><a xlink:href="classfr_1_1softsf_1_1canscan_1_1_can_scan.html#aed7e3048974882318a6519d8d36e8ec0" target="_top" xlink:title="Populates the MECARD panel with structured contact fields.">
<polygon fill="white" stroke="#666666" points="579.38,-221 411.12,-221 411.12,-201 579.38,-201 579.38,-221"/>
<text text-anchor="middle" x="495.25" y="-207.5" font-family="Helvetica,sans-Serif" font-size="10.00">fr.softsf.canscan.CanScan.mecard</text>
</a>
</g>
</g>
<!-- Node2&#45;&gt;Node4 -->
<g id="edge3_Node000002_Node000004" class="edge">
<title>Node2&#45;&gt;Node4</title>
<g id="a_edge3_Node000002_Node000004"><a xlink:title=" ">
<path fill="none" stroke="#63b8ff" d="M362.49,-214.18C374.53,-213.89 387.13,-213.59 399.55,-213.29"/>
<polygon fill="#63b8ff" stroke="#63b8ff" points="399.46,-216.79 409.38,-213.05 399.3,-209.79 399.46,-216.79"/>
</a>
</g>
</g>
<!-- Node6 -->
<g id="Node000006" class="node">
<title>Node6</title>
<g id="a_Node000006"><a xlink:href="classfr_1_1softsf_1_1canscan_1_1_can_scan.html#a17b0a72ab305f98f86591411b6a352f2" target="_top" xlink:title="Creates the color selection panel for QR code and background colors.">
<polygon fill="white" stroke="#666666" points="573.75,-179 416.75,-179 416.75,-147 573.75,-147 573.75,-179"/>
<text text-anchor="start" x="424.75" y="-165.5" font-family="Helvetica,sans-Serif" font-size="10.00">fr.softsf.canscan.CanScan.color</text>
<text text-anchor="middle" x="495.25" y="-153.5" font-family="Helvetica,sans-Serif" font-size="10.00">Panel</text>
</a>
</g>
</g>
<!-- Node5&#45;&gt;Node6 -->
<g id="edge5_Node000005_Node000006" class="edge">
<title>Node5&#45;&gt;Node6</title>
<g id="a_edge5_Node000005_Node000006"><a xlink:title=" ">
<path fill="none" stroke="#63b8ff" d="M362.49,-164.91C376.36,-164.71 390.96,-164.5 405.2,-164.29"/>
<polygon fill="#63b8ff" stroke="#63b8ff" points="405.05,-167.79 414.99,-164.15 404.94,-160.79 405.05,-167.79"/>
</a>
</g>
</g>
<!-- Node7 -->
<g id="Node000007" class="node">
<title>Node7</title>
<g id="a_Node000007"><a xlink:href="classfr_1_1softsf_1_1canscan_1_1_can_scan.html#a180290bc488e2346592ded98ccc4b1f3" target="_top" xlink:title="Collects current input and visual settings into a WholeFields for QR code generation.">
<polygon fill="white" stroke="#666666" points="782.88,-167 633.38,-167 633.38,-135 782.88,-135 782.88,-167"/>
<text text-anchor="start" x="641.38" y="-153.5" font-family="Helvetica,sans-Serif" font-size="10.00">fr.softsf.canscan.CanScan.get</text>
<text text-anchor="middle" x="708.12" y="-141.5" font-family="Helvetica,sans-Serif" font-size="10.00">QrInput</text>
</a>
</g>
</g>
<!-- Node6&#45;&gt;Node7 -->
<g id="edge6_Node000006_Node000007" class="edge">
<title>Node6&#45;&gt;Node7</title>
<g id="a_edge6_Node000006_Node000007"><a xlink:title=" ">
<path fill="none" stroke="#63b8ff" d="M574.17,-158.57C589.66,-157.68 605.99,-156.76 621.71,-155.86"/>
<polygon fill="#63b8ff" stroke="#63b8ff" points="621.73,-159.37 631.51,-155.3 621.33,-152.38 621.73,-159.37"/>
</a>
</g>
</g>
<!-- Node8 -->
<g id="Node000008" class="node">
<title>Node8</title>
<g id="a_Node000008"><a xlink:href="classfr_1_1softsf_1_1canscan_1_1_can_scan.html#a381368b99c4a0857c6abe6349b2c6d27" target="_top" xlink:title="Calculates the available height for QR code rendering.">
<polygon fill="white" stroke="#666666" points="1001.75,-242 826.75,-242 826.75,-210 1001.75,-210 1001.75,-242"/>
<text text-anchor="start" x="834.75" y="-228.5" font-family="Helvetica,sans-Serif" font-size="10.00">fr.softsf.canscan.CanScan.calculate</text>
<text text-anchor="middle" x="914.25" y="-216.5" font-family="Helvetica,sans-Serif" font-size="10.00">AvailableQrCodeLabelHeight</text>
</a>
</g>
</g>
<!-- Node7&#45;&gt;Node8 -->
<g id="edge7_Node000007_Node000008" class="edge">
<title>Node7&#45;&gt;Node8</title>
<g id="a_edge7_Node000007_Node000008"><a xlink:title=" ">
<path fill="none" stroke="#63b8ff" d="M744.72,-167.46C767.82,-177.81 798.73,-191.04 826.75,-201 831.73,-202.77 836.91,-204.51 842.15,-206.2"/>
<polygon fill="#63b8ff" stroke="#63b8ff" points="840.89,-209.47 851.48,-209.13 842.98,-202.79 840.89,-209.47"/>
</a>
</g>
</g>
<!-- Node9 -->
<g id="Node000009" class="node">
<title>Node9</title>
<g id="a_Node000009"><a xlink:href="classfr_1_1softsf_1_1canscan_1_1_can_scan.html#a4e67b1b5c764e72414a5c0f387810f5c" target="_top" xlink:title="Validates and returns the current QR code margin from the margin slider.">
<polygon fill="white" stroke="#666666" points="999.12,-192 829.38,-192 829.38,-160 999.12,-160 999.12,-192"/>
<text text-anchor="start" x="837.38" y="-178.5" font-family="Helvetica,sans-Serif" font-size="10.00">fr.softsf.canscan.CanScan.validate</text>
<text text-anchor="middle" x="914.25" y="-166.5" font-family="Helvetica,sans-Serif" font-size="10.00">AndGetMargin</text>
</a>
</g>
</g>
<!-- Node7&#45;&gt;Node9 -->
<g id="edge8_Node000007_Node000009" class="edge">
<title>Node7&#45;&gt;Node9</title>
<g id="a_edge8_Node000007_Node000009"><a xlink:title=" ">
<path fill="none" stroke="#63b8ff" d="M783.11,-160.06C794.43,-161.45 806.26,-162.9 817.97,-164.33"/>
<polygon fill="#63b8ff" stroke="#63b8ff" points="817.28,-167.77 827.63,-165.51 818.13,-160.82 817.28,-167.77"/>
</a>
</g>
</g>
<!-- Node10 -->
<g id="Node000010" class="node">
<title>Node10</title>
<g id="a_Node000010"><a xlink:href="classfr_1_1softsf_1_1canscan_1_1_can_scan.html#a9e8188875168199cde065113ae2a393d" target="_top" xlink:title="Validates and returns the current image&#45;to&#45;QR ratio from the ratio slider.">
<polygon fill="white" stroke="#666666" points="999.12,-142 829.38,-142 829.38,-110 999.12,-110 999.12,-142"/>
<text text-anchor="start" x="837.38" y="-128.5" font-family="Helvetica,sans-Serif" font-size="10.00">fr.softsf.canscan.CanScan.validate</text>
<text text-anchor="middle" x="914.25" y="-116.5" font-family="Helvetica,sans-Serif" font-size="10.00">AndGetRatio</text>
</a>
</g>
</g>
<!-- Node7&#45;&gt;Node10 -->
<g id="edge9_Node000007_Node000010" class="edge">
<title>Node7&#45;&gt;Node10</title>
<g id="a_edge9_Node000007_Node000010"><a xlink:title=" ">
<path fill="none" stroke="#63b8ff" d="M783.11,-141.94C794.43,-140.55 806.26,-139.1 817.97,-137.67"/>
<polygon fill="#63b8ff" stroke="#63b8ff" points="818.13,-141.18 827.63,-136.49 817.28,-134.23 818.13,-141.18"/>
</a>
</g>
</g>
<!-- Node11 -->
<g id="Node000011" class="node">
<title>Node11</title>
<g id="a_Node000011"><a xlink:href="classfr_1_1softsf_1_1canscan_1_1_can_scan.html#a6d139bb8d0a3c7081096c8956189b684" target="_top" xlink:title="Validates and returns the QR code size from the corresponding text field.">
<polygon fill="white" stroke="#666666" points="999.12,-92 829.38,-92 829.38,-60 999.12,-60 999.12,-92"/>
<text text-anchor="start" x="837.38" y="-78.5" font-family="Helvetica,sans-Serif" font-size="10.00">fr.softsf.canscan.CanScan.validate</text>
<text text-anchor="middle" x="914.25" y="-66.5" font-family="Helvetica,sans-Serif" font-size="10.00">AndGetSize</text>
</a>
</g>
</g>
<!-- Node7&#45;&gt;Node11 -->
<g id="edge10_Node000007_Node000011" class="edge">
<title>Node7&#45;&gt;Node11</title>
<g id="a_edge10_Node000007_Node000011"><a xlink:title=" ">
<path fill="none" stroke="#63b8ff" d="M744.72,-134.54C767.82,-124.19 798.73,-110.96 826.75,-101 831.73,-99.23 836.91,-97.49 842.15,-95.8"/>
<polygon fill="#63b8ff" stroke="#63b8ff" points="842.98,-99.21 851.48,-92.87 840.89,-92.53 842.98,-99.21"/>
</a>
</g>
</g>
<!-- Node14 -->
<g id="Node000014" class="node">
<title>Node14</title>
<g id="a_Node000014"><a xlink:href="classfr_1_1softsf_1_1canscan_1_1_can_scan.html#a381579d3adc53b1122b38e7fda5c0235" target="_top" xlink:title="Configures the update button for version checking.">
<polygon fill="white" stroke="#666666" points="583.12,-126 407.38,-126 407.38,-94 583.12,-94 583.12,-126"/>
<text text-anchor="start" x="415.38" y="-112.5" font-family="Helvetica,sans-Serif" font-size="10.00">fr.softsf.canscan.CanScan.configure</text>
<text text-anchor="middle" x="495.25" y="-100.5" font-family="Helvetica,sans-Serif" font-size="10.00">UpdateButton</text>
</a>
</g>
</g>
<!-- Node13&#45;&gt;Node14 -->
<g id="edge13_Node000013_Node000014" class="edge">
<title>Node13&#45;&gt;Node14</title>
<g id="a_edge13_Node000013_Node000014"><a xlink:title=" ">
<path fill="none" stroke="#63b8ff" d="M362.49,-82.01C376.59,-85.01 391.45,-88.16 405.9,-91.23"/>
<polygon fill="#63b8ff" stroke="#63b8ff" points="404.87,-94.59 415.38,-93.24 406.32,-87.74 404.87,-94.59"/>
</a>
</g>
</g>
<!-- Node15 -->
<g id="Node000015" class="node">
<title>Node15</title>
<g id="a_Node000015"><a xlink:href="classfr_1_1softsf_1_1canscan_1_1_can_scan.html#a428c742b098fa27d4c8984c1030c238d" target="_top" xlink:title="Switches the application between MECARD and FREE modes.">
<polygon fill="white" stroke="#666666" points="589.5,-76 401,-76 401,-56 589.5,-56 589.5,-76"/>
<text text-anchor="middle" x="495.25" y="-62.5" font-family="Helvetica,sans-Serif" font-size="10.00">fr.softsf.canscan.CanScan.switchMode</text>
</a>
</g>
</g>
<!-- Node13&#45;&gt;Node15 -->
<g id="edge14_Node000013_Node000015" class="edge">
<title>Node13&#45;&gt;Node15</title>
<g id="a_edge14_Node000013_Node000015"><a xlink:title=" ">
<path fill="none" stroke="#63b8ff" d="M362.49,-66C371.19,-66 380.18,-66 389.18,-66"/>
<polygon fill="#63b8ff" stroke="#63b8ff" points="389.07,-69.5 399.07,-66 389.07,-62.5 389.07,-69.5"/>
</a>
</g>
</g>
<!-- Node15&#45;&gt;Node7 -->
<g id="edge15_Node000015_Node000007" class="edge">
<title>Node15&#45;&gt;Node7</title>
<g id="a_edge15_Node000015_Node000007"><a xlink:title=" ">
<path fill="none" stroke="#63b8ff" d="M560.69,-76.4C570.49,-78.76 580.36,-81.6 589.5,-85 597.87,-88.11 638,-110.94 669.09,-128.88"/>
<polygon fill="#63b8ff" stroke="#63b8ff" points="667.1,-131.77 677.51,-133.75 670.6,-125.71 667.1,-131.77"/>
</a>
</g>
</g>
<!-- Node16 -->
<g id="Node000016" class="node">
<title>Node16</title>
<g id="a_Node000016"><a xlink:href="enumfr_1_1softsf_1_1canscan_1_1model_1_1_mode.html#a16a898a11ca939056bd7b275f11ea54c" target="_top" xlink:title="Returns the mode label.">
<polygon fill="white" stroke="#666666" points="769,-94 647.25,-94 647.25,-62 769,-62 769,-94"/>
<text text-anchor="start" x="655.25" y="-80.5" font-family="Helvetica,sans-Serif" font-size="10.00">fr.softsf.canscan.model.</text>
<text text-anchor="middle" x="708.12" y="-68.5" font-family="Helvetica,sans-Serif" font-size="10.00">Mode.text</text>
</a>
</g>
</g>
<!-- Node15&#45;&gt;Node16 -->
<g id="edge16_Node000015_Node000016" class="edge">
<title>Node15&#45;&gt;Node16</title>
<g id="a_edge16_Node000015_Node000016"><a xlink:title=" ">
<path fill="none" stroke="#63b8ff" d="M589.97,-71.33C605.4,-72.21 621.16,-73.11 635.93,-73.95"/>
<polygon fill="#63b8ff" stroke="#63b8ff" points="635.3,-77.42 645.49,-74.49 635.7,-70.43 635.3,-77.42"/>
</a>
</g>
</g>
<!-- Node17 -->
<g id="Node000017" class="node">
<title>Node17</title>
<g id="a_Node000017"><a xlink:href="classfr_1_1softsf_1_1canscan_1_1_can_scan.html#a11fd9295c4843e6e68f9d1e4a710b906" target="_top" xlink:title="Updates the generate button state based on input validation.">
<polygon fill="white" stroke="#666666" points="790.75,-44 625.5,-44 625.5,-12 790.75,-12 790.75,-44"/>
<text text-anchor="start" x="633.5" y="-30.5" font-family="Helvetica,sans-Serif" font-size="10.00">fr.softsf.canscan.CanScan.update</text>
<text text-anchor="middle" x="708.12" y="-18.5" font-family="Helvetica,sans-Serif" font-size="10.00">GenerateButtonState</text>
</a>
</g>
</g>
<!-- Node15&#45;&gt;Node17 -->
<g id="edge17_Node000015_Node000017" class="edge">
<title>Node15&#45;&gt;Node17</title>
<g id="a_edge17_Node000015_Node000017"><a xlink:title=" ">
<path fill="none" stroke="#63b8ff" d="M554.43,-55.52C572.84,-52.2 593.68,-48.44 613.91,-44.8"/>
<polygon fill="#63b8ff" stroke="#63b8ff" points="614.35,-48.27 623.57,-43.06 613.11,-41.39 614.35,-48.27"/>
</a>
</g>
</g>
</g>
</svg>
