<?xml version="1.0" encoding="UTF-8" standalone="no"?>
<!DOCTYPE svg PUBLIC "-//W3C//DTD SVG 1.1//EN"
 "http://www.w3.org/Graphics/SVG/1.1/DTD/svg11.dtd">
<!-- Generated by graphviz version 12.2.1 (20241206.2353)
 -->
<!-- Title: fr.softsf.canscan.ui.worker.AbstractDynamicWorker.resetAndStartWorker Pages: 1 -->
<svg width="662pt" height="190pt"
 viewBox="0.00 0.00 662.00 190.00" xmlns="http://www.w3.org/2000/svg" xmlns:xlink="http://www.w3.org/1999/xlink">
<g id="graph0" class="graph" transform="scale(1 1) rotate(0) translate(4 186)">
<title>fr.softsf.canscan.ui.worker.AbstractDynamicWorker.resetAndStartWorker</title>
<!-- Node1 -->
<g id="Node000001" class="node">
<title>Node1</title>
<g id="a_Node000001"><a xlink:title="Executes the unified workflow: cancel previous worker, stop debounce, clear resources,...">
<polygon fill="#999999" stroke="#666666" points="185.5,-138 0,-138 0,-94 185.5,-94 185.5,-138"/>
<text text-anchor="start" x="8" y="-124.5" font-family="Helvetica,sans-Serif" font-size="10.00">fr.softsf.canscan.ui.worker.</text>
<text text-anchor="start" x="8" y="-112.5" font-family="Helvetica,sans-Serif" font-size="10.00">AbstractDynamicWorker.resetAndStart</text>
<text text-anchor="middle" x="92.75" y="-100.5" font-family="Helvetica,sans-Serif" font-size="10.00">Worker</text>
</a>
</g>
</g>
<!-- Node2 -->
<g id="Node000002" class="node">
<title>Node2</title>
<g id="a_Node000002"><a xlink:href="classfr_1_1softsf_1_1canscan_1_1ui_1_1worker_1_1_abstract_dynamic_worker.html#a41724b67e6b3ddc601a34457172a0622" target="_top" xlink:title="Creates and returns a new SwingWorker for the current operation.">
<polygon fill="white" stroke="#666666" points="404.75,-157 221.5,-157 221.5,-125 404.75,-125 404.75,-157"/>
<text text-anchor="start" x="229.5" y="-143.5" font-family="Helvetica,sans-Serif" font-size="10.00">fr.softsf.canscan.ui.worker.</text>
<text text-anchor="middle" x="313.12" y="-131.5" font-family="Helvetica,sans-Serif" font-size="10.00">AbstractDynamicWorker.createWorker</text>
</a>
</g>
</g>
<!-- Node1&#45;&gt;Node2 -->
<g id="edge1_Node000001_Node000002" class="edge">
<title>Node1&#45;&gt;Node2</title>
<g id="a_edge1_Node000001_Node000002"><a xlink:title=" ">
<path fill="none" stroke="#63b8ff" d="M185.73,-126.53C193.73,-127.45 201.86,-128.38 209.94,-129.3"/>
<polygon fill="#63b8ff" stroke="#63b8ff" points="209.46,-132.77 219.8,-130.43 210.26,-125.82 209.46,-132.77"/>
</a>
</g>
</g>
<!-- Node3 -->
<g id="Node000003" class="node">
<title>Node3</title>
<g id="a_Node000003"><a xlink:href="classfr_1_1softsf_1_1canscan_1_1ui_1_1worker_1_1_abstract_dynamic_worker.html#ab41292fcd5ef2e86396e25bcccc4e9d4" target="_top" xlink:title="Resets the current worker and associated resources.">
<polygon fill="white" stroke="#666666" points="402.12,-107 224.12,-107 224.12,-75 402.12,-75 402.12,-107"/>
<text text-anchor="start" x="232.12" y="-93.5" font-family="Helvetica,sans-Serif" font-size="10.00">fr.softsf.canscan.ui.worker.</text>
<text text-anchor="middle" x="313.12" y="-81.5" font-family="Helvetica,sans-Serif" font-size="10.00">AbstractDynamicWorker.resetWorker</text>
</a>
</g>
</g>
<!-- Node1&#45;&gt;Node3 -->
<g id="edge2_Node000001_Node000003" class="edge">
<title>Node1&#45;&gt;Node3</title>
<g id="a_edge2_Node000001_Node000003"><a xlink:title=" ">
<path fill="none" stroke="#63b8ff" d="M185.73,-105.47C194.58,-104.46 203.59,-103.43 212.51,-102.4"/>
<polygon fill="#63b8ff" stroke="#63b8ff" points="212.7,-105.91 222.24,-101.29 211.9,-98.95 212.7,-105.91"/>
</a>
</g>
</g>
<!-- Node4 -->
<g id="Node000004" class="node">
<title>Node4</title>
<g id="a_Node000004"><a xlink:href="classfr_1_1softsf_1_1canscan_1_1ui_1_1worker_1_1_abstract_dynamic_worker.html#aa3eebdde5dae919a4d905ef2d2d4a8fb" target="_top" xlink:title="Cancels the current SwingWorker and clears its reference safely.">
<polygon fill="white" stroke="#666666" points="639.75,-182 455,-182 455,-150 639.75,-150 639.75,-182"/>
<text text-anchor="start" x="463" y="-168.5" font-family="Helvetica,sans-Serif" font-size="10.00">fr.softsf.canscan.ui.worker.</text>
<text text-anchor="middle" x="547.38" y="-156.5" font-family="Helvetica,sans-Serif" font-size="10.00">AbstractDynamicWorker.cancelWorker</text>
</a>
</g>
</g>
<!-- Node3&#45;&gt;Node4 -->
<g id="edge3_Node000003_Node000004" class="edge">
<title>Node3&#45;&gt;Node4</title>
<g id="a_edge3_Node000003_Node000004"><a xlink:title=" ">
<path fill="none" stroke="#63b8ff" d="M383.3,-107.44C390.67,-109.97 397.95,-112.82 404.75,-116 422.39,-124.26 422.96,-133.06 440.75,-141 444.59,-142.71 448.56,-144.32 452.62,-145.82"/>
<polygon fill="#63b8ff" stroke="#63b8ff" points="451.47,-149.13 462.07,-149.07 453.75,-142.51 451.47,-149.13"/>
</a>
</g>
</g>
<!-- Node5 -->
<g id="Node000005" class="node">
<title>Node5</title>
<g id="a_Node000005"><a xlink:href="classfr_1_1softsf_1_1canscan_1_1ui_1_1worker_1_1_abstract_dynamic_worker.html#a49ea00730d7f891f40c32550130625df" target="_top" xlink:title="Clears any allocated data, icons, or buffers before starting a new task.">
<polygon fill="white" stroke="#666666" points="644.25,-132 450.5,-132 450.5,-100 644.25,-100 644.25,-132"/>
<text text-anchor="start" x="458.5" y="-118.5" font-family="Helvetica,sans-Serif" font-size="10.00">fr.softsf.canscan.ui.worker.</text>
<text text-anchor="middle" x="547.38" y="-106.5" font-family="Helvetica,sans-Serif" font-size="10.00">AbstractDynamicWorker.clearResources</text>
</a>
</g>
</g>
<!-- Node3&#45;&gt;Node5 -->
<g id="edge4_Node000003_Node000005" class="edge">
<title>Node3&#45;&gt;Node5</title>
<g id="a_edge4_Node000003_Node000005"><a xlink:title=" ">
<path fill="none" stroke="#63b8ff" d="M402.59,-100.52C414.47,-101.8 426.75,-103.12 438.91,-104.43"/>
<polygon fill="#63b8ff" stroke="#63b8ff" points="438.2,-107.88 448.52,-105.47 438.95,-100.92 438.2,-107.88"/>
</a>
</g>
</g>
<!-- Node6 -->
<g id="Node000006" class="node">
<title>Node6</title>
<g id="a_Node000006"><a xlink:href="classfr_1_1softsf_1_1canscan_1_1ui_1_1worker_1_1_abstract_dynamic_worker.html#a04dbe18f6ba608487e5170c1c3ac391a" target="_top" xlink:title="Stops and clears the debounce timer.">
<polygon fill="white" stroke="#666666" points="654,-82 440.75,-82 440.75,-50 654,-50 654,-82"/>
<text text-anchor="start" x="448.75" y="-68.5" font-family="Helvetica,sans-Serif" font-size="10.00">fr.softsf.canscan.ui.worker.</text>
<text text-anchor="middle" x="547.38" y="-56.5" font-family="Helvetica,sans-Serif" font-size="10.00">AbstractDynamicWorker.stopDebounceTimer</text>
</a>
</g>
</g>
<!-- Node3&#45;&gt;Node6 -->
<g id="edge5_Node000003_Node000006" class="edge">
<title>Node3&#45;&gt;Node6</title>
<g id="a_edge5_Node000003_Node000006"><a xlink:title=" ">
<path fill="none" stroke="#63b8ff" d="M402.59,-81.48C411.33,-80.54 420.3,-79.57 429.27,-78.61"/>
<polygon fill="#63b8ff" stroke="#63b8ff" points="429.55,-82.1 439.12,-77.55 428.8,-75.14 429.55,-82.1"/>
</a>
</g>
</g>
<!-- Node7 -->
<g id="Node000007" class="node">
<title>Node7</title>
<g id="a_Node000007"><a xlink:href="classfr_1_1softsf_1_1canscan_1_1ui_1_1worker_1_1_abstract_dynamic_worker.html#abba94ac3074b49f7bfcf9669f8a68b67" target="_top" xlink:title="Stops the loader&#39;s wait indicator.">
<polygon fill="white" stroke="#666666" points="634.12,-32 460.62,-32 460.62,0 634.12,0 634.12,-32"/>
<text text-anchor="start" x="468.62" y="-18.5" font-family="Helvetica,sans-Serif" font-size="10.00">fr.softsf.canscan.ui.worker.</text>
<text text-anchor="middle" x="547.38" y="-6.5" font-family="Helvetica,sans-Serif" font-size="10.00">AbstractDynamicWorker.stopLoader</text>
</a>
</g>
</g>
<!-- Node3&#45;&gt;Node7 -->
<g id="edge6_Node000003_Node000007" class="edge">
<title>Node3&#45;&gt;Node7</title>
<g id="a_edge6_Node000003_Node000007"><a xlink:title=" ">
<path fill="none" stroke="#63b8ff" d="M351.57,-74.57C376.51,-64.04 410.19,-50.59 440.75,-41 446.97,-39.05 453.44,-37.17 459.97,-35.37"/>
<polygon fill="#63b8ff" stroke="#63b8ff" points="460.77,-38.78 469.54,-32.83 458.97,-32.02 460.77,-38.78"/>
</a>
</g>
</g>
</g>
</svg>
