<?xml version="1.0" encoding="UTF-8" standalone="no"?>
<!DOCTYPE svg PUBLIC "-//W3C//DTD SVG 1.1//EN"
 "http://www.w3.org/Graphics/SVG/1.1/DTD/svg11.dtd">
<!-- Generated by graphviz version 12.2.1 (20241206.2353)
 -->
<!-- Title: fr.softsf.canscan.ui.worker.AbstractDynamicWorker.handleWorkerDone Pages: 1 -->
<!--zoomable 231 -->

<svg id="main" version="1.1" xmlns="http://www.w3.org/2000/svg" xmlns:xlink="http://www.w3.org/1999/xlink" xml:space="preserve" onload="init(evt)">

<style type="text/css"><![CDATA[
.node, .edge {opacity: 0.7;}
.node.selected, .edge.selected {opacity: 1;}
.edge:hover path { stroke: red; }
.edge:hover polygon { stroke: red; fill: red; }
]]></style>

<defs>
  <circle id="rim" cx="0" cy="0" r="7"/>
  <circle id="rim2" cx="0" cy="0" r="3.5"/>
  <g id="zoomPlus">
    <use xlink:href="#rim" fill="#404040"><set attributeName="fill" to="#808080" begin="zoomplus.mouseover" end="zoomplus.mouseout"/></use>
    <path d="M-4,0h8M0,-4v8" fill="none" stroke="white" stroke-width="1.5" pointer-events="none"/>
  </g>
  <g id="zoomMin">
    <use xlink:href="#rim" fill="#404040"><set attributeName="fill" to="#808080" begin="zoomminus.mouseover" end="zoomminus.mouseout"/></use>
    <path d="M-4,0h8" fill="none" stroke="white" stroke-width="1.5" pointer-events="none"/>
  </g>
  <g id="arrowUp" transform="translate(30 24)">
    <use xlink:href="#rim"/>
    <path pointer-events="none" fill="none" stroke="white" stroke-width="1.5" d="M0,-3.0v7 M-2.5,-0.5L0,-3.0L2.5,-0.5"/>
  </g>
  <g id="arrowRight" transform="rotate(90) translate(36 -43)">
    <use xlink:href="#rim"/>
    <path pointer-events="none" fill="none" stroke="white" stroke-width="1.5" d="M0,-3.0v7 M-2.5,-0.5L0,-3.0L2.5,-0.5"/>
  </g>
  <g id="arrowDown" transform="rotate(180) translate(-30 -48)">
    <use xlink:href="#rim"/>
    <path pointer-events="none" fill="none" stroke="white" stroke-width="1.5" d="M0,-3.0v7 M-2.5,-0.5L0,-3.0L2.5,-0.5"/>
  </g>
  <g id="arrowLeft" transform="rotate(270) translate(-36 17)">
    <use xlink:href="#rim"/>
    <path pointer-events="none" fill="none" stroke="white" stroke-width="1.5" d="M0,-3.0v7 M-2.5,-0.5L0,-3.0L2.5,-0.5"/>
  </g>
  <g id="resetDef">
    <use xlink:href="#rim2" fill="#404040"><set attributeName="fill" to="#808080" begin="reset.mouseover" end="reset.mouseout"/></use>
  </g>
</defs>
<script type="application/ecmascript">
var viewWidth = 920;
var viewHeight = 231;
var sectionId = 'dynsection-3';
</script>
<script type="application/ecmascript" xlink:href="svg.min.js"/>
<svg id="graph" class="graph">
<g id="viewport">
<title>fr.softsf.canscan.ui.worker.AbstractDynamicWorker.handleWorkerDone</title>
<!-- Node1 -->
<g id="Node000001" class="node">
<title>Node1</title>
<g id="a_Node000001"><a xlink:title="Handles the completion of the current SwingWorker task.">
<polygon fill="#999999" stroke="#666666" points="208,-76 0,-76 0,-44 208,-44 208,-76"/>
<text text-anchor="start" x="8" y="-62.5" font-family="Helvetica,sans-Serif" font-size="10.00">fr.softsf.canscan.ui.worker.</text>
<text text-anchor="middle" x="104" y="-50.5" font-family="Helvetica,sans-Serif" font-size="10.00">AbstractDynamicWorker.handleWorkerDone</text>
</a>
</g>
</g>
<!-- Node2 -->
<g id="Node000002" class="node">
<title>Node2</title>
<g id="a_Node000002"><a xlink:href="classfr_1_1softsf_1_1canscan_1_1ui_1_1worker_1_1_abstract_dynamic_worker.html#a9ffd2ce1950a39947799c5d61c787c82" target="_top" xlink:title="Called when the worker fails or is cancelled.">
<polygon fill="white" stroke="#666666" points="444.5,-121 248.5,-121 248.5,-89 444.5,-89 444.5,-121"/>
<text text-anchor="start" x="256.5" y="-107.5" font-family="Helvetica,sans-Serif" font-size="10.00">fr.softsf.canscan.ui.worker.</text>
<text text-anchor="middle" x="346.5" y="-95.5" font-family="Helvetica,sans-Serif" font-size="10.00">AbstractDynamicWorker.onWorkerFailure</text>
</a>
</g>
</g>
<!-- Node1&#45;&gt;Node2 -->
<g id="edge1_Node000001_Node000002" class="edge">
<title>Node1&#45;&gt;Node2</title>
<g id="a_edge1_Node000001_Node000002"><a xlink:title=" ">
<path fill="none" stroke="#63b8ff" d="M192.85,-76.44C210.21,-79.69 228.55,-83.12 246.26,-86.43"/>
<polygon fill="#63b8ff" stroke="#63b8ff" points="245.53,-89.85 256,-88.25 246.82,-82.97 245.53,-89.85"/>
</a>
</g>
</g>
<!-- Node7 -->
<g id="Node000007" class="node">
<title>Node7</title>
<g id="a_Node000007"><a xlink:href="classfr_1_1softsf_1_1canscan_1_1ui_1_1worker_1_1_abstract_dynamic_worker.html#abba94ac3074b49f7bfcf9669f8a68b67" target="_top" xlink:title="Stops the loader&#39;s wait indicator.">
<polygon fill="white" stroke="#666666" points="892.38,-73 718.88,-73 718.88,-41 892.38,-41 892.38,-73"/>
<text text-anchor="start" x="726.88" y="-59.5" font-family="Helvetica,sans-Serif" font-size="10.00">fr.softsf.canscan.ui.worker.</text>
<text text-anchor="middle" x="805.62" y="-47.5" font-family="Helvetica,sans-Serif" font-size="10.00">AbstractDynamicWorker.stopLoader</text>
</a>
</g>
</g>
<!-- Node1&#45;&gt;Node7 -->
<g id="edge8_Node000001_Node000007" class="edge">
<title>Node1&#45;&gt;Node7</title>
<g id="a_edge8_Node000001_Node000007"><a xlink:title=" ">
<path fill="none" stroke="#63b8ff" d="M208.23,-59.56C342.67,-58.98 575.97,-57.98 707.39,-57.42"/>
<polygon fill="#63b8ff" stroke="#63b8ff" points="707.12,-60.92 717.1,-57.38 707.09,-53.92 707.12,-60.92"/>
</a>
</g>
</g>
<!-- Node8 -->
<g id="Node000008" class="node">
<title>Node8</title>
<g id="a_Node000008"><a xlink:href="classfr_1_1softsf_1_1canscan_1_1ui_1_1worker_1_1_abstract_dynamic_worker.html#a9e96e581d50405318cb949e249c53f53" target="_top" xlink:title="Called when the worker completes successfully with its result.">
<polygon fill="white" stroke="#666666" points="449,-32 244,-32 244,0 449,0 449,-32"/>
<text text-anchor="start" x="252" y="-18.5" font-family="Helvetica,sans-Serif" font-size="10.00">fr.softsf.canscan.ui.worker.</text>
<text text-anchor="middle" x="346.5" y="-6.5" font-family="Helvetica,sans-Serif" font-size="10.00">AbstractDynamicWorker.onWorkerSuccess</text>
</a>
</g>
</g>
<!-- Node1&#45;&gt;Node8 -->
<g id="edge7_Node000001_Node000008" class="edge">
<title>Node1&#45;&gt;Node8</title>
<g id="a_edge7_Node000001_Node000008"><a xlink:title=" ">
<path fill="none" stroke="#63b8ff" d="M194.9,-43.55C210.94,-40.62 227.75,-37.54 244.09,-34.55"/>
<polygon fill="#63b8ff" stroke="#63b8ff" points="244.62,-38.01 253.82,-32.77 243.36,-31.13 244.62,-38.01"/>
</a>
</g>
</g>
<!-- Node3 -->
<g id="Node000003" class="node">
<title>Node3</title>
<g id="a_Node000003"><a xlink:href="classfr_1_1softsf_1_1canscan_1_1ui_1_1worker_1_1_abstract_dynamic_worker.html#ab41292fcd5ef2e86396e25bcccc4e9d4" target="_top" xlink:title="Resets the current worker and associated resources.">
<polygon fill="white" stroke="#666666" points="663,-123 485,-123 485,-91 663,-91 663,-123"/>
<text text-anchor="start" x="493" y="-109.5" font-family="Helvetica,sans-Serif" font-size="10.00">fr.softsf.canscan.ui.worker.</text>
<text text-anchor="middle" x="574" y="-97.5" font-family="Helvetica,sans-Serif" font-size="10.00">AbstractDynamicWorker.resetWorker</text>
</a>
</g>
</g>
<!-- Node2&#45;&gt;Node3 -->
<g id="edge2_Node000002_Node000003" class="edge">
<title>Node2&#45;&gt;Node3</title>
<g id="a_edge2_Node000002_Node000003"><a xlink:title=" ">
<path fill="none" stroke="#63b8ff" d="M444.77,-105.86C454.18,-105.95 463.73,-106.03 473.16,-106.11"/>
<polygon fill="#63b8ff" stroke="#63b8ff" points="473.04,-109.61 483.07,-106.2 473.1,-102.61 473.04,-109.61"/>
</a>
</g>
</g>
<!-- Node4 -->
<g id="Node000004" class="node">
<title>Node4</title>
<g id="a_Node000004"><a xlink:href="classfr_1_1softsf_1_1canscan_1_1ui_1_1worker_1_1_abstract_dynamic_worker.html#aa3eebdde5dae919a4d905ef2d2d4a8fb" target="_top" xlink:title="Cancels the current SwingWorker and clears its reference safely.">
<polygon fill="white" stroke="#666666" points="898,-223 713.25,-223 713.25,-191 898,-191 898,-223"/>
<text text-anchor="start" x="721.25" y="-209.5" font-family="Helvetica,sans-Serif" font-size="10.00">fr.softsf.canscan.ui.worker.</text>
<text text-anchor="middle" x="805.62" y="-197.5" font-family="Helvetica,sans-Serif" font-size="10.00">AbstractDynamicWorker.cancelWorker</text>
</a>
</g>
</g>
<!-- Node3&#45;&gt;Node4 -->
<g id="edge3_Node000003_Node000004" class="edge">
<title>Node3&#45;&gt;Node4</title>
<g id="a_edge3_Node000003_Node000004"><a xlink:title=" ">
<path fill="none" stroke="#63b8ff" d="M597.18,-123.36C621.15,-140.32 661.04,-166.48 699,-182 703.37,-183.79 707.89,-185.46 712.49,-187.03"/>
<polygon fill="#63b8ff" stroke="#63b8ff" points="711.33,-190.33 721.92,-190.04 713.46,-183.66 711.33,-190.33"/>
</a>
</g>
</g>
<!-- Node5 -->
<g id="Node000005" class="node">
<title>Node5</title>
<g id="a_Node000005"><a xlink:href="classfr_1_1softsf_1_1canscan_1_1ui_1_1worker_1_1_abstract_dynamic_worker.html#a49ea00730d7f891f40c32550130625df" target="_top" xlink:title="Clears any allocated data, icons, or buffers before starting a new task.">
<polygon fill="white" stroke="#666666" points="902.5,-173 708.75,-173 708.75,-141 902.5,-141 902.5,-173"/>
<text text-anchor="start" x="716.75" y="-159.5" font-family="Helvetica,sans-Serif" font-size="10.00">fr.softsf.canscan.ui.worker.</text>
<text text-anchor="middle" x="805.62" y="-147.5" font-family="Helvetica,sans-Serif" font-size="10.00">AbstractDynamicWorker.clearResources</text>
</a>
</g>
</g>
<!-- Node3&#45;&gt;Node5 -->
<g id="edge4_Node000003_Node000005" class="edge">
<title>Node3&#45;&gt;Node5</title>
<g id="a_edge4_Node000003_Node000005"><a xlink:title=" ">
<path fill="none" stroke="#63b8ff" d="M650.51,-123.44C672.09,-128.14 695.78,-133.3 717.97,-138.13"/>
<polygon fill="#63b8ff" stroke="#63b8ff" points="717.08,-141.52 727.59,-140.23 718.57,-134.68 717.08,-141.52"/>
</a>
</g>
</g>
<!-- Node6 -->
<g id="Node000006" class="node">
<title>Node6</title>
<g id="a_Node000006"><a xlink:href="classfr_1_1softsf_1_1canscan_1_1ui_1_1worker_1_1_abstract_dynamic_worker.html#a04dbe18f6ba608487e5170c1c3ac391a" target="_top" xlink:title="Stops and clears the debounce timer.">
<polygon fill="white" stroke="#666666" points="912.25,-123 699,-123 699,-91 912.25,-91 912.25,-123"/>
<text text-anchor="start" x="707" y="-109.5" font-family="Helvetica,sans-Serif" font-size="10.00">fr.softsf.canscan.ui.worker.</text>
<text text-anchor="middle" x="805.62" y="-97.5" font-family="Helvetica,sans-Serif" font-size="10.00">AbstractDynamicWorker.stopDebounceTimer</text>
</a>
</g>
</g>
<!-- Node3&#45;&gt;Node6 -->
<g id="edge5_Node000003_Node000006" class="edge">
<title>Node3&#45;&gt;Node6</title>
<g id="a_edge5_Node000003_Node000006"><a xlink:title=" ">
<path fill="none" stroke="#63b8ff" d="M663.45,-107C671.26,-107 679.25,-107 687.25,-107"/>
<polygon fill="#63b8ff" stroke="#63b8ff" points="687.05,-110.5 697.05,-107 687.05,-103.5 687.05,-110.5"/>
</a>
</g>
</g>
<!-- Node3&#45;&gt;Node7 -->
<g id="edge6_Node000003_Node000007" class="edge">
<title>Node3&#45;&gt;Node7</title>
<g id="a_edge6_Node000003_Node000007"><a xlink:title=" ">
<path fill="none" stroke="#63b8ff" d="M650.51,-90.56C672.09,-85.86 695.78,-80.7 717.97,-75.87"/>
<polygon fill="#63b8ff" stroke="#63b8ff" points="718.57,-79.32 727.59,-73.77 717.08,-72.48 718.57,-79.32"/>
</a>
</g>
</g>
</g>
</svg>

<g id="navigator" transform="translate(0 0)" fill="#404254">
  <rect fill="#f2f5e9" fill-opacity="0.5" stroke="#606060" stroke-width=".5" x="0" y="0" width="60" height="60"/>
  <use id="zoomplus" xlink:href="#zoomPlus" x="17" y="9" onmousedown="handleZoom(evt,'in')"/>
  <use id="zoomminus" xlink:href="#zoomMin" x="42" y="9" onmousedown="handleZoom(evt,'out')"/>
  <use id="reset" xlink:href="#resetDef" x="30" y="36" onmousedown="handleReset()"/>
   <use id="arrowup" xlink:href="#arrowUp" x="0" y="0" onmousedown="handlePan(0,-1)"/>
  <use id="arrowright" xlink:href="#arrowRight" x="0" y="0" onmousedown="handlePan(1,0)"/>
  <use id="arrowdown" xlink:href="#arrowDown" x="0" y="0" onmousedown="handlePan(0,1)"/>
  <use id="arrowleft" xlink:href="#arrowLeft" x="0" y="0" onmousedown="handlePan(-1,0)"/>
</g>
<svg viewBox="0 0 15 15" width="100%" height="30px" preserveAspectRatio="xMaxYMin meet">
 <g id="arrow_out" transform="scale(0.3 0.3)">
  <a xlink:href="classfr_1_1softsf_1_1canscan_1_1ui_1_1worker_1_1_abstract_dynamic_worker_ae09c6bc40e1028b0cbe43c6115750c05_cgraph_org.svg" target="_base">
   <rect id="button" ry="5" rx="5" y="6" x="6" height="38" width="38"
        fill="#f2f5e9" fill-opacity="0.5" stroke="#606060" stroke-width="1.0"/>
   <path id="arrow"
     d="M 11.500037,31.436501 C 11.940474,20.09759 22.043105,11.32322 32.158766,21.979434 L 37.068811,17.246167 C 37.068811,17.246167 37.088388,32 37.088388,32 L 22.160133,31.978069 C 22.160133,31.978069 26.997745,27.140456 26.997745,27.140456 C 18.528582,18.264221 13.291696,25.230495 11.500037,31.436501 z"
     style="fill:#404040;"/>
  </a>
 </g>
</svg>

<style type='text/css'>
<![CDATA[
[data-mouse-over-selected='false'] { opacity: 0.7; }
[data-mouse-over-selected='true']  { opacity: 1.0; }
]]>
</style>
<script type="application/ecmascript"><![CDATA[
document.addEventListener('DOMContentLoaded', (event) => {
  highlightEdges();
  highlightAdjacentNodes();
});
]]></script>
</svg>
