<?xml version="1.0" encoding="UTF-8" standalone="no"?>
<!DOCTYPE svg PUBLIC "-//W3C//DTD SVG 1.1//EN"
 "http://www.w3.org/Graphics/SVG/1.1/DTD/svg11.dtd">
<!-- Generated by graphviz version 12.2.1 (20241206.2353)
 -->
<!-- Title: fr.softsf.canscan.NativeImageConfigSimulator.findVisibleJList Pages: 1 -->
<svg width="378pt" height="70pt"
 viewBox="0.00 0.00 378.25 70.00" xmlns="http://www.w3.org/2000/svg" xmlns:xlink="http://www.w3.org/1999/xlink">
<g id="graph0" class="graph" transform="scale(1 1) rotate(0) translate(4 66)">
<title>fr.softsf.canscan.NativeImageConfigSimulator.findVisibleJList</title>
<!-- Node1 -->
<g id="Node000001" class="node">
<title>Node1</title>
<g id="a_Node000001"><a xlink:title="Recursively searches for the visible JList across all open windows.">
<polygon fill="#999999" stroke="#666666" points="181.75,-38 0,-38 0,-6 181.75,-6 181.75,-38"/>
<text text-anchor="start" x="8" y="-24.5" font-family="Helvetica,sans-Serif" font-size="10.00">fr.softsf.canscan.Native</text>
<text text-anchor="middle" x="90.88" y="-12.5" font-family="Helvetica,sans-Serif" font-size="10.00">ImageConfigSimulator.findVisibleJList</text>
</a>
</g>
</g>
<!-- Node2 -->
<g id="Node000002" class="node">
<title>Node2</title>
<g id="a_Node000002"><a xlink:href="classfr_1_1softsf_1_1canscan_1_1_native_image_config_simulator.html#a00f369f6ee9b0eea8bacef585d45b4c0" target="_top" xlink:title="Recursively searches for a JList within a given container.">
<polygon fill="white" stroke="#666666" points="370.25,-44 217.75,-44 217.75,0 370.25,0 370.25,-44"/>
<text text-anchor="start" x="225.75" y="-30.5" font-family="Helvetica,sans-Serif" font-size="10.00">fr.softsf.canscan.Native</text>
<text text-anchor="start" x="225.75" y="-18.5" font-family="Helvetica,sans-Serif" font-size="10.00">ImageConfigSimulator.findJList</text>
<text text-anchor="middle" x="294" y="-6.5" font-family="Helvetica,sans-Serif" font-size="10.00">InContainer</text>
</a>
</g>
</g>
<!-- Node1&#45;&gt;Node2 -->
<g id="edge1_Node000001_Node000002" class="edge">
<title>Node1&#45;&gt;Node2</title>
<g id="a_edge1_Node000001_Node000002"><a xlink:title=" ">
<path fill="none" stroke="#63b8ff" d="M182.14,-22C190.07,-22 198.09,-22 205.99,-22"/>
<polygon fill="#63b8ff" stroke="#63b8ff" points="205.94,-25.5 215.94,-22 205.94,-18.5 205.94,-25.5"/>
</a>
</g>
</g>
<!-- Node2&#45;&gt;Node2 -->
<g id="edge2_Node000002_Node000002" class="edge">
<title>Node2&#45;&gt;Node2</title>
<g id="a_edge2_Node000002_Node000002"><a xlink:title=" ">
<path fill="none" stroke="#63b8ff" d="M256.37,-44.21C253.29,-53.8 265.83,-62 294,-62 310.72,-62 321.94,-59.11 327.65,-54.75"/>
<polygon fill="#63b8ff" stroke="#63b8ff" points="330.84,-56.22 331.1,-45.63 324.29,-53.75 330.84,-56.22"/>
</a>
</g>
</g>
</g>
</svg>
