<?xml version="1.0" encoding="UTF-8" standalone="no"?>
<!DOCTYPE svg PUBLIC "-//W3C//DTD SVG 1.1//EN"
 "http://www.w3.org/Graphics/SVG/1.1/DTD/svg11.dtd">
<!-- Generated by graphviz version 12.2.1 (20241206.2353)
 -->
<!-- Title: fr.softsf.canscan.CanScan.getManifestKeys Pages: 1 -->
<svg width="1392pt" height="469pt"
 viewBox="0.00 0.00 1392.00 469.00" xmlns="http://www.w3.org/2000/svg" xmlns:xlink="http://www.w3.org/1999/xlink">
<g id="graph0" class="graph" transform="scale(1 1) rotate(0) translate(4 465)">
<title>fr.softsf.canscan.CanScan.getManifestKeys</title>
<!-- Node1 -->
<g id="Node000001" class="node">
<title>Node1</title>
<g id="a_Node000001"><a xlink:title="Loads application metadata from the version.properties file.">
<polygon fill="#999999" stroke="#666666" points="149.5,-217 0,-217 0,-185 149.5,-185 149.5,-217"/>
<text text-anchor="start" x="8" y="-203.5" font-family="Helvetica,sans-Serif" font-size="10.00">fr.softsf.canscan.CanScan.get</text>
<text text-anchor="middle" x="74.75" y="-191.5" font-family="Helvetica,sans-Serif" font-size="10.00">ManifestKeys</text>
</a>
</g>
</g>
<!-- Node2 -->
<g id="Node000002" class="node">
<title>Node2</title>
<g id="a_Node000002"><a xlink:href="classfr_1_1softsf_1_1canscan_1_1_can_scan.html#a102bcbc6cda608b642e870ba3fde6344" target="_top" xlink:title="Initializes the CanScan GUI.">
<polygon fill="white" stroke="#666666" points="321.5,-264 185.5,-264 185.5,-232 321.5,-232 321.5,-264"/>
<text text-anchor="start" x="193.5" y="-250.5" font-family="Helvetica,sans-Serif" font-size="10.00">fr.softsf.canscan.CanScan.</text>
<text text-anchor="middle" x="253.5" y="-238.5" font-family="Helvetica,sans-Serif" font-size="10.00">CanScan</text>
</a>
</g>
</g>
<!-- Node1&#45;&gt;Node2 -->
<g id="edge1_Node000001_Node000002" class="edge">
<title>Node1&#45;&gt;Node2</title>
<g id="a_edge1_Node000001_Node000002"><a xlink:title=" ">
<path fill="none" stroke="#63b8ff" d="M137.57,-217.44C151.16,-221.05 165.67,-224.91 179.65,-228.63"/>
<polygon fill="#63b8ff" stroke="#63b8ff" points="178.69,-231.99 189.25,-231.18 180.49,-225.23 178.69,-231.99"/>
</a>
</g>
</g>
<!-- Node3 -->
<g id="Node000003" class="node">
<title>Node3</title>
<g id="a_Node000003"><a xlink:href="classfr_1_1softsf_1_1canscan_1_1_can_scan.html#a070115929fdc69b249d21866a00a47cc" target="_top" xlink:title="Assigns component names for identification.">
<polygon fill="white" stroke="#666666" points="528.75,-286 357.5,-286 357.5,-254 528.75,-254 528.75,-286"/>
<text text-anchor="start" x="365.5" y="-272.5" font-family="Helvetica,sans-Serif" font-size="10.00">fr.softsf.canscan.CanScan.initialize</text>
<text text-anchor="middle" x="443.12" y="-260.5" font-family="Helvetica,sans-Serif" font-size="10.00">ComponentNames</text>
</a>
</g>
</g>
<!-- Node2&#45;&gt;Node3 -->
<g id="edge2_Node000002_Node000003" class="edge">
<title>Node2&#45;&gt;Node3</title>
<g id="a_edge2_Node000002_Node000003"><a xlink:title=" ">
<path fill="none" stroke="#63b8ff" d="M321.97,-255.91C329.76,-256.82 337.8,-257.77 345.87,-258.71"/>
<polygon fill="#63b8ff" stroke="#63b8ff" points="345.43,-262.19 355.77,-259.87 346.25,-255.23 345.43,-262.19"/>
</a>
</g>
</g>
<!-- Node4 -->
<g id="Node000004" class="node">
<title>Node4</title>
<g id="a_Node000004"><a xlink:href="classfr_1_1softsf_1_1canscan_1_1_can_scan.html#a14263ca931024d56cd9bed4af4b74c25" target="_top" xlink:title="Creates the main panel containing all GUI sections.">
<polygon fill="white" stroke="#666666" points="736,-370 564.75,-370 564.75,-338 736,-338 736,-370"/>
<text text-anchor="start" x="572.75" y="-356.5" font-family="Helvetica,sans-Serif" font-size="10.00">fr.softsf.canscan.CanScan.initialize</text>
<text text-anchor="middle" x="650.38" y="-344.5" font-family="Helvetica,sans-Serif" font-size="10.00">MainPanel</text>
</a>
</g>
</g>
<!-- Node2&#45;&gt;Node4 -->
<g id="edge3_Node000002_Node000004" class="edge">
<title>Node2&#45;&gt;Node4</title>
<g id="a_edge3_Node000002_Node000004"><a xlink:title=" ">
<path fill="none" stroke="#63b8ff" d="M321.77,-233.78C378.84,-224.82 461.87,-219.26 528.75,-245 551.53,-253.77 598.57,-300.43 626.71,-329.79"/>
<polygon fill="#63b8ff" stroke="#63b8ff" points="623.98,-331.99 633.4,-336.82 629.05,-327.17 623.98,-331.99"/>
</a>
</g>
</g>
<!-- Node12 -->
<g id="Node000012" class="node">
<title>Node12</title>
<g id="a_Node000012"><a xlink:href="classfr_1_1softsf_1_1canscan_1_1_can_scan.html#afb8d451dc5d6d9c7b6700e4b688c98a3" target="_top" xlink:title="Builds the north panel containing mode selection, card panels, common fields, and the generate button...">
<polygon fill="white" stroke="#666666" points="528.75,-198 357.5,-198 357.5,-166 528.75,-166 528.75,-198"/>
<text text-anchor="start" x="365.5" y="-184.5" font-family="Helvetica,sans-Serif" font-size="10.00">fr.softsf.canscan.CanScan.initialize</text>
<text text-anchor="middle" x="443.12" y="-172.5" font-family="Helvetica,sans-Serif" font-size="10.00">NorthPanel</text>
</a>
</g>
</g>
<!-- Node2&#45;&gt;Node12 -->
<g id="edge12_Node000002_Node000012" class="edge">
<title>Node2&#45;&gt;Node12</title>
<g id="a_edge12_Node000002_Node000012"><a xlink:title=" ">
<path fill="none" stroke="#63b8ff" d="M301.36,-231.52C326.64,-222.62 358.05,-211.57 384.78,-202.17"/>
<polygon fill="#63b8ff" stroke="#63b8ff" points="385.84,-205.51 394.11,-198.89 383.51,-198.91 385.84,-205.51"/>
</a>
</g>
</g>
<!-- Node27 -->
<g id="Node000027" class="node">
<title>Node27</title>
<g id="a_Node000027"><a xlink:href="classfr_1_1softsf_1_1canscan_1_1_can_scan.html#a4928478365bc812571ac037662cc5f6b" target="_top" xlink:title="Wraps the main panel in a scrollable container.">
<polygon fill="white" stroke="#666666" points="528.75,-436 357.5,-436 357.5,-404 528.75,-404 528.75,-436"/>
<text text-anchor="start" x="365.5" y="-422.5" font-family="Helvetica,sans-Serif" font-size="10.00">fr.softsf.canscan.CanScan.initialize</text>
<text text-anchor="middle" x="443.12" y="-410.5" font-family="Helvetica,sans-Serif" font-size="10.00">ScrollPane</text>
</a>
</g>
</g>
<!-- Node2&#45;&gt;Node27 -->
<g id="edge34_Node000002_Node000027" class="edge">
<title>Node2&#45;&gt;Node27</title>
<g id="a_edge34_Node000002_Node000027"><a xlink:title=" ">
<path fill="none" stroke="#63b8ff" d="M261.49,-264.42C275.27,-294.85 308.92,-360.07 357.5,-395 359.08,-396.14 360.72,-397.22 362.39,-398.26"/>
<polygon fill="#63b8ff" stroke="#63b8ff" points="360.61,-401.27 371.06,-402.96 363.94,-395.12 360.61,-401.27"/>
</a>
</g>
</g>
<!-- Node28 -->
<g id="Node000028" class="node">
<title>Node28</title>
<g id="a_Node000028"><a xlink:href="classfr_1_1softsf_1_1canscan_1_1_can_scan.html#a358629f85831dc6cd4978c8854d88561" target="_top" xlink:title="Configures sliders for logo margin and ratio.">
<polygon fill="white" stroke="#666666" points="528.75,-386 357.5,-386 357.5,-354 528.75,-354 528.75,-386"/>
<text text-anchor="start" x="365.5" y="-372.5" font-family="Helvetica,sans-Serif" font-size="10.00">fr.softsf.canscan.CanScan.initialize</text>
<text text-anchor="middle" x="443.12" y="-360.5" font-family="Helvetica,sans-Serif" font-size="10.00">Sliders</text>
</a>
</g>
</g>
<!-- Node2&#45;&gt;Node28 -->
<g id="edge35_Node000002_Node000028" class="edge">
<title>Node2&#45;&gt;Node28</title>
<g id="a_edge35_Node000002_Node000028"><a xlink:title=" ">
<path fill="none" stroke="#63b8ff" d="M267.41,-264.19C285.39,-285.7 320.01,-323.47 357.5,-345 359.85,-346.35 362.29,-347.64 364.78,-348.86"/>
<polygon fill="#63b8ff" stroke="#63b8ff" points="363.34,-352.05 373.9,-352.9 366.18,-345.65 363.34,-352.05"/>
</a>
</g>
</g>
<!-- Node30 -->
<g id="Node000030" class="node">
<title>Node30</title>
<g id="a_Node000030"><a xlink:href="classfr_1_1softsf_1_1canscan_1_1_can_scan.html#ae9d7eee5ec656c89834bed84a588334f" target="_top" xlink:title="Constructs the application window title using metadata from the version properties.">
<polygon fill="white" stroke="#666666" points="528.75,-148 357.5,-148 357.5,-116 528.75,-116 528.75,-148"/>
<text text-anchor="start" x="365.5" y="-134.5" font-family="Helvetica,sans-Serif" font-size="10.00">fr.softsf.canscan.CanScan.initialize</text>
<text text-anchor="middle" x="443.12" y="-122.5" font-family="Helvetica,sans-Serif" font-size="10.00">Title</text>
</a>
</g>
</g>
<!-- Node2&#45;&gt;Node30 -->
<g id="edge37_Node000002_Node000030" class="edge">
<title>Node2&#45;&gt;Node30</title>
<g id="a_edge37_Node000002_Node000030"><a xlink:title=" ">
<path fill="none" stroke="#63b8ff" d="M275.47,-231.66C288.9,-220.98 306.56,-206.54 321.5,-193 338.26,-177.8 338.05,-168.56 357.5,-157 359.69,-155.7 361.96,-154.46 364.28,-153.28"/>
<polygon fill="#63b8ff" stroke="#63b8ff" points="365.73,-156.46 373.36,-149.12 362.82,-150.1 365.73,-156.46"/>
</a>
</g>
</g>
<!-- Node31 -->
<g id="Node000031" class="node">
<title>Node31</title>
<g id="a_Node000031"><a xlink:href="classfr_1_1softsf_1_1canscan_1_1_can_scan.html#a0a52159db640660477196e337ec62a9b" target="_top" xlink:title="Finalizes window layout and appearance.">
<polygon fill="white" stroke="#666666" points="528.75,-336 357.5,-336 357.5,-304 528.75,-304 528.75,-336"/>
<text text-anchor="start" x="365.5" y="-322.5" font-family="Helvetica,sans-Serif" font-size="10.00">fr.softsf.canscan.CanScan.initialize</text>
<text text-anchor="middle" x="443.12" y="-310.5" font-family="Helvetica,sans-Serif" font-size="10.00">Window</text>
</a>
</g>
</g>
<!-- Node2&#45;&gt;Node31 -->
<g id="edge39_Node000002_Node000031" class="edge">
<title>Node2&#45;&gt;Node31</title>
<g id="a_edge39_Node000002_Node000031"><a xlink:title=" ">
<path fill="none" stroke="#63b8ff" d="M287.4,-264.45C307.38,-274.07 333.56,-286.05 357.5,-295 362.15,-296.74 366.97,-298.43 371.85,-300.07"/>
<polygon fill="#63b8ff" stroke="#63b8ff" points="370.56,-303.33 381.15,-303.1 372.72,-296.68 370.56,-303.33"/>
</a>
</g>
</g>
<!-- Node5 -->
<g id="Node000005" class="node">
<title>Node5</title>
<g id="a_Node000005"><a xlink:href="classfr_1_1softsf_1_1canscan_1_1_can_scan.html#ad470e3c0750cf142dc611b1aeeda3a97" target="_top" xlink:title="Sets up automatic QR code preview updates for all input fields and controls.">
<polygon fill="white" stroke="#666666" points="965,-448 772,-448 772,-416 965,-416 965,-448"/>
<text text-anchor="start" x="780" y="-434.5" font-family="Helvetica,sans-Serif" font-size="10.00">fr.softsf.canscan.CanScan.automatic</text>
<text text-anchor="middle" x="868.5" y="-422.5" font-family="Helvetica,sans-Serif" font-size="10.00">QRCodeRenderingForFieldsAndControls</text>
</a>
</g>
</g>
<!-- Node4&#45;&gt;Node5 -->
<g id="edge4_Node000004_Node000005" class="edge">
<title>Node4&#45;&gt;Node5</title>
<g id="a_edge4_Node000004_Node000005"><a xlink:title=" ">
<path fill="none" stroke="#63b8ff" d="M714.49,-370.49C721.85,-373.05 729.17,-375.89 736,-379 753.27,-386.88 754.79,-393.97 772,-402 779.61,-405.55 787.75,-408.83 795.95,-411.81"/>
<polygon fill="#63b8ff" stroke="#63b8ff" points="794.7,-415.08 805.29,-415.06 797,-408.47 794.7,-415.08"/>
</a>
</g>
</g>
<!-- Node6 -->
<g id="Node000006" class="node">
<title>Node6</title>
<g id="a_Node000006"><a xlink:href="classfr_1_1softsf_1_1canscan_1_1_can_scan.html#a2d26dcd1ae708eae46dba8952351aa1a" target="_top" xlink:title="Builds and returns a QrInput object containing all current user inputs and settings.">
<polygon fill="white" stroke="#666666" points="1161.75,-386 1012.25,-386 1012.25,-354 1161.75,-354 1161.75,-386"/>
<text text-anchor="start" x="1020.25" y="-372.5" font-family="Helvetica,sans-Serif" font-size="10.00">fr.softsf.canscan.CanScan.get</text>
<text text-anchor="middle" x="1087" y="-360.5" font-family="Helvetica,sans-Serif" font-size="10.00">QrInput</text>
</a>
</g>
</g>
<!-- Node4&#45;&gt;Node6 -->
<g id="edge11_Node000004_Node000006" class="edge">
<title>Node4&#45;&gt;Node6</title>
<g id="a_edge11_Node000004_Node000006"><a xlink:title=" ">
<path fill="none" stroke="#63b8ff" d="M736.27,-365.86C748.24,-367.15 760.42,-368.26 772,-369 849.21,-373.91 937.31,-373.68 1000.5,-372.5"/>
<polygon fill="#63b8ff" stroke="#63b8ff" points="1000.56,-376 1010.49,-372.3 1000.42,-369 1000.56,-376"/>
</a>
</g>
</g>
<!-- Node5&#45;&gt;Node6 -->
<g id="edge5_Node000005_Node000006" class="edge">
<title>Node5&#45;&gt;Node6</title>
<g id="a_edge5_Node000005_Node000006"><a xlink:title=" ">
<path fill="none" stroke="#63b8ff" d="M926.95,-415.55C954.83,-407.56 988.53,-397.91 1017.71,-389.56"/>
<polygon fill="#63b8ff" stroke="#63b8ff" points="1018.55,-392.96 1027.2,-386.84 1016.63,-386.23 1018.55,-392.96"/>
</a>
</g>
</g>
<!-- Node11 -->
<g id="Node000011" class="node">
<title>Node11</title>
<g id="a_Node000011"><a xlink:href="classfr_1_1softsf_1_1canscan_1_1_can_scan.html#a9856545d05ef553c8dfddd95a850a360" target="_top" xlink:title="Creates a minimal DocumentListener that executes the given action on any document change.">
<polygon fill="white" stroke="#666666" points="1169.25,-448 1004.75,-448 1004.75,-416 1169.25,-416 1169.25,-448"/>
<text text-anchor="start" x="1012.75" y="-434.5" font-family="Helvetica,sans-Serif" font-size="10.00">fr.softsf.canscan.CanScan.simple</text>
<text text-anchor="middle" x="1087" y="-422.5" font-family="Helvetica,sans-Serif" font-size="10.00">DocumentListener</text>
</a>
</g>
</g>
<!-- Node5&#45;&gt;Node11 -->
<g id="edge10_Node000005_Node000011" class="edge">
<title>Node5&#45;&gt;Node11</title>
<g id="a_edge10_Node000005_Node000011"><a xlink:title=" ">
<path fill="none" stroke="#63b8ff" d="M965.41,-432C974.55,-432 983.82,-432 992.93,-432"/>
<polygon fill="#63b8ff" stroke="#63b8ff" points="992.87,-435.5 1002.87,-432 992.87,-428.5 992.87,-435.5"/>
</a>
</g>
</g>
<!-- Node7 -->
<g id="Node000007" class="node">
<title>Node7</title>
<g id="a_Node000007"><a xlink:href="classfr_1_1softsf_1_1canscan_1_1_can_scan.html#a22606ca129489c778fbbe17cb8b70697" target="_top" xlink:title="Calculates the available height for QR code rendering.">
<polygon fill="white" stroke="#666666" points="1384,-461 1209,-461 1209,-429 1384,-429 1384,-461"/>
<text text-anchor="start" x="1217" y="-447.5" font-family="Helvetica,sans-Serif" font-size="10.00">fr.softsf.canscan.CanScan.calculate</text>
<text text-anchor="middle" x="1296.5" y="-435.5" font-family="Helvetica,sans-Serif" font-size="10.00">AvailableQrHeight</text>
</a>
</g>
</g>
<!-- Node6&#45;&gt;Node7 -->
<g id="edge6_Node000006_Node000007" class="edge">
<title>Node6&#45;&gt;Node7</title>
<g id="a_edge6_Node000006_Node000007"><a xlink:title=" ">
<path fill="none" stroke="#63b8ff" d="M1124.66,-386.39C1148.45,-396.71 1180.25,-409.94 1209,-420 1213.99,-421.75 1219.18,-423.47 1224.42,-425.14"/>
<polygon fill="#63b8ff" stroke="#63b8ff" points="1223.17,-428.42 1233.76,-428.05 1225.25,-421.74 1223.17,-428.42"/>
</a>
</g>
</g>
<!-- Node8 -->
<g id="Node000008" class="node">
<title>Node8</title>
<g id="a_Node000008"><a xlink:href="classfr_1_1softsf_1_1canscan_1_1_can_scan.html#a4e67b1b5c764e72414a5c0f387810f5c" target="_top" xlink:title="Validates and returns the current QR code margin from the margin slider.">
<polygon fill="white" stroke="#666666" points="1381.38,-411 1211.62,-411 1211.62,-379 1381.38,-379 1381.38,-411"/>
<text text-anchor="start" x="1219.62" y="-397.5" font-family="Helvetica,sans-Serif" font-size="10.00">fr.softsf.canscan.CanScan.validate</text>
<text text-anchor="middle" x="1296.5" y="-385.5" font-family="Helvetica,sans-Serif" font-size="10.00">AndGetMargin</text>
</a>
</g>
</g>
<!-- Node6&#45;&gt;Node8 -->
<g id="edge7_Node000006_Node000008" class="edge">
<title>Node6&#45;&gt;Node8</title>
<g id="a_edge7_Node000006_Node000008"><a xlink:title=" ">
<path fill="none" stroke="#63b8ff" d="M1162.03,-378.92C1174.37,-380.41 1187.31,-381.97 1200.09,-383.5"/>
<polygon fill="#63b8ff" stroke="#63b8ff" points="1199.4,-386.95 1209.75,-384.67 1200.24,-380 1199.4,-386.95"/>
</a>
</g>
</g>
<!-- Node9 -->
<g id="Node000009" class="node">
<title>Node9</title>
<g id="a_Node000009"><a xlink:href="classfr_1_1softsf_1_1canscan_1_1_can_scan.html#a9e8188875168199cde065113ae2a393d" target="_top" xlink:title="Validates and returns the current image&#45;to&#45;QR ratio from the ratio slider.">
<polygon fill="white" stroke="#666666" points="1381.38,-361 1211.62,-361 1211.62,-329 1381.38,-329 1381.38,-361"/>
<text text-anchor="start" x="1219.62" y="-347.5" font-family="Helvetica,sans-Serif" font-size="10.00">fr.softsf.canscan.CanScan.validate</text>
<text text-anchor="middle" x="1296.5" y="-335.5" font-family="Helvetica,sans-Serif" font-size="10.00">AndGetRatio</text>
</a>
</g>
</g>
<!-- Node6&#45;&gt;Node9 -->
<g id="edge8_Node000006_Node000009" class="edge">
<title>Node6&#45;&gt;Node9</title>
<g id="a_edge8_Node000006_Node000009"><a xlink:title=" ">
<path fill="none" stroke="#63b8ff" d="M1162.03,-361.08C1174.37,-359.59 1187.31,-358.03 1200.09,-356.5"/>
<polygon fill="#63b8ff" stroke="#63b8ff" points="1200.24,-360 1209.75,-355.33 1199.4,-353.05 1200.24,-360"/>
</a>
</g>
</g>
<!-- Node10 -->
<g id="Node000010" class="node">
<title>Node10</title>
<g id="a_Node000010"><a xlink:href="classfr_1_1softsf_1_1canscan_1_1_can_scan.html#a6d139bb8d0a3c7081096c8956189b684" target="_top" xlink:title="Validates and returns the QR code size from the corresponding text field.">
<polygon fill="white" stroke="#666666" points="1381.38,-311 1211.62,-311 1211.62,-279 1381.38,-279 1381.38,-311"/>
<text text-anchor="start" x="1219.62" y="-297.5" font-family="Helvetica,sans-Serif" font-size="10.00">fr.softsf.canscan.CanScan.validate</text>
<text text-anchor="middle" x="1296.5" y="-285.5" font-family="Helvetica,sans-Serif" font-size="10.00">AndGetSize</text>
</a>
</g>
</g>
<!-- Node6&#45;&gt;Node10 -->
<g id="edge9_Node000006_Node000010" class="edge">
<title>Node6&#45;&gt;Node10</title>
<g id="a_edge9_Node000006_Node000010"><a xlink:title=" ">
<path fill="none" stroke="#63b8ff" d="M1124.66,-353.61C1148.45,-343.29 1180.25,-330.06 1209,-320 1213.99,-318.25 1219.18,-316.53 1224.42,-314.86"/>
<polygon fill="#63b8ff" stroke="#63b8ff" points="1225.25,-318.26 1233.76,-311.95 1223.17,-311.58 1225.25,-318.26"/>
</a>
</g>
</g>
<!-- Node13 -->
<g id="Node000013" class="node">
<title>Node13</title>
<g id="a_Node000013"><a xlink:href="classfr_1_1softsf_1_1canscan_1_1_can_scan.html#ab2e018ca62c7497c29e84f42ae870daa" target="_top" xlink:title="Adds MECARD and Free card panels to the north panel.">
<polygon fill="white" stroke="#666666" points="726.25,-82 574.5,-82 574.5,-50 726.25,-50 726.25,-82"/>
<text text-anchor="start" x="582.5" y="-68.5" font-family="Helvetica,sans-Serif" font-size="10.00">fr.softsf.canscan.CanScan.add</text>
<text text-anchor="middle" x="650.38" y="-56.5" font-family="Helvetica,sans-Serif" font-size="10.00">NorthPanelCardPanels</text>
</a>
</g>
</g>
<!-- Node12&#45;&gt;Node13 -->
<g id="edge13_Node000012_Node000013" class="edge">
<title>Node12&#45;&gt;Node13</title>
<g id="a_edge13_Node000012_Node000013"><a xlink:title=" ">
<path fill="none" stroke="#63b8ff" d="M513.81,-165.62C519.07,-163.13 524.13,-160.28 528.75,-157 551.08,-141.16 543.79,-124.62 564.75,-107 573.75,-99.44 584.38,-92.89 595.01,-87.38"/>
<polygon fill="#63b8ff" stroke="#63b8ff" points="596.35,-90.62 603.79,-83.08 593.27,-84.33 596.35,-90.62"/>
</a>
</g>
</g>
<!-- Node17 -->
<g id="Node000017" class="node">
<title>Node17</title>
<g id="a_Node000017"><a xlink:href="classfr_1_1softsf_1_1canscan_1_1_can_scan.html#a94ab4df98de0d05977e6a65ab75f89f0" target="_top" xlink:title="Adds common input fields to the north panel.">
<polygon fill="white" stroke="#666666" points="726.25,-260 574.5,-260 574.5,-228 726.25,-228 726.25,-260"/>
<text text-anchor="start" x="582.5" y="-246.5" font-family="Helvetica,sans-Serif" font-size="10.00">fr.softsf.canscan.CanScan.add</text>
<text text-anchor="middle" x="650.38" y="-234.5" font-family="Helvetica,sans-Serif" font-size="10.00">NorthPanelCommonFields</text>
</a>
</g>
</g>
<!-- Node12&#45;&gt;Node17 -->
<g id="edge18_Node000012_Node000017" class="edge">
<title>Node12&#45;&gt;Node17</title>
<g id="a_edge18_Node000012_Node000017"><a xlink:title=" ">
<path fill="none" stroke="#63b8ff" d="M498.59,-198.45C524.91,-206.4 556.69,-216 584.27,-224.33"/>
<polygon fill="#63b8ff" stroke="#63b8ff" points="582.98,-227.6 593.56,-227.14 585,-220.9 582.98,-227.6"/>
</a>
</g>
</g>
<!-- Node19 -->
<g id="Node000019" class="node">
<title>Node19</title>
<g id="a_Node000019"><a xlink:href="classfr_1_1softsf_1_1canscan_1_1_can_scan.html#a9f205dfdb266d5d7f8f8899b69742663" target="_top" xlink:title="Adds the generate button to the north panel.">
<polygon fill="white" stroke="#666666" points="726.25,-148 574.5,-148 574.5,-116 726.25,-116 726.25,-148"/>
<text text-anchor="start" x="582.5" y="-134.5" font-family="Helvetica,sans-Serif" font-size="10.00">fr.softsf.canscan.CanScan.add</text>
<text text-anchor="middle" x="650.38" y="-122.5" font-family="Helvetica,sans-Serif" font-size="10.00">NorthPanelGenerateButton</text>
</a>
</g>
</g>
<!-- Node12&#45;&gt;Node19 -->
<g id="edge23_Node000012_Node000019" class="edge">
<title>Node12&#45;&gt;Node19</title>
<g id="a_edge23_Node000012_Node000019"><a xlink:title=" ">
<path fill="none" stroke="#63b8ff" d="M511.62,-165.56C530.55,-160.95 551.31,-155.89 570.83,-151.13"/>
<polygon fill="#63b8ff" stroke="#63b8ff" points="571.49,-154.58 580.37,-148.81 569.83,-147.78 571.49,-154.58"/>
</a>
</g>
</g>
<!-- Node20 -->
<g id="Node000020" class="node">
<title>Node20</title>
<g id="a_Node000020"><a xlink:href="classfr_1_1softsf_1_1canscan_1_1_can_scan.html#aa469763b92dd7cbc6dfdb9aaa0116b33" target="_top" xlink:title="Adds mode selection controls (MECARD/Free) to the north panel.">
<polygon fill="white" stroke="#666666" points="726.25,-198 574.5,-198 574.5,-166 726.25,-166 726.25,-198"/>
<text text-anchor="start" x="582.5" y="-184.5" font-family="Helvetica,sans-Serif" font-size="10.00">fr.softsf.canscan.CanScan.add</text>
<text text-anchor="middle" x="650.38" y="-172.5" font-family="Helvetica,sans-Serif" font-size="10.00">NorthPanelModeSelection</text>
</a>
</g>
</g>
<!-- Node12&#45;&gt;Node20 -->
<g id="edge24_Node000012_Node000020" class="edge">
<title>Node12&#45;&gt;Node20</title>
<g id="a_edge24_Node000012_Node000020"><a xlink:title=" ">
<path fill="none" stroke="#63b8ff" d="M529.09,-182C540.22,-182 551.64,-182 562.8,-182"/>
<polygon fill="#63b8ff" stroke="#63b8ff" points="562.79,-185.5 572.79,-182 562.79,-178.5 562.79,-185.5"/>
</a>
</g>
</g>
<!-- Node26 -->
<g id="Node000026" class="node">
<title>Node26</title>
<g id="a_Node000026"><a xlink:href="classfr_1_1softsf_1_1canscan_1_1_can_scan.html#aeb5550da33925e95999aae23f525f7c5" target="_top" xlink:title="Creates default GridBagConstraints for consistent layout configuration.">
<polygon fill="white" stroke="#666666" points="729.25,-32 571.5,-32 571.5,0 729.25,0 729.25,-32"/>
<text text-anchor="start" x="579.5" y="-18.5" font-family="Helvetica,sans-Serif" font-size="10.00">fr.softsf.canscan.CanScan.north</text>
<text text-anchor="middle" x="650.38" y="-6.5" font-family="Helvetica,sans-Serif" font-size="10.00">PanelGridBagConstraints</text>
</a>
</g>
</g>
<!-- Node12&#45;&gt;Node26 -->
<g id="edge33_Node000012_Node000026" class="edge">
<title>Node12&#45;&gt;Node26</title>
<g id="a_edge33_Node000012_Node000026"><a xlink:title=" ">
<path fill="none" stroke="#63b8ff" d="M517.49,-165.74C521.57,-163.23 525.37,-160.34 528.75,-157 567.18,-119.09 526.32,-78.91 564.75,-41 565.49,-40.27 566.25,-39.56 567.03,-38.87"/>
<polygon fill="#63b8ff" stroke="#63b8ff" points="568.81,-41.91 574.79,-33.16 564.66,-36.27 568.81,-41.91"/>
</a>
</g>
</g>
<!-- Node14 -->
<g id="Node000014" class="node">
<title>Node14</title>
<g id="a_Node000014"><a xlink:href="classfr_1_1softsf_1_1canscan_1_1_can_scan.html#a38d65dd319daee1c3288690c17e43ca5" target="_top" xlink:title="Initializes the FREE mode input panel with a multiline text area for arbitrary text or URLs.">
<polygon fill="white" stroke="#666666" points="955.25,-60 781.75,-60 781.75,-40 955.25,-40 955.25,-60"/>
<text text-anchor="middle" x="868.5" y="-46.5" font-family="Helvetica,sans-Serif" font-size="10.00">fr.softsf.canscan.CanScan.freeCard</text>
</a>
</g>
</g>
<!-- Node13&#45;&gt;Node14 -->
<g id="edge14_Node000013_Node000014" class="edge">
<title>Node13&#45;&gt;Node14</title>
<g id="a_edge14_Node000013_Node000014"><a xlink:title=" ">
<path fill="none" stroke="#63b8ff" d="M726.66,-60.43C740.74,-59.38 755.63,-58.28 770.26,-57.2"/>
<polygon fill="#63b8ff" stroke="#63b8ff" points="770.16,-60.72 779.87,-56.49 769.64,-53.74 770.16,-60.72"/>
</a>
</g>
</g>
<!-- Node16 -->
<g id="Node000016" class="node">
<title>Node16</title>
<g id="a_Node000016"><a xlink:href="classfr_1_1softsf_1_1canscan_1_1_can_scan.html#aed7e3048974882318a6519d8d36e8ec0" target="_top" xlink:title="Initializes the MECARD input panel with labeled text fields for structured contact information.">
<polygon fill="white" stroke="#666666" points="952.62,-22 784.38,-22 784.38,-2 952.62,-2 952.62,-22"/>
<text text-anchor="middle" x="868.5" y="-8.5" font-family="Helvetica,sans-Serif" font-size="10.00">fr.softsf.canscan.CanScan.mecard</text>
</a>
</g>
</g>
<!-- Node13&#45;&gt;Node16 -->
<g id="edge16_Node000013_Node000016" class="edge">
<title>Node13&#45;&gt;Node16</title>
<g id="a_edge16_Node000013_Node000016"><a xlink:title=" ">
<path fill="none" stroke="#63b8ff" d="M707.27,-49.55C735.53,-41.27 765.27,-32.64 772,-31 780.87,-28.83 790.26,-26.74 799.54,-24.77"/>
<polygon fill="#63b8ff" stroke="#63b8ff" points="800.2,-28.21 809.28,-22.76 798.78,-21.36 800.2,-28.21"/>
</a>
</g>
</g>
<!-- Node15 -->
<g id="Node000015" class="node">
<title>Node15</title>
<g id="a_Node000015"><a xlink:href="classfr_1_1softsf_1_1canscan_1_1_can_scan.html#a2732ecdc4490a717352975e68fce494c" target="_top" xlink:title="Adds a labeled component row to a panel using GridBagLayout.">
<polygon fill="white" stroke="#666666" points="1173,-79 1001,-79 1001,-59 1173,-59 1173,-79"/>
<text text-anchor="middle" x="1087" y="-65.5" font-family="Helvetica,sans-Serif" font-size="10.00">fr.softsf.canscan.CanScan.addRow</text>
</a>
</g>
</g>
<!-- Node14&#45;&gt;Node15 -->
<g id="edge15_Node000014_Node000015" class="edge">
<title>Node14&#45;&gt;Node15</title>
<g id="a_edge15_Node000014_Node000015"><a xlink:title=" ">
<path fill="none" stroke="#63b8ff" d="M955.69,-57.56C966.83,-58.54 978.3,-59.55 989.6,-60.54"/>
<polygon fill="#63b8ff" stroke="#63b8ff" points="989.04,-64 999.31,-61.39 989.65,-57.03 989.04,-64"/>
</a>
</g>
</g>
<!-- Node16&#45;&gt;Node15 -->
<g id="edge17_Node000016_Node000015" class="edge">
<title>Node16&#45;&gt;Node15</title>
<g id="a_edge17_Node000016_Node000015"><a xlink:title=" ">
<path fill="none" stroke="#63b8ff" d="M927.3,-22.46C939.79,-25.01 952.88,-27.9 965,-31 991.95,-37.89 1021.77,-47.23 1045.06,-54.93"/>
<polygon fill="#63b8ff" stroke="#63b8ff" points="1043.9,-58.23 1054.49,-58.08 1046.11,-51.59 1043.9,-58.23"/>
</a>
</g>
</g>
<!-- Node17&#45;&gt;Node15 -->
<g id="edge19_Node000017_Node000015" class="edge">
<title>Node17&#45;&gt;Node15</title>
<g id="a_edge19_Node000017_Node000015"><a xlink:title=" ">
<path fill="none" stroke="#63b8ff" d="M726.66,-256.14C793.27,-263.14 891.08,-264.03 965,-225 1021.91,-194.95 1060.44,-125.05 1076.93,-89.93"/>
<polygon fill="#63b8ff" stroke="#63b8ff" points="1080.11,-91.39 1081.04,-80.84 1073.73,-88.51 1080.11,-91.39"/>
</a>
</g>
</g>
<!-- Node18 -->
<g id="Node000018" class="node">
<title>Node18</title>
<g id="a_Node000018"><a xlink:href="classfr_1_1softsf_1_1canscan_1_1_can_scan.html#a17b0a72ab305f98f86591411b6a352f2" target="_top" xlink:title="Creates the color selection panel for QR code and background colors.">
<polygon fill="white" stroke="#666666" points="947,-342 790,-342 790,-310 947,-310 947,-342"/>
<text text-anchor="start" x="798" y="-328.5" font-family="Helvetica,sans-Serif" font-size="10.00">fr.softsf.canscan.CanScan.color</text>
<text text-anchor="middle" x="868.5" y="-316.5" font-family="Helvetica,sans-Serif" font-size="10.00">Panel</text>
</a>
</g>
</g>
<!-- Node17&#45;&gt;Node18 -->
<g id="edge20_Node000017_Node000018" class="edge">
<title>Node17&#45;&gt;Node18</title>
<g id="a_edge20_Node000017_Node000018"><a xlink:title=" ">
<path fill="none" stroke="#63b8ff" d="M681.94,-260.38C705.93,-272.76 740.44,-289.52 772,-301 777.02,-302.83 782.23,-304.58 787.52,-306.25"/>
<polygon fill="#63b8ff" stroke="#63b8ff" points="786.4,-309.56 796.98,-309.11 788.43,-302.86 786.4,-309.56"/>
</a>
</g>
</g>
<!-- Node18&#45;&gt;Node6 -->
<g id="edge22_Node000018_Node000006" class="edge">
<title>Node18&#45;&gt;Node6</title>
<g id="a_edge22_Node000018_Node000006"><a xlink:title=" ">
<path fill="none" stroke="#63b8ff" d="M947.36,-341.82C964.74,-345.36 983.27,-349.12 1000.93,-352.71"/>
<polygon fill="#63b8ff" stroke="#63b8ff" points="1000.11,-356.12 1010.6,-354.68 1001.5,-349.26 1000.11,-356.12"/>
</a>
</g>
</g>
<!-- Node18&#45;&gt;Node18 -->
<g id="edge21_Node000018_Node000018" class="edge">
<title>Node18&#45;&gt;Node18</title>
<g id="a_edge21_Node000018_Node000018"><a xlink:title=" ">
<path fill="none" stroke="#63b8ff" d="M829.56,-342.44C822.29,-351.58 835.27,-360 868.5,-360 886.93,-360 899.13,-357.41 905.11,-353.54"/>
<polygon fill="#63b8ff" stroke="#63b8ff" points="908.5,-354.43 907.13,-343.92 901.65,-352.99 908.5,-354.43"/>
</a>
</g>
</g>
<!-- Node20&#45;&gt;Node15 -->
<g id="edge25_Node000020_Node000015" class="edge">
<title>Node20&#45;&gt;Node15</title>
<g id="a_edge25_Node000020_Node000015"><a xlink:title=" ">
<path fill="none" stroke="#63b8ff" d="M721.06,-165.62C726.32,-163.13 731.38,-160.28 736,-157 758.33,-141.16 748.42,-120.93 772,-107 807.77,-85.87 910.95,-76.44 989.36,-72.27"/>
<polygon fill="#63b8ff" stroke="#63b8ff" points="989.41,-75.77 999.22,-71.76 989.06,-68.78 989.41,-75.77"/>
</a>
</g>
</g>
<!-- Node21 -->
<g id="Node000021" class="node">
<title>Node21</title>
<g id="a_Node000021"><a xlink:href="classfr_1_1softsf_1_1canscan_1_1_can_scan.html#a381579d3adc53b1122b38e7fda5c0235" target="_top" xlink:title="Configures the update button for version checking.">
<polygon fill="white" stroke="#666666" points="956.38,-148 780.62,-148 780.62,-116 956.38,-116 956.38,-148"/>
<text text-anchor="start" x="788.62" y="-134.5" font-family="Helvetica,sans-Serif" font-size="10.00">fr.softsf.canscan.CanScan.configure</text>
<text text-anchor="middle" x="868.5" y="-122.5" font-family="Helvetica,sans-Serif" font-size="10.00">UpdateButton</text>
</a>
</g>
</g>
<!-- Node20&#45;&gt;Node21 -->
<g id="edge26_Node000020_Node000021" class="edge">
<title>Node20&#45;&gt;Node21</title>
<g id="a_edge26_Node000020_Node000021"><a xlink:title=" ">
<path fill="none" stroke="#63b8ff" d="M722.44,-165.56C742.57,-160.9 764.64,-155.8 785.37,-151"/>
<polygon fill="#63b8ff" stroke="#63b8ff" points="785.96,-154.46 794.92,-148.79 784.38,-147.64 785.96,-154.46"/>
</a>
</g>
</g>
<!-- Node22 -->
<g id="Node000022" class="node">
<title>Node22</title>
<g id="a_Node000022"><a xlink:href="classfr_1_1softsf_1_1canscan_1_1_can_scan.html#a5d8f82f2666e6632015dbc4a8ff2b58e" target="_top" xlink:title="Creates the radio button panel for mode selection.">
<polygon fill="white" stroke="#666666" points="947,-198 790,-198 790,-166 947,-166 947,-198"/>
<text text-anchor="start" x="798" y="-184.5" font-family="Helvetica,sans-Serif" font-size="10.00">fr.softsf.canscan.CanScan.radio</text>
<text text-anchor="middle" x="868.5" y="-172.5" font-family="Helvetica,sans-Serif" font-size="10.00">ButtonsPanel</text>
</a>
</g>
</g>
<!-- Node20&#45;&gt;Node22 -->
<g id="edge27_Node000020_Node000022" class="edge">
<title>Node20&#45;&gt;Node22</title>
<g id="a_edge27_Node000020_Node000022"><a xlink:title=" ">
<path fill="none" stroke="#63b8ff" d="M726.66,-182C743.35,-182 761.19,-182 778.37,-182"/>
<polygon fill="#63b8ff" stroke="#63b8ff" points="778.04,-185.5 788.04,-182 778.04,-178.5 778.04,-185.5"/>
</a>
</g>
</g>
<!-- Node23 -->
<g id="Node000023" class="node">
<title>Node23</title>
<g id="a_Node000023"><a xlink:href="classfr_1_1softsf_1_1canscan_1_1_can_scan.html#a428c742b098fa27d4c8984c1030c238d" target="_top" xlink:title="Switches the application between MECARD and FREE QR code modes.">
<polygon fill="white" stroke="#666666" points="962.75,-292 774.25,-292 774.25,-272 962.75,-272 962.75,-292"/>
<text text-anchor="middle" x="868.5" y="-278.5" font-family="Helvetica,sans-Serif" font-size="10.00">fr.softsf.canscan.CanScan.switchMode</text>
</a>
</g>
</g>
<!-- Node20&#45;&gt;Node23 -->
<g id="edge29_Node000020_Node000023" class="edge">
<title>Node20&#45;&gt;Node23</title>
<g id="a_edge29_Node000020_Node000023"><a xlink:title=" ">
<path fill="none" stroke="#63b8ff" d="M689.84,-198.48C704.35,-204.79 720.98,-212.12 736,-219 770.39,-234.75 809.43,-253.58 835.98,-266.52"/>
<polygon fill="#63b8ff" stroke="#63b8ff" points="834.32,-269.6 844.84,-270.85 837.39,-263.31 834.32,-269.6"/>
</a>
</g>
</g>
<!-- Node22&#45;&gt;Node22 -->
<g id="edge28_Node000022_Node000022" class="edge">
<title>Node22&#45;&gt;Node22</title>
<g id="a_edge28_Node000022_Node000022"><a xlink:title=" ">
<path fill="none" stroke="#63b8ff" d="M829.56,-198.44C822.29,-207.58 835.27,-216 868.5,-216 886.93,-216 899.13,-213.41 905.11,-209.54"/>
<polygon fill="#63b8ff" stroke="#63b8ff" points="908.5,-210.43 907.13,-199.92 901.65,-208.99 908.5,-210.43"/>
</a>
</g>
</g>
<!-- Node23&#45;&gt;Node6 -->
<g id="edge30_Node000023_Node000006" class="edge">
<title>Node23&#45;&gt;Node6</title>
<g id="a_edge30_Node000023_Node000006"><a xlink:title=" ">
<path fill="none" stroke="#63b8ff" d="M936.54,-292.48C946.23,-294.82 955.97,-297.63 965,-301 973.8,-304.29 1016.52,-329.02 1048.72,-347.94"/>
<polygon fill="#63b8ff" stroke="#63b8ff" points="1046.63,-350.77 1057.02,-352.83 1050.18,-344.74 1046.63,-350.77"/>
</a>
</g>
</g>
<!-- Node24 -->
<g id="Node000024" class="node">
<title>Node24</title>
<g id="a_Node000024"><a xlink:href="enumfr_1_1softsf_1_1canscan_1_1model_1_1_mode.html#a16a898a11ca939056bd7b275f11ea54c" target="_top" xlink:title="Returns the mode label.">
<polygon fill="white" stroke="#666666" points="1147.88,-261 1026.12,-261 1026.12,-229 1147.88,-229 1147.88,-261"/>
<text text-anchor="start" x="1034.12" y="-247.5" font-family="Helvetica,sans-Serif" font-size="10.00">fr.softsf.canscan.model.</text>
<text text-anchor="middle" x="1087" y="-235.5" font-family="Helvetica,sans-Serif" font-size="10.00">Mode.text</text>
</a>
</g>
</g>
<!-- Node23&#45;&gt;Node24 -->
<g id="edge31_Node000023_Node000024" class="edge">
<title>Node23&#45;&gt;Node24</title>
<g id="a_edge31_Node000023_Node000024"><a xlink:title=" ">
<path fill="none" stroke="#63b8ff" d="M930.67,-271.55C956.83,-267.08 987.54,-261.83 1014.72,-257.18"/>
<polygon fill="#63b8ff" stroke="#63b8ff" points="1014.97,-260.69 1024.24,-255.56 1013.79,-253.79 1014.97,-260.69"/>
</a>
</g>
</g>
<!-- Node25 -->
<g id="Node000025" class="node">
<title>Node25</title>
<g id="a_Node000025"><a xlink:href="classfr_1_1softsf_1_1canscan_1_1_can_scan.html#a11fd9295c4843e6e68f9d1e4a710b906" target="_top" xlink:title="Validates the current input fields and toggles the state of the generate button.">
<polygon fill="white" stroke="#666666" points="1169.62,-311 1004.38,-311 1004.38,-279 1169.62,-279 1169.62,-311"/>
<text text-anchor="start" x="1012.38" y="-297.5" font-family="Helvetica,sans-Serif" font-size="10.00">fr.softsf.canscan.CanScan.update</text>
<text text-anchor="middle" x="1087" y="-285.5" font-family="Helvetica,sans-Serif" font-size="10.00">GenerateButtonState</text>
</a>
</g>
</g>
<!-- Node23&#45;&gt;Node25 -->
<g id="edge32_Node000023_Node000025" class="edge">
<title>Node23&#45;&gt;Node25</title>
<g id="a_edge32_Node000023_Node000025"><a xlink:title=" ">
<path fill="none" stroke="#63b8ff" d="M963.2,-287.63C972.98,-288.21 982.91,-288.81 992.68,-289.4"/>
<polygon fill="#63b8ff" stroke="#63b8ff" points="992.35,-292.88 1002.54,-289.99 992.77,-285.9 992.35,-292.88"/>
</a>
</g>
</g>
<!-- Node29 -->
<g id="Node000029" class="node">
<title>Node29</title>
<g id="a_Node000029"><a xlink:href="classfr_1_1softsf_1_1canscan_1_1_can_scan.html#abbe4fb71ad979d6affed0b2c9629b832" target="_top" xlink:title="Updates the tooltip of the ratio slider to reflect its current value as a percentage.">
<polygon fill="white" stroke="#666666" points="725.12,-420 575.62,-420 575.62,-388 725.12,-388 725.12,-420"/>
<text text-anchor="start" x="583.62" y="-406.5" font-family="Helvetica,sans-Serif" font-size="10.00">fr.softsf.canscan.CanScan.set</text>
<text text-anchor="middle" x="650.38" y="-394.5" font-family="Helvetica,sans-Serif" font-size="10.00">RatioSliderTooltipValue</text>
</a>
</g>
</g>
<!-- Node28&#45;&gt;Node29 -->
<g id="edge36_Node000028_Node000029" class="edge">
<title>Node28&#45;&gt;Node29</title>
<g id="a_edge36_Node000028_Node000029"><a xlink:title=" ">
<path fill="none" stroke="#63b8ff" d="M529.09,-384.07C540.71,-386 552.63,-387.97 564.25,-389.9"/>
<polygon fill="#63b8ff" stroke="#63b8ff" points="563.35,-393.3 573.79,-391.48 564.49,-386.39 563.35,-393.3"/>
</a>
</g>
</g>
<!-- Node30&#45;&gt;Node1 -->
<g id="edge38_Node000030_Node000001" class="edge">
<title>Node30&#45;&gt;Node1</title>
<g id="a_edge38_Node000030_Node000001"><a xlink:title=" ">
<path fill="none" stroke="#63b8ff" d="M357.19,-148C298.26,-159.1 220.06,-173.82 161.05,-184.94"/>
<polygon fill="#63b8ff" stroke="#63b8ff" points="160.56,-181.47 151.38,-186.76 161.85,-188.35 160.56,-181.47"/>
</a>
</g>
</g>
</g>
</svg>
