<?xml version="1.0" encoding="UTF-8" standalone="no"?>
<!DOCTYPE svg PUBLIC "-//W3C//DTD SVG 1.1//EN"
 "http://www.w3.org/Graphics/SVG/1.1/DTD/svg11.dtd">
<!-- Generated by graphviz version 12.2.1 (20241206.2353)
 -->
<!-- Title: fr.softsf.canscan.NativeImageConfigSimulator.runSimulation Pages: 1 -->
<!--zoomable 468 -->

<svg id="main" version="1.1" xmlns="http://www.w3.org/2000/svg" xmlns:xlink="http://www.w3.org/1999/xlink" xml:space="preserve" onload="init(evt)">

<style type="text/css"><![CDATA[
.node, .edge {opacity: 0.7;}
.node.selected, .edge.selected {opacity: 1;}
.edge:hover path { stroke: red; }
.edge:hover polygon { stroke: red; fill: red; }
]]></style>

<defs>
  <circle id="rim" cx="0" cy="0" r="7"/>
  <circle id="rim2" cx="0" cy="0" r="3.5"/>
  <g id="zoomPlus">
    <use xlink:href="#rim" fill="#404040"><set attributeName="fill" to="#808080" begin="zoomplus.mouseover" end="zoomplus.mouseout"/></use>
    <path d="M-4,0h8M0,-4v8" fill="none" stroke="white" stroke-width="1.5" pointer-events="none"/>
  </g>
  <g id="zoomMin">
    <use xlink:href="#rim" fill="#404040"><set attributeName="fill" to="#808080" begin="zoomminus.mouseover" end="zoomminus.mouseout"/></use>
    <path d="M-4,0h8" fill="none" stroke="white" stroke-width="1.5" pointer-events="none"/>
  </g>
  <g id="arrowUp" transform="translate(30 24)">
    <use xlink:href="#rim"/>
    <path pointer-events="none" fill="none" stroke="white" stroke-width="1.5" d="M0,-3.0v7 M-2.5,-0.5L0,-3.0L2.5,-0.5"/>
  </g>
  <g id="arrowRight" transform="rotate(90) translate(36 -43)">
    <use xlink:href="#rim"/>
    <path pointer-events="none" fill="none" stroke="white" stroke-width="1.5" d="M0,-3.0v7 M-2.5,-0.5L0,-3.0L2.5,-0.5"/>
  </g>
  <g id="arrowDown" transform="rotate(180) translate(-30 -48)">
    <use xlink:href="#rim"/>
    <path pointer-events="none" fill="none" stroke="white" stroke-width="1.5" d="M0,-3.0v7 M-2.5,-0.5L0,-3.0L2.5,-0.5"/>
  </g>
  <g id="arrowLeft" transform="rotate(270) translate(-36 17)">
    <use xlink:href="#rim"/>
    <path pointer-events="none" fill="none" stroke="white" stroke-width="1.5" d="M0,-3.0v7 M-2.5,-0.5L0,-3.0L2.5,-0.5"/>
  </g>
  <g id="resetDef">
    <use xlink:href="#rim2" fill="#404040"><set attributeName="fill" to="#808080" begin="reset.mouseover" end="reset.mouseout"/></use>
  </g>
</defs>
<script type="application/ecmascript">
var viewWidth = 857;
var viewHeight = 468;
var sectionId = 'dynsection-14';
</script>
<script type="application/ecmascript" xlink:href="svg.min.js"/>
<svg id="graph" class="graph">
<g id="viewport">
<title>fr.softsf.canscan.NativeImageConfigSimulator.runSimulation</title>
<!-- Node1 -->
<g id="Node000001" class="node">
<title>Node1</title>
<g id="a_Node000001"><a xlink:title="Runs the full end&#45;to&#45;end UI simulation for Native Image configuration using a Robot.">
<polygon fill="#999999" stroke="#666666" points="175,-249 0,-249 0,-217 175,-217 175,-249"/>
<text text-anchor="start" x="8" y="-235.5" font-family="Helvetica,sans-Serif" font-size="10.00">fr.softsf.canscan.Native</text>
<text text-anchor="middle" x="87.5" y="-223.5" font-family="Helvetica,sans-Serif" font-size="10.00">ImageConfigSimulator.runSimulation</text>
</a>
</g>
</g>
<!-- Node2 -->
<g id="Node000002" class="node">
<title>Node2</title>
<g id="a_Node000002"><a xlink:href="classfr_1_1softsf_1_1canscan_1_1_native_image_config_simulator.html#acbf2b92c5c36da7ad4329966d92f1a1b" target="_top" xlink:title="Simulates clicking a browse button to open a JFileChooser, performs a right&#45;click inside it,...">
<polygon fill="white" stroke="#666666" points="401.75,-410 222.25,-410 222.25,-366 401.75,-366 401.75,-410"/>
<text text-anchor="start" x="230.25" y="-396.5" font-family="Helvetica,sans-Serif" font-size="10.00">fr.softsf.canscan.Native</text>
<text text-anchor="start" x="230.25" y="-384.5" font-family="Helvetica,sans-Serif" font-size="10.00">ImageConfigSimulator.browseFolders</text>
<text text-anchor="middle" x="312" y="-372.5" font-family="Helvetica,sans-Serif" font-size="10.00">Simulation</text>
</a>
</g>
</g>
<!-- Node1&#45;&gt;Node2 -->
<g id="edge1_Node000001_Node000002" class="edge">
<title>Node1&#45;&gt;Node2</title>
<g id="a_edge1_Node000001_Node000002"><a xlink:title=" ">
<path fill="none" stroke="#63b8ff" d="M100.18,-249.19C120.03,-275.56 162.9,-327.77 211,-357 213,-358.22 215.06,-359.39 217.15,-360.52"/>
<polygon fill="#63b8ff" stroke="#63b8ff" points="215.35,-363.53 225.87,-364.83 218.46,-357.26 215.35,-363.53"/>
</a>
</g>
</g>
<!-- Node4 -->
<g id="Node000004" class="node">
<title>Node4</title>
<g id="a_Node000004"><a xlink:href="classfr_1_1softsf_1_1canscan_1_1_native_image_config_simulator.html#a3ce8b70d660baabe5ed741e64dfd0af3" target="_top" xlink:title="Simulates selecting a color via JColorChooser, confirms the dialog with Enter, and verifies the selec...">
<polygon fill="white" stroke="#666666" points="413,-460 211,-460 211,-428 413,-428 413,-460"/>
<text text-anchor="start" x="219" y="-446.5" font-family="Helvetica,sans-Serif" font-size="10.00">fr.softsf.canscan.Native</text>
<text text-anchor="middle" x="312" y="-434.5" font-family="Helvetica,sans-Serif" font-size="10.00">ImageConfigSimulator.chooseModuleColor</text>
</a>
</g>
</g>
<!-- Node1&#45;&gt;Node4 -->
<g id="edge3_Node000001_Node000004" class="edge">
<title>Node1&#45;&gt;Node4</title>
<g id="a_edge3_Node000001_Node000004"><a xlink:title=" ">
<path fill="none" stroke="#63b8ff" d="M94.46,-249.39C108.63,-285.91 147.91,-374.28 211,-419 212.61,-420.14 214.26,-421.23 215.95,-422.26"/>
<polygon fill="#63b8ff" stroke="#63b8ff" points="214.23,-425.31 224.69,-426.96 217.54,-419.15 214.23,-425.31"/>
</a>
</g>
</g>
<!-- Node6 -->
<g id="Node000006" class="node">
<title>Node6</title>
<g id="a_Node000006"><a xlink:href="classfr_1_1softsf_1_1canscan_1_1_native_image_config_simulator.html#ad18c2e9f57e07032b9a48a10e02e61f6" target="_top" xlink:title="Searches for a component of the specified type and name within the given container hierarchy.">
<polygon fill="white" stroke="#666666" points="402.88,-32 221.12,-32 221.12,0 402.88,0 402.88,-32"/>
<text text-anchor="start" x="229.12" y="-18.5" font-family="Helvetica,sans-Serif" font-size="10.00">fr.softsf.canscan.Native</text>
<text text-anchor="middle" x="312" y="-6.5" font-family="Helvetica,sans-Serif" font-size="10.00">ImageConfigSimulator.findComponent</text>
</a>
</g>
</g>
<!-- Node1&#45;&gt;Node6 -->
<g id="edge6_Node000001_Node000006" class="edge">
<title>Node1&#45;&gt;Node6</title>
<g id="a_edge6_Node000001_Node000006"><a xlink:title=" ">
<path fill="none" stroke="#63b8ff" d="M96.14,-216.58C112.62,-182.78 154.63,-104.74 211,-59 221.88,-50.17 234.86,-42.84 247.79,-36.89"/>
<polygon fill="#63b8ff" stroke="#63b8ff" points="248.95,-40.21 256.73,-33.02 246.16,-33.79 248.95,-40.21"/>
</a>
</g>
</g>
<!-- Node7 -->
<g id="Node000007" class="node">
<title>Node7</title>
<g id="a_Node000007"><a xlink:href="classfr_1_1softsf_1_1canscan_1_1_native_image_config_simulator.html#a38fd2d97bfc693365a8dc700273ada47" target="_top" xlink:title="Simulates selecting the free data mode and entering an oversized payload into the input field.">
<polygon fill="white" stroke="#666666" points="388.62,-224 235.38,-224 235.38,-180 388.62,-180 388.62,-224"/>
<text text-anchor="start" x="243.38" y="-210.5" font-family="Helvetica,sans-Serif" font-size="10.00">fr.softsf.canscan.Native</text>
<text text-anchor="start" x="243.38" y="-198.5" font-family="Helvetica,sans-Serif" font-size="10.00">ImageConfigSimulator.freeData</text>
<text text-anchor="middle" x="312" y="-186.5" font-family="Helvetica,sans-Serif" font-size="10.00">TooBig</text>
</a>
</g>
</g>
<!-- Node1&#45;&gt;Node7 -->
<g id="edge8_Node000001_Node000007" class="edge">
<title>Node1&#45;&gt;Node7</title>
<g id="a_edge8_Node000001_Node000007"><a xlink:title=" ">
<path fill="none" stroke="#63b8ff" d="M175.48,-220.88C191.27,-218.68 207.75,-216.39 223.55,-214.18"/>
<polygon fill="#63b8ff" stroke="#63b8ff" points="224,-217.66 233.42,-212.81 223.03,-210.72 224,-217.66"/>
</a>
</g>
</g>
<!-- Node10 -->
<g id="Node000010" class="node">
<title>Node10</title>
<g id="a_Node000010"><a xlink:href="classfr_1_1softsf_1_1canscan_1_1_native_image_config_simulator.html#ae2840980d77f2806ab5f1bd471186ed3" target="_top" xlink:title="Simulates typing &quot;Test&quot; into a JTextField and verifies the input using a Robot.">
<polygon fill="white" stroke="#666666" points="396.12,-162 227.88,-162 227.88,-118 396.12,-118 396.12,-162"/>
<text text-anchor="start" x="235.88" y="-148.5" font-family="Helvetica,sans-Serif" font-size="10.00">fr.softsf.canscan.Native</text>
<text text-anchor="start" x="235.88" y="-136.5" font-family="Helvetica,sans-Serif" font-size="10.00">ImageConfigSimulator.nameTyping</text>
<text text-anchor="middle" x="312" y="-124.5" font-family="Helvetica,sans-Serif" font-size="10.00">Simulation</text>
</a>
</g>
</g>
<!-- Node1&#45;&gt;Node10 -->
<g id="edge14_Node000001_Node000010" class="edge">
<title>Node1&#45;&gt;Node10</title>
<g id="a_edge14_Node000001_Node000010"><a xlink:title=" ">
<path fill="none" stroke="#63b8ff" d="M117.56,-216.54C141.98,-203.14 178.08,-184.32 211,-171 215.01,-169.38 219.13,-167.79 223.32,-166.24"/>
<polygon fill="#63b8ff" stroke="#63b8ff" points="224.17,-169.66 232.41,-163 221.81,-163.07 224.17,-169.66"/>
</a>
</g>
</g>
<!-- Node13 -->
<g id="Node000013" class="node">
<title>Node13</title>
<g id="a_Node000013"><a xlink:href="classfr_1_1softsf_1_1canscan_1_1_native_image_config_simulator.html#aca8bae30971c2243dc992ef4dc9d3ca8" target="_top" xlink:title="Simulates opening the latest release repository URL in the system browser.">
<polygon fill="white" stroke="#666666" points="393.88,-348 230.12,-348 230.12,-304 393.88,-304 393.88,-348"/>
<text text-anchor="start" x="238.12" y="-334.5" font-family="Helvetica,sans-Serif" font-size="10.00">fr.softsf.canscan.Native</text>
<text text-anchor="start" x="238.12" y="-322.5" font-family="Helvetica,sans-Serif" font-size="10.00">ImageConfigSimulator.openLatest</text>
<text text-anchor="middle" x="312" y="-310.5" font-family="Helvetica,sans-Serif" font-size="10.00">ReleaseRepoInBrowser</text>
</a>
</g>
</g>
<!-- Node1&#45;&gt;Node13 -->
<g id="edge18_Node000001_Node000013" class="edge">
<title>Node1&#45;&gt;Node13</title>
<g id="a_edge18_Node000001_Node000013"><a xlink:title=" ">
<path fill="none" stroke="#63b8ff" d="M117.56,-249.46C141.98,-262.86 178.08,-281.68 211,-295 215.01,-296.62 219.13,-298.21 223.32,-299.76"/>
<polygon fill="#63b8ff" stroke="#63b8ff" points="221.81,-302.93 232.41,-303 224.17,-296.34 221.81,-302.93"/>
</a>
</g>
</g>
<!-- Node14 -->
<g id="Node000014" class="node">
<title>Node14</title>
<g id="a_Node000014"><a xlink:href="classfr_1_1softsf_1_1canscan_1_1_native_image_config_simulator.html#a9e920788e82b3b113a566174265607af" target="_top" xlink:title="Simulates hovering over a JSlider to verify its tooltip matches the current slider value.">
<polygon fill="white" stroke="#666666" points="391.62,-286 232.38,-286 232.38,-242 391.62,-242 391.62,-286"/>
<text text-anchor="start" x="240.38" y="-272.5" font-family="Helvetica,sans-Serif" font-size="10.00">fr.softsf.canscan.Native</text>
<text text-anchor="start" x="240.38" y="-260.5" font-family="Helvetica,sans-Serif" font-size="10.00">ImageConfigSimulator.ratioSlider</text>
<text text-anchor="middle" x="312" y="-248.5" font-family="Helvetica,sans-Serif" font-size="10.00">TooltipSimulation</text>
</a>
</g>
</g>
<!-- Node1&#45;&gt;Node14 -->
<g id="edge20_Node000001_Node000014" class="edge">
<title>Node1&#45;&gt;Node14</title>
<g id="a_edge20_Node000001_Node000014"><a xlink:title=" ">
<path fill="none" stroke="#63b8ff" d="M175.48,-245.12C190.34,-247.19 205.81,-249.34 220.75,-251.43"/>
<polygon fill="#63b8ff" stroke="#63b8ff" points="220.17,-254.88 230.56,-252.79 221.14,-247.95 220.17,-254.88"/>
</a>
</g>
</g>
<!-- Node15 -->
<g id="Node000015" class="node">
<title>Node15</title>
<g id="a_Node000015"><a xlink:href="classfr_1_1softsf_1_1canscan_1_1_native_image_config_simulator.html#a346e85bc50a5fd264ba680c0c5a3d51a" target="_top" xlink:title="Simulates activating the meeting mode and selecting a start time through the TimePicker.">
<polygon fill="white" stroke="#666666" points="409.62,-100 214.38,-100 214.38,-68 409.62,-68 409.62,-100"/>
<text text-anchor="start" x="222.38" y="-86.5" font-family="Helvetica,sans-Serif" font-size="10.00">fr.softsf.canscan.Native</text>
<text text-anchor="middle" x="312" y="-74.5" font-family="Helvetica,sans-Serif" font-size="10.00">ImageConfigSimulator.selectABeginTime</text>
</a>
</g>
</g>
<!-- Node1&#45;&gt;Node15 -->
<g id="edge22_Node000001_Node000015" class="edge">
<title>Node1&#45;&gt;Node15</title>
<g id="a_edge22_Node000001_Node000015"><a xlink:title=" ">
<path fill="none" stroke="#63b8ff" d="M100,-216.51C119.59,-189.71 162.1,-136.88 211,-109 213.48,-107.58 216.04,-106.25 218.67,-104.99"/>
<polygon fill="#63b8ff" stroke="#63b8ff" points="219.87,-108.28 227.65,-101.09 217.08,-101.86 219.87,-108.28"/>
</a>
</g>
</g>
<!-- Node3 -->
<g id="Node000003" class="node">
<title>Node3</title>
<g id="a_Node000003"><a xlink:href="classfr_1_1softsf_1_1canscan_1_1_native_image_config_simulator.html#aaadd03094f00bbe2258c6e9742be224d" target="_top" xlink:title="Compares two strings and prints the test result with a label.">
<polygon fill="white" stroke="#666666" points="626.25,-280 453.5,-280 453.5,-248 626.25,-248 626.25,-280"/>
<text text-anchor="start" x="461.5" y="-266.5" font-family="Helvetica,sans-Serif" font-size="10.00">fr.softsf.canscan.Native</text>
<text text-anchor="middle" x="539.88" y="-254.5" font-family="Helvetica,sans-Serif" font-size="10.00">ImageConfigSimulator.assertEquals</text>
</a>
</g>
</g>
<!-- Node2&#45;&gt;Node3 -->
<g id="edge2_Node000002_Node000003" class="edge">
<title>Node2&#45;&gt;Node3</title>
<g id="a_edge2_Node000002_Node000003"><a xlink:title=" ">
<path fill="none" stroke="#63b8ff" d="M393.9,-365.53C400.47,-362.92 406.92,-360.08 413,-357 450.19,-338.18 488.01,-308.52 512.35,-287.77"/>
<polygon fill="#63b8ff" stroke="#63b8ff" points="514.57,-290.48 519.84,-281.29 509.99,-285.18 514.57,-290.48"/>
</a>
</g>
</g>
<!-- Node4&#45;&gt;Node3 -->
<g id="edge4_Node000004_Node000003" class="edge">
<title>Node4&#45;&gt;Node3</title>
<g id="a_edge4_Node000004_Node000003"><a xlink:title=" ">
<path fill="none" stroke="#63b8ff" d="M398.54,-427.55C403.63,-425.08 408.51,-422.25 413,-419 437.28,-401.44 430.8,-385.8 449,-362 469.31,-335.44 495.4,-307.57 514.23,-288.37"/>
<polygon fill="#63b8ff" stroke="#63b8ff" points="516.72,-290.84 521.27,-281.27 511.74,-285.91 516.72,-290.84"/>
</a>
</g>
</g>
<!-- Node5 -->
<g id="Node000005" class="node">
<title>Node5</title>
<g id="a_Node000005"><a xlink:href="classfr_1_1softsf_1_1canscan_1_1_native_image_config_simulator.html#ab4d4463dc9177237a8de0a7b6713e7cf" target="_top" xlink:title="Simulates pressing the Enter key using the provided Robot, followed by a short delay.">
<polygon fill="white" stroke="#666666" points="839.5,-340 676.5,-340 676.5,-308 839.5,-308 839.5,-340"/>
<text text-anchor="start" x="684.5" y="-326.5" font-family="Helvetica,sans-Serif" font-size="10.00">fr.softsf.canscan.Native</text>
<text text-anchor="middle" x="758" y="-314.5" font-family="Helvetica,sans-Serif" font-size="10.00">ImageConfigSimulator.pressEnter</text>
</a>
</g>
</g>
<!-- Node4&#45;&gt;Node5 -->
<g id="edge5_Node000004_Node000005" class="edge">
<title>Node4&#45;&gt;Node5</title>
<g id="a_edge5_Node000004_Node000005"><a xlink:title=" ">
<path fill="none" stroke="#63b8ff" d="M379.76,-427.55C390.87,-424.74 402.27,-421.82 413,-419 508.7,-393.83 618.87,-363.09 688.22,-343.53"/>
<polygon fill="#63b8ff" stroke="#63b8ff" points="688.86,-346.98 697.53,-340.9 686.96,-340.25 688.86,-346.98"/>
</a>
</g>
</g>
<!-- Node6&#45;&gt;Node6 -->
<g id="edge7_Node000006_Node000006" class="edge">
<title>Node6&#45;&gt;Node6</title>
<g id="a_edge7_Node000006_Node000006"><a xlink:title=" ">
<path fill="none" stroke="#63b8ff" d="M271.92,-32.44C264.44,-41.58 277.8,-50 312,-50 330.97,-50 343.53,-47.41 349.68,-43.54"/>
<polygon fill="#63b8ff" stroke="#63b8ff" points="353.06,-44.44 351.76,-33.92 346.22,-42.95 353.06,-44.44"/>
</a>
</g>
</g>
<!-- Node7&#45;&gt;Node3 -->
<g id="edge9_Node000007_Node000003" class="edge">
<title>Node7&#45;&gt;Node3</title>
<g id="a_edge9_Node000007_Node000003"><a xlink:title=" ">
<path fill="none" stroke="#63b8ff" d="M388.84,-222.82C414.41,-229.84 442.83,-237.64 467.99,-244.54"/>
<polygon fill="#63b8ff" stroke="#63b8ff" points="466.9,-247.87 477.47,-247.15 468.76,-241.12 466.9,-247.87"/>
</a>
</g>
</g>
<!-- Node8 -->
<g id="Node000008" class="node">
<title>Node8</title>
<g id="a_Node000008"><a xlink:href="classfr_1_1softsf_1_1canscan_1_1_native_image_config_simulator.html#a4795cbc2d8717311fd26b8589a618616" target="_top" xlink:title="Confirms and closes a visible JOptionPane by pressing Enter, then returns the dialog title.">
<polygon fill="white" stroke="#666666" points="616.5,-227 463.25,-227 463.25,-183 616.5,-183 616.5,-227"/>
<text text-anchor="start" x="471.25" y="-213.5" font-family="Helvetica,sans-Serif" font-size="10.00">fr.softsf.canscan.Native</text>
<text text-anchor="start" x="471.25" y="-201.5" font-family="Helvetica,sans-Serif" font-size="10.00">ImageConfigSimulator.intercept</text>
<text text-anchor="middle" x="539.88" y="-189.5" font-family="Helvetica,sans-Serif" font-size="10.00">AndValideDialog</text>
</a>
</g>
</g>
<!-- Node7&#45;&gt;Node8 -->
<g id="edge10_Node000007_Node000008" class="edge">
<title>Node7&#45;&gt;Node8</title>
<g id="a_edge10_Node000007_Node000008"><a xlink:title=" ">
<path fill="none" stroke="#63b8ff" d="M388.84,-203.01C408.95,-203.27 430.83,-203.57 451.51,-203.84"/>
<polygon fill="#63b8ff" stroke="#63b8ff" points="451.29,-207.34 461.34,-203.97 451.38,-200.34 451.29,-207.34"/>
</a>
</g>
</g>
<!-- Node8&#45;&gt;Node5 -->
<g id="edge13_Node000008_Node000005" class="edge">
<title>Node8&#45;&gt;Node5</title>
<g id="a_edge13_Node000008_Node000005"><a xlink:title=" ">
<path fill="none" stroke="#63b8ff" d="M605.49,-227.37C614.12,-230.96 622.75,-234.86 630.75,-239 665.51,-256.97 702.3,-282.59 727.14,-301"/>
<polygon fill="#63b8ff" stroke="#63b8ff" points="724.73,-303.57 734.83,-306.76 728.93,-297.97 724.73,-303.57"/>
</a>
</g>
</g>
<!-- Node9 -->
<g id="Node000009" class="node">
<title>Node9</title>
<g id="a_Node000009"><a xlink:href="classfr_1_1softsf_1_1canscan_1_1_native_image_config_simulator.html#ac80dbcb1d031bb72c93cf21315c09f27" target="_top" xlink:title="Recursively searches the given container and its descendants for a JOptionPane instance.">
<polygon fill="white" stroke="#666666" points="849.25,-221 666.75,-221 666.75,-189 849.25,-189 849.25,-221"/>
<text text-anchor="start" x="674.75" y="-207.5" font-family="Helvetica,sans-Serif" font-size="10.00">fr.softsf.canscan.Native</text>
<text text-anchor="middle" x="758" y="-195.5" font-family="Helvetica,sans-Serif" font-size="10.00">ImageConfigSimulator.findOptionPane</text>
</a>
</g>
</g>
<!-- Node8&#45;&gt;Node9 -->
<g id="edge11_Node000008_Node000009" class="edge">
<title>Node8&#45;&gt;Node9</title>
<g id="a_edge11_Node000008_Node000009"><a xlink:title=" ">
<path fill="none" stroke="#63b8ff" d="M616.77,-205C629.19,-205 642.23,-205 655.15,-205"/>
<polygon fill="#63b8ff" stroke="#63b8ff" points="654.94,-208.5 664.94,-205 654.94,-201.5 654.94,-208.5"/>
</a>
</g>
</g>
<!-- Node9&#45;&gt;Node9 -->
<g id="edge12_Node000009_Node000009" class="edge">
<title>Node9&#45;&gt;Node9</title>
<g id="a_edge12_Node000009_Node000009"><a xlink:title=" ">
<path fill="none" stroke="#63b8ff" d="M719.06,-221.44C711.79,-230.58 724.77,-239 758,-239 776.43,-239 788.63,-236.41 794.61,-232.54"/>
<polygon fill="#63b8ff" stroke="#63b8ff" points="798,-233.43 796.63,-222.92 791.15,-231.99 798,-233.43"/>
</a>
</g>
</g>
<!-- Node10&#45;&gt;Node3 -->
<g id="edge15_Node000010_Node000003" class="edge">
<title>Node10&#45;&gt;Node3</title>
<g id="a_edge15_Node000010_Node000003"><a xlink:title=" ">
<path fill="none" stroke="#63b8ff" d="M396.38,-160.19C402.3,-163.29 407.92,-166.87 413,-171 438.62,-191.84 423.39,-215.14 449,-236 451.7,-238.2 454.57,-240.23 457.57,-242.1"/>
<polygon fill="#63b8ff" stroke="#63b8ff" points="455.74,-245.08 466.2,-246.81 459.1,-238.94 455.74,-245.08"/>
</a>
</g>
</g>
<!-- Node11 -->
<g id="Node000011" class="node">
<title>Node11</title>
<g id="a_Node000011"><a xlink:href="classfr_1_1softsf_1_1canscan_1_1_native_image_config_simulator.html#acc5424a9d2c1d44c93a045868f58a5ff" target="_top" xlink:title="Simulates typing a full string using the Robot class.">
<polygon fill="white" stroke="#666666" points="619.88,-159 459.88,-159 459.88,-127 619.88,-127 619.88,-159"/>
<text text-anchor="start" x="467.88" y="-145.5" font-family="Helvetica,sans-Serif" font-size="10.00">fr.softsf.canscan.Native</text>
<text text-anchor="middle" x="539.88" y="-133.5" font-family="Helvetica,sans-Serif" font-size="10.00">ImageConfigSimulator.typeString</text>
</a>
</g>
</g>
<!-- Node10&#45;&gt;Node11 -->
<g id="edge16_Node000010_Node000011" class="edge">
<title>Node10&#45;&gt;Node11</title>
<g id="a_edge16_Node000010_Node000011"><a xlink:title=" ">
<path fill="none" stroke="#63b8ff" d="M396.47,-141.11C413.37,-141.33 431.23,-141.57 448.36,-141.8"/>
<polygon fill="#63b8ff" stroke="#63b8ff" points="447.94,-145.29 457.99,-141.93 448.04,-138.29 447.94,-145.29"/>
</a>
</g>
</g>
<!-- Node12 -->
<g id="Node000012" class="node">
<title>Node12</title>
<g id="a_Node000012"><a xlink:href="classfr_1_1softsf_1_1canscan_1_1_native_image_config_simulator.html#a4c1895b6327fef325b1b0c8047bcfcb7" target="_top" xlink:title="Simulates typing a single character using the Robot class.">
<polygon fill="white" stroke="#666666" points="835.75,-165 680.25,-165 680.25,-133 835.75,-133 835.75,-165"/>
<text text-anchor="start" x="688.25" y="-151.5" font-family="Helvetica,sans-Serif" font-size="10.00">fr.softsf.canscan.Native</text>
<text text-anchor="middle" x="758" y="-139.5" font-family="Helvetica,sans-Serif" font-size="10.00">ImageConfigSimulator.typeChar</text>
</a>
</g>
</g>
<!-- Node11&#45;&gt;Node12 -->
<g id="edge17_Node000011_Node000012" class="edge">
<title>Node11&#45;&gt;Node12</title>
<g id="a_edge17_Node000011_Node000012"><a xlink:title=" ">
<path fill="none" stroke="#63b8ff" d="M620.12,-145.2C635.98,-145.64 652.73,-146.11 668.87,-146.55"/>
<polygon fill="#63b8ff" stroke="#63b8ff" points="668.32,-150.04 678.41,-146.82 668.51,-143.04 668.32,-150.04"/>
</a>
</g>
</g>
<!-- Node13&#45;&gt;Node3 -->
<g id="edge19_Node000013_Node000003" class="edge">
<title>Node13&#45;&gt;Node3</title>
<g id="a_edge19_Node000013_Node000003"><a xlink:title=" ">
<path fill="none" stroke="#63b8ff" d="M394.23,-303.7C418.36,-297.08 444.59,-289.88 468,-283.45"/>
<polygon fill="#63b8ff" stroke="#63b8ff" points="468.72,-286.89 477.44,-280.86 466.87,-280.14 468.72,-286.89"/>
</a>
</g>
</g>
<!-- Node14&#45;&gt;Node3 -->
<g id="edge21_Node000014_Node000003" class="edge">
<title>Node14&#45;&gt;Node3</title>
<g id="a_edge21_Node000014_Node000003"><a xlink:title=" ">
<path fill="none" stroke="#63b8ff" d="M392,-264C408.13,-264 425.27,-264 441.94,-264"/>
<polygon fill="#63b8ff" stroke="#63b8ff" points="441.87,-267.5 451.87,-264 441.87,-260.5 441.87,-267.5"/>
</a>
</g>
</g>
<!-- Node15&#45;&gt;Node3 -->
<g id="edge23_Node000015_Node000003" class="edge">
<title>Node15&#45;&gt;Node3</title>
<g id="a_edge23_Node000015_Node000003"><a xlink:title=" ">
<path fill="none" stroke="#63b8ff" d="M402.02,-100.44C405.97,-102.92 409.66,-105.76 413,-109 455.13,-149.83 408.05,-193.98 449,-236 450.81,-237.85 452.73,-239.59 454.76,-241.2"/>
<polygon fill="#63b8ff" stroke="#63b8ff" points="452.71,-244.04 462.96,-246.74 456.63,-238.24 452.71,-244.04"/>
</a>
</g>
</g>
<!-- Node16 -->
<g id="Node000016" class="node">
<title>Node16</title>
<g id="a_Node000016"><a xlink:href="classfr_1_1softsf_1_1canscan_1_1_native_image_config_simulator.html#aaf2a12382a791fc827de25518f612449" target="_top" xlink:title="Recursively searches for the visible JList across all open windows.">
<polygon fill="white" stroke="#666666" points="630.75,-99 449,-99 449,-67 630.75,-67 630.75,-99"/>
<text text-anchor="start" x="457" y="-85.5" font-family="Helvetica,sans-Serif" font-size="10.00">fr.softsf.canscan.Native</text>
<text text-anchor="middle" x="539.88" y="-73.5" font-family="Helvetica,sans-Serif" font-size="10.00">ImageConfigSimulator.findVisibleJList</text>
</a>
</g>
</g>
<!-- Node15&#45;&gt;Node16 -->
<g id="edge24_Node000015_Node000016" class="edge">
<title>Node15&#45;&gt;Node16</title>
<g id="a_edge24_Node000015_Node000016"><a xlink:title=" ">
<path fill="none" stroke="#63b8ff" d="M410.1,-83.57C419.1,-83.53 428.23,-83.49 437.27,-83.45"/>
<polygon fill="#63b8ff" stroke="#63b8ff" points="437.14,-86.95 447.13,-83.41 437.11,-79.95 437.14,-86.95"/>
</a>
</g>
</g>
<!-- Node17 -->
<g id="Node000017" class="node">
<title>Node17</title>
<g id="a_Node000017"><a xlink:href="classfr_1_1softsf_1_1canscan_1_1_native_image_config_simulator.html#a00f369f6ee9b0eea8bacef585d45b4c0" target="_top" xlink:title="Recursively searches for a JList within a given container.">
<polygon fill="white" stroke="#666666" points="834.25,-97 681.75,-97 681.75,-53 834.25,-53 834.25,-97"/>
<text text-anchor="start" x="689.75" y="-83.5" font-family="Helvetica,sans-Serif" font-size="10.00">fr.softsf.canscan.Native</text>
<text text-anchor="start" x="689.75" y="-71.5" font-family="Helvetica,sans-Serif" font-size="10.00">ImageConfigSimulator.findJList</text>
<text text-anchor="middle" x="758" y="-59.5" font-family="Helvetica,sans-Serif" font-size="10.00">InContainer</text>
</a>
</g>
</g>
<!-- Node16&#45;&gt;Node17 -->
<g id="edge25_Node000016_Node000017" class="edge">
<title>Node16&#45;&gt;Node17</title>
<g id="a_edge25_Node000016_Node000017"><a xlink:title=" ">
<path fill="none" stroke="#63b8ff" d="M630.97,-79.67C643.96,-79.18 657.3,-78.69 670.23,-78.21"/>
<polygon fill="#63b8ff" stroke="#63b8ff" points="670.08,-81.72 679.94,-77.85 669.82,-74.72 670.08,-81.72"/>
</a>
</g>
</g>
<!-- Node17&#45;&gt;Node17 -->
<g id="edge26_Node000017_Node000017" class="edge">
<title>Node17&#45;&gt;Node17</title>
<g id="a_edge26_Node000017_Node000017"><a xlink:title=" ">
<path fill="none" stroke="#63b8ff" d="M717.59,-97.21C714.28,-106.8 727.75,-115 758,-115 775.96,-115 788,-112.11 794.13,-107.75"/>
<polygon fill="#63b8ff" stroke="#63b8ff" points="797.32,-109.2 797.84,-98.61 790.84,-106.57 797.32,-109.2"/>
</a>
</g>
</g>
</g>
</svg>

<g id="navigator" transform="translate(0 0)" fill="#404254">
  <rect fill="#f2f5e9" fill-opacity="0.5" stroke="#606060" stroke-width=".5" x="0" y="0" width="60" height="60"/>
  <use id="zoomplus" xlink:href="#zoomPlus" x="17" y="9" onmousedown="handleZoom(evt,'in')"/>
  <use id="zoomminus" xlink:href="#zoomMin" x="42" y="9" onmousedown="handleZoom(evt,'out')"/>
  <use id="reset" xlink:href="#resetDef" x="30" y="36" onmousedown="handleReset()"/>
   <use id="arrowup" xlink:href="#arrowUp" x="0" y="0" onmousedown="handlePan(0,-1)"/>
  <use id="arrowright" xlink:href="#arrowRight" x="0" y="0" onmousedown="handlePan(1,0)"/>
  <use id="arrowdown" xlink:href="#arrowDown" x="0" y="0" onmousedown="handlePan(0,1)"/>
  <use id="arrowleft" xlink:href="#arrowLeft" x="0" y="0" onmousedown="handlePan(-1,0)"/>
</g>
<svg viewBox="0 0 15 15" width="100%" height="30px" preserveAspectRatio="xMaxYMin meet">
 <g id="arrow_out" transform="scale(0.3 0.3)">
  <a xlink:href="classfr_1_1softsf_1_1canscan_1_1_native_image_config_simulator_afbc1231d98e565f72006b6f31c7dce34_cgraph_org.svg" target="_base">
   <rect id="button" ry="5" rx="5" y="6" x="6" height="38" width="38"
        fill="#f2f5e9" fill-opacity="0.5" stroke="#606060" stroke-width="1.0"/>
   <path id="arrow"
     d="M 11.500037,31.436501 C 11.940474,20.09759 22.043105,11.32322 32.158766,21.979434 L 37.068811,17.246167 C 37.068811,17.246167 37.088388,32 37.088388,32 L 22.160133,31.978069 C 22.160133,31.978069 26.997745,27.140456 26.997745,27.140456 C 18.528582,18.264221 13.291696,25.230495 11.500037,31.436501 z"
     style="fill:#404040;"/>
  </a>
 </g>
</svg>

<style type='text/css'>
<![CDATA[
[data-mouse-over-selected='false'] { opacity: 0.7; }
[data-mouse-over-selected='true']  { opacity: 1.0; }
]]>
</style>
<script type="application/ecmascript"><![CDATA[
document.addEventListener('DOMContentLoaded', (event) => {
  highlightEdges();
  highlightAdjacentNodes();
});
]]></script>
</svg>
