<?xml version="1.0" encoding="UTF-8" standalone="no"?>
<!DOCTYPE svg PUBLIC "-//W3C//DTD SVG 1.1//EN"
 "http://www.w3.org/Graphics/SVG/1.1/DTD/svg11.dtd">
<!-- Generated by graphviz version 12.2.1 (20241206.2353)
 -->
<!-- Title: fr.softsf.canscan.ui.EncodedImage.generateImage Pages: 1 -->
<svg width="948pt" height="363pt"
 viewBox="0.00 0.00 947.50 362.62" xmlns="http://www.w3.org/2000/svg" xmlns:xlink="http://www.w3.org/1999/xlink">
<g id="graph0" class="graph" transform="scale(1 1) rotate(0) translate(4 358.62)">
<title>fr.softsf.canscan.ui.EncodedImage.generateImage</title>
<!-- Node1 -->
<g id="Node000001" class="node">
<title>Node1</title>
<g id="a_Node000001"><a xlink:title="Generates a QR code image with optional logo and styling.">
<polygon fill="#999999" stroke="#666666" points="141.25,-182.62 0,-182.62 0,-150.62 141.25,-150.62 141.25,-182.62"/>
<text text-anchor="start" x="8" y="-169.12" font-family="Helvetica,sans-Serif" font-size="10.00">fr.softsf.canscan.ui.Encoded</text>
<text text-anchor="middle" x="70.62" y="-157.12" font-family="Helvetica,sans-Serif" font-size="10.00">Image.generateImage</text>
</a>
</g>
</g>
<!-- Node2 -->
<g id="Node000002" class="node">
<title>Node2</title>
<g id="a_Node000002"><a xlink:href="classfr_1_1softsf_1_1canscan_1_1ui_1_1_encoded_image.html#ae482672e4d0f995350dce61ca3e94976" target="_top" xlink:title="Creates a QR code matrix for the given text.">
<polygon fill="white" stroke="#666666" points="335.75,-354.62 194.5,-354.62 194.5,-322.62 335.75,-322.62 335.75,-354.62"/>
<text text-anchor="start" x="202.5" y="-341.12" font-family="Helvetica,sans-Serif" font-size="10.00">fr.softsf.canscan.ui.Encoded</text>
<text text-anchor="middle" x="265.12" y="-329.12" font-family="Helvetica,sans-Serif" font-size="10.00">Image.createMatrix</text>
</a>
</g>
</g>
<!-- Node1&#45;&gt;Node2 -->
<g id="edge1_Node000001_Node000002" class="edge">
<title>Node1&#45;&gt;Node2</title>
<g id="a_edge1_Node000001_Node000002"><a xlink:title=" ">
<path fill="none" stroke="#63b8ff" d="M78.88,-183.07C93.18,-213.56 127.93,-278.86 177.25,-313.62 179.47,-315.19 181.78,-316.65 184.17,-318.03"/>
<polygon fill="#63b8ff" stroke="#63b8ff" points="182.5,-321.1 193,-322.5 185.66,-314.86 182.5,-321.1"/>
</a>
</g>
</g>
<!-- Node3 -->
<g id="Node000003" class="node">
<title>Node3</title>
<g id="a_Node000003"><a xlink:href="classfr_1_1softsf_1_1canscan_1_1ui_1_1_encoded_image.html#a5724cc65ce9613fa741b437515143b51" target="_top" xlink:title="Renders the three QR code finder patterns at the corners using the specified style.">
<polygon fill="white" stroke="#666666" points="335.75,-304.62 194.5,-304.62 194.5,-272.62 335.75,-272.62 335.75,-304.62"/>
<text text-anchor="start" x="202.5" y="-291.12" font-family="Helvetica,sans-Serif" font-size="10.00">fr.softsf.canscan.ui.Encoded</text>
<text text-anchor="middle" x="265.12" y="-279.12" font-family="Helvetica,sans-Serif" font-size="10.00">Image.drawFinderPatterns</text>
</a>
</g>
</g>
<!-- Node1&#45;&gt;Node3 -->
<g id="edge2_Node000001_Node000003" class="edge">
<title>Node1&#45;&gt;Node3</title>
<g id="a_edge2_Node000001_Node000003"><a xlink:title=" ">
<path fill="none" stroke="#63b8ff" d="M84.93,-182.84C103.44,-204.37 139.04,-242.17 177.25,-263.62 179.76,-265.04 182.37,-266.37 185.03,-267.64"/>
<polygon fill="#63b8ff" stroke="#63b8ff" points="183.59,-270.83 194.16,-271.59 186.37,-264.41 183.59,-270.83"/>
</a>
</g>
</g>
<!-- Node6 -->
<g id="Node000006" class="node">
<title>Node6</title>
<g id="a_Node000006"><a xlink:href="classfr_1_1softsf_1_1canscan_1_1ui_1_1_encoded_image.html#ade10f89c4a09ef2a68d99169cbf5f4fb" target="_top" xlink:title="Draws the logo at the center of the QR code if a valid logo file is provided.">
<polygon fill="white" stroke="#666666" points="335.75,-254.62 194.5,-254.62 194.5,-222.62 335.75,-222.62 335.75,-254.62"/>
<text text-anchor="start" x="202.5" y="-241.12" font-family="Helvetica,sans-Serif" font-size="10.00">fr.softsf.canscan.ui.Encoded</text>
<text text-anchor="middle" x="265.12" y="-229.12" font-family="Helvetica,sans-Serif" font-size="10.00">Image.drawLogoIfPresent</text>
</a>
</g>
</g>
<!-- Node1&#45;&gt;Node6 -->
<g id="edge5_Node000001_Node000006" class="edge">
<title>Node1&#45;&gt;Node6</title>
<g id="a_edge5_Node000001_Node000006"><a xlink:title=" ">
<path fill="none" stroke="#63b8ff" d="M105.38,-183.08C125.88,-192.71 152.73,-204.69 177.25,-213.62 182.15,-215.41 187.25,-217.15 192.4,-218.84"/>
<polygon fill="#63b8ff" stroke="#63b8ff" points="190.99,-222.06 201.58,-221.74 193.1,-215.39 190.99,-222.06"/>
</a>
</g>
</g>
<!-- Node7 -->
<g id="Node000007" class="node">
<title>Node7</title>
<g id="a_Node000007"><a xlink:href="classfr_1_1softsf_1_1canscan_1_1ui_1_1_encoded_image.html#aa8ff2803efd64fa8cfbbf2aaff43bacb" target="_top" xlink:title="Renders all QR code modules onto the provided graphics context.">
<polygon fill="white" stroke="#666666" points="335.75,-204.62 194.5,-204.62 194.5,-172.62 335.75,-172.62 335.75,-204.62"/>
<text text-anchor="start" x="202.5" y="-191.12" font-family="Helvetica,sans-Serif" font-size="10.00">fr.softsf.canscan.ui.Encoded</text>
<text text-anchor="middle" x="265.12" y="-179.12" font-family="Helvetica,sans-Serif" font-size="10.00">Image.drawModules</text>
</a>
</g>
</g>
<!-- Node1&#45;&gt;Node7 -->
<g id="edge6_Node000001_Node000007" class="edge">
<title>Node1&#45;&gt;Node7</title>
<g id="a_edge6_Node000001_Node000007"><a xlink:title=" ">
<path fill="none" stroke="#63b8ff" d="M141.67,-174.63C155.02,-176.15 169.1,-177.76 182.77,-179.33"/>
<polygon fill="#63b8ff" stroke="#63b8ff" points="182.3,-182.79 192.63,-180.45 183.09,-175.84 182.3,-182.79"/>
</a>
</g>
</g>
<!-- Node14 -->
<g id="Node000014" class="node">
<title>Node14</title>
<g id="a_Node000014"><a xlink:href="classfr_1_1softsf_1_1canscan_1_1ui_1_1_encoded_image.html#adb8f0f0054bd69ff15d01dacba5561ad" target="_top" xlink:title="Estimates the memory required to create a BufferedImage.">
<polygon fill="white" stroke="#666666" points="567.38,-114.62 406.62,-114.62 406.62,-82.62 567.38,-82.62 567.38,-114.62"/>
<text text-anchor="start" x="414.62" y="-101.12" font-family="Helvetica,sans-Serif" font-size="10.00">fr.softsf.canscan.ui.Encoded</text>
<text text-anchor="middle" x="487" y="-89.12" font-family="Helvetica,sans-Serif" font-size="10.00">Image.estimateImageMemoryMB</text>
</a>
</g>
</g>
<!-- Node1&#45;&gt;Node14 -->
<g id="edge13_Node000001_Node000014" class="edge">
<title>Node1&#45;&gt;Node14</title>
<g id="a_edge13_Node000001_Node000014"><a xlink:title=" ">
<path fill="none" stroke="#63b8ff" d="M141.47,-157.55C198.51,-149.87 281.14,-138.14 353,-125.62 367.43,-123.11 382.69,-120.23 397.53,-117.3"/>
<polygon fill="#63b8ff" stroke="#63b8ff" points="398.17,-120.74 407.29,-115.35 396.8,-113.87 398.17,-120.74"/>
</a>
</g>
</g>
<!-- Node15 -->
<g id="Node000015" class="node">
<title>Node15</title>
<g id="a_Node000015"><a xlink:href="classfr_1_1softsf_1_1canscan_1_1ui_1_1_encoded_image.html#a35a254b6d7e2b30d329f2fad559cd927" target="_top" xlink:title="Fills the entire QR code area with the specified background color.">
<polygon fill="white" stroke="#666666" points="335.75,-116.62 194.5,-116.62 194.5,-84.62 335.75,-84.62 335.75,-116.62"/>
<text text-anchor="start" x="202.5" y="-103.12" font-family="Helvetica,sans-Serif" font-size="10.00">fr.softsf.canscan.ui.Encoded</text>
<text text-anchor="middle" x="265.12" y="-91.12" font-family="Helvetica,sans-Serif" font-size="10.00">Image.fillBackground</text>
</a>
</g>
</g>
<!-- Node1&#45;&gt;Node15 -->
<g id="edge14_Node000001_Node000015" class="edge">
<title>Node1&#45;&gt;Node15</title>
<g id="a_edge14_Node000001_Node000015"><a xlink:title=" ">
<path fill="none" stroke="#63b8ff" d="M119.7,-150.14C145.76,-141.21 178.15,-130.1 205.66,-120.67"/>
<polygon fill="#63b8ff" stroke="#63b8ff" points="206.57,-124.06 214.89,-117.5 204.3,-117.44 206.57,-124.06"/>
</a>
</g>
</g>
<!-- Node16 -->
<g id="Node000016" class="node">
<title>Node16</title>
<g id="a_Node000016"><a xlink:href="classfr_1_1softsf_1_1canscan_1_1ui_1_1_encoded_image.html#aa0e4a52ea7833f48aa818418cb6f5295" target="_top" xlink:title="Gets the available memory in the JVM with safety margin for image generation.">
<polygon fill="white" stroke="#666666" points="561.75,-48.62 412.25,-48.62 412.25,-16.62 561.75,-16.62 561.75,-48.62"/>
<text text-anchor="start" x="420.25" y="-35.12" font-family="Helvetica,sans-Serif" font-size="10.00">fr.softsf.canscan.ui.Encoded</text>
<text text-anchor="middle" x="487" y="-23.12" font-family="Helvetica,sans-Serif" font-size="10.00">Image.getAvailableMemoryMB</text>
</a>
</g>
</g>
<!-- Node1&#45;&gt;Node16 -->
<g id="edge15_Node000001_Node000016" class="edge">
<title>Node1&#45;&gt;Node16</title>
<g id="a_edge15_Node000001_Node000016"><a xlink:title=" ">
<path fill="none" stroke="#63b8ff" d="M77.87,-150.49C90.89,-119.46 124.19,-52.18 177.25,-25.62 252.95,12.25 352.69,0.75 418.05,-13.63"/>
<polygon fill="#63b8ff" stroke="#63b8ff" points="417.03,-16.99 427.56,-15.81 418.59,-10.16 417.03,-16.99"/>
</a>
</g>
</g>
<!-- Node17 -->
<g id="Node000017" class="node">
<title>Node17</title>
<g id="a_Node000017"><a xlink:href="classfr_1_1softsf_1_1canscan_1_1ui_1_1_encoded_image.html#ad2f4fef7b92fee167354dd11065d34e2" target="_top" xlink:title="Validates that sufficient memory is available to generate a square image of the given size.">
<polygon fill="white" stroke="#666666" points="353,-66.62 177.25,-66.62 177.25,-34.62 353,-34.62 353,-66.62"/>
<text text-anchor="start" x="185.25" y="-53.12" font-family="Helvetica,sans-Serif" font-size="10.00">fr.softsf.canscan.ui.Encoded</text>
<text text-anchor="middle" x="265.12" y="-41.12" font-family="Helvetica,sans-Serif" font-size="10.00">Image.validateMemoryForImageSize</text>
</a>
</g>
</g>
<!-- Node1&#45;&gt;Node17 -->
<g id="edge16_Node000001_Node000017" class="edge">
<title>Node1&#45;&gt;Node17</title>
<g id="a_edge16_Node000001_Node000017"><a xlink:title=" ">
<path fill="none" stroke="#63b8ff" d="M86.12,-150.41C105.13,-130.1 140.42,-95.54 177.25,-75.62 179.94,-74.17 182.72,-72.79 185.57,-71.49"/>
<polygon fill="#63b8ff" stroke="#63b8ff" points="186.84,-74.75 194.71,-67.66 184.14,-68.29 186.84,-74.75"/>
</a>
</g>
</g>
<!-- Node4 -->
<g id="Node000004" class="node">
<title>Node4</title>
<g id="a_Node000004"><a xlink:href="classfr_1_1softsf_1_1canscan_1_1ui_1_1_encoded_image.html#a8c9390de6c95571f3660c32e90662535" target="_top" xlink:title="Draws a QR code finder pattern with rounded corners at the specified pixel coordinates.">
<polygon fill="white" stroke="#666666" points="585,-338.62 389,-338.62 389,-306.62 585,-306.62 585,-338.62"/>
<text text-anchor="start" x="397" y="-325.12" font-family="Helvetica,sans-Serif" font-size="10.00">fr.softsf.canscan.ui.Encoded</text>
<text text-anchor="middle" x="487" y="-313.12" font-family="Helvetica,sans-Serif" font-size="10.00">Image.drawRoundedFinderPatternAtPixel</text>
</a>
</g>
</g>
<!-- Node3&#45;&gt;Node4 -->
<g id="edge3_Node000003_Node000004" class="edge">
<title>Node3&#45;&gt;Node4</title>
<g id="a_edge3_Node000003_Node000004"><a xlink:title=" ">
<path fill="none" stroke="#63b8ff" d="M336,-299.43C349.19,-301.47 363.28,-303.65 377.34,-305.82"/>
<polygon fill="#63b8ff" stroke="#63b8ff" points="376.68,-309.26 387.1,-307.33 377.75,-302.34 376.68,-309.26"/>
</a>
</g>
</g>
<!-- Node5 -->
<g id="Node000005" class="node">
<title>Node5</title>
<g id="a_Node000005"><a xlink:href="classfr_1_1softsf_1_1canscan_1_1ui_1_1_encoded_image.html#adc8966dc4ad0994973f517355dee4c00" target="_top" xlink:title="Draws a standard square QR code finder pattern at the specified pixel coordinates.">
<polygon fill="white" stroke="#666666" points="580.88,-288.62 393.12,-288.62 393.12,-256.62 580.88,-256.62 580.88,-288.62"/>
<text text-anchor="start" x="401.12" y="-275.12" font-family="Helvetica,sans-Serif" font-size="10.00">fr.softsf.canscan.ui.Encoded</text>
<text text-anchor="middle" x="487" y="-263.12" font-family="Helvetica,sans-Serif" font-size="10.00">Image.drawSquareFinderPatternAtPixel</text>
</a>
</g>
</g>
<!-- Node3&#45;&gt;Node5 -->
<g id="edge4_Node000003_Node000005" class="edge">
<title>Node3&#45;&gt;Node5</title>
<g id="a_edge4_Node000003_Node000005"><a xlink:title=" ">
<path fill="none" stroke="#63b8ff" d="M336,-283.54C350.57,-282.48 366.23,-281.34 381.73,-280.21"/>
<polygon fill="#63b8ff" stroke="#63b8ff" points="381.75,-283.72 391.47,-279.5 381.25,-276.74 381.75,-283.72"/>
</a>
</g>
</g>
<!-- Node8 -->
<g id="Node000008" class="node">
<title>Node8</title>
<g id="a_Node000008"><a xlink:href="classfr_1_1softsf_1_1canscan_1_1ui_1_1_encoded_image.html#a39d00e8741eea56385de5b2401cea25e" target="_top" xlink:title="Draws a single QR code module at the specified coordinates with configured size and shape.">
<polygon fill="white" stroke="#666666" points="557.62,-222.62 416.38,-222.62 416.38,-190.62 557.62,-190.62 557.62,-222.62"/>
<text text-anchor="start" x="424.38" y="-209.12" font-family="Helvetica,sans-Serif" font-size="10.00">fr.softsf.canscan.ui.Encoded</text>
<text text-anchor="middle" x="487" y="-197.12" font-family="Helvetica,sans-Serif" font-size="10.00">Image.drawModule</text>
</a>
</g>
</g>
<!-- Node7&#45;&gt;Node8 -->
<g id="edge7_Node000007_Node000008" class="edge">
<title>Node7&#45;&gt;Node8</title>
<g id="a_edge7_Node000007_Node000008"><a xlink:title=" ">
<path fill="none" stroke="#63b8ff" d="M336,-194.34C357.83,-196.13 382.11,-198.12 404.67,-199.97"/>
<polygon fill="#63b8ff" stroke="#63b8ff" points="404.17,-203.44 414.42,-200.76 404.74,-196.46 404.17,-203.44"/>
</a>
</g>
</g>
<!-- Node9 -->
<g id="Node000009" class="node">
<title>Node9</title>
<g id="a_Node000009"><a xlink:href="classfr_1_1softsf_1_1canscan_1_1ui_1_1_encoded_image.html#a0a54994d696c706a8bf3e6dfc9c7eb5e" target="_top" xlink:title="Determines whether a QR code module should be skipped during rendering.">
<polygon fill="white" stroke="#666666" points="557.62,-172.62 416.38,-172.62 416.38,-140.62 557.62,-140.62 557.62,-172.62"/>
<text text-anchor="start" x="424.38" y="-159.12" font-family="Helvetica,sans-Serif" font-size="10.00">fr.softsf.canscan.ui.Encoded</text>
<text text-anchor="middle" x="487" y="-147.12" font-family="Helvetica,sans-Serif" font-size="10.00">Image.shouldSkipModule</text>
</a>
</g>
</g>
<!-- Node7&#45;&gt;Node9 -->
<g id="edge8_Node000007_Node000009" class="edge">
<title>Node7&#45;&gt;Node9</title>
<g id="a_edge8_Node000007_Node000009"><a xlink:title=" ">
<path fill="none" stroke="#63b8ff" d="M336,-178.45C357.83,-175.28 382.11,-171.74 404.67,-168.46"/>
<polygon fill="#63b8ff" stroke="#63b8ff" points="405.04,-171.94 414.43,-167.04 404.03,-165.02 405.04,-171.94"/>
</a>
</g>
</g>
<!-- Node10 -->
<g id="Node000010" class="node">
<title>Node10</title>
<g id="a_Node000010"><a xlink:href="classfr_1_1softsf_1_1canscan_1_1ui_1_1_encoded_image.html#ac5ca4991b2826e1655e2f4afe5f2659f" target="_top" xlink:title="Determines whether the given coordinates fall within any of the three QR code position patterns.">
<polygon fill="white" stroke="#666666" points="762.25,-172.62 621,-172.62 621,-140.62 762.25,-140.62 762.25,-172.62"/>
<text text-anchor="start" x="629" y="-159.12" font-family="Helvetica,sans-Serif" font-size="10.00">fr.softsf.canscan.ui.Encoded</text>
<text text-anchor="middle" x="691.62" y="-147.12" font-family="Helvetica,sans-Serif" font-size="10.00">Image.isInPositionPattern</text>
</a>
</g>
</g>
<!-- Node9&#45;&gt;Node10 -->
<g id="edge9_Node000009_Node000010" class="edge">
<title>Node9&#45;&gt;Node10</title>
<g id="a_edge9_Node000009_Node000010"><a xlink:title=" ">
<path fill="none" stroke="#63b8ff" d="M558.02,-156.62C574.62,-156.62 592.48,-156.62 609.53,-156.62"/>
<polygon fill="#63b8ff" stroke="#63b8ff" points="609.09,-160.12 619.09,-156.62 609.09,-153.12 609.09,-160.12"/>
</a>
</g>
</g>
<!-- Node11 -->
<g id="Node000011" class="node">
<title>Node11</title>
<g id="a_Node000011"><a xlink:href="classfr_1_1softsf_1_1canscan_1_1ui_1_1_encoded_image.html#a08c22c703968017fdad5423b34113bb1" target="_top" xlink:title="Checks if coordinates are within the bottom&#45;left position pattern.">
<polygon fill="white" stroke="#666666" points="939.5,-222.62 798.25,-222.62 798.25,-190.62 939.5,-190.62 939.5,-222.62"/>
<text text-anchor="start" x="806.25" y="-209.12" font-family="Helvetica,sans-Serif" font-size="10.00">fr.softsf.canscan.ui.Encoded</text>
<text text-anchor="middle" x="868.88" y="-197.12" font-family="Helvetica,sans-Serif" font-size="10.00">Image.isInBottomLeftPattern</text>
</a>
</g>
</g>
<!-- Node10&#45;&gt;Node11 -->
<g id="edge10_Node000010_Node000011" class="edge">
<title>Node10&#45;&gt;Node11</title>
<g id="a_edge10_Node000010_Node000011"><a xlink:title=" ">
<path fill="none" stroke="#63b8ff" d="M750.01,-173C765.66,-177.46 782.78,-182.35 799.01,-186.97"/>
<polygon fill="#63b8ff" stroke="#63b8ff" points="798.03,-190.34 808.61,-189.71 799.95,-183.6 798.03,-190.34"/>
</a>
</g>
</g>
<!-- Node12 -->
<g id="Node000012" class="node">
<title>Node12</title>
<g id="a_Node000012"><a xlink:href="classfr_1_1softsf_1_1canscan_1_1ui_1_1_encoded_image.html#a42b974304eab8bbf970c930aadf1c8cd" target="_top" xlink:title="Checks if coordinates are within the top&#45;left position pattern.">
<polygon fill="white" stroke="#666666" points="939.5,-172.62 798.25,-172.62 798.25,-140.62 939.5,-140.62 939.5,-172.62"/>
<text text-anchor="start" x="806.25" y="-159.12" font-family="Helvetica,sans-Serif" font-size="10.00">fr.softsf.canscan.ui.Encoded</text>
<text text-anchor="middle" x="868.88" y="-147.12" font-family="Helvetica,sans-Serif" font-size="10.00">Image.isInTopLeftPattern</text>
</a>
</g>
</g>
<!-- Node10&#45;&gt;Node12 -->
<g id="edge11_Node000010_Node000012" class="edge">
<title>Node10&#45;&gt;Node12</title>
<g id="a_edge11_Node000010_Node000012"><a xlink:title=" ">
<path fill="none" stroke="#63b8ff" d="M762.64,-156.62C770.55,-156.62 778.65,-156.62 786.69,-156.62"/>
<polygon fill="#63b8ff" stroke="#63b8ff" points="786.45,-160.12 796.45,-156.62 786.45,-153.12 786.45,-160.12"/>
</a>
</g>
</g>
<!-- Node13 -->
<g id="Node000013" class="node">
<title>Node13</title>
<g id="a_Node000013"><a xlink:href="classfr_1_1softsf_1_1canscan_1_1ui_1_1_encoded_image.html#a0f2ff4874795b0ea498b4840b1f0b14c" target="_top" xlink:title="Checks if coordinates are within the top&#45;right position pattern.">
<polygon fill="white" stroke="#666666" points="939.5,-122.62 798.25,-122.62 798.25,-90.62 939.5,-90.62 939.5,-122.62"/>
<text text-anchor="start" x="806.25" y="-109.12" font-family="Helvetica,sans-Serif" font-size="10.00">fr.softsf.canscan.ui.Encoded</text>
<text text-anchor="middle" x="868.88" y="-97.12" font-family="Helvetica,sans-Serif" font-size="10.00">Image.isInTopRightPattern</text>
</a>
</g>
</g>
<!-- Node10&#45;&gt;Node13 -->
<g id="edge12_Node000010_Node000013" class="edge">
<title>Node10&#45;&gt;Node13</title>
<g id="a_edge12_Node000010_Node000013"><a xlink:title=" ">
<path fill="none" stroke="#63b8ff" d="M750.01,-140.25C765.66,-135.79 782.78,-130.9 799.01,-126.27"/>
<polygon fill="#63b8ff" stroke="#63b8ff" points="799.95,-129.64 808.61,-123.53 798.03,-122.91 799.95,-129.64"/>
</a>
</g>
</g>
<!-- Node17&#45;&gt;Node14 -->
<g id="edge17_Node000017_Node000014" class="edge">
<title>Node17&#45;&gt;Node14</title>
<g id="a_edge17_Node000017_Node000014"><a xlink:title=" ">
<path fill="none" stroke="#63b8ff" d="M341.49,-67.08C360.19,-71.16 380.38,-75.57 399.57,-79.76"/>
<polygon fill="#63b8ff" stroke="#63b8ff" points="398.74,-83.16 409.26,-81.87 400.24,-76.32 398.74,-83.16"/>
</a>
</g>
</g>
<!-- Node17&#45;&gt;Node16 -->
<g id="edge18_Node000017_Node000016" class="edge">
<title>Node17&#45;&gt;Node16</title>
<g id="a_edge18_Node000017_Node000016"><a xlink:title=" ">
<path fill="none" stroke="#63b8ff" d="M353.34,-43.48C368.97,-42.2 385.24,-40.87 400.81,-39.6"/>
<polygon fill="#63b8ff" stroke="#63b8ff" points="400.82,-43.11 410.5,-38.8 400.25,-36.13 400.82,-43.11"/>
</a>
</g>
</g>
</g>
</svg>
