<?xml version="1.0" encoding="UTF-8" standalone="no"?>
<!DOCTYPE svg PUBLIC "-//W3C//DTD SVG 1.1//EN"
 "http://www.w3.org/Graphics/SVG/1.1/DTD/svg11.dtd">
<!-- Generated by graphviz version 12.2.1 (20241206.2353)
 -->
<!-- Title: fr.softsf.canscan.CanScan.chooseColor Pages: 1 -->
<svg width="1008pt" height="240pt"
 viewBox="0.00 0.00 1008.25 240.00" xmlns="http://www.w3.org/2000/svg" xmlns:xlink="http://www.w3.org/1999/xlink">
<g id="graph0" class="graph" transform="scale(1 1) rotate(0) translate(4 236)">
<title>fr.softsf.canscan.CanScan.chooseColor</title>
<!-- Node1 -->
<g id="Node000001" class="node">
<title>Node1</title>
<g id="a_Node000001"><a xlink:title="Opens a color chooser dialog and updates the selected color.">
<polygon fill="#999999" stroke="#666666" points="167.5,-182 0,-182 0,-150 167.5,-150 167.5,-182"/>
<text text-anchor="start" x="8" y="-168.5" font-family="Helvetica,sans-Serif" font-size="10.00">fr.softsf.canscan.CanScan.choose</text>
<text text-anchor="middle" x="83.75" y="-156.5" font-family="Helvetica,sans-Serif" font-size="10.00">Color</text>
</a>
</g>
</g>
<!-- Node2 -->
<g id="Node000002" class="node">
<title>Node2</title>
<g id="a_Node000002"><a xlink:href="classfr_1_1softsf_1_1canscan_1_1_can_scan.html#a224c283143d84ebcfbce9d0058bd93aa" target="_top" xlink:title="Converts a Color object to its hexadecimal RGB string representation.">
<polygon fill="white" stroke="#666666" points="364.62,-232 207.62,-232 207.62,-200 364.62,-200 364.62,-232"/>
<text text-anchor="start" x="215.62" y="-218.5" font-family="Helvetica,sans-Serif" font-size="10.00">fr.softsf.canscan.CanScan.color</text>
<text text-anchor="middle" x="286.12" y="-206.5" font-family="Helvetica,sans-Serif" font-size="10.00">ToHex</text>
</a>
</g>
</g>
<!-- Node1&#45;&gt;Node2 -->
<g id="edge1_Node000001_Node000002" class="edge">
<title>Node1&#45;&gt;Node2</title>
<g id="a_edge1_Node000001_Node000002"><a xlink:title=" ">
<path fill="none" stroke="#63b8ff" d="M150.64,-182.44C169.04,-187.03 189.2,-192.06 208.18,-196.8"/>
<polygon fill="#63b8ff" stroke="#63b8ff" points="207.18,-200.16 217.73,-199.18 208.87,-193.37 207.18,-200.16"/>
</a>
</g>
</g>
<!-- Node5 -->
<g id="Node000005" class="node">
<title>Node5</title>
<g id="a_Node000005"><a xlink:href="classfr_1_1softsf_1_1canscan_1_1_can_scan.html#aa401982a8aebc5d658e96917e4296d8a" target="_top" xlink:title="Creates a square icon filled with the specified color and a visible border.">
<polygon fill="white" stroke="#666666" points="367.62,-182 204.62,-182 204.62,-150 367.62,-150 367.62,-182"/>
<text text-anchor="start" x="212.62" y="-168.5" font-family="Helvetica,sans-Serif" font-size="10.00">fr.softsf.canscan.CanScan.create</text>
<text text-anchor="middle" x="286.12" y="-156.5" font-family="Helvetica,sans-Serif" font-size="10.00">ColorIcon</text>
</a>
</g>
</g>
<!-- Node1&#45;&gt;Node5 -->
<g id="edge4_Node000001_Node000005" class="edge">
<title>Node1&#45;&gt;Node5</title>
<g id="a_edge4_Node000001_Node000005"><a xlink:title=" ">
<path fill="none" stroke="#63b8ff" d="M167.99,-166C176.27,-166 184.7,-166 193.07,-166"/>
<polygon fill="#63b8ff" stroke="#63b8ff" points="192.89,-169.5 202.89,-166 192.89,-162.5 192.89,-169.5"/>
</a>
</g>
</g>
<!-- Node6 -->
<g id="Node000006" class="node">
<title>Node6</title>
<g id="a_Node000006"><a xlink:href="classfr_1_1softsf_1_1canscan_1_1_can_scan.html#a9ac2e28615c970404a4408245e62a6fc" target="_top" xlink:title="Schedules a debounced QR code preview update based on the current input and settings.">
<polygon fill="white" stroke="#666666" points="368.75,-132 203.5,-132 203.5,-100 368.75,-100 368.75,-132"/>
<text text-anchor="start" x="211.5" y="-118.5" font-family="Helvetica,sans-Serif" font-size="10.00">fr.softsf.canscan.CanScan.update</text>
<text text-anchor="middle" x="286.12" y="-106.5" font-family="Helvetica,sans-Serif" font-size="10.00">PreviewQRCode</text>
</a>
</g>
</g>
<!-- Node1&#45;&gt;Node6 -->
<g id="edge5_Node000001_Node000006" class="edge">
<title>Node1&#45;&gt;Node6</title>
<g id="a_edge5_Node000001_Node000006"><a xlink:title=" ">
<path fill="none" stroke="#63b8ff" d="M150.64,-149.56C169.04,-144.97 189.2,-139.94 208.18,-135.2"/>
<polygon fill="#63b8ff" stroke="#63b8ff" points="208.87,-138.63 217.73,-132.82 207.18,-131.84 208.87,-138.63"/>
</a>
</g>
</g>
<!-- Node3 -->
<g id="Node000003" class="node">
<title>Node3</title>
<g id="a_Node000003"><a xlink:href="enumfr_1_1softsf_1_1canscan_1_1util_1_1_checker.html#a38aa8db97b16480c728481f1835da11f" target="_top" xlink:title="Checks if the given object is null in a static context and displays an error dialog if so.">
<polygon fill="white" stroke="#666666" points="579,-232 404.75,-232 404.75,-200 579,-200 579,-232"/>
<text text-anchor="start" x="412.75" y="-218.5" font-family="Helvetica,sans-Serif" font-size="10.00">fr.softsf.canscan.util.Checker.check</text>
<text text-anchor="middle" x="491.88" y="-206.5" font-family="Helvetica,sans-Serif" font-size="10.00">StaticNPE</text>
</a>
</g>
</g>
<!-- Node2&#45;&gt;Node3 -->
<g id="edge2_Node000002_Node000003" class="edge">
<title>Node2&#45;&gt;Node3</title>
<g id="a_edge2_Node000002_Node000003"><a xlink:title=" ">
<path fill="none" stroke="#63b8ff" d="M365.03,-216C374.21,-216 383.67,-216 393.09,-216"/>
<polygon fill="#63b8ff" stroke="#63b8ff" points="393.01,-219.5 403.01,-216 393.01,-212.5 393.01,-219.5"/>
</a>
</g>
</g>
<!-- Node4 -->
<g id="Node000004" class="node">
<title>Node4</title>
<g id="a_Node000004"><a xlink:href="enumfr_1_1softsf_1_1canscan_1_1util_1_1_checker.html#af3fc9dd2a33f4d12c5db8cf2aeea17d7" target="_top" xlink:title="Validates that the given object is non&#45;null and, if a String, not blank.">
<polygon fill="white" stroke="#666666" points="789.25,-232 615,-232 615,-200 789.25,-200 789.25,-232"/>
<text text-anchor="start" x="623" y="-218.5" font-family="Helvetica,sans-Serif" font-size="10.00">fr.softsf.canscan.util.Checker.check</text>
<text text-anchor="middle" x="702.12" y="-206.5" font-family="Helvetica,sans-Serif" font-size="10.00">NullOrBlankInternal</text>
</a>
</g>
</g>
<!-- Node3&#45;&gt;Node4 -->
<g id="edge3_Node000003_Node000004" class="edge">
<title>Node3&#45;&gt;Node4</title>
<g id="a_edge3_Node000003_Node000004"><a xlink:title=" ">
<path fill="none" stroke="#63b8ff" d="M579.38,-216C587.28,-216 595.32,-216 603.31,-216"/>
<polygon fill="#63b8ff" stroke="#63b8ff" points="603.04,-219.5 613.04,-216 603.04,-212.5 603.04,-219.5"/>
</a>
</g>
</g>
<!-- Node7 -->
<g id="Node000007" class="node">
<title>Node7</title>
<g id="a_Node000007"><a xlink:href="classfr_1_1softsf_1_1canscan_1_1_can_scan.html#aba5b2671745886284c444b8e3bec80e2" target="_top" xlink:title="Frees the QR code image and its label icon to release memory.">
<polygon fill="white" stroke="#666666" points="568.12,-157 415.62,-157 415.62,-125 568.12,-125 568.12,-157"/>
<text text-anchor="start" x="423.62" y="-143.5" font-family="Helvetica,sans-Serif" font-size="10.00">fr.softsf.canscan.CanScan.free</text>
<text text-anchor="middle" x="491.88" y="-131.5" font-family="Helvetica,sans-Serif" font-size="10.00">QrOriginalAndQrCodeLabel</text>
</a>
</g>
</g>
<!-- Node6&#45;&gt;Node7 -->
<g id="edge6_Node000006_Node000007" class="edge">
<title>Node6&#45;&gt;Node7</title>
<g id="a_edge6_Node000006_Node000007"><a xlink:title=" ">
<path fill="none" stroke="#63b8ff" d="M369.12,-126.06C380.56,-127.46 392.36,-128.91 403.89,-130.33"/>
<polygon fill="#63b8ff" stroke="#63b8ff" points="403.46,-133.8 413.81,-131.54 404.31,-126.85 403.46,-133.8"/>
</a>
</g>
</g>
<!-- Node8 -->
<g id="Node000008" class="node">
<title>Node8</title>
<g id="a_Node000008"><a xlink:href="classfr_1_1softsf_1_1canscan_1_1_can_scan.html#a42d6a5e11bc8f147bed036366316564f" target="_top" xlink:title="Clears the current QR code display and starts a background worker to generate a new preview.">
<polygon fill="white" stroke="#666666" points="570.75,-107 413,-107 413,-75 570.75,-75 570.75,-107"/>
<text text-anchor="start" x="421" y="-93.5" font-family="Helvetica,sans-Serif" font-size="10.00">fr.softsf.canscan.CanScan.reset</text>
<text text-anchor="middle" x="491.88" y="-81.5" font-family="Helvetica,sans-Serif" font-size="10.00">AndStartPreviewWorker</text>
</a>
</g>
</g>
<!-- Node6&#45;&gt;Node8 -->
<g id="edge7_Node000006_Node000008" class="edge">
<title>Node6&#45;&gt;Node8</title>
<g id="a_edge7_Node000006_Node000008"><a xlink:title=" ">
<path fill="none" stroke="#63b8ff" d="M369.12,-105.94C379.79,-104.63 390.76,-103.28 401.54,-101.96"/>
<polygon fill="#63b8ff" stroke="#63b8ff" points="401.68,-105.47 411.18,-100.78 400.83,-98.52 401.68,-105.47"/>
</a>
</g>
</g>
<!-- Node9 -->
<g id="Node000009" class="node">
<title>Node9</title>
<g id="a_Node000009"><a xlink:href="classfr_1_1softsf_1_1canscan_1_1_can_scan.html#a2d26dcd1ae708eae46dba8952351aa1a" target="_top" xlink:title="Builds and returns a QrInput object containing all current user inputs and settings.">
<polygon fill="white" stroke="#666666" points="776.88,-107 627.38,-107 627.38,-75 776.88,-75 776.88,-107"/>
<text text-anchor="start" x="635.38" y="-93.5" font-family="Helvetica,sans-Serif" font-size="10.00">fr.softsf.canscan.CanScan.get</text>
<text text-anchor="middle" x="702.12" y="-81.5" font-family="Helvetica,sans-Serif" font-size="10.00">QrInput</text>
</a>
</g>
</g>
<!-- Node8&#45;&gt;Node9 -->
<g id="edge8_Node000008_Node000009" class="edge">
<title>Node8&#45;&gt;Node9</title>
<g id="a_edge8_Node000008_Node000009"><a xlink:title=" ">
<path fill="none" stroke="#63b8ff" d="M571.01,-91C585.64,-91 600.99,-91 615.82,-91"/>
<polygon fill="#63b8ff" stroke="#63b8ff" points="615.52,-94.5 625.52,-91 615.52,-87.5 615.52,-94.5"/>
</a>
</g>
</g>
<!-- Node10 -->
<g id="Node000010" class="node">
<title>Node10</title>
<g id="a_Node000010"><a xlink:href="classfr_1_1softsf_1_1canscan_1_1_can_scan.html#a22606ca129489c778fbbe17cb8b70697" target="_top" xlink:title="Calculates the available height for QR code rendering.">
<polygon fill="white" stroke="#666666" points="1000.25,-182 825.25,-182 825.25,-150 1000.25,-150 1000.25,-182"/>
<text text-anchor="start" x="833.25" y="-168.5" font-family="Helvetica,sans-Serif" font-size="10.00">fr.softsf.canscan.CanScan.calculate</text>
<text text-anchor="middle" x="912.75" y="-156.5" font-family="Helvetica,sans-Serif" font-size="10.00">AvailableQrHeight</text>
</a>
</g>
</g>
<!-- Node9&#45;&gt;Node10 -->
<g id="edge9_Node000009_Node000010" class="edge">
<title>Node9&#45;&gt;Node10</title>
<g id="a_edge9_Node000009_Node000010"><a xlink:title=" ">
<path fill="none" stroke="#63b8ff" d="M740.41,-107.48C764.39,-117.78 796.36,-130.95 825.25,-141 830.33,-142.77 835.62,-144.52 840.95,-146.21"/>
<polygon fill="#63b8ff" stroke="#63b8ff" points="839.89,-149.55 850.48,-149.17 841.97,-142.86 839.89,-149.55"/>
</a>
</g>
</g>
<!-- Node11 -->
<g id="Node000011" class="node">
<title>Node11</title>
<g id="a_Node000011"><a xlink:href="classfr_1_1softsf_1_1canscan_1_1_can_scan.html#a4e67b1b5c764e72414a5c0f387810f5c" target="_top" xlink:title="Validates and returns the current QR code margin from the margin slider.">
<polygon fill="white" stroke="#666666" points="997.62,-132 827.88,-132 827.88,-100 997.62,-100 997.62,-132"/>
<text text-anchor="start" x="835.88" y="-118.5" font-family="Helvetica,sans-Serif" font-size="10.00">fr.softsf.canscan.CanScan.validate</text>
<text text-anchor="middle" x="912.75" y="-106.5" font-family="Helvetica,sans-Serif" font-size="10.00">AndGetMargin</text>
</a>
</g>
</g>
<!-- Node9&#45;&gt;Node11 -->
<g id="edge10_Node000009_Node000011" class="edge">
<title>Node9&#45;&gt;Node11</title>
<g id="a_edge10_Node000009_Node000011"><a xlink:title=" ">
<path fill="none" stroke="#63b8ff" d="M777.27,-99.88C789.86,-101.39 803.09,-102.98 816.14,-104.54"/>
<polygon fill="#63b8ff" stroke="#63b8ff" points="815.69,-108.01 826.04,-105.73 816.52,-101.06 815.69,-108.01"/>
</a>
</g>
</g>
<!-- Node12 -->
<g id="Node000012" class="node">
<title>Node12</title>
<g id="a_Node000012"><a xlink:href="classfr_1_1softsf_1_1canscan_1_1_can_scan.html#a9e8188875168199cde065113ae2a393d" target="_top" xlink:title="Validates and returns the current image&#45;to&#45;QR ratio from the ratio slider.">
<polygon fill="white" stroke="#666666" points="997.62,-82 827.88,-82 827.88,-50 997.62,-50 997.62,-82"/>
<text text-anchor="start" x="835.88" y="-68.5" font-family="Helvetica,sans-Serif" font-size="10.00">fr.softsf.canscan.CanScan.validate</text>
<text text-anchor="middle" x="912.75" y="-56.5" font-family="Helvetica,sans-Serif" font-size="10.00">AndGetRatio</text>
</a>
</g>
</g>
<!-- Node9&#45;&gt;Node12 -->
<g id="edge11_Node000009_Node000012" class="edge">
<title>Node9&#45;&gt;Node12</title>
<g id="a_edge11_Node000009_Node000012"><a xlink:title=" ">
<path fill="none" stroke="#63b8ff" d="M777.27,-82.12C789.86,-80.61 803.09,-79.02 816.14,-77.46"/>
<polygon fill="#63b8ff" stroke="#63b8ff" points="816.52,-80.94 826.04,-76.27 815.69,-73.99 816.52,-80.94"/>
</a>
</g>
</g>
<!-- Node13 -->
<g id="Node000013" class="node">
<title>Node13</title>
<g id="a_Node000013"><a xlink:href="classfr_1_1softsf_1_1canscan_1_1_can_scan.html#a6d139bb8d0a3c7081096c8956189b684" target="_top" xlink:title="Validates and returns the QR code size from the corresponding text field.">
<polygon fill="white" stroke="#666666" points="997.62,-32 827.88,-32 827.88,0 997.62,0 997.62,-32"/>
<text text-anchor="start" x="835.88" y="-18.5" font-family="Helvetica,sans-Serif" font-size="10.00">fr.softsf.canscan.CanScan.validate</text>
<text text-anchor="middle" x="912.75" y="-6.5" font-family="Helvetica,sans-Serif" font-size="10.00">AndGetSize</text>
</a>
</g>
</g>
<!-- Node9&#45;&gt;Node13 -->
<g id="edge12_Node000009_Node000013" class="edge">
<title>Node9&#45;&gt;Node13</title>
<g id="a_edge12_Node000009_Node000013"><a xlink:title=" ">
<path fill="none" stroke="#63b8ff" d="M740.41,-74.52C764.39,-64.22 796.36,-51.05 825.25,-41 830.33,-39.23 835.62,-37.48 840.95,-35.79"/>
<polygon fill="#63b8ff" stroke="#63b8ff" points="841.97,-39.14 850.48,-32.83 839.89,-32.45 841.97,-39.14"/>
</a>
</g>
</g>
</g>
</svg>
