<?xml version="1.0" encoding="UTF-8" standalone="no"?>
<!DOCTYPE svg PUBLIC "-//W3C//DTD SVG 1.1//EN"
 "http://www.w3.org/Graphics/SVG/1.1/DTD/svg11.dtd">
<!-- Generated by graphviz version 12.2.1 (20241206.2353)
 -->
<!-- Title: fr.softsf.canscan.CanScan.buildTitle Pages: 1 -->
<!--zoomable 336 -->

<svg id="main" version="1.1" xmlns="http://www.w3.org/2000/svg" xmlns:xlink="http://www.w3.org/1999/xlink" xml:space="preserve" onload="init(evt)">

<style type="text/css"><![CDATA[
.node, .edge {opacity: 0.7;}
.node.selected, .edge.selected {opacity: 1;}
.edge:hover path { stroke: red; }
.edge:hover polygon { stroke: red; fill: red; }
]]></style>

<defs>
  <circle id="rim" cx="0" cy="0" r="7"/>
  <circle id="rim2" cx="0" cy="0" r="3.5"/>
  <g id="zoomPlus">
    <use xlink:href="#rim" fill="#404040"><set attributeName="fill" to="#808080" begin="zoomplus.mouseover" end="zoomplus.mouseout"/></use>
    <path d="M-4,0h8M0,-4v8" fill="none" stroke="white" stroke-width="1.5" pointer-events="none"/>
  </g>
  <g id="zoomMin">
    <use xlink:href="#rim" fill="#404040"><set attributeName="fill" to="#808080" begin="zoomminus.mouseover" end="zoomminus.mouseout"/></use>
    <path d="M-4,0h8" fill="none" stroke="white" stroke-width="1.5" pointer-events="none"/>
  </g>
  <g id="arrowUp" transform="translate(30 24)">
    <use xlink:href="#rim"/>
    <path pointer-events="none" fill="none" stroke="white" stroke-width="1.5" d="M0,-3.0v7 M-2.5,-0.5L0,-3.0L2.5,-0.5"/>
  </g>
  <g id="arrowRight" transform="rotate(90) translate(36 -43)">
    <use xlink:href="#rim"/>
    <path pointer-events="none" fill="none" stroke="white" stroke-width="1.5" d="M0,-3.0v7 M-2.5,-0.5L0,-3.0L2.5,-0.5"/>
  </g>
  <g id="arrowDown" transform="rotate(180) translate(-30 -48)">
    <use xlink:href="#rim"/>
    <path pointer-events="none" fill="none" stroke="white" stroke-width="1.5" d="M0,-3.0v7 M-2.5,-0.5L0,-3.0L2.5,-0.5"/>
  </g>
  <g id="arrowLeft" transform="rotate(270) translate(-36 17)">
    <use xlink:href="#rim"/>
    <path pointer-events="none" fill="none" stroke="white" stroke-width="1.5" d="M0,-3.0v7 M-2.5,-0.5L0,-3.0L2.5,-0.5"/>
  </g>
  <g id="resetDef">
    <use xlink:href="#rim2" fill="#404040"><set attributeName="fill" to="#808080" begin="reset.mouseover" end="reset.mouseout"/></use>
  </g>
</defs>
<script type="application/ecmascript">
var viewWidth = 1165;
var viewHeight = 336;
var sectionId = 'dynsection-4';
</script>
<script type="application/ecmascript" xlink:href="svg.min.js"/>
<svg id="graph" class="graph">
<g id="viewport">
<title>fr.softsf.canscan.CanScan.buildTitle</title>
<!-- Node1 -->
<g id="Node000001" class="node">
<title>Node1</title>
<g id="a_Node000001"><a xlink:title="Constructs the application window title using metadata from the version properties.">
<polygon fill="#999999" stroke="#666666" points="156.25,-198 0,-198 0,-166 156.25,-166 156.25,-198"/>
<text text-anchor="start" x="8" y="-184.5" font-family="Helvetica,sans-Serif" font-size="10.00">fr.softsf.canscan.CanScan.build</text>
<text text-anchor="middle" x="78.12" y="-172.5" font-family="Helvetica,sans-Serif" font-size="10.00">Title</text>
</a>
</g>
</g>
<!-- Node2 -->
<g id="Node000002" class="node">
<title>Node2</title>
<g id="a_Node000002"><a xlink:href="classfr_1_1softsf_1_1canscan_1_1_can_scan.html#aefe4d08d96fdc7b2097daf4033bbbb9c" target="_top" xlink:title="Loads application metadata from the version.properties file.">
<polygon fill="white" stroke="#666666" points="341.75,-220 192.25,-220 192.25,-188 341.75,-188 341.75,-220"/>
<text text-anchor="start" x="200.25" y="-206.5" font-family="Helvetica,sans-Serif" font-size="10.00">fr.softsf.canscan.CanScan.get</text>
<text text-anchor="middle" x="267" y="-194.5" font-family="Helvetica,sans-Serif" font-size="10.00">ManifestKeys</text>
</a>
</g>
</g>
<!-- Node1&#45;&gt;Node2 -->
<g id="edge1_Node000001_Node000002" class="edge">
<title>Node1&#45;&gt;Node2</title>
<g id="a_edge1_Node000001_Node000002"><a xlink:title=" ">
<path fill="none" stroke="#63b8ff" d="M156.48,-191.11C164.47,-192.05 172.61,-193.01 180.68,-193.96"/>
<polygon fill="#63b8ff" stroke="#63b8ff" points="180.16,-197.42 190.5,-195.11 180.98,-190.47 180.16,-197.42"/>
</a>
</g>
</g>
<!-- Node3 -->
<g id="Node000003" class="node">
<title>Node3</title>
<g id="a_Node000003"><a xlink:href="classfr_1_1softsf_1_1canscan_1_1_can_scan.html#a102bcbc6cda608b642e870ba3fde6344" target="_top" xlink:title="Initializes the CanScan GUI.">
<polygon fill="white" stroke="#666666" points="513.75,-198 377.75,-198 377.75,-166 513.75,-166 513.75,-198"/>
<text text-anchor="start" x="385.75" y="-184.5" font-family="Helvetica,sans-Serif" font-size="10.00">fr.softsf.canscan.CanScan.</text>
<text text-anchor="middle" x="445.75" y="-172.5" font-family="Helvetica,sans-Serif" font-size="10.00">CanScan</text>
</a>
</g>
</g>
<!-- Node2&#45;&gt;Node3 -->
<g id="edge2_Node000002_Node000003" class="edge">
<title>Node2&#45;&gt;Node3</title>
<g id="a_edge2_Node000002_Node000003"><a xlink:title=" ">
<path fill="none" stroke="#63b8ff" d="M342.19,-194.77C350.15,-193.77 358.27,-192.76 366.28,-191.77"/>
<polygon fill="#63b8ff" stroke="#63b8ff" points="366.51,-195.27 376,-190.56 365.65,-188.32 366.51,-195.27"/>
</a>
</g>
</g>
<!-- Node3&#45;&gt;Node1 -->
<g id="edge5_Node000003_Node000001" class="edge">
<title>Node3&#45;&gt;Node1</title>
<g id="a_edge5_Node000003_Node000001"><a xlink:title=" ">
<path fill="none" stroke="#63b8ff" d="M377.44,-179.76C365.55,-179.44 353.29,-179.17 341.75,-179 275.31,-178.03 258.69,-178.12 192.25,-179 184.44,-179.1 176.33,-179.25 168.19,-179.42"/>
<polygon fill="#63b8ff" stroke="#63b8ff" points="168.14,-175.92 158.22,-179.64 168.3,-182.91 168.14,-175.92"/>
</a>
</g>
</g>
<!-- Node3&#45;&gt;Node3 -->
<g id="edge3_Node000003_Node000003" class="edge">
<title>Node3&#45;&gt;Node3</title>
<g id="a_edge3_Node000003_Node000003"><a xlink:title=" ">
<path fill="none" stroke="#63b8ff" d="M413.84,-198.44C407.88,-207.58 418.52,-216 445.75,-216 460.64,-216 470.57,-213.48 475.54,-209.71"/>
<polygon fill="#63b8ff" stroke="#63b8ff" points="478.97,-210.41 477.38,-199.93 472.09,-209.11 478.97,-210.41"/>
</a>
</g>
</g>
<!-- Node4 -->
<g id="Node000004" class="node">
<title>Node4</title>
<g id="a_Node000004"><a xlink:href="classfr_1_1softsf_1_1canscan_1_1_can_scan.html#a2732ecdc4490a717352975e68fce494c" target="_top" xlink:title="Adds a labeled component row to a panel using GridBagLayout.">
<polygon fill="white" stroke="#666666" points="946.25,-292 774.25,-292 774.25,-272 946.25,-272 946.25,-292"/>
<text text-anchor="middle" x="860.25" y="-278.5" font-family="Helvetica,sans-Serif" font-size="10.00">fr.softsf.canscan.CanScan.addRow</text>
</a>
</g>
</g>
<!-- Node3&#45;&gt;Node4 -->
<g id="edge4_Node000003_Node000004" class="edge">
<title>Node3&#45;&gt;Node4</title>
<g id="a_edge4_Node000003_Node000004"><a xlink:title=" ">
<path fill="none" stroke="#63b8ff" d="M454.12,-198.1C468.1,-226.39 501.43,-284.2 549.75,-307 640.4,-349.76 762.63,-317.22 822.75,-296.21"/>
<polygon fill="#63b8ff" stroke="#63b8ff" points="823.59,-299.63 831.81,-292.95 821.22,-293.04 823.59,-299.63"/>
</a>
</g>
</g>
<!-- Node5 -->
<g id="Node000005" class="node">
<title>Node5</title>
<g id="a_Node000005"><a xlink:href="classfr_1_1softsf_1_1canscan_1_1_can_scan.html#a2d26dcd1ae708eae46dba8952351aa1a" target="_top" xlink:title="Builds and returns a QrInput object containing all current user inputs and settings.">
<polygon fill="white" stroke="#666666" points="935,-151 785.5,-151 785.5,-119 935,-119 935,-151"/>
<text text-anchor="start" x="793.5" y="-137.5" font-family="Helvetica,sans-Serif" font-size="10.00">fr.softsf.canscan.CanScan.get</text>
<text text-anchor="middle" x="860.25" y="-125.5" font-family="Helvetica,sans-Serif" font-size="10.00">QrInput</text>
</a>
</g>
</g>
<!-- Node3&#45;&gt;Node5 -->
<g id="edge6_Node000003_Node000005" class="edge">
<title>Node3&#45;&gt;Node5</title>
<g id="a_edge6_Node000003_Node000005"><a xlink:title=" ">
<path fill="none" stroke="#63b8ff" d="M507.14,-165.56C521.05,-162.27 535.84,-159.17 549.75,-157 624.91,-145.29 711.32,-139.81 773.71,-137.24"/>
<polygon fill="#63b8ff" stroke="#63b8ff" points="773.7,-140.74 783.56,-136.85 773.43,-133.75 773.7,-140.74"/>
</a>
</g>
</g>
<!-- Node10 -->
<g id="Node000010" class="node">
<title>Node10</title>
<g id="a_Node000010"><a xlink:href="classfr_1_1softsf_1_1canscan_1_1_can_scan.html#addd7b7d7f9cc810756dbbb66218414d4" target="_top" xlink:title="Initializes the FREE mode input panel with a multiline text area for arbitrary text or URLs.">
<polygon fill="white" stroke="#666666" points="718.38,-298 569.62,-298 569.62,-266 718.38,-266 718.38,-298"/>
<text text-anchor="start" x="577.62" y="-284.5" font-family="Helvetica,sans-Serif" font-size="10.00">fr.softsf.canscan.CanScan.init</text>
<text text-anchor="middle" x="644" y="-272.5" font-family="Helvetica,sans-Serif" font-size="10.00">FreeCard</text>
</a>
</g>
</g>
<!-- Node3&#45;&gt;Node10 -->
<g id="edge11_Node000003_Node000010" class="edge">
<title>Node3&#45;&gt;Node10</title>
<g id="a_edge11_Node000003_Node000010"><a xlink:title=" ">
<path fill="none" stroke="#63b8ff" d="M464.77,-198.35C484.35,-215.3 517.22,-241.46 549.75,-257 553.08,-258.59 556.52,-260.09 560.04,-261.51"/>
<polygon fill="#63b8ff" stroke="#63b8ff" points="558.75,-264.76 569.34,-264.97 561.19,-258.2 558.75,-264.76"/>
</a>
</g>
</g>
<!-- Node11 -->
<g id="Node000011" class="node">
<title>Node11</title>
<g id="a_Node000011"><a xlink:href="classfr_1_1softsf_1_1canscan_1_1_can_scan.html#a4047170747f52f54ee69ddbc834c5373" target="_top" xlink:title="Sets up automatic QR code preview updates for all input fields and controls.">
<polygon fill="white" stroke="#666666" points="729.62,-198 558.38,-198 558.38,-166 729.62,-166 729.62,-198"/>
<text text-anchor="start" x="566.38" y="-184.5" font-family="Helvetica,sans-Serif" font-size="10.00">fr.softsf.canscan.CanScan.initialize</text>
<text text-anchor="middle" x="644" y="-172.5" font-family="Helvetica,sans-Serif" font-size="10.00">AutomaticQRCodeRendering</text>
</a>
</g>
</g>
<!-- Node3&#45;&gt;Node11 -->
<g id="edge13_Node000003_Node000011" class="edge">
<title>Node3&#45;&gt;Node11</title>
<g id="a_edge13_Node000003_Node000011"><a xlink:title=" ">
<path fill="none" stroke="#63b8ff" d="M514.01,-182C524.55,-182 535.62,-182 546.66,-182"/>
<polygon fill="#63b8ff" stroke="#63b8ff" points="546.62,-185.5 556.62,-182 546.62,-178.5 546.62,-185.5"/>
</a>
</g>
</g>
<!-- Node13 -->
<g id="Node000013" class="node">
<title>Node13</title>
<g id="a_Node000013"><a xlink:href="classfr_1_1softsf_1_1canscan_1_1_can_scan.html#ab78c47588f2cb82b4395a1268b3c4ca4" target="_top" xlink:title="Initializes the MECARD input panel with labeled text fields for structured contact information.">
<polygon fill="white" stroke="#666666" points="718.38,-248 569.62,-248 569.62,-216 718.38,-216 718.38,-248"/>
<text text-anchor="start" x="577.62" y="-234.5" font-family="Helvetica,sans-Serif" font-size="10.00">fr.softsf.canscan.CanScan.init</text>
<text text-anchor="middle" x="644" y="-222.5" font-family="Helvetica,sans-Serif" font-size="10.00">Mecard</text>
</a>
</g>
</g>
<!-- Node3&#45;&gt;Node13 -->
<g id="edge16_Node000003_Node000013" class="edge">
<title>Node3&#45;&gt;Node13</title>
<g id="a_edge16_Node000003_Node000013"><a xlink:title=" ">
<path fill="none" stroke="#63b8ff" d="M511.28,-198.44C529.22,-203.01 548.86,-208.02 567.38,-212.73"/>
<polygon fill="#63b8ff" stroke="#63b8ff" points="566.41,-216.1 576.96,-215.18 568.14,-209.31 566.41,-216.1"/>
</a>
</g>
</g>
<!-- Node14 -->
<g id="Node000014" class="node">
<title>Node14</title>
<g id="a_Node000014"><a xlink:href="classfr_1_1softsf_1_1canscan_1_1_can_scan.html#abbe4fb71ad979d6affed0b2c9629b832" target="_top" xlink:title="Updates the tooltip of the ratio slider to reflect its current value as a percentage.">
<polygon fill="white" stroke="#666666" points="718.75,-110 569.25,-110 569.25,-78 718.75,-78 718.75,-110"/>
<text text-anchor="start" x="577.25" y="-96.5" font-family="Helvetica,sans-Serif" font-size="10.00">fr.softsf.canscan.CanScan.set</text>
<text text-anchor="middle" x="644" y="-84.5" font-family="Helvetica,sans-Serif" font-size="10.00">RatioSliderTooltipValue</text>
</a>
</g>
</g>
<!-- Node3&#45;&gt;Node14 -->
<g id="edge18_Node000003_Node000014" class="edge">
<title>Node3&#45;&gt;Node14</title>
<g id="a_edge18_Node000003_Node000014"><a xlink:title=" ">
<path fill="none" stroke="#63b8ff" d="M472.25,-165.72C492.65,-153.18 522.3,-136 549.75,-124 557.75,-120.5 566.29,-117.2 574.83,-114.16"/>
<polygon fill="#63b8ff" stroke="#63b8ff" points="575.86,-117.51 584.18,-110.94 573.59,-110.89 575.86,-117.51"/>
</a>
</g>
</g>
<!-- Node15 -->
<g id="Node000015" class="node">
<title>Node15</title>
<g id="a_Node000015"><a xlink:href="classfr_1_1softsf_1_1canscan_1_1_can_scan.html#a428c742b098fa27d4c8984c1030c238d" target="_top" xlink:title="Switches the application between MECARD and FREE QR code modes.">
<polygon fill="white" stroke="#666666" points="738.25,-60 549.75,-60 549.75,-40 738.25,-40 738.25,-60"/>
<text text-anchor="middle" x="644" y="-46.5" font-family="Helvetica,sans-Serif" font-size="10.00">fr.softsf.canscan.CanScan.switchMode</text>
</a>
</g>
</g>
<!-- Node3&#45;&gt;Node15 -->
<g id="edge19_Node000003_Node000015" class="edge">
<title>Node3&#45;&gt;Node15</title>
<g id="a_edge19_Node000003_Node000015"><a xlink:title=" ">
<path fill="none" stroke="#63b8ff" d="M456.79,-165.53C473.02,-140.42 507.51,-92.98 549.75,-69 552.58,-67.39 555.52,-65.92 558.55,-64.58"/>
<polygon fill="#63b8ff" stroke="#63b8ff" points="559.66,-67.9 567.7,-61 557.11,-61.38 559.66,-67.9"/>
</a>
</g>
</g>
<!-- Node6 -->
<g id="Node000006" class="node">
<title>Node6</title>
<g id="a_Node000006"><a xlink:href="classfr_1_1softsf_1_1canscan_1_1_can_scan.html#a22606ca129489c778fbbe17cb8b70697" target="_top" xlink:title="Calculates the available height for QR code rendering.">
<polygon fill="white" stroke="#666666" points="1157.25,-226 982.25,-226 982.25,-194 1157.25,-194 1157.25,-226"/>
<text text-anchor="start" x="990.25" y="-212.5" font-family="Helvetica,sans-Serif" font-size="10.00">fr.softsf.canscan.CanScan.calculate</text>
<text text-anchor="middle" x="1069.75" y="-200.5" font-family="Helvetica,sans-Serif" font-size="10.00">AvailableQrHeight</text>
</a>
</g>
</g>
<!-- Node5&#45;&gt;Node6 -->
<g id="edge7_Node000005_Node000006" class="edge">
<title>Node5&#45;&gt;Node6</title>
<g id="a_edge7_Node000005_Node000006"><a xlink:title=" ">
<path fill="none" stroke="#63b8ff" d="M925.22,-151.38C932.44,-153.94 939.59,-156.81 946.25,-160 963.82,-168.41 964.66,-176.63 982.25,-185 985.57,-186.58 989,-188.08 992.51,-189.5"/>
<polygon fill="#63b8ff" stroke="#63b8ff" points="991.18,-192.74 1001.78,-193 993.66,-186.19 991.18,-192.74"/>
</a>
</g>
</g>
<!-- Node7 -->
<g id="Node000007" class="node">
<title>Node7</title>
<g id="a_Node000007"><a xlink:href="classfr_1_1softsf_1_1canscan_1_1_can_scan.html#a4e67b1b5c764e72414a5c0f387810f5c" target="_top" xlink:title="Validates and returns the current QR code margin from the margin slider.">
<polygon fill="white" stroke="#666666" points="1154.62,-176 984.88,-176 984.88,-144 1154.62,-144 1154.62,-176"/>
<text text-anchor="start" x="992.88" y="-162.5" font-family="Helvetica,sans-Serif" font-size="10.00">fr.softsf.canscan.CanScan.validate</text>
<text text-anchor="middle" x="1069.75" y="-150.5" font-family="Helvetica,sans-Serif" font-size="10.00">AndGetMargin</text>
</a>
</g>
</g>
<!-- Node5&#45;&gt;Node7 -->
<g id="edge8_Node000005_Node000007" class="edge">
<title>Node5&#45;&gt;Node7</title>
<g id="a_edge8_Node000005_Node000007"><a xlink:title=" ">
<path fill="none" stroke="#63b8ff" d="M935.28,-143.92C947.62,-145.41 960.56,-146.97 973.34,-148.5"/>
<polygon fill="#63b8ff" stroke="#63b8ff" points="972.65,-151.95 983,-149.67 973.49,-145 972.65,-151.95"/>
</a>
</g>
</g>
<!-- Node8 -->
<g id="Node000008" class="node">
<title>Node8</title>
<g id="a_Node000008"><a xlink:href="classfr_1_1softsf_1_1canscan_1_1_can_scan.html#a9e8188875168199cde065113ae2a393d" target="_top" xlink:title="Validates and returns the current image&#45;to&#45;QR ratio from the ratio slider.">
<polygon fill="white" stroke="#666666" points="1154.62,-126 984.88,-126 984.88,-94 1154.62,-94 1154.62,-126"/>
<text text-anchor="start" x="992.88" y="-112.5" font-family="Helvetica,sans-Serif" font-size="10.00">fr.softsf.canscan.CanScan.validate</text>
<text text-anchor="middle" x="1069.75" y="-100.5" font-family="Helvetica,sans-Serif" font-size="10.00">AndGetRatio</text>
</a>
</g>
</g>
<!-- Node5&#45;&gt;Node8 -->
<g id="edge9_Node000005_Node000008" class="edge">
<title>Node5&#45;&gt;Node8</title>
<g id="a_edge9_Node000005_Node000008"><a xlink:title=" ">
<path fill="none" stroke="#63b8ff" d="M935.28,-126.08C947.62,-124.59 960.56,-123.03 973.34,-121.5"/>
<polygon fill="#63b8ff" stroke="#63b8ff" points="973.49,-125 983,-120.33 972.65,-118.05 973.49,-125"/>
</a>
</g>
</g>
<!-- Node9 -->
<g id="Node000009" class="node">
<title>Node9</title>
<g id="a_Node000009"><a xlink:href="classfr_1_1softsf_1_1canscan_1_1_can_scan.html#a6d139bb8d0a3c7081096c8956189b684" target="_top" xlink:title="Validates and returns the QR code size from the corresponding text field.">
<polygon fill="white" stroke="#666666" points="1154.62,-76 984.88,-76 984.88,-44 1154.62,-44 1154.62,-76"/>
<text text-anchor="start" x="992.88" y="-62.5" font-family="Helvetica,sans-Serif" font-size="10.00">fr.softsf.canscan.CanScan.validate</text>
<text text-anchor="middle" x="1069.75" y="-50.5" font-family="Helvetica,sans-Serif" font-size="10.00">AndGetSize</text>
</a>
</g>
</g>
<!-- Node5&#45;&gt;Node9 -->
<g id="edge10_Node000005_Node000009" class="edge">
<title>Node5&#45;&gt;Node9</title>
<g id="a_edge10_Node000005_Node000009"><a xlink:title=" ">
<path fill="none" stroke="#63b8ff" d="M897.91,-118.61C921.7,-108.29 953.5,-95.06 982.25,-85 987.24,-83.25 992.43,-81.53 997.67,-79.86"/>
<polygon fill="#63b8ff" stroke="#63b8ff" points="998.5,-83.26 1007.01,-76.95 996.42,-76.58 998.5,-83.26"/>
</a>
</g>
</g>
<!-- Node10&#45;&gt;Node4 -->
<g id="edge12_Node000010_Node000004" class="edge">
<title>Node10&#45;&gt;Node4</title>
<g id="a_edge12_Node000010_Node000004"><a xlink:title=" ">
<path fill="none" stroke="#63b8ff" d="M718.73,-282C732.91,-282 747.96,-282 762.73,-282"/>
<polygon fill="#63b8ff" stroke="#63b8ff" points="762.45,-285.5 772.45,-282 762.45,-278.5 762.45,-285.5"/>
</a>
</g>
</g>
<!-- Node11&#45;&gt;Node5 -->
<g id="edge14_Node000011_Node000005" class="edge">
<title>Node11&#45;&gt;Node5</title>
<g id="a_edge14_Node000011_Node000005"><a xlink:title=" ">
<path fill="none" stroke="#63b8ff" d="M719.93,-165.56C737.42,-161.73 756.17,-157.61 774.07,-153.69"/>
<polygon fill="#63b8ff" stroke="#63b8ff" points="774.59,-157.16 783.6,-151.59 773.09,-150.32 774.59,-157.16"/>
</a>
</g>
</g>
<!-- Node12 -->
<g id="Node000012" class="node">
<title>Node12</title>
<g id="a_Node000012"><a xlink:href="classfr_1_1softsf_1_1canscan_1_1_can_scan.html#a9856545d05ef553c8dfddd95a850a360" target="_top" xlink:title="Creates a minimal DocumentListener that executes the given action on any document change.">
<polygon fill="white" stroke="#666666" points="942.5,-201 778,-201 778,-169 942.5,-169 942.5,-201"/>
<text text-anchor="start" x="786" y="-187.5" font-family="Helvetica,sans-Serif" font-size="10.00">fr.softsf.canscan.CanScan.simple</text>
<text text-anchor="middle" x="860.25" y="-175.5" font-family="Helvetica,sans-Serif" font-size="10.00">DocumentListener</text>
</a>
</g>
</g>
<!-- Node11&#45;&gt;Node12 -->
<g id="edge15_Node000011_Node000012" class="edge">
<title>Node11&#45;&gt;Node12</title>
<g id="a_edge15_Node000011_Node000012"><a xlink:title=" ">
<path fill="none" stroke="#63b8ff" d="M729.98,-183.19C741.85,-183.36 754.09,-183.53 766.1,-183.7"/>
<polygon fill="#63b8ff" stroke="#63b8ff" points="765.95,-187.19 776,-183.83 766.05,-180.19 765.95,-187.19"/>
</a>
</g>
</g>
<!-- Node13&#45;&gt;Node4 -->
<g id="edge17_Node000013_Node000004" class="edge">
<title>Node13&#45;&gt;Node4</title>
<g id="a_edge17_Node000013_Node000004"><a xlink:title=" ">
<path fill="none" stroke="#63b8ff" d="M715.45,-248.44C743.94,-255.09 776.37,-262.66 803.22,-268.92"/>
<polygon fill="#63b8ff" stroke="#63b8ff" points="802.34,-272.31 812.88,-271.18 803.93,-265.5 802.34,-272.31"/>
</a>
</g>
</g>
<!-- Node15&#45;&gt;Node5 -->
<g id="edge20_Node000015_Node000005" class="edge">
<title>Node15&#45;&gt;Node5</title>
<g id="a_edge20_Node000015_Node000005"><a xlink:title=" ">
<path fill="none" stroke="#63b8ff" d="M711.05,-60.47C720.33,-62.8 729.64,-65.61 738.25,-69 755.7,-75.86 757.91,-81.8 774.25,-91 787.75,-98.61 802.69,-106.51 816.23,-113.48"/>
<polygon fill="#63b8ff" stroke="#63b8ff" points="814.42,-116.49 824.92,-117.92 817.61,-110.25 814.42,-116.49"/>
</a>
</g>
</g>
<!-- Node16 -->
<g id="Node000016" class="node">
<title>Node16</title>
<g id="a_Node000016"><a xlink:href="enumfr_1_1softsf_1_1canscan_1_1model_1_1_mode.html#a16a898a11ca939056bd7b275f11ea54c" target="_top" xlink:title="Returns the name of the mode as a string.">
<polygon fill="white" stroke="#666666" points="921.12,-32 799.38,-32 799.38,0 921.12,0 921.12,-32"/>
<text text-anchor="start" x="807.38" y="-18.5" font-family="Helvetica,sans-Serif" font-size="10.00">fr.softsf.canscan.model.</text>
<text text-anchor="middle" x="860.25" y="-6.5" font-family="Helvetica,sans-Serif" font-size="10.00">Mode.text</text>
</a>
</g>
</g>
<!-- Node15&#45;&gt;Node16 -->
<g id="edge21_Node000015_Node000016" class="edge">
<title>Node15&#45;&gt;Node16</title>
<g id="a_edge21_Node000015_Node000016"><a xlink:title=" ">
<path fill="none" stroke="#63b8ff" d="M711.03,-39.52C735.34,-35.66 762.98,-31.28 787.75,-27.35"/>
<polygon fill="#63b8ff" stroke="#63b8ff" points="788.08,-30.84 797.41,-25.81 786.99,-23.92 788.08,-30.84"/>
</a>
</g>
</g>
<!-- Node17 -->
<g id="Node000017" class="node">
<title>Node17</title>
<g id="a_Node000017"><a xlink:href="classfr_1_1softsf_1_1canscan_1_1_can_scan.html#a11fd9295c4843e6e68f9d1e4a710b906" target="_top" xlink:title="Validates the current input fields and toggles the state of the generate button.">
<polygon fill="white" stroke="#666666" points="942.88,-82 777.62,-82 777.62,-50 942.88,-50 942.88,-82"/>
<text text-anchor="start" x="785.62" y="-68.5" font-family="Helvetica,sans-Serif" font-size="10.00">fr.softsf.canscan.CanScan.update</text>
<text text-anchor="middle" x="860.25" y="-56.5" font-family="Helvetica,sans-Serif" font-size="10.00">GenerateButtonState</text>
</a>
</g>
</g>
<!-- Node15&#45;&gt;Node17 -->
<g id="edge22_Node000015_Node000017" class="edge">
<title>Node15&#45;&gt;Node17</title>
<g id="a_edge22_Node000015_Node000017"><a xlink:title=" ">
<path fill="none" stroke="#63b8ff" d="M738.66,-56.99C747.69,-57.67 756.84,-58.35 765.87,-59.03"/>
<polygon fill="#63b8ff" stroke="#63b8ff" points="765.46,-62.51 775.69,-59.76 765.98,-55.53 765.46,-62.51"/>
</a>
</g>
</g>
</g>
</svg>

<g id="navigator" transform="translate(0 0)" fill="#404254">
  <rect fill="#f2f5e9" fill-opacity="0.5" stroke="#606060" stroke-width=".5" x="0" y="0" width="60" height="60"/>
  <use id="zoomplus" xlink:href="#zoomPlus" x="17" y="9" onmousedown="handleZoom(evt,'in')"/>
  <use id="zoomminus" xlink:href="#zoomMin" x="42" y="9" onmousedown="handleZoom(evt,'out')"/>
  <use id="reset" xlink:href="#resetDef" x="30" y="36" onmousedown="handleReset()"/>
   <use id="arrowup" xlink:href="#arrowUp" x="0" y="0" onmousedown="handlePan(0,-1)"/>
  <use id="arrowright" xlink:href="#arrowRight" x="0" y="0" onmousedown="handlePan(1,0)"/>
  <use id="arrowdown" xlink:href="#arrowDown" x="0" y="0" onmousedown="handlePan(0,1)"/>
  <use id="arrowleft" xlink:href="#arrowLeft" x="0" y="0" onmousedown="handlePan(-1,0)"/>
</g>
<svg viewBox="0 0 15 15" width="100%" height="30px" preserveAspectRatio="xMaxYMin meet">
 <g id="arrow_out" transform="scale(0.3 0.3)">
  <a xlink:href="classfr_1_1softsf_1_1canscan_1_1_can_scan_ad77dc63cc1aac70e3833d39005d42f25_cgraph_org.svg" target="_base">
   <rect id="button" ry="5" rx="5" y="6" x="6" height="38" width="38"
        fill="#f2f5e9" fill-opacity="0.5" stroke="#606060" stroke-width="1.0"/>
   <path id="arrow"
     d="M 11.500037,31.436501 C 11.940474,20.09759 22.043105,11.32322 32.158766,21.979434 L 37.068811,17.246167 C 37.068811,17.246167 37.088388,32 37.088388,32 L 22.160133,31.978069 C 22.160133,31.978069 26.997745,27.140456 26.997745,27.140456 C 18.528582,18.264221 13.291696,25.230495 11.500037,31.436501 z"
     style="fill:#404040;"/>
  </a>
 </g>
</svg>

<style type='text/css'>
<![CDATA[
[data-mouse-over-selected='false'] { opacity: 0.7; }
[data-mouse-over-selected='true']  { opacity: 1.0; }
]]>
</style>
<script type="application/ecmascript"><![CDATA[
document.addEventListener('DOMContentLoaded', (event) => {
  highlightEdges();
  highlightAdjacentNodes();
});
]]></script>
</svg>
