<?xml version="1.0" encoding="UTF-8" standalone="no"?>
<!DOCTYPE svg PUBLIC "-//W3C//DTD SVG 1.1//EN"
 "http://www.w3.org/Graphics/SVG/1.1/DTD/svg11.dtd">
<!-- Generated by graphviz version 12.2.1 (20241206.2353)
 -->
<!-- Title: fr.softsf.canscan.CanScan.main Pages: 1 -->
<svg width="1400pt" height="566pt"
 viewBox="0.00 0.00 1399.50 566.00" xmlns="http://www.w3.org/2000/svg" xmlns:xlink="http://www.w3.org/1999/xlink">
<g id="graph0" class="graph" transform="scale(1 1) rotate(0) translate(4 562)">
<title>fr.softsf.canscan.CanScan.main</title>
<!-- Node1 -->
<g id="Node000001" class="node">
<title>Node1</title>
<g id="a_Node000001"><a xlink:title="Application entry point.">
<polygon fill="#999999" stroke="#666666" points="157,-189 0,-189 0,-169 157,-169 157,-189"/>
<text text-anchor="middle" x="78.5" y="-175.5" font-family="Helvetica,sans-Serif" font-size="10.00">fr.softsf.canscan.CanScan.main</text>
</a>
</g>
</g>
<!-- Node2 -->
<g id="Node000002" class="node">
<title>Node2</title>
<g id="a_Node000002"><a xlink:href="classfr_1_1softsf_1_1canscan_1_1_can_scan.html#a102bcbc6cda608b642e870ba3fde6344" target="_top" xlink:title="Initializes the CanScan GUI.">
<polygon fill="white" stroke="#666666" points="329,-195 193,-195 193,-163 329,-163 329,-195"/>
<text text-anchor="start" x="201" y="-181.5" font-family="Helvetica,sans-Serif" font-size="10.00">fr.softsf.canscan.CanScan.</text>
<text text-anchor="middle" x="261" y="-169.5" font-family="Helvetica,sans-Serif" font-size="10.00">CanScan</text>
</a>
</g>
</g>
<!-- Node1&#45;&gt;Node2 -->
<g id="edge1_Node000001_Node000002" class="edge">
<title>Node1&#45;&gt;Node2</title>
<g id="a_edge1_Node000001_Node000002"><a xlink:title=" ">
<path fill="none" stroke="#63b8ff" d="M157.36,-179C165.24,-179 173.26,-179 181.15,-179"/>
<polygon fill="#63b8ff" stroke="#63b8ff" points="181.09,-182.5 191.09,-179 181.09,-175.5 181.09,-182.5"/>
</a>
</g>
</g>
<!-- Node3 -->
<g id="Node000003" class="node">
<title>Node3</title>
<g id="a_Node000003"><a xlink:href="classfr_1_1softsf_1_1canscan_1_1_can_scan.html#a070115929fdc69b249d21866a00a47cc" target="_top" xlink:title="Assigns component names for identification.">
<polygon fill="white" stroke="#666666" points="536.25,-358 365,-358 365,-326 536.25,-326 536.25,-358"/>
<text text-anchor="start" x="373" y="-344.5" font-family="Helvetica,sans-Serif" font-size="10.00">fr.softsf.canscan.CanScan.initialize</text>
<text text-anchor="middle" x="450.62" y="-332.5" font-family="Helvetica,sans-Serif" font-size="10.00">ComponentNames</text>
</a>
</g>
</g>
<!-- Node2&#45;&gt;Node3 -->
<g id="edge2_Node000002_Node000003" class="edge">
<title>Node2&#45;&gt;Node3</title>
<g id="a_edge2_Node000002_Node000003"><a xlink:title=" ">
<path fill="none" stroke="#63b8ff" d="M270.52,-195.36C285.82,-223.18 320.51,-279.82 365,-312 369.54,-315.28 374.48,-318.24 379.6,-320.89"/>
<polygon fill="#63b8ff" stroke="#63b8ff" points="377.74,-323.88 388.28,-324.98 380.73,-317.55 377.74,-323.88"/>
</a>
</g>
</g>
<!-- Node4 -->
<g id="Node000004" class="node">
<title>Node4</title>
<g id="a_Node000004"><a xlink:href="classfr_1_1softsf_1_1canscan_1_1_can_scan.html#a14263ca931024d56cd9bed4af4b74c25" target="_top" xlink:title="Creates the main panel containing all GUI sections.">
<polygon fill="white" stroke="#666666" points="743.5,-514 572.25,-514 572.25,-482 743.5,-482 743.5,-514"/>
<text text-anchor="start" x="580.25" y="-500.5" font-family="Helvetica,sans-Serif" font-size="10.00">fr.softsf.canscan.CanScan.initialize</text>
<text text-anchor="middle" x="657.88" y="-488.5" font-family="Helvetica,sans-Serif" font-size="10.00">MainPanel</text>
</a>
</g>
</g>
<!-- Node2&#45;&gt;Node4 -->
<g id="edge3_Node000002_Node000004" class="edge">
<title>Node2&#45;&gt;Node4</title>
<g id="a_edge3_Node000002_Node000004"><a xlink:title=" ">
<path fill="none" stroke="#63b8ff" d="M273.98,-195.33C291.41,-217.82 325.95,-257.95 365,-279 433.62,-316 474.24,-269.75 536.25,-317 563.45,-337.73 553.95,-356.12 572.25,-385 592.22,-416.52 618.37,-450.52 636.29,-472.89"/>
<polygon fill="#63b8ff" stroke="#63b8ff" points="633.46,-474.97 642.47,-480.56 638.91,-470.58 633.46,-474.97"/>
</a>
</g>
</g>
<!-- Node12 -->
<g id="Node000012" class="node">
<title>Node12</title>
<g id="a_Node000012"><a xlink:href="classfr_1_1softsf_1_1canscan_1_1_can_scan.html#afb8d451dc5d6d9c7b6700e4b688c98a3" target="_top" xlink:title="Builds the north panel containing mode selection, card panels, common fields, and the generate button...">
<polygon fill="white" stroke="#666666" points="536.25,-270 365,-270 365,-238 536.25,-238 536.25,-270"/>
<text text-anchor="start" x="373" y="-256.5" font-family="Helvetica,sans-Serif" font-size="10.00">fr.softsf.canscan.CanScan.initialize</text>
<text text-anchor="middle" x="450.62" y="-244.5" font-family="Helvetica,sans-Serif" font-size="10.00">NorthPanel</text>
</a>
</g>
</g>
<!-- Node2&#45;&gt;Node12 -->
<g id="edge12_Node000002_Node000012" class="edge">
<title>Node2&#45;&gt;Node12</title>
<g id="a_edge12_Node000002_Node000012"><a xlink:title=" ">
<path fill="none" stroke="#63b8ff" d="M292.51,-195.45C312.7,-205.93 339.98,-219.31 365,-229 369.42,-230.71 374.01,-232.38 378.66,-233.98"/>
<polygon fill="#63b8ff" stroke="#63b8ff" points="377.54,-237.29 388.13,-237.12 379.74,-230.65 377.54,-237.29"/>
</a>
</g>
</g>
<!-- Node27 -->
<g id="Node000027" class="node">
<title>Node27</title>
<g id="a_Node000027"><a xlink:href="classfr_1_1softsf_1_1canscan_1_1_can_scan.html#a4928478365bc812571ac037662cc5f6b" target="_top" xlink:title="Wraps the main panel in a scrollable container.">
<polygon fill="white" stroke="#666666" points="536.25,-220 365,-220 365,-188 536.25,-188 536.25,-220"/>
<text text-anchor="start" x="373" y="-206.5" font-family="Helvetica,sans-Serif" font-size="10.00">fr.softsf.canscan.CanScan.initialize</text>
<text text-anchor="middle" x="450.62" y="-194.5" font-family="Helvetica,sans-Serif" font-size="10.00">ScrollPane</text>
</a>
</g>
</g>
<!-- Node2&#45;&gt;Node27 -->
<g id="edge34_Node000002_Node000027" class="edge">
<title>Node2&#45;&gt;Node27</title>
<g id="a_edge34_Node000002_Node000027"><a xlink:title=" ">
<path fill="none" stroke="#63b8ff" d="M329.47,-187.99C337.26,-189.03 345.3,-190.1 353.37,-191.17"/>
<polygon fill="#63b8ff" stroke="#63b8ff" points="352.9,-194.64 363.27,-192.49 353.82,-187.7 352.9,-194.64"/>
</a>
</g>
</g>
<!-- Node28 -->
<g id="Node000028" class="node">
<title>Node28</title>
<g id="a_Node000028"><a xlink:href="classfr_1_1softsf_1_1canscan_1_1_can_scan.html#a358629f85831dc6cd4978c8854d88561" target="_top" xlink:title="Configures sliders for logo margin and ratio.">
<polygon fill="white" stroke="#666666" points="536.25,-170 365,-170 365,-138 536.25,-138 536.25,-170"/>
<text text-anchor="start" x="373" y="-156.5" font-family="Helvetica,sans-Serif" font-size="10.00">fr.softsf.canscan.CanScan.initialize</text>
<text text-anchor="middle" x="450.62" y="-144.5" font-family="Helvetica,sans-Serif" font-size="10.00">Sliders</text>
</a>
</g>
</g>
<!-- Node2&#45;&gt;Node28 -->
<g id="edge35_Node000002_Node000028" class="edge">
<title>Node2&#45;&gt;Node28</title>
<g id="a_edge35_Node000002_Node000028"><a xlink:title=" ">
<path fill="none" stroke="#63b8ff" d="M329.47,-170.01C337.26,-168.97 345.3,-167.9 353.37,-166.83"/>
<polygon fill="#63b8ff" stroke="#63b8ff" points="353.82,-170.3 363.27,-165.51 352.9,-163.36 353.82,-170.3"/>
</a>
</g>
</g>
<!-- Node30 -->
<g id="Node000030" class="node">
<title>Node30</title>
<g id="a_Node000030"><a xlink:href="classfr_1_1softsf_1_1canscan_1_1_can_scan.html#ae9d7eee5ec656c89834bed84a588334f" target="_top" xlink:title="Constructs the application window title using metadata from the version properties.">
<polygon fill="white" stroke="#666666" points="536.25,-120 365,-120 365,-88 536.25,-88 536.25,-120"/>
<text text-anchor="start" x="373" y="-106.5" font-family="Helvetica,sans-Serif" font-size="10.00">fr.softsf.canscan.CanScan.initialize</text>
<text text-anchor="middle" x="450.62" y="-94.5" font-family="Helvetica,sans-Serif" font-size="10.00">Title</text>
</a>
</g>
</g>
<!-- Node2&#45;&gt;Node30 -->
<g id="edge37_Node000002_Node000030" class="edge">
<title>Node2&#45;&gt;Node30</title>
<g id="a_edge37_Node000002_Node000030"><a xlink:title=" ">
<path fill="none" stroke="#63b8ff" d="M292.51,-162.55C312.7,-152.07 339.98,-138.69 365,-129 369.42,-127.29 374.01,-125.62 378.66,-124.02"/>
<polygon fill="#63b8ff" stroke="#63b8ff" points="379.74,-127.35 388.13,-120.88 377.54,-120.71 379.74,-127.35"/>
</a>
</g>
</g>
<!-- Node32 -->
<g id="Node000032" class="node">
<title>Node32</title>
<g id="a_Node000032"><a xlink:href="classfr_1_1softsf_1_1canscan_1_1_can_scan.html#a0a52159db640660477196e337ec62a9b" target="_top" xlink:title="Finalizes window layout and appearance.">
<polygon fill="white" stroke="#666666" points="536.25,-32 365,-32 365,0 536.25,0 536.25,-32"/>
<text text-anchor="start" x="373" y="-18.5" font-family="Helvetica,sans-Serif" font-size="10.00">fr.softsf.canscan.CanScan.initialize</text>
<text text-anchor="middle" x="450.62" y="-6.5" font-family="Helvetica,sans-Serif" font-size="10.00">Window</text>
</a>
</g>
</g>
<!-- Node2&#45;&gt;Node32 -->
<g id="edge40_Node000002_Node000032" class="edge">
<title>Node2&#45;&gt;Node32</title>
<g id="a_edge40_Node000002_Node000032"><a xlink:title=" ">
<path fill="none" stroke="#63b8ff" d="M270.52,-162.64C285.82,-134.82 320.51,-78.18 365,-46 369.54,-42.72 374.48,-39.76 379.6,-37.11"/>
<polygon fill="#63b8ff" stroke="#63b8ff" points="380.73,-40.45 388.28,-33.02 377.74,-34.12 380.73,-40.45"/>
</a>
</g>
</g>
<!-- Node5 -->
<g id="Node000005" class="node">
<title>Node5</title>
<g id="a_Node000005"><a xlink:href="classfr_1_1softsf_1_1canscan_1_1_can_scan.html#ad470e3c0750cf142dc611b1aeeda3a97" target="_top" xlink:title="Sets up automatic QR code preview updates for all input fields and controls.">
<polygon fill="white" stroke="#666666" points="972.5,-558 779.5,-558 779.5,-526 972.5,-526 972.5,-558"/>
<text text-anchor="start" x="787.5" y="-544.5" font-family="Helvetica,sans-Serif" font-size="10.00">fr.softsf.canscan.CanScan.automatic</text>
<text text-anchor="middle" x="876" y="-532.5" font-family="Helvetica,sans-Serif" font-size="10.00">QRCodeRenderingForFieldsAndControls</text>
</a>
</g>
</g>
<!-- Node4&#45;&gt;Node5 -->
<g id="edge4_Node000004_Node000005" class="edge">
<title>Node4&#45;&gt;Node5</title>
<g id="a_edge4_Node000004_Node000005"><a xlink:title=" ">
<path fill="none" stroke="#63b8ff" d="M739.66,-514.45C753.8,-517.33 768.61,-520.34 783.02,-523.27"/>
<polygon fill="#63b8ff" stroke="#63b8ff" points="781.97,-526.63 792.47,-525.2 783.37,-519.77 781.97,-526.63"/>
</a>
</g>
</g>
<!-- Node6 -->
<g id="Node000006" class="node">
<title>Node6</title>
<g id="a_Node000006"><a xlink:href="classfr_1_1softsf_1_1canscan_1_1_can_scan.html#a2d26dcd1ae708eae46dba8952351aa1a" target="_top" xlink:title="Builds and returns a QrInput object containing all current user inputs and settings.">
<polygon fill="white" stroke="#666666" points="1169.25,-437 1019.75,-437 1019.75,-405 1169.25,-405 1169.25,-437"/>
<text text-anchor="start" x="1027.75" y="-423.5" font-family="Helvetica,sans-Serif" font-size="10.00">fr.softsf.canscan.CanScan.get</text>
<text text-anchor="middle" x="1094.5" y="-411.5" font-family="Helvetica,sans-Serif" font-size="10.00">QrInput</text>
</a>
</g>
</g>
<!-- Node4&#45;&gt;Node6 -->
<g id="edge11_Node000004_Node000006" class="edge">
<title>Node4&#45;&gt;Node6</title>
<g id="a_edge11_Node000004_Node000006"><a xlink:title=" ">
<path fill="none" stroke="#63b8ff" d="M743.78,-501.6C807.67,-502.23 896.86,-498.62 972.5,-479 1002.55,-471.21 1034.11,-455.81 1057.46,-442.83"/>
<polygon fill="#63b8ff" stroke="#63b8ff" points="1058.97,-446 1065.94,-438.01 1055.52,-439.91 1058.97,-446"/>
</a>
</g>
</g>
<!-- Node5&#45;&gt;Node6 -->
<g id="edge5_Node000005_Node000006" class="edge">
<title>Node5&#45;&gt;Node6</title>
<g id="a_edge5_Node000005_Node000006"><a xlink:title=" ">
<path fill="none" stroke="#63b8ff" d="M940.12,-525.53C951.18,-521.71 962.38,-517.2 972.5,-512 1008,-493.76 1043.96,-465.14 1067.34,-444.88"/>
<polygon fill="#63b8ff" stroke="#63b8ff" points="1069.63,-447.53 1074.82,-438.29 1065,-442.27 1069.63,-447.53"/>
</a>
</g>
</g>
<!-- Node11 -->
<g id="Node000011" class="node">
<title>Node11</title>
<g id="a_Node000011"><a xlink:href="classfr_1_1softsf_1_1canscan_1_1_can_scan.html#a9856545d05ef553c8dfddd95a850a360" target="_top" xlink:title="Creates a minimal DocumentListener that executes the given action on any document change.">
<polygon fill="white" stroke="#666666" points="1176.75,-558 1012.25,-558 1012.25,-526 1176.75,-526 1176.75,-558"/>
<text text-anchor="start" x="1020.25" y="-544.5" font-family="Helvetica,sans-Serif" font-size="10.00">fr.softsf.canscan.CanScan.simple</text>
<text text-anchor="middle" x="1094.5" y="-532.5" font-family="Helvetica,sans-Serif" font-size="10.00">DocumentListener</text>
</a>
</g>
</g>
<!-- Node5&#45;&gt;Node11 -->
<g id="edge10_Node000005_Node000011" class="edge">
<title>Node5&#45;&gt;Node11</title>
<g id="a_edge10_Node000005_Node000011"><a xlink:title=" ">
<path fill="none" stroke="#63b8ff" d="M972.91,-542C982.05,-542 991.32,-542 1000.43,-542"/>
<polygon fill="#63b8ff" stroke="#63b8ff" points="1000.37,-545.5 1010.37,-542 1000.37,-538.5 1000.37,-545.5"/>
</a>
</g>
</g>
<!-- Node7 -->
<g id="Node000007" class="node">
<title>Node7</title>
<g id="a_Node000007"><a xlink:href="classfr_1_1softsf_1_1canscan_1_1_can_scan.html#a22606ca129489c778fbbe17cb8b70697" target="_top" xlink:title="Calculates the available height for QR code rendering.">
<polygon fill="white" stroke="#666666" points="1391.5,-512 1216.5,-512 1216.5,-480 1391.5,-480 1391.5,-512"/>
<text text-anchor="start" x="1224.5" y="-498.5" font-family="Helvetica,sans-Serif" font-size="10.00">fr.softsf.canscan.CanScan.calculate</text>
<text text-anchor="middle" x="1304" y="-486.5" font-family="Helvetica,sans-Serif" font-size="10.00">AvailableQrHeight</text>
</a>
</g>
</g>
<!-- Node6&#45;&gt;Node7 -->
<g id="edge6_Node000006_Node000007" class="edge">
<title>Node6&#45;&gt;Node7</title>
<g id="a_edge6_Node000006_Node000007"><a xlink:title=" ">
<path fill="none" stroke="#63b8ff" d="M1132.16,-437.39C1155.95,-447.71 1187.75,-460.94 1216.5,-471 1221.49,-472.75 1226.68,-474.47 1231.92,-476.14"/>
<polygon fill="#63b8ff" stroke="#63b8ff" points="1230.67,-479.42 1241.26,-479.05 1232.75,-472.74 1230.67,-479.42"/>
</a>
</g>
</g>
<!-- Node8 -->
<g id="Node000008" class="node">
<title>Node8</title>
<g id="a_Node000008"><a xlink:href="classfr_1_1softsf_1_1canscan_1_1_can_scan.html#a4e67b1b5c764e72414a5c0f387810f5c" target="_top" xlink:title="Validates and returns the current QR code margin from the margin slider.">
<polygon fill="white" stroke="#666666" points="1388.88,-462 1219.12,-462 1219.12,-430 1388.88,-430 1388.88,-462"/>
<text text-anchor="start" x="1227.12" y="-448.5" font-family="Helvetica,sans-Serif" font-size="10.00">fr.softsf.canscan.CanScan.validate</text>
<text text-anchor="middle" x="1304" y="-436.5" font-family="Helvetica,sans-Serif" font-size="10.00">AndGetMargin</text>
</a>
</g>
</g>
<!-- Node6&#45;&gt;Node8 -->
<g id="edge7_Node000006_Node000008" class="edge">
<title>Node6&#45;&gt;Node8</title>
<g id="a_edge7_Node000006_Node000008"><a xlink:title=" ">
<path fill="none" stroke="#63b8ff" d="M1169.53,-429.92C1181.87,-431.41 1194.81,-432.97 1207.59,-434.5"/>
<polygon fill="#63b8ff" stroke="#63b8ff" points="1206.9,-437.95 1217.25,-435.67 1207.74,-431 1206.9,-437.95"/>
</a>
</g>
</g>
<!-- Node9 -->
<g id="Node000009" class="node">
<title>Node9</title>
<g id="a_Node000009"><a xlink:href="classfr_1_1softsf_1_1canscan_1_1_can_scan.html#a9e8188875168199cde065113ae2a393d" target="_top" xlink:title="Validates and returns the current image&#45;to&#45;QR ratio from the ratio slider.">
<polygon fill="white" stroke="#666666" points="1388.88,-412 1219.12,-412 1219.12,-380 1388.88,-380 1388.88,-412"/>
<text text-anchor="start" x="1227.12" y="-398.5" font-family="Helvetica,sans-Serif" font-size="10.00">fr.softsf.canscan.CanScan.validate</text>
<text text-anchor="middle" x="1304" y="-386.5" font-family="Helvetica,sans-Serif" font-size="10.00">AndGetRatio</text>
</a>
</g>
</g>
<!-- Node6&#45;&gt;Node9 -->
<g id="edge8_Node000006_Node000009" class="edge">
<title>Node6&#45;&gt;Node9</title>
<g id="a_edge8_Node000006_Node000009"><a xlink:title=" ">
<path fill="none" stroke="#63b8ff" d="M1169.53,-412.08C1181.87,-410.59 1194.81,-409.03 1207.59,-407.5"/>
<polygon fill="#63b8ff" stroke="#63b8ff" points="1207.74,-411 1217.25,-406.33 1206.9,-404.05 1207.74,-411"/>
</a>
</g>
</g>
<!-- Node10 -->
<g id="Node000010" class="node">
<title>Node10</title>
<g id="a_Node000010"><a xlink:href="classfr_1_1softsf_1_1canscan_1_1_can_scan.html#a6d139bb8d0a3c7081096c8956189b684" target="_top" xlink:title="Validates and returns the QR code size from the corresponding text field.">
<polygon fill="white" stroke="#666666" points="1388.88,-362 1219.12,-362 1219.12,-330 1388.88,-330 1388.88,-362"/>
<text text-anchor="start" x="1227.12" y="-348.5" font-family="Helvetica,sans-Serif" font-size="10.00">fr.softsf.canscan.CanScan.validate</text>
<text text-anchor="middle" x="1304" y="-336.5" font-family="Helvetica,sans-Serif" font-size="10.00">AndGetSize</text>
</a>
</g>
</g>
<!-- Node6&#45;&gt;Node10 -->
<g id="edge9_Node000006_Node000010" class="edge">
<title>Node6&#45;&gt;Node10</title>
<g id="a_edge9_Node000006_Node000010"><a xlink:title=" ">
<path fill="none" stroke="#63b8ff" d="M1132.16,-404.61C1155.95,-394.29 1187.75,-381.06 1216.5,-371 1221.49,-369.25 1226.68,-367.53 1231.92,-365.86"/>
<polygon fill="#63b8ff" stroke="#63b8ff" points="1232.75,-369.26 1241.26,-362.95 1230.67,-362.58 1232.75,-369.26"/>
</a>
</g>
</g>
<!-- Node13 -->
<g id="Node000013" class="node">
<title>Node13</title>
<g id="a_Node000013"><a xlink:href="classfr_1_1softsf_1_1canscan_1_1_can_scan.html#ab2e018ca62c7497c29e84f42ae870daa" target="_top" xlink:title="Adds MECARD and Free card panels to the north panel.">
<polygon fill="white" stroke="#666666" points="733.75,-176 582,-176 582,-144 733.75,-144 733.75,-176"/>
<text text-anchor="start" x="590" y="-162.5" font-family="Helvetica,sans-Serif" font-size="10.00">fr.softsf.canscan.CanScan.add</text>
<text text-anchor="middle" x="657.88" y="-150.5" font-family="Helvetica,sans-Serif" font-size="10.00">NorthPanelCardPanels</text>
</a>
</g>
</g>
<!-- Node12&#45;&gt;Node13 -->
<g id="edge13_Node000012_Node000013" class="edge">
<title>Node12&#45;&gt;Node13</title>
<g id="a_edge13_Node000012_Node000013"><a xlink:title=" ">
<path fill="none" stroke="#63b8ff" d="M520.23,-237.69C525.85,-235.18 531.27,-232.3 536.25,-229 557.3,-215.02 551.2,-198.98 572.25,-185 574.12,-183.76 576.05,-182.58 578.02,-181.46"/>
<polygon fill="#63b8ff" stroke="#63b8ff" points="579.55,-184.61 586.92,-176.99 576.41,-178.35 579.55,-184.61"/>
</a>
</g>
</g>
<!-- Node17 -->
<g id="Node000017" class="node">
<title>Node17</title>
<g id="a_Node000017"><a xlink:href="classfr_1_1softsf_1_1canscan_1_1_can_scan.html#a94ab4df98de0d05977e6a65ab75f89f0" target="_top" xlink:title="Adds common input fields to the north panel.">
<polygon fill="white" stroke="#666666" points="733.75,-226 582,-226 582,-194 733.75,-194 733.75,-226"/>
<text text-anchor="start" x="590" y="-212.5" font-family="Helvetica,sans-Serif" font-size="10.00">fr.softsf.canscan.CanScan.add</text>
<text text-anchor="middle" x="657.88" y="-200.5" font-family="Helvetica,sans-Serif" font-size="10.00">NorthPanelCommonFields</text>
</a>
</g>
</g>
<!-- Node12&#45;&gt;Node17 -->
<g id="edge18_Node000012_Node000017" class="edge">
<title>Node12&#45;&gt;Node17</title>
<g id="a_edge18_Node000012_Node000017"><a xlink:title=" ">
<path fill="none" stroke="#63b8ff" d="M528.34,-237.55C542.09,-234.61 556.5,-231.52 570.5,-228.52"/>
<polygon fill="#63b8ff" stroke="#63b8ff" points="571.09,-231.97 580.13,-226.45 569.62,-225.13 571.09,-231.97"/>
</a>
</g>
</g>
<!-- Node19 -->
<g id="Node000019" class="node">
<title>Node19</title>
<g id="a_Node000019"><a xlink:href="classfr_1_1softsf_1_1canscan_1_1_can_scan.html#a9f205dfdb266d5d7f8f8899b69742663" target="_top" xlink:title="Adds the generate button to the north panel.">
<polygon fill="white" stroke="#666666" points="733.75,-326 582,-326 582,-294 733.75,-294 733.75,-326"/>
<text text-anchor="start" x="590" y="-312.5" font-family="Helvetica,sans-Serif" font-size="10.00">fr.softsf.canscan.CanScan.add</text>
<text text-anchor="middle" x="657.88" y="-300.5" font-family="Helvetica,sans-Serif" font-size="10.00">NorthPanelGenerateButton</text>
</a>
</g>
</g>
<!-- Node12&#45;&gt;Node19 -->
<g id="edge23_Node000012_Node000019" class="edge">
<title>Node12&#45;&gt;Node19</title>
<g id="a_edge23_Node000012_Node000019"><a xlink:title=" ">
<path fill="none" stroke="#63b8ff" d="M512.1,-270.5C535.17,-276.79 561.68,-284.03 585.66,-290.57"/>
<polygon fill="#63b8ff" stroke="#63b8ff" points="584.45,-293.87 595.02,-293.12 586.29,-287.12 584.45,-293.87"/>
</a>
</g>
</g>
<!-- Node20 -->
<g id="Node000020" class="node">
<title>Node20</title>
<g id="a_Node000020"><a xlink:href="classfr_1_1softsf_1_1canscan_1_1_can_scan.html#aa469763b92dd7cbc6dfdb9aaa0116b33" target="_top" xlink:title="Adds mode selection controls (MECARD/Free) to the north panel.">
<polygon fill="white" stroke="#666666" points="733.75,-376 582,-376 582,-344 733.75,-344 733.75,-376"/>
<text text-anchor="start" x="590" y="-362.5" font-family="Helvetica,sans-Serif" font-size="10.00">fr.softsf.canscan.CanScan.add</text>
<text text-anchor="middle" x="657.88" y="-350.5" font-family="Helvetica,sans-Serif" font-size="10.00">NorthPanelModeSelection</text>
</a>
</g>
</g>
<!-- Node12&#45;&gt;Node20 -->
<g id="edge24_Node000012_Node000020" class="edge">
<title>Node12&#45;&gt;Node20</title>
<g id="a_edge24_Node000012_Node000020"><a xlink:title=" ">
<path fill="none" stroke="#63b8ff" d="M512.69,-270.47C521.04,-274.17 529.17,-278.63 536.25,-284 558.36,-300.76 549.7,-318.84 572.25,-335 573.83,-336.13 575.47,-337.22 577.15,-338.25"/>
<polygon fill="#63b8ff" stroke="#63b8ff" points="575.37,-341.27 585.83,-342.94 578.69,-335.11 575.37,-341.27"/>
</a>
</g>
</g>
<!-- Node26 -->
<g id="Node000026" class="node">
<title>Node26</title>
<g id="a_Node000026"><a xlink:href="classfr_1_1softsf_1_1canscan_1_1_can_scan.html#aeb5550da33925e95999aae23f525f7c5" target="_top" xlink:title="Creates default GridBagConstraints for consistent layout configuration.">
<polygon fill="white" stroke="#666666" points="736.75,-276 579,-276 579,-244 736.75,-244 736.75,-276"/>
<text text-anchor="start" x="587" y="-262.5" font-family="Helvetica,sans-Serif" font-size="10.00">fr.softsf.canscan.CanScan.north</text>
<text text-anchor="middle" x="657.88" y="-250.5" font-family="Helvetica,sans-Serif" font-size="10.00">PanelGridBagConstraints</text>
</a>
</g>
</g>
<!-- Node12&#45;&gt;Node26 -->
<g id="edge33_Node000012_Node000026" class="edge">
<title>Node12&#45;&gt;Node26</title>
<g id="a_edge33_Node000012_Node000026"><a xlink:title=" ">
<path fill="none" stroke="#63b8ff" d="M536.59,-256.48C546.69,-256.78 557.02,-257.08 567.18,-257.38"/>
<polygon fill="#63b8ff" stroke="#63b8ff" points="566.94,-260.87 577.04,-257.67 567.15,-253.88 566.94,-260.87"/>
</a>
</g>
</g>
<!-- Node14 -->
<g id="Node000014" class="node">
<title>Node14</title>
<g id="a_Node000014"><a xlink:href="classfr_1_1softsf_1_1canscan_1_1_can_scan.html#a38d65dd319daee1c3288690c17e43ca5" target="_top" xlink:title="Initializes the FREE mode input panel with a multiline text area for arbitrary text or URLs.">
<polygon fill="white" stroke="#666666" points="962.75,-170 789.25,-170 789.25,-150 962.75,-150 962.75,-170"/>
<text text-anchor="middle" x="876" y="-156.5" font-family="Helvetica,sans-Serif" font-size="10.00">fr.softsf.canscan.CanScan.freeCard</text>
</a>
</g>
</g>
<!-- Node13&#45;&gt;Node14 -->
<g id="edge14_Node000013_Node000014" class="edge">
<title>Node13&#45;&gt;Node14</title>
<g id="a_edge14_Node000013_Node000014"><a xlink:title=" ">
<path fill="none" stroke="#63b8ff" d="M734.16,-160C748.24,-160 763.13,-160 777.76,-160"/>
<polygon fill="#63b8ff" stroke="#63b8ff" points="777.37,-163.5 787.37,-160 777.37,-156.5 777.37,-163.5"/>
</a>
</g>
</g>
<!-- Node16 -->
<g id="Node000016" class="node">
<title>Node16</title>
<g id="a_Node000016"><a xlink:href="classfr_1_1softsf_1_1canscan_1_1_can_scan.html#aed7e3048974882318a6519d8d36e8ec0" target="_top" xlink:title="Initializes the MECARD input panel with labeled text fields for structured contact information.">
<polygon fill="white" stroke="#666666" points="960.12,-132 791.88,-132 791.88,-112 960.12,-112 960.12,-132"/>
<text text-anchor="middle" x="876" y="-118.5" font-family="Helvetica,sans-Serif" font-size="10.00">fr.softsf.canscan.CanScan.mecard</text>
</a>
</g>
</g>
<!-- Node13&#45;&gt;Node16 -->
<g id="edge16_Node000013_Node000016" class="edge">
<title>Node13&#45;&gt;Node16</title>
<g id="a_edge16_Node000013_Node000016"><a xlink:title=" ">
<path fill="none" stroke="#63b8ff" d="M734.16,-146.76C756.88,-142.77 781.73,-138.4 804.15,-134.46"/>
<polygon fill="#63b8ff" stroke="#63b8ff" points="804.55,-137.94 813.8,-132.76 803.34,-131.05 804.55,-137.94"/>
</a>
</g>
</g>
<!-- Node15 -->
<g id="Node000015" class="node">
<title>Node15</title>
<g id="a_Node000015"><a xlink:href="classfr_1_1softsf_1_1canscan_1_1_can_scan.html#a2732ecdc4490a717352975e68fce494c" target="_top" xlink:title="Adds a labeled component row to a panel using GridBagLayout.">
<polygon fill="white" stroke="#666666" points="1180.5,-189 1008.5,-189 1008.5,-169 1180.5,-169 1180.5,-189"/>
<text text-anchor="middle" x="1094.5" y="-175.5" font-family="Helvetica,sans-Serif" font-size="10.00">fr.softsf.canscan.CanScan.addRow</text>
</a>
</g>
</g>
<!-- Node14&#45;&gt;Node15 -->
<g id="edge15_Node000014_Node000015" class="edge">
<title>Node14&#45;&gt;Node15</title>
<g id="a_edge15_Node000014_Node000015"><a xlink:title=" ">
<path fill="none" stroke="#63b8ff" d="M963.19,-167.56C974.33,-168.54 985.8,-169.55 997.1,-170.54"/>
<polygon fill="#63b8ff" stroke="#63b8ff" points="996.54,-174 1006.81,-171.39 997.15,-167.03 996.54,-174"/>
</a>
</g>
</g>
<!-- Node16&#45;&gt;Node15 -->
<g id="edge17_Node000016_Node000015" class="edge">
<title>Node16&#45;&gt;Node15</title>
<g id="a_edge17_Node000016_Node000015"><a xlink:title=" ">
<path fill="none" stroke="#63b8ff" d="M934.8,-132.46C947.29,-135.01 960.38,-137.9 972.5,-141 999.45,-147.89 1029.27,-157.23 1052.56,-164.93"/>
<polygon fill="#63b8ff" stroke="#63b8ff" points="1051.4,-168.23 1061.99,-168.08 1053.61,-161.59 1051.4,-168.23"/>
</a>
</g>
</g>
<!-- Node17&#45;&gt;Node15 -->
<g id="edge19_Node000017_Node000015" class="edge">
<title>Node17&#45;&gt;Node15</title>
<g id="a_edge19_Node000017_Node000015"><a xlink:title=" ">
<path fill="none" stroke="#63b8ff" d="M734.08,-204.64C806.8,-199.45 917.31,-191.57 996.59,-185.91"/>
<polygon fill="#63b8ff" stroke="#63b8ff" points="996.81,-189.41 1006.54,-185.2 996.31,-182.42 996.81,-189.41"/>
</a>
</g>
</g>
<!-- Node18 -->
<g id="Node000018" class="node">
<title>Node18</title>
<g id="a_Node000018"><a xlink:href="classfr_1_1softsf_1_1canscan_1_1_can_scan.html#a17b0a72ab305f98f86591411b6a352f2" target="_top" xlink:title="Creates the color selection panel for QR code and background colors.">
<polygon fill="white" stroke="#666666" points="954.5,-334 797.5,-334 797.5,-302 954.5,-302 954.5,-334"/>
<text text-anchor="start" x="805.5" y="-320.5" font-family="Helvetica,sans-Serif" font-size="10.00">fr.softsf.canscan.CanScan.color</text>
<text text-anchor="middle" x="876" y="-308.5" font-family="Helvetica,sans-Serif" font-size="10.00">Panel</text>
</a>
</g>
</g>
<!-- Node17&#45;&gt;Node18 -->
<g id="edge20_Node000017_Node000018" class="edge">
<title>Node17&#45;&gt;Node18</title>
<g id="a_edge20_Node000017_Node000018"><a xlink:title=" ">
<path fill="none" stroke="#63b8ff" d="M729.65,-226.46C734.56,-228.92 739.24,-231.75 743.5,-235 767.63,-253.39 755.09,-274.99 779.5,-293 781.85,-294.74 784.32,-296.35 786.87,-297.86"/>
<polygon fill="#63b8ff" stroke="#63b8ff" points="785.23,-300.95 795.72,-302.42 788.44,-294.73 785.23,-300.95"/>
</a>
</g>
</g>
<!-- Node18&#45;&gt;Node6 -->
<g id="edge22_Node000018_Node000006" class="edge">
<title>Node18&#45;&gt;Node6</title>
<g id="a_edge22_Node000018_Node000006"><a xlink:title=" ">
<path fill="none" stroke="#63b8ff" d="M914.34,-334.42C932.04,-342.31 953.43,-351.98 972.5,-361 998.79,-373.43 1028,-387.9 1051.13,-399.51"/>
<polygon fill="#63b8ff" stroke="#63b8ff" points="1049.45,-402.58 1059.95,-403.95 1052.59,-396.33 1049.45,-402.58"/>
</a>
</g>
</g>
<!-- Node18&#45;&gt;Node18 -->
<g id="edge21_Node000018_Node000018" class="edge">
<title>Node18&#45;&gt;Node18</title>
<g id="a_edge21_Node000018_Node000018"><a xlink:title=" ">
<path fill="none" stroke="#63b8ff" d="M837.06,-334.44C829.79,-343.58 842.77,-352 876,-352 894.43,-352 906.63,-349.41 912.61,-345.54"/>
<polygon fill="#63b8ff" stroke="#63b8ff" points="916,-346.43 914.63,-335.92 909.15,-344.99 916,-346.43"/>
</a>
</g>
</g>
<!-- Node20&#45;&gt;Node15 -->
<g id="edge25_Node000020_Node000015" class="edge">
<title>Node20&#45;&gt;Node15</title>
<g id="a_edge25_Node000020_Node000015"><a xlink:title=" ">
<path fill="none" stroke="#63b8ff" d="M730.97,-343.71C735.46,-341.21 739.69,-338.32 743.5,-335 772.87,-309.36 749.45,-279.85 779.5,-255 847.45,-198.8 886.82,-229.83 972.5,-209 994.87,-203.56 1019.55,-197.46 1040.74,-192.19"/>
<polygon fill="#63b8ff" stroke="#63b8ff" points="1041.48,-195.61 1050.33,-189.8 1039.79,-188.82 1041.48,-195.61"/>
</a>
</g>
</g>
<!-- Node21 -->
<g id="Node000021" class="node">
<title>Node21</title>
<g id="a_Node000021"><a xlink:href="classfr_1_1softsf_1_1canscan_1_1_can_scan.html#a381579d3adc53b1122b38e7fda5c0235" target="_top" xlink:title="Configures the update button for version checking.">
<polygon fill="white" stroke="#666666" points="963.88,-470 788.12,-470 788.12,-438 963.88,-438 963.88,-470"/>
<text text-anchor="start" x="796.12" y="-456.5" font-family="Helvetica,sans-Serif" font-size="10.00">fr.softsf.canscan.CanScan.configure</text>
<text text-anchor="middle" x="876" y="-444.5" font-family="Helvetica,sans-Serif" font-size="10.00">UpdateButton</text>
</a>
</g>
</g>
<!-- Node20&#45;&gt;Node21 -->
<g id="edge26_Node000020_Node000021" class="edge">
<title>Node20&#45;&gt;Node21</title>
<g id="a_edge26_Node000020_Node000021"><a xlink:title=" ">
<path fill="none" stroke="#63b8ff" d="M682.86,-376.26C706.53,-391.68 744.21,-414.58 779.5,-429 783.83,-430.77 788.32,-432.44 792.89,-434.03"/>
<polygon fill="#63b8ff" stroke="#63b8ff" points="791.62,-437.29 802.21,-437.08 793.8,-430.64 791.62,-437.29"/>
</a>
</g>
</g>
<!-- Node22 -->
<g id="Node000022" class="node">
<title>Node22</title>
<g id="a_Node000022"><a xlink:href="classfr_1_1softsf_1_1canscan_1_1_can_scan.html#a5d8f82f2666e6632015dbc4a8ff2b58e" target="_top" xlink:title="Creates the radio button panel for mode selection.">
<polygon fill="white" stroke="#666666" points="954.5,-402 797.5,-402 797.5,-370 954.5,-370 954.5,-402"/>
<text text-anchor="start" x="805.5" y="-388.5" font-family="Helvetica,sans-Serif" font-size="10.00">fr.softsf.canscan.CanScan.radio</text>
<text text-anchor="middle" x="876" y="-376.5" font-family="Helvetica,sans-Serif" font-size="10.00">ButtonsPanel</text>
</a>
</g>
</g>
<!-- Node20&#45;&gt;Node22 -->
<g id="edge27_Node000020_Node000022" class="edge">
<title>Node20&#45;&gt;Node22</title>
<g id="a_edge27_Node000020_Node000022"><a xlink:title=" ">
<path fill="none" stroke="#63b8ff" d="M734.16,-369.06C750.85,-371.06 768.69,-373.21 785.87,-375.28"/>
<polygon fill="#63b8ff" stroke="#63b8ff" points="785.2,-378.72 795.55,-376.44 786.04,-371.77 785.2,-378.72"/>
</a>
</g>
</g>
<!-- Node23 -->
<g id="Node000023" class="node">
<title>Node23</title>
<g id="a_Node000023"><a xlink:href="classfr_1_1softsf_1_1canscan_1_1_can_scan.html#a428c742b098fa27d4c8984c1030c238d" target="_top" xlink:title="Switches the application between MECARD and FREE QR code modes.">
<polygon fill="white" stroke="#666666" points="970.25,-284 781.75,-284 781.75,-264 970.25,-264 970.25,-284"/>
<text text-anchor="middle" x="876" y="-270.5" font-family="Helvetica,sans-Serif" font-size="10.00">fr.softsf.canscan.CanScan.switchMode</text>
</a>
</g>
</g>
<!-- Node20&#45;&gt;Node23 -->
<g id="edge29_Node000020_Node000023" class="edge">
<title>Node20&#45;&gt;Node23</title>
<g id="a_edge29_Node000020_Node000023"><a xlink:title=" ">
<path fill="none" stroke="#63b8ff" d="M727.4,-343.56C733.03,-341.09 738.49,-338.25 743.5,-335 764.14,-321.64 758.28,-305.41 779.5,-293 782.14,-291.45 784.89,-290.03 787.72,-288.72"/>
<polygon fill="#63b8ff" stroke="#63b8ff" points="788.87,-292.03 796.83,-285.03 786.25,-285.54 788.87,-292.03"/>
</a>
</g>
</g>
<!-- Node22&#45;&gt;Node22 -->
<g id="edge28_Node000022_Node000022" class="edge">
<title>Node22&#45;&gt;Node22</title>
<g id="a_edge28_Node000022_Node000022"><a xlink:title=" ">
<path fill="none" stroke="#63b8ff" d="M837.06,-402.44C829.79,-411.58 842.77,-420 876,-420 894.43,-420 906.63,-417.41 912.61,-413.54"/>
<polygon fill="#63b8ff" stroke="#63b8ff" points="916,-414.43 914.63,-403.92 909.15,-412.99 916,-414.43"/>
</a>
</g>
</g>
<!-- Node23&#45;&gt;Node6 -->
<g id="edge30_Node000023_Node000006" class="edge">
<title>Node23&#45;&gt;Node6</title>
<g id="a_edge30_Node000023_Node000006"><a xlink:title=" ">
<path fill="none" stroke="#63b8ff" d="M952.61,-284.43C959.54,-286.75 966.29,-289.57 972.5,-293 984.65,-299.72 1040.46,-361.32 1071.86,-396.56"/>
<polygon fill="#63b8ff" stroke="#63b8ff" points="1069.02,-398.62 1078.28,-403.77 1074.25,-393.97 1069.02,-398.62"/>
</a>
</g>
</g>
<!-- Node24 -->
<g id="Node000024" class="node">
<title>Node24</title>
<g id="a_Node000024"><a xlink:href="enumfr_1_1softsf_1_1canscan_1_1model_1_1_mode.html#a16a898a11ca939056bd7b275f11ea54c" target="_top" xlink:title="Returns the mode label.">
<polygon fill="white" stroke="#666666" points="1155.38,-265 1033.62,-265 1033.62,-233 1155.38,-233 1155.38,-265"/>
<text text-anchor="start" x="1041.62" y="-251.5" font-family="Helvetica,sans-Serif" font-size="10.00">fr.softsf.canscan.model.</text>
<text text-anchor="middle" x="1094.5" y="-239.5" font-family="Helvetica,sans-Serif" font-size="10.00">Mode.text</text>
</a>
</g>
</g>
<!-- Node23&#45;&gt;Node24 -->
<g id="edge31_Node000023_Node000024" class="edge">
<title>Node23&#45;&gt;Node24</title>
<g id="a_edge31_Node000023_Node000024"><a xlink:title=" ">
<path fill="none" stroke="#63b8ff" d="M967.87,-263.51C986.01,-261.41 1004.8,-259.24 1022.16,-257.24"/>
<polygon fill="#63b8ff" stroke="#63b8ff" points="1022.31,-260.74 1031.84,-256.12 1021.5,-253.79 1022.31,-260.74"/>
</a>
</g>
</g>
<!-- Node25 -->
<g id="Node000025" class="node">
<title>Node25</title>
<g id="a_Node000025"><a xlink:href="classfr_1_1softsf_1_1canscan_1_1_can_scan.html#a11fd9295c4843e6e68f9d1e4a710b906" target="_top" xlink:title="Validates the current input fields and toggles the state of the generate button.">
<polygon fill="white" stroke="#666666" points="1177.12,-315 1011.88,-315 1011.88,-283 1177.12,-283 1177.12,-315"/>
<text text-anchor="start" x="1019.88" y="-301.5" font-family="Helvetica,sans-Serif" font-size="10.00">fr.softsf.canscan.CanScan.update</text>
<text text-anchor="middle" x="1094.5" y="-289.5" font-family="Helvetica,sans-Serif" font-size="10.00">GenerateButtonState</text>
</a>
</g>
</g>
<!-- Node23&#45;&gt;Node25 -->
<g id="edge32_Node000023_Node000025" class="edge">
<title>Node23&#45;&gt;Node25</title>
<g id="a_edge32_Node000023_Node000025"><a xlink:title=" ">
<path fill="none" stroke="#63b8ff" d="M967.87,-284.49C978.61,-285.73 989.58,-287 1000.35,-288.24"/>
<polygon fill="#63b8ff" stroke="#63b8ff" points="999.63,-291.68 1009.97,-289.35 1000.44,-284.73 999.63,-291.68"/>
</a>
</g>
</g>
<!-- Node29 -->
<g id="Node000029" class="node">
<title>Node29</title>
<g id="a_Node000029"><a xlink:href="classfr_1_1softsf_1_1canscan_1_1_can_scan.html#abbe4fb71ad979d6affed0b2c9629b832" target="_top" xlink:title="Updates the tooltip of the ratio slider to reflect its current value as a percentage.">
<polygon fill="white" stroke="#666666" points="732.62,-126 583.12,-126 583.12,-94 732.62,-94 732.62,-126"/>
<text text-anchor="start" x="591.12" y="-112.5" font-family="Helvetica,sans-Serif" font-size="10.00">fr.softsf.canscan.CanScan.set</text>
<text text-anchor="middle" x="657.88" y="-100.5" font-family="Helvetica,sans-Serif" font-size="10.00">RatioSliderTooltipValue</text>
</a>
</g>
</g>
<!-- Node28&#45;&gt;Node29 -->
<g id="edge36_Node000028_Node000029" class="edge">
<title>Node28&#45;&gt;Node29</title>
<g id="a_edge36_Node000028_Node000029"><a xlink:title=" ">
<path fill="none" stroke="#63b8ff" d="M528.34,-137.55C542.5,-134.52 557.36,-131.33 571.74,-128.25"/>
<polygon fill="#63b8ff" stroke="#63b8ff" points="572.11,-131.75 581.15,-126.23 570.64,-124.91 572.11,-131.75"/>
</a>
</g>
</g>
<!-- Node31 -->
<g id="Node000031" class="node">
<title>Node31</title>
<g id="a_Node000031"><a xlink:href="classfr_1_1softsf_1_1canscan_1_1_can_scan.html#aefe4d08d96fdc7b2097daf4033bbbb9c" target="_top" xlink:title="Loads application metadata from the version.properties file.">
<polygon fill="white" stroke="#666666" points="732.62,-76 583.12,-76 583.12,-44 732.62,-44 732.62,-76"/>
<text text-anchor="start" x="591.12" y="-62.5" font-family="Helvetica,sans-Serif" font-size="10.00">fr.softsf.canscan.CanScan.get</text>
<text text-anchor="middle" x="657.88" y="-50.5" font-family="Helvetica,sans-Serif" font-size="10.00">ManifestKeys</text>
</a>
</g>
</g>
<!-- Node30&#45;&gt;Node31 -->
<g id="edge38_Node000030_Node000031" class="edge">
<title>Node30&#45;&gt;Node31</title>
<g id="a_edge38_Node000030_Node000031"><a xlink:title=" ">
<path fill="none" stroke="#63b8ff" d="M528.34,-87.55C542.5,-84.52 557.36,-81.33 571.74,-78.25"/>
<polygon fill="#63b8ff" stroke="#63b8ff" points="572.11,-81.75 581.15,-76.23 570.64,-74.91 572.11,-81.75"/>
</a>
</g>
</g>
<!-- Node31&#45;&gt;Node2 -->
<g id="edge39_Node000031_Node000002" class="edge">
<title>Node31&#45;&gt;Node2</title>
<g id="a_edge39_Node000031_Node000002"><a xlink:title=" ">
<path fill="none" stroke="#63b8ff" d="M582.77,-51.09C521.68,-46.9 434.15,-48.3 365,-79 328.96,-95 298.13,-129.41 279.83,-153.37"/>
<polygon fill="#63b8ff" stroke="#63b8ff" points="277.04,-151.27 273.9,-161.39 282.66,-155.43 277.04,-151.27"/>
</a>
</g>
</g>
</g>
</svg>
