<?xml version="1.0" encoding="UTF-8" standalone="no"?>
<!DOCTYPE svg PUBLIC "-//W3C//DTD SVG 1.1//EN"
 "http://www.w3.org/Graphics/SVG/1.1/DTD/svg11.dtd">
<!-- Generated by graphviz version 12.2.1 (20241206.2353)
 -->
<!-- Title: fr.softsf.canscan.NativeImageConfigSimulator.selectABeginTime Pages: 1 -->
<svg width="610pt" height="96pt"
 viewBox="0.00 0.00 609.50 96.00" xmlns="http://www.w3.org/2000/svg" xmlns:xlink="http://www.w3.org/1999/xlink">
<g id="graph0" class="graph" transform="scale(1 1) rotate(0) translate(4 92)">
<title>fr.softsf.canscan.NativeImageConfigSimulator.selectABeginTime</title>
<!-- Node1 -->
<g id="Node000001" class="node">
<title>Node1</title>
<g id="a_Node000001"><a xlink:title="Simulates activating the meeting mode and selecting a start time through the TimePicker.">
<polygon fill="#999999" stroke="#666666" points="195.25,-63 0,-63 0,-31 195.25,-31 195.25,-63"/>
<text text-anchor="start" x="8" y="-49.5" font-family="Helvetica,sans-Serif" font-size="10.00">fr.softsf.canscan.Native</text>
<text text-anchor="middle" x="97.62" y="-37.5" font-family="Helvetica,sans-Serif" font-size="10.00">ImageConfigSimulator.selectABeginTime</text>
</a>
</g>
</g>
<!-- Node2 -->
<g id="Node000002" class="node">
<title>Node2</title>
<g id="a_Node000002"><a xlink:href="classfr_1_1softsf_1_1canscan_1_1_native_image_config_simulator.html#aaadd03094f00bbe2258c6e9742be224d" target="_top" xlink:title="Compares two strings and prints the test result with a label.">
<polygon fill="white" stroke="#666666" points="408.5,-88 235.75,-88 235.75,-56 408.5,-56 408.5,-88"/>
<text text-anchor="start" x="243.75" y="-74.5" font-family="Helvetica,sans-Serif" font-size="10.00">fr.softsf.canscan.Native</text>
<text text-anchor="middle" x="322.12" y="-62.5" font-family="Helvetica,sans-Serif" font-size="10.00">ImageConfigSimulator.assertEquals</text>
</a>
</g>
</g>
<!-- Node1&#45;&gt;Node2 -->
<g id="edge1_Node000001_Node000002" class="edge">
<title>Node1&#45;&gt;Node2</title>
<g id="a_edge1_Node000001_Node000002"><a xlink:title=" ">
<path fill="none" stroke="#63b8ff" d="M195.57,-57.89C204.98,-58.95 214.52,-60.02 223.93,-61.08"/>
<polygon fill="#63b8ff" stroke="#63b8ff" points="223.49,-64.55 233.82,-62.19 224.28,-57.6 223.49,-64.55"/>
</a>
</g>
</g>
<!-- Node3 -->
<g id="Node000003" class="node">
<title>Node3</title>
<g id="a_Node000003"><a xlink:href="classfr_1_1softsf_1_1canscan_1_1_native_image_config_simulator.html#aaf2a12382a791fc827de25518f612449" target="_top" xlink:title="Recursively searches for the visible JList across all open windows.">
<polygon fill="white" stroke="#666666" points="413,-38 231.25,-38 231.25,-6 413,-6 413,-38"/>
<text text-anchor="start" x="239.25" y="-24.5" font-family="Helvetica,sans-Serif" font-size="10.00">fr.softsf.canscan.Native</text>
<text text-anchor="middle" x="322.12" y="-12.5" font-family="Helvetica,sans-Serif" font-size="10.00">ImageConfigSimulator.findVisibleJList</text>
</a>
</g>
</g>
<!-- Node1&#45;&gt;Node3 -->
<g id="edge2_Node000001_Node000003" class="edge">
<title>Node1&#45;&gt;Node3</title>
<g id="a_edge2_Node000001_Node000003"><a xlink:title=" ">
<path fill="none" stroke="#63b8ff" d="M195.57,-36.11C203.53,-35.21 211.59,-34.31 219.58,-33.41"/>
<polygon fill="#63b8ff" stroke="#63b8ff" points="219.77,-36.91 229.31,-32.32 218.98,-29.95 219.77,-36.91"/>
</a>
</g>
</g>
<!-- Node4 -->
<g id="Node000004" class="node">
<title>Node4</title>
<g id="a_Node000004"><a xlink:href="classfr_1_1softsf_1_1canscan_1_1_native_image_config_simulator.html#a00f369f6ee9b0eea8bacef585d45b4c0" target="_top" xlink:title="Recursively searches for a JList within a given container.">
<polygon fill="white" stroke="#666666" points="601.5,-44 449,-44 449,0 601.5,0 601.5,-44"/>
<text text-anchor="start" x="457" y="-30.5" font-family="Helvetica,sans-Serif" font-size="10.00">fr.softsf.canscan.Native</text>
<text text-anchor="start" x="457" y="-18.5" font-family="Helvetica,sans-Serif" font-size="10.00">ImageConfigSimulator.findJList</text>
<text text-anchor="middle" x="525.25" y="-6.5" font-family="Helvetica,sans-Serif" font-size="10.00">InContainer</text>
</a>
</g>
</g>
<!-- Node3&#45;&gt;Node4 -->
<g id="edge3_Node000003_Node000004" class="edge">
<title>Node3&#45;&gt;Node4</title>
<g id="a_edge3_Node000003_Node000004"><a xlink:title=" ">
<path fill="none" stroke="#63b8ff" d="M413.39,-22C421.32,-22 429.34,-22 437.24,-22"/>
<polygon fill="#63b8ff" stroke="#63b8ff" points="437.19,-25.5 447.19,-22 437.19,-18.5 437.19,-25.5"/>
</a>
</g>
</g>
<!-- Node4&#45;&gt;Node4 -->
<g id="edge4_Node000004_Node000004" class="edge">
<title>Node4&#45;&gt;Node4</title>
<g id="a_edge4_Node000004_Node000004"><a xlink:title=" ">
<path fill="none" stroke="#63b8ff" d="M487.62,-44.21C484.54,-53.8 497.08,-62 525.25,-62 541.97,-62 553.19,-59.11 558.9,-54.75"/>
<polygon fill="#63b8ff" stroke="#63b8ff" points="562.09,-56.22 562.35,-45.63 555.54,-53.75 562.09,-56.22"/>
</a>
</g>
</g>
</g>
</svg>
