<?xml version="1.0" encoding="UTF-8" standalone="no"?>
<!DOCTYPE svg PUBLIC "-//W3C//DTD SVG 1.1//EN"
 "http://www.w3.org/Graphics/SVG/1.1/DTD/svg11.dtd">
<!-- Generated by graphviz version 12.2.1 (20241206.2353)
 -->
<!-- Title: fr.softsf.canscan.CanScan.initializeTitle Pages: 1 -->
<!--zoomable 497 -->

<svg id="main" version="1.1" xmlns="http://www.w3.org/2000/svg" xmlns:xlink="http://www.w3.org/1999/xlink" xml:space="preserve" onload="init(evt)">

<style type="text/css"><![CDATA[
.node, .edge {opacity: 0.7;}
.node.selected, .edge.selected {opacity: 1;}
.edge:hover path { stroke: red; }
.edge:hover polygon { stroke: red; fill: red; }
]]></style>

<defs>
  <circle id="rim" cx="0" cy="0" r="7"/>
  <circle id="rim2" cx="0" cy="0" r="3.5"/>
  <g id="zoomPlus">
    <use xlink:href="#rim" fill="#404040"><set attributeName="fill" to="#808080" begin="zoomplus.mouseover" end="zoomplus.mouseout"/></use>
    <path d="M-4,0h8M0,-4v8" fill="none" stroke="white" stroke-width="1.5" pointer-events="none"/>
  </g>
  <g id="zoomMin">
    <use xlink:href="#rim" fill="#404040"><set attributeName="fill" to="#808080" begin="zoomminus.mouseover" end="zoomminus.mouseout"/></use>
    <path d="M-4,0h8" fill="none" stroke="white" stroke-width="1.5" pointer-events="none"/>
  </g>
  <g id="arrowUp" transform="translate(30 24)">
    <use xlink:href="#rim"/>
    <path pointer-events="none" fill="none" stroke="white" stroke-width="1.5" d="M0,-3.0v7 M-2.5,-0.5L0,-3.0L2.5,-0.5"/>
  </g>
  <g id="arrowRight" transform="rotate(90) translate(36 -43)">
    <use xlink:href="#rim"/>
    <path pointer-events="none" fill="none" stroke="white" stroke-width="1.5" d="M0,-3.0v7 M-2.5,-0.5L0,-3.0L2.5,-0.5"/>
  </g>
  <g id="arrowDown" transform="rotate(180) translate(-30 -48)">
    <use xlink:href="#rim"/>
    <path pointer-events="none" fill="none" stroke="white" stroke-width="1.5" d="M0,-3.0v7 M-2.5,-0.5L0,-3.0L2.5,-0.5"/>
  </g>
  <g id="arrowLeft" transform="rotate(270) translate(-36 17)">
    <use xlink:href="#rim"/>
    <path pointer-events="none" fill="none" stroke="white" stroke-width="1.5" d="M0,-3.0v7 M-2.5,-0.5L0,-3.0L2.5,-0.5"/>
  </g>
  <g id="resetDef">
    <use xlink:href="#rim2" fill="#404040"><set attributeName="fill" to="#808080" begin="reset.mouseover" end="reset.mouseout"/></use>
  </g>
</defs>
<script type="application/ecmascript">
var viewWidth = 1599;
var viewHeight = 497;
var sectionId = 'dynsection-16';
</script>
<script type="application/ecmascript" xlink:href="svg.min.js"/>
<svg id="graph" class="graph">
<g id="viewport">
<title>fr.softsf.canscan.CanScan.initializeTitle</title>
<!-- Node1 -->
<g id="Node000001" class="node">
<title>Node1</title>
<g id="a_Node000001"><a xlink:title="Constructs the application window title using metadata from the version properties.">
<polygon fill="#999999" stroke="#666666" points="171.25,-157 0,-157 0,-125 171.25,-125 171.25,-157"/>
<text text-anchor="start" x="8" y="-143.5" font-family="Helvetica,sans-Serif" font-size="10.00">fr.softsf.canscan.CanScan.initialize</text>
<text text-anchor="middle" x="85.62" y="-131.5" font-family="Helvetica,sans-Serif" font-size="10.00">Title</text>
</a>
</g>
</g>
<!-- Node2 -->
<g id="Node000002" class="node">
<title>Node2</title>
<g id="a_Node000002"><a xlink:href="classfr_1_1softsf_1_1canscan_1_1_can_scan.html#aefe4d08d96fdc7b2097daf4033bbbb9c" target="_top" xlink:title="Loads application metadata from the version.properties file.">
<polygon fill="white" stroke="#666666" points="356.75,-179 207.25,-179 207.25,-147 356.75,-147 356.75,-179"/>
<text text-anchor="start" x="215.25" y="-165.5" font-family="Helvetica,sans-Serif" font-size="10.00">fr.softsf.canscan.CanScan.get</text>
<text text-anchor="middle" x="282" y="-153.5" font-family="Helvetica,sans-Serif" font-size="10.00">ManifestKeys</text>
</a>
</g>
</g>
<!-- Node1&#45;&gt;Node2 -->
<g id="edge1_Node000001_Node000002" class="edge">
<title>Node1&#45;&gt;Node2</title>
<g id="a_edge1_Node000001_Node000002"><a xlink:title=" ">
<path fill="none" stroke="#63b8ff" d="M171.6,-150.62C179.58,-151.52 187.68,-152.44 195.67,-153.34"/>
<polygon fill="#63b8ff" stroke="#63b8ff" points="195.03,-156.79 205.36,-154.44 195.82,-149.84 195.03,-156.79"/>
</a>
</g>
</g>
<!-- Node3 -->
<g id="Node000003" class="node">
<title>Node3</title>
<g id="a_Node000003"><a xlink:href="classfr_1_1softsf_1_1canscan_1_1_can_scan.html#a102bcbc6cda608b642e870ba3fde6344" target="_top" xlink:title="Initializes the CanScan GUI.">
<polygon fill="white" stroke="#666666" points="528.75,-157 392.75,-157 392.75,-125 528.75,-125 528.75,-157"/>
<text text-anchor="start" x="400.75" y="-143.5" font-family="Helvetica,sans-Serif" font-size="10.00">fr.softsf.canscan.CanScan.</text>
<text text-anchor="middle" x="460.75" y="-131.5" font-family="Helvetica,sans-Serif" font-size="10.00">CanScan</text>
</a>
</g>
</g>
<!-- Node2&#45;&gt;Node3 -->
<g id="edge2_Node000002_Node000003" class="edge">
<title>Node2&#45;&gt;Node3</title>
<g id="a_edge2_Node000002_Node000003"><a xlink:title=" ">
<path fill="none" stroke="#63b8ff" d="M357.19,-153.77C365.15,-152.77 373.27,-151.76 381.28,-150.77"/>
<polygon fill="#63b8ff" stroke="#63b8ff" points="381.51,-154.27 391,-149.56 380.65,-147.32 381.51,-154.27"/>
</a>
</g>
</g>
<!-- Node3&#45;&gt;Node1 -->
<g id="edge38_Node000003_Node000001" class="edge">
<title>Node3&#45;&gt;Node1</title>
<g id="a_edge38_Node000003_Node000001"><a xlink:title=" ">
<path fill="none" stroke="#63b8ff" d="M392.44,-138.76C380.55,-138.44 368.29,-138.17 356.75,-138 290.31,-137.03 273.69,-137.17 207.25,-138 199.33,-138.1 191.12,-138.23 182.87,-138.39"/>
<polygon fill="#63b8ff" stroke="#63b8ff" points="183.07,-134.89 173.15,-138.59 183.22,-141.89 183.07,-134.89"/>
</a>
</g>
</g>
<!-- Node4 -->
<g id="Node000004" class="node">
<title>Node4</title>
<g id="a_Node000004"><a xlink:href="classfr_1_1softsf_1_1canscan_1_1_can_scan.html#a070115929fdc69b249d21866a00a47cc" target="_top" xlink:title="Assigns component names for identification.">
<polygon fill="white" stroke="#666666" points="736,-270 564.75,-270 564.75,-238 736,-238 736,-270"/>
<text text-anchor="start" x="572.75" y="-256.5" font-family="Helvetica,sans-Serif" font-size="10.00">fr.softsf.canscan.CanScan.initialize</text>
<text text-anchor="middle" x="650.38" y="-244.5" font-family="Helvetica,sans-Serif" font-size="10.00">ComponentNames</text>
</a>
</g>
</g>
<!-- Node3&#45;&gt;Node4 -->
<g id="edge3_Node000003_Node000004" class="edge">
<title>Node3&#45;&gt;Node4</title>
<g id="a_edge3_Node000003_Node000004"><a xlink:title=" ">
<path fill="none" stroke="#63b8ff" d="M478.3,-157.34C497.64,-175.67 531.27,-205.29 564.75,-224 570.82,-227.39 577.35,-230.51 583.99,-233.36"/>
<polygon fill="#63b8ff" stroke="#63b8ff" points="582.48,-236.52 593.06,-237.02 585.1,-230.03 582.48,-236.52"/>
</a>
</g>
</g>
<!-- Node5 -->
<g id="Node000005" class="node">
<title>Node5</title>
<g id="a_Node000005"><a xlink:href="classfr_1_1softsf_1_1canscan_1_1_can_scan.html#a14263ca931024d56cd9bed4af4b74c25" target="_top" xlink:title="Creates the main panel containing all GUI sections.">
<polygon fill="white" stroke="#666666" points="943.25,-432 772,-432 772,-400 943.25,-400 943.25,-432"/>
<text text-anchor="start" x="780" y="-418.5" font-family="Helvetica,sans-Serif" font-size="10.00">fr.softsf.canscan.CanScan.initialize</text>
<text text-anchor="middle" x="857.62" y="-406.5" font-family="Helvetica,sans-Serif" font-size="10.00">MainPanel</text>
</a>
</g>
</g>
<!-- Node3&#45;&gt;Node5 -->
<g id="edge4_Node000003_Node000005" class="edge">
<title>Node3&#45;&gt;Node5</title>
<g id="a_edge4_Node000003_Node000005"><a xlink:title=" ">
<path fill="none" stroke="#63b8ff" d="M490.72,-157.33C510.94,-168.15 538.85,-181.98 564.75,-191 638.37,-216.64 673.99,-181.75 736,-229 763.2,-249.73 754.05,-267.89 772,-297 792.58,-330.38 819.19,-366.87 837.02,-390.52"/>
<polygon fill="#63b8ff" stroke="#63b8ff" points="834.11,-392.47 842.94,-398.32 839.69,-388.24 834.11,-392.47"/>
</a>
</g>
</g>
<!-- Node13 -->
<g id="Node000013" class="node">
<title>Node13</title>
<g id="a_Node000013"><a xlink:href="classfr_1_1softsf_1_1canscan_1_1_can_scan.html#afb8d451dc5d6d9c7b6700e4b688c98a3" target="_top" xlink:title="Builds the north panel containing mode selection, card panels, common fields, and the generate button...">
<polygon fill="white" stroke="#666666" points="736,-182 564.75,-182 564.75,-150 736,-150 736,-182"/>
<text text-anchor="start" x="572.75" y="-168.5" font-family="Helvetica,sans-Serif" font-size="10.00">fr.softsf.canscan.CanScan.initialize</text>
<text text-anchor="middle" x="650.38" y="-156.5" font-family="Helvetica,sans-Serif" font-size="10.00">NorthPanel</text>
</a>
</g>
</g>
<!-- Node3&#45;&gt;Node13 -->
<g id="edge13_Node000003_Node000013" class="edge">
<title>Node3&#45;&gt;Node13</title>
<g id="a_edge13_Node000003_Node000013"><a xlink:title=" ">
<path fill="none" stroke="#63b8ff" d="M529.22,-149.99C537.01,-151.03 545.05,-152.1 553.12,-153.17"/>
<polygon fill="#63b8ff" stroke="#63b8ff" points="552.65,-156.64 563.02,-154.49 553.57,-149.7 552.65,-156.64"/>
</a>
</g>
</g>
<!-- Node28 -->
<g id="Node000028" class="node">
<title>Node28</title>
<g id="a_Node000028"><a xlink:href="classfr_1_1softsf_1_1canscan_1_1_can_scan.html#a4928478365bc812571ac037662cc5f6b" target="_top" xlink:title="Wraps the main panel in a scrollable container.">
<polygon fill="white" stroke="#666666" points="736,-132 564.75,-132 564.75,-100 736,-100 736,-132"/>
<text text-anchor="start" x="572.75" y="-118.5" font-family="Helvetica,sans-Serif" font-size="10.00">fr.softsf.canscan.CanScan.initialize</text>
<text text-anchor="middle" x="650.38" y="-106.5" font-family="Helvetica,sans-Serif" font-size="10.00">ScrollPane</text>
</a>
</g>
</g>
<!-- Node3&#45;&gt;Node28 -->
<g id="edge35_Node000003_Node000028" class="edge">
<title>Node3&#45;&gt;Node28</title>
<g id="a_edge35_Node000003_Node000028"><a xlink:title=" ">
<path fill="none" stroke="#63b8ff" d="M529.22,-132.01C537.01,-130.97 545.05,-129.9 553.12,-128.83"/>
<polygon fill="#63b8ff" stroke="#63b8ff" points="553.57,-132.3 563.02,-127.51 552.65,-125.36 553.57,-132.3"/>
</a>
</g>
</g>
<!-- Node29 -->
<g id="Node000029" class="node">
<title>Node29</title>
<g id="a_Node000029"><a xlink:href="classfr_1_1softsf_1_1canscan_1_1_can_scan.html#a358629f85831dc6cd4978c8854d88561" target="_top" xlink:title="Configures sliders for logo margin and ratio.">
<polygon fill="white" stroke="#666666" points="736,-82 564.75,-82 564.75,-50 736,-50 736,-82"/>
<text text-anchor="start" x="572.75" y="-68.5" font-family="Helvetica,sans-Serif" font-size="10.00">fr.softsf.canscan.CanScan.initialize</text>
<text text-anchor="middle" x="650.38" y="-56.5" font-family="Helvetica,sans-Serif" font-size="10.00">Sliders</text>
</a>
</g>
</g>
<!-- Node3&#45;&gt;Node29 -->
<g id="edge36_Node000003_Node000029" class="edge">
<title>Node3&#45;&gt;Node29</title>
<g id="a_edge36_Node000003_Node000029"><a xlink:title=" ">
<path fill="none" stroke="#63b8ff" d="M492.26,-124.55C512.45,-114.07 539.73,-100.69 564.75,-91 569.17,-89.29 573.76,-87.62 578.41,-86.02"/>
<polygon fill="#63b8ff" stroke="#63b8ff" points="579.49,-89.35 587.88,-82.88 577.29,-82.71 579.49,-89.35"/>
</a>
</g>
</g>
<!-- Node31 -->
<g id="Node000031" class="node">
<title>Node31</title>
<g id="a_Node000031"><a xlink:href="classfr_1_1softsf_1_1canscan_1_1_can_scan.html#a0a52159db640660477196e337ec62a9b" target="_top" xlink:title="Finalizes window layout and appearance.">
<polygon fill="white" stroke="#666666" points="736,-32 564.75,-32 564.75,0 736,0 736,-32"/>
<text text-anchor="start" x="572.75" y="-18.5" font-family="Helvetica,sans-Serif" font-size="10.00">fr.softsf.canscan.CanScan.initialize</text>
<text text-anchor="middle" x="650.38" y="-6.5" font-family="Helvetica,sans-Serif" font-size="10.00">Window</text>
</a>
</g>
</g>
<!-- Node3&#45;&gt;Node31 -->
<g id="edge39_Node000003_Node000031" class="edge">
<title>Node3&#45;&gt;Node31</title>
<g id="a_edge39_Node000003_Node000031"><a xlink:title=" ">
<path fill="none" stroke="#63b8ff" d="M474.24,-124.67C492.01,-102.54 526.66,-63.26 564.75,-41 567.09,-39.63 569.52,-38.33 572,-37.1"/>
<polygon fill="#63b8ff" stroke="#63b8ff" points="573.41,-40.3 581.1,-33.02 570.54,-33.91 573.41,-40.3"/>
</a>
</g>
</g>
<!-- Node6 -->
<g id="Node000006" class="node">
<title>Node6</title>
<g id="a_Node000006"><a xlink:href="classfr_1_1softsf_1_1canscan_1_1_can_scan.html#ad470e3c0750cf142dc611b1aeeda3a97" target="_top" xlink:title="Sets up automatic QR code preview updates for all input fields and controls.">
<polygon fill="white" stroke="#666666" points="1172.25,-476 979.25,-476 979.25,-444 1172.25,-444 1172.25,-476"/>
<text text-anchor="start" x="987.25" y="-462.5" font-family="Helvetica,sans-Serif" font-size="10.00">fr.softsf.canscan.CanScan.automatic</text>
<text text-anchor="middle" x="1075.75" y="-450.5" font-family="Helvetica,sans-Serif" font-size="10.00">QRCodeRenderingForFieldsAndControls</text>
</a>
</g>
</g>
<!-- Node5&#45;&gt;Node6 -->
<g id="edge5_Node000005_Node000006" class="edge">
<title>Node5&#45;&gt;Node6</title>
<g id="a_edge5_Node000005_Node000006"><a xlink:title=" ">
<path fill="none" stroke="#63b8ff" d="M939.41,-432.45C953.55,-435.33 968.36,-438.34 982.77,-441.27"/>
<polygon fill="#63b8ff" stroke="#63b8ff" points="981.72,-444.63 992.22,-443.2 983.12,-437.77 981.72,-444.63"/>
</a>
</g>
</g>
<!-- Node7 -->
<g id="Node000007" class="node">
<title>Node7</title>
<g id="a_Node000007"><a xlink:href="classfr_1_1softsf_1_1canscan_1_1_can_scan.html#a2d26dcd1ae708eae46dba8952351aa1a" target="_top" xlink:title="Builds and returns a QrInput object containing all current user inputs and settings.">
<polygon fill="white" stroke="#666666" points="1369,-414 1219.5,-414 1219.5,-382 1369,-382 1369,-414"/>
<text text-anchor="start" x="1227.5" y="-400.5" font-family="Helvetica,sans-Serif" font-size="10.00">fr.softsf.canscan.CanScan.get</text>
<text text-anchor="middle" x="1294.25" y="-388.5" font-family="Helvetica,sans-Serif" font-size="10.00">QrInput</text>
</a>
</g>
</g>
<!-- Node5&#45;&gt;Node7 -->
<g id="edge12_Node000005_Node000007" class="edge">
<title>Node5&#45;&gt;Node7</title>
<g id="a_edge12_Node000005_Node000007"><a xlink:title=" ">
<path fill="none" stroke="#63b8ff" d="M943.72,-412.48C1019.99,-409.32 1131.33,-404.71 1207.74,-401.54"/>
<polygon fill="#63b8ff" stroke="#63b8ff" points="1207.86,-405.04 1217.71,-401.13 1207.57,-398.05 1207.86,-405.04"/>
</a>
</g>
</g>
<!-- Node6&#45;&gt;Node7 -->
<g id="edge6_Node000006_Node000007" class="edge">
<title>Node6&#45;&gt;Node7</title>
<g id="a_edge6_Node000006_Node000007"><a xlink:title=" ">
<path fill="none" stroke="#63b8ff" d="M1134.2,-443.55C1162.08,-435.56 1195.78,-425.91 1224.96,-417.56"/>
<polygon fill="#63b8ff" stroke="#63b8ff" points="1225.8,-420.96 1234.45,-414.84 1223.88,-414.23 1225.8,-420.96"/>
</a>
</g>
</g>
<!-- Node12 -->
<g id="Node000012" class="node">
<title>Node12</title>
<g id="a_Node000012"><a xlink:href="classfr_1_1softsf_1_1canscan_1_1_can_scan.html#a9856545d05ef553c8dfddd95a850a360" target="_top" xlink:title="Creates a minimal DocumentListener that executes the given action on any document change.">
<polygon fill="white" stroke="#666666" points="1376.5,-476 1212,-476 1212,-444 1376.5,-444 1376.5,-476"/>
<text text-anchor="start" x="1220" y="-462.5" font-family="Helvetica,sans-Serif" font-size="10.00">fr.softsf.canscan.CanScan.simple</text>
<text text-anchor="middle" x="1294.25" y="-450.5" font-family="Helvetica,sans-Serif" font-size="10.00">DocumentListener</text>
</a>
</g>
</g>
<!-- Node6&#45;&gt;Node12 -->
<g id="edge11_Node000006_Node000012" class="edge">
<title>Node6&#45;&gt;Node12</title>
<g id="a_edge11_Node000006_Node000012"><a xlink:title=" ">
<path fill="none" stroke="#63b8ff" d="M1172.66,-460C1181.8,-460 1191.07,-460 1200.18,-460"/>
<polygon fill="#63b8ff" stroke="#63b8ff" points="1200.12,-463.5 1210.12,-460 1200.12,-456.5 1200.12,-463.5"/>
</a>
</g>
</g>
<!-- Node8 -->
<g id="Node000008" class="node">
<title>Node8</title>
<g id="a_Node000008"><a xlink:href="classfr_1_1softsf_1_1canscan_1_1_can_scan.html#a22606ca129489c778fbbe17cb8b70697" target="_top" xlink:title="Calculates the available height for QR code rendering.">
<polygon fill="white" stroke="#666666" points="1591.25,-489 1416.25,-489 1416.25,-457 1591.25,-457 1591.25,-489"/>
<text text-anchor="start" x="1424.25" y="-475.5" font-family="Helvetica,sans-Serif" font-size="10.00">fr.softsf.canscan.CanScan.calculate</text>
<text text-anchor="middle" x="1503.75" y="-463.5" font-family="Helvetica,sans-Serif" font-size="10.00">AvailableQrHeight</text>
</a>
</g>
</g>
<!-- Node7&#45;&gt;Node8 -->
<g id="edge7_Node000007_Node000008" class="edge">
<title>Node7&#45;&gt;Node8</title>
<g id="a_edge7_Node000007_Node000008"><a xlink:title=" ">
<path fill="none" stroke="#63b8ff" d="M1331.91,-414.39C1355.7,-424.71 1387.5,-437.94 1416.25,-448 1421.24,-449.75 1426.43,-451.47 1431.67,-453.14"/>
<polygon fill="#63b8ff" stroke="#63b8ff" points="1430.42,-456.42 1441.01,-456.05 1432.5,-449.74 1430.42,-456.42"/>
</a>
</g>
</g>
<!-- Node9 -->
<g id="Node000009" class="node">
<title>Node9</title>
<g id="a_Node000009"><a xlink:href="classfr_1_1softsf_1_1canscan_1_1_can_scan.html#a4e67b1b5c764e72414a5c0f387810f5c" target="_top" xlink:title="Validates and returns the current QR code margin from the margin slider.">
<polygon fill="white" stroke="#666666" points="1588.62,-439 1418.88,-439 1418.88,-407 1588.62,-407 1588.62,-439"/>
<text text-anchor="start" x="1426.88" y="-425.5" font-family="Helvetica,sans-Serif" font-size="10.00">fr.softsf.canscan.CanScan.validate</text>
<text text-anchor="middle" x="1503.75" y="-413.5" font-family="Helvetica,sans-Serif" font-size="10.00">AndGetMargin</text>
</a>
</g>
</g>
<!-- Node7&#45;&gt;Node9 -->
<g id="edge8_Node000007_Node000009" class="edge">
<title>Node7&#45;&gt;Node9</title>
<g id="a_edge8_Node000007_Node000009"><a xlink:title=" ">
<path fill="none" stroke="#63b8ff" d="M1369.28,-406.92C1381.62,-408.41 1394.56,-409.97 1407.34,-411.5"/>
<polygon fill="#63b8ff" stroke="#63b8ff" points="1406.65,-414.95 1417,-412.67 1407.49,-408 1406.65,-414.95"/>
</a>
</g>
</g>
<!-- Node10 -->
<g id="Node000010" class="node">
<title>Node10</title>
<g id="a_Node000010"><a xlink:href="classfr_1_1softsf_1_1canscan_1_1_can_scan.html#a9e8188875168199cde065113ae2a393d" target="_top" xlink:title="Validates and returns the current image&#45;to&#45;QR ratio from the ratio slider.">
<polygon fill="white" stroke="#666666" points="1588.62,-389 1418.88,-389 1418.88,-357 1588.62,-357 1588.62,-389"/>
<text text-anchor="start" x="1426.88" y="-375.5" font-family="Helvetica,sans-Serif" font-size="10.00">fr.softsf.canscan.CanScan.validate</text>
<text text-anchor="middle" x="1503.75" y="-363.5" font-family="Helvetica,sans-Serif" font-size="10.00">AndGetRatio</text>
</a>
</g>
</g>
<!-- Node7&#45;&gt;Node10 -->
<g id="edge9_Node000007_Node000010" class="edge">
<title>Node7&#45;&gt;Node10</title>
<g id="a_edge9_Node000007_Node000010"><a xlink:title=" ">
<path fill="none" stroke="#63b8ff" d="M1369.28,-389.08C1381.62,-387.59 1394.56,-386.03 1407.34,-384.5"/>
<polygon fill="#63b8ff" stroke="#63b8ff" points="1407.49,-388 1417,-383.33 1406.65,-381.05 1407.49,-388"/>
</a>
</g>
</g>
<!-- Node11 -->
<g id="Node000011" class="node">
<title>Node11</title>
<g id="a_Node000011"><a xlink:href="classfr_1_1softsf_1_1canscan_1_1_can_scan.html#a6d139bb8d0a3c7081096c8956189b684" target="_top" xlink:title="Validates and returns the QR code size from the corresponding text field.">
<polygon fill="white" stroke="#666666" points="1588.62,-339 1418.88,-339 1418.88,-307 1588.62,-307 1588.62,-339"/>
<text text-anchor="start" x="1426.88" y="-325.5" font-family="Helvetica,sans-Serif" font-size="10.00">fr.softsf.canscan.CanScan.validate</text>
<text text-anchor="middle" x="1503.75" y="-313.5" font-family="Helvetica,sans-Serif" font-size="10.00">AndGetSize</text>
</a>
</g>
</g>
<!-- Node7&#45;&gt;Node11 -->
<g id="edge10_Node000007_Node000011" class="edge">
<title>Node7&#45;&gt;Node11</title>
<g id="a_edge10_Node000007_Node000011"><a xlink:title=" ">
<path fill="none" stroke="#63b8ff" d="M1331.91,-381.61C1355.7,-371.29 1387.5,-358.06 1416.25,-348 1421.24,-346.25 1426.43,-344.53 1431.67,-342.86"/>
<polygon fill="#63b8ff" stroke="#63b8ff" points="1432.5,-346.26 1441.01,-339.95 1430.42,-339.58 1432.5,-346.26"/>
</a>
</g>
</g>
<!-- Node14 -->
<g id="Node000014" class="node">
<title>Node14</title>
<g id="a_Node000014"><a xlink:href="classfr_1_1softsf_1_1canscan_1_1_can_scan.html#ab2e018ca62c7497c29e84f42ae870daa" target="_top" xlink:title="Adds MECARD and Free card panels to the north panel.">
<polygon fill="white" stroke="#666666" points="933.5,-132 781.75,-132 781.75,-100 933.5,-100 933.5,-132"/>
<text text-anchor="start" x="789.75" y="-118.5" font-family="Helvetica,sans-Serif" font-size="10.00">fr.softsf.canscan.CanScan.add</text>
<text text-anchor="middle" x="857.62" y="-106.5" font-family="Helvetica,sans-Serif" font-size="10.00">NorthPanelCardPanels</text>
</a>
</g>
</g>
<!-- Node13&#45;&gt;Node14 -->
<g id="edge14_Node000013_Node000014" class="edge">
<title>Node13&#45;&gt;Node14</title>
<g id="a_edge14_Node000013_Node000014"><a xlink:title=" ">
<path fill="none" stroke="#63b8ff" d="M718.87,-149.56C737.8,-144.95 758.56,-139.89 778.08,-135.13"/>
<polygon fill="#63b8ff" stroke="#63b8ff" points="778.74,-138.58 787.62,-132.81 777.08,-131.78 778.74,-138.58"/>
</a>
</g>
</g>
<!-- Node18 -->
<g id="Node000018" class="node">
<title>Node18</title>
<g id="a_Node000018"><a xlink:href="classfr_1_1softsf_1_1canscan_1_1_can_scan.html#a94ab4df98de0d05977e6a65ab75f89f0" target="_top" xlink:title="Adds common input fields to the north panel.">
<polygon fill="white" stroke="#666666" points="933.5,-288 781.75,-288 781.75,-256 933.5,-256 933.5,-288"/>
<text text-anchor="start" x="789.75" y="-274.5" font-family="Helvetica,sans-Serif" font-size="10.00">fr.softsf.canscan.CanScan.add</text>
<text text-anchor="middle" x="857.62" y="-262.5" font-family="Helvetica,sans-Serif" font-size="10.00">NorthPanelCommonFields</text>
</a>
</g>
</g>
<!-- Node13&#45;&gt;Node18 -->
<g id="edge19_Node000013_Node000018" class="edge">
<title>Node13&#45;&gt;Node18</title>
<g id="a_edge19_Node000013_Node000018"><a xlink:title=" ">
<path fill="none" stroke="#63b8ff" d="M711.27,-182.48C719.97,-186.2 728.51,-190.67 736,-196 756.87,-210.85 751.21,-226.04 772,-241 777,-244.6 782.47,-247.82 788.13,-250.7"/>
<polygon fill="#63b8ff" stroke="#63b8ff" points="786.58,-253.84 797.12,-254.89 789.53,-247.49 786.58,-253.84"/>
</a>
</g>
</g>
<!-- Node20 -->
<g id="Node000020" class="node">
<title>Node20</title>
<g id="a_Node000020"><a xlink:href="classfr_1_1softsf_1_1canscan_1_1_can_scan.html#a9f205dfdb266d5d7f8f8899b69742663" target="_top" xlink:title="Adds the generate button to the north panel.">
<polygon fill="white" stroke="#666666" points="933.5,-82 781.75,-82 781.75,-50 933.5,-50 933.5,-82"/>
<text text-anchor="start" x="789.75" y="-68.5" font-family="Helvetica,sans-Serif" font-size="10.00">fr.softsf.canscan.CanScan.add</text>
<text text-anchor="middle" x="857.62" y="-56.5" font-family="Helvetica,sans-Serif" font-size="10.00">NorthPanelGenerateButton</text>
</a>
</g>
</g>
<!-- Node13&#45;&gt;Node20 -->
<g id="edge24_Node000013_Node000020" class="edge">
<title>Node13&#45;&gt;Node20</title>
<g id="a_edge24_Node000013_Node000020"><a xlink:title=" ">
<path fill="none" stroke="#63b8ff" d="M721.06,-149.62C726.32,-147.13 731.38,-144.28 736,-141 758.33,-125.16 749.67,-106.84 772,-91 773.59,-89.87 775.23,-88.8 776.91,-87.77"/>
<polygon fill="#63b8ff" stroke="#63b8ff" points="778.45,-90.91 785.61,-83.1 775.14,-84.74 778.45,-90.91"/>
</a>
</g>
</g>
<!-- Node21 -->
<g id="Node000021" class="node">
<title>Node21</title>
<g id="a_Node000021"><a xlink:href="classfr_1_1softsf_1_1canscan_1_1_can_scan.html#aa469763b92dd7cbc6dfdb9aaa0116b33" target="_top" xlink:title="Adds mode selection controls (MECARD/Free) to the north panel.">
<polygon fill="white" stroke="#666666" points="933.5,-182 781.75,-182 781.75,-150 933.5,-150 933.5,-182"/>
<text text-anchor="start" x="789.75" y="-168.5" font-family="Helvetica,sans-Serif" font-size="10.00">fr.softsf.canscan.CanScan.add</text>
<text text-anchor="middle" x="857.62" y="-156.5" font-family="Helvetica,sans-Serif" font-size="10.00">NorthPanelModeSelection</text>
</a>
</g>
</g>
<!-- Node13&#45;&gt;Node21 -->
<g id="edge25_Node000013_Node000021" class="edge">
<title>Node13&#45;&gt;Node21</title>
<g id="a_edge25_Node000013_Node000021"><a xlink:title=" ">
<path fill="none" stroke="#63b8ff" d="M736.34,-166C747.47,-166 758.89,-166 770.05,-166"/>
<polygon fill="#63b8ff" stroke="#63b8ff" points="770.04,-169.5 780.04,-166 770.04,-162.5 770.04,-169.5"/>
</a>
</g>
</g>
<!-- Node27 -->
<g id="Node000027" class="node">
<title>Node27</title>
<g id="a_Node000027"><a xlink:href="classfr_1_1softsf_1_1canscan_1_1_can_scan.html#aeb5550da33925e95999aae23f525f7c5" target="_top" xlink:title="Creates default GridBagConstraints for consistent layout configuration.">
<polygon fill="white" stroke="#666666" points="936.5,-232 778.75,-232 778.75,-200 936.5,-200 936.5,-232"/>
<text text-anchor="start" x="786.75" y="-218.5" font-family="Helvetica,sans-Serif" font-size="10.00">fr.softsf.canscan.CanScan.north</text>
<text text-anchor="middle" x="857.62" y="-206.5" font-family="Helvetica,sans-Serif" font-size="10.00">PanelGridBagConstraints</text>
</a>
</g>
</g>
<!-- Node13&#45;&gt;Node27 -->
<g id="edge34_Node000013_Node000027" class="edge">
<title>Node13&#45;&gt;Node27</title>
<g id="a_edge34_Node000013_Node000027"><a xlink:title=" ">
<path fill="none" stroke="#63b8ff" d="M718.87,-182.44C737.8,-187.05 758.56,-192.11 778.08,-196.87"/>
<polygon fill="#63b8ff" stroke="#63b8ff" points="777.08,-200.22 787.62,-199.19 778.74,-193.42 777.08,-200.22"/>
</a>
</g>
</g>
<!-- Node15 -->
<g id="Node000015" class="node">
<title>Node15</title>
<g id="a_Node000015"><a xlink:href="classfr_1_1softsf_1_1canscan_1_1_can_scan.html#a38d65dd319daee1c3288690c17e43ca5" target="_top" xlink:title="Initializes the FREE mode input panel with a multiline text area for arbitrary text or URLs.">
<polygon fill="white" stroke="#666666" points="1162.5,-88 989,-88 989,-68 1162.5,-68 1162.5,-88"/>
<text text-anchor="middle" x="1075.75" y="-74.5" font-family="Helvetica,sans-Serif" font-size="10.00">fr.softsf.canscan.CanScan.freeCard</text>
</a>
</g>
</g>
<!-- Node14&#45;&gt;Node15 -->
<g id="edge15_Node000014_Node000015" class="edge">
<title>Node14&#45;&gt;Node15</title>
<g id="a_edge15_Node000014_Node000015"><a xlink:title=" ">
<path fill="none" stroke="#63b8ff" d="M933.91,-102.76C956.63,-98.77 981.48,-94.4 1003.9,-90.46"/>
<polygon fill="#63b8ff" stroke="#63b8ff" points="1004.3,-93.94 1013.55,-88.76 1003.09,-87.05 1004.3,-93.94"/>
</a>
</g>
</g>
<!-- Node17 -->
<g id="Node000017" class="node">
<title>Node17</title>
<g id="a_Node000017"><a xlink:href="classfr_1_1softsf_1_1canscan_1_1_can_scan.html#aed7e3048974882318a6519d8d36e8ec0" target="_top" xlink:title="Initializes the MECARD input panel with labeled text fields for structured contact information.">
<polygon fill="white" stroke="#666666" points="1159.88,-50 991.62,-50 991.62,-30 1159.88,-30 1159.88,-50"/>
<text text-anchor="middle" x="1075.75" y="-36.5" font-family="Helvetica,sans-Serif" font-size="10.00">fr.softsf.canscan.CanScan.mecard</text>
</a>
</g>
</g>
<!-- Node14&#45;&gt;Node17 -->
<g id="edge17_Node000014_Node000017" class="edge">
<title>Node14&#45;&gt;Node17</title>
<g id="a_edge17_Node000014_Node000017"><a xlink:title=" ">
<path fill="none" stroke="#63b8ff" d="M924.93,-99.52C931.28,-97.03 937.49,-94.2 943.25,-91 961.96,-80.61 960.08,-68.53 979.25,-59 982.8,-57.23 986.5,-55.63 990.3,-54.18"/>
<polygon fill="#63b8ff" stroke="#63b8ff" points="991.43,-57.49 999.76,-50.95 989.17,-50.87 991.43,-57.49"/>
</a>
</g>
</g>
<!-- Node16 -->
<g id="Node000016" class="node">
<title>Node16</title>
<g id="a_Node000016"><a xlink:href="classfr_1_1softsf_1_1canscan_1_1_can_scan.html#a2732ecdc4490a717352975e68fce494c" target="_top" xlink:title="Adds a labeled component row to a panel using GridBagLayout.">
<polygon fill="white" stroke="#666666" points="1380.25,-107 1208.25,-107 1208.25,-87 1380.25,-87 1380.25,-107"/>
<text text-anchor="middle" x="1294.25" y="-93.5" font-family="Helvetica,sans-Serif" font-size="10.00">fr.softsf.canscan.CanScan.addRow</text>
</a>
</g>
</g>
<!-- Node15&#45;&gt;Node16 -->
<g id="edge16_Node000015_Node000016" class="edge">
<title>Node15&#45;&gt;Node16</title>
<g id="a_edge16_Node000015_Node000016"><a xlink:title=" ">
<path fill="none" stroke="#63b8ff" d="M1162.94,-85.56C1174.08,-86.54 1185.55,-87.55 1196.85,-88.54"/>
<polygon fill="#63b8ff" stroke="#63b8ff" points="1196.29,-92 1206.56,-89.39 1196.9,-85.03 1196.29,-92"/>
</a>
</g>
</g>
<!-- Node17&#45;&gt;Node16 -->
<g id="edge18_Node000017_Node000016" class="edge">
<title>Node17&#45;&gt;Node16</title>
<g id="a_edge18_Node000017_Node000016"><a xlink:title=" ">
<path fill="none" stroke="#63b8ff" d="M1134.55,-50.46C1147.04,-53.01 1160.13,-55.9 1172.25,-59 1199.2,-65.89 1229.02,-75.23 1252.31,-82.93"/>
<polygon fill="#63b8ff" stroke="#63b8ff" points="1251.15,-86.23 1261.74,-86.08 1253.36,-79.59 1251.15,-86.23"/>
</a>
</g>
</g>
<!-- Node18&#45;&gt;Node16 -->
<g id="edge20_Node000018_Node000016" class="edge">
<title>Node18&#45;&gt;Node16</title>
<g id="a_edge20_Node000018_Node000016"><a xlink:title=" ">
<path fill="none" stroke="#63b8ff" d="M933.91,-284.14C1000.52,-291.14 1098.33,-292.03 1172.25,-253 1229.16,-222.95 1267.69,-153.05 1284.18,-117.93"/>
<polygon fill="#63b8ff" stroke="#63b8ff" points="1287.36,-119.39 1288.29,-108.84 1280.98,-116.51 1287.36,-119.39"/>
</a>
</g>
</g>
<!-- Node19 -->
<g id="Node000019" class="node">
<title>Node19</title>
<g id="a_Node000019"><a xlink:href="classfr_1_1softsf_1_1canscan_1_1_can_scan.html#a17b0a72ab305f98f86591411b6a352f2" target="_top" xlink:title="Creates the color selection panel for QR code and background colors.">
<polygon fill="white" stroke="#666666" points="1154.25,-370 997.25,-370 997.25,-338 1154.25,-338 1154.25,-370"/>
<text text-anchor="start" x="1005.25" y="-356.5" font-family="Helvetica,sans-Serif" font-size="10.00">fr.softsf.canscan.CanScan.color</text>
<text text-anchor="middle" x="1075.75" y="-344.5" font-family="Helvetica,sans-Serif" font-size="10.00">Panel</text>
</a>
</g>
</g>
<!-- Node18&#45;&gt;Node19 -->
<g id="edge21_Node000018_Node000019" class="edge">
<title>Node18&#45;&gt;Node19</title>
<g id="a_edge21_Node000018_Node000019"><a xlink:title=" ">
<path fill="none" stroke="#63b8ff" d="M889.19,-288.38C913.18,-300.76 947.69,-317.52 979.25,-329 984.27,-330.83 989.48,-332.58 994.77,-334.25"/>
<polygon fill="#63b8ff" stroke="#63b8ff" points="993.65,-337.56 1004.23,-337.11 995.68,-330.86 993.65,-337.56"/>
</a>
</g>
</g>
<!-- Node19&#45;&gt;Node7 -->
<g id="edge23_Node000019_Node000007" class="edge">
<title>Node19&#45;&gt;Node7</title>
<g id="a_edge23_Node000019_Node000007"><a xlink:title=" ">
<path fill="none" stroke="#63b8ff" d="M1154.61,-369.82C1171.99,-373.36 1190.52,-377.12 1208.18,-380.71"/>
<polygon fill="#63b8ff" stroke="#63b8ff" points="1207.36,-384.12 1217.85,-382.68 1208.75,-377.26 1207.36,-384.12"/>
</a>
</g>
</g>
<!-- Node19&#45;&gt;Node19 -->
<g id="edge22_Node000019_Node000019" class="edge">
<title>Node19&#45;&gt;Node19</title>
<g id="a_edge22_Node000019_Node000019"><a xlink:title=" ">
<path fill="none" stroke="#63b8ff" d="M1036.81,-370.44C1029.54,-379.58 1042.52,-388 1075.75,-388 1094.18,-388 1106.38,-385.41 1112.36,-381.54"/>
<polygon fill="#63b8ff" stroke="#63b8ff" points="1115.75,-382.43 1114.38,-371.92 1108.9,-380.99 1115.75,-382.43"/>
</a>
</g>
</g>
<!-- Node21&#45;&gt;Node16 -->
<g id="edge26_Node000021_Node000016" class="edge">
<title>Node21&#45;&gt;Node16</title>
<g id="a_edge26_Node000021_Node000016"><a xlink:title=" ">
<path fill="none" stroke="#63b8ff" d="M916.26,-149.55C936.1,-144.32 958.53,-138.9 979.25,-135 1051.52,-121.4 1134.1,-111.63 1196.43,-105.41"/>
<polygon fill="#63b8ff" stroke="#63b8ff" points="1196.71,-108.9 1206.32,-104.43 1196.03,-101.93 1196.71,-108.9"/>
</a>
</g>
</g>
<!-- Node22 -->
<g id="Node000022" class="node">
<title>Node22</title>
<g id="a_Node000022"><a xlink:href="classfr_1_1softsf_1_1canscan_1_1_can_scan.html#a381579d3adc53b1122b38e7fda5c0235" target="_top" xlink:title="Configures the update button for version checking.">
<polygon fill="white" stroke="#666666" points="1163.62,-176 987.88,-176 987.88,-144 1163.62,-144 1163.62,-176"/>
<text text-anchor="start" x="995.88" y="-162.5" font-family="Helvetica,sans-Serif" font-size="10.00">fr.softsf.canscan.CanScan.configure</text>
<text text-anchor="middle" x="1075.75" y="-150.5" font-family="Helvetica,sans-Serif" font-size="10.00">UpdateButton</text>
</a>
</g>
</g>
<!-- Node21&#45;&gt;Node22 -->
<g id="edge27_Node000021_Node000022" class="edge">
<title>Node21&#45;&gt;Node22</title>
<g id="a_edge27_Node000021_Node000022"><a xlink:title=" ">
<path fill="none" stroke="#63b8ff" d="M933.91,-163.91C947.56,-163.53 961.98,-163.13 976.18,-162.74"/>
<polygon fill="#63b8ff" stroke="#63b8ff" points="976.09,-166.24 985.99,-162.46 975.9,-159.24 976.09,-166.24"/>
</a>
</g>
</g>
<!-- Node23 -->
<g id="Node000023" class="node">
<title>Node23</title>
<g id="a_Node000023"><a xlink:href="classfr_1_1softsf_1_1canscan_1_1_can_scan.html#a5d8f82f2666e6632015dbc4a8ff2b58e" target="_top" xlink:title="Creates the radio button panel for mode selection.">
<polygon fill="white" stroke="#666666" points="1154.25,-226 997.25,-226 997.25,-194 1154.25,-194 1154.25,-226"/>
<text text-anchor="start" x="1005.25" y="-212.5" font-family="Helvetica,sans-Serif" font-size="10.00">fr.softsf.canscan.CanScan.radio</text>
<text text-anchor="middle" x="1075.75" y="-200.5" font-family="Helvetica,sans-Serif" font-size="10.00">ButtonsPanel</text>
</a>
</g>
</g>
<!-- Node21&#45;&gt;Node23 -->
<g id="edge28_Node000021_Node000023" class="edge">
<title>Node21&#45;&gt;Node23</title>
<g id="a_edge28_Node000021_Node000023"><a xlink:title=" ">
<path fill="none" stroke="#63b8ff" d="M933.91,-181.33C950.6,-184.72 968.44,-188.36 985.62,-191.85"/>
<polygon fill="#63b8ff" stroke="#63b8ff" points="984.82,-195.26 995.32,-193.83 986.22,-188.4 984.82,-195.26"/>
</a>
</g>
</g>
<!-- Node24 -->
<g id="Node000024" class="node">
<title>Node24</title>
<g id="a_Node000024"><a xlink:href="classfr_1_1softsf_1_1canscan_1_1_can_scan.html#a428c742b098fa27d4c8984c1030c238d" target="_top" xlink:title="Switches the application between MECARD and FREE QR code modes.">
<polygon fill="white" stroke="#666666" points="1170,-320 981.5,-320 981.5,-300 1170,-300 1170,-320"/>
<text text-anchor="middle" x="1075.75" y="-306.5" font-family="Helvetica,sans-Serif" font-size="10.00">fr.softsf.canscan.CanScan.switchMode</text>
</a>
</g>
</g>
<!-- Node21&#45;&gt;Node24 -->
<g id="edge30_Node000021_Node000024" class="edge">
<title>Node21&#45;&gt;Node24</title>
<g id="a_edge30_Node000021_Node000024"><a xlink:title=" ">
<path fill="none" stroke="#63b8ff" d="M929.51,-182.32C934.39,-184.81 939.03,-187.69 943.25,-191 968.3,-210.69 956.85,-230.33 979.25,-253 996.54,-270.5 1020.27,-284.7 1039.76,-294.55"/>
<polygon fill="#63b8ff" stroke="#63b8ff" points="1038.19,-297.68 1048.71,-298.9 1041.25,-291.38 1038.19,-297.68"/>
</a>
</g>
</g>
<!-- Node23&#45;&gt;Node23 -->
<g id="edge29_Node000023_Node000023" class="edge">
<title>Node23&#45;&gt;Node23</title>
<g id="a_edge29_Node000023_Node000023"><a xlink:title=" ">
<path fill="none" stroke="#63b8ff" d="M1036.81,-226.44C1029.54,-235.58 1042.52,-244 1075.75,-244 1094.18,-244 1106.38,-241.41 1112.36,-237.54"/>
<polygon fill="#63b8ff" stroke="#63b8ff" points="1115.75,-238.43 1114.38,-227.92 1108.9,-236.99 1115.75,-238.43"/>
</a>
</g>
</g>
<!-- Node24&#45;&gt;Node7 -->
<g id="edge31_Node000024_Node000007" class="edge">
<title>Node24&#45;&gt;Node7</title>
<g id="a_edge31_Node000024_Node000007"><a xlink:title=" ">
<path fill="none" stroke="#63b8ff" d="M1143.79,-320.48C1153.48,-322.82 1163.22,-325.63 1172.25,-329 1181.05,-332.29 1223.77,-357.02 1255.97,-375.94"/>
<polygon fill="#63b8ff" stroke="#63b8ff" points="1253.88,-378.77 1264.27,-380.83 1257.43,-372.74 1253.88,-378.77"/>
</a>
</g>
</g>
<!-- Node25 -->
<g id="Node000025" class="node">
<title>Node25</title>
<g id="a_Node000025"><a xlink:href="enumfr_1_1softsf_1_1canscan_1_1model_1_1_mode.html#a16a898a11ca939056bd7b275f11ea54c" target="_top" xlink:title="Returns the mode label.">
<polygon fill="white" stroke="#666666" points="1355.12,-289 1233.38,-289 1233.38,-257 1355.12,-257 1355.12,-289"/>
<text text-anchor="start" x="1241.38" y="-275.5" font-family="Helvetica,sans-Serif" font-size="10.00">fr.softsf.canscan.model.</text>
<text text-anchor="middle" x="1294.25" y="-263.5" font-family="Helvetica,sans-Serif" font-size="10.00">Mode.text</text>
</a>
</g>
</g>
<!-- Node24&#45;&gt;Node25 -->
<g id="edge32_Node000024_Node000025" class="edge">
<title>Node24&#45;&gt;Node25</title>
<g id="a_edge32_Node000024_Node000025"><a xlink:title=" ">
<path fill="none" stroke="#63b8ff" d="M1137.92,-299.55C1164.08,-295.08 1194.79,-289.83 1221.97,-285.18"/>
<polygon fill="#63b8ff" stroke="#63b8ff" points="1222.22,-288.69 1231.49,-283.56 1221.04,-281.79 1222.22,-288.69"/>
</a>
</g>
</g>
<!-- Node26 -->
<g id="Node000026" class="node">
<title>Node26</title>
<g id="a_Node000026"><a xlink:href="classfr_1_1softsf_1_1canscan_1_1_can_scan.html#a11fd9295c4843e6e68f9d1e4a710b906" target="_top" xlink:title="Validates the current input fields and toggles the state of the generate button.">
<polygon fill="white" stroke="#666666" points="1376.88,-339 1211.62,-339 1211.62,-307 1376.88,-307 1376.88,-339"/>
<text text-anchor="start" x="1219.62" y="-325.5" font-family="Helvetica,sans-Serif" font-size="10.00">fr.softsf.canscan.CanScan.update</text>
<text text-anchor="middle" x="1294.25" y="-313.5" font-family="Helvetica,sans-Serif" font-size="10.00">GenerateButtonState</text>
</a>
</g>
</g>
<!-- Node24&#45;&gt;Node26 -->
<g id="edge33_Node000024_Node000026" class="edge">
<title>Node24&#45;&gt;Node26</title>
<g id="a_edge33_Node000024_Node000026"><a xlink:title=" ">
<path fill="none" stroke="#63b8ff" d="M1170.45,-315.63C1180.23,-316.21 1190.16,-316.81 1199.93,-317.4"/>
<polygon fill="#63b8ff" stroke="#63b8ff" points="1199.6,-320.88 1209.79,-317.99 1200.02,-313.9 1199.6,-320.88"/>
</a>
</g>
</g>
<!-- Node30 -->
<g id="Node000030" class="node">
<title>Node30</title>
<g id="a_Node000030"><a xlink:href="classfr_1_1softsf_1_1canscan_1_1_can_scan.html#abbe4fb71ad979d6affed0b2c9629b832" target="_top" xlink:title="Updates the tooltip of the ratio slider to reflect its current value as a percentage.">
<polygon fill="white" stroke="#666666" points="932.38,-32 782.88,-32 782.88,0 932.38,0 932.38,-32"/>
<text text-anchor="start" x="790.88" y="-18.5" font-family="Helvetica,sans-Serif" font-size="10.00">fr.softsf.canscan.CanScan.set</text>
<text text-anchor="middle" x="857.62" y="-6.5" font-family="Helvetica,sans-Serif" font-size="10.00">RatioSliderTooltipValue</text>
</a>
</g>
</g>
<!-- Node29&#45;&gt;Node30 -->
<g id="edge37_Node000029_Node000030" class="edge">
<title>Node29&#45;&gt;Node30</title>
<g id="a_edge37_Node000029_Node000030"><a xlink:title=" ">
<path fill="none" stroke="#63b8ff" d="M718.87,-49.56C737.8,-44.95 758.56,-39.89 778.08,-35.13"/>
<polygon fill="#63b8ff" stroke="#63b8ff" points="778.74,-38.58 787.62,-32.81 777.08,-31.78 778.74,-38.58"/>
</a>
</g>
</g>
</g>
</svg>

<g id="navigator" transform="translate(0 0)" fill="#404254">
  <rect fill="#f2f5e9" fill-opacity="0.5" stroke="#606060" stroke-width=".5" x="0" y="0" width="60" height="60"/>
  <use id="zoomplus" xlink:href="#zoomPlus" x="17" y="9" onmousedown="handleZoom(evt,'in')"/>
  <use id="zoomminus" xlink:href="#zoomMin" x="42" y="9" onmousedown="handleZoom(evt,'out')"/>
  <use id="reset" xlink:href="#resetDef" x="30" y="36" onmousedown="handleReset()"/>
   <use id="arrowup" xlink:href="#arrowUp" x="0" y="0" onmousedown="handlePan(0,-1)"/>
  <use id="arrowright" xlink:href="#arrowRight" x="0" y="0" onmousedown="handlePan(1,0)"/>
  <use id="arrowdown" xlink:href="#arrowDown" x="0" y="0" onmousedown="handlePan(0,1)"/>
  <use id="arrowleft" xlink:href="#arrowLeft" x="0" y="0" onmousedown="handlePan(-1,0)"/>
</g>
<svg viewBox="0 0 15 15" width="100%" height="30px" preserveAspectRatio="xMaxYMin meet">
 <g id="arrow_out" transform="scale(0.3 0.3)">
  <a xlink:href="classfr_1_1softsf_1_1canscan_1_1_can_scan_ae9d7eee5ec656c89834bed84a588334f_cgraph_org.svg" target="_base">
   <rect id="button" ry="5" rx="5" y="6" x="6" height="38" width="38"
        fill="#f2f5e9" fill-opacity="0.5" stroke="#606060" stroke-width="1.0"/>
   <path id="arrow"
     d="M 11.500037,31.436501 C 11.940474,20.09759 22.043105,11.32322 32.158766,21.979434 L 37.068811,17.246167 C 37.068811,17.246167 37.088388,32 37.088388,32 L 22.160133,31.978069 C 22.160133,31.978069 26.997745,27.140456 26.997745,27.140456 C 18.528582,18.264221 13.291696,25.230495 11.500037,31.436501 z"
     style="fill:#404040;"/>
  </a>
 </g>
</svg>

<style type='text/css'>
<![CDATA[
[data-mouse-over-selected='false'] { opacity: 0.7; }
[data-mouse-over-selected='true']  { opacity: 1.0; }
]]>
</style>
<script type="application/ecmascript"><![CDATA[
document.addEventListener('DOMContentLoaded', (event) => {
  highlightEdges();
  highlightAdjacentNodes();
});
]]></script>
</svg>
