<?xml version="1.0" encoding="UTF-8" standalone="no"?>
<!DOCTYPE svg PUBLIC "-//W3C//DTD SVG 1.1//EN"
 "http://www.w3.org/Graphics/SVG/1.1/DTD/svg11.dtd">
<!-- Generated by graphviz version 12.2.1 (20241206.2353)
 -->
<!-- Title: fr.softsf.canscan.util.IntConstants Pages: 1 -->
<svg width="125pt" height="104pt"
 viewBox="0.00 0.00 125.00 104.00" xmlns="http://www.w3.org/2000/svg" xmlns:xlink="http://www.w3.org/1999/xlink">
<g id="graph0" class="graph" transform="scale(1 1) rotate(0) translate(4 100)">
<title>fr.softsf.canscan.util.IntConstants</title>
<!-- Node1 -->
<g id="Node000001" class="node">
<title>Node1</title>
<g id="a_Node000001"><a xlink:title="Integer constants for dimensions and spacing.">
<polygon fill="#999999" stroke="none" points="117,-96 0,-96 0,0 117,0 117,-96"/>
<text text-anchor="start" x="6.75" y="-82.5" font-family="Helvetica,sans-Serif" font-size="10.00">fr.softsf.canscan.util.Int</text>
<text text-anchor="start" x="36" y="-70.5" font-family="Helvetica,sans-Serif" font-size="10.00">Constants</text>
<text text-anchor="start" x="4" y="-54.5" font-family="Helvetica,sans-Serif" font-size="10.00">+</text>
<text text-anchor="start" x="14" y="-54.5" font-family="Helvetica,sans-Serif" font-size="10.00">DEFAULT_GAP</text>
<text text-anchor="start" x="5.5" y="-38.5" font-family="Helvetica,sans-Serif" font-size="10.00">&#45;</text>
<text text-anchor="start" x="14" y="-38.5" font-family="Helvetica,sans-Serif" font-size="10.00">final int value</text>
<text text-anchor="start" x="4" y="-22.5" font-family="Helvetica,sans-Serif" font-size="10.00">+</text>
<text text-anchor="start" x="14" y="-22.5" font-family="Helvetica,sans-Serif" font-size="10.00">IntConstants(int value)</text>
<text text-anchor="start" x="4" y="-6.5" font-family="Helvetica,sans-Serif" font-size="10.00">+</text>
<text text-anchor="start" x="14" y="-6.5" font-family="Helvetica,sans-Serif" font-size="10.00">int getValue()</text>
<polygon fill="#666666" stroke="#666666" points="0,-66 0,-66 117,-66 117,-66 0,-66"/>
<polygon fill="#666666" stroke="#666666" points="0,-34 0,-34 12,-34 12,-34 0,-34"/>
<polygon fill="#666666" stroke="#666666" points="12,-34 12,-34 117,-34 117,-34 12,-34"/>
<polygon fill="none" stroke="#666666" points="0,0 0,-96 117,-96 117,0 0,0"/>
</a>
</g>
</g>
</g>
</svg>
