<?xml version="1.0" encoding="UTF-8" standalone="no"?>
<!DOCTYPE svg PUBLIC "-//W3C//DTD SVG 1.1//EN"
 "http://www.w3.org/Graphics/SVG/1.1/DTD/svg11.dtd">
<!-- Generated by graphviz version 12.2.1 (20241206.2353)
 -->
<!-- Title: fr.softsf.canscan.ui.QrCodeBufferedImage.drawFinderPatterns Pages: 1 -->
<svg width="824pt" height="131pt"
 viewBox="0.00 0.00 823.50 131.08" xmlns="http://www.w3.org/2000/svg" xmlns:xlink="http://www.w3.org/1999/xlink">
<g id="graph0" class="graph" transform="scale(1 1) rotate(0) translate(4 127.08)">
<title>fr.softsf.canscan.ui.QrCodeBufferedImage.drawFinderPatterns</title>
<!-- Node1 -->
<g id="Node000001" class="node">
<title>Node1</title>
<g id="a_Node000001"><a xlink:title="Renders the three QR code finder patterns at the corners using the specified style.">
<polygon fill="#999999" stroke="#666666" points="166.75,-100 0,-100 0,-68 166.75,-68 166.75,-100"/>
<text text-anchor="start" x="8" y="-86.5" font-family="Helvetica,sans-Serif" font-size="10.00">fr.softsf.canscan.ui.QrCode</text>
<text text-anchor="middle" x="83.38" y="-74.5" font-family="Helvetica,sans-Serif" font-size="10.00">BufferedImage.drawFinderPatterns</text>
</a>
</g>
</g>
<!-- Node2 -->
<g id="Node000002" class="node">
<title>Node2</title>
<g id="a_Node000002"><a xlink:href="enumfr_1_1softsf_1_1canscan_1_1util_1_1_checker.html#a38aa8db97b16480c728481f1835da11f" target="_top" xlink:title="Checks if the given object is null in a static context and displays an error dialog if so.">
<polygon fill="white" stroke="#666666" points="605.25,-100 431,-100 431,-68 605.25,-68 605.25,-100"/>
<text text-anchor="start" x="439" y="-86.5" font-family="Helvetica,sans-Serif" font-size="10.00">fr.softsf.canscan.util.Checker.check</text>
<text text-anchor="middle" x="518.12" y="-74.5" font-family="Helvetica,sans-Serif" font-size="10.00">StaticNPE</text>
</a>
</g>
</g>
<!-- Node1&#45;&gt;Node2 -->
<g id="edge1_Node000001_Node000002" class="edge">
<title>Node1&#45;&gt;Node2</title>
<g id="a_edge1_Node000001_Node000002"><a xlink:title=" ">
<path fill="none" stroke="#63b8ff" d="M135.67,-100.49C156.28,-106.31 180.42,-112.12 202.75,-115 287.49,-125.91 310.21,-125.59 395,-115 414.14,-112.61 434.59,-108.19 453.17,-103.41"/>
<polygon fill="#63b8ff" stroke="#63b8ff" points="453.94,-106.83 462.71,-100.88 452.15,-100.07 453.94,-106.83"/>
</a>
</g>
</g>
<!-- Node4 -->
<g id="Node000004" class="node">
<title>Node4</title>
<g id="a_Node000004"><a xlink:href="enumfr_1_1softsf_1_1canscan_1_1ui_1_1_qr_code_buffered_image.html#ae787416583ad529236a223551032e887" target="_top" xlink:title="Draws a QR code finder pattern with rounded corners at the specified pixel coordinates.">
<polygon fill="white" stroke="#666666" points="383.38,-106 214.38,-106 214.38,-62 383.38,-62 383.38,-106"/>
<text text-anchor="start" x="222.38" y="-92.5" font-family="Helvetica,sans-Serif" font-size="10.00">fr.softsf.canscan.ui.QrCode</text>
<text text-anchor="start" x="222.38" y="-80.5" font-family="Helvetica,sans-Serif" font-size="10.00">BufferedImage.drawRoundedFinder</text>
<text text-anchor="middle" x="298.88" y="-68.5" font-family="Helvetica,sans-Serif" font-size="10.00">PatternAtPixel</text>
</a>
</g>
</g>
<!-- Node1&#45;&gt;Node4 -->
<g id="edge3_Node000001_Node000004" class="edge">
<title>Node1&#45;&gt;Node4</title>
<g id="a_edge3_Node000001_Node000004"><a xlink:title=" ">
<path fill="none" stroke="#63b8ff" d="M167.23,-84C178.86,-84 190.9,-84 202.74,-84"/>
<polygon fill="#63b8ff" stroke="#63b8ff" points="202.5,-87.5 212.5,-84 202.5,-80.5 202.5,-87.5"/>
</a>
</g>
</g>
<!-- Node5 -->
<g id="Node000005" class="node">
<title>Node5</title>
<g id="a_Node000005"><a xlink:href="enumfr_1_1softsf_1_1canscan_1_1ui_1_1_qr_code_buffered_image.html#ad408b9a718a53adbf8891606715a7bba" target="_top" xlink:title="Draws a standard square QR code finder pattern at the specified pixel coordinates.">
<polygon fill="white" stroke="#666666" points="395,-44 202.75,-44 202.75,0 395,0 395,-44"/>
<text text-anchor="start" x="210.75" y="-30.5" font-family="Helvetica,sans-Serif" font-size="10.00">fr.softsf.canscan.ui.QrCode</text>
<text text-anchor="start" x="210.75" y="-18.5" font-family="Helvetica,sans-Serif" font-size="10.00">BufferedImage.drawSquareFinderPattern</text>
<text text-anchor="middle" x="298.88" y="-6.5" font-family="Helvetica,sans-Serif" font-size="10.00">AtPixel</text>
</a>
</g>
</g>
<!-- Node1&#45;&gt;Node5 -->
<g id="edge5_Node000001_Node000005" class="edge">
<title>Node1&#45;&gt;Node5</title>
<g id="a_edge5_Node000001_Node000005"><a xlink:title=" ">
<path fill="none" stroke="#63b8ff" d="M141.03,-67.55C162.04,-61.45 186.4,-54.37 209.56,-47.65"/>
<polygon fill="#63b8ff" stroke="#63b8ff" points="210.38,-51.05 219,-44.9 208.42,-44.33 210.38,-51.05"/>
</a>
</g>
</g>
<!-- Node3 -->
<g id="Node000003" class="node">
<title>Node3</title>
<g id="a_Node000003"><a xlink:href="enumfr_1_1softsf_1_1canscan_1_1util_1_1_checker.html#af3fc9dd2a33f4d12c5db8cf2aeea17d7" target="_top" xlink:title="Validates that the given object is non&#45;null and, if a String, not blank.">
<polygon fill="white" stroke="#666666" points="815.5,-100 641.25,-100 641.25,-68 815.5,-68 815.5,-100"/>
<text text-anchor="start" x="649.25" y="-86.5" font-family="Helvetica,sans-Serif" font-size="10.00">fr.softsf.canscan.util.Checker.check</text>
<text text-anchor="middle" x="728.38" y="-74.5" font-family="Helvetica,sans-Serif" font-size="10.00">NullOrBlankInternal</text>
</a>
</g>
</g>
<!-- Node2&#45;&gt;Node3 -->
<g id="edge2_Node000002_Node000003" class="edge">
<title>Node2&#45;&gt;Node3</title>
<g id="a_edge2_Node000002_Node000003"><a xlink:title=" ">
<path fill="none" stroke="#63b8ff" d="M605.63,-84C613.53,-84 621.57,-84 629.56,-84"/>
<polygon fill="#63b8ff" stroke="#63b8ff" points="629.29,-87.5 639.29,-84 629.29,-80.5 629.29,-87.5"/>
</a>
</g>
</g>
<!-- Node4&#45;&gt;Node2 -->
<g id="edge4_Node000004_Node000002" class="edge">
<title>Node4&#45;&gt;Node2</title>
<g id="a_edge4_Node000004_Node000002"><a xlink:title=" ">
<path fill="none" stroke="#63b8ff" d="M383.87,-84C395.54,-84 407.62,-84 419.51,-84"/>
<polygon fill="#63b8ff" stroke="#63b8ff" points="419.33,-87.5 429.33,-84 419.33,-80.5 419.33,-87.5"/>
</a>
</g>
</g>
<!-- Node5&#45;&gt;Node2 -->
<g id="edge6_Node000005_Node000002" class="edge">
<title>Node5&#45;&gt;Node2</title>
<g id="a_edge6_Node000005_Node000002"><a xlink:title=" ">
<path fill="none" stroke="#63b8ff" d="M378.61,-44.47C401.47,-50.99 426.24,-58.06 448.42,-64.39"/>
<polygon fill="#63b8ff" stroke="#63b8ff" points="447.39,-67.74 457.97,-67.12 449.31,-61.01 447.39,-67.74"/>
</a>
</g>
</g>
</g>
</svg>
