<?xml version="1.0" encoding="UTF-8" standalone="no"?>
<!DOCTYPE svg PUBLIC "-//W3C//DTD SVG 1.1//EN"
 "http://www.w3.org/Graphics/SVG/1.1/DTD/svg11.dtd">
<!-- Generated by graphviz version 12.2.1 (20241206.2353)
 -->
<!-- Title: fr.softsf.canscan.ui.QrCodeBufferedImage.generateQrCodeImage Pages: 1 -->
<svg width="1047pt" height="593pt"
 viewBox="0.00 0.00 1047.25 592.75" xmlns="http://www.w3.org/2000/svg" xmlns:xlink="http://www.w3.org/1999/xlink">
<g id="graph0" class="graph" transform="scale(1 1) rotate(0) translate(4 588.75)">
<title>fr.softsf.canscan.ui.QrCodeBufferedImage.generateQrCodeImage</title>
<!-- Node1 -->
<g id="Node000001" class="node">
<title>Node1</title>
<g id="a_Node000001"><a xlink:title="Generates a QR code image with optional logo and custom styling.">
<polygon fill="#999999" stroke="#666666" points="180.25,-238.75 0,-238.75 0,-206.75 180.25,-206.75 180.25,-238.75"/>
<text text-anchor="start" x="8" y="-225.25" font-family="Helvetica,sans-Serif" font-size="10.00">fr.softsf.canscan.ui.QrCode</text>
<text text-anchor="middle" x="90.12" y="-213.25" font-family="Helvetica,sans-Serif" font-size="10.00">BufferedImage.generateQrCodeImage</text>
</a>
</g>
</g>
<!-- Node2 -->
<g id="Node000002" class="node">
<title>Node2</title>
<g id="a_Node000002"><a xlink:href="enumfr_1_1softsf_1_1canscan_1_1util_1_1_checker.html#a38aa8db97b16480c728481f1835da11f" target="_top" xlink:title="Checks if the given object is null in a static context and displays an error dialog if so.">
<polygon fill="white" stroke="#666666" points="826,-345.75 651.75,-345.75 651.75,-313.75 826,-313.75 826,-345.75"/>
<text text-anchor="start" x="659.75" y="-332.25" font-family="Helvetica,sans-Serif" font-size="10.00">fr.softsf.canscan.util.Checker.check</text>
<text text-anchor="middle" x="738.88" y="-320.25" font-family="Helvetica,sans-Serif" font-size="10.00">StaticNPE</text>
</a>
</g>
</g>
<!-- Node1&#45;&gt;Node2 -->
<g id="edge1_Node000001_Node000002" class="edge">
<title>Node1&#45;&gt;Node2</title>
<g id="a_edge1_Node000001_Node000002"><a xlink:title=" ">
<path fill="none" stroke="#63b8ff" d="M107.08,-239.25C129.24,-260.91 171.67,-298.03 216.25,-313.75 357.16,-363.45 532.99,-355.75 640.27,-343.99"/>
<polygon fill="#63b8ff" stroke="#63b8ff" points="640.36,-347.5 649.9,-342.9 639.57,-340.55 640.36,-347.5"/>
</a>
</g>
</g>
<!-- Node4 -->
<g id="Node000004" class="node">
<title>Node4</title>
<g id="a_Node000004"><a xlink:href="enumfr_1_1softsf_1_1canscan_1_1ui_1_1_qr_code_buffered_image.html#a98136934121352ab51521256225c1e74" target="_top" xlink:title="Creates a QR code matrix for the given text.">
<polygon fill="white" stroke="#666666" points="368,-304.75 231.25,-304.75 231.25,-272.75 368,-272.75 368,-304.75"/>
<text text-anchor="start" x="239.25" y="-291.25" font-family="Helvetica,sans-Serif" font-size="10.00">fr.softsf.canscan.ui.QrCode</text>
<text text-anchor="middle" x="299.62" y="-279.25" font-family="Helvetica,sans-Serif" font-size="10.00">BufferedImage.createMatrix</text>
</a>
</g>
</g>
<!-- Node1&#45;&gt;Node4 -->
<g id="edge3_Node000001_Node000004" class="edge">
<title>Node1&#45;&gt;Node4</title>
<g id="a_edge3_Node000001_Node000004"><a xlink:title=" ">
<path fill="none" stroke="#63b8ff" d="M142.95,-239.24C171.28,-248.25 206.57,-259.47 236.39,-268.96"/>
<polygon fill="#63b8ff" stroke="#63b8ff" points="235.07,-272.21 245.66,-271.91 237.19,-265.54 235.07,-272.21"/>
</a>
</g>
</g>
<!-- Node5 -->
<g id="Node000005" class="node">
<title>Node5</title>
<g id="a_Node000005"><a xlink:href="enumfr_1_1softsf_1_1canscan_1_1ui_1_1_qr_code_buffered_image.html#a33d289417f231479f6c1b5554737401c" target="_top" xlink:title="Renders the three QR code finder patterns at the corners using the specified style.">
<polygon fill="white" stroke="#666666" points="383,-238.75 216.25,-238.75 216.25,-206.75 383,-206.75 383,-238.75"/>
<text text-anchor="start" x="224.25" y="-225.25" font-family="Helvetica,sans-Serif" font-size="10.00">fr.softsf.canscan.ui.QrCode</text>
<text text-anchor="middle" x="299.62" y="-213.25" font-family="Helvetica,sans-Serif" font-size="10.00">BufferedImage.drawFinderPatterns</text>
</a>
</g>
</g>
<!-- Node1&#45;&gt;Node5 -->
<g id="edge5_Node000001_Node000005" class="edge">
<title>Node1&#45;&gt;Node5</title>
<g id="a_edge5_Node000001_Node000005"><a xlink:title=" ">
<path fill="none" stroke="#63b8ff" d="M180.63,-222.75C188.61,-222.75 196.7,-222.75 204.71,-222.75"/>
<polygon fill="#63b8ff" stroke="#63b8ff" points="204.45,-226.25 214.45,-222.75 204.45,-219.25 204.45,-226.25"/>
</a>
</g>
</g>
<!-- Node8 -->
<g id="Node000008" class="node">
<title>Node8</title>
<g id="a_Node000008"><a xlink:href="enumfr_1_1softsf_1_1canscan_1_1ui_1_1_qr_code_buffered_image.html#a7b57fa714bbbc6001476ed03fb148fdc" target="_top" xlink:title="Draws the logo at the center of the QR code if a valid logo file is provided.">
<polygon fill="white" stroke="#666666" points="381.5,-185.75 217.75,-185.75 217.75,-153.75 381.5,-153.75 381.5,-185.75"/>
<text text-anchor="start" x="225.75" y="-172.25" font-family="Helvetica,sans-Serif" font-size="10.00">fr.softsf.canscan.ui.QrCode</text>
<text text-anchor="middle" x="299.62" y="-160.25" font-family="Helvetica,sans-Serif" font-size="10.00">BufferedImage.drawLogoIfPresent</text>
</a>
</g>
</g>
<!-- Node1&#45;&gt;Node8 -->
<g id="edge11_Node000001_Node000008" class="edge">
<title>Node1&#45;&gt;Node8</title>
<g id="a_edge11_Node000001_Node000008"><a xlink:title=" ">
<path fill="none" stroke="#63b8ff" d="M155.64,-206.27C177.01,-200.81 200.99,-194.69 223.12,-189.04"/>
<polygon fill="#63b8ff" stroke="#63b8ff" points="223.86,-192.46 232.68,-186.6 222.13,-185.68 223.86,-192.46"/>
</a>
</g>
</g>
<!-- Node9 -->
<g id="Node000009" class="node">
<title>Node9</title>
<g id="a_Node000009"><a xlink:href="enumfr_1_1softsf_1_1canscan_1_1ui_1_1_qr_code_buffered_image.html#a49b886b33f2f5405f38207544a06a5f8" target="_top" xlink:title="Renders all QR code modules onto the provided graphics context.">
<polygon fill="white" stroke="#666666" points="369.5,-474.75 229.75,-474.75 229.75,-442.75 369.5,-442.75 369.5,-474.75"/>
<text text-anchor="start" x="237.75" y="-461.25" font-family="Helvetica,sans-Serif" font-size="10.00">fr.softsf.canscan.ui.QrCode</text>
<text text-anchor="middle" x="299.62" y="-449.25" font-family="Helvetica,sans-Serif" font-size="10.00">BufferedImage.drawModules</text>
</a>
</g>
</g>
<!-- Node1&#45;&gt;Node9 -->
<g id="edge13_Node000001_Node000009" class="edge">
<title>Node1&#45;&gt;Node9</title>
<g id="a_edge13_Node000001_Node000009"><a xlink:title=" ">
<path fill="none" stroke="#63b8ff" d="M97.99,-239.23C113.89,-275.68 156.51,-364.17 216.25,-417.75 224.63,-425.27 234.65,-431.76 244.76,-437.21"/>
<polygon fill="#63b8ff" stroke="#63b8ff" points="242.99,-440.24 253.49,-441.64 246.15,-434 242.99,-440.24"/>
</a>
</g>
</g>
<!-- Node16 -->
<g id="Node000016" class="node">
<title>Node16</title>
<g id="a_Node000016"><a xlink:href="enumfr_1_1softsf_1_1canscan_1_1ui_1_1_qr_code_buffered_image.html#a9a9498240266cd1874ce471cdd24368f" target="_top" xlink:title="Estimates the memory required to create a BufferedImage.">
<polygon fill="white" stroke="#666666" points="615.75,-82.75 419,-82.75 419,-50.75 615.75,-50.75 615.75,-82.75"/>
<text text-anchor="start" x="427" y="-69.25" font-family="Helvetica,sans-Serif" font-size="10.00">fr.softsf.canscan.ui.QrCode</text>
<text text-anchor="middle" x="517.38" y="-57.25" font-family="Helvetica,sans-Serif" font-size="10.00">BufferedImage.estimateImageMemoryMB</text>
</a>
</g>
</g>
<!-- Node1&#45;&gt;Node16 -->
<g id="edge23_Node000001_Node000016" class="edge">
<title>Node1&#45;&gt;Node16</title>
<g id="a_edge23_Node000001_Node000016"><a xlink:title=" ">
<path fill="none" stroke="#63b8ff" d="M112.61,-206.51C136.68,-189.01 177.44,-161.43 216.25,-144.75 236.67,-135.98 355.66,-106.06 437.54,-85.93"/>
<polygon fill="#63b8ff" stroke="#63b8ff" points="438.23,-89.37 447.11,-83.58 436.56,-82.57 438.23,-89.37"/>
</a>
</g>
</g>
<!-- Node17 -->
<g id="Node000017" class="node">
<title>Node17</title>
<g id="a_Node000017"><a xlink:href="enumfr_1_1softsf_1_1canscan_1_1ui_1_1_qr_code_buffered_image.html#abfa8048716b96d926a9348483a69898d" target="_top" xlink:title="Fills the entire QR code area with the specified background color.">
<polygon fill="white" stroke="#666666" points="371.38,-408.75 227.88,-408.75 227.88,-376.75 371.38,-376.75 371.38,-408.75"/>
<text text-anchor="start" x="235.88" y="-395.25" font-family="Helvetica,sans-Serif" font-size="10.00">fr.softsf.canscan.ui.QrCode</text>
<text text-anchor="middle" x="299.62" y="-383.25" font-family="Helvetica,sans-Serif" font-size="10.00">BufferedImage.fillBackground</text>
</a>
</g>
</g>
<!-- Node1&#45;&gt;Node17 -->
<g id="edge24_Node000001_Node000017" class="edge">
<title>Node1&#45;&gt;Node17</title>
<g id="a_edge24_Node000001_Node000017"><a xlink:title=" ">
<path fill="none" stroke="#63b8ff" d="M101.56,-238.94C120.88,-267.72 164.97,-328.02 216.25,-362.75 221.01,-365.98 226.16,-368.9 231.48,-371.55"/>
<polygon fill="#63b8ff" stroke="#63b8ff" points="229.94,-374.69 240.49,-375.67 232.85,-368.33 229.94,-374.69"/>
</a>
</g>
</g>
<!-- Node18 -->
<g id="Node000018" class="node">
<title>Node18</title>
<g id="a_Node000018"><a xlink:href="enumfr_1_1softsf_1_1canscan_1_1ui_1_1_qr_code_buffered_image.html#a64887707a74d89b80bc1de3e2a826314" target="_top" xlink:title="Gets the available memory in the JVM with safety margin for image generation.">
<polygon fill="white" stroke="#666666" points="610.12,-32.75 424.62,-32.75 424.62,-0.75 610.12,-0.75 610.12,-32.75"/>
<text text-anchor="start" x="432.62" y="-19.25" font-family="Helvetica,sans-Serif" font-size="10.00">fr.softsf.canscan.ui.QrCode</text>
<text text-anchor="middle" x="517.38" y="-7.25" font-family="Helvetica,sans-Serif" font-size="10.00">BufferedImage.getAvailableMemoryMB</text>
</a>
</g>
</g>
<!-- Node1&#45;&gt;Node18 -->
<g id="edge26_Node000001_Node000018" class="edge">
<title>Node1&#45;&gt;Node18</title>
<g id="a_edge26_Node000001_Node000018"><a xlink:title=" ">
<path fill="none" stroke="#63b8ff" d="M96.45,-206.27C109.68,-168.32 148.03,-75.01 216.25,-35.75 275.25,-1.8 352.01,2.5 413.12,-1.46"/>
<polygon fill="#63b8ff" stroke="#63b8ff" points="412.61,-4.93 422.84,-2.18 413.12,2.05 412.61,-4.93"/>
</a>
</g>
</g>
<!-- Node19 -->
<g id="Node000019" class="node">
<title>Node19</title>
<g id="a_Node000019"><a xlink:href="enumfr_1_1softsf_1_1canscan_1_1ui_1_1_qr_code_buffered_image.html#a6a52b83afbff300934e8cfe7d454cac1" target="_top" xlink:title="Validates that sufficient memory is available to generate a square image of the given size.">
<polygon fill="white" stroke="#666666" points="382.25,-88.75 217,-88.75 217,-44.75 382.25,-44.75 382.25,-88.75"/>
<text text-anchor="start" x="225" y="-75.25" font-family="Helvetica,sans-Serif" font-size="10.00">fr.softsf.canscan.ui.QrCode</text>
<text text-anchor="start" x="225" y="-63.25" font-family="Helvetica,sans-Serif" font-size="10.00">BufferedImage.validateMemoryFor</text>
<text text-anchor="middle" x="299.62" y="-51.25" font-family="Helvetica,sans-Serif" font-size="10.00">ImageSize</text>
</a>
</g>
</g>
<!-- Node1&#45;&gt;Node19 -->
<g id="edge27_Node000001_Node000019" class="edge">
<title>Node1&#45;&gt;Node19</title>
<g id="a_edge27_Node000001_Node000019"><a xlink:title=" ">
<path fill="none" stroke="#63b8ff" d="M105.59,-206.3C127.62,-181.97 171.73,-136.01 216.25,-105.75 222.09,-101.78 228.4,-98.01 234.83,-94.49"/>
<polygon fill="#63b8ff" stroke="#63b8ff" points="236.42,-97.61 243.65,-89.87 233.17,-91.41 236.42,-97.61"/>
</a>
</g>
</g>
<!-- Node3 -->
<g id="Node000003" class="node">
<title>Node3</title>
<g id="a_Node000003"><a xlink:href="enumfr_1_1softsf_1_1canscan_1_1util_1_1_checker.html#af3fc9dd2a33f4d12c5db8cf2aeea17d7" target="_top" xlink:title="Validates that the given object is non&#45;null and, if a String, not blank.">
<polygon fill="white" stroke="#666666" points="1037.75,-345.75 863.5,-345.75 863.5,-313.75 1037.75,-313.75 1037.75,-345.75"/>
<text text-anchor="start" x="871.5" y="-332.25" font-family="Helvetica,sans-Serif" font-size="10.00">fr.softsf.canscan.util.Checker.check</text>
<text text-anchor="middle" x="950.62" y="-320.25" font-family="Helvetica,sans-Serif" font-size="10.00">NullOrBlankInternal</text>
</a>
</g>
</g>
<!-- Node2&#45;&gt;Node3 -->
<g id="edge2_Node000002_Node000003" class="edge">
<title>Node2&#45;&gt;Node3</title>
<g id="a_edge2_Node000002_Node000003"><a xlink:title=" ">
<path fill="none" stroke="#63b8ff" d="M826.4,-329.75C834.78,-329.75 843.32,-329.75 851.8,-329.75"/>
<polygon fill="#63b8ff" stroke="#63b8ff" points="851.79,-333.25 861.79,-329.75 851.79,-326.25 851.79,-333.25"/>
</a>
</g>
</g>
<!-- Node4&#45;&gt;Node2 -->
<g id="edge4_Node000004_Node000002" class="edge">
<title>Node4&#45;&gt;Node2</title>
<g id="a_edge4_Node000004_Node000002"><a xlink:title=" ">
<path fill="none" stroke="#63b8ff" d="M368.47,-295.11C441.2,-301.93 557.36,-312.83 639.99,-320.57"/>
<polygon fill="#63b8ff" stroke="#63b8ff" points="639.63,-324.06 649.91,-321.5 640.28,-317.09 639.63,-324.06"/>
</a>
</g>
</g>
<!-- Node5&#45;&gt;Node2 -->
<g id="edge6_Node000005_Node000002" class="edge">
<title>Node5&#45;&gt;Node2</title>
<g id="a_edge6_Node000005_Node000002"><a xlink:title=" ">
<path fill="none" stroke="#63b8ff" d="M361.64,-239.24C380.03,-244.07 400.31,-249.26 419,-253.75 506.03,-274.65 528.8,-275.52 615.75,-296.75 632.81,-300.92 651.14,-305.7 668.26,-310.31"/>
<polygon fill="#63b8ff" stroke="#63b8ff" points="667.29,-313.68 677.86,-312.91 669.13,-306.92 667.29,-313.68"/>
</a>
</g>
</g>
<!-- Node6 -->
<g id="Node000006" class="node">
<title>Node6</title>
<g id="a_Node000006"><a xlink:href="enumfr_1_1softsf_1_1canscan_1_1ui_1_1_qr_code_buffered_image.html#ae787416583ad529236a223551032e887" target="_top" xlink:title="Draws a QR code finder pattern with rounded corners at the specified pixel coordinates.">
<polygon fill="white" stroke="#666666" points="601.88,-244.75 432.88,-244.75 432.88,-200.75 601.88,-200.75 601.88,-244.75"/>
<text text-anchor="start" x="440.88" y="-231.25" font-family="Helvetica,sans-Serif" font-size="10.00">fr.softsf.canscan.ui.QrCode</text>
<text text-anchor="start" x="440.88" y="-219.25" font-family="Helvetica,sans-Serif" font-size="10.00">BufferedImage.drawRoundedFinder</text>
<text text-anchor="middle" x="517.38" y="-207.25" font-family="Helvetica,sans-Serif" font-size="10.00">PatternAtPixel</text>
</a>
</g>
</g>
<!-- Node5&#45;&gt;Node6 -->
<g id="edge7_Node000005_Node000006" class="edge">
<title>Node5&#45;&gt;Node6</title>
<g id="a_edge7_Node000005_Node000006"><a xlink:title=" ">
<path fill="none" stroke="#63b8ff" d="M383.42,-222.75C395.8,-222.75 408.64,-222.75 421.24,-222.75"/>
<polygon fill="#63b8ff" stroke="#63b8ff" points="421.22,-226.25 431.22,-222.75 421.22,-219.25 421.22,-226.25"/>
</a>
</g>
</g>
<!-- Node7 -->
<g id="Node000007" class="node">
<title>Node7</title>
<g id="a_Node000007"><a xlink:href="enumfr_1_1softsf_1_1canscan_1_1ui_1_1_qr_code_buffered_image.html#ad408b9a718a53adbf8891606715a7bba" target="_top" xlink:title="Draws a standard square QR code finder pattern at the specified pixel coordinates.">
<polygon fill="white" stroke="#666666" points="613.5,-182.75 421.25,-182.75 421.25,-138.75 613.5,-138.75 613.5,-182.75"/>
<text text-anchor="start" x="429.25" y="-169.25" font-family="Helvetica,sans-Serif" font-size="10.00">fr.softsf.canscan.ui.QrCode</text>
<text text-anchor="start" x="429.25" y="-157.25" font-family="Helvetica,sans-Serif" font-size="10.00">BufferedImage.drawSquareFinderPattern</text>
<text text-anchor="middle" x="517.38" y="-145.25" font-family="Helvetica,sans-Serif" font-size="10.00">AtPixel</text>
</a>
</g>
</g>
<!-- Node5&#45;&gt;Node7 -->
<g id="edge9_Node000005_Node000007" class="edge">
<title>Node5&#45;&gt;Node7</title>
<g id="a_edge9_Node000005_Node000007"><a xlink:title=" ">
<path fill="none" stroke="#63b8ff" d="M357.88,-206.3C379.11,-200.2 403.72,-193.13 427.13,-186.4"/>
<polygon fill="#63b8ff" stroke="#63b8ff" points="428.04,-189.78 436.69,-183.65 426.11,-183.05 428.04,-189.78"/>
</a>
</g>
</g>
<!-- Node6&#45;&gt;Node2 -->
<g id="edge8_Node000006_Node000002" class="edge">
<title>Node6&#45;&gt;Node2</title>
<g id="a_edge8_Node000006_Node000002"><a xlink:title=" ">
<path fill="none" stroke="#63b8ff" d="M583.97,-245.23C594.72,-249.42 605.64,-253.99 615.75,-258.75 646.23,-273.11 679.16,-292.51 703.14,-307.4"/>
<polygon fill="#63b8ff" stroke="#63b8ff" points="701.22,-310.32 711.55,-312.67 704.94,-304.39 701.22,-310.32"/>
</a>
</g>
</g>
<!-- Node7&#45;&gt;Node2 -->
<g id="edge10_Node000007_Node000002" class="edge">
<title>Node7&#45;&gt;Node2</title>
<g id="a_edge10_Node000007_Node000002"><a xlink:title=" ">
<path fill="none" stroke="#63b8ff" d="M600.15,-183.07C605.58,-185.67 610.84,-188.56 615.75,-191.75 661.71,-221.69 700.89,-273.42 721.75,-304.33"/>
<polygon fill="#63b8ff" stroke="#63b8ff" points="718.6,-305.91 727.03,-312.32 724.43,-302.05 718.6,-305.91"/>
</a>
</g>
</g>
<!-- Node8&#45;&gt;Node2 -->
<g id="edge12_Node000008_Node000002" class="edge">
<title>Node8&#45;&gt;Node2</title>
<g id="a_edge12_Node000008_Node000002"><a xlink:title=" ">
<path fill="none" stroke="#63b8ff" d="M338.73,-153.34C361.54,-144.41 391.39,-134.29 419,-129.75 505.29,-115.57 539.49,-86.97 615.75,-129.75 682.33,-167.11 716.93,-257.17 730.65,-302.59"/>
<polygon fill="#63b8ff" stroke="#63b8ff" points="727.21,-303.29 733.34,-311.92 733.93,-301.34 727.21,-303.29"/>
</a>
</g>
</g>
<!-- Node9&#45;&gt;Node2 -->
<g id="edge14_Node000009_Node000002" class="edge">
<title>Node9&#45;&gt;Node2</title>
<g id="a_edge14_Node000009_Node000002"><a xlink:title=" ">
<path fill="none" stroke="#63b8ff" d="M369.83,-472.9C435.85,-483.05 536.68,-489.67 615.75,-455.75 663.54,-435.25 701.9,-386.07 722.15,-355.57"/>
<polygon fill="#63b8ff" stroke="#63b8ff" points="725.02,-357.58 727.5,-347.28 719.13,-353.79 725.02,-357.58"/>
</a>
</g>
</g>
<!-- Node10 -->
<g id="Node000010" class="node">
<title>Node10</title>
<g id="a_Node000010"><a xlink:href="enumfr_1_1softsf_1_1canscan_1_1ui_1_1_qr_code_buffered_image.html#a7515cc2fe4bc454921afb18d2f6cf5ee" target="_top" xlink:title="Draws a single QR code module at the specified coordinates with configured size and shape.">
<polygon fill="white" stroke="#666666" points="585.75,-446.75 449,-446.75 449,-414.75 585.75,-414.75 585.75,-446.75"/>
<text text-anchor="start" x="457" y="-433.25" font-family="Helvetica,sans-Serif" font-size="10.00">fr.softsf.canscan.ui.QrCode</text>
<text text-anchor="middle" x="517.38" y="-421.25" font-family="Helvetica,sans-Serif" font-size="10.00">BufferedImage.drawModule</text>
</a>
</g>
</g>
<!-- Node9&#45;&gt;Node10 -->
<g id="edge15_Node000009_Node000010" class="edge">
<title>Node9&#45;&gt;Node10</title>
<g id="a_edge15_Node000009_Node000010"><a xlink:title=" ">
<path fill="none" stroke="#63b8ff" d="M369.78,-449.78C391.3,-446.99 415.18,-443.89 437.32,-441.01"/>
<polygon fill="#63b8ff" stroke="#63b8ff" points="437.75,-444.49 447.22,-439.73 436.85,-437.54 437.75,-444.49"/>
</a>
</g>
</g>
<!-- Node11 -->
<g id="Node000011" class="node">
<title>Node11</title>
<g id="a_Node000011"><a xlink:href="enumfr_1_1softsf_1_1canscan_1_1ui_1_1_qr_code_buffered_image.html#a1e86fe28f725b960843bc242bb77f286" target="_top" xlink:title="Determines whether a QR code module should be skipped during rendering.">
<polygon fill="white" stroke="#666666" points="598.12,-534.75 436.62,-534.75 436.62,-502.75 598.12,-502.75 598.12,-534.75"/>
<text text-anchor="start" x="444.62" y="-521.25" font-family="Helvetica,sans-Serif" font-size="10.00">fr.softsf.canscan.ui.QrCode</text>
<text text-anchor="middle" x="517.38" y="-509.25" font-family="Helvetica,sans-Serif" font-size="10.00">BufferedImage.shouldSkipModule</text>
</a>
</g>
</g>
<!-- Node9&#45;&gt;Node11 -->
<g id="edge17_Node000009_Node000011" class="edge">
<title>Node9&#45;&gt;Node11</title>
<g id="a_edge17_Node000009_Node000011"><a xlink:title=" ">
<path fill="none" stroke="#63b8ff" d="M359.87,-475.23C386.63,-482.67 418.44,-491.52 446.37,-499.28"/>
<polygon fill="#63b8ff" stroke="#63b8ff" points="445.24,-502.6 455.81,-501.91 447.11,-495.86 445.24,-502.6"/>
</a>
</g>
</g>
<!-- Node10&#45;&gt;Node2 -->
<g id="edge16_Node000010_Node000002" class="edge">
<title>Node10&#45;&gt;Node2</title>
<g id="a_edge16_Node000010_Node000002"><a xlink:title=" ">
<path fill="none" stroke="#63b8ff" d="M579.41,-414.29C591.63,-410.34 604.25,-405.79 615.75,-400.75 646.81,-387.15 679.94,-367.53 703.84,-352.37"/>
<polygon fill="#63b8ff" stroke="#63b8ff" points="705.7,-355.34 712.22,-346.99 701.91,-349.45 705.7,-355.34"/>
</a>
</g>
</g>
<!-- Node11&#45;&gt;Node2 -->
<g id="edge18_Node000011_Node000002" class="edge">
<title>Node11&#45;&gt;Node2</title>
<g id="a_edge18_Node000011_Node000002"><a xlink:title=" ">
<path fill="none" stroke="#63b8ff" d="M590.18,-502.27C599.2,-498.61 607.98,-494.15 615.75,-488.75 666.26,-453.65 705.23,-391.24 724.52,-355.96"/>
<polygon fill="#63b8ff" stroke="#63b8ff" points="727.54,-357.74 729.16,-347.27 721.36,-354.45 727.54,-357.74"/>
</a>
</g>
</g>
<!-- Node12 -->
<g id="Node000012" class="node">
<title>Node12</title>
<g id="a_Node000012"><a xlink:href="enumfr_1_1softsf_1_1canscan_1_1ui_1_1_qr_code_buffered_image.html#a4bc72b6a6cf4ca35f82d4cd2899c7818" target="_top" xlink:title="Determines whether the given coordinates fall within any of the three QR code position patterns.">
<polygon fill="white" stroke="#666666" points="821.12,-534.75 656.62,-534.75 656.62,-502.75 821.12,-502.75 821.12,-534.75"/>
<text text-anchor="start" x="664.62" y="-521.25" font-family="Helvetica,sans-Serif" font-size="10.00">fr.softsf.canscan.ui.QrCode</text>
<text text-anchor="middle" x="738.88" y="-509.25" font-family="Helvetica,sans-Serif" font-size="10.00">BufferedImage.isInPositionPattern</text>
</a>
</g>
</g>
<!-- Node11&#45;&gt;Node12 -->
<g id="edge19_Node000011_Node000012" class="edge">
<title>Node11&#45;&gt;Node12</title>
<g id="a_edge19_Node000011_Node000012"><a xlink:title=" ">
<path fill="none" stroke="#63b8ff" d="M598.55,-518.75C613.73,-518.75 629.72,-518.75 645.24,-518.75"/>
<polygon fill="#63b8ff" stroke="#63b8ff" points="644.93,-522.25 654.93,-518.75 644.93,-515.25 644.93,-522.25"/>
</a>
</g>
</g>
<!-- Node13 -->
<g id="Node000013" class="node">
<title>Node13</title>
<g id="a_Node000013"><a xlink:href="enumfr_1_1softsf_1_1canscan_1_1ui_1_1_qr_code_buffered_image.html#acdbacde2b4cabcb6003fbf7ac3699852" target="_top" xlink:title="Checks if coordinates are within the bottom&#45;left position pattern.">
<polygon fill="white" stroke="#666666" points="1039.25,-534.75 862,-534.75 862,-502.75 1039.25,-502.75 1039.25,-534.75"/>
<text text-anchor="start" x="870" y="-521.25" font-family="Helvetica,sans-Serif" font-size="10.00">fr.softsf.canscan.ui.QrCode</text>
<text text-anchor="middle" x="950.62" y="-509.25" font-family="Helvetica,sans-Serif" font-size="10.00">BufferedImage.isInBottomLeftPattern</text>
</a>
</g>
</g>
<!-- Node12&#45;&gt;Node13 -->
<g id="edge20_Node000012_Node000013" class="edge">
<title>Node12&#45;&gt;Node13</title>
<g id="a_edge20_Node000012_Node000013"><a xlink:title=" ">
<path fill="none" stroke="#63b8ff" d="M821.57,-518.75C831,-518.75 840.68,-518.75 850.31,-518.75"/>
<polygon fill="#63b8ff" stroke="#63b8ff" points="850.05,-522.25 860.05,-518.75 850.05,-515.25 850.05,-522.25"/>
</a>
</g>
</g>
<!-- Node14 -->
<g id="Node000014" class="node">
<title>Node14</title>
<g id="a_Node000014"><a xlink:href="enumfr_1_1softsf_1_1canscan_1_1ui_1_1_qr_code_buffered_image.html#a3951aad146f1247d0b23eae74de9e5dd" target="_top" xlink:title="Checks if coordinates are within the top&#45;left position pattern.">
<polygon fill="white" stroke="#666666" points="1031.38,-484.75 869.88,-484.75 869.88,-452.75 1031.38,-452.75 1031.38,-484.75"/>
<text text-anchor="start" x="877.88" y="-471.25" font-family="Helvetica,sans-Serif" font-size="10.00">fr.softsf.canscan.ui.QrCode</text>
<text text-anchor="middle" x="950.62" y="-459.25" font-family="Helvetica,sans-Serif" font-size="10.00">BufferedImage.isInTopLeftPattern</text>
</a>
</g>
</g>
<!-- Node12&#45;&gt;Node14 -->
<g id="edge21_Node000012_Node000014" class="edge">
<title>Node12&#45;&gt;Node14</title>
<g id="a_edge21_Node000012_Node000014"><a xlink:title=" ">
<path fill="none" stroke="#63b8ff" d="M808.85,-502.31C828.29,-497.68 849.61,-492.6 869.64,-487.82"/>
<polygon fill="#63b8ff" stroke="#63b8ff" points="870.22,-491.28 879.14,-485.55 868.6,-484.47 870.22,-491.28"/>
</a>
</g>
</g>
<!-- Node15 -->
<g id="Node000015" class="node">
<title>Node15</title>
<g id="a_Node000015"><a xlink:href="enumfr_1_1softsf_1_1canscan_1_1ui_1_1_qr_code_buffered_image.html#ad31e256d4159e4a6a791b995c9629863" target="_top" xlink:title="Checks if coordinates are within the top&#45;right position pattern.">
<polygon fill="white" stroke="#666666" points="1034.75,-584.75 866.5,-584.75 866.5,-552.75 1034.75,-552.75 1034.75,-584.75"/>
<text text-anchor="start" x="874.5" y="-571.25" font-family="Helvetica,sans-Serif" font-size="10.00">fr.softsf.canscan.ui.QrCode</text>
<text text-anchor="middle" x="950.62" y="-559.25" font-family="Helvetica,sans-Serif" font-size="10.00">BufferedImage.isInTopRightPattern</text>
</a>
</g>
</g>
<!-- Node12&#45;&gt;Node15 -->
<g id="edge22_Node000012_Node000015" class="edge">
<title>Node12&#45;&gt;Node15</title>
<g id="a_edge22_Node000012_Node000015"><a xlink:title=" ">
<path fill="none" stroke="#63b8ff" d="M808.85,-535.19C828.29,-539.83 849.61,-544.91 869.64,-549.69"/>
<polygon fill="#63b8ff" stroke="#63b8ff" points="868.6,-553.04 879.14,-551.95 870.22,-546.23 868.6,-553.04"/>
</a>
</g>
</g>
<!-- Node17&#45;&gt;Node2 -->
<g id="edge25_Node000017_Node000002" class="edge">
<title>Node17&#45;&gt;Node2</title>
<g id="a_edge25_Node000017_Node000002"><a xlink:title=" ">
<path fill="none" stroke="#63b8ff" d="M371.81,-389.42C435.98,-385.59 532.75,-377.81 615.75,-362.75 634.81,-359.3 655.23,-354.3 673.81,-349.25"/>
<polygon fill="#63b8ff" stroke="#63b8ff" points="674.66,-352.64 683.36,-346.59 672.79,-345.9 674.66,-352.64"/>
</a>
</g>
</g>
<!-- Node19&#45;&gt;Node16 -->
<g id="edge28_Node000019_Node000016" class="edge">
<title>Node19&#45;&gt;Node16</title>
<g id="a_edge28_Node000019_Node000016"><a xlink:title=" ">
<path fill="none" stroke="#63b8ff" d="M382.5,-66.75C390.61,-66.75 398.93,-66.75 407.27,-66.75"/>
<polygon fill="#63b8ff" stroke="#63b8ff" points="407.1,-70.25 417.1,-66.75 407.1,-63.25 407.1,-70.25"/>
</a>
</g>
</g>
<!-- Node19&#45;&gt;Node18 -->
<g id="edge29_Node000019_Node000018" class="edge">
<title>Node19&#45;&gt;Node18</title>
<g id="a_edge29_Node000019_Node000018"><a xlink:title=" ">
<path fill="none" stroke="#63b8ff" d="M382.5,-47.78C399.51,-43.84 417.45,-39.68 434.46,-35.74"/>
<polygon fill="#63b8ff" stroke="#63b8ff" points="435.07,-39.19 444.02,-33.52 433.49,-32.37 435.07,-39.19"/>
</a>
</g>
</g>
</g>
</svg>
