<?xml version="1.0" encoding="UTF-8" standalone="no"?>
<!DOCTYPE svg PUBLIC "-//W3C//DTD SVG 1.1//EN"
 "http://www.w3.org/Graphics/SVG/1.1/DTD/svg11.dtd">
<!-- Generated by graphviz version 12.2.1 (20241206.2353)
 -->
<!-- Title: fr.softsf.canscan.ui.QrCodeBufferedImage.shouldSkipModule Pages: 1 -->
<!--zoomable 190 -->

<svg id="main" version="1.1" xmlns="http://www.w3.org/2000/svg" xmlns:xlink="http://www.w3.org/1999/xlink" xml:space="preserve" onload="init(evt)">

<style type="text/css"><![CDATA[
.node, .edge {opacity: 0.7;}
.node.selected, .edge.selected {opacity: 1;}
.edge:hover path { stroke: red; }
.edge:hover polygon { stroke: red; fill: red; }
]]></style>

<defs>
  <circle id="rim" cx="0" cy="0" r="7"/>
  <circle id="rim2" cx="0" cy="0" r="3.5"/>
  <g id="zoomPlus">
    <use xlink:href="#rim" fill="#404040"><set attributeName="fill" to="#808080" begin="zoomplus.mouseover" end="zoomplus.mouseout"/></use>
    <path d="M-4,0h8M0,-4v8" fill="none" stroke="white" stroke-width="1.5" pointer-events="none"/>
  </g>
  <g id="zoomMin">
    <use xlink:href="#rim" fill="#404040"><set attributeName="fill" to="#808080" begin="zoomminus.mouseover" end="zoomminus.mouseout"/></use>
    <path d="M-4,0h8" fill="none" stroke="white" stroke-width="1.5" pointer-events="none"/>
  </g>
  <g id="arrowUp" transform="translate(30 24)">
    <use xlink:href="#rim"/>
    <path pointer-events="none" fill="none" stroke="white" stroke-width="1.5" d="M0,-3.0v7 M-2.5,-0.5L0,-3.0L2.5,-0.5"/>
  </g>
  <g id="arrowRight" transform="rotate(90) translate(36 -43)">
    <use xlink:href="#rim"/>
    <path pointer-events="none" fill="none" stroke="white" stroke-width="1.5" d="M0,-3.0v7 M-2.5,-0.5L0,-3.0L2.5,-0.5"/>
  </g>
  <g id="arrowDown" transform="rotate(180) translate(-30 -48)">
    <use xlink:href="#rim"/>
    <path pointer-events="none" fill="none" stroke="white" stroke-width="1.5" d="M0,-3.0v7 M-2.5,-0.5L0,-3.0L2.5,-0.5"/>
  </g>
  <g id="arrowLeft" transform="rotate(270) translate(-36 17)">
    <use xlink:href="#rim"/>
    <path pointer-events="none" fill="none" stroke="white" stroke-width="1.5" d="M0,-3.0v7 M-2.5,-0.5L0,-3.0L2.5,-0.5"/>
  </g>
  <g id="resetDef">
    <use xlink:href="#rim2" fill="#404040"><set attributeName="fill" to="#808080" begin="reset.mouseover" end="reset.mouseout"/></use>
  </g>
</defs>
<script type="application/ecmascript">
var viewWidth = 593;
var viewHeight = 190;
var sectionId = 'dynsection-11';
</script>
<script type="application/ecmascript" xlink:href="svg.min.js"/>
<svg id="graph" class="graph">
<g id="viewport">
<title>fr.softsf.canscan.ui.QrCodeBufferedImage.shouldSkipModule</title>
<!-- Node1 -->
<g id="Node000001" class="node">
<title>Node1</title>
<g id="a_Node000001"><a xlink:title="Determines whether a QR code module should be skipped during rendering.">
<polygon fill="#999999" stroke="#666666" points="161.5,-132 0,-132 0,-100 161.5,-100 161.5,-132"/>
<text text-anchor="start" x="8" y="-118.5" font-family="Helvetica,sans-Serif" font-size="10.00">fr.softsf.canscan.ui.QrCode</text>
<text text-anchor="middle" x="80.75" y="-106.5" font-family="Helvetica,sans-Serif" font-size="10.00">BufferedImage.shouldSkipModule</text>
</a>
</g>
</g>
<!-- Node2 -->
<g id="Node000002" class="node">
<title>Node2</title>
<g id="a_Node000002"><a xlink:href="enumfr_1_1softsf_1_1canscan_1_1util_1_1_checker.html#a38aa8db97b16480c728481f1835da11f" target="_top" xlink:title="Checks if the given object is null in a static context and displays an error dialog if so.">
<polygon fill="white" stroke="#666666" points="371.75,-169 197.5,-169 197.5,-137 371.75,-137 371.75,-169"/>
<text text-anchor="start" x="205.5" y="-155.5" font-family="Helvetica,sans-Serif" font-size="10.00">fr.softsf.canscan.util.Checker.check</text>
<text text-anchor="middle" x="284.62" y="-143.5" font-family="Helvetica,sans-Serif" font-size="10.00">StaticNPE</text>
</a>
</g>
</g>
<!-- Node1&#45;&gt;Node2 -->
<g id="edge1_Node000001_Node000002" class="edge">
<title>Node1&#45;&gt;Node2</title>
<g id="a_edge1_Node000001_Node000002"><a xlink:title=" ">
<path fill="none" stroke="#63b8ff" d="M161.83,-130.68C169.68,-132.12 177.72,-133.59 185.72,-135.06"/>
<polygon fill="#63b8ff" stroke="#63b8ff" points="185.05,-138.49 195.52,-136.85 186.31,-131.61 185.05,-138.49"/>
</a>
</g>
</g>
<!-- Node4 -->
<g id="Node000004" class="node">
<title>Node4</title>
<g id="a_Node000004"><a xlink:href="enumfr_1_1softsf_1_1canscan_1_1ui_1_1_qr_code_buffered_image.html#a4bc72b6a6cf4ca35f82d4cd2899c7818" target="_top" xlink:title="Determines whether the given coordinates fall within any of the three QR code position patterns.">
<polygon fill="white" stroke="#666666" points="366.88,-107 202.38,-107 202.38,-75 366.88,-75 366.88,-107"/>
<text text-anchor="start" x="210.38" y="-93.5" font-family="Helvetica,sans-Serif" font-size="10.00">fr.softsf.canscan.ui.QrCode</text>
<text text-anchor="middle" x="284.62" y="-81.5" font-family="Helvetica,sans-Serif" font-size="10.00">BufferedImage.isInPositionPattern</text>
</a>
</g>
</g>
<!-- Node1&#45;&gt;Node4 -->
<g id="edge3_Node000001_Node000004" class="edge">
<title>Node1&#45;&gt;Node4</title>
<g id="a_edge3_Node000001_Node000004"><a xlink:title=" ">
<path fill="none" stroke="#63b8ff" d="M161.83,-106.08C171.32,-104.91 181.07,-103.7 190.73,-102.5"/>
<polygon fill="#63b8ff" stroke="#63b8ff" points="191,-106 200.49,-101.3 190.14,-99.05 191,-106"/>
</a>
</g>
</g>
<!-- Node3 -->
<g id="Node000003" class="node">
<title>Node3</title>
<g id="a_Node000003"><a xlink:href="enumfr_1_1softsf_1_1canscan_1_1util_1_1_checker.html#af3fc9dd2a33f4d12c5db8cf2aeea17d7" target="_top" xlink:title="Validates that the given object is non&#45;null and, if a String, not blank.">
<polygon fill="white" stroke="#666666" points="583.5,-182 409.25,-182 409.25,-150 583.5,-150 583.5,-182"/>
<text text-anchor="start" x="417.25" y="-168.5" font-family="Helvetica,sans-Serif" font-size="10.00">fr.softsf.canscan.util.Checker.check</text>
<text text-anchor="middle" x="496.38" y="-156.5" font-family="Helvetica,sans-Serif" font-size="10.00">NullOrBlankInternal</text>
</a>
</g>
</g>
<!-- Node2&#45;&gt;Node3 -->
<g id="edge2_Node000002_Node000003" class="edge">
<title>Node2&#45;&gt;Node3</title>
<g id="a_edge2_Node000002_Node000003"><a xlink:title=" ">
<path fill="none" stroke="#63b8ff" d="M372.15,-158.36C380.62,-158.89 389.26,-159.42 397.84,-159.95"/>
<polygon fill="#63b8ff" stroke="#63b8ff" points="397.34,-163.43 407.54,-160.56 397.77,-156.44 397.34,-163.43"/>
</a>
</g>
</g>
<!-- Node5 -->
<g id="Node000005" class="node">
<title>Node5</title>
<g id="a_Node000005"><a xlink:href="enumfr_1_1softsf_1_1canscan_1_1ui_1_1_qr_code_buffered_image.html#acdbacde2b4cabcb6003fbf7ac3699852" target="_top" xlink:title="Checks if coordinates are within the bottom&#45;left position pattern.">
<polygon fill="white" stroke="#666666" points="585,-132 407.75,-132 407.75,-100 585,-100 585,-132"/>
<text text-anchor="start" x="415.75" y="-118.5" font-family="Helvetica,sans-Serif" font-size="10.00">fr.softsf.canscan.ui.QrCode</text>
<text text-anchor="middle" x="496.38" y="-106.5" font-family="Helvetica,sans-Serif" font-size="10.00">BufferedImage.isInBottomLeftPattern</text>
</a>
</g>
</g>
<!-- Node4&#45;&gt;Node5 -->
<g id="edge4_Node000004_Node000005" class="edge">
<title>Node4&#45;&gt;Node5</title>
<g id="a_edge4_Node000004_Node000005"><a xlink:title=" ">
<path fill="none" stroke="#63b8ff" d="M367.32,-100.74C376.75,-101.86 386.43,-103.02 396.06,-104.16"/>
<polygon fill="#63b8ff" stroke="#63b8ff" points="395.46,-107.62 405.81,-105.32 396.29,-100.67 395.46,-107.62"/>
</a>
</g>
</g>
<!-- Node6 -->
<g id="Node000006" class="node">
<title>Node6</title>
<g id="a_Node000006"><a xlink:href="enumfr_1_1softsf_1_1canscan_1_1ui_1_1_qr_code_buffered_image.html#a3951aad146f1247d0b23eae74de9e5dd" target="_top" xlink:title="Checks if coordinates are within the top&#45;left position pattern.">
<polygon fill="white" stroke="#666666" points="577.12,-82 415.62,-82 415.62,-50 577.12,-50 577.12,-82"/>
<text text-anchor="start" x="423.62" y="-68.5" font-family="Helvetica,sans-Serif" font-size="10.00">fr.softsf.canscan.ui.QrCode</text>
<text text-anchor="middle" x="496.38" y="-56.5" font-family="Helvetica,sans-Serif" font-size="10.00">BufferedImage.isInTopLeftPattern</text>
</a>
</g>
</g>
<!-- Node4&#45;&gt;Node6 -->
<g id="edge5_Node000004_Node000006" class="edge">
<title>Node4&#45;&gt;Node6</title>
<g id="a_edge5_Node000004_Node000006"><a xlink:title=" ">
<path fill="none" stroke="#63b8ff" d="M367.32,-81.26C379.39,-79.82 391.88,-78.34 404.13,-76.88"/>
<polygon fill="#63b8ff" stroke="#63b8ff" points="404.26,-80.38 413.78,-75.73 403.43,-73.43 404.26,-80.38"/>
</a>
</g>
</g>
<!-- Node7 -->
<g id="Node000007" class="node">
<title>Node7</title>
<g id="a_Node000007"><a xlink:href="enumfr_1_1softsf_1_1canscan_1_1ui_1_1_qr_code_buffered_image.html#ad31e256d4159e4a6a791b995c9629863" target="_top" xlink:title="Checks if coordinates are within the top&#45;right position pattern.">
<polygon fill="white" stroke="#666666" points="580.5,-32 412.25,-32 412.25,0 580.5,0 580.5,-32"/>
<text text-anchor="start" x="420.25" y="-18.5" font-family="Helvetica,sans-Serif" font-size="10.00">fr.softsf.canscan.ui.QrCode</text>
<text text-anchor="middle" x="496.38" y="-6.5" font-family="Helvetica,sans-Serif" font-size="10.00">BufferedImage.isInTopRightPattern</text>
</a>
</g>
</g>
<!-- Node4&#45;&gt;Node7 -->
<g id="edge6_Node000004_Node000007" class="edge">
<title>Node4&#45;&gt;Node7</title>
<g id="a_edge6_Node000004_Node000007"><a xlink:title=" ">
<path fill="none" stroke="#63b8ff" d="M322.63,-74.6C346.64,-64.27 378.74,-51.04 407.75,-41 412.81,-39.25 418.06,-37.52 423.37,-35.85"/>
<polygon fill="#63b8ff" stroke="#63b8ff" points="424.32,-39.22 432.85,-32.93 422.26,-32.53 424.32,-39.22"/>
</a>
</g>
</g>
</g>
</svg>

<g id="navigator" transform="translate(0 0)" fill="#404254">
  <rect fill="#f2f5e9" fill-opacity="0.5" stroke="#606060" stroke-width=".5" x="0" y="0" width="60" height="60"/>
  <use id="zoomplus" xlink:href="#zoomPlus" x="17" y="9" onmousedown="handleZoom(evt,'in')"/>
  <use id="zoomminus" xlink:href="#zoomMin" x="42" y="9" onmousedown="handleZoom(evt,'out')"/>
  <use id="reset" xlink:href="#resetDef" x="30" y="36" onmousedown="handleReset()"/>
   <use id="arrowup" xlink:href="#arrowUp" x="0" y="0" onmousedown="handlePan(0,-1)"/>
  <use id="arrowright" xlink:href="#arrowRight" x="0" y="0" onmousedown="handlePan(1,0)"/>
  <use id="arrowdown" xlink:href="#arrowDown" x="0" y="0" onmousedown="handlePan(0,1)"/>
  <use id="arrowleft" xlink:href="#arrowLeft" x="0" y="0" onmousedown="handlePan(-1,0)"/>
</g>
<svg viewBox="0 0 15 15" width="100%" height="30px" preserveAspectRatio="xMaxYMin meet">
 <g id="arrow_out" transform="scale(0.3 0.3)">
  <a xlink:href="enumfr_1_1softsf_1_1canscan_1_1ui_1_1_qr_code_buffered_image_a1e86fe28f725b960843bc242bb77f286_cgraph_org.svg" target="_base">
   <rect id="button" ry="5" rx="5" y="6" x="6" height="38" width="38"
        fill="#f2f5e9" fill-opacity="0.5" stroke="#606060" stroke-width="1.0"/>
   <path id="arrow"
     d="M 11.500037,31.436501 C 11.940474,20.09759 22.043105,11.32322 32.158766,21.979434 L 37.068811,17.246167 C 37.068811,17.246167 37.088388,32 37.088388,32 L 22.160133,31.978069 C 22.160133,31.978069 26.997745,27.140456 26.997745,27.140456 C 18.528582,18.264221 13.291696,25.230495 11.500037,31.436501 z"
     style="fill:#404040;"/>
  </a>
 </g>
</svg>

<style type='text/css'>
<![CDATA[
[data-mouse-over-selected='false'] { opacity: 0.7; }
[data-mouse-over-selected='true']  { opacity: 1.0; }
]]>
</style>
<script type="application/ecmascript"><![CDATA[
document.addEventListener('DOMContentLoaded', (event) => {
  highlightEdges();
  highlightAdjacentNodes();
});
]]></script>
</svg>
