<?xml version="1.0" encoding="UTF-8" standalone="no"?>
<!DOCTYPE svg PUBLIC "-//W3C//DTD SVG 1.1//EN"
 "http://www.w3.org/Graphics/SVG/1.1/DTD/svg11.dtd">
<!-- Generated by graphviz version 12.2.1 (20241206.2353)
 -->
<!-- Title: fr.softsf.canscan.constant.FloatConstants Pages: 1 -->
<svg width="174pt" height="116pt"
 viewBox="0.00 0.00 173.75 116.00" xmlns="http://www.w3.org/2000/svg" xmlns:xlink="http://www.w3.org/1999/xlink">
<g id="graph0" class="graph" transform="scale(1 1) rotate(0) translate(4 112)">
<title>fr.softsf.canscan.constant.FloatConstants</title>
<!-- Node1 -->
<g id="Node000001" class="node">
<title>Node1</title>
<g id="a_Node000001"><a xlink:title="Float constants.">
<polygon fill="#999999" stroke="none" points="165.75,-108 0,-108 0,0 165.75,0 165.75,-108"/>
<text text-anchor="start" x="24.38" y="-94.5" font-family="Helvetica,sans-Serif" font-size="10.00">fr.softsf.canscan.constant.</text>
<text text-anchor="start" x="49.5" y="-82.5" font-family="Helvetica,sans-Serif" font-size="10.00">FloatConstants</text>
<text text-anchor="start" x="4" y="-66.5" font-family="Helvetica,sans-Serif" font-size="10.00">+</text>
<text text-anchor="start" x="14" y="-66.5" font-family="Helvetica,sans-Serif" font-size="10.00">OVERLAY_PANEL_ALIGNMENT</text>
<text text-anchor="start" x="5.5" y="-50.5" font-family="Helvetica,sans-Serif" font-size="10.00">&#45;</text>
<text text-anchor="start" x="14" y="-50.5" font-family="Helvetica,sans-Serif" font-size="10.00">final float value</text>
<text text-anchor="start" x="4" y="-34.5" font-family="Helvetica,sans-Serif" font-size="10.00">+</text>
<text text-anchor="start" x="14" y="-34.5" font-family="Helvetica,sans-Serif" font-size="10.00">FloatConstants(float</text>
<text text-anchor="start" x="14" y="-22.5" font-family="Helvetica,sans-Serif" font-size="10.00"> value)</text>
<text text-anchor="start" x="4" y="-6.5" font-family="Helvetica,sans-Serif" font-size="10.00">+</text>
<text text-anchor="start" x="14" y="-6.5" font-family="Helvetica,sans-Serif" font-size="10.00">float getValue()</text>
<polygon fill="#666666" stroke="#666666" points="0,-78 0,-78 165.75,-78 165.75,-78 0,-78"/>
<polygon fill="#666666" stroke="#666666" points="0,-46 0,-46 12,-46 12,-46 0,-46"/>
<polygon fill="#666666" stroke="#666666" points="12,-46 12,-46 165.75,-46 165.75,-46 12,-46"/>
<polygon fill="none" stroke="#666666" points="0,0 0,-108 165.75,-108 165.75,0 0,0"/>
</a>
</g>
</g>
</g>
</svg>
