<?xml version="1.0" encoding="UTF-8" standalone="no"?>
<!DOCTYPE svg PUBLIC "-//W3C//DTD SVG 1.1//EN"
 "http://www.w3.org/Graphics/SVG/1.1/DTD/svg11.dtd">
<!-- Generated by graphviz version 12.2.1 (20241206.2353)
 -->
<!-- Title: fr.softsf.canscan.ui.QrCodeImageules Pages: 1 -->
<svg width="769pt" height="190pt"
 viewBox="0.00 0.00 768.75 190.00" xmlns="http://www.w3.org/2000/svg" xmlns:xlink="http://www.w3.org/1999/xlink">
<g id="graph0" class="graph" transform="scale(1 1) rotate(0) translate(4 186)">
<title>fr.softsf.canscan.ui.EncodedImage.drawModules</title>
<!-- Node1 -->
<g id="Node000001" class="node">
<title>Node1</title>
<g id="a_Node000001"><a xlink:title="Renders all QR code modules onto the provided graphics context.">
<polygon fill="#999999" stroke="#666666" points="139.75,-163 0,-163 0,-131 139.75,-131 139.75,-163"/>
<text text-anchor="start" x="8" y="-149.5" font-family="Helvetica,sans-Serif" font-size="10.00">fr.softsf.canscan.ui.QrCode</text>
<text text-anchor="middle" x="69.88" y="-137.5" font-family="Helvetica,sans-Serif" font-size="10.00">BufferedImage.drawModules</text>
</a>
</g>
</g>
<!-- Node2 -->
<g id="Node000002" class="node">
<title>Node2</title>
<g id="a_Node000002"><a xlink:href="enumfr_1_1softsf_1_1canscan_1_1util_1_1_checker.html#a38aa8db97b16480c728481f1835da11f" target="_top" xlink:title="Checks if the given object is null in a static context and displays an error dialog if so.">
<polygon fill="white" stroke="#666666" points="547.5,-175 373.25,-175 373.25,-143 547.5,-143 547.5,-175"/>
<text text-anchor="start" x="381.25" y="-161.5" font-family="Helvetica,sans-Serif" font-size="10.00">fr.softsf.canscan.util.Checker.check</text>
<text text-anchor="middle" x="460.38" y="-149.5" font-family="Helvetica,sans-Serif" font-size="10.00">StaticNPE</text>
</a>
</g>
</g>
<!-- Node1&#45;&gt;Node2 -->
<g id="edge1_Node000001_Node000002" class="edge">
<title>Node1&#45;&gt;Node2</title>
<g id="a_edge1_Node000001_Node000002"><a xlink:title=" ">
<path fill="none" stroke="#63b8ff" d="M129.24,-163.46C144.27,-167 160.51,-170.21 175.75,-172 237.22,-179.23 306.63,-176.24 361.39,-171.31"/>
<polygon fill="#63b8ff" stroke="#63b8ff" points="361.72,-174.8 371.34,-170.38 361.06,-167.83 361.72,-174.8"/>
</a>
</g>
</g>
<!-- Node4 -->
<g id="Node000004" class="node">
<title>Node4</title>
<g id="a_Node000004"><a xlink:href="enumfr_1_1softsf_1_1canscan_1_1ui_1_1_qr_code_buffered_image.html#a7515cc2fe4bc454921afb18d2f6cf5ee" target="_top" xlink:title="Draws a single QR code module at the specified coordinates with configured size and shape.">
<polygon fill="white" stroke="#666666" points="324.88,-163 188.12,-163 188.12,-131 324.88,-131 324.88,-163"/>
<text text-anchor="start" x="196.12" y="-149.5" font-family="Helvetica,sans-Serif" font-size="10.00">fr.softsf.canscan.ui.QrCode</text>
<text text-anchor="middle" x="256.5" y="-137.5" font-family="Helvetica,sans-Serif" font-size="10.00">BufferedImage.drawModule</text>
</a>
</g>
</g>
<!-- Node1&#45;&gt;Node4 -->
<g id="edge3_Node000001_Node000004" class="edge">
<title>Node1&#45;&gt;Node4</title>
<g id="a_edge3_Node000001_Node000004"><a xlink:title=" ">
<path fill="none" stroke="#63b8ff" d="M140.15,-147C151.93,-147 164.26,-147 176.27,-147"/>
<polygon fill="#63b8ff" stroke="#63b8ff" points="176.16,-150.5 186.16,-147 176.16,-143.5 176.16,-150.5"/>
</a>
</g>
</g>
<!-- Node5 -->
<g id="Node000005" class="node">
<title>Node5</title>
<g id="a_Node000005"><a xlink:href="enumfr_1_1softsf_1_1canscan_1_1ui_1_1_qr_code_buffered_image.html#a1e86fe28f725b960843bc242bb77f286" target="_top" xlink:title="Determines whether a QR code module should be skipped during rendering.">
<polygon fill="white" stroke="#666666" points="337.25,-113 175.75,-113 175.75,-81 337.25,-81 337.25,-113"/>
<text text-anchor="start" x="183.75" y="-99.5" font-family="Helvetica,sans-Serif" font-size="10.00">fr.softsf.canscan.ui.QrCode</text>
<text text-anchor="middle" x="256.5" y="-87.5" font-family="Helvetica,sans-Serif" font-size="10.00">BufferedImage.shouldSkipModule</text>
</a>
</g>
</g>
<!-- Node1&#45;&gt;Node5 -->
<g id="edge5_Node000001_Node000005" class="edge">
<title>Node1&#45;&gt;Node5</title>
<g id="a_edge5_Node000001_Node000005"><a xlink:title=" ">
<path fill="none" stroke="#63b8ff" d="M131.58,-130.56C148.38,-126.01 166.77,-121.03 184.11,-116.33"/>
<polygon fill="#63b8ff" stroke="#63b8ff" points="184.56,-119.84 193.29,-113.85 182.73,-113.08 184.56,-119.84"/>
</a>
</g>
</g>
<!-- Node3 -->
<g id="Node000003" class="node">
<title>Node3</title>
<g id="a_Node000003"><a xlink:href="enumfr_1_1softsf_1_1canscan_1_1util_1_1_checker.html#af3fc9dd2a33f4d12c5db8cf2aeea17d7" target="_top" xlink:title="Validates that the given object is non&#45;null and, if a String, not blank.">
<polygon fill="white" stroke="#666666" points="759.25,-182 585,-182 585,-150 759.25,-150 759.25,-182"/>
<text text-anchor="start" x="593" y="-168.5" font-family="Helvetica,sans-Serif" font-size="10.00">fr.softsf.canscan.util.Checker.check</text>
<text text-anchor="middle" x="672.12" y="-156.5" font-family="Helvetica,sans-Serif" font-size="10.00">NullOrBlankInternal</text>
</a>
</g>
</g>
<!-- Node2&#45;&gt;Node3 -->
<g id="edge2_Node000002_Node000003" class="edge">
<title>Node2&#45;&gt;Node3</title>
<g id="a_edge2_Node000002_Node000003"><a xlink:title=" ">
<path fill="none" stroke="#63b8ff" d="M547.9,-161.89C556.28,-162.17 564.82,-162.45 573.3,-162.74"/>
<polygon fill="#63b8ff" stroke="#63b8ff" points="573.18,-166.23 583.29,-163.07 573.41,-159.24 573.18,-166.23"/>
</a>
</g>
</g>
<!-- Node4&#45;&gt;Node2 -->
<g id="edge4_Node000004_Node000002" class="edge">
<title>Node4&#45;&gt;Node2</title>
<g id="a_edge4_Node000004_Node000002"><a xlink:title=" ">
<path fill="none" stroke="#63b8ff" d="M325.28,-151.03C336.95,-151.72 349.28,-152.46 361.54,-153.18"/>
<polygon fill="#63b8ff" stroke="#63b8ff" points="361.07,-156.66 371.26,-153.76 361.48,-149.67 361.07,-156.66"/>
</a>
</g>
</g>
<!-- Node5&#45;&gt;Node2 -->
<g id="edge6_Node000005_Node000002" class="edge">
<title>Node5&#45;&gt;Node2</title>
<g id="a_edge6_Node000005_Node000002"><a xlink:title=" ">
<path fill="none" stroke="#63b8ff" d="M311.07,-113.45C336.84,-121.37 367.93,-130.92 394.98,-139.22"/>
<polygon fill="#63b8ff" stroke="#63b8ff" points="393.87,-142.54 404.46,-142.13 395.93,-135.85 393.87,-142.54"/>
</a>
</g>
</g>
<!-- Node6 -->
<g id="Node000006" class="node">
<title>Node6</title>
<g id="a_Node000006"><a xlink:href="enumfr_1_1softsf_1_1canscan_1_1ui_1_1_qr_code_buffered_image.html#a4bc72b6a6cf4ca35f82d4cd2899c7818" target="_top" xlink:title="Determines whether the given coordinates fall within any of the three QR code position patterns.">
<polygon fill="white" stroke="#666666" points="542.62,-88 378.12,-88 378.12,-56 542.62,-56 542.62,-88"/>
<text text-anchor="start" x="386.12" y="-74.5" font-family="Helvetica,sans-Serif" font-size="10.00">fr.softsf.canscan.ui.QrCode</text>
<text text-anchor="middle" x="460.38" y="-62.5" font-family="Helvetica,sans-Serif" font-size="10.00">BufferedImage.isInPositionPattern</text>
</a>
</g>
</g>
<!-- Node5&#45;&gt;Node6 -->
<g id="edge7_Node000005_Node000006" class="edge">
<title>Node5&#45;&gt;Node6</title>
<g id="a_edge7_Node000005_Node000006"><a xlink:title=" ">
<path fill="none" stroke="#63b8ff" d="M337.58,-87.08C347.07,-85.91 356.82,-84.7 366.48,-83.5"/>
<polygon fill="#63b8ff" stroke="#63b8ff" points="366.75,-87 376.24,-82.3 365.89,-80.05 366.75,-87"/>
</a>
</g>
</g>
<!-- Node7 -->
<g id="Node000007" class="node">
<title>Node7</title>
<g id="a_Node000007"><a xlink:href="enumfr_1_1softsf_1_1canscan_1_1ui_1_1_qr_code_buffered_image.html#acdbacde2b4cabcb6003fbf7ac3699852" target="_top" xlink:title="Checks if coordinates are within the bottom&#45;left position pattern.">
<polygon fill="white" stroke="#666666" points="760.75,-132 583.5,-132 583.5,-100 760.75,-100 760.75,-132"/>
<text text-anchor="start" x="591.5" y="-118.5" font-family="Helvetica,sans-Serif" font-size="10.00">fr.softsf.canscan.ui.QrCode</text>
<text text-anchor="middle" x="672.12" y="-106.5" font-family="Helvetica,sans-Serif" font-size="10.00">BufferedImage.isInBottomLeftPattern</text>
</a>
</g>
</g>
<!-- Node6&#45;&gt;Node7 -->
<g id="edge8_Node000006_Node000007" class="edge">
<title>Node6&#45;&gt;Node7</title>
<g id="a_edge8_Node000006_Node000007"><a xlink:title=" ">
<path fill="none" stroke="#63b8ff" d="M539.78,-88.45C553.37,-91.3 567.59,-94.28 581.45,-97.19"/>
<polygon fill="#63b8ff" stroke="#63b8ff" points="580.48,-100.56 590.99,-99.19 581.92,-93.71 580.48,-100.56"/>
</a>
</g>
</g>
<!-- Node8 -->
<g id="Node000008" class="node">
<title>Node8</title>
<g id="a_Node000008"><a xlink:href="enumfr_1_1softsf_1_1canscan_1_1ui_1_1_qr_code_buffered_image.html#a3951aad146f1247d0b23eae74de9e5dd" target="_top" xlink:title="Checks if coordinates are within the top&#45;left position pattern.">
<polygon fill="white" stroke="#666666" points="752.88,-82 591.38,-82 591.38,-50 752.88,-50 752.88,-82"/>
<text text-anchor="start" x="599.38" y="-68.5" font-family="Helvetica,sans-Serif" font-size="10.00">fr.softsf.canscan.ui.QrCode</text>
<text text-anchor="middle" x="672.12" y="-56.5" font-family="Helvetica,sans-Serif" font-size="10.00">BufferedImage.isInTopLeftPattern</text>
</a>
</g>
</g>
<!-- Node6&#45;&gt;Node8 -->
<g id="edge9_Node000006_Node000008" class="edge">
<title>Node6&#45;&gt;Node8</title>
<g id="a_edge9_Node000006_Node000008"><a xlink:title=" ">
<path fill="none" stroke="#63b8ff" d="M543.07,-69.66C555.14,-69.32 567.63,-68.96 579.88,-68.61"/>
<polygon fill="#63b8ff" stroke="#63b8ff" points="579.62,-72.12 589.52,-68.33 579.42,-65.12 579.62,-72.12"/>
</a>
</g>
</g>
<!-- Node9 -->
<g id="Node000009" class="node">
<title>Node9</title>
<g id="a_Node000009"><a xlink:href="enumfr_1_1softsf_1_1canscan_1_1ui_1_1_qr_code_buffered_image.html#ad31e256d4159e4a6a791b995c9629863" target="_top" xlink:title="Checks if coordinates are within the top&#45;right position pattern.">
<polygon fill="white" stroke="#666666" points="756.25,-32 588,-32 588,0 756.25,0 756.25,-32"/>
<text text-anchor="start" x="596" y="-18.5" font-family="Helvetica,sans-Serif" font-size="10.00">fr.softsf.canscan.ui.QrCode</text>
<text text-anchor="middle" x="672.12" y="-6.5" font-family="Helvetica,sans-Serif" font-size="10.00">BufferedImage.isInTopRightPattern</text>
</a>
</g>
</g>
<!-- Node6&#45;&gt;Node9 -->
<g id="edge10_Node000006_Node000009" class="edge">
<title>Node6&#45;&gt;Node9</title>
<g id="a_edge10_Node000006_Node000009"><a xlink:title=" ">
<path fill="none" stroke="#63b8ff" d="M523.17,-55.5C546.75,-49.21 573.85,-41.97 598.35,-35.43"/>
<polygon fill="#63b8ff" stroke="#63b8ff" points="599.19,-38.83 607.94,-32.87 597.38,-32.07 599.19,-38.83"/>
</a>
</g>
</g>
</g>
</svg>
